g breadStationShieldSimplifiedGeo3
v -58.3311 42.702972 -60.553574
v -53.172 42.78263 -65.071846
v -57.76668 34.8298 -65.24897
v -70.96761 42.703995 -45.073666
v -67.20949 42.697372 -50.50452
v -71.74237 34.85155 -49.4562
v -77.38485 42.68573 -32.867283
v -81.471115 34.830677 -30.924124
v -79.413345 42.918663 -27.292429
v -82.9722 42.785896 -13.298976
v -86.51161 34.817196 -10.502745
v -83.814766 42.69048 -6.625826
v -58.3311 42.702972 60.553574
v -57.76668 34.8298 65.24897
v -53.172 42.78263 65.071846
v -70.96761 42.703995 45.073666
v -71.74237 34.85155 49.4562
v -67.20949 42.697372 50.50452
v -77.38485 42.68573 32.867283
v -79.413345 42.918663 27.292429
v -81.471115 34.830677 30.924124
v -82.9722 42.785896 13.298976
v -83.814766 42.69048 6.625826
v -86.51161 34.817196 10.502745
v -84.08489 42.69151 4.730702E-15
v -83.814766 42.69048 -6.625826
v -86.51161 34.817196 -10.502745
v -87.20316 34.691742 3.9752065E-15
v -82.9722 42.785896 -13.298976
v -81.62252 42.699165 -20.177376
v -84.61103 34.770775 -20.984003
v -86.51161 34.817196 -10.502745
v -81.62252 42.699165 -20.177376
v -79.413345 42.918663 -27.292429
v -81.471115 34.830677 -30.924124
v -84.61103 34.770775 -20.984003
v -77.38485 42.68573 -32.867283
v -74.44496 42.7331 -39.039368
v -77.11197 34.92271 -40.53581
v -81.471115 34.830677 -30.924124
v -71.74237 34.85155 -49.4562
v -77.11197 34.92271 -40.53581
v -74.44496 42.7331 -39.039368
v -70.96761 42.703995 -45.073666
v -65.21146 34.933308 -57.75511
v -71.74237 34.85155 -49.4562
v -67.20949 42.697372 -50.50452
v -62.748783 42.849686 -55.85742
v -57.76668 34.8298 -65.24897
v -65.21146 34.933308 -57.75511
v -62.748783 42.849686 -55.85742
v -58.3311 42.702972 -60.553574
v -53.172 42.78263 -65.071846
v -47.892883 42.56539 -69.1672
v -49.53282 34.99361 -71.628586
v -57.76668 34.8298 -65.24897
v -40.971085 34.95609 -76.87388
v -49.53282 34.99361 -71.628586
v -47.892883 42.56539 -69.1672
v -42.083904 42.70353 -72.78945
v -40.971085 34.95609 -76.87388
v -42.083904 42.70353 -72.78945
v -35.56097 42.88163 -76.088974
v -39.92626 34.88874 -77.43579
v -39.223328 34.03391 -78.12329
v -31.37858 42.13848 -78.26862
v -29.459045 40.526775 -79.73228
v -29.417788 38.221416 -80.726776
v -39.92626 34.88874 -77.43579
v -35.56097 42.88163 -76.088974
v -31.37858 42.13848 -78.26862
v -39.223328 34.03391 -78.12329
v -37.69498 27.30896 -81.09411
v -39.223328 34.03391 -78.12329
v -29.417788 38.221416 -80.726776
v -30.793335 26.285624 -84.25064
v -36.047653 20.395847 -83.560234
v -37.69498 27.30896 -81.09411
v -30.793335 26.285624 -84.25064
v -31.097635 17.93926 -86.00853
v -36.047653 20.395847 -83.560234
v -31.097635 17.93926 -86.00853
v -31.039097 16.287628 -86.31004
v -34.645485 15.732799 -85.020905
v -31.586208 14.594243 -86.37619
v -33.62405 14.596834 -85.593544
v -34.645485 15.732799 -85.020905
v -31.039097 16.287628 -86.31004
v -84.08489 42.69151 4.730702E-15
v -87.20316 34.691742 3.9752065E-15
v -86.51161 34.817196 10.502745
v -83.814766 42.69048 6.625826
v -82.9722 42.785896 13.298976
v -86.51161 34.817196 10.502745
v -84.61103 34.770775 20.984003
v -81.62252 42.699165 20.177376
v -81.62252 42.699165 20.177376
v -84.61103 34.770775 20.984003
v -81.471115 34.830677 30.924124
v -79.413345 42.918663 27.292429
v -77.38485 42.68573 32.867283
v -81.471115 34.830677 30.924124
v -77.11197 34.92271 40.53581
v -74.44496 42.7331 39.039368
v -71.74237 34.85155 49.4562
v -70.96761 42.703995 45.073666
v -74.44496 42.7331 39.039368
v -77.11197 34.92271 40.53581
v -65.21146 34.933308 57.75511
v -62.748783 42.849686 55.85742
v -67.20949 42.697372 50.50452
v -71.74237 34.85155 49.4562
v -57.76668 34.8298 65.24897
v -58.3311 42.702972 60.553574
v -62.748783 42.849686 55.85742
v -65.21146 34.933308 57.75511
v -53.172 42.78263 65.071846
v -57.76668 34.8298 65.24897
v -49.53282 34.99361 71.628586
v -47.892883 42.56539 69.1672
v -40.971085 34.95609 76.87388
v -42.083904 42.70353 72.78945
v -47.892883 42.56539 69.1672
v -49.53282 34.99361 71.628586
v -40.971085 34.95609 76.87388
v -39.92626 34.88874 77.43579
v -35.56097 42.88163 76.088974
v -42.083904 42.70353 72.78945
v -39.223328 34.03391 78.12329
v -29.417788 38.221416 80.726776
v -29.459045 40.526775 79.73228
v -31.37858 42.13848 78.26862
v -39.92626 34.88874 77.43579
v -39.223328 34.03391 78.12329
v -31.37858 42.13848 78.26862
v -35.56097 42.88163 76.088974
v -37.69498 27.30896 81.09411
v -30.793335 26.285624 84.25064
v -29.417788 38.221416 80.726776
v -39.223328 34.03391 78.12329
v -36.047653 20.395847 83.560234
v -31.097635 17.93926 86.00853
v -30.793335 26.285624 84.25064
v -37.69498 27.30896 81.09411
v -36.047653 20.395847 83.560234
v -34.645485 15.732799 85.020905
v -31.039097 16.287628 86.31004
v -31.097635 17.93926 86.00853
v -31.586208 14.594243 86.37619
v -31.039097 16.287628 86.31004
v -34.645485 15.732799 85.020905
v -33.62405 14.596834 85.593544
vt -0.13738672 -0.33669585
vt 0.8316637 -0.35848528
vt 1.1974882 1.4012307
vt -0.151157 -0.32927006
vt 0.82520306 -0.30700365
vt 1.189422 1.3746934
vt -0.17803848 0.194813
vt 1.2057631 -0.22630598
vt 0.80551946 1.2169561
vt -0.20084158 0.1807895
vt 1.2299294 -0.2073111
vt 0.81707525 1.1806854
vt -0.13738672 -0.33669585
vt 1.1974882 1.4012307
vt 0.8316637 -0.35848528
vt -0.151157 -0.32927006
vt 1.189422 1.3746934
vt 0.82520306 -0.30700365
vt -0.17803848 0.194813
vt 0.80551946 1.2169561
vt 1.2057631 -0.22630598
vt -0.20084158 0.1807895
vt 0.81707525 1.1806854
vt 1.2299294 -0.2073111
vt -0.16654365 -0.37035772
vt 0.8321141 -0.3518796
vt 0.8272773 1.4411459
vt -0.1849079 1.4296765
vt 0.15861644 -0.37913826
vt 1.1196955 -0.3656874
vt 1.1688068 1.4478735
vt 0.16478579 1.4437196
vt -0.17297776 -0.3682888
vt 0.82238865 -0.4102524
vt 0.838584 1.435334
vt -0.18669453 1.4452051
vt 0.16846038 -0.36426654
vt 1.1561418 -0.36532646
vt 1.1563251 1.4219965
vt 0.16693427 1.4444994
vt 0.15357313 -0.38648596
vt 1.1702352 -0.3989555
vt 1.1342766 1.3851832
vt 0.12573634 1.3614265
vt -0.17460379 -0.39436218
vt 0.836257 -0.38009065
vt 0.8857101 1.3137113
vt -0.15539779 1.3403542
vt 0.16311581 -0.4118016
vt 1.1573197 -0.40767372
vt 1.1155347 1.3297782
vt 0.14605969 1.324532
vt 0.17374995 -0.36905888
vt 1.1409324 -0.33076903
vt 1.1668626 1.3769102
vt 0.16770406 1.4088477
vt 0.14405876 -0.40031257
vt 1.1393611 -0.39298758
vt 1.1142299 1.3173999
vt 0.15300642 1.3673958
vt -0.073057964 2.4899685
vt 1.4983058 1.1049377
vt 1.5274749 2.1569314
vt -0.057396844 2.922659
vt 3.0493922 2.5760984
vt 4.4215236 2.4994416
vt 5.295352 4.7188387
vt 3.566268 4.4851956
vt -0.49014226 -0.3372089
vt 0.88657415 -1.1770192
vt 0.8644781 0.2119031
vt -0.5329822 0.24161386
vt 0.3322392 0.2112362
vt 1.1612575 0.0864045
vt 1.1734257 1.5369953
vt 0.09172098 1.3998431
vt -0.11962481 -0.31609562
vt 0.8385801 -0.32440546
vt 1.1639982 1.5425476
vt 0.13826968 1.4851139
vt -0.52128917 0.962528
vt 1.9458437 0.017774826
vt 2.1163828 1.1206028
vt -0.37844813 1.901872
vt -0.6384822 -2.0562499
vt 0.99891776 -2.5528803
vt 1.6336424 -0.86888015
vt -1.6830956 0.7401953
vt -0.16654365 -0.37035772
vt -0.1849079 1.4296765
vt 0.8272773 1.4411459
vt 0.8321141 -0.3518796
vt 0.15861644 -0.37913826
vt 0.16478579 1.4437196
vt 1.1688068 1.4478735
vt 1.1196955 -0.3656874
vt -0.17297776 -0.3682888
vt -0.18669453 1.4452051
vt 0.838584 1.435334
vt 0.82238865 -0.4102524
vt 0.16846038 -0.36426654
vt 0.16693427 1.4444994
vt 1.1563251 1.4219965
vt 1.1561418 -0.36532646
vt 0.15357313 -0.38648596
vt 0.12573634 1.3614265
vt 1.1342766 1.3851832
vt 1.1702352 -0.3989555
vt -0.17460379 -0.39436218
vt -0.15539779 1.3403542
vt 0.8857101 1.3137113
vt 0.836257 -0.38009065
vt 0.16311581 -0.4118016
vt 0.14605969 1.324532
vt 1.1155347 1.3297782
vt 1.1573197 -0.40767372
vt 0.17374995 -0.36905888
vt 0.16770406 1.4088477
vt 1.1668626 1.3769102
vt 1.1409324 -0.33076903
vt 0.14405876 -0.40031257
vt 0.15300642 1.3673958
vt 1.1142299 1.3173999
vt 1.1393611 -0.39298758
vt -0.073057964 2.4899685
vt -0.057396844 2.922659
vt 1.5274749 2.1569314
vt 1.4983058 1.1049377
vt 3.0493922 2.5760984
vt 3.566268 4.4851956
vt 5.295352 4.7188387
vt 4.4215236 2.4994416
vt -0.49014226 -0.3372089
vt -0.5329822 0.24161386
vt 0.8644781 0.2119031
vt 0.88657415 -1.1770192
vt 0.3322392 0.2112362
vt 0.09172098 1.3998431
vt 1.1734257 1.5369953
vt 1.1612575 0.0864045
vt -0.11962481 -0.31609562
vt 0.13826968 1.4851139
vt 1.1639982 1.5425476
vt 0.8385801 -0.32440546
vt -0.52128917 0.962528
vt -0.37844813 1.901872
vt 2.1163828 1.1206028
vt 1.9458437 0.017774826
vt -0.6384822 -2.0562499
vt -1.6830956 0.7401953
vt 1.6336424 -0.86888015
vt 0.99891776 -2.5528803
vn 0.6568589 -0.357429 0.66391325
vn 0.5807247 -0.3585632 0.73088396
vn 0.6196246 -0.35725075 0.6988828
vn 0.7959689 -0.35872832 0.48759353
vn 0.7371095 -0.3585755 0.5727943
vn 0.76831836 -0.35802835 0.53056824
vn 0.8532459 -0.35788825 0.3793248
vn 0.8737582 -0.35805747 0.3291528
vn 0.88865876 -0.359615 0.2845394
vn 0.91934526 -0.35827667 0.16261032
vn 0.927087 -0.35713595 0.11385739
vn 0.93188345 -0.3574989 0.061544314
vn 0.6568591 -0.35742906 -0.6639132
vn 0.61962473 -0.35725078 -0.69888264
vn 0.58072484 -0.3585633 -0.7308838
vn 0.7959689 -0.3587286 -0.48759335
vn 0.7683185 -0.35802835 -0.530568
vn 0.7371097 -0.35857528 -0.5727941
vn 0.85324603 -0.35788816 -0.37932485
vn 0.88865894 -0.35961458 -0.2845395
vn 0.87375826 -0.35805717 -0.3291529
vn 0.91934526 -0.3582766 -0.16261034
vn 0.93188345 -0.3574989 -0.06154439
vn 0.927087 -0.35713595 -0.11385742
vn 0.9349721 -0.35472128 0
vn 0.93188345 -0.3574989 0.061544314
vn 0.927087 -0.35713595 0.11385739
vn 0.9349721 -0.35472128 0
vn 0.91934526 -0.35827667 0.16261032
vn 0.9066244 -0.35674387 0.22531323
vn 0.90658313 -0.35674718 0.22547413
vn 0.927087 -0.35713595 0.11385739
vn 0.9066244 -0.35674387 0.22531323
vn 0.88865876 -0.359615 0.2845394
vn 0.8737582 -0.35805747 0.3291528
vn 0.90658313 -0.35674718 0.22547413
vn 0.8532459 -0.35788825 0.3793248
vn 0.82763886 -0.35591567 0.43397933
vn 0.82737345 -0.3559192 0.4344821
vn 0.8737582 -0.35805747 0.3291528
vn 0.76831836 -0.35802835 0.53056824
vn 0.82737345 -0.3559192 0.4344821
vn 0.82763886 -0.35591567 0.43397933
vn 0.7959689 -0.35872832 0.48759353
vn 0.7005555 -0.35536155 0.6188215
vn 0.76831836 -0.35802835 0.53056824
vn 0.7371095 -0.3585755 0.5727943
vn 0.69955945 -0.35533515 0.6199626
vn 0.6196246 -0.35725075 0.6988828
vn 0.7005555 -0.35536155 0.6188215
vn 0.69955945 -0.35533515 0.6199626
vn 0.6568589 -0.357429 0.66391325
vn 0.5807247 -0.3585632 0.73088396
vn 0.5335831 -0.35618216 0.7670875
vn 0.5332424 -0.3561863 0.7673225
vn 0.6196246 -0.35725075 0.6988828
vn 0.46247557 -0.3639332 0.80849797
vn 0.5332424 -0.3561863 0.7673225
vn 0.5335831 -0.35618216 0.7670875
vn 0.47573522 -0.36060628 0.8022713
vn 0.46247557 -0.3639332 0.80849797
vn 0.47573522 -0.36060628 0.8022713
vn 0.40328532 -0.36304733 0.83997476
vn 0.4070626 -0.36462566 0.83746535
vn 0.3672882 -0.31796038 0.8740713
vn 0.3783359 -0.35247537 0.855934
vn 0.37476084 -0.35092777 0.8581399
vn 0.3661413 -0.32010734 0.8737688
vn 0.4070626 -0.36462566 0.83746535
vn 0.40328532 -0.36304733 0.83997476
vn 0.3783359 -0.35247537 0.855934
vn 0.3672882 -0.31796038 0.8740713
vn 0.36227673 -0.2846932 0.88752764
vn 0.3672882 -0.31796038 0.8740713
vn 0.3661413 -0.32010734 0.8737688
vn 0.3628186 -0.2697003 0.8919778
vn 0.3638489 -0.21453454 0.9064154
vn 0.36227673 -0.2846932 0.88752764
vn 0.3628186 -0.2697003 0.8919778
vn 0.36337548 -0.20215549 0.9094457
vn 0.3638489 -0.21453454 0.9064154
vn 0.36337548 -0.20215549 0.9094457
vn 0.3604621 -0.16780905 0.917555
vn 0.3608169 -0.16877419 0.9172385
vn 0.35355854 -0.14921203 0.923435
vn 0.35355854 -0.14921202 0.923435
vn 0.3608169 -0.16877419 0.9172385
vn 0.3604621 -0.16780905 0.917555
vn 0.9349721 -0.35472128 0
vn 0.9349721 -0.35472128 0
vn 0.927087 -0.35713595 -0.11385742
vn 0.93188345 -0.3574989 -0.06154439
vn 0.91934526 -0.3582766 -0.16261034
vn 0.927087 -0.35713595 -0.11385742
vn 0.9065832 -0.35674694 -0.22547415
vn 0.90662444 -0.3567436 -0.22531328
vn 0.90662444 -0.3567436 -0.22531328
vn 0.9065832 -0.35674694 -0.22547415
vn 0.87375826 -0.35805717 -0.3291529
vn 0.88865894 -0.35961458 -0.2845395
vn 0.85324603 -0.35788816 -0.37932485
vn 0.87375826 -0.35805717 -0.3291529
vn 0.8273734 -0.35591933 -0.434482
vn 0.82763875 -0.35591576 -0.4339792
vn 0.7683185 -0.35802835 -0.530568
vn 0.7959689 -0.3587286 -0.48759335
vn 0.82763875 -0.35591576 -0.4339792
vn 0.8273734 -0.35591933 -0.434482
vn 0.70055574 -0.3553615 -0.6188213
vn 0.6995595 -0.355335 -0.61996233
vn 0.7371097 -0.35857528 -0.5727941
vn 0.7683185 -0.35802835 -0.530568
vn 0.61962473 -0.35725078 -0.69888264
vn 0.6568591 -0.35742906 -0.6639132
vn 0.6995595 -0.355335 -0.61996233
vn 0.70055574 -0.3553615 -0.6188213
vn 0.58072484 -0.3585633 -0.7308838
vn 0.61962473 -0.35725078 -0.69888264
vn 0.5332426 -0.35618636 -0.76732236
vn 0.5335832 -0.35618225 -0.7670874
vn 0.46247533 -0.3639333 -0.80849814
vn 0.475735 -0.36060628 -0.8022713
vn 0.5335832 -0.35618225 -0.7670874
vn 0.5332426 -0.35618636 -0.76732236
vn 0.46247533 -0.3639333 -0.80849814
vn 0.40706214 -0.3646256 -0.8374656
vn 0.40328482 -0.36304733 -0.83997494
vn 0.475735 -0.36060628 -0.8022713
vn 0.36728746 -0.31796035 -0.87407154
vn 0.36614066 -0.32010728 -0.873769
vn 0.37476093 -0.35092762 -0.85813993
vn 0.37833577 -0.35247523 -0.85593414
vn 0.40706214 -0.3646256 -0.8374656
vn 0.36728746 -0.31796035 -0.87407154
vn 0.37833577 -0.35247523 -0.85593414
vn 0.40328482 -0.36304733 -0.83997494
vn 0.36227602 -0.2846933 -0.88752794
vn 0.36281797 -0.2697003 -0.8919781
vn 0.36614066 -0.32010728 -0.873769
vn 0.36728746 -0.31796035 -0.87407154
vn 0.36384866 -0.21453457 -0.9064155
vn 0.36337528 -0.20215555 -0.9094457
vn 0.36281797 -0.2697003 -0.8919781
vn 0.36227602 -0.2846933 -0.88752794
vn 0.36384866 -0.21453457 -0.9064155
vn 0.36081702 -0.16877441 -0.91723835
vn 0.36046225 -0.1678093 -0.9175549
vn 0.36337528 -0.20215555 -0.9094457
vn 0.3535591 -0.1492121 -0.9234348
vn 0.36046225 -0.1678093 -0.9175549
vn 0.36081702 -0.16877441 -0.91723835
vn 0.3535591 -0.14921209 -0.9234348
g breadStationShieldSimplifiedGeo3_0
f 3/3/3 2/2/2 1/1/1
f 6/6/6 5/5/5 4/4/4
f 9/9/9 8/8/8 7/7/7
f 12/12/12 11/11/11 10/10/10
f 15/15/15 14/14/14 13/13/13
f 18/18/18 17/17/17 16/16/16
f 21/21/21 20/20/20 19/19/19
f 24/24/24 23/23/23 22/22/22
f 27/27/27 26/26/26 25/25/25
f 28/28/28 27/27/27 25/25/25
f 31/31/31 30/30/30 29/29/29
f 32/32/32 31/31/31 29/29/29
f 35/35/35 34/34/34 33/33/33
f 36/36/36 35/35/35 33/33/33
f 39/39/39 38/38/38 37/37/37
f 40/40/40 39/39/39 37/37/37
f 43/43/43 42/42/42 41/41/41
f 44/44/44 43/43/43 41/41/41
f 47/47/47 46/46/46 45/45/45
f 48/48/48 47/47/47 45/45/45
f 51/51/51 50/50/50 49/49/49
f 52/52/52 51/51/51 49/49/49
f 55/55/55 54/54/54 53/53/53
f 56/56/56 55/55/55 53/53/53
f 59/59/59 58/58/58 57/57/57
f 60/60/60 59/59/59 57/57/57
f 63/63/63 62/62/62 61/61/61
f 64/64/64 63/63/63 61/61/61
f 67/67/67 66/66/66 65/65/65
f 68/68/68 67/67/67 65/65/65
f 71/71/71 70/70/70 69/69/69
f 72/72/72 71/71/71 69/69/69
f 75/75/75 74/74/74 73/73/73
f 76/76/76 75/75/75 73/73/73
f 79/79/79 78/78/78 77/77/77
f 80/80/80 79/79/79 77/77/77
f 83/83/83 82/82/82 81/81/81
f 84/84/84 83/83/83 81/81/81
f 87/87/87 86/86/86 85/85/85
f 88/88/88 87/87/87 85/85/85
f 91/91/91 90/90/90 89/89/89
f 92/92/92 91/91/91 89/89/89
f 95/95/95 94/94/94 93/93/93
f 96/96/96 95/95/95 93/93/93
f 99/99/99 98/98/98 97/97/97
f 100/100/100 99/99/99 97/97/97
f 103/103/103 102/102/102 101/101/101
f 104/104/104 103/103/103 101/101/101
f 107/107/107 106/106/106 105/105/105
f 108/108/108 107/107/107 105/105/105
f 111/111/111 110/110/110 109/109/109
f 112/112/112 111/111/111 109/109/109
f 115/115/115 114/114/114 113/113/113
f 116/116/116 115/115/115 113/113/113
f 119/119/119 118/118/118 117/117/117
f 120/120/120 119/119/119 117/117/117
f 123/123/123 122/122/122 121/121/121
f 124/124/124 123/123/123 121/121/121
f 127/127/127 126/126/126 125/125/125
f 128/128/128 127/127/127 125/125/125
f 131/131/131 130/130/130 129/129/129
f 132/132/132 131/131/131 129/129/129
f 135/135/135 134/134/134 133/133/133
f 136/136/136 135/135/135 133/133/133
f 139/139/139 138/138/138 137/137/137
f 140/140/140 139/139/139 137/137/137
f 143/143/143 142/142/142 141/141/141
f 144/144/144 143/143/143 141/141/141
f 147/147/147 146/146/146 145/145/145
f 148/148/148 147/147/147 145/145/145
f 151/151/151 150/150/150 149/149/149
f 152/152/152 151/151/151 149/149/149
