g breadStationShieldSimplifiedGeo1
v -8.829149 63.267925 -71.483
v -8.423518 65.95427 -69.407486
v -6.466798 65.98906 -69.58933
v 8.4447775 65.96618 -69.395035
v 8.366193 63.25579 -71.54919
v 6.153792 65.976006 -69.62749
v -3.3100684 44.568848 -83.16828
v 2.895087 48.985863 -81.01794
v 3.3180857 44.594154 -83.15615
v -3.3795857 48.9687 -81.001564
v -3.4365945 53.460365 -78.50962
v 2.8234987 53.471016 -78.535446
v -3.3444579 58.1485 -75.583855
v 2.802595 58.152542 -75.609566
v -3.1511157 62.567368 -72.48617
v 2.7762375 62.565556 -72.50713
v -3.1877239 65.928215 -69.86701
v 3.055914 65.92834 -69.87382
v 2.7762375 62.565556 -72.50713
v 8.923835 58.03416 -75.20398
v 2.802595 58.152542 -75.609566
v 8.366193 63.25579 -71.54919
v 15.449621 63.294323 -70.33321
v 15.427892 57.349136 -74.61084
v 21.75027 56.309788 -73.70813
v 15.427892 57.349136 -74.61084
v 15.449621 63.294323 -70.33321
v 21.02751 61.269344 -70.431244
v 15.417487 51.227192 -78.35338
v 15.427892 57.349136 -74.61084
v 21.75027 56.309788 -73.70813
v 22.706789 51.48947 -76.41241
v 15.417487 51.227192 -78.35338
v 9.006841 52.92343 -78.38412
v 8.923835 58.03416 -75.20398
v 15.427892 57.349136 -74.61084
v 9.006841 52.92343 -78.38412
v 2.8234987 53.471016 -78.535446
v 2.802595 58.152542 -75.609566
v 8.923835 58.03416 -75.20398
v -3.3444579 58.1485 -75.583855
v -9.561808 58.02586 -75.13119
v -8.829149 63.267925 -71.483
v -3.1511157 62.567368 -72.48617
v -9.561808 58.02586 -75.13119
v -16.469355 63.279987 -70.10905
v -8.829149 63.267925 -71.483
v -16.172798 57.317314 -74.4748
v -21.90061 56.226326 -73.7178
v -21.052734 61.684555 -70.111595
v -3.4365945 53.460365 -78.50962
v -9.819383 52.906414 -78.2941
v -9.561808 58.02586 -75.13119
v -3.3444579 58.1485 -75.583855
v -9.819383 52.906414 -78.2941
v -16.559492 51.21096 -78.14044
v -16.172798 57.317314 -74.4748
v -9.561808 58.02586 -75.13119
v -16.559492 51.21096 -78.14044
v -22.834538 51.771286 -76.206276
v -21.90061 56.226326 -73.7178
v -16.172798 57.317314 -74.4748
v 15.449621 63.294323 -70.33321
v 8.366193 63.25579 -71.54919
v 8.4447775 65.96618 -69.395035
v 12.115925 65.991646 -68.8382
v -8.829149 63.267925 -71.483
v -16.469355 63.279987 -70.10905
v -13.43699 66.04326 -68.539024
v -8.423518 65.95427 -69.407486
v 14.08518 65.69548 -68.70382
v 12.115925 65.991646 -68.8382
v 14.0198145 65.9186 -68.52996
v 15.449621 63.294323 -70.33321
v -16.469355 63.279987 -70.10905
v -14.652562 65.790085 -68.5113
v -14.127645 66.01466 -68.42868
v -13.43699 66.04326 -68.539024
v 6.153792 65.976006 -69.62749
v 8.366193 63.25579 -71.54919
v 2.7762375 62.565556 -72.50713
v 3.055914 65.92834 -69.87382
v -3.1877239 65.928215 -69.86701
v -3.1511157 62.567368 -72.48617
v -8.829149 63.267925 -71.483
v -6.466798 65.98906 -69.58933
v -15.514991 65.78461 -68.3168
v -14.652562 65.790085 -68.5113
v -16.469355 63.279987 -70.10905
v -17.098446 65.45314 -68.22236
v -19.799582 63.623417 -68.97962
v -18.65269 64.69195 -68.43031
v -17.098446 65.45314 -68.22236
v -16.469355 63.279987 -70.10905
v -20.537601 62.405643 -69.71265
v -16.469355 63.279987 -70.10905
v -21.052734 61.684555 -70.111595
v -19.799582 63.623417 -68.97962
v 14.08518 65.69548 -68.70382
v 15.483588 65.73291 -68.3676
v 17.105446 65.41034 -68.25561
v 15.449621 63.294323 -70.33321
v 18.638493 64.685875 -68.43912
v 19.808323 63.646633 -68.958405
v 15.449621 63.294323 -70.33321
v 17.105446 65.41034 -68.25561
v 19.808323 63.646633 -68.958405
v 20.706762 62.367172 -69.69063
v 21.02751 61.269344 -70.431244
v 15.449621 63.294323 -70.33321
v -9.64483 48.55598 -80.71026
v -3.3100684 44.568848 -83.16828
v -10.041338 44.5821 -82.613464
v -3.3795857 48.9687 -81.001564
v -9.819383 52.906414 -78.2941
v -3.4365945 53.460365 -78.50962
v 3.3180857 44.594154 -83.15615
v 8.777106 48.61773 -80.78414
v 9.927715 44.58189 -82.627525
v 2.895087 48.985863 -81.01794
v 2.8234987 53.471016 -78.535446
v 9.006841 52.92343 -78.38412
v -17.240608 44.5392 -81.44802
v -9.64483 48.55598 -80.71026
v -10.041338 44.5821 -82.613464
v -15.284098 47.48155 -80.38736
v -16.559492 51.21096 -78.14044
v -9.819383 52.906414 -78.2941
v 15.107127 44.568317 -81.849014
v 9.927715 44.58189 -82.627525
v 8.777106 48.61773 -80.78414
v 13.212217 47.72452 -80.63021
v 9.006841 52.92343 -78.38412
v 15.417487 51.227192 -78.35338
v 15.417487 51.227192 -78.35338
v 22.706789 51.48947 -76.41241
v 19.890644 46.200947 -80.03315
v 16.541817 46.161446 -80.803665
v 15.107127 44.568317 -81.849014
v 13.212217 47.72452 -80.63021
v 15.350636 45.37466 -81.42172
v 15.547483 44.62671 -81.7359
v -17.637402 44.759144 -81.25451
v -17.632872 45.44966 -80.92676
v -15.284098 47.48155 -80.38736
v -17.240608 44.5392 -81.44802
v 15.417487 51.227192 -78.35338
v 16.541817 46.161446 -80.803665
v 15.350636 45.37466 -81.42172
v 13.212217 47.72452 -80.63021
v -18.510004 46.07652 -80.41356
v -16.559492 51.21096 -78.14044
v -15.284098 47.48155 -80.38736
v -17.632872 45.44966 -80.92676
v 23.736267 47.482483 -78.308266
v 23.665197 46.483875 -78.84585
v 22.712729 45.876625 -79.44137
v 23.450691 48.548576 -77.832634
v 23.450691 48.548576 -77.832634
v 22.712729 45.876625 -79.44137
v 19.890644 46.200947 -80.03315
v 22.706789 51.48947 -76.41241
v -20.26292 46.07129 -80.000465
v -22.834538 51.771286 -76.206276
v -16.559492 51.21096 -78.14044
v -18.510004 46.07652 -80.41356
v -23.308605 49.39023 -77.41411
v -22.834538 51.771286 -76.206276
v -20.26292 46.07129 -80.000465
v -22.182041 45.917515 -79.56311
v -23.484837 46.086494 -79.101654
v -23.751484 47.294888 -78.40241
v -23.308605 49.39023 -77.41411
v -22.182041 45.917515 -79.56311
vt 0 0
vt 1.324376 0.13186526
vt 1.3556962 1.0887051
vt -0.30569622 0.11854304
vt 1 0
vt 0.74646306 1.1507306
vt -0.02328884 -0.18210505
vt 0.05265683 1
vt -0.023951784 0.7884029
vt 0.052656833 0
vt 0.26657638 0
vt 0.2665764 1
vt 0.515952 0
vt 0.515952 1
vt 0.77640176 0
vt 0.7764018 1
vt 1.0888454 0.94207156
vt 1.0948035 2.0979645
vt 0 0
vt 0.473378 1
vt 0 1
vt 0.473378 0
vt 1 0
vt 1 1
vt 0.03682843 0.0028895787
vt 1 0
vt 1 1
vt 0.0844824 1.0009116
vt 0 0
vt 1 0
vt 0.35903347 0.4849199
vt -0.71501404 0.40987968
vt 0 0
vt 1 0
vt 1 1
vt 0 1
vt 0 0
vt 1 0
vt 1 1
vt 0 1
vt 0 0
vt 1 0
vt 1 1
vt 0 1
vt 0 0
vt 0.500324 1
vt 0 1
vt 0.500324 0
vt 1.092044 -0.027868994
vt 1.088914 0.9986923
vt 0 0
vt 1 0
vt 1 1
vt 0 1
vt 0 0
vt 1 0
vt 1 1
vt 0 1
vt 0 0
vt 1.1789646 -0.4014694
vt 1.181071 0.72709453
vt 0 1
vt 0 0
vt 1 0
vt 1.4770349 1.5370495
vt 0.4502105 1.5000021
vt 0 0
vt 1 0
vt 0.4868679 1.3557097
vt -0.40490967 1.3415481
vt -2.4243762 5.0973287
vt -1.6860638 7.3316026
vt -3.1483815 6.9567904
vt 1 0
vt 0 0.5
vt 0.88265467 0.78296524
vt 0.8326399 1.3203988
vt 0.8203131 1.6790926
vt -0.34465235 0.6352922
vt 1 0
vt 1 1
vt -0.3298421 1.5734596
vt -0.30625764 -0.7027592
vt 1 0
vt 1 1
vt -0.29471996 0.31800842
vt 1.5054709 1.421391
vt 1.3221849 0.5917918
vt 1 1
vt 1.3335917 2.449381
vt -3.5088072 4.140344
vt -3.306654 5.33027
vt -2.6004293 5.832376
vt 0 1
vt 5.9900246 6.268205
vt 1 1
vt 7.9706006 9.263653
vt 6.213245 5.103894
vt -1.989229 2.051444
vt -1.5296772 2.7015243
vt -1.5605803 4.074608
vt 0 1
vt 2.5620162 3.0377645
vt 3.138784 2.3011823
vt 1 1
vt 1.7110226 3.4196992
vt -4.1904626 4.303332
vt -4.1363306 5.683396
vt -4.0322585 6.7445636
vt 0 1
vt 0 0.80246997
vt 1.1993958 1.123687
vt 0.17007117 1.1229086
vt 1 0.80246997
vt 0 0
vt 1 0
vt -0.092505075 -0.1188212
vt 0.19752997 1
vt -0.078687795 0.893842
vt 0.19752997 0
vt 1 0
vt 1 1
vt -0.13940367 -0.09357929
vt 0.19753 1
vt -0.12722428 1.1397405
vt 0.19753 0
vt 1 0
vt 1 1
vt -1.056289 -0.20306629
vt 0.90563375 -0.13874757
vt 1 0.19752997
vt 0 0.19752997
vt 1 1
vt 0 1
vt 0 0
vt 0.84145206 0.010535025
vt 0.79585695 1.2318391
vt -0.08259892 1.2348973
vt -26.18149 30.508385
vt 1 0
vt -21.590878 26.416721
vt -33.038208 38.55782
vt -12.975 -17.263124
vt -8.310505 -11.762016
vt 1 1
vt -10.734243 -13.699491
vt 0 0
vt 4.5117016 2.9269342
vt 6.0362754 4.852996
vt 0 1
vt 4.801314 -12.996502
vt 1 0
vt 1 1
vt 5.6919312 -14.580714
vt 33.277256 1.5548028
vt 36.92466 1.2594749
vt 20.748898 0.37476885
vt 28.074638 2.2985845
vt 0.9071064 -0.7330449
vt 2.4288945 -0.9986957
vt 2.0058331 0.62343824
vt 0.6356427 0.30614984
vt -0.32148927 1.4295539
vt 0.8999473 0.9993147
vt 1 1
vt -0.3254298 2.1615398
vt -1.0343592 0.4862176
vt -0.07473016 0.29798692
vt 0.4780572 1.8364129
vt -1.0467093 1.9077923
vt -5.285227 -2.4988933
vt -3.651194 -2.3601034
vt -1.9517937 -0.77857363
vt -3.4642415 -0.79669285
vn 0.1116953 -0.5878222 0.80124223
vn 0.12698989 -0.60930836 0.78269833
vn 0.06299156 -0.6103549 0.7896195
vn -0.118940815 -0.6079764 0.7849954
vn -0.104015894 -0.58634317 0.80335695
vn -0.06022041 -0.61098254 0.78935033
vn 0.03538511 -0.43928248 0.8976518
vn -0.029737595 -0.46223137 0.88626057
vn -0.033302657 -0.43838084 0.89817214
vn 0.037061367 -0.46240816 0.8858923
vn 0.039243385 -0.508186 0.86035275
vn -0.030746913 -0.50877637 0.8603495
vn 0.039570414 -0.55190927 0.83296484
vn -0.032473985 -0.55206555 0.8331681
vn 0.034271542 -0.5896104 0.80696034
vn -0.02899003 -0.5897428 0.8070707
vn 0.026662113 -0.6134432 0.78928864
vn -0.023677098 -0.6135419 0.78930706
vn -0.02899003 -0.5897428 0.8070707
vn -0.106311806 -0.5523712 0.8267913
vn -0.032473985 -0.55206555 0.8331681
vn -0.104015894 -0.58634317 0.80335695
vn -0.16094483 -0.5800508 0.79852235
vn -0.16769019 -0.5447202 0.82168126
vn -0.20228267 -0.5334787 0.8212687
vn -0.16769019 -0.5447202 0.82168126
vn -0.16094483 -0.5800508 0.79852235
vn -0.19992435 -0.5684923 0.7980268
vn -0.17244095 -0.49714592 0.8503588
vn -0.16769019 -0.5447202 0.82168126
vn -0.20228267 -0.5334787 0.8212687
vn -0.20576407 -0.49508443 0.84412825
vn -0.17244095 -0.49714592 0.8503588
vn -0.102105655 -0.5076514 0.85549074
vn -0.106311806 -0.5523712 0.8267913
vn -0.16769019 -0.5447202 0.82168126
vn -0.102105655 -0.5076514 0.85549074
vn -0.030746913 -0.50877637 0.8603495
vn -0.032473985 -0.55206555 0.8331681
vn -0.106311806 -0.5523712 0.8267913
vn 0.039570414 -0.55190927 0.83296484
vn 0.11363535 -0.5530267 0.82537776
vn 0.1116953 -0.5878222 0.80124223
vn 0.034271542 -0.5896104 0.80696034
vn 0.11363535 -0.5530267 0.82537776
vn 0.16539775 -0.58146334 0.79658276
vn 0.1116953 -0.5878222 0.80124223
vn 0.17106083 -0.5470234 0.8194533
vn 0.20813428 -0.53484464 0.8189147
vn 0.20595855 -0.566975 0.79757154
vn 0.039243385 -0.508186 0.86035275
vn 0.110554464 -0.50584954 0.855508
vn 0.11363535 -0.5530267 0.82537776
vn 0.039570414 -0.55190927 0.83296484
vn 0.110554464 -0.50584954 0.855508
vn 0.17607917 -0.49674314 0.8498485
vn 0.17106083 -0.5470234 0.8194533
vn 0.11363535 -0.5530267 0.82537776
vn 0.17607917 -0.49674314 0.8498485
vn 0.2124129 -0.49722975 0.8412154
vn 0.20813428 -0.53484464 0.8189147
vn 0.17106083 -0.5470234 0.8194533
vn -0.16094483 -0.5800508 0.79852235
vn -0.104015894 -0.58634317 0.80335695
vn -0.118940815 -0.6079764 0.7849954
vn -0.12668665 -0.60609365 0.78523946
vn 0.1116953 -0.5878222 0.80124223
vn 0.16539775 -0.58146334 0.79658276
vn 0.13412905 -0.60785955 0.7826341
vn 0.12698989 -0.60930836 0.78269833
vn -0.15872128 -0.61445606 0.77282035
vn -0.12668665 -0.60609365 0.78523946
vn -0.14719321 -0.6343961 0.7588648
vn -0.16094483 -0.5800508 0.79852235
vn 0.16539775 -0.58146334 0.79658276
vn 0.15956298 -0.6104541 0.7758128
vn 0.14377585 -0.60454035 0.7834919
vn 0.13412905 -0.60785955 0.7826341
vn -0.06022041 -0.61098254 0.78935033
vn -0.104015894 -0.58634317 0.80335695
vn -0.02899003 -0.5897428 0.8070707
vn -0.023677098 -0.6135419 0.78930706
vn 0.026662113 -0.6134432 0.78928864
vn 0.034271542 -0.5896104 0.80696034
vn 0.1116953 -0.5878222 0.80124223
vn 0.06299156 -0.6103549 0.7896195
vn 0.17558992 -0.6162632 0.76771593
vn 0.15956298 -0.6104541 0.7758128
vn 0.16539775 -0.58146334 0.79658276
vn 0.18747392 -0.6122205 0.7681404
vn 0.20002325 -0.60108185 0.7737515
vn 0.19703709 -0.60888964 0.7683943
vn 0.18747392 -0.6122205 0.7681404
vn 0.16539775 -0.58146334 0.79658276
vn 0.2023515 -0.5856642 0.7848894
vn 0.16539775 -0.58146334 0.79658276
vn 0.20595855 -0.566975 0.79757154
vn 0.20002325 -0.60108185 0.7737515
vn -0.15872128 -0.61445606 0.77282035
vn -0.17221354 -0.6167299 0.7681059
vn -0.18651155 -0.60941917 0.7705983
vn -0.16094483 -0.5800508 0.79852235
vn -0.19430827 -0.6053539 0.771875
vn -0.19790944 -0.5933897 0.7802054
vn -0.16094483 -0.5800508 0.79852235
vn -0.18651155 -0.60941917 0.7705983
vn -0.19790944 -0.5933897 0.7802054
vn -0.19951151 -0.5879754 0.78388786
vn -0.19992435 -0.5684923 0.7980268
vn -0.16094483 -0.5800508 0.79852235
vn 0.10251316 -0.45962626 0.88217616
vn 0.03538511 -0.43928248 0.8976518
vn 0.103303395 -0.43479136 0.89458644
vn 0.037061367 -0.46240816 0.8858923
vn 0.110554464 -0.50584954 0.855508
vn 0.039243385 -0.508186 0.86035275
vn -0.033302657 -0.43838084 0.89817214
vn -0.090758175 -0.46132454 0.88257724
vn -0.09507578 -0.43546146 0.89517254
vn -0.029737595 -0.46223137 0.88626057
vn -0.030746913 -0.50877637 0.8603495
vn -0.102105655 -0.5076514 0.85549074
vn 0.14399475 -0.43025866 0.89114696
vn 0.10251316 -0.45962626 0.88217616
vn 0.103303395 -0.43479136 0.89458644
vn 0.14847152 -0.45295465 0.8790837
vn 0.17607917 -0.49674314 0.8498485
vn 0.110554464 -0.50584954 0.855508
vn -0.1296059 -0.43312302 0.89196795
vn -0.09507578 -0.43546146 0.89517254
vn -0.090758175 -0.46132454 0.88257724
vn -0.13614754 -0.45827904 0.8783189
vn -0.102105655 -0.5076514 0.85549074
vn -0.17244095 -0.49714592 0.8503588
vn -0.17244095 -0.49714592 0.8503588
vn -0.20576407 -0.49508443 0.84412825
vn -0.20867705 -0.4686814 0.8583657
vn -0.19434132 -0.46575004 0.8633124
vn -0.1296059 -0.43312302 0.89196795
vn -0.13614754 -0.45827904 0.8783189
vn -0.16461854 -0.45125318 0.8770812
vn -0.14611065 -0.42840233 0.89169675
vn 0.17357367 -0.4319332 0.88504577
vn 0.18800284 -0.45127258 0.8723578
vn 0.14847152 -0.45295465 0.8790837
vn 0.14399475 -0.43025866 0.89114696
vn -0.17244095 -0.49714592 0.8503588
vn -0.19434132 -0.46575004 0.8633124
vn -0.16461854 -0.45125318 0.8770812
vn -0.13614754 -0.45827904 0.8783189
vn 0.21032684 -0.4639911 0.8605085
vn 0.17607917 -0.49674314 0.8498485
vn 0.14847152 -0.45295465 0.8790837
vn 0.18800284 -0.45127258 0.8723578
vn -0.24898131 -0.447397 0.85897857
vn -0.24898131 -0.44739705 0.85897857
vn -0.22571988 -0.46230844 0.8575089
vn -0.22523789 -0.46261248 0.85747164
vn -0.22523789 -0.46261248 0.85747164
vn -0.22571988 -0.46230844 0.8575089
vn -0.20867705 -0.4686814 0.8583657
vn -0.20576407 -0.49508443 0.84412825
vn 0.21828876 -0.46722367 0.85676837
vn 0.2124129 -0.49722975 0.8412154
vn 0.17607917 -0.49674314 0.8498485
vn 0.21032684 -0.4639911 0.8605085
vn 0.21991223 -0.4660901 0.85697067
vn 0.2124129 -0.49722975 0.8412154
vn 0.21828876 -0.46722367 0.85676837
vn 0.22198999 -0.46456137 0.8572649
vn 0.2391426 -0.45177904 0.85948044
vn 0.2391426 -0.4517791 0.85948044
vn 0.21991223 -0.4660901 0.85697067
vn 0.22198999 -0.46456137 0.8572649
g breadStationShieldSimplifiedGeo1_0
f 3/3/3 2/2/2 1/1/1
f 6/6/6 5/5/5 4/4/4
f 9/9/9 8/8/8 7/7/7
f 8/8/8 10/10/10 7/7/7
f 11/11/11 10/10/10 8/8/8
f 12/12/12 11/11/11 8/8/8
f 13/13/13 11/11/11 12/12/12
f 14/14/14 13/13/13 12/12/12
f 15/15/15 13/13/13 14/14/14
f 16/16/16 15/15/15 14/14/14
f 17/17/17 15/15/15 16/16/16
f 18/18/18 17/17/17 16/16/16
f 21/21/21 20/20/20 19/19/19
f 20/20/20 22/22/22 19/19/19
f 23/23/23 22/22/22 20/20/20
f 24/24/24 23/23/23 20/20/20
f 27/27/27 26/26/26 25/25/25
f 28/28/28 27/27/27 25/25/25
f 31/31/31 30/30/30 29/29/29
f 32/32/32 31/31/31 29/29/29
f 35/35/35 34/34/34 33/33/33
f 36/36/36 35/35/35 33/33/33
f 39/39/39 38/38/38 37/37/37
f 40/40/40 39/39/39 37/37/37
f 43/43/43 42/42/42 41/41/41
f 44/44/44 43/43/43 41/41/41
f 47/47/47 46/46/46 45/45/45
f 46/46/46 48/48/48 45/45/45
f 49/49/49 48/48/48 46/46/46
f 50/50/50 49/49/49 46/46/46
f 53/53/53 52/52/52 51/51/51
f 54/54/54 53/53/53 51/51/51
f 57/57/57 56/56/56 55/55/55
f 58/58/58 57/57/57 55/55/55
f 61/61/61 60/60/60 59/59/59
f 62/62/62 61/61/61 59/59/59
f 65/65/65 64/64/64 63/63/63
f 66/66/66 65/65/65 63/63/63
f 69/69/69 68/68/68 67/67/67
f 70/70/70 69/69/69 67/67/67
f 73/73/73 72/72/72 71/71/71
f 72/72/72 74/74/74 71/71/71
f 77/77/77 76/76/76 75/75/75
f 78/78/78 77/77/77 75/75/75
f 81/81/81 80/80/80 79/79/79
f 82/82/82 81/81/81 79/79/79
f 85/85/85 84/84/84 83/83/83
f 86/86/86 85/85/85 83/83/83
f 89/89/89 88/88/88 87/87/87
f 90/90/90 89/89/89 87/87/87
f 93/93/93 92/92/92 91/91/91
f 94/94/94 93/93/93 91/91/91
f 97/97/97 96/96/96 95/95/95
f 96/96/96 98/98/98 95/95/95
f 101/101/101 100/100/100 99/99/99
f 102/102/102 101/101/101 99/99/99
f 105/105/105 104/104/104 103/103/103
f 106/106/106 105/105/105 103/103/103
f 109/109/109 108/108/108 107/107/107
f 110/110/110 109/109/109 107/107/107
f 113/113/113 112/112/112 111/111/111
f 112/112/112 114/114/114 111/111/111
f 111/111/111 114/114/114 115/115/115
f 114/114/114 116/116/116 115/115/115
f 119/119/119 118/118/118 117/117/117
f 118/118/118 120/120/120 117/117/117
f 121/121/121 120/120/120 118/118/118
f 122/122/122 121/121/121 118/118/118
f 125/125/125 124/124/124 123/123/123
f 124/124/124 126/126/126 123/123/123
f 127/127/127 126/126/126 124/124/124
f 128/128/128 127/127/127 124/124/124
f 131/131/131 130/130/130 129/129/129
f 132/132/132 131/131/131 129/129/129
f 133/133/133 131/131/131 132/132/132
f 134/134/134 133/133/133 132/132/132
f 137/137/137 136/136/136 135/135/135
f 138/138/138 137/137/137 135/135/135
f 141/141/141 140/140/140 139/139/139
f 142/142/142 141/141/141 139/139/139
f 145/145/145 144/144/144 143/143/143
f 146/146/146 145/145/145 143/143/143
f 149/149/149 148/148/148 147/147/147
f 150/150/150 149/149/149 147/147/147
f 153/153/153 152/152/152 151/151/151
f 154/154/154 153/153/153 151/151/151
f 157/157/157 156/156/156 155/155/155
f 158/158/158 157/157/157 155/155/155
f 161/161/161 160/160/160 159/159/159
f 162/162/162 161/161/161 159/159/159
f 165/165/165 164/164/164 163/163/163
f 166/166/166 165/165/165 163/163/163
f 169/169/169 168/168/168 167/167/167
f 170/170/170 169/169/169 167/167/167
f 173/173/173 172/172/172 171/171/171
f 174/174/174 173/173/173 171/171/171
