g Dent
v 0.60023373 1.9577869 -0.2818484
v 0.21257225 1.3745353 0.1334933
v 0.17313841 1.9882112 -0.28467393
v 0.6585182 1.3399472 -0.089533985
v -0.14994085 1.9881442 -0.2980005
v 0.65474486 0.68006504 0.0052594244
v -0.22342515 1.3744448 0.115509115
v -0.5831621 1.9575415 -0.3306618
v -0.64947385 1.3396755 -0.14348643
v 0.21196225 0.71023095 0.25089067
v 0.5999868 0.05865408 -0.058397114
v 0.1902364 0.012294533 0.01234894
v -0.23206268 0.71013874 0.23257543
v -0.6676473 0.6625147 -0.06593488
v -0.17093796 0.01841279 -0.013145953
v -0.6194 0.0372964 -0.045860365
vt 0 1
vt 0.3333333 0.6666667
vt 0.3333333 1
vt 0 0.6666666
vt 0.6666666 1
vt 0 0.3333333
vt 0.6666666 0.6666667
vt 1 1
vt 1 0.6666667
vt 0.3333333 0.33333334
vt 0 0
vt 0.33333334 0
vt 0.6666666 0.33333334
vt 1 0.33333334
vt 0.6666667 0
vt 1 0
vn 0.19083677 0.48208097 0.85509026
vn 0.18152784 0.3299985 0.9263631
vn -0.0018729637 0.5630255 0.82643735
vn 0.45908085 0.22160286 0.86031216
vn -0.065891534 0.562988 0.82383424
vn 0.47630528 0.0029057313 0.8792752
vn -0.2590675 0.32786894 0.9085075
vn -0.2606833 0.48008072 0.83759576
vn -0.5325687 0.21465918 0.81871367
vn 0.1928027 -0.053579424 0.9797736
vn 0.30453315 -0.25435618 0.917912
vn 0.06718988 -0.32899708 0.9419376
vn -0.2690876 -0.03976635 0.9622944
vn -0.55734694 0.05576029 0.82840526
vn -0.06740665 -0.33476916 0.93988615
vn -0.2820045 -0.22373563 0.9329608
g Dent_0
f 3/3/3 2/2/2 1/1/1
f 1/1/1 2/2/2 4/4/4
f 3/3/3 5/5/5 2/2/2
f 4/4/4 2/2/2 6/6/6
f 5/5/5 7/7/7 2/2/2
f 7/7/7 5/5/5 8/8/8
f 9/9/9 7/7/7 8/8/8
f 2/2/2 10/10/10 6/6/6
f 2/2/2 7/7/7 10/10/10
f 10/10/10 11/11/11 6/6/6
f 10/10/10 12/12/12 11/11/11
f 7/7/7 9/9/9 13/13/13
f 7/7/7 13/13/13 10/10/10
f 10/10/10 13/13/13 12/12/12
f 9/9/9 14/14/14 13/13/13
f 13/13/13 15/15/15 12/12/12
f 13/13/13 14/14/14 16/16/16
f 16/16/16 15/15/15 13/13/13
