g LegacyNecklace
v -2.4698675E-06 0.6079966 0.004074741
v 0.0068656877 0.60020655 0.0015118457
v -2.4698675E-06 0.5993658 0.0023526363
v 0.006247755 0.60891837 0.0032643378
v 0.010937959 0.6101543 0.0015928857
v 0.01178888 0.60138166 -0.00019000098
v 0.01533439 0.60310376 -0.0031175762
v 0.014432818 0.6120283 -0.0013346933
v 0.017704817 0.6139226 -0.004515521
v 0.018646909 0.60485625 -0.006298406
v 0.021756828 0.60873604 -0.013976967
v 0.020470314 0.6174985 -0.011424199
v 0.022131637 0.61219037 -0.021037595
v 0.021341495 0.6205679 -0.017633906
v 0.020986944 0.62280667 -0.02254697
v 0.021442795 0.6142164 -0.025373247
v 0.01881912 0.624782 -0.027601853
v 0.019467441 0.6163842 -0.03039774
v 0.013045004 0.62614954 -0.032595955
v 0.013612285 0.61747825 -0.03467261
v 0.0076457 0.62645346 -0.03418637
v 0.00786856 0.6179037 -0.036323804
v -2.4698675E-06 0.61814684 -0.037255768
v 0.00786856 0.6179037 -0.036323804
v 0.0076457 0.62645346 -0.03418637
v -2.4698675E-06 0.6266155 -0.035047423
v -0.0062526986 0.60891837 0.0032643378
v -2.4698675E-06 0.6079966 0.004074741
v -2.4698675E-06 0.5993658 0.0023526363
v -0.0068604983 0.60020655 0.0015118457
v -0.01093277 0.6101543 0.0015928857
v -0.011793822 0.60138166 -0.00019000098
v -0.01533933 0.60310376 -0.0031175762
v -0.014437757 0.6120283 -0.0013346933
v -0.017709758 0.6139226 -0.004515521
v -0.01865185 0.60485625 -0.006298406
v -0.021751639 0.60873604 -0.013976967
v -0.020475253 0.6174985 -0.011424199
v -0.02213658 0.61219037 -0.021037595
v -0.021336306 0.6205679 -0.017633906
v -0.020991888 0.62280667 -0.02254697
v -0.021447737 0.6142164 -0.025373247
v -0.01881393 0.624782 -0.027601853
v -0.019472383 0.6163842 -0.03039774
v -0.013039816 0.62614954 -0.032595955
v -0.013607096 0.61747825 -0.03467261
v -0.00765064 0.62645346 -0.03418637
v -0.007863373 0.6179037 -0.036323804
v -0.007863373 0.6179037 -0.036323804
v -2.4698675E-06 0.61814684 -0.037255768
v -2.4698675E-06 0.6266155 -0.035047423
v -0.00765064 0.62645346 -0.03418637
vt 0.4886223 0.9831884
vt 0.530713 0.9132126
vt 0.4865178 0.9132126
vt 0.530713 0.9831884
vt 0.5638595 0.9831884
vt 0.5638595 0.9132126
vt 0.5975321 0.9132126
vt 0.5975321 0.9831884
vt 0.63120466 0.9831884
vt 0.63120466 0.9132126
vt 0.6932885 0.9132126
vt 0.6932885 0.9831884
vt 0.7585291 0.9132126
vt 0.7585291 0.9831884
vt 0.8148255 0.9831884
vt 0.8148255 0.9132126
vt 0.8711218 0.9831884
vt 0.8711218 0.9132126
vt 0.91742164 0.9831884
vt 0.91742164 0.9132126
vt 0.95109427 0.9831884
vt 0.95109427 0.9132126
vt 0.020889036 0.9132126
vt 0.95109427 0.9132126
vt 0.95109427 0.9831884
vt 0.022467434 0.9831884
vt 0.530713 0.9831884
vt 0.4886223 0.9831884
vt 0.4865178 0.9132126
vt 0.530713 0.9132126
vt 0.5638595 0.9831884
vt 0.5638595 0.9132126
vt 0.5975321 0.9132126
vt 0.5975321 0.9831884
vt 0.63120466 0.9831884
vt 0.63120466 0.9132126
vt 0.6932885 0.9132126
vt 0.6932885 0.9831884
vt 0.7585291 0.9132126
vt 0.7585291 0.9831884
vt 0.8148255 0.9831884
vt 0.8148255 0.9132126
vt 0.8711218 0.9831884
vt 0.8711218 0.9132126
vt 0.91742164 0.9831884
vt 0.91742164 0.9132126
vt 0.95109427 0.9831884
vt 0.95109427 0.9132126
vt 0.95109427 0.9132126
vt 0.020889036 0.9132126
vt 0.022467434 0.9831884
vt 0.95109427 0.9831884
vn -0.0039030313 -0.19124663 0.98153424
vn 0.23808259 -0.17563468 0.9552325
vn -0.0039030313 -0.19124663 0.98153424
vn 0.24588853 -0.17563468 0.95325303
vn 0.52690405 -0.12099278 0.8412686
vn 0.5034861 -0.12879878 0.85434926
vn 0.6830238 -0.07415682 0.7266218
vn 0.69082975 -0.07415682 0.7192044
vn 0.8703674 -0.0039029717 0.49238735
vn 0.84694946 -0.011708975 0.5315445
vn 0.95623326 0.042932987 0.28943864
vn 0.96403927 0.05073893 0.26087132
vn 0.9952632 0.081962824 0.05228046
vn 0.9952632 0.081962824 0.05228046
vn 0.97184527 0.13660479 -0.19197895
vn 0.97184527 0.13660479 -0.19197895
vn 0.7845016 0.22247064 -0.57884717
vn 0.80011356 0.22247064 -0.5570683
vn 0.4878741 0.25369453 -0.83523524
vn 0.5034861 0.25369453 -0.8259182
vn 0.19124663 0.24588859 -0.95024395
vn 0.19124663 0.24588859 -0.95024395
vn -0.0039030313 0.24588859 -0.9692902
vn 0.19124663 0.24588859 -0.95024395
vn 0.19124663 0.24588859 -0.95024395
vn -0.0039030313 0.24588859 -0.9692902
vn -0.24588859 -0.17563468 0.953253
vn -0.0039030313 -0.19124663 0.98153424
vn -0.0039030313 -0.19124663 0.98153424
vn -0.23808265 -0.17563468 0.9552325
vn -0.5269041 -0.12099278 0.84126854
vn -0.50348616 -0.12879878 0.8543492
vn -0.6830238 -0.07415682 0.7266218
vn -0.69082975 -0.07415682 0.7192044
vn -0.8703675 -0.0039029717 0.49238718
vn -0.8469496 -0.011708975 0.53154427
vn -0.9562334 0.042932987 0.28943822
vn -0.9640393 0.05073893 0.2608711
vn -0.9952632 0.081962824 0.05228046
vn -0.9952632 0.081962824 0.05228046
vn -0.97184527 0.13660479 -0.19197895
vn -0.97184527 0.13660479 -0.19197895
vn -0.7845017 0.22247064 -0.57884705
vn -0.80011356 0.22247064 -0.5570683
vn -0.48787415 0.25369453 -0.83523524
vn -0.50348616 0.25369453 -0.82591814
vn -0.19124663 0.24588859 -0.95024395
vn -0.19124663 0.24588859 -0.95024395
vn -0.19124663 0.24588859 -0.95024395
vn -0.0039030313 0.24588859 -0.9692902
vn -0.0039030313 0.24588859 -0.9692902
vn -0.19124663 0.24588859 -0.95024395
g LegacyNecklace_0
f 3/3/3 2/2/2 1/1/1
f 2/2/2 4/4/4 1/1/1
f 5/5/5 4/4/4 2/2/2
f 6/6/6 5/5/5 2/2/2
f 5/5/5 6/6/6 7/7/7
f 8/8/8 5/5/5 7/7/7
f 9/9/9 8/8/8 7/7/7
f 10/10/10 9/9/9 7/7/7
f 10/10/10 11/11/11 9/9/9
f 11/11/11 12/12/12 9/9/9
f 11/11/11 13/13/13 12/12/12
f 13/13/13 14/14/14 12/12/12
f 15/15/15 14/14/14 13/13/13
f 16/16/16 15/15/15 13/13/13
f 15/15/15 16/16/16 17/17/17
f 16/16/16 18/18/18 17/17/17
f 19/19/19 17/17/17 18/18/18
f 20/20/20 19/19/19 18/18/18
f 21/21/21 19/19/19 20/20/20
f 22/22/22 21/21/21 20/20/20
f 25/25/25 24/24/24 23/23/23
f 26/26/26 25/25/25 23/23/23
f 29/29/29 28/28/28 27/27/27
f 30/30/30 29/29/29 27/27/27
f 30/30/30 27/27/27 31/31/31
f 32/32/32 30/30/30 31/31/31
f 33/33/33 32/32/32 31/31/31
f 34/34/34 33/33/33 31/31/31
f 33/33/33 34/34/34 35/35/35
f 36/36/36 33/33/33 35/35/35
f 36/36/36 35/35/35 37/37/37
f 35/35/35 38/38/38 37/37/37
f 37/37/37 38/38/38 39/39/39
f 38/38/38 40/40/40 39/39/39
f 39/39/39 40/40/40 41/41/41
f 42/42/42 39/39/39 41/41/41
f 41/41/41 43/43/43 42/42/42
f 43/43/43 44/44/44 42/42/42
f 44/44/44 43/43/43 45/45/45
f 46/46/46 44/44/44 45/45/45
f 46/46/46 45/45/45 47/47/47
f 48/48/48 46/46/46 47/47/47
f 51/51/51 50/50/50 49/49/49
f 52/52/52 51/51/51 49/49/49
