g LegacyFace
v 3.4216015 89.04625 3.0782516
v 3.3184752 89.41954 3.4152272
v 3.6932154 89.535736 2.8168051
v 2.734578 88.487045 3.6272895
v 3.8137712 89.856735 2.7122262
v 2.5530176 88.94167 3.9860523
v 2.2145896 88.453636 4.0746536
v 1.9255459 88.46816 4.2605705
v 3.6293063 90.23003 3.2075222
v 3.91835 90.52488 2.6599371
v 3.7803643 91.07101 3.0187
v 2.3569326 89.3106 4.2344265
v 1.714936 89.06804 4.5670443
v 3.0279791 89.82043 3.8480666
v 3.290878 90.47259 3.6766737
v 3.4288638 91.27 3.468969
v 3.1165805 91.127655 3.7841575
v 2.8899932 90.74275 4.023817
v 2.677931 90.0964 4.170517
v 2.3612902 90.34041 4.373864
v 2.0795088 89.647575 4.4668236
v 1.6873391 89.61127 4.619334
v 2.0911288 90.17047 4.5089455
v 1.735271 89.93517 4.6658134
vt 0.7333998 0.15703161
vt 0.6274947 0.31487095
vt 0.8576346 0.34847546
vt 0.47169197 0.0124304
vt 0.9070231 0.42179438
vt 0.35713115 0.20387426
vt 0.2980687 0.05367229
vt 0.1707789 0.09033175
vt 0.75478446 0.59185356
vt 0.9665947 0.6529527
vt 0.8708728 0.86883616
vt 0.29094046 0.3729151
vt 0.060291357 0.30214196
vt 0.4915492 0.50936973
vt 0.5974543 0.73034483
vt 0.71812505 0.98492444
vt 0.5887986 0.9747412
vt 0.4742378 0.86476284
vt 0.37138763 0.6498977
vt 0.3092702 0.7670043
vt 0.21100247 0.5220987
vt 0.100005776 0.49256748
vt 0.21049333 0.7023411
vt 0.13259196 0.6422603
vn 0.7780725 -0.28734958 0.55859953
vn 0.76674813 -0.22695291 0.60049117
vn 0.8535683 -0.19675457 0.48239896
vn 0.6799279 -0.29112434 0.6730116
vn 0.8686675 -0.17410582 0.46379304
vn 0.6270808 -0.25715125 0.73528427
vn 0.5742338 -0.25715125 0.7772572
vn 0.52516145 -0.23827726 0.81696355
vn 0.83846915 -0.11370915 0.53295374
vn 0.8988658 -0.079736054 0.43090883
vn 0.8346944 -0.015564561 0.5504935
vn 0.5478102 -0.20052934 0.8122142
vn 0.4949631 -0.20430416 0.84455395
vn 0.6799279 -0.16655624 0.7141128
vn 0.74032456 -0.041988134 0.67093706
vn 0.76674813 0.033507705 0.6410729
vn 0.68747747 0.06370604 0.723406
vn 0.6384052 0.003309369 0.7696934
vn 0.57800853 -0.0910604 0.8109341
vn 0.5138371 -0.04953772 0.85645634
vn 0.47986394 -0.12880832 0.8678358
vn 0.370395 -0.10993439 0.9223459
vn 0.47231436 -0.083510816 0.8774651
vn 0.41946727 -0.121258736 0.8996352
g LegacyFace_0
f 3/3/3 2/2/2 1/1/1
f 2/2/2 4/4/4 1/1/1
f 2/2/2 3/3/3 5/5/5
f 2/2/2 6/6/6 4/4/4
f 7/7/7 4/4/4 6/6/6
f 6/6/6 8/8/8 7/7/7
f 9/9/9 2/2/2 5/5/5
f 10/10/10 9/9/9 5/5/5
f 9/9/9 10/10/10 11/11/11
f 8/8/8 6/6/6 12/12/12
f 12/12/12 13/13/13 8/8/8
f 6/6/6 2/2/2 14/14/14
f 9/9/9 14/14/14 2/2/2
f 14/14/14 12/12/12 6/6/6
f 11/11/11 15/15/15 9/9/9
f 14/14/14 9/9/9 15/15/15
f 15/15/15 11/11/11 16/16/16
f 17/17/17 15/15/15 16/16/16
f 15/15/15 17/17/17 18/18/18
f 15/15/15 19/19/19 14/14/14
f 19/19/19 15/15/15 18/18/18
f 12/12/12 14/14/14 19/19/19
f 18/18/18 20/20/20 19/19/19
f 13/13/13 12/12/12 21/21/21
f 19/19/19 21/21/21 12/12/12
f 21/21/21 19/19/19 20/20/20
f 21/21/21 22/22/22 13/13/13
f 23/23/23 21/21/21 20/20/20
f 22/22/22 21/21/21 24/24/24
f 21/21/21 23/23/23 24/24/24
