g PokestopTroyDisc_Static_Spinner
v -0.037285373 0.5121343 -2.5953484
v 0.034506943 0.51223826 -2.595177
v 0.034303967 0.49192595 -2.4978695
v -0.037488345 0.491822 -2.498041
v -0.036410525 -0.00045084953 -2.650739
v 0.03538179 -0.00034689903 -2.6505675
v 0.03514575 -0.0012862682 -2.551167
v -0.03664656 -0.0013902187 -2.5513387
v -0.035775658 -0.51399446 -2.6050665
v 0.036016654 -0.513891 -2.6048946
v 0.03575662 -0.49542165 -2.507222
v -0.036035687 -0.4955256 -2.5073936
v -0.03789231 -0.5122378 2.5536196
v 0.0339 -0.5121329 2.5537903
v 0.03410296 -0.49181724 2.4564893
v -0.037696987 -0.4919212 2.4563186
v -0.038774785 0.00034832954 2.6090112
v 0.033025153 0.00045275688 2.6091814
v 0.033261172 0.0013945103 2.5097883
v -0.038538765 0.0012910366 2.5096166
v -0.03940965 0.51389 2.563337
v 0.03239029 0.51399446 2.563508
v 0.032650314 0.49552798 2.4658384
v -0.03914963 0.49542356 2.4656675
v 0.034506943 0.51223826 -2.595177
v 0.03538179 -0.00034689903 -2.6505675
v 0.034303967 0.49192595 -2.4978695
v 0.03514575 -0.0012862682 -2.551167
v -0.037488345 0.491822 -2.498041
v -0.03664656 -0.0013902187 -2.5513387
v -0.036410525 -0.00045084953 -2.650739
v -0.037285373 0.5121343 -2.5953484
v -0.036410525 -0.00045084953 -2.650739
v 0.03538179 -0.00034689903 -2.6505675
v 0.036016654 -0.513891 -2.6048946
v 0.03514575 -0.0012862682 -2.551167
v 0.03575662 -0.49542165 -2.507222
v -0.03664656 -0.0013902187 -2.5513387
v -0.036035687 -0.4955256 -2.5073936
v -0.035775658 -0.51399446 -2.6050665
v 0.0339 -0.5121329 2.5537903
v 0.033025153 0.00045275688 2.6091814
v 0.03410296 -0.49181724 2.4564893
v 0.033261172 0.0013945103 2.5097883
v -0.037696987 -0.4919212 2.4563186
v -0.038538765 0.0012910366 2.5096166
v -0.038774785 0.00034832954 2.6090112
v -0.03789231 -0.5122378 2.5536196
v -0.038774785 0.00034832954 2.6090112
v 0.033025153 0.00045275688 2.6091814
v 0.03239029 0.51399446 2.563508
v 0.033261172 0.0013945103 2.5097883
v 0.032650314 0.49552798 2.4658384
v -0.038538765 0.0012910366 2.5096166
v -0.03914963 0.49542356 2.4656675
v -0.03940965 0.51389 2.563337
vt 0.6522611 0.60819155
vt 0.6522611 0.60819155
vt 0.65589505 0.6136304
vt 0.65589505 0.6136304
vt 0.62603396 0.6297155
vt 0.62603396 0.6297155
vt 0.6306593 0.63434094
vt 0.6306593 0.63434094
vt 0.6045098 0.65594256
vt 0.6045098 0.65594256
vt 0.60994893 0.6595768
vt 0.60994893 0.6595768
vt 0.8445707 0.8960035
vt 0.8445707 0.8960035
vt 0.8409367 0.89056444
vt 0.8409367 0.89056444
vt 0.8707978 0.8744794
vt 0.8707978 0.8744794
vt 0.8661724 0.869854
vt 0.8661724 0.869854
vt 0.89232177 0.8482524
vt 0.89232177 0.8482524
vt 0.88688284 0.8446182
vt 0.88688284 0.8446182
vt 0.6522611 0.60819155
vt 0.62603396 0.6297155
vt 0.65589505 0.6136304
vt 0.6306593 0.63434094
vt 0.65589505 0.6136304
vt 0.6306593 0.63434094
vt 0.62603396 0.6297155
vt 0.6522611 0.60819155
vt 0.62603396 0.6297155
vt 0.62603396 0.6297155
vt 0.6045098 0.65594256
vt 0.6306593 0.63434094
vt 0.60994893 0.6595768
vt 0.6306593 0.63434094
vt 0.60994893 0.6595768
vt 0.6045098 0.65594256
vt 0.8445707 0.8960035
vt 0.8707978 0.8744794
vt 0.8409367 0.89056444
vt 0.8661724 0.869854
vt 0.8409367 0.89056444
vt 0.8661724 0.869854
vt 0.8707978 0.8744794
vt 0.8445707 0.8960035
vt 0.8707978 0.8744794
vt 0.8707978 0.8744794
vt 0.89232177 0.8482524
vt 0.8661724 0.869854
vt 0.88688284 0.8446182
vt 0.8661724 0.869854
vt 0.88688284 0.8446182
vt 0.89232177 0.8482524
vn 0.0022158036 0.107439294 -0.9942092
vn 0.0022158036 0.1074393 -0.9942092
vn 0.9999961 0.0014486307 0.0023883176
vn -0.0022158117 -0.10744028 0.99420905
vn 0.0022158036 0.1074393 -0.9942092
vn 0.0022158036 0.107439294 -0.9942092
vn 0.9999961 0.00144864 0.0023883302
vn -0.0022158117 -0.10744027 0.99420905
vn 0.0025088747 -0.08858316 -0.9960657
vn 0.0025088745 -0.088583164 -0.9960657
vn 0.9999961 0.0014486493 0.0023883425
vn -0.0025103544 0.08858033 0.9960659
vn -0.0021995832 -0.107440665 0.99420905
vn -0.0021995835 -0.10744067 0.99420905
vn 0.9999961 0.0014486448 0.002388352
vn 0.00221558 0.10744213 -0.9942089
vn -0.0021995835 -0.10744067 0.99420905
vn -0.0021995832 -0.10744067 0.99420905
vn 0.9999961 0.0014486489 0.0023883583
vn 0.0022155799 0.10744211 -0.9942089
vn -0.0024957357 0.08858557 0.99606544
vn -0.0024957357 0.08858556 0.99606544
vn 0.9999961 0.0014486532 0.002388365
vn 0.0025067474 -0.08858947 -0.9960651
vn 0.9999961 0.0014486308 0.0023883171
vn 0.9999961 0.0014486401 0.00238833
vn -0.0022158117 -0.10744027 0.99420905
vn -0.002215812 -0.10744027 0.99420905
vn -0.9999961 -0.0014486529 -0.0023882766
vn -0.9999961 -0.0014486454 -0.002388282
vn -0.9999961 -0.0014486454 -0.0023882817
vn -0.9999961 -0.0014486529 -0.0023882764
vn 0.0025088747 -0.08858316 -0.9960657
vn 0.0025088745 -0.08858315 -0.9960657
vn 0.9999961 0.0014486494 0.002388343
vn -0.0025103544 0.08858033 0.9960659
vn -0.0025103544 0.08858033 0.9960659
vn -0.0025103544 0.08858033 0.9960659
vn -0.9999961 -0.0014486377 -0.0023882866
vn -0.9999961 -0.0014486376 -0.0023882866
vn 0.9999961 0.0014486447 0.0023883518
vn 0.9999961 0.001448649 0.0023883586
vn 0.0022155796 0.10744212 -0.9942089
vn 0.00221558 0.107442126 -0.9942089
vn -0.9999962 -0.0014602757 -0.002350769
vn -0.9999962 -0.0014602757 -0.0023507692
vn -0.9999962 -0.0014602757 -0.0023507692
vn -0.9999962 -0.0014602757 -0.002350769
vn -0.0024957354 0.088585556 0.99606544
vn -0.0024957357 0.08858558 0.99606544
vn 0.9999961 0.001448653 0.002388365
vn 0.002506747 -0.08858946 -0.9960651
vn 0.0025067471 -0.08858947 -0.9960651
vn 0.0025067474 -0.08858947 -0.9960651
vn -0.9999961 -0.0014486545 -0.0023883109
vn -0.9999961 -0.0014486543 -0.0023883106
g PokestopTroyDisc_Static_Spinner_0
f 6/6/6 5/5/5 1/1/1
f 2/2/2 6/6/6 1/1/1
f 7/7/7 26/26/26 25/25/25
f 3/3/3 7/7/7 25/25/25
f 7/7/7 11/11/11 26/26/26
f 11/11/11 35/35/35 26/26/26
f 8/8/8 28/28/28 27/27/27
f 4/4/4 8/8/8 27/27/27
f 31/31/31 30/30/30 29/29/29
f 32/32/32 31/31/31 29/29/29
f 31/31/31 40/40/40 30/30/30
f 40/40/40 39/39/39 30/30/30
f 10/10/10 9/9/9 33/33/33
f 34/34/34 10/10/10 33/33/33
f 12/12/12 37/37/37 36/36/36
f 38/38/38 12/12/12 36/36/36
f 18/18/18 17/17/17 13/13/13
f 14/14/14 18/18/18 13/13/13
f 19/19/19 42/42/42 41/41/41
f 15/15/15 19/19/19 41/41/41
f 19/19/19 23/23/23 42/42/42
f 23/23/23 51/51/51 42/42/42
f 20/20/20 44/44/44 43/43/43
f 16/16/16 20/20/20 43/43/43
f 47/47/47 46/46/46 45/45/45
f 48/48/48 47/47/47 45/45/45
f 47/47/47 56/56/56 46/46/46
f 56/56/56 55/55/55 46/46/46
f 22/22/22 21/21/21 49/49/49
f 50/50/50 22/22/22 49/49/49
f 24/24/24 53/53/53 52/52/52
f 54/54/54 24/24/24 52/52/52
