g tree_mesh_2
v -10.067795 -31.764706 0
v -10.067795 -19.058823 0
v -6.0406766 -19.058823 0
v -6.0406766 -31.764706 0
v -2.0135586 -19.058823 0
v -2.0135586 -31.764706 0
v 2.0135593 -19.058823 0
v 2.0135593 -31.764706 0
v 6.0406766 -19.058823 0
v 6.0406766 -31.764706 0
v 10.067795 -19.058823 0
v 10.067795 -31.764706 0
v -6.0406766 -6.3529396 0
v -10.067795 -6.3529396 0
v -2.0135586 -6.3529396 0
v 2.0135593 -6.3529396 0
v 6.0406766 -6.3529396 0
v 10.067795 -6.3529396 0
v -6.0406766 6.3529434 0
v -10.067795 6.3529434 0
v -2.0135586 6.3529434 0
v 2.0135593 6.3529434 0
v 6.0406766 6.3529434 0
v 10.067795 6.3529434 0
v -6.0406766 19.05882 0
v -10.067795 19.05882 0
v -2.0135586 19.05882 0
v 2.0135593 19.05882 0
v 6.0406766 19.05882 0
v 10.067795 19.05882 0
v -6.0406766 31.764706 0
v -10.067795 31.764706 0
v -2.0135586 31.764706 0
v 2.0135593 31.764706 0
v 6.0406766 31.764706 0
v 10.067795 31.764706 0
vt 0.8493893 0.76080763
vt 0.8493893 0.80776435
vt 0.8697826 0.80776435
vt 0.8697826 0.76080763
vt 0.89017606 0.80776435
vt 0.89017606 0.76080763
vt 0.9105695 0.80776435
vt 0.9105695 0.76080763
vt 0.9309628 0.80776435
vt 0.9309628 0.76080763
vt 0.9513564 0.80776435
vt 0.9513564 0.76080763
vt 0.8697826 0.8547211
vt 0.8493893 0.8547211
vt 0.89017606 0.8547211
vt 0.9105695 0.8547211
vt 0.9309628 0.8547211
vt 0.9513564 0.8547211
vt 0.8697826 0.90167785
vt 0.8493893 0.90167785
vt 0.89017606 0.90167785
vt 0.9105695 0.90167785
vt 0.9309628 0.90167785
vt 0.9513564 0.90167785
vt 0.8697826 0.94863456
vt 0.8493893 0.94863456
vt 0.89017606 0.94863456
vt 0.9105695 0.94863456
vt 0.9309628 0.94863456
vt 0.9513564 0.94863456
vt 0.8697826 0.9955915
vt 0.8493893 0.9955915
vt 0.89017606 0.9955915
vt 0.9105695 0.9955915
vt 0.9309628 0.9955915
vt 0.9513564 0.9955915
vn -0 0 1
vn -0 0 1
vn -0 0 1
vn -0 0 1
vn -0 0 1
vn -0 0 1
vn -0 0 1
vn -0 0 1
vn -0 0 1
vn -0 0 1
vn -0 0 1
vn -0 0 1
vn -0 0 1
vn -0 0 1
vn -0 0 1
vn -0 0 1
vn -0 0 1
vn -0 0 1
vn -0 0 1
vn -0 0 1
vn -0 0 1
vn -0 0 1
vn -0 0 1
vn -0 0 1
vn -0 0 1
vn -0 0 1
vn -0 0 1
vn -0 0 1
vn -0 0 1
vn -0 0 1
vn -0 0 1
vn -0 0 1
vn -0 0 1
vn -0 0 1
vn -0 0 1
vn -0 0 1
g tree_mesh_2_0
f 3/3/3 2/2/2 1/1/1
f 4/4/4 3/3/3 1/1/1
f 5/5/5 3/3/3 4/4/4
f 6/6/6 5/5/5 4/4/4
f 7/7/7 5/5/5 6/6/6
f 8/8/8 7/7/7 6/6/6
f 9/9/9 7/7/7 8/8/8
f 10/10/10 9/9/9 8/8/8
f 11/11/11 9/9/9 10/10/10
f 12/12/12 11/11/11 10/10/10
f 3/3/3 13/13/13 2/2/2
f 13/13/13 14/14/14 2/2/2
f 15/15/15 13/13/13 3/3/3
f 5/5/5 15/15/15 3/3/3
f 16/16/16 15/15/15 5/5/5
f 7/7/7 16/16/16 5/5/5
f 17/17/17 16/16/16 7/7/7
f 9/9/9 17/17/17 7/7/7
f 18/18/18 17/17/17 9/9/9
f 11/11/11 18/18/18 9/9/9
f 13/13/13 19/19/19 14/14/14
f 19/19/19 20/20/20 14/14/14
f 21/21/21 19/19/19 13/13/13
f 15/15/15 21/21/21 13/13/13
f 22/22/22 21/21/21 15/15/15
f 16/16/16 22/22/22 15/15/15
f 23/23/23 22/22/22 16/16/16
f 17/17/17 23/23/23 16/16/16
f 24/24/24 23/23/23 17/17/17
f 18/18/18 24/24/24 17/17/17
f 19/19/19 25/25/25 20/20/20
f 25/25/25 26/26/26 20/20/20
f 27/27/27 25/25/25 19/19/19
f 21/21/21 27/27/27 19/19/19
f 28/28/28 27/27/27 21/21/21
f 22/22/22 28/28/28 21/21/21
f 29/29/29 28/28/28 22/22/22
f 23/23/23 29/29/29 22/22/22
f 30/30/30 29/29/29 23/23/23
f 24/24/24 30/30/30 23/23/23
f 25/25/25 31/31/31 26/26/26
f 31/31/31 32/32/32 26/26/26
f 33/33/33 31/31/31 25/25/25
f 27/27/27 33/33/33 25/25/25
f 34/34/34 33/33/33 27/27/27
f 28/28/28 34/34/34 27/27/27
f 35/35/35 34/34/34 28/28/28
f 29/29/29 35/35/35 28/28/28
f 36/36/36 35/35/35 29/29/29
f 30/30/30 36/36/36 29/29/29
