g verticalSliceTrees05Geo
v 2.9640975 6.0598307 -1.6207496E-15
v 3.1203823 5.124443 -1.4130518E-15
v 1.7183105 1.0452472 -5.0728835E-16
v 2.4115322 7.155461 -1.8640281E-15
v 1.6324563 11.529019 -3.418225E-31
v 2.9507415 8.046669 -2.0619162E-15
v 2.994869 8.549259 -2.1735136E-15
v 0.35114744 -0.4221479 -1.8146115E-16
v -3.3226488 11.529019 -3.418225E-31
v -0.26423827 -0.4328733 -1.7907964E-16
v -0.83794785 0.2572074 -3.3230834E-16
v -2.6361978 7.2574553 -1.8866757E-15
v -3.0891435 8.356507 -2.1307141E-15
v -2.9786463 1.492601 -6.066208E-16
v -3.1988754 5.9522696 -1.5968662E-15
v -3.175841 4.7454515 -1.3288987E-15
v -3.7369096 3.4269361 -1.0361296E-15
vt 0.699541 0.785831
vt 0.705661 0.749202
vt 0.650757 0.58946395
vt 0.677903 0.828735
vt 0.647395 1
vt 0.699018 0.863634
vt 0.700746 0.88331497
vt 0.59722 0.532002
vt 0.45335713 1
vt 0.573122 0.531582
vt 0.550656 0.55860496
vt 0.48023802 0.832729
vt 0.462501 0.875767
vt 0.46682802 0.606982
vt 0.458204 0.781619
vt 0.45910603 0.734361
vt 0.43713504 0.682729
vn -0 0 1
vn -0 0 1
vn -0 0 1
vn -0 0 1
vn -0 0 1
vn -0 0 1
vn -0 0 1
vn -0 0 1
vn -0 0 1
vn -0 0 1
vn -0 0 1
vn -0 0 1
vn -0 0 1
vn -0 0 1
vn -0 0 1
vn -0 0 1
vn -0 0 1
g verticalSliceTrees05Geo_0
f 3/3/3 2/2/2 1/1/1
f 1/1/1 4/4/4 3/3/3
f 5/5/5 3/3/3 4/4/4
f 5/5/5 4/4/4 6/6/6
f 6/6/6 7/7/7 5/5/5
f 5/5/5 8/8/8 3/3/3
f 5/5/5 9/9/9 8/8/8
f 9/9/9 10/10/10 8/8/8
f 9/9/9 11/11/11 10/10/10
f 9/9/9 12/12/12 11/11/11
f 9/9/9 13/13/13 12/12/12
f 14/14/14 11/11/11 12/12/12
f 12/12/12 15/15/15 14/14/14
f 15/15/15 16/16/16 14/14/14
f 14/14/14 16/16/16 17/17/17
