g verticalSliceTrees01Geo
v 0.11740356 8.6745405 -9.374889E-16
v 4.161946 5.3592024 0
v 4.161946 2.514311 0
v 1.2850457 -0.7071814 0
v -1.0399902 -0.7071814 0
v -2.9763024 8.58912 -9.185217E-16
v -4.0330405 2.2812254 4.8211215E-16
v -4.6111426 5.438237 -2.1888517E-16
v -4.571254 3.3991754 2.3387747E-16
vt 0.841619 0.6653329
vt 1 0.535507
vt 1 0.4241034
vt 0.88734293 0.29795235
vt 0.7962964 0.29795238
vt 0.720472 0.66198796
vt 0.679091 0.41497597
vt 0.656453 0.538602
vt 0.6580151 0.45875397
vn -0 0 1
vn -0 0 1
vn -0 0 1
vn -0 0 1
vn -0 0 1
vn -0 0 1
vn -0 0 1
vn -0 0 1
vn -0 0 1
g verticalSliceTrees01Geo_0
f 3/3/3 2/2/2 1/1/1
f 1/1/1 4/4/4 3/3/3
f 1/1/1 5/5/5 4/4/4
f 1/1/1 6/6/6 5/5/5
f 6/6/6 7/7/7 5/5/5
f 6/6/6 8/8/8 7/7/7
f 8/8/8 9/9/9 7/7/7
