g arc_half_ring
v 0.08061525 0.03589221 0.016180338
v 0.09135464 0.040673688 0.02
v 0.09781485 0.020791175 0.020000001
v 0.086316034 0.018347025 0.01618034
v 0.07139121 0.05186873 0.016180338
v 0.08090179 0.058778565 0.02
v 0.05904702 0.065578334 0.016180344
v 0.06691313 0.074314535 0.02
v 0.0441222 0.07642186 0.016180338
v 0.050000057 0.0866026 0.02
v 0.027269024 0.08392538 0.016180344
v 0.030901741 0.09510572 0.02
v 0.009224063 0.087760955 0.016180344
v 0.010452871 0.099452265 0.02
v -0.009224033 0.087760955 0.016180344
v -0.010452838 0.099452265 0.02
v -0.027268996 0.08392538 0.016180344
v -0.030901708 0.09510573 0.02
v -0.044122167 0.07642186 0.016180344
v -0.050000023 0.08660261 0.02
v -0.059046987 0.06557834 0.016180338
v -0.06691309 0.07431454 0.020000005
v -0.07139117 0.051868733 0.016180338
v -0.080901735 0.05877857 0.02
v -0.080615215 0.035892215 0.01618034
v -0.091354586 0.040673696 0.02
v -0.08631599 0.018347038 0.01618034
v -0.097814806 0.02079119 0.020000001
v -0.088244334 8.34465E-09 0.01618034
v -0.100000046 9.536743E-09 0.020000001
v -0.08631598 -0.01834702 0.01618034
v -0.097814806 -0.02079117 0.020000001
v -0.09135458 -0.040673673 0.020000001
v -0.08061521 -0.035892192 0.01618034
v -0.05587788 0.09678336 0.016180344
v -0.03453442 0.10628608 0.016180344
v -0.0747792 0.083050735 0.016180344
v -0.09041231 0.06568841 0.016180344
v -0.102093965 0.045455173 0.016180344
v -0.10931363 0.02323534 0.01618034
v -0.11175576 9.536743E-09 0.016180342
v -0.10931362 -0.023235315 0.016180342
v -0.102093965 -0.04545515 0.016180344
v -0.036779564 0.113195926 0.0061803437
v -0.012441087 0.11836922 0.0061803437
v -0.011681642 0.11114359 0.016180344
v 0.011681681 0.11114359 0.016180344
v 0.034534458 0.10628608 0.016180344
v 0.055877917 0.09678335 0.016180344
v 0.07477924 0.08305073 0.016180344
v 0.090412356 0.0656884 0.016180344
v 0.10209402 0.045455165 0.016180344
v 0.10931369 0.023235323 0.01618034
v 0.1117557 0 0.016180342
v 0.099999994 0 0.020000001
v 0.0882443 0 0.01618034
v 0.09781476 -0.02079117 0.020000001
v 0.086315945 -0.01834702 0.01618034
v 0.09135455 -0.040673666 0.020000001
v 0.080615185 -0.035892192 0.01618034
v 0.10209392 -0.045455147 0.016180344
v 0.10931357 -0.023235315 0.016180342
v 0.11642035 0.024745893 0.006180341
v 0.10873132 0.04841029 0.0061803386
v 0.09629022 0.069958925 0.0061803386
v 0.079640776 0.08845 0.0061803437
v 0.05951064 0.10307541 0.0061803437
v 0.036779605 0.11319591 0.0061803437
v 0.012441127 0.11836922 0.0061803437
v 0.11642035 0.024745893 -0.006180341
v 0.10873132 0.04841028 -0.0061803437
v 0.09629022 0.06995892 -0.0061803437
v 0.079640776 0.08845 -0.0061803437
v 0.05951064 0.10307541 -0.0061803437
v 0.036779605 0.11319591 -0.0061803437
v 0.012441127 0.11836922 -0.0061803437
v -0.012441087 0.11836922 -0.0061803437
v -0.036779564 0.113195926 -0.0061803437
v -0.059510596 0.10307541 0.0061803437
v -0.079640724 0.08845001 0.0061803437
v -0.09629018 0.069958925 0.0061803386
v -0.10873127 0.0484103 0.0061803386
v -0.11642029 0.02474591 0.006180341
v -0.11902119 1.0728836E-08 0.006180341
v -0.11642029 -0.024745885 0.006180341
v -0.10873127 -0.048410263 0.0061803437
v -0.059510596 0.10307541 -0.0061803437
v -0.079640724 0.08845001 -0.0061803437
v -0.09629018 0.069958925 -0.0061803437
v -0.10873127 0.04841029 -0.0061803437
v -0.11642029 0.02474591 -0.006180341
v -0.11902119 1.0728836E-08 -0.006180341
v -0.11642029 -0.024745885 -0.006180341
v -0.10873127 -0.04841027 -0.0061803386
v -0.034534425 0.106286086 -0.016180344
v -0.011681643 0.1111436 -0.016180344
v 0.0116816815 0.1111436 -0.016180344
v 0.03453446 0.106286086 -0.016180344
v 0.055877924 0.09678336 -0.016180344
v 0.07477925 0.083050735 -0.016180348
v 0.09041236 0.06568841 -0.016180348
v 0.102094024 0.04545517 -0.016180346
v 0.1093137 0.023235325 -0.016180346
v 0.111755714 0 -0.016180346
v 0.11902114 0 -0.006180341
v 0.11902114 0 0.006180341
v 0.11642024 -0.024745885 0.006180341
v 0.10873123 -0.048410263 0.0061803437
v 0.10873123 -0.048410263 -0.0061803386
v 0.11642024 -0.024745885 -0.006180341
v 0.102093935 -0.045455147 -0.016180344
v 0.10931358 -0.023235321 -0.016180346
v 0.09135455 -0.040673666 -0.020000009
v 0.09781476 -0.02079117 -0.020000007
v 0.099999994 0 -0.020000009
v 0.08061518 -0.035892185 -0.016180348
v 0.08631594 -0.01834702 -0.01618035
v 0.08824428 0 -0.01618035
v 0.09781485 0.020791177 -0.020000009
v 0.09135464 0.040673688 -0.020000009
v 0.08090179 0.058778565 -0.020000009
v 0.06691313 0.074314535 -0.020000009
v 0.050000057 0.0866026 -0.020000009
v 0.030901741 0.09510572 -0.020000009
v 0.010452871 0.099452265 -0.020000009
v -0.010452838 0.099452265 -0.020000009
v -0.030901708 0.09510573 -0.020000009
v -0.055877883 0.09678336 -0.016180344
v -0.074779205 0.08305074 -0.016180348
v -0.09041232 0.06568842 -0.016180348
v -0.10209397 0.045455176 -0.016180346
v -0.10931364 0.023235342 -0.016180346
v -0.111755766 9.536743E-09 -0.016180346
v -0.10931363 -0.023235321 -0.016180346
v -0.10209397 -0.045455154 -0.016180344
v -0.050000023 0.08660261 -0.020000009
v -0.06691309 0.07431454 -0.020000009
v -0.080901735 0.05877857 -0.020000009
v -0.091354586 0.040673696 -0.020000009
v -0.097814806 0.020791186 -0.020000009
v -0.100000046 9.536743E-09 -0.020000009
v -0.097814806 -0.02079117 -0.020000007
v -0.09135458 -0.040673673 -0.020000009
v -0.02726899 0.08392537 -0.016180348
v -0.009224032 0.08776094 -0.016180348
v 0.009224062 0.08776094 -0.016180348
v 0.027269023 0.08392537 -0.016180348
v 0.044122193 0.07642184 -0.016180348
v 0.059047017 0.065578334 -0.016180348
v 0.0713912 0.05186872 -0.01618035
v 0.080615245 0.035892203 -0.01618035
v 0.08631602 0.018347023 -0.01618035
v -0.04412216 0.07642186 -0.016180348
v -0.059046976 0.06557834 -0.016180348
v -0.07139116 0.05186873 -0.01618035
v -0.08061521 0.035892215 -0.01618035
v -0.08631598 0.018347036 -0.01618035
v -0.08824432 8.34465E-09 -0.01618035
v -0.086315975 -0.01834702 -0.01618035
v -0.08061519 -0.035892192 -0.01618035
vt 0.21021034 1
vt 0.21021034 0.85369396
vt 0.15765783 0.85369396
vt 0.15765783 1
vt 0.2627629 1
vt 0.2627629 0.85369396
vt 0.31531546 1
vt 0.31531546 0.85369396
vt 0.367868 1
vt 0.367868 0.85369396
vt 0.42042053 1
vt 0.42042053 0.85369396
vt 0.4729731 1
vt 0.4729731 0.85369396
vt 0.52552557 1
vt 0.52552557 0.85369396
vt 0.57807827 1
vt 0.57807827 0.85369396
vt 0.6306308 1
vt 0.6306308 0.85369396
vt 0.6831833 1
vt 0.6831833 0.85369396
vt 0.7357359 1
vt 0.7357359 0.85369396
vt 0.7882885 1
vt 0.7882885 0.85369396
vt 0.8408409 1
vt 0.8408409 0.85369396
vt 0.8933935 1
vt 0.8933935 0.85369396
vt 0.9459461 1
vt 0.9459461 0.85369396
vt 1 0.85369396
vt 1 1
vt 0.6306308 0.7114116
vt 0.57807827 0.7114116
vt 0.6831833 0.7114116
vt 0.7357359 0.7114116
vt 0.7882885 0.7114116
vt 0.8408409 0.7114116
vt 0.8933935 0.7114116
vt 0.9459461 0.7114116
vt 1 0.7114116
vt 0.57807827 0.56912917
vt 0.52552557 0.56912917
vt 0.52552557 0.7114116
vt 0.4729731 0.7114116
vt 0.42042053 0.7114116
vt 0.367868 0.7114116
vt 0.31531546 0.7114116
vt 0.2627629 0.7114116
vt 0.21021034 0.7114116
vt 0.15765782 0.7114116
vt 0.10510534 0.7114116
vt 0.105105355 0.85369396
vt 0.105105385 1
vt 0.05255276 0.85369396
vt 0.05255279 1
vt 1.6391277E-07 0.85369396
vt 1.8626451E-07 1
vt 1.4156103E-07 0.7114116
vt 0.052552737 0.7114116
vt 0.1576578 0.56912917
vt 0.21021034 0.56912917
vt 0.2627629 0.56912917
vt 0.31531546 0.56912917
vt 0.367868 0.56912917
vt 0.42042053 0.56912917
vt 0.4729731 0.56912917
vt 0.15765777 0.42684686
vt 0.21021034 0.42684686
vt 0.2627629 0.42684686
vt 0.31531546 0.42684686
vt 0.367868 0.42684686
vt 0.42042053 0.42684686
vt 0.4729731 0.42684686
vt 0.52552557 0.42684686
vt 0.57807827 0.42684686
vt 0.6306308 0.56912917
vt 0.6831833 0.56912917
vt 0.7357359 0.56912917
vt 0.7882885 0.56912917
vt 0.8408409 0.56912917
vt 0.8933935 0.56912917
vt 0.9459461 0.56912917
vt 1 0.56912917
vt 0.6306308 0.42684686
vt 0.6831833 0.42684686
vt 0.7357359 0.42684686
vt 0.7882885 0.42684686
vt 0.8408409 0.42684686
vt 0.8933935 0.42684686
vt 0.9459461 0.42684686
vt 1 0.42684686
vt 0.57807827 0.28456455
vt 0.52552557 0.28456455
vt 0.4729731 0.28456455
vt 0.42042053 0.28456455
vt 0.367868 0.28456455
vt 0.31531546 0.28456455
vt 0.2627629 0.28456455
vt 0.21021034 0.28456455
vt 0.15765777 0.28456455
vt 0.10510525 0.28456455
vt 0.10510527 0.42684686
vt 0.10510529 0.56912917
vt 0.052552707 0.56912917
vt 1.0430813E-07 0.56912917
vt 8.195639E-08 0.42684695
vt 0.052552678 0.42684686
vt 4.4703484E-08 0.28456458
vt 0.05255264 0.28456455
vt 2.2351742E-08 0.14228228
vt 0.052552626 0.14228228
vt 0.10510521 0.14228228
vt 0 0
vt 0.052552596 0
vt 0.10510519 -4.4703484E-08
vt 0.15765776 0.14228228
vt 0.21021034 0.14228228
vt 0.2627629 0.14228228
vt 0.31531546 0.14228228
vt 0.367868 0.14228228
vt 0.42042053 0.14228228
vt 0.4729731 0.14228228
vt 0.52552557 0.14228228
vt 0.57807827 0.14228228
vt 0.6306308 0.28456455
vt 0.6831833 0.28456455
vt 0.7357359 0.28456455
vt 0.7882885 0.28456455
vt 0.8408409 0.28456455
vt 0.8933935 0.28456455
vt 0.9459461 0.28456455
vt 1 0.28456455
vt 0.6306308 0.14228228
vt 0.6831833 0.14228228
vt 0.7357359 0.14228228
vt 0.7882885 0.14228228
vt 0.8408409 0.14228228
vt 0.8933935 0.14228228
vt 0.9459461 0.14228228
vt 1 0.14228228
vt 0.57807827 -4.4703484E-08
vt 0.52552557 -4.4703484E-08
vt 0.4729731 -4.4703484E-08
vt 0.42042053 -4.4703484E-08
vt 0.367868 -4.4703484E-08
vt 0.31531546 -4.4703484E-08
vt 0.2627629 -4.4703484E-08
vt 0.21021034 -4.4703484E-08
vt 0.15765774 -4.4703484E-08
vt 0.6306308 -4.4703484E-08
vt 0.6831833 -4.4703484E-08
vt 0.7357359 -4.4703484E-08
vt 0.7882885 -4.4703484E-08
vt 0.8408409 -4.4703484E-08
vt 0.8933935 -4.4703484E-08
vt 0.9459461 -4.4703484E-08
vt 1 -4.4703484E-08
vn -0.28230095 -0.12568848 0.95105654
vn 0.036100846 0.016073167 0.9992189
vn 0.038654342 0.008216179 0.9992188
vn -0.3022642 -0.064247414 0.95105654
vn -0.24999976 -0.18163541 0.9510566
vn 0.031970255 0.023227768 0.9992189
vn -0.20677257 -0.2296442 0.9510566
vn 0.026442323 0.029367212 0.9992189
vn -0.15450843 -0.26761642 0.95105654
vn 0.019758672 0.034223028 0.9992189
vn -0.09549141 -0.29389226 0.9510566
vn 0.012211564 0.037583314 0.9992189
vn -0.032301046 -0.30732363 0.95105666
vn 0.004130682 0.039301023 0.9992189
vn 0.032300953 -0.30732366 0.95105666
vn -0.0041307034 0.039301004 0.9992189
vn 0.09549135 -0.29389223 0.95105666
vn -0.012211594 0.037583426 0.9992189
vn 0.15450841 -0.26761633 0.9510566
vn -0.019758703 0.034223072 0.9992189
vn 0.20677266 -0.22964428 0.95105654
vn -0.026442364 0.029367136 0.9992189
vn 0.24999997 -0.18163556 0.95105654
vn -0.03197035 0.023227751 0.9992189
vn 0.28230092 -0.12568854 0.95105654
vn -0.03610096 0.016073158 0.9992189
vn 0.30226412 -0.064248234 0.95105654
vn -0.038653944 0.00821616 0.9992189
vn 0.30901694 1.0326453E-07 0.95105654
vn -0.03951749 0 0.9992189
vn 0.30226415 0.064248234 0.95105654
vn -0.03865393 -0.008216198 0.9992189
vn -0.03778989 -0.012278706 0.9992103
vn 0.29535568 0.095966846 0.95055526
vn -0.30618992 0.5303363 0.79056376
vn -0.1892357 0.58240753 0.7905639
vn -0.4097621 0.4550868 0.79056376
vn -0.4954257 0.3599476 0.79056376
vn -0.55943674 0.24907717 0.79056376
vn -0.5989979 0.12732106 0.79056364
vn -0.6123798 -1.1333466E-07 0.7905637
vn -0.5989978 -0.12732089 0.79056376
vn -0.58440644 -0.18988495 0.7889314
vn -0.2949729 0.907833 0.29804412
vn -0.099777855 0.94932294 0.29804435
vn -0.06401107 0.6090248 0.79056394
vn 0.06401113 0.6090248 0.79056394
vn 0.18923575 0.5824076 0.7905638
vn 0.30618986 0.5303362 0.79056394
vn 0.40976182 0.45508656 0.790564
vn 0.4954255 0.35994765 0.7905639
vn 0.5594367 0.24907725 0.7905638
vn 0.59899825 0.12731968 0.7905635
vn 0.6123797 -1.4609554E-06 0.79056376
vn 0.03951712 -1.1881277E-07 0.9992189
vn -0.30901706 7.818616E-07 0.95105654
vn 0.038653933 -0.008216181 0.9992189
vn -0.30226436 0.06424816 0.95105654
vn 0.03779009 -0.0122787235 0.9992103
vn -0.29535598 0.095966876 0.9505552
vn 0.584407 -0.18988481 0.78893113
vn 0.598998 -0.12732074 0.7905636
vn 0.9336933 0.19846061 0.2980439
vn 0.87202674 0.38825127 0.29804403
vn 0.77224886 0.56107163 0.29804423
vn 0.63872 0.7093704 0.29804435
vn 0.47727618 0.82666624 0.29804423
vn 0.29497293 0.9078329 0.2980442
vn 0.09977801 0.94932294 0.29804432
vn 0.93369347 0.19846064 -0.29804352
vn 0.87202686 0.38825125 -0.2980438
vn 0.77224904 0.5610715 -0.29804388
vn 0.6387201 0.7093705 -0.2980439
vn 0.47727618 0.82666636 -0.29804388
vn 0.294973 0.9078331 -0.2980436
vn 0.099778004 0.94932306 -0.2980437
vn -0.09977787 0.94932306 -0.2980438
vn -0.29497296 0.90783316 -0.29804346
vn -0.47727624 0.8266663 0.298044
vn -0.63872004 0.70937043 0.29804406
vn -0.772249 0.5610715 0.29804403
vn -0.8720268 0.3882512 0.29804403
vn -0.9336929 0.19846268 0.29804403
vn -0.95455205 0 0.29804412
vn -0.9336928 -0.19846256 0.29804417
vn -0.9082738 -0.295116 0.29655546
vn -0.47727618 0.82666636 -0.2980438
vn -0.63872 0.70937055 -0.29804388
vn -0.7722491 0.5610715 -0.2980438
vn -0.87202686 0.3882512 -0.2980438
vn -0.93369293 0.19846265 -0.2980436
vn -0.95455223 0 -0.29804364
vn -0.93369293 -0.19846275 -0.29804373
vn -0.9082739 -0.29511645 -0.296555
vn -0.18923588 0.58240783 -0.79056364
vn -0.06401111 0.60902506 -0.7905637
vn 0.06401118 0.6090251 -0.7905637
vn 0.18923585 0.58240783 -0.79056364
vn 0.3061899 0.5303364 -0.79056376
vn 0.40976194 0.45508683 -0.7905638
vn 0.49542582 0.35994774 -0.79056364
vn 0.55943686 0.24907723 -0.7905637
vn 0.5989985 0.12731966 -0.7905634
vn 0.6123799 -1.5061119E-06 -0.7905636
vn 0.95455223 -2.211507E-06 -0.29804364
vn 0.9545521 -2.2081308E-06 0.29804406
vn 0.93369293 -0.19846226 0.29804406
vn 0.9082741 -0.2951154 0.2965553
vn 0.9082741 -0.29511592 -0.2965548
vn 0.933693 -0.19846252 -0.2980436
vn 0.58440703 -0.18988538 -0.7889309
vn 0.59899825 -0.12732103 -0.7905634
vn 0.037790302 -0.01227876 -0.99921024
vn 0.038654096 -0.008216242 -0.9992188
vn 0.039517283 -2.163743E-07 -0.9992189
vn -0.29535574 0.09596681 -0.95055526
vn -0.30226412 0.06424808 -0.95105654
vn -0.3090168 6.8412845E-07 -0.95105654
vn 0.038654573 0.008216103 -0.9992188
vn 0.03610123 0.016073246 -0.9992188
vn 0.031970464 0.023227884 -0.9992188
vn 0.026442464 0.029367419 -0.9992188
vn 0.019758852 0.034223434 -0.9992188
vn 0.012211644 0.03758363 -0.9992188
vn 0.0041307565 0.03930128 -0.9992188
vn -0.004130727 0.039301258 -0.9992188
vn -0.012211682 0.03758369 -0.9992188
vn -0.30619007 0.5303366 -0.79056346
vn -0.40976208 0.4550869 -0.7905637
vn -0.49542588 0.3599477 -0.7905636
vn -0.5594369 0.24907725 -0.7905636
vn -0.598998 0.12732105 -0.79056346
vn -0.61238 0 -0.79056346
vn -0.598998 -0.1273212 -0.7905635
vn -0.5844068 -0.18988559 -0.7889311
vn -0.019758811 0.03422332 -0.9992188
vn -0.026442353 0.029367255 -0.9992189
vn -0.031970453 0.023227826 -0.9992189
vn -0.03610125 0.016073275 -0.9992188
vn -0.03865415 0.0082162265 -0.9992188
vn -0.039517704 0 -0.9992188
vn -0.03865424 -0.0082162805 -0.9992188
vn -0.03779024 -0.012278784 -0.9992103
vn 0.095491424 -0.29389235 -0.9510566
vn 0.032301057 -0.30732387 -0.9510566
vn -0.032301046 -0.30732387 -0.9510566
vn -0.09549146 -0.29389226 -0.95105666
vn -0.15450832 -0.26761612 -0.95105666
vn -0.20677239 -0.22964405 -0.95105666
vn -0.24999943 -0.18163525 -0.9510568
vn -0.2823005 -0.1256883 -0.9510567
vn -0.3022639 -0.06424747 -0.95105666
vn 0.15450832 -0.26761627 -0.9510566
vn 0.2067725 -0.22964409 -0.9510566
vn 0.24999969 -0.18163534 -0.95105666
vn 0.28230074 -0.12568836 -0.9510566
vn 0.30226395 -0.06424811 -0.9510566
vn 0.30901662 0 -0.95105666
vn 0.30226374 0.064248085 -0.95105666
vn 0.29535514 0.095966846 -0.95055544
g arc_half_ring_0
f 3/3/3 2/2/2 1/1/1
f 4/4/4 3/3/3 1/1/1
f 1/1/1 2/2/2 5/5/5
f 2/2/2 6/6/6 5/5/5
f 5/5/5 6/6/6 7/7/7
f 6/6/6 8/8/8 7/7/7
f 7/7/7 8/8/8 9/9/9
f 8/8/8 10/10/10 9/9/9
f 9/9/9 10/10/10 11/11/11
f 10/10/10 12/12/12 11/11/11
f 11/11/11 12/12/12 13/13/13
f 12/12/12 14/14/14 13/13/13
f 13/13/13 14/14/14 15/15/15
f 14/14/14 16/16/16 15/15/15
f 15/15/15 16/16/16 17/17/17
f 16/16/16 18/18/18 17/17/17
f 17/17/17 18/18/18 19/19/19
f 18/18/18 20/20/20 19/19/19
f 19/19/19 20/20/20 21/21/21
f 20/20/20 22/22/22 21/21/21
f 21/21/21 22/22/22 23/23/23
f 22/22/22 24/24/24 23/23/23
f 23/23/23 24/24/24 25/25/25
f 24/24/24 26/26/26 25/25/25
f 25/25/25 26/26/26 27/27/27
f 26/26/26 28/28/28 27/27/27
f 27/27/27 28/28/28 29/29/29
f 28/28/28 30/30/30 29/29/29
f 29/29/29 30/30/30 31/31/31
f 30/30/30 32/32/32 31/31/31
f 31/31/31 32/32/32 33/33/33
f 34/34/34 31/31/31 33/33/33
f 20/20/20 35/35/35 22/22/22
f 36/36/36 35/35/35 20/20/20
f 35/35/35 37/37/37 22/22/22
f 22/22/22 37/37/37 24/24/24
f 37/37/37 38/38/38 24/24/24
f 24/24/24 38/38/38 26/26/26
f 38/38/38 39/39/39 26/26/26
f 26/26/26 39/39/39 28/28/28
f 39/39/39 40/40/40 28/28/28
f 28/28/28 40/40/40 30/30/30
f 40/40/40 41/41/41 30/30/30
f 30/30/30 41/41/41 32/32/32
f 41/41/41 42/42/42 32/32/32
f 32/32/32 42/42/42 43/43/43
f 33/33/33 32/32/32 43/43/43
f 36/36/36 44/44/44 35/35/35
f 45/45/45 44/44/44 36/36/36
f 46/46/46 45/45/45 36/36/36
f 46/46/46 36/36/36 18/18/18
f 16/16/16 46/46/46 18/18/18
f 47/47/47 46/46/46 16/16/16
f 14/14/14 47/47/47 16/16/16
f 48/48/48 47/47/47 14/14/14
f 12/12/12 48/48/48 14/14/14
f 49/49/49 48/48/48 12/12/12
f 10/10/10 49/49/49 12/12/12
f 50/50/50 49/49/49 10/10/10
f 8/8/8 50/50/50 10/10/10
f 51/51/51 50/50/50 8/8/8
f 6/6/6 51/51/51 8/8/8
f 52/52/52 51/51/51 6/6/6
f 2/2/2 52/52/52 6/6/6
f 53/53/53 52/52/52 2/2/2
f 3/3/3 53/53/53 2/2/2
f 54/54/54 53/53/53 3/3/3
f 55/55/55 54/54/54 3/3/3
f 55/55/55 3/3/3 4/4/4
f 56/56/56 55/55/55 4/4/4
f 57/57/57 55/55/55 56/56/56
f 58/58/58 57/57/57 56/56/56
f 59/59/59 57/57/57 58/58/58
f 60/60/60 59/59/59 58/58/58
f 59/59/59 61/61/61 57/57/57
f 61/61/61 62/62/62 57/57/57
f 62/62/62 54/54/54 55/55/55
f 57/57/57 62/62/62 55/55/55
f 53/53/53 63/63/63 52/52/52
f 63/63/63 64/64/64 52/52/52
f 52/52/52 64/64/64 51/51/51
f 64/64/64 65/65/65 51/51/51
f 51/51/51 65/65/65 50/50/50
f 65/65/65 66/66/66 50/50/50
f 50/50/50 66/66/66 49/49/49
f 66/66/66 67/67/67 49/49/49
f 49/49/49 67/67/67 48/48/48
f 67/67/67 68/68/68 48/48/48
f 48/48/48 68/68/68 47/47/47
f 68/68/68 69/69/69 47/47/47
f 47/47/47 69/69/69 46/46/46
f 69/69/69 45/45/45 46/46/46
f 63/63/63 70/70/70 64/64/64
f 70/70/70 71/71/71 64/64/64
f 64/64/64 71/71/71 65/65/65
f 71/71/71 72/72/72 65/65/65
f 65/65/65 72/72/72 66/66/66
f 72/72/72 73/73/73 66/66/66
f 66/66/66 73/73/73 67/67/67
f 73/73/73 74/74/74 67/67/67
f 67/67/67 74/74/74 68/68/68
f 74/74/74 75/75/75 68/68/68
f 68/68/68 75/75/75 69/69/69
f 75/75/75 76/76/76 69/69/69
f 69/69/69 76/76/76 45/45/45
f 76/76/76 77/77/77 45/45/45
f 45/45/45 77/77/77 44/44/44
f 77/77/77 78/78/78 44/44/44
f 44/44/44 78/78/78 79/79/79
f 44/44/44 79/79/79 35/35/35
f 35/35/35 79/79/79 37/37/37
f 79/79/79 80/80/80 37/37/37
f 37/37/37 80/80/80 38/38/38
f 80/80/80 81/81/81 38/38/38
f 38/38/38 81/81/81 39/39/39
f 81/81/81 82/82/82 39/39/39
f 39/39/39 82/82/82 40/40/40
f 82/82/82 83/83/83 40/40/40
f 40/40/40 83/83/83 41/41/41
f 83/83/83 84/84/84 41/41/41
f 41/41/41 84/84/84 42/42/42
f 84/84/84 85/85/85 42/42/42
f 42/42/42 85/85/85 86/86/86
f 43/43/43 42/42/42 86/86/86
f 79/79/79 87/87/87 80/80/80
f 78/78/78 87/87/87 79/79/79
f 87/87/87 88/88/88 80/80/80
f 88/88/88 89/89/89 81/81/81
f 81/81/81 89/89/89 82/82/82
f 80/80/80 88/88/88 81/81/81
f 89/89/89 90/90/90 82/82/82
f 82/82/82 90/90/90 83/83/83
f 90/90/90 91/91/91 83/83/83
f 83/83/83 91/91/91 84/84/84
f 91/91/91 92/92/92 84/84/84
f 84/84/84 92/92/92 85/85/85
f 92/92/92 93/93/93 85/85/85
f 85/85/85 93/93/93 94/94/94
f 86/86/86 85/85/85 94/94/94
f 78/78/78 95/95/95 87/87/87
f 96/96/96 95/95/95 78/78/78
f 77/77/77 96/96/96 78/78/78
f 97/97/97 96/96/96 77/77/77
f 76/76/76 97/97/97 77/77/77
f 98/98/98 97/97/97 76/76/76
f 75/75/75 98/98/98 76/76/76
f 99/99/99 98/98/98 75/75/75
f 74/74/74 99/99/99 75/75/75
f 100/100/100 99/99/99 74/74/74
f 73/73/73 100/100/100 74/74/74
f 101/101/101 100/100/100 73/73/73
f 72/72/72 101/101/101 73/73/73
f 102/102/102 101/101/101 72/72/72
f 71/71/71 102/102/102 72/72/72
f 103/103/103 102/102/102 71/71/71
f 70/70/70 103/103/103 71/71/71
f 104/104/104 103/103/103 70/70/70
f 105/105/105 104/104/104 70/70/70
f 105/105/105 70/70/70 63/63/63
f 106/106/106 105/105/105 63/63/63
f 106/106/106 63/63/63 53/53/53
f 54/54/54 106/106/106 53/53/53
f 107/107/107 106/106/106 54/54/54
f 62/62/62 107/107/107 54/54/54
f 108/108/108 107/107/107 62/62/62
f 61/61/61 108/108/108 62/62/62
f 108/108/108 109/109/109 107/107/107
f 109/109/109 110/110/110 107/107/107
f 110/110/110 105/105/105 106/106/106
f 107/107/107 110/110/110 106/106/106
f 109/109/109 111/111/111 110/110/110
f 111/111/111 112/112/112 110/110/110
f 112/112/112 104/104/104 105/105/105
f 110/110/110 112/112/112 105/105/105
f 111/111/111 113/113/113 112/112/112
f 113/113/113 114/114/114 112/112/112
f 112/112/112 114/114/114 104/104/104
f 114/114/114 115/115/115 104/104/104
f 113/113/113 116/116/116 114/114/114
f 116/116/116 117/117/117 114/114/114
f 114/114/114 117/117/117 115/115/115
f 117/117/117 118/118/118 115/115/115
f 115/115/115 118/118/118 119/119/119
f 115/115/115 119/119/119 103/103/103
f 103/103/103 119/119/119 102/102/102
f 119/119/119 120/120/120 102/102/102
f 102/102/102 120/120/120 101/101/101
f 120/120/120 121/121/121 101/101/101
f 101/101/101 121/121/121 100/100/100
f 121/121/121 122/122/122 100/100/100
f 100/100/100 122/122/122 99/99/99
f 122/122/122 123/123/123 99/99/99
f 99/99/99 123/123/123 98/98/98
f 123/123/123 124/124/124 98/98/98
f 98/98/98 124/124/124 97/97/97
f 124/124/124 125/125/125 97/97/97
f 97/97/97 125/125/125 96/96/96
f 125/125/125 126/126/126 96/96/96
f 96/96/96 126/126/126 95/95/95
f 126/126/126 127/127/127 95/95/95
f 95/95/95 127/127/127 128/128/128
f 95/95/95 128/128/128 87/87/87
f 87/87/87 128/128/128 88/88/88
f 128/128/128 129/129/129 88/88/88
f 88/88/88 129/129/129 89/89/89
f 129/129/129 130/130/130 89/89/89
f 89/89/89 130/130/130 90/90/90
f 130/130/130 131/131/131 90/90/90
f 90/90/90 131/131/131 91/91/91
f 131/131/131 132/132/132 91/91/91
f 91/91/91 132/132/132 92/92/92
f 132/132/132 133/133/133 92/92/92
f 92/92/92 133/133/133 93/93/93
f 133/133/133 134/134/134 93/93/93
f 93/93/93 134/134/134 135/135/135
f 94/94/94 93/93/93 135/135/135
f 128/128/128 136/136/136 129/129/129
f 127/127/127 136/136/136 128/128/128
f 136/136/136 137/137/137 129/129/129
f 137/137/137 138/138/138 130/130/130
f 130/130/130 138/138/138 131/131/131
f 129/129/129 137/137/137 130/130/130
f 138/138/138 139/139/139 131/131/131
f 131/131/131 139/139/139 132/132/132
f 139/139/139 140/140/140 132/132/132
f 132/132/132 140/140/140 133/133/133
f 140/140/140 141/141/141 133/133/133
f 133/133/133 141/141/141 134/134/134
f 141/141/141 142/142/142 134/134/134
f 134/134/134 142/142/142 143/143/143
f 135/135/135 134/134/134 143/143/143
f 127/127/127 144/144/144 136/136/136
f 145/145/145 144/144/144 127/127/127
f 126/126/126 145/145/145 127/127/127
f 146/146/146 145/145/145 126/126/126
f 125/125/125 146/146/146 126/126/126
f 147/147/147 146/146/146 125/125/125
f 124/124/124 147/147/147 125/125/125
f 148/148/148 147/147/147 124/124/124
f 123/123/123 148/148/148 124/124/124
f 149/149/149 148/148/148 123/123/123
f 122/122/122 149/149/149 123/123/123
f 150/150/150 149/149/149 122/122/122
f 121/121/121 150/150/150 122/122/122
f 151/151/151 150/150/150 121/121/121
f 120/120/120 151/151/151 121/121/121
f 152/152/152 151/151/151 120/120/120
f 119/119/119 152/152/152 120/120/120
f 118/118/118 152/152/152 119/119/119
f 18/18/18 36/36/36 20/20/20
f 104/104/104 115/115/115 103/103/103
f 144/144/144 153/153/153 136/136/136
f 136/136/136 153/153/153 137/137/137
f 153/153/153 154/154/154 137/137/137
f 137/137/137 154/154/154 138/138/138
f 154/154/154 155/155/155 138/138/138
f 138/138/138 155/155/155 139/139/139
f 155/155/155 156/156/156 139/139/139
f 139/139/139 156/156/156 140/140/140
f 156/156/156 157/157/157 140/140/140
f 140/140/140 157/157/157 141/141/141
f 157/157/157 158/158/158 141/141/141
f 141/141/141 158/158/158 142/142/142
f 158/158/158 159/159/159 142/142/142
f 142/142/142 159/159/159 160/160/160
f 143/143/143 142/142/142 160/160/160
