g arc_half_ring
v -0.09135458 -0.040673673 0.020000001
v -0.08631598 -0.01834702 0.01618034
v -0.08061521 -0.035892192 0.01618034
v -0.097814806 -0.02079117 0.020000001
v -0.102093965 -0.04545515 0.016180344
v -0.100000046 9.536743E-09 0.020000001
v -0.088244334 8.34465E-09 0.01618034
v -0.10931362 -0.023235315 0.016180342
v -0.10873127 -0.048410263 0.0061803437
v -0.097814806 0.02079119 0.020000001
v -0.08631599 0.018347038 0.01618034
v -0.11175576 9.536743E-09 0.016180342
v -0.11642029 -0.024745885 0.006180341
v -0.10873127 -0.04841027 -0.0061803386
v -0.091354586 0.040673696 0.02
v -0.080615215 0.035892215 0.01618034
v -0.10931363 0.02323534 0.01618034
v -0.11902119 1.0728836E-08 0.006180341
v -0.11642029 -0.024745885 -0.006180341
v -0.10209397 -0.045455154 -0.016180344
v -0.080901735 0.05877857 0.02
v -0.07139117 0.051868733 0.016180338
v -0.102093965 0.045455173 0.016180344
v -0.11642029 0.02474591 0.006180341
v -0.11902119 1.0728836E-08 -0.006180341
v -0.10931363 -0.023235321 -0.016180346
v -0.09135458 -0.040673673 -0.020000009
v -0.06691309 0.07431454 0.020000005
v -0.059046987 0.06557834 0.016180338
v -0.10873127 0.0484103 0.0061803386
v -0.11642029 0.02474591 -0.006180341
v -0.111755766 9.536743E-09 -0.016180346
v -0.097814806 -0.02079117 -0.020000007
v -0.08061519 -0.035892192 -0.01618035
v -0.086315975 -0.01834702 -0.01618035
v -0.08824432 8.34465E-09 -0.01618035
v -0.100000046 9.536743E-09 -0.020000009
v -0.08631598 0.018347036 -0.01618035
v -0.097814806 0.020791186 -0.020000009
v -0.08061521 0.035892215 -0.01618035
v -0.10931364 0.023235342 -0.016180346
v -0.091354586 0.040673696 -0.020000009
v -0.07139116 0.05186873 -0.01618035
v -0.10209397 0.045455176 -0.016180346
v -0.080901735 0.05877857 -0.020000009
v -0.059046976 0.06557834 -0.016180348
v -0.10873127 0.04841029 -0.0061803437
v -0.09041232 0.06568842 -0.016180348
v -0.06691309 0.07431454 -0.020000009
v -0.04412216 0.07642186 -0.016180348
v -0.09629018 0.069958925 -0.0061803437
v -0.074779205 0.08305074 -0.016180348
v -0.050000023 0.08660261 -0.020000009
v -0.02726899 0.08392537 -0.016180348
v -0.09629018 0.069958925 0.0061803386
v -0.079640724 0.08845001 -0.0061803437
v -0.055877883 0.09678336 -0.016180344
v -0.030901708 0.09510573 -0.020000009
v -0.009224032 0.08776094 -0.016180348
v -0.09041231 0.06568841 0.016180344
v -0.079640724 0.08845001 0.0061803437
v -0.0747792 0.083050735 0.016180344
v -0.059510596 0.10307541 -0.0061803437
v -0.034534425 0.106286086 -0.016180344
v -0.010452838 0.099452265 -0.020000009
v 0.009224062 0.08776094 -0.016180348
v -0.059510596 0.10307541 0.0061803437
v -0.05587788 0.09678336 0.016180344
v -0.036779564 0.113195926 -0.0061803437
v -0.011681643 0.1111436 -0.016180344
v 0.010452871 0.099452265 -0.020000009
v 0.027269023 0.08392537 -0.016180348
v -0.036779564 0.113195926 0.0061803437
v -0.050000023 0.08660261 0.02
v -0.044122167 0.07642186 0.016180344
v -0.012441087 0.11836922 -0.0061803437
v 0.0116816815 0.1111436 -0.016180344
v 0.030901741 0.09510572 -0.020000009
v 0.044122193 0.07642184 -0.016180348
v -0.03453442 0.10628608 0.016180344
v -0.030901708 0.09510573 0.02
v -0.027268996 0.08392538 0.016180344
v -0.012441087 0.11836922 0.0061803437
v 0.012441127 0.11836922 -0.0061803437
v 0.03453446 0.106286086 -0.016180344
v 0.050000057 0.0866026 -0.020000009
v 0.059047017 0.065578334 -0.016180348
v -0.010452838 0.099452265 0.02
v -0.009224033 0.087760955 0.016180344
v -0.011681642 0.11114359 0.016180344
v 0.012441127 0.11836922 0.0061803437
v 0.036779605 0.11319591 -0.0061803437
v 0.055877924 0.09678336 -0.016180344
v 0.06691313 0.074314535 -0.020000009
v 0.0713912 0.05186872 -0.01618035
v 0.010452871 0.099452265 0.02
v 0.009224063 0.087760955 0.016180344
v 0.011681681 0.11114359 0.016180344
v 0.036779605 0.11319591 0.0061803437
v 0.05951064 0.10307541 -0.0061803437
v 0.07477925 0.083050735 -0.016180348
v 0.08090179 0.058778565 -0.020000009
v 0.080615245 0.035892203 -0.01618035
v 0.030901741 0.09510572 0.02
v 0.027269024 0.08392538 0.016180344
v 0.034534458 0.10628608 0.016180344
v 0.05951064 0.10307541 0.0061803437
v 0.079640776 0.08845 -0.0061803437
v 0.09041236 0.06568841 -0.016180348
v 0.09135464 0.040673688 -0.020000009
v 0.08631602 0.018347023 -0.01618035
v 0.050000057 0.0866026 0.02
v 0.0441222 0.07642186 0.016180338
v 0.055877917 0.09678335 0.016180344
v 0.079640776 0.08845 0.0061803437
v 0.09629022 0.06995892 -0.0061803437
v 0.102094024 0.04545517 -0.016180346
v 0.09781485 0.020791177 -0.020000009
v 0.08824428 0 -0.01618035
v 0.06691313 0.074314535 0.02
v 0.05904702 0.065578334 0.016180344
v 0.07477924 0.08305073 0.016180344
v 0.09629022 0.069958925 0.0061803386
v 0.10873132 0.04841028 -0.0061803437
v 0.1093137 0.023235325 -0.016180346
v 0.099999994 0 -0.020000009
v 0.08631594 -0.01834702 -0.01618035
v 0.08090179 0.058778565 0.02
v 0.07139121 0.05186873 0.016180338
v 0.090412356 0.0656884 0.016180344
v 0.10873132 0.04841029 0.0061803386
v 0.11642035 0.024745893 -0.006180341
v 0.111755714 0 -0.016180346
v 0.09781476 -0.02079117 -0.020000007
v 0.08061518 -0.035892185 -0.016180348
v 0.09135455 -0.040673666 -0.020000009
v 0.10931358 -0.023235321 -0.016180346
v 0.102093935 -0.045455147 -0.016180344
v 0.10209402 0.045455165 0.016180344
v 0.11642035 0.024745893 0.006180341
v 0.11902114 0 -0.006180341
v 0.11642024 -0.024745885 -0.006180341
v 0.10873123 -0.048410263 -0.0061803386
v 0.09135464 0.040673688 0.02
v 0.08061525 0.03589221 0.016180338
v 0.10931369 0.023235323 0.01618034
v 0.11902114 0 0.006180341
v 0.11642024 -0.024745885 0.006180341
v 0.10873123 -0.048410263 0.0061803437
v 0.09781485 0.020791175 0.020000001
v 0.086316034 0.018347025 0.01618034
v 0.1117557 0 0.016180342
v 0.10931357 -0.023235315 0.016180342
v 0.10209392 -0.045455147 0.016180344
v 0.099999994 0 0.020000001
v 0.0882443 0 0.01618034
v 0.09781476 -0.02079117 0.020000001
v 0.09135455 -0.040673666 0.020000001
v 0.086315945 -0.01834702 0.01618034
v 0.080615185 -0.035892192 0.01618034
vt 1 0.85369396
vt 0.9459461 1
vt 1 1
vt 0.9459461 0.85369396
vt 1 0.7114116
vt 0.8933935 0.85369396
vt 0.8933935 1
vt 0.9459461 0.7114116
vt 1 0.56912917
vt 0.8408409 0.85369396
vt 0.8408409 1
vt 0.8933935 0.7114116
vt 0.9459461 0.56912917
vt 1 0.42684686
vt 0.7882885 0.85369396
vt 0.7882885 1
vt 0.8408409 0.7114116
vt 0.8933935 0.56912917
vt 0.9459461 0.42684686
vt 1 0.28456455
vt 0.7357359 0.85369396
vt 0.7357359 1
vt 0.7882885 0.7114116
vt 0.8408409 0.56912917
vt 0.8933935 0.42684686
vt 0.9459461 0.28456455
vt 1 0.14228228
vt 0.6831833 0.85369396
vt 0.6831833 1
vt 0.7882885 0.56912917
vt 0.8408409 0.42684686
vt 0.8933935 0.28456455
vt 0.9459461 0.14228228
vt 1 -4.4703484E-08
vt 0.9459461 -4.4703484E-08
vt 0.8933935 -4.4703484E-08
vt 0.8933935 0.14228228
vt 0.8408409 -4.4703484E-08
vt 0.8408409 0.14228228
vt 0.7882885 -4.4703484E-08
vt 0.8408409 0.28456455
vt 0.7882885 0.14228228
vt 0.7357359 -4.4703484E-08
vt 0.7882885 0.28456455
vt 0.7357359 0.14228228
vt 0.6831833 -4.4703484E-08
vt 0.7882885 0.42684686
vt 0.7357359 0.28456455
vt 0.6831833 0.14228228
vt 0.6306308 -4.4703484E-08
vt 0.7357359 0.42684686
vt 0.6831833 0.28456455
vt 0.6306308 0.14228228
vt 0.57807827 -4.4703484E-08
vt 0.7357359 0.56912917
vt 0.6831833 0.42684686
vt 0.6306308 0.28456455
vt 0.57807827 0.14228228
vt 0.52552557 -4.4703484E-08
vt 0.7357359 0.7114116
vt 0.6831833 0.56912917
vt 0.6831833 0.7114116
vt 0.6306308 0.42684686
vt 0.57807827 0.28456455
vt 0.52552557 0.14228228
vt 0.4729731 -4.4703484E-08
vt 0.6306308 0.56912917
vt 0.6306308 0.7114116
vt 0.57807827 0.42684686
vt 0.52552557 0.28456455
vt 0.4729731 0.14228228
vt 0.42042053 -4.4703484E-08
vt 0.57807827 0.56912917
vt 0.6306308 0.85369396
vt 0.6306308 1
vt 0.52552557 0.42684686
vt 0.4729731 0.28456455
vt 0.42042053 0.14228228
vt 0.367868 -4.4703484E-08
vt 0.57807827 0.7114116
vt 0.57807827 0.85369396
vt 0.57807827 1
vt 0.52552557 0.56912917
vt 0.4729731 0.42684686
vt 0.42042053 0.28456455
vt 0.367868 0.14228228
vt 0.31531546 -4.4703484E-08
vt 0.52552557 0.85369396
vt 0.52552557 1
vt 0.52552557 0.7114116
vt 0.4729731 0.56912917
vt 0.42042053 0.42684686
vt 0.367868 0.28456455
vt 0.31531546 0.14228228
vt 0.2627629 -4.4703484E-08
vt 0.4729731 0.85369396
vt 0.4729731 1
vt 0.4729731 0.7114116
vt 0.42042053 0.56912917
vt 0.367868 0.42684686
vt 0.31531546 0.28456455
vt 0.2627629 0.14228228
vt 0.21021034 -4.4703484E-08
vt 0.42042053 0.85369396
vt 0.42042053 1
vt 0.42042053 0.7114116
vt 0.367868 0.56912917
vt 0.31531546 0.42684686
vt 0.2627629 0.28456455
vt 0.21021034 0.14228228
vt 0.15765774 -4.4703484E-08
vt 0.367868 0.85369396
vt 0.367868 1
vt 0.367868 0.7114116
vt 0.31531546 0.56912917
vt 0.2627629 0.42684686
vt 0.21021034 0.28456455
vt 0.15765776 0.14228228
vt 0.10510519 -4.4703484E-08
vt 0.31531546 0.85369396
vt 0.31531546 1
vt 0.31531546 0.7114116
vt 0.2627629 0.56912917
vt 0.21021034 0.42684686
vt 0.15765777 0.28456455
vt 0.10510521 0.14228228
vt 0.052552596 0
vt 0.2627629 0.85369396
vt 0.2627629 1
vt 0.2627629 0.7114116
vt 0.21021034 0.56912917
vt 0.15765777 0.42684686
vt 0.10510525 0.28456455
vt 0.052552626 0.14228228
vt 0 0
vt 2.2351742E-08 0.14228228
vt 0.05255264 0.28456455
vt 4.4703484E-08 0.28456458
vt 0.21021034 0.7114116
vt 0.1576578 0.56912917
vt 0.10510527 0.42684686
vt 0.052552678 0.42684686
vt 8.195639E-08 0.42684695
vt 0.21021034 0.85369396
vt 0.21021034 1
vt 0.15765782 0.7114116
vt 0.10510529 0.56912917
vt 0.052552707 0.56912917
vt 1.0430813E-07 0.56912917
vt 0.15765783 0.85369396
vt 0.15765783 1
vt 0.10510534 0.7114116
vt 0.052552737 0.7114116
vt 1.4156103E-07 0.7114116
vt 0.105105355 0.85369396
vt 0.105105385 1
vt 0.05255276 0.85369396
vt 1.6391277E-07 0.85369396
vt 0.05255279 1
vt 1.8626451E-07 1
vn -0.037789885 -0.012278705 0.99921024
vn 0.30226415 0.064248234 0.95105654
vn 0.2953557 0.095966846 0.9505553
vn -0.03865393 -0.008216198 0.99921894
vn -0.58440644 -0.18988495 0.7889314
vn -0.039517492 0 0.99921894
vn 0.30901694 1.0326453E-07 0.95105654
vn -0.5989978 -0.12732089 0.79056376
vn -0.9082738 -0.295116 0.29655546
vn -0.038653944 0.00821616 0.99921894
vn 0.30226412 -0.064248234 0.95105654
vn -0.6123798 -1.1333467E-07 0.79056376
vn -0.9336928 -0.19846256 0.29804417
vn -0.90827394 -0.29511648 -0.29655504
vn -0.036100965 0.01607316 0.99921894
vn 0.28230092 -0.12568854 0.95105654
vn -0.59899783 0.12732105 0.7905636
vn -0.95455205 0 0.29804412
vn -0.93369293 -0.19846275 -0.29804373
vn -0.5844068 -0.18988559 -0.7889311
vn -0.031970352 0.023227751 0.99921894
vn 0.24999997 -0.18163556 0.95105654
vn -0.55943674 0.24907717 0.79056376
vn -0.93369293 0.1984627 0.29804406
vn -0.95455223 0 -0.29804364
vn -0.598998 -0.1273212 -0.7905635
vn -0.037790235 -0.012278783 -0.99921024
vn -0.026442366 0.029367138 0.99921894
vn 0.20677266 -0.22964428 0.95105654
vn -0.87202674 0.38825116 0.298044
vn -0.93369293 0.19846265 -0.2980436
vn -0.61238 0 -0.79056346
vn -0.03865424 -0.0082162805 -0.9992188
vn 0.29535514 0.095966846 -0.95055544
vn 0.30226374 0.064248085 -0.95105666
vn 0.30901662 0 -0.95105666
vn -0.039517704 0 -0.9992188
vn 0.30226392 -0.0642481 -0.95105654
vn -0.03865415 0.0082162265 -0.9992188
vn 0.2823007 -0.12568836 -0.95105654
vn -0.598998 0.12732105 -0.79056346
vn -0.03610125 0.016073275 -0.9992188
vn 0.24999969 -0.18163534 -0.95105666
vn -0.5594369 0.24907725 -0.7905636
vn -0.031970456 0.023227826 -0.99921894
vn 0.20677249 -0.22964408 -0.95105654
vn -0.87202686 0.3882512 -0.2980438
vn -0.49542588 0.3599477 -0.7905636
vn -0.026442355 0.029367257 -0.99921894
vn 0.15450832 -0.26761624 -0.95105654
vn -0.77224904 0.5610715 -0.29804376
vn -0.40976208 0.4550869 -0.7905637
vn -0.019758811 0.03422332 -0.9992188
vn 0.09549142 -0.29389232 -0.95105654
vn -0.772249 0.5610715 0.29804403
vn -0.63872004 0.7093706 -0.2980439
vn -0.30619007 0.5303366 -0.79056346
vn -0.012211682 0.03758369 -0.9992188
vn 0.032301053 -0.30732387 -0.95105654
vn -0.4954257 0.3599476 0.79056376
vn -0.63872004 0.70937043 0.29804406
vn -0.4097621 0.4550868 0.79056376
vn -0.4772762 0.8266664 -0.2980438
vn -0.1892359 0.5824079 -0.7905637
vn -0.004130727 0.039301258 -0.9992188
vn -0.032301042 -0.30732387 -0.95105654
vn -0.47727624 0.8266663 0.298044
vn -0.30618992 0.5303363 0.79056376
vn -0.29497296 0.90783316 -0.29804346
vn -0.06401111 0.6090251 -0.79056376
vn 0.0041307565 0.03930128 -0.9992188
vn -0.09549146 -0.29389226 -0.95105666
vn -0.2949729 0.907833 0.29804412
vn -0.019758703 0.034223076 0.99921894
vn 0.1545084 -0.2676163 0.95105654
vn -0.09977787 0.94932306 -0.2980438
vn 0.06401119 0.6090251 -0.79056376
vn 0.012211644 0.03758363 -0.9992188
vn -0.15450832 -0.26761612 -0.95105666
vn -0.1892357 0.58240753 0.7905639
vn -0.012211595 0.03758343 0.99921894
vn 0.09549135 -0.29389223 0.95105666
vn -0.09977785 0.9493229 0.29804432
vn 0.099778004 0.94932306 -0.2980437
vn 0.18923587 0.58240783 -0.7905637
vn 0.019758852 0.034223434 -0.9992188
vn -0.20677239 -0.22964405 -0.95105666
vn -0.0041307034 0.039301008 0.99921894
vn 0.032300953 -0.30732366 0.95105666
vn -0.064011075 0.6090249 0.790564
vn 0.099778004 0.9493229 0.2980443
vn 0.294973 0.90783304 -0.29804358
vn 0.3061899 0.5303364 -0.79056376
vn 0.026442464 0.029367419 -0.9992188
vn -0.24999943 -0.18163525 -0.9510568
vn 0.004130682 0.039301027 0.99921894
vn -0.032301046 -0.30732363 0.95105666
vn 0.064011134 0.6090249 0.790564
vn 0.29497293 0.90783286 0.29804417
vn 0.4772762 0.8266664 -0.2980439
vn 0.40976194 0.45508683 -0.7905638
vn 0.031970464 0.023227884 -0.9992188
vn -0.28230047 -0.1256883 -0.95105666
vn 0.012211565 0.037583318 0.99921894
vn -0.09549141 -0.29389223 0.95105654
vn 0.18923575 0.5824076 0.7905638
vn 0.47727618 0.82666624 0.29804423
vn 0.6387201 0.7093705 -0.2980439
vn 0.4954258 0.3599477 -0.7905636
vn 0.03610123 0.016073246 -0.9992188
vn -0.3022639 -0.06424747 -0.95105666
vn 0.019758672 0.034223028 0.99921894
vn -0.15450843 -0.26761642 0.95105654
vn 0.30618984 0.53033614 0.7905639
vn 0.63872 0.7093704 0.29804435
vn 0.77224904 0.5610715 -0.29804388
vn 0.55943686 0.24907723 -0.7905637
vn 0.038654573 0.008216103 -0.9992188
vn -0.3090168 6.8412845E-07 -0.95105654
vn 0.026442325 0.029367214 0.99921894
vn -0.20677257 -0.22964418 0.95105654
vn 0.40976185 0.4550866 0.79056406
vn 0.77224886 0.56107163 0.29804423
vn 0.87202686 0.38825125 -0.2980438
vn 0.5989985 0.12731966 -0.7905634
vn 0.039517283 -2.1637432E-07 -0.99921894
vn -0.30226412 0.06424808 -0.95105654
vn 0.03197026 0.023227768 0.99921894
vn -0.24999973 -0.1816354 0.95105654
vn 0.4954255 0.35994765 0.7905639
vn 0.87202674 0.38825127 0.29804403
vn 0.9336934 0.19846062 -0.2980435
vn 0.6123799 -1.5061119E-06 -0.7905636
vn 0.038654096 -0.008216242 -0.9992188
vn -0.29535577 0.095966816 -0.9505553
vn 0.037790302 -0.01227876 -0.99921024
vn 0.59899825 -0.12732103 -0.7905634
vn 0.58440703 -0.18988538 -0.7889309
vn 0.5594367 0.24907725 0.7905638
vn 0.93369335 0.19846062 0.2980439
vn 0.95455223 -2.211507E-06 -0.29804364
vn 0.933693 -0.19846252 -0.2980436
vn 0.9082741 -0.29511592 -0.2965548
vn 0.03610085 0.01607317 0.99921894
vn -0.28230095 -0.12568848 0.95105654
vn 0.59899825 0.12731968 0.7905635
vn 0.9545521 -2.2081308E-06 0.29804406
vn 0.93369293 -0.19846226 0.29804406
vn 0.9082741 -0.2951154 0.2965553
vn 0.038654342 0.008216179 0.9992188
vn -0.3022642 -0.064247414 0.95105654
vn 0.6123797 -1.4609554E-06 0.79056376
vn 0.598998 -0.12732074 0.7905636
vn 0.5844069 -0.18988481 0.7889311
vn 0.03951712 -1.1881278E-07 0.99921894
vn -0.30901706 7.818616E-07 0.95105654
vn 0.038653933 -0.008216181 0.99921894
vn 0.037790086 -0.012278723 0.99921024
vn -0.30226436 0.06424816 0.95105654
vn -0.29535598 0.095966876 0.9505552
g arc_half_ring_0
f 3/3/3 2/2/2 1/1/1
f 2/2/2 4/4/4 1/1/1
f 1/1/1 4/4/4 5/5/5
f 6/6/6 4/4/4 2/2/2
f 7/7/7 6/6/6 2/2/2
f 4/4/4 8/8/8 5/5/5
f 5/5/5 8/8/8 9/9/9
f 10/10/10 6/6/6 7/7/7
f 11/11/11 10/10/10 7/7/7
f 6/6/6 12/12/12 4/4/4
f 12/12/12 8/8/8 4/4/4
f 8/8/8 13/13/13 9/9/9
f 9/9/9 13/13/13 14/14/14
f 15/15/15 10/10/10 11/11/11
f 16/16/16 15/15/15 11/11/11
f 10/10/10 17/17/17 6/6/6
f 17/17/17 12/12/12 6/6/6
f 12/12/12 18/18/18 8/8/8
f 18/18/18 13/13/13 8/8/8
f 13/13/13 19/19/19 14/14/14
f 14/14/14 19/19/19 20/20/20
f 21/21/21 15/15/15 16/16/16
f 22/22/22 21/21/21 16/16/16
f 15/15/15 23/23/23 10/10/10
f 23/23/23 17/17/17 10/10/10
f 17/17/17 24/24/24 12/12/12
f 24/24/24 18/18/18 12/12/12
f 18/18/18 25/25/25 13/13/13
f 25/25/25 19/19/19 13/13/13
f 19/19/19 26/26/26 20/20/20
f 20/20/20 26/26/26 27/27/27
f 28/28/28 21/21/21 22/22/22
f 29/29/29 28/28/28 22/22/22
f 23/23/23 30/30/30 17/17/17
f 30/30/30 24/24/24 17/17/17
f 24/24/24 31/31/31 18/18/18
f 31/31/31 25/25/25 18/18/18
f 25/25/25 32/32/32 19/19/19
f 32/32/32 26/26/26 19/19/19
f 26/26/26 33/33/33 27/27/27
f 27/27/27 33/33/33 34/34/34
f 33/33/33 35/35/35 34/34/34
f 36/36/36 35/35/35 33/33/33
f 37/37/37 33/33/33 26/26/26
f 37/37/37 36/36/36 33/33/33
f 32/32/32 37/37/37 26/26/26
f 38/38/38 36/36/36 37/37/37
f 39/39/39 38/38/38 37/37/37
f 39/39/39 37/37/37 32/32/32
f 40/40/40 38/38/38 39/39/39
f 41/41/41 32/32/32 25/25/25
f 41/41/41 39/39/39 32/32/32
f 31/31/31 41/41/41 25/25/25
f 42/42/42 40/40/40 39/39/39
f 42/42/42 39/39/39 41/41/41
f 43/43/43 40/40/40 42/42/42
f 44/44/44 41/41/41 31/31/31
f 44/44/44 42/42/42 41/41/41
f 45/45/45 43/43/43 42/42/42
f 45/45/45 42/42/42 44/44/44
f 46/46/46 43/43/43 45/45/45
f 47/47/47 44/44/44 31/31/31
f 47/47/47 31/31/31 24/24/24
f 30/30/30 47/47/47 24/24/24
f 48/48/48 45/45/45 44/44/44
f 48/48/48 44/44/44 47/47/47
f 49/49/49 46/46/46 45/45/45
f 49/49/49 45/45/45 48/48/48
f 50/50/50 46/46/46 49/49/49
f 51/51/51 47/47/47 30/30/30
f 51/51/51 48/48/48 47/47/47
f 52/52/52 49/49/49 48/48/48
f 52/52/52 48/48/48 51/51/51
f 53/53/53 50/50/50 49/49/49
f 53/53/53 49/49/49 52/52/52
f 54/54/54 50/50/50 53/53/53
f 55/55/55 51/51/51 30/30/30
f 55/55/55 30/30/30 23/23/23
f 56/56/56 52/52/52 51/51/51
f 56/56/56 51/51/51 55/55/55
f 57/57/57 53/53/53 52/52/52
f 57/57/57 52/52/52 56/56/56
f 58/58/58 54/54/54 53/53/53
f 58/58/58 53/53/53 57/57/57
f 59/59/59 54/54/54 58/58/58
f 60/60/60 55/55/55 23/23/23
f 60/60/60 23/23/23 15/15/15
f 21/21/21 60/60/60 15/15/15
f 61/61/61 56/56/56 55/55/55
f 61/61/61 55/55/55 60/60/60
f 62/62/62 60/60/60 21/21/21
f 62/62/62 61/61/61 60/60/60
f 28/28/28 62/62/62 21/21/21
f 63/63/63 57/57/57 56/56/56
f 63/63/63 56/56/56 61/61/61
f 64/64/64 58/58/58 57/57/57
f 64/64/64 57/57/57 63/63/63
f 65/65/65 59/59/59 58/58/58
f 65/65/65 58/58/58 64/64/64
f 66/66/66 59/59/59 65/65/65
f 67/67/67 61/61/61 62/62/62
f 67/67/67 63/63/63 61/61/61
f 68/68/68 62/62/62 28/28/28
f 68/68/68 67/67/67 62/62/62
f 69/69/69 64/64/64 63/63/63
f 69/69/69 63/63/63 67/67/67
f 70/70/70 65/65/65 64/64/64
f 70/70/70 64/64/64 69/69/69
f 71/71/71 66/66/66 65/65/65
f 71/71/71 65/65/65 70/70/70
f 72/72/72 66/66/66 71/71/71
f 73/73/73 69/69/69 67/67/67
f 73/73/73 67/67/67 68/68/68
f 74/74/74 68/68/68 28/28/28
f 74/74/74 28/28/28 29/29/29
f 75/75/75 74/74/74 29/29/29
f 76/76/76 70/70/70 69/69/69
f 76/76/76 69/69/69 73/73/73
f 77/77/77 71/71/71 70/70/70
f 77/77/77 70/70/70 76/76/76
f 78/78/78 72/72/72 71/71/71
f 78/78/78 71/71/71 77/77/77
f 79/79/79 72/72/72 78/78/78
f 80/80/80 68/68/68 74/74/74
f 80/80/80 73/73/73 68/68/68
f 81/81/81 74/74/74 75/75/75
f 81/81/81 80/80/80 74/74/74
f 82/82/82 81/81/81 75/75/75
f 83/83/83 76/76/76 73/73/73
f 83/83/83 73/73/73 80/80/80
f 84/84/84 77/77/77 76/76/76
f 84/84/84 76/76/76 83/83/83
f 85/85/85 78/78/78 77/77/77
f 85/85/85 77/77/77 84/84/84
f 86/86/86 79/79/79 78/78/78
f 86/86/86 78/78/78 85/85/85
f 87/87/87 79/79/79 86/86/86
f 88/88/88 81/81/81 82/82/82
f 89/89/89 88/88/88 82/82/82
f 90/90/90 80/80/80 81/81/81
f 90/90/90 83/83/83 80/80/80
f 88/88/88 90/90/90 81/81/81
f 91/91/91 84/84/84 83/83/83
f 91/91/91 83/83/83 90/90/90
f 92/92/92 85/85/85 84/84/84
f 92/92/92 84/84/84 91/91/91
f 93/93/93 86/86/86 85/85/85
f 93/93/93 85/85/85 92/92/92
f 94/94/94 87/87/87 86/86/86
f 94/94/94 86/86/86 93/93/93
f 95/95/95 87/87/87 94/94/94
f 96/96/96 88/88/88 89/89/89
f 97/97/97 96/96/96 89/89/89
f 98/98/98 90/90/90 88/88/88
f 98/98/98 91/91/91 90/90/90
f 96/96/96 98/98/98 88/88/88
f 99/99/99 92/92/92 91/91/91
f 99/99/99 91/91/91 98/98/98
f 100/100/100 93/93/93 92/92/92
f 100/100/100 92/92/92 99/99/99
f 101/101/101 94/94/94 93/93/93
f 101/101/101 93/93/93 100/100/100
f 102/102/102 95/95/95 94/94/94
f 102/102/102 94/94/94 101/101/101
f 103/103/103 95/95/95 102/102/102
f 104/104/104 96/96/96 97/97/97
f 105/105/105 104/104/104 97/97/97
f 106/106/106 98/98/98 96/96/96
f 106/106/106 99/99/99 98/98/98
f 104/104/104 106/106/106 96/96/96
f 107/107/107 100/100/100 99/99/99
f 107/107/107 99/99/99 106/106/106
f 108/108/108 101/101/101 100/100/100
f 108/108/108 100/100/100 107/107/107
f 109/109/109 102/102/102 101/101/101
f 109/109/109 101/101/101 108/108/108
f 110/110/110 103/103/103 102/102/102
f 110/110/110 102/102/102 109/109/109
f 111/111/111 103/103/103 110/110/110
f 112/112/112 104/104/104 105/105/105
f 113/113/113 112/112/112 105/105/105
f 114/114/114 106/106/106 104/104/104
f 114/114/114 107/107/107 106/106/106
f 112/112/112 114/114/114 104/104/104
f 115/115/115 108/108/108 107/107/107
f 115/115/115 107/107/107 114/114/114
f 116/116/116 109/109/109 108/108/108
f 116/116/116 108/108/108 115/115/115
f 117/117/117 110/110/110 109/109/109
f 117/117/117 109/109/109 116/116/116
f 118/118/118 111/111/111 110/110/110
f 118/118/118 110/110/110 117/117/117
f 119/119/119 111/111/111 118/118/118
f 120/120/120 112/112/112 113/113/113
f 121/121/121 120/120/120 113/113/113
f 122/122/122 114/114/114 112/112/112
f 122/122/122 115/115/115 114/114/114
f 120/120/120 122/122/122 112/112/112
f 123/123/123 116/116/116 115/115/115
f 123/123/123 115/115/115 122/122/122
f 124/124/124 117/117/117 116/116/116
f 124/124/124 116/116/116 123/123/123
f 125/125/125 118/118/118 117/117/117
f 125/125/125 117/117/117 124/124/124
f 126/126/126 119/119/119 118/118/118
f 126/126/126 118/118/118 125/125/125
f 127/127/127 119/119/119 126/126/126
f 128/128/128 120/120/120 121/121/121
f 129/129/129 128/128/128 121/121/121
f 130/130/130 122/122/122 120/120/120
f 130/130/130 123/123/123 122/122/122
f 128/128/128 130/130/130 120/120/120
f 131/131/131 124/124/124 123/123/123
f 131/131/131 123/123/123 130/130/130
f 132/132/132 125/125/125 124/124/124
f 132/132/132 124/124/124 131/131/131
f 133/133/133 126/126/126 125/125/125
f 133/133/133 125/125/125 132/132/132
f 134/134/134 127/127/127 126/126/126
f 134/134/134 126/126/126 133/133/133
f 135/135/135 127/127/127 134/134/134
f 136/136/136 135/135/135 134/134/134
f 136/136/136 134/134/134 137/137/137
f 137/137/137 134/134/134 133/133/133
f 138/138/138 136/136/136 137/137/137
f 139/139/139 130/130/130 128/128/128
f 139/139/139 131/131/131 130/130/130
f 140/140/140 132/132/132 131/131/131
f 140/140/140 131/131/131 139/139/139
f 141/141/141 133/133/133 132/132/132
f 137/137/137 133/133/133 141/141/141
f 141/141/141 132/132/132 140/140/140
f 138/138/138 137/137/137 142/142/142
f 142/142/142 137/137/137 141/141/141
f 143/143/143 138/138/138 142/142/142
f 144/144/144 139/139/139 128/128/128
f 144/144/144 128/128/128 129/129/129
f 145/145/145 144/144/144 129/129/129
f 146/146/146 140/140/140 139/139/139
f 146/146/146 139/139/139 144/144/144
f 147/147/147 141/141/141 140/140/140
f 142/142/142 141/141/141 147/147/147
f 147/147/147 140/140/140 146/146/146
f 143/143/143 142/142/142 148/148/148
f 148/148/148 142/142/142 147/147/147
f 149/149/149 143/143/143 148/148/148
f 150/150/150 144/144/144 145/145/145
f 150/150/150 146/146/146 144/144/144
f 151/151/151 150/150/150 145/145/145
f 152/152/152 147/147/147 146/146/146
f 148/148/148 147/147/147 152/152/152
f 152/152/152 146/146/146 150/150/150
f 149/149/149 148/148/148 153/153/153
f 153/153/153 148/148/148 152/152/152
f 154/154/154 149/149/149 153/153/153
f 155/155/155 150/150/150 151/151/151
f 155/155/155 152/152/152 150/150/150
f 153/153/153 152/152/152 155/155/155
f 156/156/156 155/155/155 151/151/151
f 154/154/154 153/153/153 157/157/157
f 157/157/157 153/153/153 155/155/155
f 157/157/157 155/155/155 156/156/156
f 158/158/158 154/154/154 157/157/157
f 159/159/159 157/157/157 156/156/156
f 158/158/158 157/157/157 159/159/159
f 160/160/160 158/158/158 159/159/159
