g arch
v -0.9495124 3.7728033 -0.09894575
v -0.9505424 3.7598653 -0.086026356
v -0.9505424 3.772785 -0.086026356
v -0.9495124 3.7598836 -0.09894575
v -0.85421824 3.7598653 -0.086026356
v -0.85318816 3.772785 -0.086026356
v -0.85318816 3.7598774 -0.09894575
v -0.85318816 3.7728033 -0.09894575
v -0.9495124 3.7728033 0.09894575
v -0.9505425 3.7598653 0.08602635
v -0.9505425 3.772785 0.08602635
v -0.9495124 3.7598836 0.09894575
v -0.8531881 3.772785 0.086026356
v -0.8542181 3.7598653 0.08602635
v -0.8531881 3.7598774 0.09894575
v -0.8531881 3.7728033 0.09894575
v -0.8010061 3.8720114 -0.09894575
v -0.8756961 3.9176762 -0.09894575
v -0.7134844 3.992449 -0.09894575
v -0.7801253 4.0492177 -0.09894575
v -0.60778254 4.0977054 -0.09894575
v -0.6651537 4.1641912 -0.09894575
v -0.484288 4.1851935 -0.09894575
v -0.5313119 4.25976 -0.09894575
v -0.34828457 4.2527595 -0.09894575
v -0.38278195 4.3335757 -0.09894575
v -0.38278195 4.3335576 -0.086026356
v -0.34828457 4.252741 -0.086026356
v -0.5313119 4.259742 -0.086026356
v -0.484288 4.185175 -0.086026356
v -0.7134844 3.9924307 -0.086026356
v -0.7801253 4.0491996 -0.086026356
v -0.8010061 3.871993 -0.086026356
v -0.8756961 3.917658 -0.086026356
v -0.60778254 4.0976872 -0.086026356
v -0.6651537 4.1641726 -0.086026356
v -0.2642019 4.2821684 -0.085368104
v -0.29663527 4.3636413 -0.085368104
v -0.27184027 4.2796345 -0.09894575
v -0.30452377 4.361728 -0.09894575
v -0.8010061 3.8720114 0.09894575
v -0.8756961 3.9176762 0.09894575
v -0.7134844 3.992449 0.09894575
v -0.78012526 4.0492177 0.09894575
v -0.60778254 4.0977054 0.09894575
v -0.6651537 4.1641912 0.09894575
v -0.484288 4.1851935 0.09894575
v -0.5313119 4.25976 0.09894575
v -0.34828457 4.2527595 0.09894575
v -0.38278195 4.3335757 0.09894575
v -0.38278198 4.3335576 0.08602635
v -0.34828457 4.252741 0.08602635
v -0.531312 4.259742 0.08602635
v -0.48428795 4.185175 0.08602635
v -0.7134844 3.9924307 0.08602635
v -0.78012526 4.0491996 0.08602635
v -0.80100596 3.871993 0.08602642
v -0.87569624 3.917658 0.08602635
v -0.6077825 4.0976872 0.08602635
v -0.6651537 4.1641726 0.08602635
v -0.2966353 4.3636413 0.0853681
v -0.2642019 4.2821684 0.0853681
v -0.27184027 4.2796345 0.09894575
v -0.30452377 4.361728 0.09894575
v -0.28852695 4.3432727 -0.085368104
v -0.3741576 4.3133535 -0.086026356
v -0.519556 4.2411 -0.086026356
v -0.6508109 4.1475515 -0.086026356
v -0.76346505 4.035007 -0.086026356
v -0.8570236 3.9062417 -0.086026356
v -0.92620385 3.772785 -0.086026356
v -0.92646134 3.7598653 -0.086026356
v -0.9254314 3.7598822 -0.09894575
v -0.9254314 3.7728033 -0.09894575
v -0.8570236 3.90626 -0.09894575
v -0.76346505 4.0350256 -0.09894575
v -0.6508109 4.1475697 -0.09894575
v -0.519556 4.2411184 -0.09894575
v -0.3741576 4.3133717 -0.09894575
v -0.2963529 4.341205 -0.09894575
v -0.2963529 4.341205 0.09894575
v -0.3741576 4.3133717 0.09894575
v -0.519556 4.2411184 0.09894575
v -0.6508109 4.1475697 0.09894575
v -0.76346505 4.0350256 0.09894575
v -0.8570236 3.90626 0.09894575
v -0.9254314 3.7728033 0.09894575
v -0.9254314 3.7598822 0.09894575
v -0.92646146 3.7598653 0.08602635
v -0.92620385 3.772785 0.08602635
v -0.85702366 3.9062417 0.086026356
v -0.76346505 4.035007 0.08602635
v -0.6508109 4.1475515 0.08602635
v -0.519556 4.2411 0.08602635
v -0.37415764 4.3133535 0.08602635
v -0.28852695 4.3432727 0.0853681
v -0.92646134 3.7598653 -0.086026356
v -0.85421824 3.7598653 -0.086026356
v -0.9254314 3.7598822 -0.09894575
v -0.85318816 3.7598774 -0.09894575
v -0.8542181 3.7598653 0.08602635
v -0.92646146 3.7598653 0.08602635
v -0.8531881 3.7598774 0.09894575
v -0.9254314 3.7598822 0.09894575
v -0.484288 4.185175 -0.086026356
v -0.34828457 4.252741 -0.086026356
v -0.8010061 3.871993 -0.086026356
v -0.85318816 3.7728033 -0.09894575
v -0.85318816 3.772785 -0.086026356
v -0.9495124 3.7728033 -0.09894575
v -0.9505424 3.772785 -0.086026356
v -0.60778254 4.0976872 -0.086026356
v -0.7134844 3.9924307 -0.086026356
v -0.2642019 4.2821684 -0.085368104
v -0.34828457 4.2527595 -0.09894575
v -0.27184027 4.2796345 -0.09894575
v -0.484288 4.1851935 -0.09894575
v -0.60778254 4.0977054 -0.09894575
v -0.7134844 3.992449 -0.09894575
v -0.8010061 3.8720114 -0.09894575
v -0.48428795 4.185175 0.08602635
v -0.34828457 4.252741 0.08602635
v -0.8531881 3.7728033 0.09894575
v -0.80100596 3.871993 0.08602642
v -0.8531881 3.772785 0.086026356
v -0.9495124 3.7728033 0.09894575
v -0.9505425 3.772785 0.08602635
v -0.6077825 4.0976872 0.08602635
v -0.7134844 3.9924307 0.08602635
v -0.2642019 4.2821684 0.0853681
v -0.34828457 4.2527595 0.09894575
v -0.27184027 4.2796345 0.09894575
v -0.484288 4.1851935 0.09894575
v -0.60778254 4.0977054 0.09894575
v -0.7134844 3.992449 0.09894575
v -0.8010061 3.8720114 0.09894575
v -0.28852695 4.3432727 -0.085368104
v -0.3741576 4.3133535 -0.086026356
v -0.38278195 4.3335576 -0.086026356
v -0.29663527 4.3636413 -0.085368104
v -0.519556 4.2411 -0.086026356
v -0.5313119 4.259742 -0.086026356
v -0.6508109 4.1475515 -0.086026356
v -0.6651537 4.1641726 -0.086026356
v -0.7801253 4.0491996 -0.086026356
v -0.76346505 4.035007 -0.086026356
v -0.8570236 3.9062417 -0.086026356
v -0.8756961 3.917658 -0.086026356
v -0.9505424 3.772785 -0.086026356
v -0.92620385 3.772785 -0.086026356
v -0.92646134 3.7598653 -0.086026356
v -0.9505424 3.7598653 -0.086026356
v -0.9505424 3.7598653 -0.086026356
v -0.9495124 3.7598836 -0.09894575
v -0.9495124 3.7728033 -0.09894575
v -0.9495124 3.7598836 -0.09894575
v -0.9254314 3.7598822 -0.09894575
v -0.9254314 3.7728033 -0.09894575
v -0.8570236 3.90626 -0.09894575
v -0.8756961 3.9176762 -0.09894575
v -0.76346505 4.0350256 -0.09894575
v -0.7801253 4.0492177 -0.09894575
v -0.6508109 4.1475697 -0.09894575
v -0.6651537 4.1641912 -0.09894575
v -0.519556 4.2411184 -0.09894575
v -0.5313119 4.25976 -0.09894575
v -0.3741576 4.3133717 -0.09894575
v -0.38278195 4.3335757 -0.09894575
v -0.30452377 4.361728 -0.09894575
v -0.2963529 4.341205 -0.09894575
v -0.3741576 4.3133717 0.09894575
v -0.38278195 4.3335757 0.09894575
v -0.30452377 4.361728 0.09894575
v -0.2963529 4.341205 0.09894575
v -0.519556 4.2411184 0.09894575
v -0.5313119 4.25976 0.09894575
v -0.6508109 4.1475697 0.09894575
v -0.6651537 4.1641912 0.09894575
v -0.76346505 4.0350256 0.09894575
v -0.78012526 4.0492177 0.09894575
v -0.8570236 3.90626 0.09894575
v -0.8756961 3.9176762 0.09894575
v -0.9495124 3.7728033 0.09894575
v -0.9254314 3.7728033 0.09894575
v -0.9254314 3.7598822 0.09894575
v -0.9495124 3.7598836 0.09894575
v -0.9505425 3.7598653 0.08602635
v -0.9495124 3.7598836 0.09894575
v -0.9505425 3.772785 0.08602635
v -0.9505425 3.7598653 0.08602635
v -0.92646146 3.7598653 0.08602635
v -0.92620385 3.772785 0.08602635
v -0.85702366 3.9062417 0.086026356
v -0.87569624 3.917658 0.08602635
v -0.78012526 4.0491996 0.08602635
v -0.76346505 4.035007 0.08602635
v -0.6508109 4.1475515 0.08602635
v -0.6651537 4.1641726 0.08602635
v -0.531312 4.259742 0.08602635
v -0.519556 4.2411 0.08602635
v -0.38278198 4.3335576 0.08602635
v -0.37415764 4.3133535 0.08602635
v -0.28852695 4.3432727 0.0853681
v -0.2966353 4.3636413 0.0853681
vt 0.5889057 0.027063306
vt 0.5889118 0.027057283
vt 0.5889118 0.027063292
vt 0.5889057 0.027057301
vt 0.52957624 0.02660685
vt 0.5295773 0.02660685
vt 0.5295773 0.026621208
vt 0.5295773 0.026621208
vt 0.5889019 0.027063306
vt 0.5888959 0.027057283
vt 0.5888959 0.027063292
vt 0.5889019 0.027057301
vt 0.5295773 0.026415631
vt 0.52957624 0.026415631
vt 0.5295773 0.026401274
vt 0.5295773 0.026401274
vt 0.52963537 0.026621208
vt 0.5889057 0.027130678
vt 0.52973264 0.026621208
vt 0.5889057 0.027191874
vt 0.52985007 0.026621208
vt 0.5889057 0.027245369
vt 0.5299874 0.026621208
vt 0.5888921 0.027166437
vt 0.53013855 0.026621208
vt 0.5888921 0.02709736
vt 0.588886 0.02709736
vt 0.53013855 0.02660685
vt 0.588886 0.027166437
vt 0.5299874 0.02660685
vt 0.52973264 0.02660685
vt 0.5889118 0.027191874
vt 0.52963537 0.02660685
vt 0.5889118 0.027130663
vt 0.52985007 0.02660685
vt 0.5889118 0.027245354
vt 0.5302296 0.02660685
vt 0.5888858 0.027057283
vt 0.5302233 0.026621208
vt 0.5888921 0.027060948
vt 0.52963537 0.026401274
vt 0.5889019 0.027130678
vt 0.52973264 0.026401274
vt 0.5889019 0.027191874
vt 0.52985007 0.026401274
vt 0.5889019 0.027245369
vt 0.5299874 0.026401274
vt 0.58887565 0.027166437
vt 0.53013855 0.026401274
vt 0.58887565 0.02709736
vt 0.5888816 0.02709736
vt 0.53013855 0.026415631
vt 0.5888816 0.027166437
vt 0.5299874 0.026415631
vt 0.52973264 0.026415631
vt 0.5888959 0.027191874
vt 0.52963537 0.026415631
vt 0.5888959 0.027130663
vt 0.52985007 0.026415631
vt 0.5888959 0.027245354
vt 0.58888197 0.027057283
vt 0.5302296 0.026415631
vt 0.5302233 0.026401274
vt 0.58887565 0.027060948
vt 0.53020245 0.02660685
vt 0.53010976 0.02660685
vt 0.5299481 0.02660685
vt 0.5298023 0.02660685
vt 0.52967715 0.02660685
vt 0.52957314 0.02660685
vt 0.5294962 0.02660685
vt 0.52949595 0.02660685
vt 0.529497 0.026621208
vt 0.529497 0.026621208
vt 0.52957314 0.026621208
vt 0.52967715 0.026621208
vt 0.5298023 0.026621208
vt 0.5299481 0.026621208
vt 0.53010976 0.026621208
vt 0.53019625 0.026621208
vt 0.53019625 0.026401274
vt 0.53010976 0.026401274
vt 0.5299481 0.026401274
vt 0.5298023 0.026401274
vt 0.52967715 0.026401274
vt 0.52957314 0.026401274
vt 0.529497 0.026401274
vt 0.529497 0.026401274
vt 0.52949595 0.026415631
vt 0.5294962 0.026415631
vt 0.52957314 0.026415631
vt 0.52967715 0.026415631
vt 0.5298023 0.026415631
vt 0.5299481 0.026415631
vt 0.53010976 0.026415631
vt 0.53020245 0.026415631
vt 0.52949595 0.02660685
vt 0.52957624 0.02660685
vt 0.529497 0.026621208
vt 0.5295773 0.026621208
vt 0.52957624 0.026415631
vt 0.52949595 0.026415631
vt 0.5295773 0.026401274
vt 0.529497 0.026401274
vt 0.5299874 0.02660685
vt 0.53013855 0.02660685
vt 0.52963537 0.02660685
vt 0.5295773 0.026621208
vt 0.5295773 0.02660685
vt 0.5889057 0.027063306
vt 0.5889118 0.027063292
vt 0.52985007 0.02660685
vt 0.52973264 0.02660685
vt 0.5302296 0.02660685
vt 0.53013855 0.026621208
vt 0.5302233 0.026621208
vt 0.5299874 0.026621208
vt 0.52985007 0.026621208
vt 0.52973264 0.026621208
vt 0.52963537 0.026621208
vt 0.5299874 0.026415631
vt 0.53013855 0.026415631
vt 0.5295773 0.026401274
vt 0.52963537 0.026415631
vt 0.5295773 0.026415631
vt 0.5889019 0.027063306
vt 0.5888959 0.027063292
vt 0.52985007 0.026415631
vt 0.52973264 0.026415631
vt 0.5302296 0.026415631
vt 0.53013855 0.026401274
vt 0.5302233 0.026401274
vt 0.5299874 0.026401274
vt 0.52985007 0.026401274
vt 0.52973264 0.026401274
vt 0.52963537 0.026401274
vt 0.5891297 0.026746858
vt 0.58911586 0.026786692
vt 0.5891253 0.026790697
vt 0.5891392 0.026750628
vt 0.58908224 0.026854321
vt 0.58909094 0.02685979
vt 0.5890387 0.026915379
vt 0.58904636 0.026922058
vt 0.58899295 0.026975527
vt 0.5889863 0.026967775
vt 0.58892643 0.027011298
vt 0.5889318 0.027019978
vt 0.5888643 0.027054802
vt 0.5888643 0.02704348
vt 0.58885837 0.027043596
vt 0.58885837 0.027054802
vt 0.5294692 0.02660685
vt 0.52947026 0.026621208
vt 0.58947325 0.027361117
vt 0.5894793 0.027361117
vt 0.5894793 0.027349912
vt 0.58947325 0.027349912
vt 0.58941114 0.027318079
vt 0.5894059 0.027326766
vt 0.5893513 0.027274571
vt 0.58934474 0.027282309
vt 0.58929896 0.027222142
vt 0.5892912 0.027228836
vt 0.58925545 0.027161114
vt 0.58924675 0.02716656
vt 0.58922184 0.02709347
vt 0.5892124 0.027097493
vt 0.5891993 0.027061082
vt 0.58920884 0.02705729
vt 0.58917296 0.02709347
vt 0.5891824 0.027097479
vt 0.5891955 0.027061082
vt 0.58918595 0.027057283
vt 0.58913934 0.027161099
vt 0.58914804 0.02716656
vt 0.58909583 0.027222142
vt 0.5891036 0.027228836
vt 0.5890436 0.027274556
vt 0.5890502 0.02728232
vt 0.58898365 0.027318068
vt 0.5889889 0.027326781
vt 0.58892155 0.027361117
vt 0.58892155 0.027349912
vt 0.5889156 0.027349912
vt 0.5889156 0.027361117
vt 0.5294692 0.026415631
vt 0.52947026 0.026401274
vt 0.5894189 0.027054798
vt 0.58942485 0.027054798
vt 0.58942485 0.027043588
vt 0.5894189 0.027043473
vt 0.5893568 0.027011298
vt 0.5893514 0.027019985
vt 0.58929026 0.026975527
vt 0.58929694 0.026967775
vt 0.5892445 0.026915368
vt 0.58923686 0.02692205
vt 0.5891923 0.026859794
vt 0.589201 0.026854314
vt 0.58915794 0.026790697
vt 0.58916736 0.026786692
vt 0.5891535 0.026746858
vt 0.589144 0.026750628
vn -0.9968373 0 -0.07946954
vn -0.9968373 0 -0.07946954
vn -0.9968373 0 -0.07946954
vn -0.9968373 0 -0.07946954
vn -0 0 1
vn -0 0 1
vn -0 -1 0
vn -0 0 -1
vn -0.9968373 0 0.07946954
vn -0.9968373 0 0.07946954
vn -0.9968373 0 0.07946954
vn -0.9968373 0 0.07946954
vn -0 0 -1
vn -0 0 -1
vn -0 -1 7.3871897E-06
vn -0 0 1
vn 0.85259134 -0.52257824 0
vn -0.8526417 0.522496 0
vn 0.76032805 -0.6495393 0
vn -0.7604044 0.64944994 0
vn 0.6431009 -0.7657814 0
vn -0.64765245 0.7619359 0
vn 0.5129239 -0.85843414 0
vn -0.5130508 0.85835826 0
vn 0.36989766 -0.9290599 0.0048400336
vn -0.374508 0.9272158 -0.0038203814
vn -0.374508 0.9272158 -0.0038203814
vn -0 0 1
vn -0.5130508 0.85835826 0
vn -0 0 1
vn -0 0 1
vn -0.7604044 0.64944994 0
vn -0 0 1
vn -0.8526417 0.522496 0
vn -0 0 1
vn -0.64765245 0.7619359 0
vn -0 0 1
vn -0.33967263 0.94051385 -0.007496631
vn 0.31649986 -0.94782734 0.03809435
vn -0.3396726 0.94051385 -0.00749663
vn 0.85259134 -0.52257824 0
vn -0.8526417 0.522496 0
vn 0.76032805 -0.6495393 0
vn -0.7604044 0.64944994 0
vn 0.6431009 -0.7657814 0
vn -0.64765245 0.7619359 0
vn 0.5129239 -0.85843414 0
vn -0.5130508 0.85835826 0
vn 0.36989772 -0.9290599 -0.004834474
vn -0.37450805 0.9272158 0.0038203811
vn -0.37450805 0.9272158 0.0038203811
vn -0 0 -1
vn -0.5130508 0.85835826 0
vn -0 0 -1
vn -0 0 -1
vn -0.7604044 0.64944994 0
vn -0 0 -1
vn -0.8526417 0.522496 0
vn -0 0 -1
vn -0.64765245 0.7619359 0
vn -0.3396727 0.94051385 0.00749663
vn -0 0 -1
vn 0.31649998 -0.9478274 -0.038090512
vn -0.33967274 0.94051385 0.007496631
vn -0.006759859 -0.0027878569 0.99997324
vn -0 0 1
vn -0 0 1
vn -0 0 1
vn -0 0 1
vn -0 0 1
vn -0 0 1
vn -0 0 1
vn -3.168214E-05 -0.9999993 -0.001183097
vn -0 0 -1
vn -0 0 -1
vn -0 0 -1
vn -0 0 -1
vn -0 0 -1
vn -0 0 -1
vn -0 0 -1
vn -0 0 1
vn -0 0 1
vn -0 0 1
vn -0 0 1
vn -0 0 1
vn -0 0 1
vn -0 0 1
vn -3.1682026E-05 -0.9999993 0.0011835376
vn -0 0 -1
vn -0 0 -1
vn -0 0 -1
vn -0 0 -1
vn -0 0 -1
vn -0 0 -1
vn -0 0 -1
vn -0.006759908 -0.002787856 -0.99997324
vn -3.1682142E-05 -0.9999993 -0.0011928059
vn -0 -1 0
vn -0 0 -1
vn -0 0 -1
vn -0 -1 7.387189E-06
vn -3.168201E-05 -0.9999993 0.0011933207
vn -0 0 1
vn -0 0 1
vn 0.5129239 -0.85843414 0
vn 0.36989766 -0.9290599 0.0048400336
vn 0.85259134 -0.52257824 0
vn 0.90811086 -0.4187298 0
vn 0.90811086 -0.4187298 0
vn -0.9051377 0.42358395 -0.036088176
vn -0.9051378 0.42358387 -0.036088176
vn 0.6431009 -0.7657814 0
vn 0.76032805 -0.6495393 0
vn 0.32077613 -0.94665766 0.030691395
vn -0 0 -1
vn -0 0 -1
vn -0 0 -1
vn -0 0 -1
vn -0 0 -1
vn -0 0 -1
vn 0.5129239 -0.85843414 0
vn 0.36989772 -0.9290599 -0.004834474
vn 0.90811086 -0.4187298 0
vn 0.85259134 -0.52257824 0
vn 0.90811086 -0.4187298 0
vn -0.9051379 0.42358398 0.036083825
vn -0.9051379 0.42358404 0.036083825
vn 0.6431009 -0.7657814 0
vn 0.76032805 -0.6495393 0
vn 0.3207763 -0.9466578 -0.030685825
vn -0 0 1
vn -0 0 1
vn -0 0 1
vn -0 0 1
vn -0 0 1
vn -0 0 1
vn -0.006759859 -0.0027878569 0.99997324
vn -0.006757718 -0.002786973 0.9999733
vn -0 0 1
vn -0 0 1
vn -0 0 1
vn -0 0 1
vn -0 0 1
vn -0 0 1
vn -0 0 1
vn -0 0 1
vn -0 0 1
vn -0 0 1
vn -0 0 1
vn -0 0 1
vn -0 0 1
vn -0 0 1
vn -0 -1 0
vn -0 -1 0
vn -0 0 -1
vn -0 0 -1
vn -0 0 -1
vn -0 0 -1
vn -0 0 -1
vn -0 0 -1
vn -0 0 -1
vn -0 0 -1
vn -0 0 -1
vn -0 0 -1
vn -0 0 -1
vn -0 0 -1
vn -0 0 -1
vn -0 0 -1
vn -0 0 -1
vn -0 0 -1
vn -0 0 1
vn -0 0 1
vn -0 0 1
vn -0 0 1
vn -0 0 1
vn -0 0 1
vn -0 0 1
vn -0 0 1
vn -0 0 1
vn -0 0 1
vn -0 0 1
vn -0 0 1
vn -0 0 1
vn -0 0 1
vn -0 0 1
vn -0 0 1
vn -0 -1 7.387189E-06
vn -0 -1 7.3871897E-06
vn -0 0 -1
vn -0 0 -1
vn -0 0 -1
vn -0 0 -1
vn -0 0 -1
vn -0 0 -1
vn -0 0 -1
vn -0 0 -1
vn -0 0 -1
vn -0 0 -1
vn -0 0 -1
vn -0 0 -1
vn -0 0 -1
vn -0 0 -1
vn -0.006759908 -0.002787856 -0.99997324
vn -0 0 -1
g arch_0
f 71/71/71 72/72/72 5/5/5
f 6/6/6 71/71/71 5/5/5
f 70/70/70 71/71/71 6/6/6
f 33/33/33 70/70/70 6/6/6
f 69/69/69 70/70/70 33/33/33
f 31/31/31 69/69/69 33/33/33
f 68/68/68 69/69/69 31/31/31
f 35/35/35 68/68/68 31/31/31
f 67/67/67 68/68/68 35/35/35
f 30/30/30 67/67/67 35/35/35
f 66/66/66 67/67/67 30/30/30
f 28/28/28 66/66/66 30/30/30
f 65/65/65 66/66/66 28/28/28
f 37/37/37 65/65/65 28/28/28
f 97/97/97 73/73/73 7/7/7
f 98/98/98 97/97/97 7/7/7
f 73/73/73 97/97/97 153/153/153
f 154/154/154 73/73/73 153/153/153
f 3/3/3 1/1/1 4/4/4
f 2/2/2 3/3/3 4/4/4
f 99/99/99 74/74/74 8/8/8
f 100/100/100 99/99/99 8/8/8
f 8/8/8 74/74/74 120/120/120
f 74/74/74 75/75/75 120/120/120
f 120/120/120 75/75/75 119/119/119
f 75/75/75 76/76/76 119/119/119
f 119/119/119 76/76/76 118/118/118
f 76/76/76 77/77/77 118/118/118
f 118/118/118 77/77/77 117/117/117
f 77/77/77 78/78/78 117/117/117
f 117/117/117 78/78/78 115/115/115
f 78/78/78 79/79/79 115/115/115
f 115/115/115 79/79/79 80/80/80
f 116/116/116 115/115/115 80/80/80
f 89/89/89 90/90/90 13/13/13
f 14/14/14 89/89/89 13/13/13
f 13/13/13 90/90/90 57/57/57
f 90/90/90 91/91/91 57/57/57
f 57/57/57 91/91/91 55/55/55
f 91/91/91 92/92/92 55/55/55
f 55/55/55 92/92/92 59/59/59
f 92/92/92 93/93/93 59/59/59
f 59/59/59 93/93/93 54/54/54
f 93/93/93 94/94/94 54/54/54
f 54/54/54 94/94/94 52/52/52
f 94/94/94 95/95/95 52/52/52
f 52/52/52 95/95/95 96/96/96
f 62/62/62 52/52/52 96/96/96
f 88/88/88 102/102/102 101/101/101
f 15/15/15 88/88/88 101/101/101
f 102/102/102 88/88/88 187/187/187
f 88/88/88 188/188/188 187/187/187
f 11/11/11 10/10/10 12/12/12
f 9/9/9 11/11/11 12/12/12
f 87/87/87 104/104/104 103/103/103
f 16/16/16 87/87/87 103/103/103
f 86/86/86 87/87/87 16/16/16
f 136/136/136 86/86/86 16/16/16
f 85/85/85 86/86/86 136/136/136
f 135/135/135 85/85/85 136/136/136
f 84/84/84 85/85/85 135/135/135
f 134/134/134 84/84/84 135/135/135
f 83/83/83 84/84/84 134/134/134
f 133/133/133 83/83/83 134/134/134
f 82/82/82 83/83/83 133/133/133
f 131/131/131 82/82/82 133/133/133
f 81/81/81 82/82/82 131/131/131
f 132/132/132 81/81/81 131/131/131
f 26/26/26 24/24/24 29/29/29
f 27/27/27 26/26/26 29/29/29
f 29/29/29 24/24/24 36/36/36
f 24/24/24 22/22/22 36/36/36
f 36/36/36 22/22/22 20/20/20
f 32/32/32 36/36/36 20/20/20
f 32/32/32 20/20/20 34/34/34
f 20/20/20 18/18/18 34/34/34
f 34/34/34 18/18/18 110/110/110
f 111/111/111 34/34/34 110/110/110
f 27/27/27 38/38/38 26/26/26
f 38/38/38 40/40/40 26/26/26
f 105/105/105 23/23/23 25/25/25
f 106/106/106 105/105/105 25/25/25
f 105/105/105 112/112/112 23/23/23
f 112/112/112 21/21/21 23/23/23
f 19/19/19 21/21/21 112/112/112
f 113/113/113 19/19/19 112/112/112
f 113/113/113 107/107/107 19/19/19
f 107/107/107 17/17/17 19/19/19
f 108/108/108 17/17/17 107/107/107
f 109/109/109 108/108/108 107/107/107
f 106/106/106 25/25/25 39/39/39
f 114/114/114 106/106/106 39/39/39
f 53/53/53 48/48/48 50/50/50
f 51/51/51 53/53/53 50/50/50
f 53/53/53 60/60/60 48/48/48
f 60/60/60 46/46/46 48/48/48
f 44/44/44 46/46/46 60/60/60
f 56/56/56 44/44/44 60/60/60
f 56/56/56 58/58/58 44/44/44
f 58/58/58 42/42/42 44/44/44
f 126/126/126 42/42/42 58/58/58
f 127/127/127 126/126/126 58/58/58
f 61/61/61 51/51/51 50/50/50
f 64/64/64 61/61/61 50/50/50
f 49/49/49 47/47/47 121/121/121
f 122/122/122 49/49/49 121/121/121
f 121/121/121 47/47/47 128/128/128
f 47/47/47 45/45/45 128/128/128
f 128/128/128 45/45/45 43/43/43
f 129/129/129 128/128/128 43/43/43
f 129/129/129 43/43/43 124/124/124
f 43/43/43 41/41/41 124/124/124
f 124/124/124 41/41/41 123/123/123
f 125/125/125 124/124/124 123/123/123
f 49/49/49 122/122/122 63/63/63
f 122/122/122 130/130/130 63/63/63
f 139/139/139 138/138/138 137/137/137
f 140/140/140 139/139/139 137/137/137
f 138/138/138 139/139/139 141/141/141
f 139/139/139 142/142/142 141/141/141
f 141/141/141 142/142/142 143/143/143
f 142/142/142 144/144/144 143/143/143
f 143/143/143 144/144/144 145/145/145
f 146/146/146 143/143/143 145/145/145
f 146/146/146 145/145/145 147/147/147
f 145/145/145 148/148/148 147/147/147
f 147/147/147 148/148/148 149/149/149
f 150/150/150 147/147/147 149/149/149
f 151/151/151 150/150/150 149/149/149
f 152/152/152 151/151/151 149/149/149
f 157/157/157 156/156/156 155/155/155
f 158/158/158 157/157/157 155/155/155
f 158/158/158 155/155/155 159/159/159
f 155/155/155 160/160/160 159/159/159
f 159/159/159 160/160/160 161/161/161
f 160/160/160 162/162/162 161/161/161
f 161/161/161 162/162/162 163/163/163
f 162/162/162 164/164/164 163/163/163
f 163/163/163 164/164/164 165/165/165
f 164/164/164 166/166/166 165/165/165
f 165/165/165 166/166/166 167/167/167
f 166/166/166 168/168/168 167/167/167
f 167/167/167 168/168/168 169/169/169
f 170/170/170 167/167/167 169/169/169
f 173/173/173 172/172/172 171/171/171
f 174/174/174 173/173/173 171/171/171
f 171/171/171 172/172/172 175/175/175
f 172/172/172 176/176/176 175/175/175
f 175/175/175 176/176/176 177/177/177
f 176/176/176 178/178/178 177/177/177
f 177/177/177 178/178/178 179/179/179
f 178/178/178 180/180/180 179/179/179
f 179/179/179 180/180/180 181/181/181
f 180/180/180 182/182/182 181/181/181
f 181/181/181 182/182/182 183/183/183
f 184/184/184 181/181/181 183/183/183
f 184/184/184 183/183/183 185/185/185
f 183/183/183 186/186/186 185/185/185
f 191/191/191 190/190/190 189/189/189
f 192/192/192 191/191/191 189/189/189
f 192/192/192 189/189/189 193/193/193
f 189/189/189 194/194/194 193/193/193
f 193/193/193 194/194/194 195/195/195
f 196/196/196 193/193/193 195/195/195
f 196/196/196 195/195/195 197/197/197
f 195/195/195 198/198/198 197/197/197
f 197/197/197 198/198/198 199/199/199
f 200/200/200 197/197/197 199/199/199
f 200/200/200 199/199/199 201/201/201
f 202/202/202 200/200/200 201/201/201
f 202/202/202 201/201/201 203/203/203
f 201/201/201 204/204/204 203/203/203
