g Box_Geo05_mBox_stoneBlue
v -0.013740506 0.05806466 -0.008282708
v -0.027353385 0.05806466 -0.008282709
v -0.013739075 0.059748165 -0.006977593
v -0.027709246 0.059748165 -0.0069413125
v -0.029422598 0.05806466 -0.0069476436
v -0.029954305 0.054403443 -0.0069476436
v -0.027701842 0.054403547 -0.008283282
v -0.013740197 0.05440351 -0.008283284
v -0.013740505 0.05806466 0.008282993
v -0.027353385 0.05806466 0.008282993
v -0.013739075 0.059748165 0.0069795963
v -0.027709246 0.059748165 0.0069420594
v -0.029422602 0.05806466 0.00695072
v -0.02995431 0.054403443 0.0069507216
v -0.027701842 0.054403547 0.008282993
v -0.013740199 0.05440351 0.008282993
v -0.027700845 0.02193783 -0.008291712
v -0.027700841 0.02193783 0.00829171
v -0.02995431 0.02193652 0.0069507216
v -0.029954305 0.02193652 -0.0069476436
v -0.013740506 0.05806466 -0.008282708
v -0.013739075 0.059748165 -0.006977593
v -0.027353385 0.05806466 -0.008282709
v -0.013739075 0.059748165 0.0069795963
v -0.013740197 0.05440351 -0.008283284
v -0.027701842 0.054403547 -0.008283282
v -0.027353385 0.05806466 -0.008282709
v -0.013740505 0.05806466 0.008282993
v -0.027353385 0.05806466 0.008282993
v -0.013740199 0.05440351 0.008282993
v -0.027353385 0.05806466 0.008282993
v -0.027701842 0.054403547 0.008282993
v -0.013740199 0.05440351 0.008282993
v -0.013740197 0.05440351 -0.008283284
v -0.027701842 0.054403547 -0.008283282
v -0.027701842 0.054403547 0.008282993
v -0.027701842 0.054403547 -0.008283282
v -0.027700845 0.02193783 -0.008291712
v -0.027700841 0.02193783 0.00829171
v -0.027701842 0.054403547 0.008282993
v -0.027700841 0.02193783 0.00829171
v -0.02995431 0.02193652 0.0069507216
v -0.029954305 0.02193652 -0.0069476436
v -0.027700845 0.02193783 -0.008291712
vt 0.46964854 0.517748
vt 0.46962062 0.6378743
vt 0.45084146 0.5177115
vt 0.45063943 0.64099383
vt 0.4508023 0.6622018
vt 0.45013523 0.6946181
vt 0.5019157 0.6409866
vt 0.46236792 0.47055545
vt 0.31605676 0.50281394
vt 0.30874488 0.6377952
vt 0.32755715 0.51767075
vt 0.3277223 0.6409176
vt 0.32753068 0.6620977
vt 0.32827944 0.6947058
vt 0.2764487 0.6408972
vt 0.31606922 0.47051105
vt 0.31120464 0.95664585
vt 0.4662574 0.9566459
vt 0.45371932 0.97771555
vt 0.3237716 0.97771555
vt 0.46236283 0.50285983
vt 0.45084146 0.5177115
vt 0.46811822 0.649159
vt 0.32755715 0.51767075
vt 0.50195956 0.5177845
vt 0.47317737 0.6937731
vt 0.47271714 0.660788
vt 0.30875936 0.5176976
vt 0.3102406 0.6490598
vt 0.27644813 0.51772094
vt 0.30561006 0.66085136
vt 0.30528867 0.69397527
vt 0.46617603 0.52255654
vt 0.31128368 0.52255654
vt 0.31128368 0.653096
vt 0.46617588 0.653096
vt 0.31128368 0.653096
vt 0.31120464 0.95664585
vt 0.4662574 0.9566459
vt 0.46617588 0.653096
vt 0.30549872 0.9813768
vt 0.32868677 0.9814632
vt 0.45173767 0.98058224
vt 0.47489566 0.9803369
vn -0.0004024134 0.24049327 -0.97065073
vn -0.06011405 0.23731059 -0.96957207
vn -0.00014301948 0.99407166 -0.1087267
vn -0.10191546 0.9904806 -0.09252833
vn -0.9212727 0.37310264 -0.10977717
vn -0.98937875 0.01428076 -0.1446573
vn -0.35308146 0.0046095694 -0.9355812
vn 1 8.373069E-05 0
vn 0.99999964 -0.0008500116 0
vn -0.059994824 0.23703687 0.9696464
vn 0.99999964 -0.00085001154 0
vn -0.10196571 0.9904766 0.0925153
vn -0.92128974 0.37304676 0.109823845
vn -0.9893745 0.014280952 0.14468624
vn -0.35234225 0.004544601 0.9358602
vn 1 8.37307E-05 0
vn 0.0005819049 -0.9999998 0
vn 0.0005819049 -0.9999998 0
vn 0.0005819049 -0.9999998 0
vn 0.0005819049 -0.9999998 0
vn 0.99999964 -0.0008500116 0
vn 0.99999964 -0.0008500116 0
vn -0.06011405 0.23731059 -0.96957207
vn -0.00014798343 0.9940699 0.10874306
vn -0 0.00015670175 -1
vn -0.35308146 0.0046095694 -0.9355812
vn -0.06011405 0.23731059 -0.96957207
vn -0.0004162938 0.240207 0.9707216
vn -0.059994824 0.23703687 0.9696464
vn -0 0 1
vn -0.059994824 0.23703687 0.9696464
vn -0.35234225 0.004544601 0.9358602
vn -2.7322683E-06 -1 0
vn -2.7322683E-06 -1 0
vn -2.7322683E-06 -1 0
vn -2.7322683E-06 -1 0
vn 1 3.074364E-05 0
vn 1 3.0743642E-05 0
vn 1 3.0743635E-05 0
vn 1 3.074364E-05 0
vn -0.5102374 0.000107644126 0.86003363
vn -0.9892482 1.8304538E-05 0.14624593
vn -0.98925275 1.7645812E-05 -0.14621569
vn -0.5111467 0.000103726634 -0.8594935
g Box_Geo05_mBox_stoneBlue_0
f 4/4/4 3/3/3 1/1/1
f 2/2/2 4/4/4 1/1/1
f 4/4/4 12/12/12 3/3/3
f 13/13/13 12/12/12 4/4/4
f 5/5/5 13/13/13 4/4/4
f 23/23/23 5/5/5 4/4/4
f 12/12/12 24/24/24 3/3/3
f 2/2/2 1/1/1 25/25/25
f 7/7/7 2/2/2 25/25/25
f 14/14/14 13/13/13 5/5/5
f 6/6/6 14/14/14 5/5/5
f 6/6/6 5/5/5 26/26/26
f 5/5/5 27/27/27 26/26/26
f 24/24/24 12/12/12 28/28/28
f 12/12/12 10/10/10 28/28/28
f 13/13/13 29/29/29 12/12/12
f 28/28/28 10/10/10 15/15/15
f 30/30/30 28/28/28 15/15/15
f 31/31/31 13/13/13 14/14/14
f 32/32/32 31/31/31 14/14/14
f 14/14/14 42/42/42 32/32/32
f 42/42/42 41/41/41 32/32/32
f 43/43/43 42/42/42 14/14/14
f 6/6/6 43/43/43 14/14/14
f 44/44/44 43/43/43 6/6/6
f 26/26/26 44/44/44 6/6/6
f 11/11/11 9/9/9 21/21/21
f 22/22/22 11/11/11 21/21/21
f 21/21/21 9/9/9 16/16/16
f 8/8/8 21/21/21 16/16/16
f 19/19/19 20/20/20 17/17/17
f 18/18/18 19/19/19 17/17/17
f 35/35/35 34/34/34 33/33/33
f 36/36/36 35/35/35 33/33/33
f 39/39/39 38/38/38 37/37/37
f 40/40/40 39/39/39 37/37/37
