g Box_Geo05_mBox_lid_geo
v -0.029999997 0.054899998 0.029999997
v 0.029999997 0.054899998 0.029999997
v -0.029999997 0.059999418 0.029999997
v 0.029999997 0.059999418 0.029999997
v -0.029999997 0.059999418 -0.029999997
v 0.029999997 0.059999418 -0.029999997
v -0.029999997 0.054899998 -0.029999997
v 0.029999997 0.054899998 -0.029999997
v 0.029999994 0.059999418 -0.008282993
v -0.03 0.059999418 -0.008282993
v -0.03 0.054899998 -0.008282993
v 0.029999994 0.054899998 -0.008282993
v 0.029857658 0.059807546 0.008490126
v -0.029999994 0.059999418 0.008283281
v -0.029999994 0.054899998 0.008283281
v 0.029999997 0.054899998 0.008283281
v -0.013739786 0.059999418 0.008283281
v -0.013739786 0.054899998 0.008283281
v -0.013739786 0.054899998 -0.008282993
v -0.013739786 0.059999418 -0.008282993
v 0.0137390755 0.059999418 0.008283281
v 0.0137390755 0.054899998 0.008283281
v 0.0137390755 0.054899998 -0.008282993
v 0.0137390755 0.059999418 -0.008282993
v 0.029999994 0.059999418 -0.008282993
v 0.029999997 0.059999418 -0.029999997
v -0.029999997 0.059999418 0.029999997
v -0.029999994 0.059999418 0.008283281
v -0.03 0.059999418 -0.008282993
v -0.029999997 0.059999418 -0.029999997
v -0.029999997 0.054899998 0.029999997
v -0.029999997 0.059999418 0.029999997
v 0.029999997 0.059999418 0.029999997
v -0.029999997 0.059999418 -0.029999997
v -0.029999997 0.054899998 -0.029999997
v 0.029999997 0.054899998 -0.029999997
v 0.029999997 0.059999418 -0.029999997
v 0.029999994 0.059999418 -0.008282993
v 0.029999994 0.054899998 -0.008282993
v 0.0137390755 0.059999418 -0.008282993
v 0.0137390755 0.059999418 -0.008282993
v 0.0137390755 0.054899998 -0.008282993
v 0.0137390755 0.059999418 0.008283281
v -0.013739786 0.059999418 0.008283281
v -0.029999994 0.059999418 0.008283281
v -0.029999994 0.054899998 0.008283281
v -0.013739786 0.059999418 -0.008282993
v -0.03 0.054899998 -0.008282993
v -0.03 0.059999418 -0.008282993
v -0.013739786 0.059999418 0.008283281
v -0.013739786 0.054899998 0.008283281
v -0.013739786 0.054899998 -0.008282993
v -0.013739786 0.059999418 -0.008282993
v 0.029999997 0.054899998 0.029999997
v 0.029999997 0.059999418 0.029999997
v 0.0137390755 0.054899998 0.008283281
v 0.029999997 0.054899998 0.008283281
v 0.029857658 0.059807546 0.008490126
v 0.0137390755 0.059999418 0.008283281
v 0.029857658 0.059807546 0.008490126
vt 0.00970006 0.3829976
vt 0.9729191 0.94247085
vt 0.048693657 0.38299757
vt 0.9847135 0.9001631
vt 0.048693776 0.54402786
vt 0.5259112 0.900163
vt 0.009699702 0.5440274
vt 0.00970006 0.38299638
vt 0.69197416 0.9001629
vt 0.048693657 0.38299632
vt 0.0096998215 0.38299638
vt 0.009699702 0.544028
vt 0.048693657 0.38299745
vt 0.048693538 0.5440269
vt 0.009699702 0.54402685
vt 0.00970006 0.38299745
vt 0.818652 0.56569785
vt 0.009715557 0.38123533
vt 0.009715555 0.26066613
vt 0.6919744 0.56569797
vt 0.8186515 0.77582055
vt 0.009715678 0.85366
vt 0.009715678 0.38123795
vt 0.69197416 0.77582055
vt 0.048693776 0.5440276
vt 0.04869342 0.38299638
vt 0.98471326 0.44136113
vt 0.818652 0.441361
vt 0.6919744 0.441361
vt 0.5259112 0.441361
vt 0.52801996 0.94247085
vt 0.52801996 0.97435606
vt 0.972919 0.97435623
vt 0.97291905 0.9761547
vt 0.972919 0.9424842
vt 0.5280204 0.942484
vt 0.52802 0.9761547
vt 0.048709154 0.2606633
vt 0.009715555 0.26066342
vt 0.048709273 0.38123795
vt 0.048709393 0.73082113
vt 0.009715794 0.73082113
vt 0.04870951 0.85365987
vt 0.048709154 0.38123527
vt 0.04870951 0.26066616
vt 0.009715557 0.26066628
vt 0.04870951 0.26066598
vt 0.009715321 0.3812352
vt 0.048709154 0.3812352
vt 0.048709393 0.73082113
vt 0.009715555 0.73082113
vt 0.009715678 0.85365987
vt 0.04870951 0.85365987
vt 0.009699941 0.5440268
vt 0.048693538 0.5440268
vt 0.009715557 0.26066342
vt 0.009715557 0.38123783
vt 0.048709393 0.38123772
vt 0.04870963 0.26066336
vt 0.818652 0.9001631
vn -0.34033808 0 0.94030315
vn 0.33356282 0.004767747 0.9427158
vn -0.15550351 0.88951355 0.42963287
vn 0.15242787 0.89035445 0.4289927
vn -0.15550326 0.88951665 -0.42962646
vn 0.15550467 0.88951445 -0.4296303
vn -0.34034204 0 -0.94030166
vn 0.34034204 0 -0.94030166
vn 0.49370083 0.787151 0.36966583
vn -0.49371698 0.7871428 0.36966148
vn -0.800487 0 0.59935015
vn 0.8004743 0 0.5993671
vn 0.49991667 0.7821284 -0.3719655
vn -0.49371627 0.7871412 -0.36966592
vn -0.800483 0 -0.59935546
vn 0.79779774 0.023800725 -0.6024552
vn -0.044421382 0.998061 -0.04360077
vn -0.71366847 0 -0.70048374
vn -0.71366847 0 0.70048374
vn -0.044421 0.998061 0.0436004
vn 0.04537366 0.99805355 -0.04278328
vn 0.7238918 0.0143214185 -0.6897648
vn 0.71365315 0 0.7004993
vn 0.044420663 0.9980609 0.043601982
vn 0.49370083 0.787151 0.36966583
vn 0.15550467 0.88951445 -0.4296303
vn -0.15550351 0.88951355 0.42963287
vn -0.49371627 0.7871412 -0.36966592
vn -0.49371698 0.7871428 0.36966148
vn -0.15550326 0.88951665 -0.42962646
vn -0.34033808 0 0.94030315
vn -0.15550351 0.88951355 0.42963287
vn 0.15242787 0.89035445 0.4289927
vn -0.15550326 0.88951665 -0.42962646
vn -0.34034204 0 -0.94030166
vn 0.34034204 0 -0.94030166
vn 0.15550467 0.88951445 -0.4296303
vn 0.49370083 0.787151 0.36966583
vn 0.8004743 0 0.5993671
vn 0.044420663 0.9980609 0.043601982
vn 0.044420663 0.9980609 0.043601982
vn 0.71365315 0 0.7004993
vn 0.04537366 0.99805355 -0.04278328
vn -0.044421382 0.998061 -0.04360077
vn -0.49371627 0.7871412 -0.36966592
vn -0.800483 0 -0.59935546
vn -0.044421 0.998061 0.0436004
vn -0.800487 0 0.59935015
vn -0.49371698 0.7871428 0.36966148
vn -0.044421382 0.998061 -0.04360077
vn -0.71366847 0 -0.70048374
vn -0.71366847 0 0.70048374
vn -0.044421 0.998061 0.0436004
vn 0.33356282 0.004767747 0.9427158
vn 0.15242787 0.89035445 0.4289927
vn 0.7238918 0.0143214185 -0.6897648
vn 0.79779774 0.023800725 -0.6024552
vn 0.49991667 0.7821284 -0.3719655
vn 0.04537366 0.99805355 -0.04278328
vn 0.49991667 0.7821284 -0.3719655
g Box_Geo05_mBox_lid_geo_0
f 3/3/3 14/14/14 15/15/15
f 1/1/1 3/3/3 15/15/15
f 9/9/9 6/6/6 24/24/24
f 24/24/24 6/6/6 20/20/20
f 6/6/6 30/30/30 20/20/20
f 20/20/20 30/30/30 29/29/29
f 21/21/21 24/24/24 20/20/20
f 17/17/17 21/21/21 20/20/20
f 21/21/21 17/17/17 27/27/27
f 17/17/17 28/28/28 27/27/27
f 4/4/4 21/21/21 27/27/27
f 4/4/4 60/60/60 21/21/21
f 10/10/10 5/5/5 7/7/7
f 11/11/11 10/10/10 7/7/7
f 8/8/8 26/26/26 25/25/25
f 12/12/12 8/8/8 25/25/25
f 33/33/33 32/32/32 31/31/31
f 2/2/2 33/33/33 31/31/31
f 36/36/36 35/35/35 34/34/34
f 37/37/37 36/36/36 34/34/34
f 23/23/23 39/39/39 38/38/38
f 40/40/40 23/23/23 38/38/38
f 22/22/22 42/42/42 41/41/41
f 43/43/43 22/22/22 41/41/41
f 45/45/45 44/44/44 18/18/18
f 46/46/46 45/45/45 18/18/18
f 48/48/48 19/19/19 47/47/47
f 49/49/49 48/48/48 47/47/47
f 52/52/52 51/51/51 50/50/50
f 53/53/53 52/52/52 50/50/50
f 13/13/13 55/55/55 54/54/54
f 16/16/16 13/13/13 54/54/54
f 58/58/58 57/57/57 56/56/56
f 59/59/59 58/58/58 56/56/56
