g Box_Geo05_mBox_centerHole_on_geo
v 0.004121585 0.06019263 -0.001339184
v 0.0035060295 0.06019263 -0.0025472792
v 0.0025472792 0.06019263 -0.0035060293
v 0.0013391839 0.06019263 -0.0041215844
v 2.646978E-25 0.06019263 -0.00433369
v -0.0013391839 0.06019263 -0.004121584
v -0.002547279 0.06019263 -0.0035060286
v -0.0035060283 0.06019263 -0.0025472785
v -0.0041215834 0.06019263 -0.0013391835
v -0.004333689 0.06019263 2.646978E-25
v -0.0041215834 0.06019263 0.0013391835
v -0.003506028 0.06019263 0.0025472783
v -0.0025472783 0.06019263 0.0035060276
v -0.0013391835 0.06019263 0.0041215825
v -1.2915397E-10 0.06019263 0.0043336884
v 0.0013391831 0.06019263 0.0041215825
v 0.0025472778 0.06019263 0.0035060274
v 0.0035060272 0.06019263 0.002547278
v 0.004121582 0.06019263 0.0013391833
v 0.004333688 0.06019263 2.646978E-25
v 2.646978E-25 0.06019263 2.646978E-25
v 0.0070034373 0.06019263 -0.0022755538
v 0.005957479 0.06019263 -0.0043283612
v 0.004328362 0.06019263 -0.005957478
v 0.002275555 0.06019263 -0.007003435
v -0.0022755538 0.06019263 -0.007003435
v -0.0043283603 0.06019263 -0.0059574763
v -0.005957478 0.06019263 -0.0043283603
v -0.007003434 0.06019263 -0.002275553
v -0.007363846 0.06019263 5.418341E-10
v -0.007003434 0.06019263 0.0022755542
v -0.0059574777 0.06019263 0.0043283603
v -0.0043283594 0.06019263 0.0059574777
v -0.0022755533 0.06019263 0.0070034335
v 0.0022755535 0.06019263 0.0070034335
v 0.0043283594 0.06019263 0.0059574763
v 0.0059574745 0.06019263 0.00432836
v 0.007003432 0.06019263 0.0022755535
v 0.007363844 0.06019263 5.418341E-10
v 0.008760507 0.06019263 -0.0028464603
v 0.0074521317 0.06019263 -0.00541429
v 0.0054142904 0.06019263 -0.007452131
v 0.0028464615 0.06019263 -0.008760506
v -0.0028464603 0.06019263 -0.008760504
v -0.0054142904 0.06019263 -0.007452129
v -0.0074521294 0.06019263 -0.0054142885
v -0.008760504 0.06019263 -0.0028464596
v -0.009211338 0.06019263 8.721915E-10
v -0.008760504 0.06019263 0.0028464613
v -0.007452129 0.06019263 0.00541429
v -0.00541429 0.06019263 0.0074521294
v -0.0028464596 0.06019263 0.0087605035
v 0.0028464596 0.06019263 0.0087605035
v 0.005414288 0.06019263 0.0074521294
v 0.0074521285 0.06019263 0.00541429
v 0.008760503 0.06019263 0.0028464603
v 0.009211337 0.06019263 8.721915E-10
v 0.0015699749 0.06019263 -0.0071151885
v -0.0015699742 0.06019263 -0.0071151885
v -0.0015699741 0.06019263 -0.008962681
v 0.0015699752 0.06019263 -0.0089626815
v -0.0015699746 0.06019263 0.0071151857
v 0.0015699747 0.06019263 0.0071151857
v 0.0015699748 0.06019263 0.008962679
v -0.0015699742 0.06019263 0.008962679
vt 0.74805367 0.9239355
vt 0.7399981 0.919831
vt 0.7336052 0.91343826
vt 0.7295006 0.9053826
vt 0.7280863 0.8964528
vt 0.7295006 0.9053823
vt 0.7336052 0.91343796
vt 0.7399981 0.9198308
vt 0.74805367 0.9239355
vt 0.7569833 0.9253497
vt 0.765913 0.9239355
vt 0.7739686 0.9198308
vt 0.78036153 0.91343796
vt 0.7844659 0.9053823
vt 0.7858803 0.8964528
vt 0.7844659 0.9053826
vt 0.78036153 0.91343826
vt 0.7739686 0.919831
vt 0.765913 0.9239355
vt 0.7569833 0.9253497
vt 0.7569833 0.8964528
vt 0.76816666 0.903697
vt 0.7590097 0.90586865
vt 0.74962974 0.90510505
vt 0.74094516 0.90147954
vt 0.74094516 0.90147954
vt 0.74962986 0.9051048
vt 0.7590096 0.90586865
vt 0.7681666 0.903697
vt 0.77620435 0.8988018
vt 0.76816666 0.903697
vt 0.7590097 0.90586865
vt 0.74962974 0.9051048
vt 0.74094516 0.90147954
vt 0.74094516 0.90147954
vt 0.74962986 0.9051048
vt 0.7590096 0.90586865
vt 0.7681666 0.903697
vt 0.77620435 0.8988018
vt 0.7710354 0.9106768
vt 0.75958115 0.9133935
vt 0.747848 0.9124379
vt 0.7369844 0.9079034
vt 0.7369845 0.9079034
vt 0.747848 0.9124379
vt 0.7595811 0.9133935
vt 0.7710354 0.9106768
vt 0.78108954 0.9045536
vt 0.7710354 0.9106768
vt 0.75958115 0.9133935
vt 0.7478481 0.9124381
vt 0.7369844 0.9079034
vt 0.7369845 0.9079034
vt 0.747848 0.9124379
vt 0.7595811 0.9133935
vt 0.7710354 0.9106768
vt 0.78108954 0.9045536
vt 0.7387315 0.899578
vt 0.7387315 0.899578
vt 0.73297954 0.90446347
vt 0.7329797 0.90446347
vt 0.7387315 0.899578
vt 0.7387315 0.899578
vt 0.73297954 0.90446347
vt 0.7329797 0.90446347
vn -0 1 4.1081075E-06
vn -0 1 -4.108108E-06
vn -0 1 -4.10811E-06
vn -0 1 0
vn -0 1 0
vn -0 1 0
vn -0 1 -2.0540547E-06
vn -0 1 2.0540547E-06
vn -0 1 4.108111E-06
vn -0 1 0
vn -0 1 0
vn -0 1 0
vn -0 1 0
vn -0 1 1.0270281E-06
vn -0 1 3.1250474E-07
vn -0 1 -7.1452376E-07
vn -0 1 2.0540567E-06
vn -0 1 2.054057E-06
vn -0 1 0
vn -0 1 4.1081153E-06
vn -0 1 4.4206186E-07
vn -0 1 0
vn -0 1 0
vn -0 1 0
vn -0 1 6.29878E-07
vn -0 1 0
vn -0 1 -1.259756E-06
vn -0 1 1.2597568E-06
vn -0 1 0
vn -0 1 0
vn -0 1 0
vn -0 1 0
vn -0 1 0
vn -0 1 1.2597567E-06
vn -0 1 1.6277204E-06
vn -0 1 -1.259757E-06
vn -0 1 0
vn -0 1 0
vn -0 1 0
vn -0 1 0
vn -0 1 0
vn -0 1 0
vn -0 1 6.29878E-07
vn -0 1 0
vn -0 1 -1.259756E-06
vn -0 1 1.2597568E-06
vn -0 1 0
vn -0 1 0
vn -0 1 0
vn -0 1 0
vn -0 1 0
vn -0 1 1.2597568E-06
vn -0 1 1.6277204E-06
vn -0 1 -1.2597568E-06
vn -0 1 0
vn -0 1 0
vn -0 1 0
vn -0 1 0
vn -0 1 0
vn -0 1 0
vn -0 1 0
vn -0 1 3.25544E-06
vn -0 1 1.6277204E-06
vn -0 1 1.6277205E-06
vn -0 1 3.2554399E-06
g Box_Geo05_mBox_centerHole_on_geo_0
f 58/58/58 25/25/25 61/61/61
f 25/25/25 43/43/43 61/61/61
f 42/42/42 43/43/43 25/25/25
f 24/24/24 42/42/42 25/25/25
f 41/41/41 42/42/42 24/24/24
f 23/23/23 41/41/41 24/24/24
f 40/40/40 41/41/41 23/23/23
f 22/22/22 40/40/40 23/23/23
f 57/57/57 40/40/40 22/22/22
f 39/39/39 57/57/57 22/22/22
f 56/56/56 57/57/57 39/39/39
f 38/38/38 56/56/56 39/39/39
f 55/55/55 56/56/56 38/38/38
f 37/37/37 55/55/55 38/38/38
f 54/54/54 55/55/55 37/37/37
f 36/36/36 54/54/54 37/37/37
f 53/53/53 54/54/54 36/36/36
f 35/35/35 53/53/53 36/36/36
f 64/64/64 53/53/53 35/35/35
f 63/63/63 64/64/64 35/35/35
f 59/59/59 60/60/60 26/26/26
f 60/60/60 44/44/44 26/26/26
f 26/26/26 44/44/44 27/27/27
f 44/44/44 45/45/45 27/27/27
f 27/27/27 45/45/45 28/28/28
f 45/45/45 46/46/46 28/28/28
f 28/28/28 46/46/46 29/29/29
f 46/46/46 47/47/47 29/29/29
f 29/29/29 47/47/47 30/30/30
f 47/47/47 48/48/48 30/30/30
f 30/30/30 48/48/48 31/31/31
f 48/48/48 49/49/49 31/31/31
f 31/31/31 49/49/49 32/32/32
f 49/49/49 50/50/50 32/32/32
f 32/32/32 50/50/50 33/33/33
f 50/50/50 51/51/51 33/33/33
f 33/33/33 51/51/51 34/34/34
f 51/51/51 52/52/52 34/34/34
f 34/34/34 52/52/52 65/65/65
f 62/62/62 34/34/34 65/65/65
f 2/2/2 21/21/21 1/1/1
f 1/1/1 21/21/21 20/20/20
f 3/3/3 21/21/21 2/2/2
f 20/20/20 21/21/21 19/19/19
f 4/4/4 21/21/21 3/3/3
f 19/19/19 21/21/21 18/18/18
f 5/5/5 21/21/21 4/4/4
f 18/18/18 21/21/21 17/17/17
f 6/6/6 21/21/21 5/5/5
f 17/17/17 21/21/21 16/16/16
f 7/7/7 21/21/21 6/6/6
f 16/16/16 21/21/21 15/15/15
f 8/8/8 21/21/21 7/7/7
f 15/15/15 21/21/21 14/14/14
f 9/9/9 21/21/21 8/8/8
f 14/14/14 21/21/21 13/13/13
f 10/10/10 21/21/21 9/9/9
f 13/13/13 21/21/21 12/12/12
f 11/11/11 21/21/21 10/10/10
f 12/12/12 21/21/21 11/11/11
