g breadStationShieldSimplifiedGeo5
v 29.869469 66.00914 -63.166504
v 29.960852 55.698105 -71.18317
v 27.489664 65.61041 -64.59225
v 29.960852 55.698105 -71.18317
v 35.068222 45.7643 -74.86059
v 29.67117 45.70288 -77.190636
v 29.869469 66.00914 63.166504
v 27.489664 65.61041 64.59225
v 29.960852 55.698105 71.18317
v 29.960852 55.698105 71.18317
v 29.67117 45.70288 77.190636
v 35.068222 45.7643 74.86059
v 70.07428 65.77364 1.819728E-15
v 76.62453 56.255447 -6.289672
v 69.86601 65.72788 -5.764434
v 76.86441 56.299683 1.2105951E-16
v 82.65105 45.82183 -1.0449204E-15
v 82.40312 45.72069 -6.8699317
v 69.86601 65.72788 -5.764434
v 75.86212 56.275364 -12.403215
v 69.19096 65.7131 -11.350376
v 76.62453 56.255447 -6.289672
v 82.40312 45.72069 -6.8699317
v 81.58916 45.768684 -13.299306
v 75.86212 56.275364 -12.403215
v 67.864716 66.06044 -16.46692
v 69.19096 65.7131 -11.350376
v 74.55803 56.390335 -18.43959
v 80.206825 45.809937 -19.978024
v 81.58916 45.768684 -13.299306
v 67.864716 66.06044 -16.46692
v 72.750305 56.402596 -24.574097
v 66.11724 66.05746 -22.474447
v 74.55803 56.390335 -18.43959
v 80.206825 45.809937 -19.978024
v 78.28965 45.6813 -26.6703
v 66.11724 66.05746 -22.474447
v 70.564995 56.472656 -30.167074
v 64.250275 66.01665 -27.443047
v 72.750305 56.402596 -24.574097
v 78.28965 45.6813 -26.6703
v 75.94318 46.007664 -32.358917
v 64.250275 66.01665 -27.443047
v 67.929924 56.477947 -35.712784
v 61.886578 65.99481 -32.47229
v 70.564995 56.472656 -30.167074
v 75.94318 46.007664 -32.358917
v 73.074615 46.01774 -38.403603
v 61.886578 65.99481 -32.47229
v 64.84471 56.4266 -41.107338
v 59.189365 65.8164 -37.436756
v 67.929924 56.477947 -35.712784
v 73.074615 46.01774 -38.403603
v 69.72751 45.946648 -44.250877
v 64.84471 56.4266 -41.107338
v 55.938705 65.787796 -42.170322
v 59.189365 65.8164 -37.436756
v 61.3109 56.414524 -46.21793
v 65.94435 45.97611 -49.682087
v 69.72751 45.946648 -44.250877
v 55.938705 65.787796 -42.170322
v 57.35789 56.42254 -51.041214
v 52.24148 65.988365 -46.431175
v 61.3109 56.414524 -46.21793
v 65.94435 45.97611 -49.682087
v 61.593464 45.75923 -55.15432
v 52.24148 65.988365 -46.431175
v 53.13275 56.50616 -55.356033
v 48.415775 65.99454 -50.405422
v 57.35789 56.42254 -51.041214
v 61.593464 45.75923 -55.15432
v 57.265182 46.08318 -59.421944
v 53.13275 56.50616 -55.356033
v 44.316235 66.02003 -54.009983
v 48.415775 65.99454 -50.405422
v 48.481373 56.507584 -59.46124
v 52.160805 46.014008 -63.97866
v 57.265182 46.08318 -59.421944
v 44.316235 66.02003 -54.009983
v 43.347813 56.459267 -63.34344
v 39.41182 65.992256 -57.718033
v 48.481373 56.507584 -59.46124
v 52.160805 46.014008 -63.97866
v 46.913017 45.96092 -67.95326
v 39.41182 65.992256 -57.718033
v 37.57848 56.299744 -67.03999
v 34.91107 65.98213 -60.56189
v 43.347813 56.459267 -63.34344
v 46.913017 45.96092 -67.95326
v 41.21738 45.925804 -71.58154
v 29.960852 55.698105 -71.18317
v 29.869469 66.00914 -63.166504
v 34.91107 65.98213 -60.56189
v 37.57848 56.299744 -67.03999
v 37.57848 56.299744 -67.03999
v 41.21738 45.925804 -71.58154
v 35.068222 45.7643 -74.86059
v 29.960852 55.698105 -71.18317
v 25.281826 63.033524 -67.637794
v 25.950447 64.65494 -66.04232
v 27.489664 65.61041 -64.59225
v 29.960852 55.698105 -71.18317
v 27.904345 48.24174 -76.52679
v 29.960852 55.698105 -71.18317
v 29.67117 45.70288 -77.190636
v 28.265343 46.729584 -77.199165
v 26.658895 56.36678 -72.041534
v 25.423422 61.222115 -69.00773
v 25.281826 63.033524 -67.637794
v 29.960852 55.698105 -71.18317
v 27.524624 51.536724 -74.78951
v 26.658895 56.36678 -72.041534
v 29.960852 55.698105 -71.18317
v 27.904345 48.24174 -76.52679
v 70.07428 65.77364 1.819728E-15
v 69.86601 65.72788 5.764434
v 76.62453 56.255447 6.289672
v 76.86441 56.299683 1.2105951E-16
v 82.65105 45.82183 -1.0449204E-15
v 82.40312 45.72069 6.8699317
v 69.86601 65.72788 5.764434
v 69.19096 65.7131 11.350376
v 75.86212 56.275364 12.403215
v 76.62453 56.255447 6.289672
v 82.40312 45.72069 6.8699317
v 81.58916 45.768684 13.299306
v 75.86212 56.275364 12.403215
v 69.19096 65.7131 11.350376
v 67.864716 66.06044 16.46692
v 74.55803 56.390335 18.43959
v 80.206825 45.809937 19.978024
v 81.58916 45.768684 13.299306
v 67.864716 66.06044 16.46692
v 66.11724 66.05746 22.474447
v 72.750305 56.402596 24.574097
v 74.55803 56.390335 18.43959
v 80.206825 45.809937 19.978024
v 78.28965 45.6813 26.6703
v 66.11724 66.05746 22.474447
v 64.250275 66.01665 27.443047
v 70.564995 56.472656 30.167074
v 72.750305 56.402596 24.574097
v 78.28965 45.6813 26.6703
v 75.94318 46.007664 32.358917
v 64.250275 66.01665 27.443047
v 61.886578 65.99481 32.47229
v 67.929924 56.477947 35.712784
v 70.564995 56.472656 30.167074
v 75.94318 46.007664 32.358917
v 73.074615 46.01774 38.403603
v 61.886578 65.99481 32.47229
v 59.189365 65.8164 37.436756
v 64.84471 56.4266 41.107338
v 67.929924 56.477947 35.712784
v 73.074615 46.01774 38.403603
v 69.72751 45.946648 44.250877
v 64.84471 56.4266 41.107338
v 59.189365 65.8164 37.436756
v 55.938705 65.787796 42.170322
v 61.3109 56.414524 46.21793
v 65.94435 45.97611 49.682087
v 69.72751 45.946648 44.250877
v 55.938705 65.787796 42.170322
v 52.24148 65.988365 46.431175
v 57.35789 56.42254 51.041214
v 61.3109 56.414524 46.21793
v 65.94435 45.97611 49.682087
v 61.593464 45.75923 55.15432
v 52.24148 65.988365 46.431175
v 48.415775 65.99454 50.405422
v 53.13275 56.50616 55.356033
v 57.35789 56.42254 51.041214
v 61.593464 45.75923 55.15432
v 57.265182 46.08318 59.421944
v 53.13275 56.50616 55.356033
v 48.415775 65.99454 50.405422
v 44.316235 66.02003 54.009983
v 48.481373 56.507584 59.46124
v 52.160805 46.014008 63.97866
v 57.265182 46.08318 59.421944
v 44.316235 66.02003 54.009983
v 39.41182 65.992256 57.718033
v 43.347813 56.459267 63.34344
v 48.481373 56.507584 59.46124
v 52.160805 46.014008 63.97866
v 46.913017 45.96092 67.95326
v 39.41182 65.992256 57.718033
v 34.91107 65.98213 60.56189
v 37.57848 56.299744 67.03999
v 43.347813 56.459267 63.34344
v 46.913017 45.96092 67.95326
v 41.21738 45.925804 71.58154
v 29.960852 55.698105 71.18317
v 37.57848 56.299744 67.03999
v 34.91107 65.98213 60.56189
v 29.869469 66.00914 63.166504
v 37.57848 56.299744 67.03999
v 29.960852 55.698105 71.18317
v 35.068222 45.7643 74.86059
v 41.21738 45.925804 71.58154
v 25.281826 63.033524 67.637794
v 29.960852 55.698105 71.18317
v 27.489664 65.61041 64.59225
v 25.950447 64.65494 66.04232
v 27.904345 48.24174 76.52679
v 28.265343 46.729584 77.199165
v 29.67117 45.70288 77.190636
v 29.960852 55.698105 71.18317
v 26.658895 56.36678 72.041534
v 29.960852 55.698105 71.18317
v 25.281826 63.033524 67.637794
v 25.423422 61.222115 69.00773
v 27.524624 51.536724 74.78951
v 29.960852 55.698105 71.18317
v 26.658895 56.36678 72.041534
v 27.904345 48.24174 76.52679
vt -0.069727905 0.08097941
vt 0.39916998 0.5
vt -0.063488185 1.2871575
vt 0.39916998 0.5
vt 1.1130844 -0.1264325
vt 1.1115005 1.3516577
vt -0.069727905 0.08097941
vt -0.063488185 1.2871575
vt 0.39916998 0.5
vt 0.39916998 0.5
vt 1.1115005 1.3516577
vt 1.1130844 -0.1264325
vt 0.22179414 6.899796
vt 0.485103 1
vt 0.19681633 7.1698804
vt 0.485103 0
vt 1.0229605 -1.3317534
vt 1.0231473 -0.34428263
vt -0.045028668 -0.38963693
vt 0.485103 1
vt -0.050468083 0.5682053
vt 0.485103 0
vt 1.1714354 -1.1240367
vt 1.1630353 -0.04764259
vt 0.514897 1
vt 1.0933828 -1.9732599
vt 1.0758127 -0.5793009
vt 0.514897 0
vt -0.09184368 -1.7520902
vt -0.089306295 -0.7563851
vt -0.0978633 -0.90560514
vt 0.485103 1
vt -0.097564705 0.14606732
vt 0.485103 0
vt 1.0893761 -0.49700212
vt 1.0950987 0.46300626
vt -0.23427933 1.0930783
vt 0.485103 1
vt -0.23159446 2.0805078
vt 0.485103 0
vt 1.0584857 0.26589298
vt 1.0597554 1.2720684
vt -0.12948188 -2.3494496
vt 0.485103 1
vt -0.13028193 -1.4114258
vt 0.485103 0
vt 1.0787976 -1.2011511
vt 1.0740393 -0.17225158
vt -0.04635784 0.72965366
vt 0.485103 1
vt -0.042852953 1.477045
vt 0.485103 0
vt 1.4022093 3.7710137
vt 1.4158714 4.931692
vt 0.514897 1
vt 1.105862 -0.6853032
vt 1.1141093 0.26481807
vt 0.514897 0
vt -0.07935301 -0.46580902
vt -0.07109236 0.58120245
vt -0.10377258 -0.8491631
vt 0.485103 1
vt -0.12545471 -0.08538067
vt 0.485103 0
vt 1.080454 -0.61055523
vt 1.0819193 0.36785227
vt -0.1064937 0.456893
vt 0.485103 1
vt -0.10079601 1.3952938
vt 0.485103 0
vt 1.0889223 0.285493
vt 1.0822136 1.2456288
vt 0.514897 1
vt 1.1080816 0.9069325
vt 1.1019574 1.8622302
vt 0.514897 0
vt -0.07798504 0.57286423
vt -0.08349859 1.6220019
vt -0.10006043 0.07251315
vt 0.485103 1
vt -0.097096875 1.0267863
vt 0.485103 0
vt 1.0818938 -0.048006766
vt 1.0862536 0.97174406
vt -0.08924202 0.6361379
vt 0.485103 1
vt -0.08460608 1.5920302
vt 0.485103 0
vt 1.0957373 0.5224615
vt 1.1038722 1.6064749
vt 0 0
vt 1.1386434 -0.057969213
vt 1.1419556 1.0084741
vt 0 1
vt 0 0
vt 1.1602018 -0.522193
vt 1.1448988 0.4922889
vt 0 1
vt 9.673939 -7.126088
vt 10.217658 -6.391021
vt 8.89226 -4.260168
vt 0 1
vt -16.81631 14.262025
vt 1 0
vt -14.498563 15.312201
vt -19.365517 17.909845
vt -0.33028132 0.88944393
vt 0.64111733 0.9751011
vt 0.67566574 2.1663594
vt 0 1
vt 0.5607176 0.6114627
vt 1.5851855 0.6342184
vt 1 1
vt 0.75999564 2.3255086
vt 0.22179414 6.899796
vt 0.19681633 7.1698804
vt 0.485103 1
vt 0.485103 0
vt 1.0229605 -1.3317534
vt 1.0231473 -0.34428263
vt -0.045028668 -0.38963693
vt -0.050468083 0.5682053
vt 0.485103 1
vt 0.485103 0
vt 1.1714354 -1.1240367
vt 1.1630353 -0.04764259
vt 0.514897 1
vt 1.0758127 -0.5793009
vt 1.0933828 -1.9732599
vt 0.514897 0
vt -0.09184368 -1.7520902
vt -0.089306295 -0.7563851
vt -0.0978633 -0.90560514
vt -0.097564705 0.14606732
vt 0.485103 1
vt 0.485103 0
vt 1.0893761 -0.49700212
vt 1.0950987 0.46300626
vt -0.23427933 1.0930783
vt -0.23159446 2.0805078
vt 0.485103 1
vt 0.485103 0
vt 1.0584857 0.26589298
vt 1.0597554 1.2720684
vt -0.12948188 -2.3494496
vt -0.13028193 -1.4114258
vt 0.485103 1
vt 0.485103 0
vt 1.0787976 -1.2011511
vt 1.0740393 -0.17225158
vt -0.04635784 0.72965366
vt -0.042852953 1.477045
vt 0.485103 1
vt 0.485103 0
vt 1.4022093 3.7710137
vt 1.4158714 4.931692
vt 0.514897 1
vt 1.1141093 0.26481807
vt 1.105862 -0.6853032
vt 0.514897 0
vt -0.07935301 -0.46580902
vt -0.07109236 0.58120245
vt -0.10377258 -0.8491631
vt -0.12545471 -0.08538067
vt 0.485103 1
vt 0.485103 0
vt 1.080454 -0.61055523
vt 1.0819193 0.36785227
vt -0.1064937 0.456893
vt -0.10079601 1.3952938
vt 0.485103 1
vt 0.485103 0
vt 1.0889223 0.285493
vt 1.0822136 1.2456288
vt 0.514897 1
vt 1.1019574 1.8622302
vt 1.1080816 0.9069325
vt 0.514897 0
vt -0.07798504 0.57286423
vt -0.08349859 1.6220019
vt -0.10006043 0.07251315
vt -0.097096875 1.0267863
vt 0.485103 1
vt 0.485103 0
vt 1.0818938 -0.048006766
vt 1.0862536 0.97174406
vt -0.08924202 0.6361379
vt -0.08460608 1.5920302
vt 0.485103 1
vt 0.485103 0
vt 1.0957373 0.5224615
vt 1.1038722 1.6064749
vt 0 0
vt 0 1
vt 1.1419556 1.0084741
vt 1.1386434 -0.057969213
vt 0 0
vt 0 1
vt 1.1448988 0.4922889
vt 1.1602018 -0.522193
vt 9.673939 -7.126088
vt 0 1
vt 8.89226 -4.260168
vt 10.217658 -6.391021
vt -16.81631 14.262025
vt -19.365517 17.909845
vt -14.498563 15.312201
vt 1 0
vt -0.33028132 0.88944393
vt 0 1
vt 0.67566574 2.1663594
vt 0.64111733 0.9751011
vt 0.5607176 0.6114627
vt 1 1
vt 1.5851855 0.6342184
vt 0.75999564 2.3255086
vn -0.36104074 -0.57911605 0.73094064
vn -0.37174368 -0.5283725 0.76330143
vn -0.34542686 -0.57810634 0.7392383
vn -0.37174368 -0.5283725 0.76330143
vn -0.38353497 -0.48373744 0.7867013
vn -0.3502294 -0.47445473 0.80760884
vn -0.3610409 -0.57911605 -0.7309406
vn -0.34542617 -0.5781064 -0.7392386
vn -0.3717437 -0.52837247 -0.76330143
vn -0.3717437 -0.52837247 -0.76330143
vn -0.3502296 -0.47445467 -0.80760884
vn -0.38353485 -0.48373732 -0.78670144
vn -0.81296456 -0.58231324 0
vn -0.84524953 -0.52987933 0.06914569
vn -0.8103982 -0.58211625 0.06629754
vn -0.84786844 -0.5302066 0
vn -0.8756287 -0.48298484 0
vn -0.87266916 -0.48299846 0.071841136
vn -0.8103982 -0.58211625 0.06629754
vn -0.83706635 -0.5296654 0.13701944
vn -0.80205804 -0.582494 0.13192299
vn -0.84524953 -0.52987933 0.06914569
vn -0.87266916 -0.48299846 0.071841136
vn -0.8640253 -0.48320192 0.14133729
vn -0.83706635 -0.5296654 0.13701944
vn -0.7871737 -0.58415896 0.19777723
vn -0.80205804 -0.582494 0.13192299
vn -0.8215677 -0.53159136 0.20600297
vn -0.8490323 -0.4835094 0.2129856
vn -0.8640253 -0.48320192 0.14133729
vn -0.7871737 -0.58415896 0.19777723
vn -0.8028189 -0.5323933 0.2684011
vn -0.7694341 -0.5848155 0.2568309
vn -0.8215677 -0.53159136 0.20600297
vn -0.8490323 -0.4835094 0.2129856
vn -0.829584 -0.48405972 0.27834618
vn -0.7694341 -0.5848155 0.2568309
vn -0.7781703 -0.53257084 0.33289516
vn -0.7461412 -0.5844803 0.31883535
vn -0.8028189 -0.5323933 0.2684011
vn -0.829584 -0.48405972 0.27834618
vn -0.8044685 -0.48487696 0.34311044
vn -0.7461412 -0.5844803 0.31883535
vn -0.74952906 -0.53222036 0.39363387
vn -0.71904826 -0.58422554 0.3763644
vn -0.7781703 -0.53257084 0.33289516
vn -0.8044685 -0.48487696 0.34311044
vn -0.7739979 -0.4850431 0.4070139
vn -0.71904826 -0.58422554 0.3763644
vn -0.71540666 -0.5315856 0.45344245
vn -0.6864283 -0.5835694 0.4338928
vn -0.74952906 -0.53222036 0.39363387
vn -0.7739979 -0.4850431 0.4070139
vn -0.7384671 -0.48485962 0.46859095
vn -0.71540666 -0.5315856 0.45344245
vn -0.6479623 -0.5834137 0.48966655
vn -0.6864283 -0.5835694 0.4338928
vn -0.67601573 -0.5310397 0.5108813
vn -0.69758844 -0.48440894 0.52793777
vn -0.7384671 -0.48485962 0.46859095
vn -0.6479623 -0.5834137 0.48966655
vn -0.63399905 -0.53167117 0.56157905
vn -0.6068677 -0.58402896 0.53909355
vn -0.67601573 -0.5310397 0.5108813
vn -0.69758844 -0.48440894 0.52793777
vn -0.65482527 -0.48471925 0.5798718
vn -0.6068677 -0.58402896 0.53909355
vn -0.58512557 -0.53288335 0.61128014
vn -0.56166315 -0.58450234 0.58556944
vn -0.63399905 -0.53167117 0.56157905
vn -0.65482527 -0.48471925 0.5798718
vn -0.60488546 -0.4854901 0.63119966
vn -0.58512557 -0.53288335 0.61128014
vn -0.51160544 -0.58469254 0.62959874
vn -0.56166315 -0.58450234 0.58556944
vn -0.5336022 -0.5331445 0.6565254
vn -0.5518044 -0.48547122 0.67810726
vn -0.60488546 -0.4854901 0.63119966
vn -0.51160544 -0.58469254 0.62959874
vn -0.47824362 -0.5329211 0.6980531
vn -0.4588235 -0.58382684 0.6697964
vn -0.5336022 -0.5331445 0.6565254
vn -0.5518044 -0.48547122 0.67810726
vn -0.49488968 -0.48551002 0.7206693
vn -0.4588235 -0.58382684 0.6697964
vn -0.41023254 -0.532389 0.74045336
vn -0.39493635 -0.58116806 0.71152586
vn -0.47824362 -0.5329211 0.6980531
vn -0.49488968 -0.48551002 0.7206693
vn -0.4289524 -0.4857481 0.76160926
vn -0.37174368 -0.5283725 0.76330143
vn -0.36104074 -0.57911605 0.73094064
vn -0.39493635 -0.58116806 0.71152586
vn -0.41023254 -0.532389 0.74045336
vn -0.41023254 -0.532389 0.74045336
vn -0.4289524 -0.4857481 0.76160926
vn -0.38353497 -0.48373744 0.7867013
vn -0.37174368 -0.5283725 0.76330143
vn -0.34222597 -0.5769914 0.74159443
vn -0.34451306 -0.5785787 0.7392952
vn -0.34542686 -0.57810634 0.7392383
vn -0.37174368 -0.5283725 0.76330143
vn -0.37189543 -0.46773088 0.8018239
vn -0.37174368 -0.5283725 0.76330143
vn -0.3502294 -0.47445473 0.80760884
vn -0.3710039 -0.46792072 0.80212605
vn -0.32274997 -0.54901814 0.7709809
vn -0.32785442 -0.5669166 0.7557229
vn -0.34222597 -0.5769914 0.74159443
vn -0.37174368 -0.5283725 0.76330143
vn -0.366132 -0.47772 0.79858065
vn -0.32274997 -0.54901814 0.7709809
vn -0.37174368 -0.5283725 0.76330143
vn -0.37189543 -0.46773088 0.8018239
vn -0.81296456 -0.58231324 0
vn -0.8103982 -0.58211625 -0.06629737
vn -0.8452496 -0.5298792 -0.069145605
vn -0.84786844 -0.5302066 0
vn -0.8756287 -0.48298484 0
vn -0.8726692 -0.48299834 -0.07184112
vn -0.8103982 -0.58211625 -0.06629737
vn -0.802058 -0.58249396 -0.13192317
vn -0.8370665 -0.5296654 -0.13701943
vn -0.8452496 -0.5298792 -0.069145605
vn -0.8726692 -0.48299834 -0.07184112
vn -0.86402535 -0.48320186 -0.14133713
vn -0.8370665 -0.5296654 -0.13701943
vn -0.802058 -0.58249396 -0.13192317
vn -0.7871736 -0.58415896 -0.19777745
vn -0.8215676 -0.53159136 -0.20600298
vn -0.8490323 -0.48350948 -0.21298553
vn -0.86402535 -0.48320186 -0.14133713
vn -0.7871736 -0.58415896 -0.19777745
vn -0.7694341 -0.5848155 -0.25683093
vn -0.80281883 -0.53239334 -0.26840115
vn -0.8215676 -0.53159136 -0.20600298
vn -0.8490323 -0.48350948 -0.21298553
vn -0.829584 -0.48405972 -0.27834618
vn -0.7694341 -0.5848155 -0.25683093
vn -0.74614125 -0.58448035 -0.31883526
vn -0.7781703 -0.532571 -0.33289507
vn -0.80281883 -0.53239334 -0.26840115
vn -0.829584 -0.48405972 -0.27834618
vn -0.8044686 -0.484877 -0.34311038
vn -0.74614125 -0.58448035 -0.31883526
vn -0.7190482 -0.5842258 -0.37636423
vn -0.74952906 -0.5322204 -0.39363372
vn -0.7781703 -0.532571 -0.33289507
vn -0.8044686 -0.484877 -0.34311038
vn -0.77399796 -0.48504314 -0.40701383
vn -0.7190482 -0.5842258 -0.37636423
vn -0.6864283 -0.5835695 -0.43389276
vn -0.71540666 -0.5315856 -0.45344254
vn -0.74952906 -0.5322204 -0.39363372
vn -0.77399796 -0.48504314 -0.40701383
vn -0.7384671 -0.4848595 -0.46859115
vn -0.71540666 -0.5315856 -0.45344254
vn -0.6864283 -0.5835695 -0.43389276
vn -0.6479624 -0.5834136 -0.48966652
vn -0.6760158 -0.53103954 -0.51088136
vn -0.69758844 -0.4844088 -0.5279378
vn -0.7384671 -0.4848595 -0.46859115
vn -0.6479624 -0.5834136 -0.48966652
vn -0.6068677 -0.58402896 -0.53909355
vn -0.633999 -0.5316712 -0.56157905
vn -0.6760158 -0.53103954 -0.51088136
vn -0.69758844 -0.4844088 -0.5279378
vn -0.6548252 -0.48471934 -0.57987165
vn -0.6068677 -0.58402896 -0.53909355
vn -0.5616631 -0.5845025 -0.58556944
vn -0.58512545 -0.53288335 -0.6112801
vn -0.633999 -0.5316712 -0.56157905
vn -0.6548252 -0.48471934 -0.57987165
vn -0.6048853 -0.48549008 -0.6311997
vn -0.58512545 -0.53288335 -0.6112801
vn -0.5616631 -0.5845025 -0.58556944
vn -0.51160544 -0.5846924 -0.6295988
vn -0.5336021 -0.5331444 -0.65652543
vn -0.55180454 -0.4854711 -0.6781073
vn -0.6048853 -0.48549008 -0.6311997
vn -0.51160544 -0.5846924 -0.6295988
vn -0.45882368 -0.5838267 -0.6697964
vn -0.4782437 -0.53292096 -0.69805306
vn -0.5336021 -0.5331444 -0.65652543
vn -0.55180454 -0.4854711 -0.6781073
vn -0.4948899 -0.4855099 -0.7206692
vn -0.45882368 -0.5838267 -0.6697964
vn -0.39493647 -0.58116806 -0.71152574
vn -0.41023272 -0.5323889 -0.74045336
vn -0.4782437 -0.53292096 -0.69805306
vn -0.4948899 -0.4855099 -0.7206692
vn -0.4289525 -0.48574793 -0.76160926
vn -0.3717437 -0.52837247 -0.76330143
vn -0.41023272 -0.5323889 -0.74045336
vn -0.39493647 -0.58116806 -0.71152574
vn -0.3610409 -0.57911605 -0.7309406
vn -0.41023272 -0.5323889 -0.74045336
vn -0.3717437 -0.52837247 -0.76330143
vn -0.38353485 -0.48373732 -0.78670144
vn -0.4289525 -0.48574793 -0.76160926
vn -0.34222525 -0.57699144 -0.74159473
vn -0.3717437 -0.52837247 -0.76330143
vn -0.34542617 -0.5781064 -0.7392386
vn -0.3445119 -0.57857895 -0.73929566
vn -0.37189612 -0.4677309 -0.8018236
vn -0.3710047 -0.46792063 -0.80212575
vn -0.3502296 -0.47445467 -0.80760884
vn -0.3717437 -0.52837247 -0.76330143
vn -0.32275134 -0.5490179 -0.7709804
vn -0.3717437 -0.52837247 -0.76330143
vn -0.34222525 -0.57699144 -0.74159473
vn -0.32785663 -0.56691635 -0.7557221
vn -0.36613175 -0.47772047 -0.79858047
vn -0.3717437 -0.52837247 -0.76330143
vn -0.32275134 -0.5490179 -0.7709804
vn -0.37189612 -0.4677309 -0.8018236
g breadStationShieldSimplifiedGeo5_0
f 3/3/3 2/2/2 1/1/1
f 6/6/6 5/5/5 4/4/4
f 9/9/9 8/8/8 7/7/7
f 12/12/12 11/11/11 10/10/10
f 15/15/15 14/14/14 13/13/13
f 14/14/14 16/16/16 13/13/13
f 17/17/17 16/16/16 14/14/14
f 18/18/18 17/17/17 14/14/14
f 21/21/21 20/20/20 19/19/19
f 20/20/20 22/22/22 19/19/19
f 23/23/23 22/22/22 20/20/20
f 24/24/24 23/23/23 20/20/20
f 27/27/27 26/26/26 25/25/25
f 26/26/26 28/28/28 25/25/25
f 25/25/25 28/28/28 29/29/29
f 30/30/30 25/25/25 29/29/29
f 33/33/33 32/32/32 31/31/31
f 32/32/32 34/34/34 31/31/31
f 35/35/35 34/34/34 32/32/32
f 36/36/36 35/35/35 32/32/32
f 39/39/39 38/38/38 37/37/37
f 38/38/38 40/40/40 37/37/37
f 41/41/41 40/40/40 38/38/38
f 42/42/42 41/41/41 38/38/38
f 45/45/45 44/44/44 43/43/43
f 44/44/44 46/46/46 43/43/43
f 47/47/47 46/46/46 44/44/44
f 48/48/48 47/47/47 44/44/44
f 51/51/51 50/50/50 49/49/49
f 50/50/50 52/52/52 49/49/49
f 53/53/53 52/52/52 50/50/50
f 54/54/54 53/53/53 50/50/50
f 57/57/57 56/56/56 55/55/55
f 56/56/56 58/58/58 55/55/55
f 55/55/55 58/58/58 59/59/59
f 60/60/60 55/55/55 59/59/59
f 63/63/63 62/62/62 61/61/61
f 62/62/62 64/64/64 61/61/61
f 65/65/65 64/64/64 62/62/62
f 66/66/66 65/65/65 62/62/62
f 69/69/69 68/68/68 67/67/67
f 68/68/68 70/70/70 67/67/67
f 71/71/71 70/70/70 68/68/68
f 72/72/72 71/71/71 68/68/68
f 75/75/75 74/74/74 73/73/73
f 74/74/74 76/76/76 73/73/73
f 73/73/73 76/76/76 77/77/77
f 78/78/78 73/73/73 77/77/77
f 81/81/81 80/80/80 79/79/79
f 80/80/80 82/82/82 79/79/79
f 83/83/83 82/82/82 80/80/80
f 84/84/84 83/83/83 80/80/80
f 87/87/87 86/86/86 85/85/85
f 86/86/86 88/88/88 85/85/85
f 89/89/89 88/88/88 86/86/86
f 90/90/90 89/89/89 86/86/86
f 93/93/93 92/92/92 91/91/91
f 94/94/94 93/93/93 91/91/91
f 97/97/97 96/96/96 95/95/95
f 98/98/98 97/97/97 95/95/95
f 101/101/101 100/100/100 99/99/99
f 102/102/102 101/101/101 99/99/99
f 105/105/105 104/104/104 103/103/103
f 106/106/106 105/105/105 103/103/103
f 109/109/109 108/108/108 107/107/107
f 110/110/110 109/109/109 107/107/107
f 113/113/113 112/112/112 111/111/111
f 114/114/114 113/113/113 111/111/111
f 117/117/117 116/116/116 115/115/115
f 118/118/118 117/117/117 115/115/115
f 118/118/118 119/119/119 117/117/117
f 119/119/119 120/120/120 117/117/117
f 123/123/123 122/122/122 121/121/121
f 124/124/124 123/123/123 121/121/121
f 124/124/124 125/125/125 123/123/123
f 125/125/125 126/126/126 123/123/123
f 129/129/129 128/128/128 127/127/127
f 130/130/130 129/129/129 127/127/127
f 130/130/130 127/127/127 131/131/131
f 127/127/127 132/132/132 131/131/131
f 135/135/135 134/134/134 133/133/133
f 136/136/136 135/135/135 133/133/133
f 136/136/136 137/137/137 135/135/135
f 137/137/137 138/138/138 135/135/135
f 141/141/141 140/140/140 139/139/139
f 142/142/142 141/141/141 139/139/139
f 142/142/142 143/143/143 141/141/141
f 143/143/143 144/144/144 141/141/141
f 147/147/147 146/146/146 145/145/145
f 148/148/148 147/147/147 145/145/145
f 148/148/148 149/149/149 147/147/147
f 149/149/149 150/150/150 147/147/147
f 153/153/153 152/152/152 151/151/151
f 154/154/154 153/153/153 151/151/151
f 154/154/154 155/155/155 153/153/153
f 155/155/155 156/156/156 153/153/153
f 159/159/159 158/158/158 157/157/157
f 160/160/160 159/159/159 157/157/157
f 160/160/160 157/157/157 161/161/161
f 157/157/157 162/162/162 161/161/161
f 165/165/165 164/164/164 163/163/163
f 166/166/166 165/165/165 163/163/163
f 166/166/166 167/167/167 165/165/165
f 167/167/167 168/168/168 165/165/165
f 171/171/171 170/170/170 169/169/169
f 172/172/172 171/171/171 169/169/169
f 172/172/172 173/173/173 171/171/171
f 173/173/173 174/174/174 171/171/171
f 177/177/177 176/176/176 175/175/175
f 178/178/178 177/177/177 175/175/175
f 178/178/178 175/175/175 179/179/179
f 175/175/175 180/180/180 179/179/179
f 183/183/183 182/182/182 181/181/181
f 184/184/184 183/183/183 181/181/181
f 184/184/184 185/185/185 183/183/183
f 185/185/185 186/186/186 183/183/183
f 189/189/189 188/188/188 187/187/187
f 190/190/190 189/189/189 187/187/187
f 190/190/190 191/191/191 189/189/189
f 191/191/191 192/192/192 189/189/189
f 195/195/195 194/194/194 193/193/193
f 196/196/196 195/195/195 193/193/193
f 199/199/199 198/198/198 197/197/197
f 200/200/200 199/199/199 197/197/197
f 203/203/203 202/202/202 201/201/201
f 204/204/204 203/203/203 201/201/201
f 207/207/207 206/206/206 205/205/205
f 208/208/208 207/207/207 205/205/205
f 211/211/211 210/210/210 209/209/209
f 212/212/212 211/211/211 209/209/209
f 215/215/215 214/214/214 213/213/213
f 214/214/214 216/216/216 213/213/213
