g glass1
v -0.02641456 0.056265038 0.050684832
v 0.025370907 0.056265038 0.050684832
v 0.025370907 0.022555968 0.050684832
v -0.02641456 0.022555968 0.050684832
v -0.027728533 0.022555968 0.049370877
v -0.027728533 0.056265038 0.049370877
v -0.027728533 0.022555968 0.0026717733
v -0.027728533 0.056265038 0.0026717733
v 0.026684841 0.056265038 0.049370877
v 0.026684841 0.022555968 0.049370877
v 0.026684841 0.022555968 0.0026717733
v 0.026684841 0.056265038 0.0026717733
vt 0.29001084 0.987768
vt 0.5947591 0.987768
vt 0.5947591 0.725971
vt 0.29001084 0.725971
vt 0.2803045 0.725971
vt 0.2803045 0.987768
vt 0.01779531 0.725971
vt 0.01779531 0.987768
vt 0.6044656 0.987768
vt 0.6044656 0.725971
vt 0.86697483 0.725971
vt 0.86697483 0.987768
vn -0.024737526 0 0.99969393
vn 0.024737548 0 0.99969393
vn 0.024737548 0 0.99969393
vn -0.024737526 0 0.99969393
vn -0.99962574 0 0.027356738
vn -0.99962574 0 0.027356738
vn -1 0 0
vn -1 0 0
vn 0.9996258 0 0.027355941
vn 0.9996258 0 0.027355941
vn 1 0 0
vn 1 0 0
g glass1_0
f 3/3/3 2/2/2 1/1/1
f 4/4/4 3/3/3 1/1/1
f 4/4/4 1/1/1 5/5/5
f 1/1/1 6/6/6 5/5/5
f 5/5/5 6/6/6 7/7/7
f 6/6/6 8/8/8 7/7/7
f 9/9/9 2/2/2 3/3/3
f 10/10/10 9/9/9 3/3/3
f 10/10/10 11/11/11 9/9/9
f 11/11/11 12/12/12 9/9/9
