g groundDisc
v 342.38065 0 -111.24611
v 4.2915344E-05 0 6.4373016E-05
v 291.24634 0 -211.60272
v 211.60284 0 -291.24628
v 111.246216 0 -342.3805
v 4.2915344E-05 0 -360.00012
v -111.246124 0 -342.38046
v -211.6027 0 -291.24615
v -291.24615 0 -211.60268
v -342.38037 0 -111.24607
v -360.00003 0 6.4373016E-05
v -342.38037 0 111.24621
v -291.24615 0 211.60278
v -211.60268 0 291.24628
v -111.24609 0 342.3805
v 3.2186508E-05 0 360.00012
v 111.24615 0 342.38046
v 211.6027 0 291.24622
v 291.24615 0 211.60275
v 342.38037 0 111.246185
v 360.00003 0 6.4373016E-05
vt 0.9755285 0.65450835
vt 0.5 0.49999988
vt 0.9045086 0.7938925
vt 0.7938926 0.9045085
vt 0.6545085 0.97552824
vt 0.5 0.9999999
vt 0.34549147 0.9755281
vt 0.20610738 0.90450835
vt 0.09549153 0.7938924
vt 0.02447176 0.65450835
vt 1.1920929E-07 0.49999988
vt 0.02447176 0.3454914
vt 0.09549153 0.20610726
vt 0.20610744 0.09549141
vt 0.34549153 0.0244717
vt 0.5 -2.9802322E-08
vt 0.6545085 0.02447176
vt 0.7938925 0.09549147
vt 0.90450835 0.20610732
vt 0.9755281 0.3454914
vt 0.99999976 0.49999988
vn -0 1 0
vn -0 1 0
vn -0 1 0
vn -0 1 0
vn -0 1 0
vn -0 1 0
vn -0 1 0
vn -0 1 0
vn -0 1 0
vn -0 1 0
vn -0 1 0
vn -0 1 0
vn -0 1 0
vn -0 1 0
vn -0 1 0
vn -0 1 0
vn -0 1 0
vn -0 1 0
vn -0 1 0
vn -0 1 0
vn -0 1 0
g groundDisc_0
f 3/3/3 2/2/2 1/1/1
f 4/4/4 2/2/2 3/3/3
f 5/5/5 2/2/2 4/4/4
f 6/6/6 2/2/2 5/5/5
f 7/7/7 2/2/2 6/6/6
f 8/8/8 2/2/2 7/7/7
f 9/9/9 2/2/2 8/8/8
f 10/10/10 2/2/2 9/9/9
f 11/11/11 2/2/2 10/10/10
f 12/12/12 2/2/2 11/11/11
f 13/13/13 2/2/2 12/12/12
f 14/14/14 2/2/2 13/13/13
f 15/15/15 2/2/2 14/14/14
f 16/16/16 2/2/2 15/15/15
f 17/17/17 2/2/2 16/16/16
f 18/18/18 2/2/2 17/17/17
f 19/19/19 2/2/2 18/18/18
f 20/20/20 2/2/2 19/19/19
f 21/21/21 2/2/2 20/20/20
f 1/1/1 2/2/2 21/21/21
