g m_gym_visit_field
v 0.87672406 -0.45 -0.28486443
v 0.87672406 -0.32366964 -0.28486443
v 0.7457831 -0.32366964 -0.5418462
v 0.7457831 -0.45 -0.5418462
v 0.5418462 -0.32366964 -0.745783
v 0.5418462 -0.45 -0.745783
v 0.28486443 -0.32366964 -0.876724
v 0.28486443 -0.45 -0.876724
v 5.0287326E-08 -0.32366964 -0.92184085
v 5.0287326E-08 -0.45 -0.92184085
v 0.92184067 -0.45 7.543122E-08
v 0.92184067 -0.32366964 7.543122E-08
v 0.87672377 -0.45 0.28486434
v 0.87672377 -0.32366964 0.28486434
v 0.7457865 -0.45 0.541846
v 0.7457865 -0.32366964 0.541846
v 0.541846 -0.45 0.74578655
v 0.541846 -0.32366964 0.74578655
v 0.2848643 -0.45 0.8767238
v 0.2848643 -0.32366964 0.8767238
v 2.2814334E-08 -0.45 0.9218407
v 2.2814334E-08 -0.32366964 0.9218407
v -0.28486437 -0.45 0.8767238
v -0.28486437 -0.32366964 0.8767238
v -0.5418461 -0.45 0.74578667
v -0.5418461 -0.32366964 0.74578655
v -0.7457867 -0.45 0.5418461
v -0.7457867 -0.32366964 0.5418461
v -0.8767238 -0.45 0.28486437
v -0.8767238 -0.32366964 0.28486437
v -0.9218408 -0.45 7.543122E-08
v -0.9218408 -0.32366964 7.543122E-08
v -0.8767238 -0.45 -0.28486437
v -0.8767238 -0.32366964 -0.28486437
v -0.74578285 -0.45 -0.5418461
v -0.74578285 -0.32366964 -0.5418461
v -0.5418461 -0.45 -0.7457829
v -0.5418461 -0.32366964 -0.7457829
v -0.28486443 -0.45 -0.876724
v -0.28486443 -0.32366964 -0.876724
v 5.0287326E-08 -0.45 -0.92184085
v 5.0287326E-08 -0.32366964 -0.92184085
v -0.7457867 0.33811572 0.5418461
v -0.5418461 0.33811572 0.74578655
v -0.5418461 0.45 0.74578667
v -0.28486437 0.45 0.8767238
v -0.2848644 0.33811572 0.8767238
v 2.2814334E-08 0.45 0.9218407
v 2.2814334E-08 0.33811572 0.9218407
v -0.7457867 0.45 0.5418461
v -0.8767238 0.33811572 0.2848644
v -0.8767238 0.45 0.28486437
v -0.9218408 0.33811572 7.543122E-08
v -0.9218408 0.45 7.543122E-08
v -0.8767238 0.33811572 -0.2848644
v -0.8767238 0.45 -0.28486437
v -0.74578285 0.33811572 -0.5418461
v -0.74578285 0.45 -0.5418461
v -0.5418461 0.33811572 -0.7457829
v -0.5418461 0.45 -0.7457829
v -0.28486443 0.33811572 -0.876724
v -0.28486443 0.45 -0.876724
v 5.0287326E-08 0.33811572 -0.92184085
v 5.0287326E-08 0.45 -0.92184085
v 0.28486443 0.33811572 -0.876724
v 0.28486443 0.45 -0.876724
v 5.0287326E-08 0.45 -0.92184085
v 5.0287326E-08 0.33811572 -0.92184085
v 0.5418462 0.33811572 -0.745783
v 0.5418462 0.45 -0.745783
v 0.7457831 0.33811572 -0.5418462
v 0.7457831 0.45 -0.5418462
v 0.87672406 0.33811572 -0.28486443
v 0.87672406 0.45 -0.28486443
v 0.92184067 0.33811572 7.543122E-08
v 0.92184067 0.45 7.543122E-08
v 0.87672377 0.33811572 0.28486434
v 0.87672377 0.45 0.28486434
v 0.7457865 0.33811572 0.541846
v 0.7457865 0.45 0.541846
v 0.541846 0.33811572 0.74578655
v 0.541846 0.45 0.74578655
v 0.2848643 0.33811572 0.8767238
v 0.2848643 0.45 0.8767238
vt 0.8000318 -0.040911198
vt 0.8000318 0.07871607
vt 0.8500323 0.07871607
vt 0.8500323 -0.040911198
vt 0.90003145 0.07871607
vt 0.90003145 -0.040911198
vt 0.950032 0.07871607
vt 0.950032 -0.040911198
vt 1.0000318 0.07871607
vt 1.0000318 -0.040911198
vt 0.7500318 -0.040911198
vt 0.7500318 0.07871607
vt 0.700032 -0.040911198
vt 0.700032 0.07871607
vt 0.65003186 -0.040911198
vt 0.65003186 0.07871607
vt 0.600032 -0.040911198
vt 0.600032 0.07871607
vt 0.55003184 -0.040911198
vt 0.55003184 0.07871607
vt 0.50003195 -0.040911198
vt 0.50003195 0.07871607
vt 0.450032 -0.040911198
vt 0.450032 0.07871607
vt 0.4000319 -0.040911198
vt 0.4000319 0.07871607
vt 0.35003197 -0.040911198
vt 0.35003197 0.07871607
vt 0.30003184 -0.040911198
vt 0.30003184 0.07871607
vt 0.25003195 -0.040911198
vt 0.25003195 0.07871607
vt 0.200032 -0.040911198
vt 0.200032 0.07871607
vt 0.15003148 -0.040911198
vt 0.15003148 0.07871607
vt 0.10003236 -0.040911198
vt 0.10003236 0.07871607
vt 0.05003184 -0.040911198
vt 0.05003184 0.07871607
vt 3.1888485E-05 -0.040911198
vt 3.1888485E-05 0.07871607
vt 0.35003197 0.93864846
vt 0.4000319 0.93864846
vt 0.4000319 1.0409112
vt 0.450032 1.0409112
vt 0.450032 0.93864846
vt 0.50003195 1.0409112
vt 0.50003195 0.93864846
vt 0.35003197 1.0409112
vt 0.30003184 0.93864846
vt 0.30003184 1.0409112
vt 0.25003195 0.93864846
vt 0.25003195 1.0409112
vt 0.200032 0.93864846
vt 0.200032 1.0409112
vt 0.15003148 0.93864846
vt 0.15003148 1.0409112
vt 0.10003236 0.93864846
vt 0.10003236 1.0409112
vt 0.05003184 0.93864846
vt 0.05003184 1.0409112
vt 3.1888485E-05 0.93864846
vt 3.1888485E-05 1.0409112
vt 0.950032 0.93864846
vt 0.950032 1.0409112
vt 1.0000318 1.0409112
vt 1.0000318 0.93864846
vt 0.90003145 0.93864846
vt 0.90003145 1.0409112
vt 0.8500323 0.93864846
vt 0.8500323 1.0409112
vt 0.8000318 0.93864846
vt 0.8000318 1.0409112
vt 0.7500318 0.93864846
vt 0.7500318 1.0409112
vt 0.700032 0.93864846
vt 0.700032 1.0409112
vt 0.65003186 0.93864846
vt 0.65003186 1.0409112
vt 0.600032 0.93864846
vt 0.600032 1.0409112
vt 0.55003184 0.93864846
vt 0.55003184 1.0409112
vn 0.95105594 0 -0.3090187
vn 0.95105594 0 -0.30901864
vn 0.8090162 0 -0.5877863
vn 0.8090162 0 -0.5877863
vn 0.58778626 0 -0.80901635
vn 0.5877862 0 -0.80901635
vn 0.30901924 0 -0.95105577
vn 0.30901915 0 -0.95105577
vn -0 0 -1
vn -0 0 -1
vn 1 0 5.2636744E-07
vn 1 0 5.278759E-07
vn 0.9510577 0 0.30901337
vn 0.9510577 0 0.3090134
vn 0.80901855 0 0.5877831
vn 0.80901855 0 0.58778316
vn 0.5877834 0 0.8090183
vn 0.58778334 0 0.8090184
vn 0.3090135 0 0.9510576
vn 0.3090135 0 0.9510576
vn -0 0 1
vn -0 0 1
vn -0.3090133 1.503594E-07 0.9510577
vn -0.3090134 0 0.9510577
vn -0.587783 3.1996223E-07 0.8090187
vn -0.5877831 0 0.80901855
vn -0.80901855 1.6960287E-07 0.58778316
vn -0.80901855 0 0.5877832
vn -0.95105773 0 0.30901325
vn -0.95105773 0 0.3090132
vn -1 0 0
vn -1 0 0
vn -0.95105577 0 -0.30901933
vn -0.95105577 0 -0.3090193
vn -0.8090162 0 -0.58778626
vn -0.80901635 0 -0.5877862
vn -0.5877864 0 -0.80901617
vn -0.58778644 0 -0.8090161
vn -0.3090193 0 -0.95105577
vn -0.3090194 0 -0.95105577
vn -0 0 -1
vn -0 0 -1
vn -0.80901855 0 0.5877832
vn -0.5877831 0 0.80901855
vn -0.5877829 -2.6552382E-07 0.8090187
vn -0.30901325 0 0.95105773
vn -0.30901337 0 0.9510577
vn -0 0 1
vn -0 0 1
vn -0.8090185 0 0.5877833
vn -0.95105773 0 0.30901328
vn -0.95105773 2.6233414E-07 0.30901328
vn -1 0 0
vn -1 -2.6233468E-07 0
vn -0.95105577 0 -0.30901933
vn -0.95105577 -2.6233354E-07 -0.30901927
vn -0.80901635 0 -0.5877862
vn -0.80901635 0 -0.5877862
vn -0.5877865 0 -0.8090161
vn -0.5877865 0 -0.80901605
vn -0.30901933 0 -0.95105577
vn -0.30901933 0 -0.95105577
vn -0 0 -1
vn -0 0 -1
vn 0.30901918 0 -0.95105577
vn 0.30901915 0 -0.95105577
vn -0 0 -1
vn -0 0 -1
vn 0.58778626 0 -0.80901635
vn 0.58778626 0 -0.8090162
vn 0.8090162 0 -0.58778626
vn 0.80901617 0 -0.5877863
vn 0.95105594 0 -0.30901864
vn 0.95105594 0 -0.30901864
vn 1 0 5.2891716E-07
vn 1 0 5.486124E-07
vn 0.9510577 0 0.3090134
vn 0.9510577 0 0.3090134
vn 0.80901855 0 0.58778316
vn 0.80901855 0 0.5877831
vn 0.58778334 0 0.8090184
vn 0.5877833 0 0.8090185
vn 0.30901346 0 0.9510577
vn 0.3090133 0 0.9510577
g m_gym_visit_field_0
f 3/3/3 2/2/2 1/1/1
f 4/4/4 3/3/3 1/1/1
f 5/5/5 3/3/3 4/4/4
f 6/6/6 5/5/5 4/4/4
f 7/7/7 5/5/5 6/6/6
f 8/8/8 7/7/7 6/6/6
f 9/9/9 7/7/7 8/8/8
f 10/10/10 9/9/9 8/8/8
f 1/1/1 2/2/2 11/11/11
f 2/2/2 12/12/12 11/11/11
f 11/11/11 12/12/12 13/13/13
f 12/12/12 14/14/14 13/13/13
f 13/13/13 14/14/14 15/15/15
f 14/14/14 16/16/16 15/15/15
f 15/15/15 16/16/16 17/17/17
f 16/16/16 18/18/18 17/17/17
f 17/17/17 18/18/18 19/19/19
f 18/18/18 20/20/20 19/19/19
f 19/19/19 20/20/20 21/21/21
f 20/20/20 22/22/22 21/21/21
f 21/21/21 22/22/22 23/23/23
f 22/22/22 24/24/24 23/23/23
f 23/23/23 24/24/24 25/25/25
f 24/24/24 26/26/26 25/25/25
f 25/25/25 26/26/26 27/27/27
f 26/26/26 28/28/28 27/27/27
f 27/27/27 28/28/28 29/29/29
f 28/28/28 30/30/30 29/29/29
f 29/29/29 30/30/30 31/31/31
f 30/30/30 32/32/32 31/31/31
f 31/31/31 32/32/32 33/33/33
f 32/32/32 34/34/34 33/33/33
f 33/33/33 34/34/34 35/35/35
f 34/34/34 36/36/36 35/35/35
f 35/35/35 36/36/36 37/37/37
f 36/36/36 38/38/38 37/37/37
f 37/37/37 38/38/38 39/39/39
f 38/38/38 40/40/40 39/39/39
f 39/39/39 40/40/40 41/41/41
f 40/40/40 42/42/42 41/41/41
f 28/28/28 43/43/43 30/30/30
f 44/44/44 43/43/43 28/28/28
f 44/44/44 45/45/45 43/43/43
f 46/46/46 45/45/45 44/44/44
f 47/47/47 46/46/46 44/44/44
f 48/48/48 46/46/46 47/47/47
f 49/49/49 48/48/48 47/47/47
f 45/45/45 50/50/50 43/43/43
f 43/43/43 50/50/50 51/51/51
f 50/50/50 52/52/52 51/51/51
f 51/51/51 52/52/52 53/53/53
f 52/52/52 54/54/54 53/53/53
f 53/53/53 54/54/54 55/55/55
f 54/54/54 56/56/56 55/55/55
f 55/55/55 56/56/56 57/57/57
f 56/56/56 58/58/58 57/57/57
f 57/57/57 58/58/58 59/59/59
f 58/58/58 60/60/60 59/59/59
f 59/59/59 60/60/60 61/61/61
f 60/60/60 62/62/62 61/61/61
f 61/61/61 62/62/62 63/63/63
f 62/62/62 64/64/64 63/63/63
f 51/51/51 53/53/53 32/32/32
f 30/30/30 51/51/51 32/32/32
f 43/43/43 51/51/51 30/30/30
f 53/53/53 55/55/55 34/34/34
f 32/32/32 53/53/53 34/34/34
f 55/55/55 57/57/57 36/36/36
f 34/34/34 55/55/55 36/36/36
f 57/57/57 59/59/59 38/38/38
f 36/36/36 57/57/57 38/38/38
f 59/59/59 61/61/61 40/40/40
f 38/38/38 59/59/59 40/40/40
f 61/61/61 63/63/63 42/42/42
f 40/40/40 61/61/61 42/42/42
f 67/67/67 66/66/66 65/65/65
f 68/68/68 67/67/67 65/65/65
f 65/65/65 66/66/66 69/69/69
f 66/66/66 70/70/70 69/69/69
f 69/69/69 70/70/70 71/71/71
f 70/70/70 72/72/72 71/71/71
f 71/71/71 72/72/72 73/73/73
f 72/72/72 74/74/74 73/73/73
f 73/73/73 74/74/74 75/75/75
f 74/74/74 76/76/76 75/75/75
f 75/75/75 76/76/76 77/77/77
f 76/76/76 78/78/78 77/77/77
f 77/77/77 78/78/78 79/79/79
f 78/78/78 80/80/80 79/79/79
f 79/79/79 80/80/80 81/81/81
f 80/80/80 82/82/82 81/81/81
f 81/81/81 82/82/82 83/83/83
f 82/82/82 84/84/84 83/83/83
f 83/83/83 84/84/84 49/49/49
f 84/84/84 48/48/48 49/49/49
f 71/71/71 73/73/73 2/2/2
f 3/3/3 71/71/71 2/2/2
f 69/69/69 71/71/71 3/3/3
f 5/5/5 69/69/69 3/3/3
f 65/65/65 69/69/69 5/5/5
f 7/7/7 65/65/65 5/5/5
f 68/68/68 65/65/65 7/7/7
f 9/9/9 68/68/68 7/7/7
f 81/81/81 83/83/83 20/20/20
f 18/18/18 81/81/81 20/20/20
f 83/83/83 49/49/49 22/22/22
f 20/20/20 83/83/83 22/22/22
f 22/22/22 49/49/49 24/24/24
f 49/49/49 47/47/47 24/24/24
f 24/24/24 47/47/47 26/26/26
f 47/47/47 44/44/44 26/26/26
f 26/26/26 44/44/44 28/28/28
f 79/79/79 81/81/81 18/18/18
f 16/16/16 79/79/79 18/18/18
f 77/77/77 79/79/79 16/16/16
f 14/14/14 77/77/77 16/16/16
f 75/75/75 77/77/77 14/14/14
f 12/12/12 75/75/75 14/14/14
f 73/73/73 75/75/75 12/12/12
f 2/2/2 73/73/73 12/12/12
