g mesh_groundcrack02
v -6.055832E-09 0.051094823 0.058321692
v -8.474895E-09 0.1653463 0.0583217
v 0.09718812 0.13376798 0.058321707
v 0.15725368 0.051094826 0.058321692
v -0.09718815 0.13376792 0.058321707
v 0.15725368 -0.051094804 0.058321692
v -0.15725368 0.051094815 0.058321692
v -6.055832E-09 -0.051094804 0.058321692
v 0.09718812 -0.13376795 0.058321677
v -0.15725368 -0.051094808 0.058321692
v -8.474895E-09 -0.16534632 0.058321692
v -0.09718813 -0.13376795 0.058321677
v -1.7533758E-08 0.40970412 -4.568226E-07
v 0.24081805 0.33145759 -4.568226E-07
v 0.15479523 0.21305732 0.030867083
v -1.14055325E-08 0.2633534 0.030867068
v 0.25046393 0.081380665 0.030867092
v -0.2408181 0.3314575 -4.568226E-07
v 0.38965178 0.12660551 -4.568226E-07
v -0.15479526 0.21305725 0.030867083
v 0.25046393 -0.08138066 0.030867068
v -0.38965178 0.12660551 -4.568226E-07
v 0.38965178 -0.12660554 -4.5682253E-07
v -0.2504639 0.081380665 0.030867092
v 0.15479523 -0.21305732 0.030867081
v -0.38965175 -0.12660554 -4.5682253E-07
v 0.24081805 -0.33145759 -4.568225E-07
v -0.2504639 -0.08138066 0.030867068
v -1.14055325E-08 -0.2633534 0.03086709
v -0.240818 -0.33145759 -4.568225E-07
v -1.7533758E-08 -0.40970412 -4.568225E-07
v -0.15479521 -0.21305732 0.030867081
v -1.14055325E-08 0.2633534 0.030867068
v 0.09718812 0.13376798 0.058321707
v -8.474895E-09 0.1653463 0.0583217
v 0.15479523 0.21305732 0.030867083
v -0.15479526 0.21305725 0.030867083
v 0.15725368 0.051094826 0.058321692
v -0.09718815 0.13376792 0.058321707
v 0.25046393 0.081380665 0.030867092
v -0.2504639 0.081380665 0.030867092
v 0.15725368 -0.051094804 0.058321692
v -0.15725368 0.051094815 0.058321692
v 0.25046393 -0.08138066 0.030867068
v -0.2504639 -0.08138066 0.030867068
v 0.09718812 -0.13376795 0.058321677
v -0.15725368 -0.051094808 0.058321692
v 0.15479523 -0.21305732 0.030867081
v -0.15479521 -0.21305732 0.030867081
v -8.474895E-09 -0.16534632 0.058321692
v -0.09718813 -0.13376795 0.058321677
v -1.14055325E-08 -0.2633534 0.03086709
vt 0.5 0.55871177
vt 0.5 0.69046056
vt 0.6105406 0.6533564
vt 0.67976594 0.55856067
vt 0.3894593 0.6533563
vt 0.6797658 0.44143617
vt 0.32023406 0.55856067
vt 0.5 0.44128507
vt 0.61054075 0.34664005
vt 0.32023403 0.44143614
vt 0.5 0.30953583
vt 0.38945934 0.3466401
vt 0.5 0.9797123
vt 0.78195167 0.88657475
vt 0.6795324 0.7476972
vt 0.5 0.8075002
vt 0.78974783 0.5944251
vt 0.2180482 0.8865746
vt 0.9534836 0.6467374
vt 0.3204674 0.74769706
vt 0.78974783 0.40557158
vt 0.046516497 0.6467373
vt 0.9534836 0.35325918
vt 0.2102523 0.59442496
vt 0.6795324 0.25229925
vt 0.046516534 0.35325906
vt 0.78195167 0.113421485
vt 0.21025229 0.40557152
vt 0.5 0.19249594
vt 0.21804833 0.11342146
vt 0.5 0.020283382
vt 0.32046753 0.25229922
vt 0.5 0.8075002
vt 0.6105406 0.6533564
vt 0.5 0.69046056
vt 0.6795324 0.7476972
vt 0.3204674 0.74769706
vt 0.67976594 0.55856067
vt 0.3894593 0.6533563
vt 0.78974783 0.5944251
vt 0.2102523 0.59442496
vt 0.6797658 0.44143617
vt 0.32023406 0.55856067
vt 0.78974783 0.40557158
vt 0.21025229 0.40557152
vt 0.61054075 0.34664005
vt 0.32023403 0.44143614
vt 0.6795324 0.25229925
vt 0.32046753 0.25229922
vt 0.5 0.30953583
vt 0.38945934 0.3466401
vt 0.5 0.19249594
vn -0 0 1
vn -0 0 1
vn -0 0 1
vn -0 0 1
vn -0 0 1
vn -0 0 1
vn -0 0 1
vn -0 0 1
vn -0 0 1
vn -0 0 1
vn -0 0 1
vn -0 0 1
vn -0 0.20637442 0.97847307
vn 0.121303834 0.1669604 0.97847307
vn 0.121303834 0.1669604 0.97847307
vn -0 0.20637442 0.9784732
vn 0.19627374 0.06377321 0.97847307
vn -0.121303886 0.16696042 0.97847307
vn 0.19627374 0.063773185 0.97847307
vn -0.1213039 0.16696043 0.97847307
vn 0.19627373 -0.063773215 0.97847307
vn -0.19627373 0.06377318 0.97847307
vn 0.19627373 -0.06377321 0.97847307
vn -0.19627373 0.0637732 0.97847307
vn 0.121303864 -0.1669604 0.97847307
vn -0.19627373 -0.06377322 0.9784732
vn 0.121303864 -0.16696042 0.97847307
vn -0.19627371 -0.063773215 0.97847307
vn -0 -0.20637448 0.97847307
vn -0.121303886 -0.16696042 0.97847307
vn -0 -0.20637445 0.97847307
vn -0.12130387 -0.16696039 0.97847307
vn -0 0.26974514 0.96293175
vn 0.15855217 0.21822844 0.96293175
vn -0 0.26974514 0.96293175
vn 0.15855217 0.21822841 0.96293175
vn -0.15855224 0.21822841 0.96293175
vn 0.25654283 0.08335577 0.96293175
vn -0.15855223 0.21822841 0.96293175
vn 0.2565428 0.08335577 0.96293175
vn -0.25654292 0.08335579 0.96293175
vn 0.25654277 -0.08335586 0.96293175
vn -0.25654292 0.08335578 0.96293175
vn 0.2565428 -0.08335587 0.96293175
vn -0.2565429 -0.083355896 0.96293175
vn 0.1585522 -0.21822824 0.96293175
vn -0.25654286 -0.083355874 0.96293175
vn 0.1585522 -0.21822824 0.96293175
vn -0.15855223 -0.21822831 0.96293175
vn -0 -0.26974487 0.96293175
vn -0.15855227 -0.21822827 0.96293175
vn -0 -0.26974487 0.96293175
g mesh_groundcrack02_0
f 3/3/3 2/2/2 1/1/1
f 4/4/4 3/3/3 1/1/1
f 1/1/1 2/2/2 5/5/5
f 4/4/4 1/1/1 6/6/6
f 7/7/7 1/1/1 5/5/5
f 1/1/1 8/8/8 6/6/6
f 8/8/8 1/1/1 7/7/7
f 6/6/6 8/8/8 9/9/9
f 10/10/10 8/8/8 7/7/7
f 8/8/8 11/11/11 9/9/9
f 10/10/10 12/12/12 8/8/8
f 12/12/12 11/11/11 8/8/8
f 15/15/15 14/14/14 13/13/13
f 16/16/16 15/15/15 13/13/13
f 15/15/15 17/17/17 14/14/14
f 16/16/16 13/13/13 18/18/18
f 17/17/17 19/19/19 14/14/14
f 20/20/20 16/16/16 18/18/18
f 17/17/17 21/21/21 19/19/19
f 20/20/20 18/18/18 22/22/22
f 21/21/21 23/23/23 19/19/19
f 24/24/24 20/20/20 22/22/22
f 21/21/21 25/25/25 23/23/23
f 24/24/24 22/22/22 26/26/26
f 25/25/25 27/27/27 23/23/23
f 28/28/28 24/24/24 26/26/26
f 25/25/25 29/29/29 27/27/27
f 28/28/28 26/26/26 30/30/30
f 29/29/29 31/31/31 27/27/27
f 32/32/32 28/28/28 30/30/30
f 32/32/32 30/30/30 31/31/31
f 29/29/29 32/32/32 31/31/31
f 35/35/35 34/34/34 33/33/33
f 34/34/34 36/36/36 33/33/33
f 35/35/35 33/33/33 37/37/37
f 34/34/34 38/38/38 36/36/36
f 39/39/39 35/35/35 37/37/37
f 38/38/38 40/40/40 36/36/36
f 39/39/39 37/37/37 41/41/41
f 38/38/38 42/42/42 40/40/40
f 43/43/43 39/39/39 41/41/41
f 42/42/42 44/44/44 40/40/40
f 43/43/43 41/41/41 45/45/45
f 42/42/42 46/46/46 44/44/44
f 47/47/47 43/43/43 45/45/45
f 46/46/46 48/48/48 44/44/44
f 47/47/47 45/45/45 49/49/49
f 46/46/46 50/50/50 48/48/48
f 51/51/51 47/47/47 49/49/49
f 50/50/50 52/52/52 48/48/48
f 51/51/51 49/49/49 52/52/52
f 50/50/50 51/51/51 52/52/52
