g mesh_ring_splash
v 0.22519201 -0.09327746 0.16399725
v 0.23906253 -0.047552373 0.16399726
v 0.15769945 -0.06532117 -0.0036748587
v 0.16741286 -0.03330037 -0.0036748778
v 0.14192584 -0.09483168 -0.0036748587
v 0.20266747 -0.13541795 0.16399723
v 0.12069808 -0.12069792 -0.0036748778
v 0.17235456 -0.17235439 0.1639973
v 0.13541816 -0.20266737 0.16399732
v 0.09483184 -0.14192571 -0.0036748778
v 0.09327769 -0.22519197 0.16399732
v 0.065321356 -0.15769935 -0.0036748778
v 0.047552608 -0.23906253 0.1639973
v 0.03330058 -0.16741273 -0.0036748778
v 1.089631E-07 -0.24374609 0.16399732
v 9.585008E-08 -0.17069265 -0.0036748778
v -0.03330038 -0.16741277 -0.0036748778
v -0.047552396 -0.23906259 0.16399732
v -0.06532119 -0.15769939 -0.0036748778
v -0.09327749 -0.22519207 0.1639973
v -0.09483168 -0.14192581 -0.0036748778
v -0.135418 -0.20266753 0.1639973
v -0.12069792 -0.12069803 -0.0036748778
v -0.17235446 -0.17235458 0.1639973
v -0.20266744 -0.13541818 0.16399723
v -0.14192571 -0.09483189 -0.0036748683
v -0.22519203 -0.09327769 0.16399725
v -0.15769938 -0.065321304 -0.0036748683
v -0.2390626 -0.047552593 0.16399726
v -0.16741279 -0.03330054 -0.0036748778
v -0.24374616 -7.987022E-08 0.16399726
v -0.17069271 -2.8610229E-08 -0.003674873
v -0.16741279 0.033300485 -0.0036748683
v -0.23906267 0.047552448 0.16399726
v -0.15769944 0.06532131 -0.0036748492
v -0.22519214 0.09327756 0.16399723
v -0.14192581 0.09483184 -0.0036748587
v -0.2026676 0.13541807 0.16399723
v -0.120698065 0.12069808 -0.0036748778
v -0.17235464 0.17235455 0.1639973
v -0.13541818 0.20266753 0.1639973
v -0.094831906 0.14192587 -0.0036748778
v -0.09327768 0.22519213 0.16399732
v -0.0653213 0.15769951 -0.0036748778
v -0.04755257 0.23906271 0.16399732
v -0.033300523 0.1674129 -0.0036748778
v -3.9953132E-08 0.24374624 0.16399732
v -8.958718E-09 0.17069282 -0.0036748778
v 0.033300504 0.16741295 -0.0036748778
v 0.0475525 0.23906274 0.16399732
v 0.065321326 0.15769954 -0.0036748778
v 0.093277626 0.2251922 0.16399732
v 0.09483184 0.14192587 -0.0036748778
v 0.13541815 0.20266764 0.16399732
v 0.12069808 0.12069812 -0.0036748778
v 0.17235462 0.17235467 0.16399732
v 0.20266761 0.1354182 0.16399723
v 0.14192587 0.09483188 -0.0036748587
v 0.22519222 0.09327767 0.16399723
v 0.15769954 0.065321356 -0.0036748492
v 0.23906279 0.047552545 0.16399726
v 0.16741295 0.033300534 -0.0036748778
v 0.24374631 0 0.16399726
v 0.17069286 1.9073486E-08 -0.003674876
vt 0.40245426 0.9903927
vt 0.4999994 1.0000001
vt 0.47028276 0.64939755
vt 0.4999998 0.6523245
vt 0.44170782 0.6407295
vt 0.30865782 0.9619397
vt 0.41537297 0.62665325
vt 0.22221458 0.91573477
vt 0.14644635 0.8535534
vt 0.3922903 0.6077097
vt 0.037650105 0.80627185
vt 0.37334692 0.58462703
vt 0.03806007 0.69134164
vt 0.3592707 0.5582921
vt 0.009607196 0.597545
vt 0.3506025 0.5297172
vt 0.3476757 0.5000001
vt -8.940697E-08 0.49999994
vt 0.35060263 0.47028312
vt 0.009607315 0.40245473
vt 0.35927066 0.44170818
vt 0.038060248 0.30865818
vt 0.37334692 0.41537327
vt 0.08426535 0.22221476
vt 0.1464467 0.14644647
vt 0.3922904 0.39229065
vt 0.222215 0.08426511
vt 0.41537318 0.3733472
vt 0.30865842 0.03806019
vt 0.44170803 0.35927096
vt 0.40245497 0.009607375
vt 0.47028303 0.35060275
vt 0.5 0.347676
vt 0.50000024 5.9604645E-08
vt 0.529717 0.35060287
vt 0.5975454 0.009607434
vt 0.55829203 0.35927096
vt 0.6913419 0.038060427
vt 0.5846269 0.3733472
vt 0.7777853 0.08426547
vt 0.85355353 0.146447
vt 0.6077095 0.3922907
vt 0.9157349 0.22221541
vt 0.62665296 0.4153735
vt 0.9947491 0.29900908
vt 0.6407292 0.4417084
vt 0.9903927 0.40245545
vt 0.6493974 0.4702834
vt 0.6523242 0.5000004
vt 0.9999999 0.50000083
vt 0.64939725 0.5297175
vt 0.99039245 0.597546
vt 0.6407291 0.5582924
vt 0.9619396 0.6913426
vt 0.6266529 0.5846273
vt 0.9157345 0.777786
vt 0.85355294 0.85355437
vt 0.6077094 0.60770994
vt 0.7777846 0.9157357
vt 0.5846266 0.62665343
vt 0.695201 0.97545034
vt 0.5582917 0.64072967
vt 0.59754443 0.9903934
vt 0.52971673 0.64939785
vn 0.84698063 -0.35083026 -0.39942694
vn 0.8991491 -0.17885448 -0.39942703
vn 0.84698063 -0.35083026 -0.39942694
vn 0.8991491 -0.17885448 -0.39942703
vn 0.7622629 -0.5093264 -0.39942697
vn 0.7622629 -0.5093264 -0.39942697
vn 0.648251 -0.6482507 -0.3994268
vn 0.648251 -0.6482507 -0.3994268
vn 0.5093273 -0.76226234 -0.39942688
vn 0.5093273 -0.76226234 -0.39942688
vn 0.35083088 -0.84698015 -0.39942735
vn 0.35083088 -0.84698015 -0.39942735
vn 0.1788527 -0.89914924 -0.39942744
vn 0.1788527 -0.89914924 -0.39942744
vn 5.124411E-07 -0.91676486 -0.39942735
vn 5.124411E-07 -0.91676486 -0.39942735
vn -0.1788518 -0.8991494 -0.39942747
vn -0.1788518 -0.8991494 -0.39942747
vn -0.35082972 -0.84698063 -0.3994275
vn -0.35082972 -0.84698063 -0.3994275
vn -0.50932634 -0.76226276 -0.39942724
vn -0.50932634 -0.76226276 -0.39942724
vn -0.64825 -0.6482515 -0.39942703
vn -0.64825 -0.6482515 -0.39942703
vn -0.7622621 -0.50932723 -0.39942738
vn -0.7622621 -0.50932723 -0.39942738
vn -0.8469802 -0.35083055 -0.39942762
vn -0.8469802 -0.35083055 -0.39942762
vn -0.8991492 -0.17885293 -0.39942762
vn -0.8991492 -0.17885293 -0.39942762
vn -0.91676474 -2.0946497E-07 -0.39942762
vn -0.91676474 -2.0946497E-07 -0.39942762
vn -0.89914936 0.17885184 -0.39942768
vn -0.89914936 0.17885184 -0.39942768
vn -0.8469806 0.35082945 -0.39942783
vn -0.8469806 0.35082945 -0.39942783
vn -0.7622627 0.5093263 -0.3994274
vn -0.7622627 0.5093263 -0.3994274
vn -0.6482512 0.6482504 -0.39942685
vn -0.6482512 0.6482504 -0.39942685
vn -0.509327 0.76226246 -0.39942703
vn -0.509327 0.76226246 -0.39942703
vn -0.3508304 0.8469804 -0.39942738
vn -0.3508304 0.8469804 -0.39942738
vn -0.17885278 0.89914924 -0.3994274
vn -0.17885278 0.89914924 -0.3994274
vn -4.5259387E-07 0.91676486 -0.39942726
vn -4.5259387E-07 0.91676486 -0.39942726
vn 0.178852 0.89914954 -0.3994273
vn 0.178852 0.89914954 -0.3994273
vn 0.35083044 0.8469804 -0.39942738
vn 0.35083044 0.8469804 -0.39942738
vn 0.50932664 0.7622626 -0.39942724
vn 0.50932664 0.7622626 -0.39942724
vn 0.6482502 0.6482512 -0.39942712
vn 0.6482502 0.6482512 -0.39942712
vn 0.76226217 0.5093272 -0.39942735
vn 0.76226217 0.5093272 -0.39942735
vn 0.8469803 0.35083026 -0.39942777
vn 0.8469803 0.35083026 -0.39942777
vn 0.8991493 0.17885198 -0.39942765
vn 0.8991493 0.17885198 -0.39942765
vn 0.9167648 -2.019841E-06 -0.39942747
vn 0.9167648 -2.019841E-06 -0.39942747
g mesh_ring_splash_0
f 3/3/3 2/2/2 1/1/1
f 3/3/3 4/4/4 2/2/2
f 5/5/5 3/3/3 1/1/1
f 5/5/5 1/1/1 6/6/6
f 7/7/7 5/5/5 6/6/6
f 7/7/7 6/6/6 8/8/8
f 7/7/7 8/8/8 9/9/9
f 9/9/9 10/10/10 7/7/7
f 10/10/10 9/9/9 11/11/11
f 11/11/11 12/12/12 10/10/10
f 12/12/12 11/11/11 13/13/13
f 13/13/13 14/14/14 12/12/12
f 14/14/14 13/13/13 15/15/15
f 15/15/15 16/16/16 14/14/14
f 17/17/17 16/16/16 15/15/15
f 15/15/15 18/18/18 17/17/17
f 19/19/19 17/17/17 18/18/18
f 19/19/19 18/18/18 20/20/20
f 21/21/21 19/19/19 20/20/20
f 21/21/21 20/20/20 22/22/22
f 23/23/23 21/21/21 22/22/22
f 23/23/23 22/22/22 24/24/24
f 23/23/23 24/24/24 25/25/25
f 25/25/25 26/26/26 23/23/23
f 26/26/26 25/25/25 27/27/27
f 27/27/27 28/28/28 26/26/26
f 28/28/28 27/27/27 29/29/29
f 29/29/29 30/30/30 28/28/28
f 30/30/30 29/29/29 31/31/31
f 31/31/31 32/32/32 30/30/30
f 33/33/33 32/32/32 31/31/31
f 33/33/33 31/31/31 34/34/34
f 35/35/35 33/33/33 34/34/34
f 35/35/35 34/34/34 36/36/36
f 37/37/37 35/35/35 36/36/36
f 37/37/37 36/36/36 38/38/38
f 39/39/39 37/37/37 38/38/38
f 39/39/39 38/38/38 40/40/40
f 39/39/39 40/40/40 41/41/41
f 41/41/41 42/42/42 39/39/39
f 42/42/42 41/41/41 43/43/43
f 43/43/43 44/44/44 42/42/42
f 44/44/44 43/43/43 45/45/45
f 45/45/45 46/46/46 44/44/44
f 46/46/46 45/45/45 47/47/47
f 47/47/47 48/48/48 46/46/46
f 49/49/49 48/48/48 47/47/47
f 49/49/49 47/47/47 50/50/50
f 51/51/51 49/49/49 50/50/50
f 51/51/51 50/50/50 52/52/52
f 53/53/53 51/51/51 52/52/52
f 53/53/53 52/52/52 54/54/54
f 55/55/55 53/53/53 54/54/54
f 55/55/55 54/54/54 56/56/56
f 55/55/55 56/56/56 57/57/57
f 57/57/57 58/58/58 55/55/55
f 58/58/58 57/57/57 59/59/59
f 59/59/59 60/60/60 58/58/58
f 60/60/60 59/59/59 61/61/61
f 61/61/61 62/62/62 60/60/60
f 62/62/62 61/61/61 63/63/63
f 63/63/63 64/64/64 62/62/62
f 4/4/4 64/64/64 63/63/63
f 4/4/4 63/63/63 2/2/2
