g mesh_horn_solid
v 0.022458114 0.022458073 -0.10093728
v 0.01757576 0.017575732 -0.10781939
v 0.02296383 0.009511916 -0.10781939
v 0.009511957 0.022963826 -0.10781939
v 0.01757576 0.017575732 -0.10781939
v 0.022458114 0.022458073 -0.10093728
v 3.8146972E-08 0.031760562 -0.1009373
v 2.8610229E-08 0.024855878 -0.10781939
v 0.022458114 0.022458073 -0.10093728
v 0.012154274 0.02934292 -0.1009373
v 3.8146972E-08 0.031760562 -0.1009373
v -0.0095119 0.022963826 -0.10781939
v -0.022458056 0.022458104 -0.100937314
v -0.017575722 0.017575752 -0.10781939
v -0.022963809 0.0095119355 -0.10781939
v -0.017575722 0.017575752 -0.10781939
v -0.022458056 0.022458104 -0.100937314
v -0.022963809 -0.009511923 -0.10781939
v -0.022458056 -0.022458086 -0.100937314
v -0.017575722 -0.01757574 -0.10781939
v -0.009511919 -0.022963833 -0.10781939
v -0.017575722 -0.01757574 -0.10781939
v -0.022458056 -0.022458086 -0.100937314
v 0.022458076 -0.02245808 -0.10093728
v 0.01757576 -0.01757574 -0.10781939
v 0.009511948 -0.022963833 -0.10781939
v 0.02296383 -0.0095119355 -0.10781939
v 0.01757576 -0.01757574 -0.10781939
v 0.022458076 -0.02245808 -0.10093728
v -0.022963809 -0.009511923 -0.10781939
v -0.017575722 -0.01757574 -0.10781939
v 1.9073486E-08 4.310078E-09 -0.10781942
v -0.024855861 6.241073E-09 -0.10781939
v 1.9073486E-08 4.310078E-09 -0.10781942
v 0.01757576 0.017575732 -0.10781939
v 1.9073486E-08 4.310078E-09 -0.10781942
v 0.02296383 0.009511916 -0.10781939
v 1.9073486E-08 4.310078E-09 -0.10781942
v 0.02485588 -2.648087E-09 -0.10781939
v 1.9073486E-08 4.310078E-09 -0.10781942
v 0.02296383 -0.0095119355 -0.10781939
v 0.02485588 -2.648087E-09 -0.10781939
v 1.9073486E-08 4.310078E-09 -0.10781942
v 0.01757576 -0.01757574 -0.10781939
v 1.9073486E-08 4.310078E-09 -0.10781942
v 0.009511948 -0.022963833 -0.10781939
v 0.01757576 -0.01757574 -0.10781939
v 1.9073486E-08 4.310078E-09 -0.10781942
v 1.9073486E-08 -0.024855886 -0.10781939
v 1.9073486E-08 4.310078E-09 -0.10781942
v -0.009511919 -0.022963833 -0.10781939
v 1.9073486E-08 -0.024855886 -0.10781939
v 1.9073486E-08 4.310078E-09 -0.10781942
v -0.017575722 -0.01757574 -0.10781939
v -0.022963809 0.0095119355 -0.10781939
v -0.024855861 6.241073E-09 -0.10781939
v 1.9073486E-08 4.310078E-09 -0.10781942
v -0.017575722 0.017575752 -0.10781939
v 1.9073486E-08 4.310078E-09 -0.10781942
v -0.0095119 0.022963826 -0.10781939
v -0.017575722 0.017575752 -0.10781939
v 1.9073486E-08 4.310078E-09 -0.10781942
v 2.8610229E-08 0.024855878 -0.10781939
v 1.9073486E-08 4.310078E-09 -0.10781942
v 0.009511957 0.022963826 -0.10781939
v 2.8610229E-08 0.024855878 -0.10781939
v 1.9073486E-08 4.310078E-09 -0.10781942
v 0.01757576 0.017575732 -0.10781939
v 1.9073486E-08 4.310078E-09 -0.10781942
v 0.022458114 0.022458073 -0.10093728
v 0.02296383 0.009511916 -0.10781939
v 0.029342918 0.01215422 -0.10093728
v 0.029342918 0.01215422 -0.10093728
v 0.02485588 -2.648087E-09 -0.10781939
v 0.03176056 -1.8295946E-09 -0.10093728
v 2.8610229E-08 0.024855878 -0.10781939
v -0.012154207 0.029342923 -0.10093731
v -0.0095119 0.022963826 -0.10781939
v 3.8146972E-08 0.031760562 -0.1009373
v -0.012154207 0.029342923 -0.10093731
v -0.022458056 0.022458104 -0.100937314
v -0.022458056 0.022458104 -0.100937314
v -0.029342908 0.012154248 -0.100937314
v -0.022963809 0.0095119355 -0.10781939
v -0.03176056 9.528872E-09 -0.10093733
v -0.024855861 6.241073E-09 -0.10781939
v -0.029342908 0.012154248 -0.100937314
v -0.029342908 -0.012154227 -0.100937314
v -0.022963809 -0.009511923 -0.10781939
v -0.024855861 6.241073E-09 -0.10781939
v -0.029342908 -0.012154227 -0.100937314
v -0.022458056 -0.022458086 -0.100937314
v -0.03176056 9.528872E-09 -0.10093733
v -0.022458056 -0.022458086 -0.100937314
v -0.012154226 -0.029342929 -0.10093731
v -0.009511919 -0.022963833 -0.10781939
v 9.536743E-09 -0.03176057 -0.1009373
v 1.9073486E-08 -0.024855886 -0.10781939
v -0.012154226 -0.029342929 -0.10093731
v 0.0121542355 -0.029342925 -0.1009373
v 1.9073486E-08 -0.024855886 -0.10781939
v 9.536743E-09 -0.03176057 -0.1009373
v 0.009511948 -0.022963833 -0.10781939
v 0.022458076 -0.02245808 -0.10093728
v 0.0121542355 -0.029342925 -0.1009373
v 0.022458076 -0.02245808 -0.10093728
v 0.029342918 -0.012154241 -0.10093728
v 0.02296383 -0.0095119355 -0.10781939
v 0.03176056 -1.8295946E-09 -0.10093728
v 0.02485588 -2.648087E-09 -0.10781939
v 0.029342918 -0.012154241 -0.10093728
v 0.029342918 0.01215422 -0.10093728
v 1.9073486E-08 2.4595726E-17 0.12209552
v 0.022458114 0.022458073 -0.10093728
v 0.03176056 -1.8295946E-09 -0.10093728
v -0.022458056 0.022458104 -0.100937314
v -0.029342908 0.012154248 -0.100937314
v -0.03176056 9.528872E-09 -0.10093733
v -0.022458056 -0.022458086 -0.100937314
v -0.012154226 -0.029342929 -0.10093731
v 9.536743E-09 -0.03176057 -0.1009373
v 9.536743E-09 -0.03176057 -0.1009373
v 0.0121542355 -0.029342925 -0.1009373
v 0.022458076 -0.02245808 -0.10093728
v 0.022458114 0.022458073 -0.10093728
v 1.9073486E-08 2.4595726E-17 0.12209552
v 0.012154274 0.02934292 -0.1009373
v 3.8146972E-08 0.031760562 -0.1009373
v 3.8146972E-08 0.031760562 -0.1009373
v -0.012154207 0.029342923 -0.10093731
v -0.022458056 0.022458104 -0.100937314
v -0.03176056 9.528872E-09 -0.10093733
v -0.029342908 -0.012154227 -0.100937314
v -0.022458056 -0.022458086 -0.100937314
v 0.022458076 -0.02245808 -0.10093728
v 0.029342918 -0.012154241 -0.10093728
v 0.03176056 -1.8295946E-09 -0.10093728
vt 0.0121718645 0.9012222
vt 0.17587203 0.89715743
vt 0.5766748 0.89715713
vt 0.57667494 0.897157
vt 0.17587191 0.89715755
vt 0.0121718645 0.90122217
vt 0.0121718645 0.0959211
vt 0.98117304 0.8971569
vt 0.0121718645 0.90122217
vt 0.0121718645 0.5004194
vt 0.0121718645 0.0959211
vt 0.5766748 0.89715713
vt 0.012171686 0.9012223
vt 0.17587203 0.89715743
vt 0.5766748 0.89715713
vt 0.17587203 0.89715743
vt 0.012171686 0.9012223
vt 0.57667494 0.897157
vt 0.0121718645 0.9012222
vt 0.17587215 0.8971572
vt 0.5766748 0.8971573
vt 0.17587203 0.89715743
vt 0.0121718645 0.9012223
vt 0.012171686 0.9012222
vt 0.17587215 0.89715683
vt 0.5766748 0.8971573
vt 0.5766748 0.8971573
vt 0.17587215 0.89715683
vt 0.012171686 0.90122217
vt 0.591812 0.8984117
vt 0.97253287 0.8984114
vt 0.20939624 0.1087867
vt 0.20939624 0.8984117
vt 0.20939624 0.1087867
vt 0.97253287 0.8984117
vt 0.20939624 0.108786345
vt 0.591812 0.89841175
vt 0.20939624 0.108786345
vt 0.20939624 0.89841145
vt 0.20939624 0.10878682
vt 0.591812 0.89841175
vt 0.20939624 0.8984117
vt 0.20939624 0.10878682
vt 0.97253287 0.89841163
vt 0.20939624 0.10878676
vt 0.591812 0.89841163
vt 0.97253287 0.8984115
vt 0.20939624 0.10878676
vt 0.20939624 0.89841175
vt 0.20939624 0.10878658
vt 0.591812 0.8984117
vt 0.20939624 0.89841175
vt 0.20939624 0.10878658
vt 0.97253287 0.89841133
vt 0.591812 0.8984115
vt 0.20939624 0.89841175
vt 0.20939624 0.10878658
vt 0.97253287 0.8984115
vt 0.20939624 0.10878658
vt 0.591812 0.89841175
vt 0.97253287 0.89841163
vt 0.20939624 0.10878658
vt 0.20939624 0.89841175
vt 0.20939624 0.10878658
vt 0.591812 0.8984117
vt 0.20939624 0.89841187
vt 0.20939624 0.10878658
vt 0.97253287 0.89841175
vt 0.20939624 0.10878658
vt 0.0121718645 0.9012222
vt 0.5766748 0.89715713
vt 0.0121718645 0.5004194
vt 0.0121718645 0.5004194
vt 0.98117304 0.8971572
vt 0.0121718645 0.09592113
vt 0.98117304 0.8971569
vt 0.0121718645 0.5004194
vt 0.5766748 0.89715713
vt 0.0121718645 0.0959211
vt 0.0121718645 0.5004194
vt 0.012171686 0.9012223
vt 0.012171686 0.9012223
vt 0.0121718645 0.5004194
vt 0.5766748 0.89715713
vt 0.0121718645 0.09592113
vt 0.98117304 0.8971572
vt 0.0121718645 0.5004194
vt 0.012171477 0.5004194
vt 0.57667494 0.897157
vt 0.98117304 0.89715683
vt 0.012171477 0.5004194
vt 0.0121718645 0.9012222
vt 0.0121718645 0.09592113
vt 0.0121718645 0.9012223
vt 0.0121718645 0.5004194
vt 0.5766748 0.8971573
vt 0.012171686 0.0959211
vt 0.98117304 0.89715725
vt 0.0121718645 0.5004194
vt 0.012172073 0.5004194
vt 0.98117304 0.89715725
vt 0.012171686 0.0959211
vt 0.5766748 0.8971573
vt 0.012171686 0.9012222
vt 0.012172073 0.5004194
vt 0.012171686 0.90122217
vt 0.0121718645 0.5004194
vt 0.5766748 0.8971573
vt 0.012172073 0.09592113
vt 0.98117304 0.8971572
vt 0.0121718645 0.5004194
vt 0.012171984 0.50041944
vt 0.6947329 0.5004194
vt 0.012171984 0.9012222
vt 0.012171984 0.09592113
vt 0.012171775 0.9012222
vt 0.0121718645 0.5004194
vt 0.012171686 0.09592113
vt 0.012171775 0.90122217
vt 0.012171775 0.5004194
vt 0.012171775 0.0959211
vt 0.012171775 0.0959211
vt 0.012171775 0.5004194
vt 0.012171984 0.9012222
vt 0.012171984 0.90122217
vt 0.6947329 0.5004194
vt 0.012171775 0.5004194
vt 0.0121718645 0.0959211
vt 0.0121718645 0.0959211
vt 0.012171775 0.5004194
vt 0.012171775 0.9012223
vt 0.012171686 0.09592113
vt 0.0121718645 0.5004194
vt 0.012171775 0.9012222
vt 0.012171984 0.90122217
vt 0.0121718645 0.5004194
vt 0.0121718645 0.09592113
vn 0.6700666 0.67006415 -0.3194131
vn 0.26874527 0.26874417 -0.92496085
vn 0.35113177 0.14544392 -0.92496085
vn 0.14544441 0.35113093 -0.9249611
vn 0.26874527 0.26874417 -0.92496085
vn 0.6700666 0.67006415 -0.3194131
vn 1.8174332E-07 0.94761527 -0.31941393
vn 2.6328416E-07 0.3800617 -0.9249611
vn 0.6700666 0.67006415 -0.3194131
vn 0.36263868 0.8754816 -0.31941378
vn 1.8174332E-07 0.94761527 -0.31941393
vn -0.14544322 0.3511313 -0.9249611
vn -0.67006475 0.6700655 -0.31941417
vn -0.2687438 0.26874414 -0.92496127
vn -0.35113 0.14544374 -0.92496157
vn -0.2687438 0.26874414 -0.92496127
vn -0.67006475 0.6700655 -0.31941417
vn -0.35113028 -0.14544377 -0.9249615
vn -0.6700656 -0.67006475 -0.31941405
vn -0.26874462 -0.2687438 -0.9249611
vn -0.14544396 -0.35113093 -0.9249612
vn -0.26874462 -0.2687438 -0.9249611
vn -0.6700656 -0.67006475 -0.31941405
vn 0.6700657 -0.6700654 -0.3194126
vn 0.26874575 -0.268745 -0.9249605
vn 0.14544465 -0.3511315 -0.92496085
vn 0.35113215 -0.14544424 -0.9249607
vn 0.26874575 -0.268745 -0.9249605
vn 0.6700657 -0.6700654 -0.3194126
vn -0.35113028 -0.14544377 -0.9249615
vn -0.26874462 -0.2687438 -0.9249611
vn 1.1933126E-07 0 -1
vn -0.38006026 0 -0.9249617
vn 1.1933126E-07 0 -1
vn 0.26874527 0.26874417 -0.92496085
vn 1.1933126E-07 0 -1
vn 0.35113177 0.14544392 -0.92496085
vn 1.1933126E-07 0 -1
vn 0.38006255 0 -0.9249608
vn 1.1933126E-07 0 -1
vn 0.35113215 -0.14544424 -0.9249607
vn 0.38006255 0 -0.9249608
vn 1.1933126E-07 0 -1
vn 0.26874575 -0.268745 -0.9249605
vn 1.1933126E-07 0 -1
vn 0.14544465 -0.3511315 -0.92496085
vn 0.26874575 -0.268745 -0.9249605
vn 1.1933126E-07 0 -1
vn 4.1315369E-07 -0.3800618 -0.9249611
vn 1.1933126E-07 0 -1
vn -0.14544396 -0.35113093 -0.9249612
vn 4.1315369E-07 -0.3800618 -0.9249611
vn 1.1933126E-07 0 -1
vn -0.26874462 -0.2687438 -0.9249611
vn -0.35113 0.14544374 -0.92496157
vn -0.38006026 0 -0.9249617
vn 1.1933126E-07 0 -1
vn -0.2687438 0.26874414 -0.92496127
vn 1.1933126E-07 0 -1
vn -0.14544322 0.3511313 -0.9249611
vn -0.2687438 0.26874414 -0.92496127
vn 1.1933126E-07 0 -1
vn 2.6328416E-07 0.3800617 -0.9249611
vn 1.1933126E-07 0 -1
vn 0.14544441 0.35113093 -0.9249611
vn 2.6328416E-07 0.3800617 -0.9249611
vn 1.1933126E-07 0 -1
vn 0.26874527 0.26874417 -0.92496085
vn 1.1933126E-07 0 -1
vn 0.6700666 0.67006415 -0.3194131
vn 0.35113177 0.14544392 -0.92496085
vn 0.8754825 0.36263707 -0.31941307
vn 0.8754825 0.36263707 -0.31941307
vn 0.38006255 0 -0.9249608
vn 0.9476156 1.6906344E-07 -0.3194129
vn 2.6328416E-07 0.3800617 -0.9249611
vn -0.36263713 0.8754822 -0.3194138
vn -0.14544322 0.3511313 -0.9249611
vn 1.8174332E-07 0.94761527 -0.31941393
vn -0.36263713 0.8754822 -0.3194138
vn -0.67006475 0.6700655 -0.31941417
vn -0.67006475 0.6700655 -0.31941417
vn -0.8754814 0.36263824 -0.3194149
vn -0.35113 0.14544374 -0.92496157
vn -0.94761485 0 -0.31941512
vn -0.38006026 0 -0.9249617
vn -0.8754814 0.36263824 -0.3194149
vn -0.8754815 -0.3626382 -0.3194146
vn -0.35113028 -0.14544377 -0.9249615
vn -0.38006026 0 -0.9249617
vn -0.8754815 -0.3626382 -0.3194146
vn -0.6700656 -0.67006475 -0.31941405
vn -0.94761485 0 -0.31941512
vn -0.6700656 -0.67006475 -0.31941405
vn -0.36263824 -0.8754818 -0.31941384
vn -0.14544396 -0.35113093 -0.9249612
vn 3.80393E-07 -0.9476154 -0.31941372
vn 4.1315369E-07 -0.3800618 -0.9249611
vn -0.36263824 -0.8754818 -0.31941384
vn 0.3626383 -0.87548196 -0.3194132
vn 4.1315369E-07 -0.3800618 -0.9249611
vn 3.80393E-07 -0.9476154 -0.31941372
vn 0.14544465 -0.3511315 -0.92496085
vn 0.6700657 -0.6700654 -0.3194126
vn 0.3626383 -0.87548196 -0.3194132
vn 0.6700657 -0.6700654 -0.3194126
vn 0.8754825 -0.3626375 -0.3194127
vn 0.35113215 -0.14544424 -0.9249607
vn 0.9476156 1.6906344E-07 -0.3194129
vn 0.38006255 0 -0.9249608
vn 0.8754825 -0.3626375 -0.3194127
vn 0.8754825 0.36263707 -0.31941307
vn 1.3735109E-06 -1.9525402E-07 1
vn 0.6700666 0.67006415 -0.3194131
vn 0.9476156 1.6906344E-07 -0.3194129
vn -0.67006475 0.6700655 -0.31941417
vn -0.8754814 0.36263824 -0.3194149
vn -0.94761485 0 -0.31941512
vn -0.6700656 -0.67006475 -0.31941405
vn -0.36263824 -0.8754818 -0.31941384
vn 3.80393E-07 -0.9476154 -0.31941372
vn 3.80393E-07 -0.9476154 -0.31941372
vn 0.3626383 -0.87548196 -0.3194132
vn 0.6700657 -0.6700654 -0.3194126
vn 0.6700666 0.67006415 -0.3194131
vn 1.3735109E-06 -1.9525402E-07 1
vn 0.36263868 0.8754816 -0.31941378
vn 1.8174332E-07 0.94761527 -0.31941393
vn 1.8174332E-07 0.94761527 -0.31941393
vn -0.36263713 0.8754822 -0.3194138
vn -0.67006475 0.6700655 -0.31941417
vn -0.94761485 0 -0.31941512
vn -0.8754815 -0.3626382 -0.3194146
vn -0.6700656 -0.67006475 -0.31941405
vn 0.6700657 -0.6700654 -0.3194126
vn 0.8754825 -0.3626375 -0.3194127
vn 0.9476156 1.6906344E-07 -0.3194129
g mesh_horn_solid_0
f 3/3/3 2/2/2 1/1/1
f 6/6/6 5/5/5 4/4/4
f 4/4/4 8/8/8 7/7/7
f 4/4/4 10/10/10 9/9/9
f 11/11/11 10/10/10 4/4/4
f 14/14/14 13/13/13 12/12/12
f 17/17/17 16/16/16 15/15/15
f 20/20/20 19/19/19 18/18/18
f 23/23/23 22/22/22 21/21/21
f 26/26/26 25/25/25 24/24/24
f 29/29/29 28/28/28 27/27/27
f 32/32/32 31/31/31 30/30/30
f 34/34/34 30/30/30 33/33/33
f 37/37/37 36/36/36 35/35/35
f 37/37/37 39/39/39 38/38/38
f 42/42/42 41/41/41 40/40/40
f 41/41/41 44/44/44 43/43/43
f 47/47/47 46/46/46 45/45/45
f 46/46/46 49/49/49 48/48/48
f 52/52/52 51/51/51 50/50/50
f 51/51/51 54/54/54 53/53/53
f 57/57/57 56/56/56 55/55/55
f 59/59/59 55/55/55 58/58/58
f 62/62/62 61/61/61 60/60/60
f 64/64/64 60/60/60 63/63/63
f 67/67/67 66/66/66 65/65/65
f 69/69/69 65/65/65 68/68/68
f 72/72/72 71/71/71 70/70/70
f 74/74/74 71/71/71 73/73/73
f 75/75/75 74/74/74 72/72/72
f 78/78/78 77/77/77 76/76/76
f 80/80/80 79/79/79 76/76/76
f 80/80/80 78/78/78 81/81/81
f 84/84/84 83/83/83 82/82/82
f 86/86/86 85/85/85 83/83/83
f 87/87/87 84/84/84 86/86/86
f 90/90/90 89/89/89 88/88/88
f 92/92/92 91/91/91 89/89/89
f 91/91/91 93/93/93 90/90/90
f 96/96/96 95/95/95 94/94/94
f 98/98/98 97/97/97 95/95/95
f 99/99/99 96/96/96 98/98/98
f 102/102/102 101/101/101 100/100/100
f 104/104/104 100/100/100 103/103/103
f 101/101/101 103/103/103 105/105/105
f 108/108/108 107/107/107 106/106/106
f 110/110/110 109/109/109 107/107/107
f 111/111/111 108/108/108 110/110/110
f 114/114/114 113/113/113 112/112/112
f 112/112/112 113/113/113 115/115/115
f 117/117/117 113/113/113 116/116/116
f 118/118/118 113/113/113 117/117/117
f 120/120/120 113/113/113 119/119/119
f 121/121/121 113/113/113 120/120/120
f 123/123/123 113/113/113 122/122/122
f 124/124/124 113/113/113 123/123/123
f 127/127/127 126/126/126 125/125/125
f 128/128/128 126/126/126 127/127/127
f 130/130/130 126/126/126 129/129/129
f 131/131/131 126/126/126 130/130/130
f 133/133/133 126/126/126 132/132/132
f 134/134/134 126/126/126 133/133/133
f 136/136/136 126/126/126 135/135/135
f 137/137/137 126/126/126 136/136/136
