g mesh_beam
v 0.09062897 0.11727507 -0.33576995
v 0.032086182 0.037111245 -0.98197097
v 0.04527359 0.018111238 -0.9129275
v 0.1376699 0.052672442 -0.258777
v 0.02465416 0.14649808 -0.38203582
v 0.01567932 0.05707609 -1.0923396
v -0.03931957 0.14499848 -0.42109093
v -0.013758507 0.0586495 -1.1342975
v -0.09073692 0.11981955 -0.45179665
v -0.035752412 0.048150253 -1.1672888
v -0.12749545 0.079497404 -0.4759974
v -0.050236013 0.032262504 -1.1932915
v -0.14720565 0.028619431 -0.50255525
v -0.058002166 0.012215474 -1.2218297
v -0.14720565 -0.025943024 -0.52533394
v -0.058002166 -0.009283295 -1.2463043
v -0.12749545 -0.076821 -0.5398952
v -0.050236013 -0.029330423 -1.2619472
v -0.09073692 -0.11714313 -0.5602699
v -0.035752412 -0.045218255 -1.2838352
v -0.041894607 -0.14146374 -0.5915598
v -0.016507491 -0.054801073 -1.317457
v 0.012435074 -0.1464981 -0.63844115
v 0.0048997495 -0.05678452 -1.3678267
v 0.06491463 -0.13156639 -0.6858039
v 0.02557785 -0.050901156 -1.4187144
v 0.10845642 -0.09868516 -0.73619545
v 0.042734068 -0.037945308 -1.4728581
v 0.13717987 -0.052295215 -0.7989372
v 0.05405197 -0.019666648 -1.5402695
v 0.14720565 0.0013382065 -0.84390724
v 0.058002166 0.001466076 -1.5885873
v 0.13717987 0.05497162 -0.8919087
v 0.05405197 0.022598734 -1.6401625
v 0.09062897 0.11727507 0.29587218
v 0.032086182 0.037111245 -0.35032883
v 0.04527359 0.018111238 -0.2812854
v 0.1376699 0.052672442 0.37286514
v 0.02465416 0.14649808 0.24960631
v 0.01567932 0.05707609 -0.46069747
v -0.03931957 0.14499848 0.21055129
v -0.013758507 0.0586495 -0.50265545
v -0.09073692 0.11981955 0.17984557
v -0.035752412 0.048150253 -0.5356467
v -0.12749545 0.079497404 0.15564469
v -0.050236013 0.032262504 -0.5616494
v -0.14720565 0.028619431 0.12908691
v -0.058002166 0.012215474 -0.5901875
v -0.14720565 -0.025943024 0.10630813
v -0.058002166 -0.009283295 -0.6146622
v -0.12749545 -0.076821 0.09174698
v -0.050236013 -0.029330423 -0.630305
v -0.09073692 -0.11714313 0.07137222
v -0.035752412 -0.045218255 -0.65219307
v -0.041894607 -0.14146374 0.040082242
v -0.016507491 -0.054801073 -0.6858148
v 0.012435074 -0.1464981 -0.006799011
v 0.0048997495 -0.05678452 -0.73618454
v 0.06491463 -0.13156639 -0.05416183
v 0.02557785 -0.050901156 -0.7870723
v 0.10845642 -0.09868516 -0.10455337
v 0.042734068 -0.037945308 -0.84121585
v 0.13717987 -0.052295215 -0.16729507
v 0.05405197 -0.019666648 -0.9086272
v 0.14720565 0.0013382065 -0.21226516
v 0.058002166 0.001466076 -0.9569451
v 0.13717987 0.05497162 -0.26026657
v 0.05405197 0.022598734 -1.0085204
v 0.09062897 0.11727507 0.9301524
v 0.032086182 0.037111245 0.2839514
v 0.04527359 0.018111238 0.35299483
v 0.1376699 0.052672442 1.0071455
v 0.02465416 0.14649808 0.8838866
v 0.01567932 0.05707609 0.17358276
v -0.03931957 0.14499848 0.84483135
v -0.013758507 0.0586495 0.13162476
v -0.09073692 0.11981955 0.81412596
v -0.035752412 0.048150253 0.09863357
v -0.12749545 0.079497404 0.78992504
v -0.050236013 0.032262504 0.07263076
v -0.14720565 0.028619431 0.7633671
v -0.058002166 0.012215474 0.04409271
v -0.14720565 -0.025943024 0.7405885
v -0.058002166 -0.009283295 0.019618072
v -0.12749545 -0.076821 0.72602737
v -0.050236013 -0.029330423 0.0039752196
v -0.09073692 -0.11714313 0.7056525
v -0.035752412 -0.045218255 -0.01791275
v -0.041894607 -0.14146374 0.6743626
v -0.016507491 -0.054801073 -0.051534574
v 0.012435074 -0.1464981 0.62748104
v 0.0048997495 -0.05678452 -0.101904295
v 0.06491463 -0.13156639 0.58011854
v 0.02557785 -0.050901156 -0.15279205
v 0.10845642 -0.09868516 0.52972716
v 0.042734068 -0.037945308 -0.20693557
v 0.13717987 -0.052295215 0.46698517
v 0.05405197 -0.019666648 -0.27434707
v 0.14720565 0.0013382065 0.42201537
v 0.058002166 0.001466076 -0.32266495
v 0.13717987 0.05497162 0.3740135
v 0.05405197 0.022598734 -0.3742401
v 0.09062897 0.11727507 1.5631694
v 0.032086182 0.037111245 0.9169685
v 0.04527359 0.018111238 0.9860118
v 0.1376699 0.052672442 1.6401625
v 0.02465416 0.14649808 1.5169035
v 0.01567932 0.05707609 0.80659974
v -0.03931957 0.14499848 1.4778483
v -0.013758507 0.0586495 0.7646417
v -0.09073692 0.11981955 1.4471427
v -0.035752412 0.048150253 0.73165053
v -0.12749545 0.079497404 1.422942
v -0.050236013 0.032262504 0.7056476
v -0.14720565 0.028619431 1.3963841
v -0.058002166 0.012215474 0.67710966
v -0.14720565 -0.025943024 1.3736055
v -0.058002166 -0.009283295 0.65263504
v -0.12749545 -0.076821 1.3590443
v -0.050236013 -0.029330423 0.63699216
v -0.09073692 -0.11714313 1.3386695
v -0.035752412 -0.045218255 0.6151041
v -0.041894607 -0.14146374 1.3073792
v -0.016507491 -0.054801073 0.58148235
v 0.012435074 -0.1464981 1.2604982
v 0.0048997495 -0.05678452 0.5311125
v 0.06491463 -0.13156639 1.2131355
v 0.02557785 -0.050901156 0.48022506
v 0.10845642 -0.09868516 1.1627439
v 0.042734068 -0.037945308 0.4260814
v 0.13717987 -0.052295215 1.1000019
v 0.05405197 -0.019666648 0.35866988
v 0.14720565 0.0013382065 1.0550321
v 0.058002166 0.001466076 0.31035203
v 0.13717987 0.05497162 1.0070307
v 0.05405197 0.022598734 0.25877684
vt -1.125097 1
vt -1.125097 0
vt -1.2500365 0
vt -1.2500365 1
vt -1.0000851 1
vt -1.0000851 0
vt -0.8750734 1
vt -0.8750734 0
vt -0.7500616 1
vt -0.7500616 0
vt -0.62504965 1
vt -0.62504965 0
vt -0.50003785 1
vt -0.50003785 0
vt -0.37502602 1
vt -0.37502602 0
vt -0.25001422 1
vt -0.25001422 0
vt -0.12500232 1
vt -0.12500232 0
vt 9.483927E-06 1
vt 9.483927E-06 0
vt 0.1250213 1
vt 0.1250213 0
vt 0.25003317 1
vt 0.25003317 0
vt 0.3750451 1
vt 0.3750451 0
vt 0.50005674 1
vt 0.50005674 0
vt 0.62506884 1
vt 0.62506884 0
vt 0.74996346 1
vt 0.74996346 0
vt -0.87506056 1
vt -0.87506056 0
vt -1 0
vt -1 1
vt -0.75004864 1
vt -0.75004864 0
vt -0.62503684 1
vt -0.62503684 0
vt -0.50002503 1
vt -0.50002503 0
vt -0.3750131 1
vt -0.3750131 0
vt -0.2500013 1
vt -0.2500013 0
vt -0.124989465 1
vt -0.124989465 0
vt 2.2365193E-05 1
vt 2.2365193E-05 0
vt 0.12503423 1
vt 0.12503423 0
vt 0.25004604 1
vt 0.25004604 0
vt 0.37505785 1
vt 0.37505785 0
vt 0.50006974 1
vt 0.50006974 0
vt 0.62508166 1
vt 0.62508166 0
vt 0.7500933 1
vt 0.7500933 0
vt 0.8751054 1
vt 0.8751054 0
vt 1 1
vt 1 0
vt -0.62504834 1
vt -0.62504834 0
vt -0.7499878 0
vt -0.7499878 1
vt -0.5000364 1
vt -0.5000364 0
vt -0.37502462 1
vt -0.37502462 0
vt -0.25001281 1
vt -0.25001281 0
vt -0.12500091 1
vt -0.12500091 0
vt 1.08946115E-05 1
vt 1.08946115E-05 0
vt 0.12502274 1
vt 0.12502274 0
vt 0.25003457 1
vt 0.25003457 0
vt 0.37504646 1
vt 0.37504646 0
vt 0.50005823 1
vt 0.50005823 0
vt 0.62507004 1
vt 0.62507004 0
vt 0.75008196 1
vt 0.75008196 0
vt 0.8750939 1
vt 0.8750939 0
vt 1.0001055 1
vt 1.0001055 0
vt 1.1251177 1
vt 1.1251177 0
vt 1.2500123 1
vt 1.2500123 0
vt -0.87506056 1
vt -0.87506056 0
vt -1 0
vt -1 1
vt -0.75004864 1
vt -0.75004864 0
vt -0.62503684 1
vt -0.62503684 0
vt -0.50002503 1
vt -0.50002503 0
vt -0.3750131 1
vt -0.3750131 0
vt -0.2500013 1
vt -0.2500013 0
vt -0.124989465 1
vt -0.124989465 0
vt 2.2365193E-05 1
vt 2.2365193E-05 0
vt 0.12503423 1
vt 0.12503423 0
vt 0.25004604 1
vt 0.25004604 0
vt 0.37505785 1
vt 0.37505785 0
vt 0.50006974 1
vt 0.50006974 0
vt 0.62508166 1
vt 0.62508166 0
vt 0.7500933 1
vt 0.7500933 0
vt 0.8751054 1
vt 0.8751054 0
vt 1 1
vt 1 0
vn 0.8040761 0.57891476 -0.13534942
vn 0.8040761 0.57891476 -0.13534942
vn 0.90335894 0.4051823 -0.1406056
vn 0.90335894 0.4051823 -0.1406056
vn 0.40936068 0.9031951 -0.129083
vn 0.40936068 0.9031951 -0.129083
vn -0.12348252 0.9844689 -0.12479249
vn -0.12348252 0.9844689 -0.12479249
vn -0.52108514 0.844313 -0.12492345
vn -0.52108514 0.844313 -0.12492345
vn -0.7958196 0.5925674 -0.124639764
vn -0.7958196 0.5925674 -0.124639764
vn -0.9567652 0.26272246 -0.12480876
vn -0.9567652 0.26272246 -0.12480876
vn -0.9848001 -0.120616525 -0.12498128
vn -0.9848001 -0.120616525 -0.12498128
vn -0.8728384 -0.471942 -0.124192856
vn -0.8728384 -0.471942 -0.124192856
vn -0.6641249 -0.7373808 -0.12331943
vn -0.6641249 -0.7373808 -0.12331943
vn -0.39264938 -0.91156805 -0.12194303
vn -0.39264938 -0.91156805 -0.12194303
vn -0.061965443 -0.990691 -0.12120906
vn -0.061965443 -0.990691 -0.12120906
vn 0.29598433 -0.947615 -0.12007929
vn 0.29598433 -0.947615 -0.12007929
vn 0.6004704 -0.79084367 -0.11832825
vn 0.6004704 -0.79084367 -0.11832825
vn 0.85063875 -0.5121949 -0.118617885
vn 0.85063875 -0.5121949 -0.118617885
vn 0.9821809 -0.14661905 -0.11757364
vn 0.9821809 -0.14661905 -0.11757364
vn 0.99281484 0.03203221 -0.11529384
vn 0.99281484 0.03203221 -0.11529384
vn 0.80407584 0.578915 -0.13534942
vn 0.80407584 0.578915 -0.13534942
vn 0.9033589 0.40518233 -0.14060561
vn 0.9033589 0.40518233 -0.14060561
vn 0.4093606 0.9031952 -0.12908292
vn 0.4093606 0.9031952 -0.12908292
vn -0.12348258 0.9844689 -0.1247925
vn -0.12348258 0.9844689 -0.1247925
vn -0.5210857 0.8443126 -0.12492352
vn -0.5210857 0.8443126 -0.12492352
vn -0.7958202 0.5925666 -0.12463988
vn -0.7958202 0.5925666 -0.12463988
vn -0.9567654 0.2627218 -0.12480882
vn -0.9567654 0.2627218 -0.12480882
vn -0.9848001 -0.12061695 -0.12498128
vn -0.9848001 -0.12061695 -0.12498128
vn -0.8728383 -0.47194213 -0.12419287
vn -0.8728383 -0.47194213 -0.12419287
vn -0.66412514 -0.73738056 -0.12331941
vn -0.66412514 -0.73738056 -0.12331941
vn -0.39264926 -0.9115681 -0.121943034
vn -0.39264926 -0.9115681 -0.121943034
vn -0.06196534 -0.990691 -0.12120911
vn -0.06196534 -0.990691 -0.12120911
vn 0.29598412 -0.9476151 -0.120079264
vn 0.29598412 -0.9476151 -0.120079264
vn 0.600471 -0.7908432 -0.11832833
vn 0.600471 -0.7908432 -0.11832833
vn 0.85063916 -0.51219404 -0.118617915
vn 0.85063916 -0.51219404 -0.118617915
vn 0.9821809 -0.14661905 -0.11757364
vn 0.9821809 -0.14661905 -0.11757364
vn 0.99281484 0.03203221 -0.11529384
vn 0.99281484 0.03203221 -0.11529384
vn 0.8040763 0.5789144 -0.13534948
vn 0.8040763 0.5789144 -0.13534948
vn 0.9033594 0.40518126 -0.14060572
vn 0.9033594 0.40518126 -0.14060572
vn 0.4093608 0.903195 -0.12908298
vn 0.4093608 0.903195 -0.12908298
vn -0.12348291 0.9844688 -0.12479256
vn -0.12348291 0.9844688 -0.12479256
vn -0.5210855 0.8443128 -0.124923415
vn -0.5210855 0.8443128 -0.124923415
vn -0.7958198 0.592567 -0.1246398
vn -0.7958198 0.592567 -0.1246398
vn -0.9567654 0.26272184 -0.1248088
vn -0.9567654 0.26272184 -0.1248088
vn -0.9848001 -0.12061691 -0.12498125
vn -0.9848001 -0.12061691 -0.12498125
vn -0.87283826 -0.47194225 -0.1241928
vn -0.87283826 -0.47194225 -0.1241928
vn -0.6641252 -0.7373805 -0.123319454
vn -0.6641252 -0.7373805 -0.123319454
vn -0.39264953 -0.911568 -0.12194302
vn -0.39264953 -0.911568 -0.12194302
vn -0.06196548 -0.990691 -0.121208996
vn -0.06196548 -0.990691 -0.121208996
vn 0.29598445 -0.94761497 -0.12007925
vn 0.29598445 -0.94761497 -0.12007925
vn 0.60047096 -0.79084325 -0.118328236
vn 0.60047096 -0.79084325 -0.118328236
vn 0.85063857 -0.51219517 -0.11861781
vn 0.85063857 -0.51219517 -0.11861781
vn 0.9821809 -0.14661908 -0.117573604
vn 0.9821809 -0.14661908 -0.117573604
vn 0.9928148 0.03203367 -0.11529379
vn 0.9928148 0.03203367 -0.11529379
vn 0.80407643 0.57891417 -0.13534945
vn 0.80407643 0.57891417 -0.13534945
vn 0.9033594 0.40518114 -0.14060575
vn 0.9033594 0.40518114 -0.14060575
vn 0.40936106 0.90319496 -0.12908295
vn 0.40936106 0.90319496 -0.12908295
vn -0.12348253 0.9844689 -0.12479257
vn -0.12348253 0.9844689 -0.12479257
vn -0.5210853 0.8443129 -0.12492344
vn -0.5210853 0.8443129 -0.12492344
vn -0.7958199 0.592567 -0.12463978
vn -0.7958199 0.592567 -0.12463978
vn -0.95676535 0.2627219 -0.12480881
vn -0.95676535 0.2627219 -0.12480881
vn -0.9848001 -0.12061682 -0.12498125
vn -0.9848001 -0.12061682 -0.12498125
vn -0.87283826 -0.47194225 -0.12419278
vn -0.87283826 -0.47194225 -0.12419278
vn -0.664125 -0.7373807 -0.12331934
vn -0.664125 -0.7373807 -0.12331934
vn -0.3926493 -0.9115681 -0.121943034
vn -0.3926493 -0.9115681 -0.121943034
vn -0.06196506 -0.990691 -0.121209085
vn -0.06196506 -0.990691 -0.121209085
vn 0.2959843 -0.947615 -0.12007926
vn 0.2959843 -0.947615 -0.12007926
vn 0.6004701 -0.79084384 -0.118328325
vn 0.6004701 -0.79084384 -0.118328325
vn 0.8506391 -0.5121942 -0.118618
vn 0.8506391 -0.5121942 -0.118618
vn 0.982181 -0.14661835 -0.11757363
vn 0.982181 -0.14661835 -0.11757363
vn 0.99281484 0.03203198 -0.11529378
vn 0.99281484 0.03203198 -0.11529378
g mesh_beam_0
f 3/3/3 2/2/2 1/1/1
f 1/1/1 4/4/4 3/3/3
f 5/5/5 1/1/1 2/2/2
f 5/5/5 2/2/2 6/6/6
f 7/7/7 5/5/5 6/6/6
f 6/6/6 8/8/8 7/7/7
f 9/9/9 7/7/7 8/8/8
f 8/8/8 10/10/10 9/9/9
f 11/11/11 9/9/9 10/10/10
f 10/10/10 12/12/12 11/11/11
f 13/13/13 11/11/11 12/12/12
f 12/12/12 14/14/14 13/13/13
f 15/15/15 13/13/13 14/14/14
f 14/14/14 16/16/16 15/15/15
f 17/17/17 15/15/15 16/16/16
f 16/16/16 18/18/18 17/17/17
f 19/19/19 17/17/17 18/18/18
f 18/18/18 20/20/20 19/19/19
f 21/21/21 19/19/19 20/20/20
f 20/20/20 22/22/22 21/21/21
f 23/23/23 21/21/21 22/22/22
f 22/22/22 24/24/24 23/23/23
f 25/25/25 23/23/23 24/24/24
f 24/24/24 26/26/26 25/25/25
f 27/27/27 25/25/25 26/26/26
f 27/27/27 26/26/26 28/28/28
f 29/29/29 27/27/27 28/28/28
f 29/29/29 28/28/28 30/30/30
f 31/31/31 29/29/29 30/30/30
f 30/30/30 32/32/32 31/31/31
f 33/33/33 31/31/31 32/32/32
f 32/32/32 34/34/34 33/33/33
f 37/37/37 36/36/36 35/35/35
f 35/35/35 38/38/38 37/37/37
f 39/39/39 35/35/35 36/36/36
f 39/39/39 36/36/36 40/40/40
f 41/41/41 39/39/39 40/40/40
f 40/40/40 42/42/42 41/41/41
f 43/43/43 41/41/41 42/42/42
f 42/42/42 44/44/44 43/43/43
f 45/45/45 43/43/43 44/44/44
f 44/44/44 46/46/46 45/45/45
f 47/47/47 45/45/45 46/46/46
f 46/46/46 48/48/48 47/47/47
f 49/49/49 47/47/47 48/48/48
f 48/48/48 50/50/50 49/49/49
f 51/51/51 49/49/49 50/50/50
f 50/50/50 52/52/52 51/51/51
f 53/53/53 51/51/51 52/52/52
f 52/52/52 54/54/54 53/53/53
f 55/55/55 53/53/53 54/54/54
f 54/54/54 56/56/56 55/55/55
f 57/57/57 55/55/55 56/56/56
f 56/56/56 58/58/58 57/57/57
f 59/59/59 57/57/57 58/58/58
f 58/58/58 60/60/60 59/59/59
f 61/61/61 59/59/59 60/60/60
f 61/61/61 60/60/60 62/62/62
f 63/63/63 61/61/61 62/62/62
f 63/63/63 62/62/62 64/64/64
f 65/65/65 63/63/63 64/64/64
f 64/64/64 66/66/66 65/65/65
f 67/67/67 65/65/65 66/66/66
f 66/66/66 68/68/68 67/67/67
f 71/71/71 70/70/70 69/69/69
f 69/69/69 72/72/72 71/71/71
f 73/73/73 69/69/69 70/70/70
f 73/73/73 70/70/70 74/74/74
f 75/75/75 73/73/73 74/74/74
f 74/74/74 76/76/76 75/75/75
f 77/77/77 75/75/75 76/76/76
f 76/76/76 78/78/78 77/77/77
f 79/79/79 77/77/77 78/78/78
f 78/78/78 80/80/80 79/79/79
f 81/81/81 79/79/79 80/80/80
f 80/80/80 82/82/82 81/81/81
f 83/83/83 81/81/81 82/82/82
f 82/82/82 84/84/84 83/83/83
f 85/85/85 83/83/83 84/84/84
f 84/84/84 86/86/86 85/85/85
f 87/87/87 85/85/85 86/86/86
f 86/86/86 88/88/88 87/87/87
f 89/89/89 87/87/87 88/88/88
f 88/88/88 90/90/90 89/89/89
f 91/91/91 89/89/89 90/90/90
f 90/90/90 92/92/92 91/91/91
f 93/93/93 91/91/91 92/92/92
f 92/92/92 94/94/94 93/93/93
f 95/95/95 93/93/93 94/94/94
f 95/95/95 94/94/94 96/96/96
f 97/97/97 95/95/95 96/96/96
f 97/97/97 96/96/96 98/98/98
f 99/99/99 97/97/97 98/98/98
f 98/98/98 100/100/100 99/99/99
f 101/101/101 99/99/99 100/100/100
f 100/100/100 102/102/102 101/101/101
f 105/105/105 104/104/104 103/103/103
f 103/103/103 106/106/106 105/105/105
f 107/107/107 103/103/103 104/104/104
f 107/107/107 104/104/104 108/108/108
f 109/109/109 107/107/107 108/108/108
f 108/108/108 110/110/110 109/109/109
f 111/111/111 109/109/109 110/110/110
f 110/110/110 112/112/112 111/111/111
f 113/113/113 111/111/111 112/112/112
f 112/112/112 114/114/114 113/113/113
f 115/115/115 113/113/113 114/114/114
f 114/114/114 116/116/116 115/115/115
f 117/117/117 115/115/115 116/116/116
f 116/116/116 118/118/118 117/117/117
f 119/119/119 117/117/117 118/118/118
f 118/118/118 120/120/120 119/119/119
f 121/121/121 119/119/119 120/120/120
f 120/120/120 122/122/122 121/121/121
f 123/123/123 121/121/121 122/122/122
f 122/122/122 124/124/124 123/123/123
f 125/125/125 123/123/123 124/124/124
f 124/124/124 126/126/126 125/125/125
f 127/127/127 125/125/125 126/126/126
f 126/126/126 128/128/128 127/127/127
f 129/129/129 127/127/127 128/128/128
f 129/129/129 128/128/128 130/130/130
f 131/131/131 129/129/129 130/130/130
f 131/131/131 130/130/130 132/132/132
f 133/133/133 131/131/131 132/132/132
f 132/132/132 134/134/134 133/133/133
f 135/135/135 133/133/133 134/134/134
f 134/134/134 136/136/136 135/135/135
