g mesh_fire_blast_core
v 0.028940545 0.6812743 -0.16890688
v 0.21790038 0.53332233 -0.3267789
v 0.090723895 0.5067531 -0.13289826
v 0.027810285 0.736553 -0.30042097
v 0.026896121 0.65367454 -0.0748262
v 0.023976874 0.5067531 -0.038817577
v 0.118763685 0.30015638 -0.10093514
v 0.021677766 0.30015638 -0.006854448
v 0.12927623 0.12584934 -0.08073929
v 0.0001257193 0.0018689728 0.022459272
v 0.25465778 0.25480536 -0.27480716
v 0.25155175 0.31171054 -0.30246046
v -0.092866905 -0.578908 -0.12924409
v 0.0132321315 -0.38654402 -0.10096958
v 0.07082251 -0.57003814 -0.2993204
v 0.025710907 -0.6531391 -0.32824823
v -0.08917425 -0.35147437 -0.0068888376
v -0.186299 -0.53133804 -0.035163343
v -0.21663949 -0.753758 -0.18403935
v -0.30174553 -0.6945905 -0.089958616
v -0.32788196 -0.89437115 -0.24315648
v -0.2344122 -0.99785733 -0.44215494
v -0.10825343 -0.8422738 -0.38287905
v -0.40775856 -0.82597804 -0.14907575
v -0.47392318 -1.0164593 -0.3397228
v -0.5310202 -0.949413 -0.24564205
v -0.7097898 -1.0832558 -0.37973145
v -0.6709743 -1.1368334 -0.47381216
v -0.40025985 -1.1345593 -0.5400381
v -0.62834543 -1.2545438 -0.6534304
v -0.8515162 -1.1704063 -0.49031052
v -0.87899756 -1.184147 -0.58439124
v -0.92049557 -1.21499 -0.6765654
v 0.028940545 0.6812743 -0.16890688
v -0.042770155 0.5067531 -0.13289826
v -0.1691233 0.5355046 -0.32654026
v 0.027810285 0.736553 -0.30042097
v 0.026896121 0.65367454 -0.0748262
v 0.023976874 0.5067531 -0.038817577
v -0.20664524 0.31736776 -0.30073196
v -0.07540815 0.30015638 -0.10093514
v -0.24126886 0.1982865 -0.2774662
v -0.10985822 0.07864381 -0.08443809
v 0.021677766 0.30015638 -0.006854448
v 0.0001257193 0.0018689728 0.022459272
v -0.27973115 -0.48376796 -0.12924409
v -0.35111174 -0.32817695 -0.29966873
v -0.19158065 -0.3164047 -0.10096958
v -0.40418056 -0.41913563 -0.32804394
v -0.186299 -0.53133804 -0.035163343
v -0.08917425 -0.35147437 -0.0068888376
v -0.3868517 -0.635423 -0.18403935
v -0.5046618 -0.55953544 -0.38273403
v -0.4876352 -0.757585 -0.24315648
v -0.40775856 -0.82597804 -0.14907575
v -0.30174553 -0.6945905 -0.089958616
v -0.60256463 -0.67795 -0.44235456
v -0.5938128 -0.88236654 -0.3397228
v -0.7026226 -0.79539376 -0.5401103
v -0.7448083 -1.0353736 -0.47381216
v -0.84164685 -0.9549515 -0.6539511
v -0.7097898 -1.0832558 -0.37973145
v -0.5310202 -0.949413 -0.24564205
v -0.87899756 -1.184147 -0.58439124
v -0.92049557 -1.21499 -0.6765654
v -0.8515162 -1.1704063 -0.49031052
v -0.13744125 -0.12764755 -0.08457296
v 0.0001257193 0.0018689728 0.022459272
v -0.3637978 -0.30565116 -0.26708335
v 0.06680228 -0.2465226 -0.08783437
v 0.0001257193 0.0018689728 0.022459272
v 0.07531231 -0.5645384 -0.26272753
v -0.77585244 -0.10375675 -0.28849888
v -0.64481497 0.08790854 -0.39763954
v -0.6054687 -0.035991743 -0.21192895
v -0.8277252 -0.10300846 -0.38330513
v -0.7455523 -0.100726716 -0.19441822
v -0.60266083 -0.09624765 -0.11784827
v -0.4132003 0.008228834 -0.13106844
v -0.4055996 -0.075460926 -0.036987733
v -0.10985822 0.07864381 -0.08443809
v 0.0001257193 0.0018689728 0.022459272
v -0.24126886 0.1982865 -0.2774662
v -0.44550335 0.1455879 -0.32913235
v -0.77585244 -0.10375675 -0.28849888
v -0.5998528 -0.15650354 -0.21192895
v -0.62328625 -0.2850974 -0.3978986
v -0.8277252 -0.10300846 -0.38330513
v -0.7455523 -0.100726716 -0.19441822
v -0.60266083 -0.09624765 -0.11784827
v -0.39837196 -0.3007051 -0.32868215
v -0.39799884 -0.15915069 -0.13106844
v -0.3637978 -0.30565116 -0.26708335
v -0.13744125 -0.12764755 -0.08457296
v -0.4055996 -0.075460926 -0.036987733
v 0.0001257193 0.0018689728 0.022459272
v 0.6290549 -0.007371547 -0.15197638
v 0.41191992 -0.15838142 -0.30398545
v 0.3914912 -0.026477333 -0.10231842
v 0.6582162 -0.13231632 -0.34278464
v 0.6234612 0.06186552 -0.05789565
v 0.3810717 0.059081327 -0.008237677
v 0.81534773 0.0551733 -0.21631092
v 0.8725337 0.05430989 -0.33524922
v 0.7900641 0.0551733 -0.12223017
v 0.34525597 -0.16408025 -0.2669758
v 0.099453904 -0.08213799 -0.08223221
v 0.0001257193 0.0018689728 0.022459272
v 0.6234612 0.06186552 -0.05789565
v 0.3810717 0.059081327 -0.008237677
v 0.37065223 0.14464 -0.10231842
v 0.6178675 0.13110255 -0.15197638
v 0.3667016 0.2779914 -0.3048545
v 0.6388773 0.25642252 -0.34347153
v 0.7900641 0.0551733 -0.12223017
v 0.81534773 0.0551733 -0.21631092
v 0.8725337 0.05430989 -0.33524922
v 0.12927623 0.12584934 -0.08073929
v 0.0001257193 0.0018689728 0.022459272
v 0.25465778 0.25480536 -0.27480716
v 0.64893544 -0.69516575 -0.21877387
v 0.48638508 -0.54715264 -0.15552007
v 0.75042784 -0.5964067 -0.4175113
v 0.5930722 -0.44994462 -0.35295925
v 0.58495116 -0.761731 -0.12469314
v 0.4193874 -0.6140936 -0.06143933
v 0.28957236 -0.46314174 -0.0241895
v 0.358822 -0.40510786 -0.118270226
v 0.18835312 -0.32140553 -0.00061669346
v 0.2536286 -0.26848242 -0.09469739
v 0.46919757 -0.3162547 -0.31714228
v 0.35547233 -0.1883567 -0.29600722
v 0.099453904 -0.08213799 -0.08223221
v 0.0001257193 0.0018689728 0.022459272
v 0.34525597 -0.16408025 -0.2669758
v 0.7628632 -0.8925267 -0.20892899
v 0.81042767 -0.82064855 -0.30300972
v 0.9413589 -0.9797841 -0.33553207
v 0.95899 -0.93992484 -0.4296128
v 0.9020664 -0.72136563 -0.50520974
v 1.0382962 -0.8509726 -0.6118706
v 1.0410864 -1.015655 -0.4301802
v 1.0655748 -1.0230016 -0.52426094
v 1.1189803 -1.0449153 -0.6083443
v 0.35238975 -0.6810345 -0.15552007
v 0.5209669 -0.82829624 -0.21877387
v 0.43700206 -0.9413877 -0.41765487
v 0.2549164 -0.78748846 -0.35295463
v 0.4193874 -0.6140936 -0.06143933
v 0.58495116 -0.761731 -0.12469314
v 0.22032276 -0.5211757 -0.118270226
v 0.11059161 -0.6108067 -0.3170718
v 0.08054023 -0.569458 -0.2955307
v 0.12307765 -0.37432873 -0.09469739
v 0.28957236 -0.46314174 -0.0241895
v 0.18835312 -0.32140553 -0.00061669346
v 0.07531231 -0.5645384 -0.26272753
v 0.06680228 -0.2465226 -0.08783437
v 0.0001257193 0.0018689728 0.022459272
v 0.7152988 -0.9644048 -0.30300972
v 0.66384244 -1.0887139 -0.50496143
v 0.92372787 -1.0231555 -0.4296128
v 0.912814 -1.1421074 -0.6116565
v 0.9413589 -0.9797841 -0.33553207
v 0.7628632 -0.8925267 -0.20892899
v 1.0655748 -1.0230016 -0.52426094
v 1.1189803 -1.0449153 -0.6083443
v 1.0410864 -1.015655 -0.4301802
vt 0.7461302 0.32430843
vt 0.70282245 0.012199879
vt 0.70282245 0.32430825
vt 0.7461302 0.0122000575
vt 0.7461302 0.6008213
vt 0.70282245 0.60082155
vt 0.64995366 0.32430854
vt 0.64995366 0.6008213
vt 0.6150131 0.32430848
vt 0.60846657 0.6008213
vt 0.6222966 0.012200117
vt 0.64995366 0.012200028
vt 0.4571336 0.32430837
vt 0.49777892 0.3243082
vt 0.49777895 0.012199998
vt 0.45713356 0.012199998
vt 0.49777892 0.6008213
vt 0.4571336 0.60082144
vt 0.41942406 0.32430837
vt 0.4194241 0.60082096
vt 0.38287863 0.32430825
vt 0.38287866 0.012200028
vt 0.41942406 0.012199998
vt 0.38287866 0.6008213
vt 0.34309116 0.3243082
vt 0.34309116 0.6008212
vt 0.29926622 0.60082155
vt 0.29926628 0.32430843
vt 0.34309116 0.012200177
vt 0.29926628 0.012199938
vt 0.26222408 0.6008213
vt 0.26222408 0.32430825
vt 0.26222408 0.0122000575
vt 0.26285473 0.32430837
vt 0.30105624 0.32430807
vt 0.3010562 0.012199819
vt 0.26285473 0.012199998
vt 0.26285478 0.60082155
vt 0.3010561 0.60082155
vt 0.3500657 0.012200117
vt 0.3500657 0.32430837
vt 0.4018737 0.012199998
vt 0.4093325 0.32430837
vt 0.35006577 0.6008212
vt 0.41431004 0.6008213
vt 0.54924273 0.3243083
vt 0.50876886 0.012199998
vt 0.50876886 0.3243083
vt 0.5492428 0.0121999085
vt 0.54924273 0.6008213
vt 0.50876886 0.60082144
vt 0.5867932 0.32430825
vt 0.5867932 0.012200236
vt 0.6231843 0.32430813
vt 0.6231844 0.6008211
vt 0.5867932 0.60082144
vt 0.6231843 0.012199968
vt 0.6628041 0.3243082
vt 0.6628041 0.012199849
vt 0.7064441 0.32430837
vt 0.7064441 0.0122000575
vt 0.7064441 0.6008217
vt 0.6628041 0.60082144
vt 0.746534 0.3243082
vt 0.74653405 0.0122000575
vt 0.74653405 0.6008213
vt 0.47423676 0.3243083
vt 0.46427354 0.6008212
vt 0.49151465 0.012199998
vt 0.5230961 0.32430837
vt 0.5365836 0.6008213
vt 0.50813466 0.012199968
vt 0.7461302 0.32430843
vt 0.71210235 0.0121997595
vt 0.71210235 0.32430807
vt 0.7461302 0.0122000575
vt 0.7461302 0.6008213
vt 0.71210223 0.6008213
vt 0.6673883 0.3243082
vt 0.6673883 0.60082144
vt 0.560773 0.32430807
vt 0.55579543 0.6008211
vt 0.5682318 0.012200117
vt 0.6673883 0.0122002065
vt 0.26176864 0.32430825
vt 0.2969693 0.32430825
vt 0.2969693 0.012199938
vt 0.26176864 0.0122000575
vt 0.26176864 0.6008213
vt 0.2969693 0.6008212
vt 0.3432244 0.012199998
vt 0.3432244 0.3243082
vt 0.36255667 0.012200117
vt 0.3798346 0.32430825
vt 0.3432244 0.6008213
vt 0.3897978 0.60082144
vt 0.6816052 0.32430837
vt 0.5921358 0.0122002065
vt 0.5921358 0.3243083
vt 0.6816052 0.012199879
vt 0.6816051 0.6008213
vt 0.5921358 0.6008213
vt 0.7456747 0.3243083
vt 0.7456747 0.0122000575
vt 0.7456747 0.60082155
vt 0.5477648 0.012199998
vt 0.5338538 0.32430813
vt 0.5203629 0.60082144
vt 0.32760978 0.6008213
vt 0.418917 0.6008213
vt 0.418917 0.32430813
vt 0.32760978 0.3243082
vt 0.418917 0.012199998
vt 0.3276098 0.012199879
vt 0.26222408 0.6008213
vt 0.26222408 0.32430825
vt 0.26222408 0.0122000575
vt 0.48561773 0.3243083
vt 0.49216422 0.6008213
vt 0.47833425 0.012199998
vt 0.49216422 0.3243083
vt 0.56771886 0.32430837
vt 0.49216422 0.012199998
vt 0.56771886 0.012200028
vt 0.49216422 0.6008213
vt 0.56771886 0.6008211
vt 0.61670727 0.6008211
vt 0.6167073 0.32430807
vt 0.6673883 0.60082144
vt 0.6673883 0.3243082
vt 0.6167074 0.012200117
vt 0.6673883 0.0122002065
vt 0.69861144 0.32430807
vt 0.71210223 0.6008213
vt 0.6847005 0.0121997595
vt 0.418917 0.6008213
vt 0.418917 0.32430813
vt 0.32760978 0.6008213
vt 0.32760978 0.3243082
vt 0.418917 0.012199998
vt 0.3276098 0.012199879
vt 0.26222408 0.6008213
vt 0.26222408 0.32430825
vt 0.26222408 0.0122000575
vt 0.44632906 0.32430825
vt 0.5203629 0.32430813
vt 0.5203629 0.012199998
vt 0.44632912 0.012200028
vt 0.44632912 0.60082144
vt 0.5203629 0.60082144
vt 0.39565217 0.32430825
vt 0.39565217 0.012200117
vt 0.3432244 0.012199998
vt 0.3432244 0.3243082
vt 0.39565217 0.60082144
vt 0.3432244 0.6008213
vt 0.32541823 0.012199938
vt 0.3104568 0.32430825
vt 0.2969693 0.6008212
vt 0.5921358 0.3243083
vt 0.5921358 0.0122002065
vt 0.6816052 0.32430837
vt 0.6816052 0.012199879
vt 0.6816051 0.6008213
vt 0.5921358 0.6008213
vt 0.7456747 0.3243083
vt 0.7456747 0.0122000575
vt 0.7456747 0.60082155
vn 0.8342171 0.3831608 0.39657238
vn 0.7936495 0.35589063 0.49341908
vn 0.81657785 0.27852327 0.50559413
vn 0.7503901 0.51104736 0.41921988
vn 0.89811057 0.24611874 0.36444888
vn 0.834048 0.19941005 0.51439244
vn 0.7529409 0.14332451 0.6422913
vn 0.6934274 0.106824964 0.71256363
vn 0.7228844 0.117445536 0.6809145
vn 0.63507617 0.06579375 0.7696424
vn 0.7974995 0.16695388 0.5797594
vn 0.80487317 0.17828052 0.5660346
vn 0.5541204 -0.50582004 0.6611328
vn 0.5766071 -0.39646193 0.71438235
vn 0.59321743 -0.46877742 0.65447754
vn 0.6140516 -0.531114 0.58383095
vn 0.5547254 -0.32045287 0.7678474
vn 0.48841736 -0.4753071 0.73180026
vn 0.47511017 -0.5943837 0.6488284
vn 0.3965204 -0.5698797 0.7197282
vn 0.3436151 -0.69329226 0.6334623
vn 0.40962008 -0.7142507 0.56750095
vn 0.54807854 -0.6118692 0.57028586
vn 0.2746226 -0.66605926 0.6935038
vn 0.19019873 -0.7848778 0.58973837
vn 0.1592447 -0.76667637 0.62197137
vn 0.13660763 -0.87455606 0.46528494
vn 0.07565348 -0.86646193 0.4934778
vn 0.22074957 -0.8012718 0.55608726
vn 0.014349204 -0.8544021 0.5194141
vn 0.14165094 -0.929324 0.34101602
vn 0.014100371 -0.9105869 0.4130771
vn -0.11375778 -0.8719872 0.47612768
vn -0.8215382 0.41463596 0.3913464
vn -0.8091438 0.30358052 0.5031155
vn -0.7816047 0.37737378 0.49667197
vn -0.7310411 0.5340938 0.42464417
vn -0.8926728 0.28540567 0.34882507
vn -0.8316249 0.22790831 0.5064165
vn -0.7895957 0.2172742 0.5738733
vn -0.7498051 0.18426491 0.635483
vn -0.7716197 0.2259062 0.594617
vn -0.7211313 0.18201555 0.66846085
vn -0.70509565 0.15001301 0.69306284
vn -0.66348326 0.13631779 0.73566806
vn -0.70263684 0.25844222 0.66295487
vn -0.73934275 0.13105962 0.6604511
vn -0.6943711 0.14779034 0.7042775
vn -0.75740755 0.30472878 0.57747227
vn -0.63912207 0.2089409 0.74018013
vn -0.64717144 0.16367139 0.7445675
vn -0.7082548 0.2685536 0.65288144
vn -0.7515944 0.32925174 0.57157606
vn -0.7398605 0.23634939 0.6298773
vn -0.6971 0.18084355 0.6937919
vn -0.6562932 0.20458607 0.72623944
vn -0.7759769 0.28974622 0.56027406
vn -0.7680177 0.25176367 0.5888666
vn -0.7919225 0.2655766 0.54984343
vn -0.7888862 0.36393377 0.49518764
vn -0.8094719 0.2852027 0.5132394
vn -0.7624455 0.44110614 0.4733944
vn -0.74225706 0.23731956 0.62668484
vn -0.80441713 0.42201197 0.4181136
vn -0.8343217 0.28007424 0.47483233
vn -0.75499934 0.5537127 0.35125235
vn -0.6813271 0.041665293 0.7307922
vn -0.66400635 0.11332814 0.73908883
vn -0.6948977 -0.030226886 0.7184731
vn 0.5560819 -0.34694389 0.7552502
vn 0.56652606 -0.23214044 0.79067
vn 0.53755045 -0.45670155 0.70884645
vn -0.4732749 0.7792774 0.4107769
vn -0.4895665 0.6956262 0.5257651
vn -0.42971072 0.75562954 0.4943407
vn -0.57147765 0.6647214 0.48120543
vn -0.36194965 0.87222624 0.32895878
vn -0.36597878 0.8097432 0.45866698
vn -0.3277868 0.71963763 0.612109
vn -0.3048871 0.70900786 0.6358865
vn -0.27121168 0.71060073 0.6492232
vn -0.24521741 0.6825747 0.6884476
vn -0.29639244 0.736495 0.6080514
vn -0.35025147 0.7293848 0.58764076
vn -0.41387877 -0.8131885 0.4091807
vn -0.3182711 -0.8062177 0.49871486
vn -0.38089147 -0.7618515 0.5239312
vn -0.51853836 -0.7171586 0.4656194
vn -0.29955062 -0.8902217 0.3431832
vn -0.25370878 -0.845248 0.47030586
vn -0.21410723 -0.7422288 0.6350233
vn -0.15958498 -0.7425241 0.65053105
vn -0.19278988 -0.6914245 0.6962501
vn -0.098843314 -0.69133574 0.7157408
vn -0.1042563 -0.7404159 0.6640142
vn -0.0039868075 -0.6848827 0.72864246
vn 0.28918284 -0.8104875 0.5093949
vn 0.20194702 -0.79587966 0.5707827
vn 0.18529113 -0.7636075 0.61852306
vn 0.35374328 -0.78611434 0.50684315
vn 0.22355579 -0.8309087 0.50952274
vn 0.1679653 -0.7285813 0.6640459
vn 0.4013578 -0.8184309 0.4111967
vn 0.51813275 -0.73231286 0.44187817
vn 0.27575538 -0.8865484 0.37147132
vn 0.2263805 -0.77775 0.58639306
vn 0.19863202 -0.741475 0.64090574
vn 0.16987894 -0.7014498 0.6921772
vn 0.23729193 0.835221 0.4960831
vn 0.05982293 0.73540115 0.67498624
vn 0.06254439 0.7868195 0.614006
vn 0.2919261 0.8167328 0.4977215
vn 0.06486335 0.83314055 0.5492445
vn 0.34595022 0.7953717 0.49769694
vn 0.32475153 0.87609696 0.3563573
vn 0.43031034 0.81161535 0.39511195
vn 0.5286388 0.7334968 0.4272277
vn -0.021843512 0.7694724 0.6383064
vn -0.023999738 0.69246435 0.7210528
vn -0.019408088 0.83664525 0.5474012
vn 0.6489556 0.43021056 0.6275153
vn 0.6434162 0.42016545 0.6399035
vn 0.6736547 0.4692251 0.57097924
vn 0.6679674 0.46369803 0.58206856
vn 0.6207958 0.38889977 0.6807126
vn 0.6151058 0.37417763 0.69399995
vn 0.6316157 0.36555985 0.6836868
vn 0.6562436 0.41600797 0.6295091
vn 0.6855476 0.4073025 0.60343117
vn 0.6834001 0.4238389 0.59441125
vn 0.6768766 0.46392292 0.5715012
vn 0.6810162 0.44016406 0.5852115
vn 0.70113766 0.42947263 0.56917423
vn 0.7217094 0.44810787 0.5275745
vn 0.6788123 0.40976328 0.6093505
vn 0.6712328 0.43724605 0.5985503
vn 0.6979826 0.43153366 0.57148844
vn 0.69098765 0.5997082 0.4035915
vn 0.73998785 0.49152127 0.4591566
vn 0.72364897 0.4251957 0.5436366
vn 0.7758076 0.37673056 0.50615865
vn 0.6541186 0.70709366 0.26860264
vn 0.7383255 0.552622 0.38663214
vn 0.78939384 0.37334698 0.48730832
vn -0.43718082 -0.63101166 0.64085674
vn -0.30904993 -0.71857363 0.62300885
vn -0.3480085 -0.74493074 0.5691821
vn -0.48298287 -0.6527656 0.58363044
vn -0.38889337 -0.60560745 0.69426334
vn -0.2685157 -0.6885475 0.673648
vn -0.5387303 -0.5433934 0.6438116
vn -0.5721249 -0.56384647 0.5956092
vn -0.5728131 -0.5030733 0.6471495
vn -0.5961573 -0.4774837 0.64545006
vn -0.5032145 -0.5208163 0.68958354
vn -0.61883605 -0.45125875 0.6429677
vn -0.5606953 -0.4646458 0.68536484
vn -0.6247887 -0.4393038 0.64548534
vn -0.68492043 -0.41117626 0.6015131
vn -0.11032903 -0.8113486 0.5740565
vn -0.11861614 -0.82530445 0.5520895
vn 0.12486318 -0.881897 0.45460638
vn 0.20830624 -0.83469737 0.509793
vn 0.039987374 -0.9182712 0.39392775
vn -0.10200217 -0.7968627 0.5954875
vn 0.21107554 -0.9009829 0.37904727
vn 0.35098535 -0.80326426 0.48122317
vn 0.06281479 -0.9630555 0.261875
g mesh_fire_blast_core_0
f 3/3/3 2/2/2 1/1/1
f 4/4/4 1/1/1 2/2/2
f 1/1/1 5/5/5 3/3/3
f 6/6/6 3/3/3 5/5/5
f 7/7/7 3/3/3 6/6/6
f 8/8/8 7/7/7 6/6/6
f 9/9/9 7/7/7 8/8/8
f 10/10/10 9/9/9 8/8/8
f 11/11/11 7/7/7 9/9/9
f 11/11/11 12/12/12 7/7/7
f 7/7/7 12/12/12 3/3/3
f 12/12/12 2/2/2 3/3/3
f 15/15/15 14/14/14 13/13/13
f 13/13/13 16/16/16 15/15/15
f 13/13/13 14/14/14 17/17/17
f 17/17/17 18/18/18 13/13/13
f 13/13/13 18/18/18 19/19/19
f 18/18/18 20/20/20 19/19/19
f 21/21/21 19/19/19 20/20/20
f 22/22/22 19/19/19 21/21/21
f 23/23/23 19/19/19 22/22/22
f 23/23/23 13/13/13 19/19/19
f 16/16/16 13/13/13 23/23/23
f 20/20/20 24/24/24 21/21/21
f 25/25/25 21/21/21 24/24/24
f 22/22/22 21/21/21 25/25/25
f 24/24/24 26/26/26 25/25/25
f 25/25/25 26/26/26 27/27/27
f 27/27/27 28/28/28 25/25/25
f 29/29/29 25/25/25 28/28/28
f 25/25/25 29/29/29 22/22/22
f 28/28/28 30/30/30 29/29/29
f 28/28/28 27/27/27 31/31/31
f 31/31/31 32/32/32 28/28/28
f 30/30/30 28/28/28 32/32/32
f 32/32/32 33/33/33 30/30/30
f 36/36/36 35/35/35 34/34/34
f 34/34/34 37/37/37 36/36/36
f 38/38/38 34/34/34 35/35/35
f 35/35/35 39/39/39 38/38/38
f 35/35/35 36/36/36 40/40/40
f 40/40/40 41/41/41 35/35/35
f 41/41/41 39/39/39 35/35/35
f 41/41/41 40/40/40 42/42/42
f 42/42/42 43/43/43 41/41/41
f 44/44/44 41/41/41 43/43/43
f 39/39/39 41/41/41 44/44/44
f 44/44/44 43/43/43 45/45/45
f 48/48/48 47/47/47 46/46/46
f 47/47/47 49/49/49 46/46/46
f 48/48/48 46/46/46 50/50/50
f 51/51/51 48/48/48 50/50/50
f 52/52/52 46/46/46 49/49/49
f 49/49/49 53/53/53 52/52/52
f 54/54/54 52/52/52 53/53/53
f 52/52/52 54/54/54 55/55/55
f 55/55/55 56/56/56 52/52/52
f 46/46/46 52/52/52 56/56/56
f 56/56/56 50/50/50 46/46/46
f 53/53/53 57/57/57 54/54/54
f 58/58/58 54/54/54 57/57/57
f 57/57/57 59/59/59 58/58/58
f 60/60/60 58/58/58 59/59/59
f 59/59/59 61/61/61 60/60/60
f 58/58/58 60/60/60 62/62/62
f 62/62/62 63/63/63 58/58/58
f 54/54/54 58/58/58 63/63/63
f 63/63/63 55/55/55 54/54/54
f 64/64/64 60/60/60 61/61/61
f 65/65/65 64/64/64 61/61/61
f 60/60/60 64/64/64 66/66/66
f 66/66/66 62/62/62 60/60/60
f 51/51/51 68/68/68 67/67/67
f 67/67/67 48/48/48 51/51/51
f 69/69/69 48/48/48 67/67/67
f 48/48/48 69/69/69 47/47/47
f 17/17/17 14/14/14 70/70/70
f 70/70/70 71/71/71 17/17/17
f 72/72/72 70/70/70 14/14/14
f 14/14/14 15/15/15 72/72/72
f 75/75/75 74/74/74 73/73/73
f 76/76/76 73/73/73 74/74/74
f 73/73/73 77/77/77 75/75/75
f 78/78/78 75/75/75 77/77/77
f 79/79/79 75/75/75 78/78/78
f 80/80/80 79/79/79 78/78/78
f 81/81/81 79/79/79 80/80/80
f 82/82/82 81/81/81 80/80/80
f 81/81/81 83/83/83 79/79/79
f 83/83/83 84/84/84 79/79/79
f 79/79/79 84/84/84 75/75/75
f 74/74/74 75/75/75 84/84/84
f 87/87/87 86/86/86 85/85/85
f 85/85/85 88/88/88 87/87/87
f 89/89/89 85/85/85 86/86/86
f 86/86/86 90/90/90 89/89/89
f 86/86/86 87/87/87 91/91/91
f 91/91/91 92/92/92 86/86/86
f 92/92/92 90/90/90 86/86/86
f 92/92/92 91/91/91 93/93/93
f 93/93/93 94/94/94 92/92/92
f 94/94/94 95/95/95 92/92/92
f 90/90/90 92/92/92 95/95/95
f 95/95/95 94/94/94 96/96/96
f 99/99/99 98/98/98 97/97/97
f 98/98/98 100/100/100 97/97/97
f 99/99/99 97/97/97 101/101/101
f 101/101/101 102/102/102 99/99/99
f 97/97/97 100/100/100 103/103/103
f 104/104/104 103/103/103 100/100/100
f 105/105/105 101/101/101 97/97/97
f 97/97/97 103/103/103 105/105/105
f 106/106/106 98/98/98 99/99/99
f 106/106/106 99/99/99 107/107/107
f 107/107/107 99/99/99 102/102/102
f 102/102/102 108/108/108 107/107/107
f 111/111/111 110/110/110 109/109/109
f 109/109/109 112/112/112 111/111/111
f 113/113/113 111/111/111 112/112/112
f 112/112/112 114/114/114 113/113/113
f 112/112/112 109/109/109 115/115/115
f 115/115/115 116/116/116 112/112/112
f 114/114/114 112/112/112 116/116/116
f 116/116/116 117/117/117 114/114/114
f 110/110/110 111/111/111 118/118/118
f 118/118/118 119/119/119 110/110/110
f 120/120/120 118/118/118 111/111/111
f 111/111/111 113/113/113 120/120/120
f 123/123/123 122/122/122 121/121/121
f 124/124/124 122/122/122 123/123/123
f 125/125/125 121/121/121 122/122/122
f 122/122/122 126/126/126 125/125/125
f 126/126/126 122/122/122 127/127/127
f 128/128/128 127/127/127 122/122/122
f 124/124/124 128/128/128 122/122/122
f 127/127/127 128/128/128 129/129/129
f 128/128/128 130/130/130 129/129/129
f 131/131/131 130/130/130 128/128/128
f 131/131/131 128/128/128 124/124/124
f 132/132/132 130/130/130 131/131/131
f 129/129/129 130/130/130 133/133/133
f 133/133/133 134/134/134 129/129/129
f 135/135/135 133/133/133 130/130/130
f 130/130/130 132/132/132 135/135/135
f 121/121/121 125/125/125 136/136/136
f 136/136/136 137/137/137 121/121/121
f 137/137/137 136/136/136 138/138/138
f 138/138/138 139/139/139 137/137/137
f 140/140/140 137/137/137 139/139/139
f 139/139/139 141/141/141 140/140/140
f 139/139/139 138/138/138 142/142/142
f 142/142/142 143/143/143 139/139/139
f 141/141/141 139/139/139 143/143/143
f 143/143/143 144/144/144 141/141/141
f 137/137/137 140/140/140 123/123/123
f 123/123/123 121/121/121 137/137/137
f 147/147/147 146/146/146 145/145/145
f 145/145/145 148/148/148 147/147/147
f 149/149/149 145/145/145 146/146/146
f 146/146/146 150/150/150 149/149/149
f 148/148/148 145/145/145 151/151/151
f 151/151/151 145/145/145 149/149/149
f 151/151/151 152/152/152 148/148/148
f 151/151/151 153/153/153 152/152/152
f 151/151/151 154/154/154 153/153/153
f 154/154/154 151/151/151 155/155/155
f 149/149/149 155/155/155 151/151/151
f 155/155/155 156/156/156 154/154/154
f 157/157/157 153/153/153 154/154/154
f 157/157/157 154/154/154 158/158/158
f 154/154/154 156/156/156 158/158/158
f 159/159/159 158/158/158 156/156/156
f 160/160/160 146/146/146 147/147/147
f 146/146/146 160/160/160 150/150/150
f 147/147/147 161/161/161 160/160/160
f 162/162/162 160/160/160 161/161/161
f 161/161/161 163/163/163 162/162/162
f 160/160/160 162/162/162 164/164/164
f 164/164/164 165/165/165 160/160/160
f 150/150/150 160/160/160 165/165/165
f 162/162/162 163/163/163 166/166/166
f 167/167/167 166/166/166 163/163/163
f 168/168/168 164/164/164 162/162/162
f 162/162/162 166/166/166 168/168/168
