g mesh_ice
v -0.030551294 -0.08177943 -0.24358147
v 0.11007937 0.07904915 -0.21281187
v 0.03695449 0.17885692 -0.17779343
v -0.16663316 0.05166088 -0.17273925
v -0.036489297 0.24604233 -0.114894204
v -0.26412413 0.16877528 -0.078744784
v -0.29581606 0.0075456426 0.09274872
v -0.20847724 -0.10182852 0.021205325
v -0.038361892 -0.2556266 -0.09712912
v 0.072918706 -0.23446998 0.08160814
v 0.15734461 0.0011973351 0.20057346
v 0.21354935 -0.0736414 0.11237772
v -0.046243038 -0.12599874 0.20562771
v 0.080042325 0.07407672 0.25134608
v -0.14759251 -0.0031903647 0.28749555
v -0.20847724 -0.10182852 0.021205325
v -0.29581606 0.0075456426 0.09274872
v -0.038361892 -0.2556266 -0.09712912
v 0.19611117 -0.2601725 -0.123173274
v 0.17112944 -0.27891886 -0.18529002
v 0.072918706 -0.23446998 0.08160814
v 0.21971944 -0.24273644 -0.18686733
v 0.21354935 -0.0736414 0.11237772
v 0.23766406 -0.21098487 -0.11329898
v 0.23436671 0.07862218 -0.04760021
v 0.03695449 0.17885692 -0.17779343
v 0.11007937 0.07904915 -0.21281187
v 0.19439672 0.15891084 -0.004853336
v 0.12572318 0.2118555 0.037746385
v -0.036489297 0.24604233 -0.114894204
v 0.20662308 -0.16517769 -0.21085589
v 0.25176817 -0.17690319 -0.16923846
v 0.11007937 0.07904915 -0.21281187
v 0.21971944 -0.24273644 -0.18686733
v 0.23766406 -0.21098487 -0.11329898
v 0.23436671 0.07862218 -0.04760021
v 0.11007937 0.07904915 -0.21281187
v 0.21354935 -0.0736414 0.11237772
v 0.23436671 0.07862218 -0.04760021
v 0.15734461 0.0011973351 0.20057346
v 0.19439672 0.15891084 -0.004853336
v 0.12572318 0.2118555 0.037746385
v 0.080042325 0.07407672 0.25134608
v 0.20662308 -0.16517769 -0.21085589
v -0.030551294 -0.08177943 -0.24358147
v 0.16507019 -0.2143653 -0.22073017
v -0.038361892 -0.2556266 -0.09712912
v 0.21971944 -0.24273644 -0.18686733
v 0.17112944 -0.27891886 -0.18529002
v -0.036489297 0.24604233 -0.114894204
v 0.12572318 0.2118555 0.037746385
v -0.10363432 0.24760978 0.1679978
v -0.19509867 0.25636235 0.118075095
v -0.26412413 0.16877528 -0.078744784
v -0.24283832 0.23765819 0.1979714
v -0.2954503 0.21516071 0.08044197
v -0.26412413 0.16877528 -0.078744784
v -0.29581606 0.0075456426 0.09274872
v -0.26412413 0.16877528 -0.078744784
v -0.2954503 0.21516071 0.08044197
v -0.3217923 0.152837 0.172374
v -0.24283832 0.23765819 0.1979714
v -0.14759251 -0.0031903647 0.28749555
v -0.23599292 0.12741956 0.26730692
v 0.12572318 0.2118555 0.037746385
v 0.080042325 0.07407672 0.25134608
v -0.10363432 0.24760978 0.1679978
v -0.14798741 0.19242881 0.2397396
v -0.14759251 -0.0031903647 0.28749555
v -0.24283832 0.23765819 0.1979714
v -0.23599292 0.12741956 0.26730692
vt 2.9802322E-08 0.5
vt 0 1
vt 0.5 1
vt 0.5 0.5
vt 1 1
vt 1 0.5
vt 1 0
vt 0.5 0
vt 2.9802322E-08 2.9802322E-08
vt 2.9802322E-08 0.5
vt 0.5 0
vt 2.9802322E-08 2.9802322E-08
vt 0.5 0.5
vt 1 0
vt 1 0.5
vt 0.5 1
vt 1 1
vt 0 1
vt 0.5 0.05
vt 0 0
vt 0.5 1
vt 0.5 0
vt 1 1
vt 1 0
vt 1 1
vt 1.1920929E-07 0.5
vt 0 1
vt 1 0.5
vt 1 0
vt 0 0
vt 1 1
vt 0.95000005 0.50000006
vt 1.1920929E-07 0.99999994
vt 1 0.5
vt 1 2.9802322E-08
vt 1.1920929E-07 0.5
vt 0 1
vt 0 0
vt 1 0
vt 0 0.5
vt 1 0.5
vt 1 1
vt 0 1
vt 0 0
vt 0.5 1
vt 0.5 0.05
vt 1 1
vt 0.5 0
vt 1 0
vt 0.5 0
vt 0 0
vt 0 1
vt 0.5 0.95
vt 1 0
vt 0.5 1
vt 1 1
vt 1 0
vt 1 0.5
vt 1 0
vt 0 0
vt 0.05 0.5
vt 0 0.5
vt 1 1
vt 0 1
vt -0.001899004 0.008382529
vt -0.001899004 0.5007866
vt 0.998101 0.0007866025
vt 0.9481009 0.5007866
vt -0.001899004 1.0007865
vt 0.998101 0.5007866
vt 0.998101 1.0007867
vn -0.31344658 -0.19332153 -0.92971927
vn 0.3858704 0.35471034 -0.85163647
vn 0.1847138 0.6289597 -0.7551758
vn -0.58753145 -0.012751735 -0.80910087
vn -0.0026616727 0.91227466 -0.40957052
vn -0.759121 0.31418502 -0.57010794
vn -0.8984366 -0.4328536 0.07381991
vn -0.7424568 -0.6661782 -0.0704591
vn -0.465346 -0.85364777 -0.23396285
vn 0.15752052 -0.8536909 0.49638596
vn 0.670749 -0.044626974 0.74034065
vn 0.8294519 -0.2637035 0.49241257
vn -0.1125672 -0.70831555 0.69686276
vn 0.4249708 0.30504876 0.85225874
vn -0.295073 -0.39596015 0.8695674
vn -0.7424568 -0.6661782 -0.0704591
vn -0.8984366 -0.4328536 0.07381991
vn -0.465346 -0.85364777 -0.23396285
vn 0.53014326 -0.8256213 0.19312587
vn 0.17406306 -0.87648916 -0.44885275
vn 0.15752052 -0.8536909 0.49638596
vn 0.714445 -0.5174126 -0.47101232
vn 0.8294519 -0.2637035 0.49241257
vn 0.8693834 -0.46183604 0.17572732
vn 0.9301112 0.32811227 -0.16503179
vn 0.1847138 0.6289597 -0.7551758
vn 0.3858704 0.35471034 -0.85163647
vn 0.78128344 0.6240789 0.011031379
vn 0.48609865 0.8448655 0.2234065
vn -0.0026616727 0.91227466 -0.40957052
vn 0.52943003 0.013470112 -0.84824675
vn 0.9342937 -0.07363116 -0.34881765
vn 0.3858704 0.35471034 -0.85163647
vn 0.714445 -0.5174126 -0.47101232
vn 0.8693834 -0.46183604 0.17572732
vn 0.9301112 0.32811227 -0.16503179
vn 0.3858704 0.35471034 -0.85163647
vn 0.8294519 -0.2637035 0.49241257
vn 0.9301112 0.32811227 -0.16503179
vn 0.670749 -0.044626974 0.74034065
vn 0.78128344 0.6240789 0.011031379
vn 0.48609865 0.8448655 0.2234065
vn 0.4249708 0.30504876 0.85225874
vn 0.52943003 0.013470112 -0.84824675
vn -0.31344658 -0.19332153 -0.92971927
vn 0.15058151 -0.31120512 -0.9383371
vn -0.465346 -0.85364777 -0.23396285
vn 0.714445 -0.5174126 -0.47101232
vn 0.17406306 -0.87648916 -0.44885275
vn -0.0026616727 0.91227466 -0.40957052
vn 0.48609865 0.8448655 0.2234065
vn 0.15720282 0.9068126 0.39112404
vn -0.15127222 0.9883972 -0.013701433
vn -0.759121 0.31418502 -0.57010794
vn -0.34583986 0.8000999 0.4901377
vn -0.70082265 0.7077869 -0.08879842
vn -0.759121 0.31418502 -0.57010794
vn -0.8984366 -0.4328536 0.07381991
vn -0.759121 0.31418502 -0.57010794
vn -0.70082265 0.7077869 -0.08879842
vn -0.9176346 0.17383696 0.35738996
vn -0.34583986 0.8000999 0.4901377
vn -0.295073 -0.39596015 0.8695674
vn -0.40960333 0.21267337 0.88712746
vn 0.48609865 0.8448655 0.2234065
vn 0.4249708 0.30504876 0.85225874
vn 0.15720282 0.9068126 0.39112404
vn 0.11598757 0.585574 0.802278
vn -0.295073 -0.39596015 0.8695674
vn -0.34583986 0.8000999 0.4901377
vn -0.40960333 0.21267337 0.88712746
g mesh_ice_0
f 3/3/3 2/2/2 1/1/1
f 1/1/1 4/4/4 3/3/3
f 5/5/5 3/3/3 4/4/4
f 4/4/4 6/6/6 5/5/5
f 7/7/7 6/6/6 4/4/4
f 8/8/8 7/7/7 4/4/4
f 8/8/8 4/4/4 1/1/1
f 9/9/9 8/8/8 1/1/1
f 12/12/12 11/11/11 10/10/10
f 10/10/10 11/11/11 13/13/13
f 11/11/11 14/14/14 13/13/13
f 15/15/15 13/13/13 14/14/14
f 10/10/10 13/13/13 16/16/16
f 13/13/13 15/15/15 16/16/16
f 15/15/15 17/17/17 16/16/16
f 16/16/16 18/18/18 10/10/10
f 18/18/18 20/20/20 19/19/19
f 19/19/19 21/21/21 18/18/18
f 22/22/22 19/19/19 20/20/20
f 19/19/19 23/23/23 21/21/21
f 22/22/22 24/24/24 19/19/19
f 19/19/19 24/24/24 23/23/23
f 27/27/27 26/26/26 25/25/25
f 26/26/26 28/28/28 25/25/25
f 29/29/29 28/28/28 26/26/26
f 26/26/26 30/30/30 29/29/29
f 33/33/33 32/32/32 31/31/31
f 31/31/31 32/32/32 34/34/34
f 34/34/34 32/32/32 35/35/35
f 36/36/36 35/35/35 32/32/32
f 32/32/32 37/37/37 36/36/36
f 36/36/36 38/38/38 35/35/35
f 40/40/40 38/38/38 39/39/39
f 39/39/39 41/41/41 40/40/40
f 40/40/40 41/41/41 42/42/42
f 42/42/42 43/43/43 40/40/40
f 45/45/45 37/37/37 44/44/44
f 44/44/44 46/46/46 45/45/45
f 45/45/45 46/46/46 47/47/47
f 46/46/46 44/44/44 48/48/48
f 46/46/46 49/49/49 47/47/47
f 46/46/46 48/48/48 49/49/49
f 52/52/52 51/51/51 50/50/50
f 50/50/50 53/53/53 52/52/52
f 50/50/50 54/54/54 53/53/53
f 55/55/55 52/52/52 53/53/53
f 55/55/55 53/53/53 56/56/56
f 56/56/56 53/53/53 57/57/57
f 60/60/60 59/59/59 58/58/58
f 58/58/58 61/61/61 60/60/60
f 62/62/62 60/60/60 61/61/61
f 61/61/61 58/58/58 63/63/63
f 64/64/64 62/62/62 61/61/61
f 63/63/63 64/64/64 61/61/61
f 67/67/67 66/66/66 65/65/65
f 66/66/66 67/67/67 68/68/68
f 68/68/68 69/69/69 66/66/66
f 68/68/68 67/67/67 70/70/70
f 69/69/69 68/68/68 71/71/71
f 71/71/71 68/68/68 70/70/70
