g mesh_ground_b
v -0.026071204 -0.0008385773 0.028367862
v -0.08125503 -0.000838228 0.069286786
v -0.10278141 -0.0008397388 0.003181114
v -0.05227493 -0.00083862455 -0.028540706
v -0.0660619 -0.0008382888 0.07991363
v 0.018637734 -0.0008386943 0.084851645
v -0.011065521 -0.00083854265 -0.053188734
v 0.035574265 -0.0008387109 0.011027622
v 0.056610867 -0.0008382558 0.045118578
v 0.09502687 -0.00083830475 0.0013752364
v 0.08397821 -0.00083850516 -0.015453892
v 0.11514003 -0.0008385496 -0.01123066
v 0.1215485 -0.0008385344 -0.032875955
v 0.053105716 -0.00083860575 -0.06900134
v 0.08540402 -0.00083878427 -0.06387258
v -0.090125136 -0.0008380449 0.0644452
v -0.098995246 -0.00083786185 0.059603613
v -0.034646645 -0.0008378714 0.089751184
v -0.010625496 -0.00083795784 0.09653259
v 0.0027817916 -0.0008380228 0.09973724
v 0.01648037 -0.0008383183 0.09817877
v 0.07577181 -0.00083804305 0.029288653
v 0.091576114 -0.0008378988 0.008196487
v 0.12724651 -0.00083797483 -0.05466366
v 0.119537316 -0.0008380353 -0.07409172
v 0.099390924 -0.00083788036 -0.083546944
v 0.056535568 -0.0008378988 -0.07916025
v 0.045816097 -0.0008384443 -0.078737125
v 0.014501723 -0.0008380976 -0.07592921
v -0.016501693 -0.0008377367 -0.0673075
v -0.05611551 -0.0008378988 -0.06993688
v -0.0717062 -0.00083800015 -0.062363215
v -0.078579254 -0.0008378094 -0.049806885
v -0.08822811 -0.00083788455 -0.04340613
v -0.100757904 -0.00083854864 -0.0287829
v -0.098995246 -0.00083786185 0.059603613
v -0.11237812 -0.00083790894 0.04301213
v -0.122249104 -0.00083837315 0.014930381
v -0.100757904 -0.00083854864 -0.0287829
v -0.11124582 -0.03018816 0.042029142
v -0.11237812 -0.00083790894 0.04301213
v -0.11922052 -0.030188387 0.016573653
v -0.122249104 -0.00083837315 0.014930381
v -0.0985766 -0.030188475 -0.025259871
v -0.11619194 -0.07129662 0.018216925
v -0.110113524 -0.07129662 0.04104615
v -0.09850929 -0.03018817 0.06717372
v -0.08963919 -0.03018835 0.0720153
v -0.07484005 -0.030188313 0.08785599
v -0.09802333 -0.07129669 0.07474382
v -0.03495182 -0.030188102 0.09504495
v -0.034646645 -0.0008378714 0.089751184
v -0.011141338 -0.030188255 0.09709233
v -0.010625496 -0.00083795784 0.09653259
v 0.002617073 -0.030188322 0.103920706
v 0.0027817916 -0.0008380228 0.09973724
v 0.017460078 -0.030188417 0.101083346
v -0.035256997 -0.071296535 0.100338705
v -0.0836182 -0.07129656 0.095798336
v -0.01165718 -0.07129677 0.09765207
v 0.0024523544 -0.071296826 0.10810417
v 0.017460078 -0.030188417 0.101083346
v 0.018439788 -0.07129673 0.10398792
v 0.025261821 -0.030188551 0.08692542
v 0.061985187 -0.030188369 0.051527634
v 0.07577181 -0.00083804305 0.029288653
v 0.078549586 -0.030188225 0.034980554
v 0.09227454 -0.030188149 0.008424301
v 0.096175075 -0.03018835 0.00017513275
v 0.11514003 -0.0008385496 -0.01123066
v 0.03188591 -0.07129662 0.08899919
v 0.017460078 -0.030188417 0.101083346
v 0.018439788 -0.07129673 0.10398792
v 0.0673595 -0.07129669 0.057936687
v 0.081327364 -0.07129662 0.040672455
v 0.092972964 -0.07129662 0.008652114
v 0.09732328 -0.07129662 -0.001024971
v 0.114810176 -0.030188475 -0.016622266
v 0.11514003 -0.0008385496 -0.01123066
v 0.1215485 -0.0008385344 -0.032875955
v 0.114480324 -0.07129662 -0.022013873
v 0.12501441 -0.03018854 -0.03674358
v 0.1215485 -0.0008385344 -0.032875955
v 0.1284803 -0.07129677 -0.040611207
v 0.12816523 -0.030188274 -0.055609055
v 0.12724651 -0.00083797483 -0.05466366
v 0.12908393 -0.07129679 -0.05655445
v 0.12266853 -0.030188255 -0.074673735
v 0.119537316 -0.0008380353 -0.07409172
v 0.12724651 -0.00083797483 -0.05466366
v 0.1023384 -0.030188179 -0.08551776
v 0.099390924 -0.00083788036 -0.083546944
v 0.056801118 -0.03018816 -0.080787756
v 0.056535568 -0.0008378988 -0.07916025
v 0.046076305 -0.030188445 -0.0812499
v 0.045816097 -0.0008384443 -0.078737125
v 0.017891074 -0.030188246 -0.077894144
v 0.014501723 -0.0008380976 -0.07592921
v -0.015112753 -0.030188045 -0.07167828
v -0.016501693 -0.0008377367 -0.0673075
v -0.056028385 -0.030188112 -0.075353466
v -0.05611551 -0.0008378988 -0.06993688
v -0.0717062 -0.00083800015 -0.062363215
v -0.073124036 -0.030188188 -0.06735679
v -0.07939832 -0.030188102 -0.050666418
v -0.078579254 -0.0008378094 -0.049806885
v -0.08668538 -0.03018813 -0.042660855
v -0.08822811 -0.00083788455 -0.04340613
v -0.100757904 -0.00083854864 -0.0287829
v -0.08021738 -0.07129662 -0.051525943
v -0.074541874 -0.071296595 -0.07235035
v -0.08514265 -0.071296595 -0.041915577
v -0.100757904 -0.00083854864 -0.0287829
v -0.122249104 -0.00083837315 0.014930381
v -0.0963953 -0.07129662 -0.02173684
v -0.055941258 -0.071296535 -0.08077005
v -0.013723812 -0.07129656 -0.07604907
v 0.021280421 -0.07129662 -0.07985907
v 0.046336517 -0.071296655 -0.08376268
v 0.057066668 -0.07129663 -0.08241527
v 0.1023384 -0.030188179 -0.08551776
v 0.10528588 -0.07129669 -0.08748857
v 0.017460078 -0.030188417 0.101083346
v 0.10528588 -0.07129669 -0.08748857
v 0.12579975 -0.07129669 -0.07525575
v 0.1023384 -0.030188179 -0.08551776
vt 0.17745964 0.34109405
vt -0.26455492 0.23422784
vt -0.34568185 0.5942637
vt -0.12629047 0.83113384
vt -0.1825887 0.14919406
vt 0.36659467 0.1281294
vt 0.29348564 0.9846543
vt 0.5256287 0.60511076
vt 0.5930848 0.37823763
vt 0.81797886 0.6801722
vt 0.7327378 0.7923417
vt 0.9375192 0.8406688
vt 0.9551543 0.9452404
vt 0.57117563 1.0637435
vt 0.7711193 1.1206812
vt -0.34008902 0.24286777
vt -0.41562337 0.2515076
vt 0.012280103 0.08292863
vt 0.17739907 0.059923023
vt 0.26545972 0.047685295
vt 0.3535428 0.035395533
vt 0.72272766 0.49843493
vt 0.82483536 0.63552535
vt 1.027519 1.0471424
vt 0.97106206 1.1617849
vt 0.7806847 1.2260216
vt 0.5647404 1.2074499
vt 0.4937296 1.1982166
vt 0.31623185 1.1751043
vt 0.0765996 1.1439124
vt -0.18077832 1.1104349
vt -0.29594278 1.0794786
vt -0.33064425 1.0110765
vt -0.36534578 0.94267356
vt -0.43038827 0.8144144
vt -0.41562337 0.2515076
vt -0.4956699 0.39128205
vt -0.5364615 0.57684815
vt -0.43038827 0.8144144
vt -0.5772556 0.3493843
vt -0.4956699 0.39128205
vt -0.6257074 0.56448364
vt -0.5364615 0.57684815
vt -0.5101979 0.8377898
vt -0.664213 0.5461679
vt -0.61354357 0.34918523
vt -0.47730744 0.17492908
vt -0.40177315 0.16628933
vt -0.27899104 0.049237877
vt -0.5007712 0.106035195
vt -0.0030734576 -0.013795763
vt 0.012280103 0.08292863
vt 0.18245135 -0.042557985
vt 0.17739907 0.059923023
vt 0.28140438 -0.05787638
vt 0.26545972 0.047685295
vt 0.38035953 -0.07321879
vt -0.02486766 -0.0681926
vt -0.35058826 -0.027179591
vt 0.18333334 -0.0978293
vt 0.2914942 -0.115367435
vt 0.38035953 -0.07321879
vt 0.39745176 -0.14467071
vt 0.4374956 0.024024218
vt 0.6398816 0.27759168
vt 0.72272766 0.49843493
vt 0.78769046 0.45732763
vt 0.9002108 0.6145098
vt 0.92138475 0.6722708
vt 0.9375192 0.8406688
vt 0.47766152 -0.028178282
vt 0.38035953 -0.07321879
vt 0.39745176 -0.14467071
vt 0.5853032 0.11613582
vt 0.8252719 0.43043995
vt 0.9408778 0.6077705
vt 0.9838305 0.67505926
vt 1.0518402 0.85444987
vt 0.9375192 0.8406688
vt 0.9551543 0.9452404
vt 1.095359 0.8642376
vt 1.0871695 0.9818212
vt 0.9551543 0.9452404
vt 1.1644343 1.0175518
vt 1.1215508 1.0877773
vt 1.027519 1.0471424
vt 1.1762873 1.1115189
vt 1.0565625 1.2210735
vt 0.97106206 1.1617849
vt 1.027519 1.0471424
vt 0.84210616 1.2978333
vt 0.7806847 1.2260216
vt 0.6001781 1.2791897
vt 0.5647404 1.2074499
vt 0.5206725 1.2694304
vt 0.4937296 1.1982166
vt 0.32193747 1.2450486
vt 0.31623185 1.1751043
vt 0.05362537 1.2121352
vt 0.0765996 1.1439124
vt -0.23455071 1.1767914
vt -0.18077832 1.1104349
vt -0.29594278 1.0794786
vt -0.3632654 1.142502
vt -0.40119237 1.0638639
vt -0.33064425 1.0110765
vt -0.43911135 0.9852363
vt -0.36534578 0.94267356
vt -0.43038827 0.8144144
vt -0.4429517 1.084638
vt -0.40518183 1.1865976
vt -0.47768876 1.0100545
vt -0.43038827 0.8144144
vt -0.5364615 0.57684815
vt -0.54591805 0.8522645
vt -0.26241258 1.2177835
vt 0.05449248 1.2506545
vt 0.33258843 1.2842654
vt 0.5384345 1.3083345
vt 0.61096454 1.3160326
vt 0.84210616 1.2978333
vt 0.8761435 1.3423672
vt 0.38035953 -0.07321879
vt 0.8761435 1.3423672
vt 1.1164135 1.2558973
vt 0.84210616 1.2978333
vn -2.6461803E-06 1 -2.5133445E-06
vn -0.27469066 0.8773653 0.3934149
vn 3.507201E-05 1 1.16136E-06
vn 5.0606286E-06 1 1.4969881E-05
vn -0.26958302 0.808824 0.5226172
vn 0.28298885 0.9423488 0.17859481
vn 7.5910207E-06 1 1.9951252E-05
vn -2.9693779E-06 1 -1.7884238E-06
vn 0.33651036 0.873237 0.35244554
vn 0.42597446 0.8344176 0.3497043
vn -1.2141293E-06 1 -4.3550235E-06
vn 0.71971595 0.42787024 0.5467504
vn 0.5232819 0.8370288 0.15987173
vn -7.432724E-06 1 2.5430156E-05
vn -7.273071E-06 1 2.5239999E-05
vn -0.30398086 0.7729232 0.55694294
vn -0.5784003 0.5405828 0.6109201
vn 1.0416388E-05 1 -5.4662567E-05
vn 1.1436218E-05 1 -4.3250802E-05
vn 1.558102E-05 1 -2.8507937E-05
vn 0.508541 0.5973505 0.62012774
vn -7.4039715E-05 1 -6.0441052E-05
vn 0.7625503 0.49142712 0.4207333
vn -2.2248441E-05 1 1.3192298E-05
vn -1.6324253E-05 1 2.5870371E-05
vn -4.406432E-06 1 4.6737077E-05
vn -2.3600498E-05 1 5.4017375E-05
vn -1.9938469E-05 1 3.840128E-05
vn 1.6882439E-05 1 3.559841E-05
vn 1.4577463E-05 1 3.718686E-05
vn 3.115484E-06 1 2.2111031E-05
vn 1.5962001E-05 1 9.291949E-06
vn 1.9842533E-05 1 1.377963E-05
vn 5.527083E-06 1 3.3278506E-05
vn 4.8833197E-05 1 4.1778654E-05
vn -0.5784003 0.5405828 0.6109201
vn 4.5140285E-05 1 -3.498415E-05
vn 7.2973504E-05 1 4.6749155E-06
vn 4.8833197E-05 1 4.1778654E-05
vn -0.9245125 -0.015276035 0.3808455
vn -0.90442973 -0.013825515 0.42639852
vn -0.99349433 -0.08397622 -0.0769217
vn -0.99296385 -0.09793673 -0.066567235
vn -0.85920036 -0.09075466 -0.5035259
vn -0.99372387 -0.07009094 -0.087178744
vn -0.9421994 -0.016680071 0.33463725
vn -0.779886 0.08498648 0.6201251
vn -0.62881184 0.25192553 0.73561484
vn -0.45914286 0.25505432 0.85096127
vn -0.74886084 0.1547998 0.64439476
vn -0.131363 0.14844112 0.9801576
vn -0.20345931 0.17425682 0.96345156
vn -0.26551047 0.07766578 0.9609746
vn -0.26395184 0.09016131 0.9603126
vn -0.13242193 0.08966046 0.98712987
vn -0.10031075 0.10335175 0.9895737
vn 0.5853985 0.12950131 0.8003361
vn -0.05840299 0.12169251 0.9908481
vn -0.47950014 0.21988425 0.84954727
vn -0.26708335 0.06468438 0.96150005
vn -0.16583234 0.07522379 0.9832807
vn 0.5853985 0.12950131 0.8003361
vn 0.5457825 0.10446937 0.83138895
vn 0.78638667 0.17072596 0.5936738
vn 0.6857304 0.20538545 0.69827694
vn 0.757758 0.17294654 0.62919974
vn 0.7983135 0.1469403 0.5840411
vn 0.89393383 0.05177256 0.44519866
vn 0.80144733 -0.023561893 0.59760106
vn 0.71971595 0.42787024 0.5467504
vn 0.73904693 0.14168142 0.65858644
vn 0.5853985 0.12950131 0.8003361
vn 0.5457825 0.10446937 0.83138895
vn 0.70000917 0.17111416 0.69333047
vn 0.83547866 0.12022429 0.53621036
vn 0.9122848 0.041375685 0.40746114
vn 0.8281792 -0.016425975 0.5602227
vn 0.79287213 -0.042042382 0.6079361
vn 0.71971595 0.42787024 0.5467504
vn 0.5232819 0.8370288 0.15987173
vn 0.79037106 -0.037788767 0.6114619
vn 0.95077825 0.016793154 0.3094166
vn 0.5232819 0.8370288 0.15987173
vn 0.9449699 0.009933493 0.32700637
vn 0.99654174 0.058429666 -0.05907992
vn 0.9960836 0.06694311 -0.057758577
vn 0.9969178 0.05010821 -0.060366593
vn 0.7751874 0.074400775 -0.62733483
vn 0.75034136 0.0855567 -0.65549064
vn 0.9960836 0.06694311 -0.057758577
vn 0.19117658 0.063523024 -0.979498
vn 0.1792709 0.073047474 -0.9810841
vn -0.03024622 0.054104824 -0.99807703
vn -0.050382867 0.062912315 -0.99674654
vn -0.03814256 0.05978824 -0.99748206
vn -0.05055949 0.069933765 -0.9962695
vn -0.15222932 0.06789153 -0.9860107
vn -0.1642069 0.07802311 -0.9833354
vn -0.048955083 0.11099384 -0.99261457
vn -0.0749241 0.12771663 -0.9889767
vn -0.17134966 0.14846835 -0.97395915
vn -0.17942855 0.17234473 -0.968557
vn -0.71031094 0.12937778 -0.6918957
vn -0.72869563 0.11099568 -0.67578304
vn -0.8520519 0.028126039 -0.52270114
vn -0.7988896 0.03535285 -0.6004379
vn -0.78385705 -0.043518018 -0.61941457
vn -0.7246225 -0.050650842 -0.68728215
vn -0.84522957 -0.106403686 -0.52370334
vn -0.8970271 0.020754829 -0.4414881
vn -0.74684995 0.09202741 -0.6585941
vn -0.83639884 -0.03607495 -0.54693294
vn -0.84522957 -0.106403686 -0.52370334
vn -0.99296385 -0.09793673 -0.066567235
vn -0.8723969 -0.07508551 -0.48299673
vn -0.1631431 0.12445303 -0.9787215
vn -0.023054052 0.09423847 -0.9952827
vn -0.14023608 0.057762057 -0.98843175
vn -0.025657747 0.049579788 -0.9984405
vn -0.01003323 0.045244038 -0.99892557
vn 0.19117658 0.063523024 -0.979498
vn 0.20313004 0.053908873 -0.9776666
vn 0.5853985 0.12950131 0.8003361
vn 0.20313004 0.053908873 -0.9776666
vn 0.7991071 0.06300138 -0.5978785
vn 0.19117658 0.063523024 -0.979498
g mesh_ground_b_0
f 3/3/3 2/2/2 1/1/1
f 1/1/1 4/4/4 3/3/3
f 2/2/2 5/5/5 1/1/1
f 6/6/6 1/1/1 5/5/5
f 7/7/7 4/4/4 1/1/1
f 1/1/1 8/8/8 7/7/7
f 8/8/8 1/1/1 6/6/6
f 6/6/6 9/9/9 8/8/8
f 9/9/9 10/10/10 8/8/8
f 8/8/8 10/10/10 11/11/11
f 11/11/11 10/10/10 12/12/12
f 12/12/12 13/13/13 11/11/11
f 8/8/8 11/11/11 14/14/14
f 14/14/14 7/7/7 8/8/8
f 11/11/11 13/13/13 15/15/15
f 15/15/15 14/14/14 11/11/11
f 16/16/16 2/2/2 3/3/3
f 3/3/3 17/17/17 16/16/16
f 5/5/5 18/18/18 6/6/6
f 18/18/18 19/19/19 6/6/6
f 19/19/19 20/20/20 6/6/6
f 20/20/20 21/21/21 6/6/6
f 10/10/10 9/9/9 22/22/22
f 22/22/22 23/23/23 10/10/10
f 13/13/13 24/24/24 15/15/15
f 24/24/24 25/25/25 15/15/15
f 25/25/25 26/26/26 15/15/15
f 27/27/27 14/14/14 15/15/15
f 15/15/15 26/26/26 27/27/27
f 27/27/27 28/28/28 14/14/14
f 14/14/14 28/28/28 29/29/29
f 29/29/29 7/7/7 14/14/14
f 29/29/29 30/30/30 7/7/7
f 7/7/7 30/30/30 31/31/31
f 31/31/31 4/4/4 7/7/7
f 31/31/31 32/32/32 4/4/4
f 32/32/32 33/33/33 4/4/4
f 33/33/33 34/34/34 4/4/4
f 4/4/4 34/34/34 35/35/35
f 35/35/35 3/3/3 4/4/4
f 3/3/3 37/37/37 36/36/36
f 38/38/38 37/37/37 3/3/3
f 39/39/39 38/38/38 3/3/3
f 41/41/41 40/40/40 36/36/36
f 41/41/41 42/42/42 40/40/40
f 43/43/43 42/42/42 41/41/41
f 43/43/43 44/44/44 42/42/42
f 45/45/45 40/40/40 42/42/42
f 40/40/40 45/45/45 46/46/46
f 40/40/40 46/46/46 47/47/47
f 17/17/17 40/40/40 47/47/47
f 16/16/16 17/17/17 47/47/47
f 47/47/47 48/48/48 16/16/16
f 48/48/48 2/2/2 16/16/16
f 2/2/2 48/48/48 49/49/49
f 49/49/49 5/5/5 2/2/2
f 50/50/50 48/48/48 47/47/47
f 47/47/47 46/46/46 50/50/50
f 50/50/50 49/49/49 48/48/48
f 5/5/5 49/49/49 51/51/51
f 51/51/51 52/52/52 5/5/5
f 52/52/52 51/51/51 53/53/53
f 53/53/53 54/54/54 52/52/52
f 54/54/54 53/53/53 55/55/55
f 55/55/55 56/56/56 54/54/54
f 55/55/55 21/21/21 56/56/56
f 55/55/55 57/57/57 21/21/21
f 58/58/58 51/51/51 49/49/49
f 49/49/49 59/59/59 58/58/58
f 49/49/49 50/50/50 59/59/59
f 60/60/60 53/53/53 51/51/51
f 51/51/51 58/58/58 60/60/60
f 61/61/61 55/55/55 53/53/53
f 53/53/53 60/60/60 61/61/61
f 61/61/61 62/62/62 55/55/55
f 61/61/61 63/63/63 62/62/62
f 64/64/64 6/6/6 21/21/21
f 6/6/6 64/64/64 65/65/65
f 65/65/65 9/9/9 6/6/6
f 65/65/65 66/66/66 9/9/9
f 65/65/65 67/67/67 66/66/66
f 66/66/66 67/67/67 68/68/68
f 68/68/68 23/23/23 66/66/66
f 10/10/10 23/23/23 68/68/68
f 68/68/68 69/69/69 10/10/10
f 69/69/69 70/70/70 10/10/10
f 71/71/71 65/65/65 64/64/64
f 71/71/71 64/64/64 72/72/72
f 72/72/72 73/73/73 71/71/71
f 71/71/71 74/74/74 65/65/65
f 75/75/75 67/67/67 65/65/65
f 65/65/65 74/74/74 75/75/75
f 76/76/76 68/68/68 67/67/67
f 67/67/67 75/75/75 76/76/76
f 69/69/69 68/68/68 76/76/76
f 76/76/76 77/77/77 69/69/69
f 78/78/78 69/69/69 77/77/77
f 69/69/69 78/78/78 79/79/79
f 80/80/80 79/79/79 78/78/78
f 77/77/77 81/81/81 78/78/78
f 82/82/82 78/78/78 81/81/81
f 78/78/78 82/82/82 83/83/83
f 81/81/81 84/84/84 82/82/82
f 85/85/85 82/82/82 84/84/84
f 82/82/82 85/85/85 86/86/86
f 84/84/84 87/87/87 85/85/85
f 88/88/88 85/85/85 87/87/87
f 85/85/85 88/88/88 89/89/89
f 89/89/89 90/90/90 85/85/85
f 90/90/90 13/13/13 82/82/82
f 89/89/89 88/88/88 91/91/91
f 91/91/91 92/92/92 89/89/89
f 92/92/92 91/91/91 93/93/93
f 93/93/93 94/94/94 92/92/92
f 94/94/94 93/93/93 95/95/95
f 95/95/95 96/96/96 94/94/94
f 96/96/96 95/95/95 97/97/97
f 97/97/97 98/98/98 96/96/96
f 98/98/98 97/97/97 99/99/99
f 99/99/99 100/100/100 98/98/98
f 100/100/100 99/99/99 101/101/101
f 101/101/101 102/102/102 100/100/100
f 103/103/103 102/102/102 101/101/101
f 103/103/103 101/101/101 104/104/104
f 103/103/103 104/104/104 105/105/105
f 105/105/105 106/106/106 103/103/103
f 106/106/106 105/105/105 107/107/107
f 107/107/107 108/108/108 106/106/106
f 107/107/107 109/109/109 108/108/108
f 110/110/110 105/105/105 104/104/104
f 104/104/104 111/111/111 110/110/110
f 112/112/112 107/107/107 105/105/105
f 105/105/105 110/110/110 112/112/112
f 112/112/112 44/44/44 107/107/107
f 113/113/113 107/107/107 44/44/44
f 113/113/113 44/44/44 114/114/114
f 44/44/44 112/112/112 115/115/115
f 44/44/44 115/115/115 42/42/42
f 42/42/42 115/115/115 45/45/45
f 104/104/104 116/116/116 111/111/111
f 104/104/104 101/101/101 116/116/116
f 116/116/116 101/101/101 99/99/99
f 99/99/99 117/117/117 116/116/116
f 117/117/117 99/99/99 97/97/97
f 97/97/97 118/118/118 117/117/117
f 118/118/118 97/97/97 95/95/95
f 95/95/95 119/119/119 118/118/118
f 119/119/119 95/95/95 93/93/93
f 93/93/93 120/120/120 119/119/119
f 120/120/120 93/93/93 121/121/121
f 121/121/121 122/122/122 120/120/120
f 21/21/21 123/123/123 64/64/64
f 88/88/88 125/125/125 124/124/124
f 124/124/124 126/126/126 88/88/88
f 87/87/87 125/125/125 88/88/88
