g mesh_claw
v 0.050984457 0.29926783 3.4286562E-09
v 0.084342346 0.25451085 0.04234049
v 0.11474848 0.28412527 -1.7910871E-08
v 0.050984457 0.29926783 3.4286562E-09
v 0.028740723 0.26668268 0.035904504
v 0.014866938 0.2262728 -1.1385461E-08
v -0.013053614 0.29949507 -3.1261944E-09
v -0.022992041 0.22758423 3.4286562E-09
v -0.027357042 0.26709083 0.029662337
v -0.07433479 0.28514767 0
v -0.061834306 0.22366889 -3.1261944E-09
v -0.08162826 0.25594673 0.0234175
v -0.1296532 0.258406 0
v -0.10073725 0.21432808 0
v -0.13167657 0.23414128 0.017773388
v -0.17688766 0.22050667 0
v -0.13905656 0.19829188 0
v -0.17561854 0.20274037 0.012314972
v -0.21738201 0.17089288 0
v -0.17531504 0.17596765 0
v -0.2116688 0.1644177 0.0072752964
v -0.2459794 0.10586658 0
v -0.20468986 0.1544216 0
v 0.11474848 0.28412527 -1.7910871E-08
v 0.08434235 0.25451085 -0.04234049
v 0.050984457 0.29926783 3.4286562E-09
v 0.050984457 0.29926783 3.4286562E-09
v 0.02874072 0.26668268 -0.035904508
v 0.014866938 0.2262728 -1.1385461E-08
v -0.013053614 0.29949507 -3.1261944E-09
v -0.022992041 0.22758423 3.4286562E-09
v -0.027357042 0.26709083 -0.02966233
v -0.07433479 0.28514767 0
v -0.061834306 0.22366889 -3.1261944E-09
v -0.08162826 0.25594673 -0.0234175
v -0.1296532 0.258406 0
v -0.10073725 0.21432808 0
v -0.13167657 0.23414128 -0.017773388
v -0.17688766 0.22050667 0
v -0.13905656 0.19829188 0
v -0.17561857 0.20274037 -0.012314972
v -0.21738201 0.17089288 0
v -0.17531504 0.17596765 0
v -0.2116688 0.1644177 -0.0072752964
v -0.2459794 0.10586658 0
v -0.20468986 0.1544216 0
v 0.06455283 0.31906378 1.0281864E-08
v 0.084283754 0.25443974 0.054360807
v 0.1346462 0.30348566 -3.7510087E-08
v 0.028660411 0.26678142 0.04800994
v -0.01693414 0.2134222 -2.3844153E-08
v -0.0040343576 0.3192996 -8.984498E-09
v -0.041308064 0.21360126 1.0281864E-08
v -0.027394742 0.2672307 0.04088582
v -0.069367215 0.30402142 0
v -0.072947375 0.2096107 -8.984498E-09
v -0.08184795 0.25598398 0.03308123
v -0.12844138 0.27409273 0
v -0.10674675 0.20110111 0
v -0.13174932 0.23429357 0.026483545
v -0.17772916 0.23249143 0
v -0.14113633 0.18791439 0
v -0.17563935 0.20278256 0.019824883
v -0.22099942 0.17627275 0
v -0.17513289 0.16827928 0
v -0.21182266 0.16414638 0.012667375
v -0.2459794 0.10586658 0
v -0.20117645 0.14974572 0
v 0.08428378 0.25443974 -0.054360807
v 0.06455283 0.31906378 1.0281864E-08
v 0.1346462 0.30348566 -3.7510087E-08
v 0.02866041 0.26678142 -0.048009947
v -0.01693414 0.2134222 -2.3844153E-08
v -0.0040343576 0.3192996 -8.984498E-09
v -0.041308064 0.21360126 1.0281864E-08
v -0.027394742 0.2672307 -0.04088582
v -0.069367215 0.30402142 0
v -0.072947375 0.2096107 -8.984498E-09
v -0.08184795 0.25598398 -0.03308123
v -0.12844138 0.27409273 0
v -0.10674675 0.20110111 0
v -0.13174932 0.23429357 -0.026483545
v -0.17772916 0.23249143 0
v -0.14113633 0.18791439 0
v -0.17563938 0.20278256 -0.019824883
v -0.22099942 0.17627275 0
v -0.17513289 0.16827928 0
v -0.21182266 0.16414638 -0.012667375
v -0.2459794 0.10586658 0
v -0.20117645 0.14974572 0
vt 0.9734988 0.6014862
vt 0.9217931 0.98366815
vt 0.9740027 0.983668
vt 0.9734988 0.6014862
vt 0.9212892 0.6014863
vt 0.034513116 0.9836679
vt 0.973499 0.4002077
vt 0.034512997 0.6014863
vt 0.9212892 0.4002077
vt 0.97349894 0.24858883
vt 0.034512997 0.40020758
vt 0.92128915 0.24858883
vt 0.9734989 0.14662956
vt 0.034512997 0.24858883
vt 0.9212892 0.14662953
vt 0.97349894 0.1014241
vt 0.034512997 0.1466295
vt 0.92128915 0.10142416
vt 0.9734989 0.081048824
vt 0.034512997 0.1014241
vt 0.92128915 0.081048824
vt 0.6431003 0.060673386
vt 0.034512997 0.081048824
vt 0.9740027 0.983668
vt 0.9217931 0.98366815
vt 0.9734988 0.6014862
vt 0.9734988 0.6014862
vt 0.9212892 0.6014863
vt 0.034513116 0.9836679
vt 0.973499 0.4002077
vt 0.034512997 0.6014863
vt 0.9212892 0.4002077
vt 0.97349894 0.24858883
vt 0.034512997 0.40020758
vt 0.92128915 0.24858883
vt 0.9734989 0.14662956
vt 0.034512997 0.24858883
vt 0.9212892 0.14662953
vt 0.97349894 0.1014241
vt 0.034512997 0.1466295
vt 0.92128915 0.10142416
vt 0.9734989 0.081048824
vt 0.034512997 0.1014241
vt 0.92128915 0.081048824
vt 0.6431003 0.060673386
vt 0.034512997 0.081048824
vt 0.9734988 0.6014862
vt 0.9217931 0.98366815
vt 0.9740027 0.983668
vt 0.9212892 0.6014863
vt 0.034513116 0.9836679
vt 0.973499 0.4002077
vt 0.034512997 0.6014863
vt 0.9212892 0.4002077
vt 0.97349894 0.24858883
vt 0.034512997 0.40020758
vt 0.92128915 0.24858883
vt 0.9734989 0.14662956
vt 0.034512997 0.24858883
vt 0.9212892 0.14662953
vt 0.97349894 0.1014241
vt 0.034512997 0.1466295
vt 0.92128915 0.10142416
vt 0.9734989 0.081048824
vt 0.034512997 0.1014241
vt 0.92128915 0.081048824
vt 0.6431003 0.060673386
vt 0.034512997 0.081048824
vt 0.9217931 0.98366815
vt 0.9734988 0.6014862
vt 0.9740027 0.983668
vt 0.9212892 0.6014863
vt 0.034513116 0.9836679
vt 0.973499 0.4002077
vt 0.034512997 0.6014863
vt 0.9212892 0.4002077
vt 0.97349894 0.24858883
vt 0.034512997 0.40020758
vt 0.92128915 0.24858883
vt 0.9734989 0.14662956
vt 0.034512997 0.24858883
vt 0.9212892 0.14662953
vt 0.97349894 0.1014241
vt 0.034512997 0.1466295
vt 0.92128915 0.10142416
vt 0.9734989 0.081048824
vt 0.034512997 0.1014241
vt 0.92128915 0.081048824
vt 0.6431003 0.060673386
vt 0.034512997 0.081048824
vn -0.049633805 -0.72747254 -0.68433934
vn 0.008479388 -0.07082096 -0.99745303
vn -0.13120836 -0.731138 -0.6694935
vn -0.049633805 -0.72747254 -0.68433934
vn 0.02544424 -0.07438429 -0.9969049
vn 0.14339249 0.6293746 -0.76375794
vn 0.11049887 -0.7007424 -0.7048051
vn 0.086956106 0.6169606 -0.78217536
vn 0.060146675 -0.07756427 -0.99517137
vn 0.2551497 -0.64708185 -0.71845925
vn -0.018617116 0.5812808 -0.81349
vn 0.089187905 -0.072291724 -0.9933878
vn 0.38344803 -0.57127815 -0.72567815
vn -0.115153775 0.5330618 -0.83820325
vn 0.11447043 -0.05994835 -0.9916162
vn 0.49338523 -0.4791081 -0.7259659
vn -0.20027511 0.4747703 -0.85701984
vn 0.1389635 -0.034932073 -0.9896812
vn 0.58396107 -0.35285977 -0.731081
vn -0.26925975 0.4221789 -0.8656004
vn 0.14431079 0.012024676 -0.9894593
vn 0.13917878 0.0413808 -0.9894023
vn -0.3509392 0.37141362 -0.8595892
vn -0.1312081 -0.731138 0.66949356
vn 0.0084797 -0.07082083 0.99745303
vn -0.049633667 -0.72747254 0.6843392
vn -0.049633667 -0.72747254 0.6843392
vn 0.025444394 -0.074384384 0.9969049
vn 0.14339268 0.62937474 0.7637579
vn 0.11049887 -0.7007424 0.7048051
vn 0.0869562 0.61696047 0.7821754
vn 0.06014666 -0.07756442 0.99517137
vn 0.25514966 -0.6470819 0.71845925
vn -0.018617116 0.5812806 0.81349015
vn 0.089187905 -0.072291784 0.9933878
vn 0.3834481 -0.57127833 0.725678
vn -0.11515376 0.53306174 0.8382033
vn 0.1144705 -0.05994852 0.9916162
vn 0.49338543 -0.4791084 0.7259656
vn -0.20027506 0.47477028 0.85701996
vn 0.13896373 -0.034932297 0.9896812
vn 0.58396125 -0.35285988 0.73108083
vn -0.26925975 0.42217892 0.8656005
vn 0.14431092 0.0120245945 0.9894593
vn 0.13917878 0.0413808 0.9894023
vn -0.35093924 0.3714136 0.8595893
vn -0.034889452 -0.6617867 -0.7488799
vn 0.02975571 -0.048390426 -0.9983852
vn -0.10879675 -0.6591463 -0.7441031
vn 0.040672395 -0.044065025 -0.9982004
vn 0.15471342 0.5844741 -0.79652613
vn 0.11392916 -0.6454431 -0.7552638
vn 0.09790414 0.592749 -0.79941434
vn 0.06769464 -0.036814496 -0.9970266
vn 0.25272 -0.5999917 -0.7590406
vn -0.0075640576 0.5866467 -0.8098077
vn 0.091266066 -0.026592433 -0.9954715
vn 0.38240495 -0.5376112 -0.7514923
vn -0.1074577 0.5571504 -0.82342947
vn 0.10896763 -0.009809738 -0.99399686
vn 0.50254226 -0.45755824 -0.73354733
vn -0.20892103 0.52132595 -0.8273882
vn 0.13043775 0.017743234 -0.9912977
vn 0.6140419 -0.3254219 -0.719064
vn -0.29707995 0.4846223 -0.8227301
vn 0.15432268 0.07561175 -0.985123
vn 0.16653733 0.11524563 -0.9792772
vn -0.3712424 0.44163132 -0.8167869
vn 0.029756334 -0.048390683 0.9983851
vn -0.034889296 -0.6617867 0.74887997
vn -0.10879626 -0.65914637 0.74410313
vn 0.040672567 -0.044065215 0.9982004
vn 0.15471391 0.5844737 0.7965263
vn 0.11392913 -0.645443 0.75526386
vn 0.09790428 0.59274894 0.7994145
vn 0.06769461 -0.036814526 0.9970266
vn 0.25272003 -0.5999916 0.75904053
vn -0.0075640893 0.5866467 0.8098077
vn 0.09126617 -0.02659247 0.9954715
vn 0.38240498 -0.5376113 0.75149226
vn -0.1074576 0.5571504 0.8234296
vn 0.10896774 -0.0098099075 0.99399686
vn 0.50254244 -0.45755857 0.733547
vn -0.20892087 0.52132577 0.8273884
vn 0.13043797 0.017743008 0.9912977
vn 0.614042 -0.32542208 0.7190638
vn -0.29707983 0.4846223 0.8227301
vn 0.15432276 0.07561171 0.985123
vn 0.16653733 0.11524563 0.9792772
vn -0.37124243 0.4416315 0.8167868
g mesh_claw_0
f 3/3/3 2/2/2 1/1/1
f 5/5/5 4/4/4 2/2/2
f 6/6/6 5/5/5 2/2/2
f 4/4/4 5/5/5 7/7/7
f 5/5/5 6/6/6 8/8/8
f 9/9/9 7/7/7 5/5/5
f 5/5/5 8/8/8 9/9/9
f 7/7/7 9/9/9 10/10/10
f 9/9/9 8/8/8 11/11/11
f 12/12/12 10/10/10 9/9/9
f 9/9/9 11/11/11 12/12/12
f 10/10/10 12/12/12 13/13/13
f 14/14/14 12/12/12 11/11/11
f 15/15/15 13/13/13 12/12/12
f 12/12/12 14/14/14 15/15/15
f 16/16/16 13/13/13 15/15/15
f 17/17/17 15/15/15 14/14/14
f 18/18/18 16/16/16 15/15/15
f 15/15/15 17/17/17 18/18/18
f 19/19/19 16/16/16 18/18/18
f 20/20/20 18/18/18 17/17/17
f 18/18/18 21/21/21 19/19/19
f 21/21/21 18/18/18 20/20/20
f 19/19/19 21/21/21 22/22/22
f 20/20/20 23/23/23 21/21/21
f 21/21/21 23/23/23 22/22/22
f 26/26/26 25/25/25 24/24/24
f 28/28/28 25/25/25 27/27/27
f 25/25/25 28/28/28 29/29/29
f 30/30/30 28/28/28 27/27/27
f 31/31/31 29/29/29 28/28/28
f 32/32/32 28/28/28 30/30/30
f 28/28/28 32/32/32 31/31/31
f 33/33/33 32/32/32 30/30/30
f 34/34/34 31/31/31 32/32/32
f 32/32/32 33/33/33 35/35/35
f 35/35/35 34/34/34 32/32/32
f 36/36/36 35/35/35 33/33/33
f 37/37/37 34/34/34 35/35/35
f 35/35/35 36/36/36 38/38/38
f 38/38/38 37/37/37 35/35/35
f 39/39/39 38/38/38 36/36/36
f 40/40/40 37/37/37 38/38/38
f 38/38/38 39/39/39 41/41/41
f 41/41/41 40/40/40 38/38/38
f 42/42/42 41/41/41 39/39/39
f 40/40/40 41/41/41 43/43/43
f 42/42/42 44/44/44 41/41/41
f 44/44/44 43/43/43 41/41/41
f 44/44/44 42/42/42 45/45/45
f 43/43/43 44/44/44 46/46/46
f 46/46/46 44/44/44 45/45/45
f 49/49/49 48/48/48 47/47/47
f 47/47/47 48/48/48 50/50/50
f 51/51/51 50/50/50 48/48/48
f 47/47/47 50/50/50 52/52/52
f 50/50/50 51/51/51 53/53/53
f 54/54/54 52/52/52 50/50/50
f 53/53/53 54/54/54 50/50/50
f 52/52/52 54/54/54 55/55/55
f 54/54/54 53/53/53 56/56/56
f 57/57/57 55/55/55 54/54/54
f 54/54/54 56/56/56 57/57/57
f 55/55/55 57/57/57 58/58/58
f 57/57/57 56/56/56 59/59/59
f 60/60/60 58/58/58 57/57/57
f 57/57/57 59/59/59 60/60/60
f 61/61/61 58/58/58 60/60/60
f 62/62/62 60/60/60 59/59/59
f 63/63/63 61/61/61 60/60/60
f 60/60/60 62/62/62 63/63/63
f 64/64/64 61/61/61 63/63/63
f 65/65/65 63/63/63 62/62/62
f 63/63/63 66/66/66 64/64/64
f 66/66/66 63/63/63 65/65/65
f 64/64/64 66/66/66 67/67/67
f 65/65/65 68/68/68 66/66/66
f 66/66/66 68/68/68 67/67/67
f 71/71/71 70/70/70 69/69/69
f 72/72/72 69/69/69 70/70/70
f 69/69/69 72/72/72 73/73/73
f 74/74/74 72/72/72 70/70/70
f 75/75/75 73/73/73 72/72/72
f 76/76/76 72/72/72 74/74/74
f 72/72/72 76/76/76 75/75/75
f 77/77/77 76/76/76 74/74/74
f 78/78/78 75/75/75 76/76/76
f 79/79/79 76/76/76 77/77/77
f 76/76/76 79/79/79 78/78/78
f 80/80/80 79/79/79 77/77/77
f 81/81/81 78/78/78 79/79/79
f 79/79/79 80/80/80 82/82/82
f 82/82/82 81/81/81 79/79/79
f 83/83/83 82/82/82 80/80/80
f 84/84/84 81/81/81 82/82/82
f 82/82/82 83/83/83 85/85/85
f 85/85/85 84/84/84 82/82/82
f 86/86/86 85/85/85 83/83/83
f 84/84/84 85/85/85 87/87/87
f 86/86/86 88/88/88 85/85/85
f 88/88/88 87/87/87 85/85/85
f 88/88/88 86/86/86 89/89/89
f 88/88/88 90/90/90 87/87/87
f 90/90/90 88/88/88 89/89/89
