g mesh_whirl_cylinder
v 0.043112114 -0.2167384 1.2724723E-07
v 1.0161201E-07 -0.22098494 1.2724723E-07
v 9.6701065E-08 -0.16698371 0.0003740725
v 0.032577008 -0.1637752 0.00037406772
v 9.916495E-08 -0.17064145 0.032150634
v 0.03329062 -0.16736291 0.032150615
v 0.06390201 -0.15427284 0.0003740725
v 0.08456729 -0.20416309 1.2724723E-07
v 0.0653018 -0.15765233 0.032150634
v 0.09277127 -0.13884178 0.00037407727
v 0.12277267 -0.1837422 1.2724723E-07
v 0.094803445 -0.14188302 0.03215064
v 0.15625983 -0.15625983 1.2724723E-07
v 0.11807546 -0.11807531 0.0003740725
v 0.12066191 -0.12066178 0.032150622
v 0.18374231 -0.12277252 1.2724723E-07
v 0.14188333 -0.09480338 0.032150567
v 0.13884199 -0.09277115 0.00037406295
v 0.15765226 -0.06530171 0.032150555
v 0.20416321 -0.084567115 1.2724723E-07
v 0.15427288 -0.06390187 0.00037406056
v 0.1673627 -0.033290375 0.032150585
v 0.1637752 -0.03257679 0.00037406295
v 0.21673857 -0.04311187 1.2724723E-07
v 0.17064172 1.1920928E-08 0.032150585
v 0.16698395 1.8120197E-08 0.00037406295
v 0.22098514 -8.665711E-10 1.2724723E-07
v 0.21673864 0.04311203 1.2724723E-07
v 0.16377534 0.032576967 0.00037406295
v 0.16736293 0.033290587 0.032150593
v 0.20416325 0.08456729 1.2724723E-07
v 0.15427299 0.063902 0.00037406295
v 0.15765244 0.06530174 0.032150567
v 0.13884205 0.09277134 0.0003740534
v 0.18374236 0.122772716 1.2724723E-07
v 0.14188343 0.09480356 0.032150537
v 0.15625983 0.15626001 1.2724723E-07
v 0.11807546 0.11807552 0.0003740725
v 0.12066194 0.12066202 0.032150634
v 0.09480343 0.1418832 0.032150634
v 0.09277127 0.13884197 0.0003740725
v 0.12277267 0.18374236 1.2724723E-07
v 0.06530176 0.15765256 0.032150634
v 0.084567256 0.20416328 1.2724723E-07
v 0.06390198 0.15427303 0.0003740725
v 0.03329053 0.1673632 0.032150634
v 0.032576934 0.16377544 0.0003740725
v 0.043112002 0.21673863 1.2724723E-07
v -5.088236E-09 0.17064156 0.032150634
v -5.62895E-09 0.16698384 0.0003740725
v -3.407714E-08 0.2209851 1.2724723E-07
v -0.043112043 0.21673858 1.2724723E-07
v -0.03257694 0.1637754 0.0003740725
v -0.03329053 0.16736317 0.032150634
v -0.08456722 0.20416324 1.2724723E-07
v -0.063901946 0.154273 0.0003740725
v -0.06530174 0.1576525 0.032150634
v -0.0927713 0.13884196 0.00037406772
v -0.12277273 0.18374236 1.2724723E-07
v -0.11807544 0.118075475 0.00037406772
v -0.09480343 0.14188318 0.032150615
v -0.15625998 0.15626001 1.2724723E-07
v -0.12066187 0.12066192 0.032150615
v -0.18374224 0.12277267 1.2724723E-07
v -0.14188333 0.09480348 0.032150537
v -0.13884196 0.09277128 0.0003740534
v -0.15765233 0.06530167 0.032150567
v -0.20416315 0.08456718 1.2724723E-07
v -0.15427288 0.06390194 0.00037406295
v -0.1673628 0.033290524 0.032150585
v -0.1637752 0.03257692 0.00037406533
v -0.21673849 0.043111935 1.2724723E-07
v -0.17064157 -5.00679E-08 0.032150593
v -0.1669838 -3.402935E-08 0.00037406533
v -0.220985 -6.2599604E-08 1.2724723E-07
v -0.21673849 -0.043112062 1.2724723E-07
v -0.16377519 -0.032576952 0.00037406295
v -0.16736278 -0.03329054 0.032150585
v -0.20416309 -0.084567234 1.2724723E-07
v -0.15427282 -0.06390198 0.00037405817
v -0.15765226 -0.06530183 0.032150555
v -0.13884187 -0.09277134 0.00037405817
v -0.1837422 -0.12277273 1.2724723E-07
v -0.14188325 -0.094803534 0.032150567
v -0.15625967 -0.15625995 1.2724723E-07
v -0.11807531 -0.11807542 0.0003740725
v -0.12066178 -0.12066191 0.032150622
v -0.09480327 -0.14188302 0.032150622
v -0.09277112 -0.13884184 0.0003740725
v -0.12277252 -0.18374224 1.2724723E-07
v -0.06530162 -0.15765241 0.032150615
v -0.084567145 -0.20416313 1.2724723E-07
v -0.06390185 -0.1542729 0.00037406772
v -0.033290412 -0.16736297 0.032150634
v -0.043111876 -0.21673845 1.2724723E-07
v -0.032576807 -0.16377525 0.0003740725
v 9.916495E-08 -0.17064145 0.032150634
v 9.6701065E-08 -0.16698371 0.0003740725
v 1.0161201E-07 -0.22098494 1.2724723E-07
vt 1.4287153 0.95010966
vt 1.4958124 0.95010966
vt 1.4958124 0.40470037
vt 1.4287155 0.4047002
vt 1.4958124 0.9477286
vt 1.4287156 0.9477281
vt 1.3668053 0.4047003
vt 1.3668052 0.95010966
vt 1.3668054 0.9477284
vt 1.3048952 0.40470037
vt 1.3048952 0.95010966
vt 1.3048952 0.9477286
vt 1.242985 0.95010966
vt 1.2429851 0.40470025
vt 1.2429852 0.9477282
vt 1.1810749 0.95011
vt 1.1810751 0.94772726
vt 1.181075 0.40470013
vt 1.119165 0.94772714
vt 1.119165 0.95011
vt 1.119165 0.40470007
vt 1.0572546 0.94772756
vt 1.0572546 0.4047
vt 1.0572546 0.95010966
vt 0.99534464 0.9477276
vt 0.99534464 0.4047
vt 0.99534464 0.95010966
vt 0.93343437 0.95010966
vt 0.93343437 0.40470007
vt 0.93343437 0.94772774
vt 0.8715242 0.95011014
vt 0.8715242 0.4047002
vt 0.8715242 0.94772726
vt 0.80961406 0.4046999
vt 0.80961406 0.95011
vt 0.80961394 0.9477267
vt 0.7477039 0.95010966
vt 0.7477039 0.4047003
vt 0.7477038 0.9477284
vt 0.6857939 0.9477284
vt 0.68579376 0.4047003
vt 0.68579364 0.95010966
vt 0.62388337 0.9477284
vt 0.6238835 0.95010966
vt 0.6238835 0.4047003
vt 0.5619732 0.9477284
vt 0.56197333 0.4047003
vt 0.56197333 0.95010966
vt 0.5000632 0.9477284
vt 0.5000632 0.4047003
vt 0.5000632 0.95010966
vt 0.43815297 0.95010966
vt 0.43815297 0.4047003
vt 0.4381531 0.9477284
vt 0.3762427 0.95010966
vt 0.37624282 0.4047003
vt 0.37624282 0.9477284
vt 0.31433243 0.4047002
vt 0.31433243 0.95010966
vt 0.2524225 0.4047002
vt 0.31433243 0.9477281
vt 0.2524225 0.95010966
vt 0.2524225 0.9477281
vt 0.19051236 0.95011
vt 0.19051248 0.9477267
vt 0.19051236 0.4046999
vt 0.12860203 0.94772726
vt 0.12860227 0.95011014
vt 0.12860215 0.4047002
vt 0.066691995 0.9477276
vt 0.066691995 0.40470013
vt 0.066691995 0.95010984
vt 0.004781842 0.94772774
vt 0.004781842 0.40470013
vt 0.004781842 0.9501098
vt -0.05712831 0.95010966
vt -0.05712831 0.4047
vt -0.05712831 0.94772756
vt -0.11903846 0.95010984
vt -0.11903846 0.40469995
vt -0.11903858 0.94772714
vt -0.18094862 0.4047
vt -0.18094862 0.95010984
vt -0.18094862 0.94772726
vt -0.24285865 0.95010966
vt -0.24285877 0.40470025
vt -0.24285877 0.9477282
vt -0.30476856 0.9477282
vt -0.30476868 0.40470025
vt -0.30476892 0.95010966
vt -0.3666792 0.9477281
vt -0.36667895 0.95010966
vt -0.36667895 0.4047002
vt -0.4285891 0.9477284
vt -0.4285891 0.95010966
vt -0.4285891 0.4047003
vt -0.49581242 0.9477286
vt -0.49581242 0.40470037
vt -0.49581242 0.95010966
vn 0.0013509372 -0.006791531 0.99997604
vn -0 -0.006924588 0.99997604
vn 5.3144623E-07 -0.7469822 0.664844
vn 0.14572793 -0.7326296 0.66484386
vn 6.8872646E-07 -0.99343973 -0.11435699
vn 0.19380893 -0.97435117 -0.11435829
vn 0.2858605 -0.69012034 0.6648441
vn 0.0026498889 -0.0063975467 0.99997604
vn 0.38017675 -0.917817 -0.11435754
vn 0.41500115 -0.621092 0.6648449
vn 0.003847082 -0.005757638 0.99997604
vn 0.55192643 -0.8260147 -0.11435464
vn 0.004896451 -0.0048963604 0.99997604
vn 0.5281945 -0.5281965 0.66484517
vn 0.7024668 -0.7024695 -0.11435475
vn 0.0057575316 -0.0038469627 0.99997604
vn 0.82601553 -0.55192494 -0.11435582
vn 0.6210929 -0.4150002 0.6648447
vn 0.9178193 -0.3801716 -0.114355676
vn 0.0063973656 -0.0026498504 0.99997604
vn 0.69012135 -0.28585643 0.66484475
vn 0.9743509 -0.19381246 -0.11435472
vn 0.73262805 -0.1457303 0.664845
vn 0.0067913695 -0.0013509329 0.99997604
vn 0.99344 -3.125473E-06 -0.11435511
vn 0.7469812 -2.342236E-06 0.66484517
vn 0.0069244024 0 0.99997604
vn 0.00679139 0.0013509139 0.99997604
vn 0.73262876 0.14572912 0.6648446
vn 0.97435105 0.1938107 -0.114356495
vn 0.0063972836 0.002649896 0.99997604
vn 0.69012135 0.28585768 0.6648442
vn 0.9178186 0.3801729 -0.11435692
vn 0.62109303 0.4150006 0.6648444
vn 0.00575748 0.0038469427 0.99997604
vn 0.8260153 0.5519252 -0.114356704
vn 0.0048964624 0.004896293 0.99997604
vn 0.52819395 0.52819717 0.66484493
vn 0.70246583 0.70247036 -0.114355296
vn 0.5519259 0.82601506 -0.114354506
vn 0.4150009 0.6210923 0.6648449
vn 0.0038470821 0.005757608 0.99997604
vn 0.38017732 0.9178167 -0.11435795
vn 0.002649956 0.0063975244 0.99997604
vn 0.2858611 0.69012034 0.66484386
vn 0.19380721 0.97435135 -0.11435915
vn 0.14572671 0.73262995 0.6648436
vn 0.0013509591 0.006791571 0.99997604
vn -5.9514934E-07 0.99343973 -0.1143571
vn -4.6209774E-07 0.7469824 0.66484374
vn -0 0.006924612 0.99997604
vn -0.0013509606 0.0067915698 0.99997604
vn -0.1457273 0.7326297 0.66484386
vn -0.19380808 0.97435135 -0.11435865
vn -0.0026499315 0.006397492 0.99997604
vn -0.2858607 0.6901203 0.66484416
vn -0.3801769 0.91781694 -0.1143574
vn -0.41500098 0.6210916 0.66484535
vn -0.0038470512 0.0057575395 0.99997604
vn -0.5281947 0.52819586 0.6648455
vn -0.5519265 0.82601476 -0.114353456
vn -0.004896378 0.0048962496 0.99997604
vn -0.7024674 0.70246905 -0.1143541
vn -0.0057574585 0.0038469373 0.99997604
vn -0.82601565 0.55192465 -0.114356
vn -0.6210931 0.41500005 0.6648447
vn -0.917819 0.38017216 -0.114356846
vn -0.00639731 0.0026499096 0.99997604
vn -0.6901216 0.28585705 0.66484433
vn -0.9743513 0.1938099 -0.11435648
vn -0.7326288 0.14572851 0.66484445
vn -0.0067913802 0.0013509312 0.99997604
vn -0.99343985 0 -0.1143558
vn -0.7469816 0 0.6648447
vn -0.0069244085 0 0.99997604
vn -0.006791339 -0.0013509588 0.99997604
vn -0.73262876 -0.14572911 0.6648444
vn -0.97435105 -0.19381064 -0.11435663
vn -0.006397297 -0.0026498649 0.99997604
vn -0.6901214 -0.2858578 0.66484416
vn -0.91781855 -0.38017312 -0.11435737
vn -0.62109256 -0.4150011 0.6648444
vn -0.0057574944 -0.0038469255 0.99997604
vn -0.82601476 -0.5519259 -0.11435662
vn -0.0048964215 -0.004896334 0.99997604
vn -0.5281932 -0.52819765 0.6648452
vn -0.7024652 -0.7024712 -0.11435459
vn -0.5519258 -0.8260153 -0.11435394
vn -0.41500056 -0.62109226 0.6648451
vn -0.0038470605 -0.005757603 0.99997604
vn -0.38017678 -0.91781694 -0.11435774
vn -0.002649911 -0.0063974913 0.99997604
vn -0.28586057 -0.6901203 0.6648441
vn -0.19380778 -0.97435135 -0.11435894
vn -0.001350937 -0.006791544 0.99997604
vn -0.1457271 -0.7326299 0.6648437
vn 6.8872646E-07 -0.99343973 -0.11435699
vn 5.3144623E-07 -0.7469822 0.664844
vn -0 -0.006924588 0.99997604
g mesh_whirl_cylinder_0
f 3/3/3 2/2/2 1/1/1
f 1/1/1 4/4/4 3/3/3
f 5/5/5 3/3/3 4/4/4
f 4/4/4 6/6/6 5/5/5
f 7/7/7 4/4/4 1/1/1
f 6/6/6 4/4/4 7/7/7
f 1/1/1 8/8/8 7/7/7
f 7/7/7 9/9/9 6/6/6
f 10/10/10 7/7/7 8/8/8
f 9/9/9 7/7/7 10/10/10
f 8/8/8 11/11/11 10/10/10
f 10/10/10 12/12/12 9/9/9
f 10/10/10 11/11/11 13/13/13
f 12/12/12 10/10/10 14/14/14
f 13/13/13 14/14/14 10/10/10
f 14/14/14 15/15/15 12/12/12
f 14/14/14 13/13/13 16/16/16
f 14/14/14 17/17/17 15/15/15
f 16/16/16 18/18/18 14/14/14
f 14/14/14 18/18/18 17/17/17
f 18/18/18 19/19/19 17/17/17
f 18/18/18 16/16/16 20/20/20
f 18/18/18 21/21/21 19/19/19
f 20/20/20 21/21/21 18/18/18
f 21/21/21 22/22/22 19/19/19
f 21/21/21 20/20/20 23/23/23
f 21/21/21 23/23/23 22/22/22
f 23/23/23 20/20/20 24/24/24
f 23/23/23 25/25/25 22/22/22
f 23/23/23 24/24/24 26/26/26
f 23/23/23 26/26/26 25/25/25
f 26/26/26 24/24/24 27/27/27
f 26/26/26 27/27/27 28/28/28
f 25/25/25 26/26/26 29/29/29
f 28/28/28 29/29/29 26/26/26
f 29/29/29 30/30/30 25/25/25
f 29/29/29 28/28/28 31/31/31
f 30/30/30 29/29/29 32/32/32
f 31/31/31 32/32/32 29/29/29
f 32/32/32 33/33/33 30/30/30
f 31/31/31 34/34/34 32/32/32
f 33/33/33 32/32/32 34/34/34
f 31/31/31 35/35/35 34/34/34
f 34/34/34 36/36/36 33/33/33
f 34/34/34 35/35/35 37/37/37
f 36/36/36 34/34/34 38/38/38
f 37/37/37 38/38/38 34/34/34
f 38/38/38 39/39/39 36/36/36
f 38/38/38 40/40/40 39/39/39
f 41/41/41 38/38/38 37/37/37
f 38/38/38 41/41/41 40/40/40
f 37/37/37 42/42/42 41/41/41
f 41/41/41 43/43/43 40/40/40
f 41/41/41 42/42/42 44/44/44
f 41/41/41 45/45/45 43/43/43
f 44/44/44 45/45/45 41/41/41
f 45/45/45 46/46/46 43/43/43
f 47/47/47 45/45/45 44/44/44
f 45/45/45 47/47/47 46/46/46
f 44/44/44 48/48/48 47/47/47
f 47/47/47 49/49/49 46/46/46
f 50/50/50 47/47/47 48/48/48
f 47/47/47 50/50/50 49/49/49
f 51/51/51 50/50/50 48/48/48
f 50/50/50 51/51/51 52/52/52
f 49/49/49 50/50/50 53/53/53
f 52/52/52 53/53/53 50/50/50
f 53/53/53 54/54/54 49/49/49
f 53/53/53 52/52/52 55/55/55
f 54/54/54 53/53/53 56/56/56
f 55/55/55 56/56/56 53/53/53
f 56/56/56 57/57/57 54/54/54
f 56/56/56 55/55/55 58/58/58
f 57/57/57 56/56/56 58/58/58
f 58/58/58 55/55/55 59/59/59
f 59/59/59 60/60/60 58/58/58
f 58/58/58 61/61/61 57/57/57
f 61/61/61 58/58/58 60/60/60
f 59/59/59 62/62/62 60/60/60
f 60/60/60 63/63/63 61/61/61
f 60/60/60 62/62/62 64/64/64
f 60/60/60 65/65/65 63/63/63
f 64/64/64 66/66/66 60/60/60
f 60/60/60 66/66/66 65/65/65
f 66/66/66 67/67/67 65/65/65
f 66/66/66 64/64/64 68/68/68
f 66/66/66 69/69/69 67/67/67
f 68/68/68 69/69/69 66/66/66
f 69/69/69 70/70/70 67/67/67
f 71/71/71 69/69/69 68/68/68
f 69/69/69 71/71/71 70/70/70
f 68/68/68 72/72/72 71/71/71
f 73/73/73 70/70/70 71/71/71
f 74/74/74 71/71/71 72/72/72
f 71/71/71 74/74/74 73/73/73
f 72/72/72 75/75/75 74/74/74
f 74/74/74 75/75/75 76/76/76
f 73/73/73 74/74/74 77/77/77
f 76/76/76 77/77/77 74/74/74
f 77/77/77 78/78/78 73/73/73
f 77/77/77 76/76/76 79/79/79
f 78/78/78 77/77/77 80/80/80
f 79/79/79 80/80/80 77/77/77
f 80/80/80 81/81/81 78/78/78
f 82/82/82 80/80/80 79/79/79
f 81/81/81 80/80/80 82/82/82
f 83/83/83 82/82/82 79/79/79
f 82/82/82 84/84/84 81/81/81
f 82/82/82 83/83/83 85/85/85
f 84/84/84 82/82/82 86/86/86
f 85/85/85 86/86/86 82/82/82
f 86/86/86 87/87/87 84/84/84
f 86/86/86 88/88/88 87/87/87
f 86/86/86 85/85/85 89/89/89
f 86/86/86 89/89/89 88/88/88
f 89/89/89 85/85/85 90/90/90
f 89/89/89 91/91/91 88/88/88
f 89/89/89 90/90/90 92/92/92
f 89/89/89 93/93/93 91/91/91
f 92/92/92 93/93/93 89/89/89
f 93/93/93 94/94/94 91/91/91
f 93/93/93 92/92/92 95/95/95
f 93/93/93 96/96/96 94/94/94
f 95/95/95 96/96/96 93/93/93
f 96/96/96 97/97/97 94/94/94
f 96/96/96 98/98/98 97/97/97
f 95/95/95 98/98/98 96/96/96
f 95/95/95 99/99/99 98/98/98
