g mesh_fire_blast_core
v 0.21790038 0.53332233 -0.3267789
v 0.028940545 0.6812743 -0.16890688
v 0.027810285 0.736553 -0.30042097
v 0.090723895 0.5067531 -0.13289826
v 0.026896121 0.65367454 -0.0748262
v 0.25155175 0.31171054 -0.30246046
v 0.023976874 0.5067531 -0.038817577
v 0.118763685 0.30015638 -0.10093514
v 0.25465778 0.25480536 -0.27480716
v 0.021677766 0.30015638 -0.006854448
v 0.12927623 0.12584934 -0.08073929
v 0.0001257193 0.0018689728 0.022459272
v -0.1691233 0.5355046 -0.32654026
v 0.027810285 0.736553 -0.30042097
v 0.028940545 0.6812743 -0.16890688
v -0.042770155 0.5067531 -0.13289826
v 0.026896121 0.65367454 -0.0748262
v -0.20664524 0.31736776 -0.30073196
v 0.023976874 0.5067531 -0.038817577
v -0.07540815 0.30015638 -0.10093514
v -0.24126886 0.1982865 -0.2774662
v 0.021677766 0.30015638 -0.006854448
v -0.10985822 0.07864381 -0.08443809
v 0.0001257193 0.0018689728 0.022459272
v -0.84164685 -0.9549515 -0.6539511
v -0.87899756 -1.184147 -0.58439124
v -0.92049557 -1.21499 -0.6765654
v -0.7448083 -1.0353736 -0.47381216
v -0.8515162 -1.1704063 -0.49031052
v -0.7026226 -0.79539376 -0.5401103
v -0.7097898 -1.0832558 -0.37973145
v -0.5938128 -0.88236654 -0.3397228
v -0.60256463 -0.67795 -0.44235456
v -0.5310202 -0.949413 -0.24564205
v -0.4876352 -0.757585 -0.24315648
v -0.5046618 -0.55953544 -0.38273403
v -0.40775856 -0.82597804 -0.14907575
v -0.3868517 -0.635423 -0.18403935
v -0.40418056 -0.41913563 -0.32804394
v -0.30174553 -0.6945905 -0.089958616
v -0.27973115 -0.48376796 -0.12924409
v -0.35111174 -0.32817695 -0.29966873
v -0.186299 -0.53133804 -0.035163343
v -0.19158065 -0.3164047 -0.10096958
v -0.3637978 -0.30565116 -0.26708335
v -0.08917425 -0.35147437 -0.0068888376
v -0.13744125 -0.12764755 -0.08457296
v 0.0001257193 0.0018689728 0.022459272
v -0.62834543 -1.2545438 -0.6534304
v -0.92049557 -1.21499 -0.6765654
v -0.87899756 -1.184147 -0.58439124
v -0.6709743 -1.1368334 -0.47381216
v -0.8515162 -1.1704063 -0.49031052
v -0.40025985 -1.1345593 -0.5400381
v -0.7097898 -1.0832558 -0.37973145
v -0.47392318 -1.0164593 -0.3397228
v -0.5310202 -0.949413 -0.24564205
v -0.40775856 -0.82597804 -0.14907575
v -0.2344122 -0.99785733 -0.44215494
v -0.32788196 -0.89437115 -0.24315648
v -0.30174553 -0.6945905 -0.089958616
v -0.21663949 -0.753758 -0.18403935
v -0.10825343 -0.8422738 -0.38287905
v -0.186299 -0.53133804 -0.035163343
v -0.092866905 -0.578908 -0.12924409
v 0.025710907 -0.6531391 -0.32824823
v 0.07082251 -0.57003814 -0.2993204
v -0.08917425 -0.35147437 -0.0068888376
v 0.0132321315 -0.38654402 -0.10096958
v 0.07531231 -0.5645384 -0.26272753
v 0.06680228 -0.2465226 -0.08783437
v 0.0001257193 0.0018689728 0.022459272
v -0.64481497 0.08790854 -0.39763954
v -0.77585244 -0.10375675 -0.28849888
v -0.8277252 -0.10300846 -0.38330513
v -0.6054687 -0.035991743 -0.21192895
v -0.7455523 -0.100726716 -0.19441822
v -0.44550335 0.1455879 -0.32913235
v -0.60266083 -0.09624765 -0.11784827
v -0.4132003 0.008228834 -0.13106844
v -0.24126886 0.1982865 -0.2774662
v -0.4055996 -0.075460926 -0.036987733
v -0.10985822 0.07864381 -0.08443809
v 0.0001257193 0.0018689728 0.022459272
v -0.62328625 -0.2850974 -0.3978986
v -0.8277252 -0.10300846 -0.38330513
v -0.77585244 -0.10375675 -0.28849888
v -0.5998528 -0.15650354 -0.21192895
v -0.7455523 -0.100726716 -0.19441822
v -0.39837196 -0.3007051 -0.32868215
v -0.60266083 -0.09624765 -0.11784827
v -0.39799884 -0.15915069 -0.13106844
v -0.3637978 -0.30565116 -0.26708335
v -0.4055996 -0.075460926 -0.036987733
v -0.13744125 -0.12764755 -0.08457296
v 0.0001257193 0.0018689728 0.022459272
v 0.6582162 -0.13231632 -0.34278464
v 0.81534773 0.0551733 -0.21631092
v 0.8725337 0.05430989 -0.33524922
v 0.6290549 -0.007371547 -0.15197638
v 0.7900641 0.0551733 -0.12223017
v 0.41191992 -0.15838142 -0.30398545
v 0.6234612 0.06186552 -0.05789565
v 0.3914912 -0.026477333 -0.10231842
v 0.34525597 -0.16408025 -0.2669758
v 0.3810717 0.059081327 -0.008237677
v 0.099453904 -0.08213799 -0.08223221
v 0.0001257193 0.0018689728 0.022459272
v 0.6388773 0.25642252 -0.34347153
v 0.8725337 0.05430989 -0.33524922
v 0.81534773 0.0551733 -0.21631092
v 0.6178675 0.13110255 -0.15197638
v 0.7900641 0.0551733 -0.12223017
v 0.3667016 0.2779914 -0.3048545
v 0.6234612 0.06186552 -0.05789565
v 0.37065223 0.14464 -0.10231842
v 0.25465778 0.25480536 -0.27480716
v 0.3810717 0.059081327 -0.008237677
v 0.12927623 0.12584934 -0.08073929
v 0.0001257193 0.0018689728 0.022459272
v 0.18835312 -0.32140553 -0.00061669346
v 0.06680228 -0.2465226 -0.08783437
v 0.0001257193 0.0018689728 0.022459272
v 0.12307765 -0.37432873 -0.09469739
v 0.07531231 -0.5645384 -0.26272753
v 0.28957236 -0.46314174 -0.0241895
v 0.08054023 -0.569458 -0.2955307
v 0.22032276 -0.5211757 -0.118270226
v 0.11059161 -0.6108067 -0.3170718
v 0.2549164 -0.78748846 -0.35295463
v 0.4193874 -0.6140936 -0.06143933
v 0.35238975 -0.6810345 -0.15552007
v 0.43700206 -0.9413877 -0.41765487
v 0.5209669 -0.82829624 -0.21877387
v 0.58495116 -0.761731 -0.12469314
v 0.7152988 -0.9644048 -0.30300972
v 0.7628632 -0.8925267 -0.20892899
v 0.66384244 -1.0887139 -0.50496143
v 0.9413589 -0.9797841 -0.33553207
v 0.92372787 -1.0231555 -0.4296128
v 1.0410864 -1.015655 -0.4301802
v 0.912814 -1.1421074 -0.6116565
v 1.0655748 -1.0230016 -0.52426094
v 1.1189803 -1.0449153 -0.6083443
v 0.18835312 -0.32140553 -0.00061669346
v 0.0001257193 0.0018689728 0.022459272
v 0.099453904 -0.08213799 -0.08223221
v 0.2536286 -0.26848242 -0.09469739
v 0.34525597 -0.16408025 -0.2669758
v 0.35547233 -0.1883567 -0.29600722
v 0.46919757 -0.3162547 -0.31714228
v 0.358822 -0.40510786 -0.118270226
v 0.28957236 -0.46314174 -0.0241895
v 0.5930722 -0.44994462 -0.35295925
v 0.48638508 -0.54715264 -0.15552007
v 0.4193874 -0.6140936 -0.06143933
v 0.58495116 -0.761731 -0.12469314
v 0.75042784 -0.5964067 -0.4175113
v 0.64893544 -0.69516575 -0.21877387
v 0.7628632 -0.8925267 -0.20892899
v 0.81042767 -0.82064855 -0.30300972
v 0.9020664 -0.72136563 -0.50520974
v 0.9413589 -0.9797841 -0.33553207
v 0.95899 -0.93992484 -0.4296128
v 1.0410864 -1.015655 -0.4301802
v 1.0382962 -0.8509726 -0.6118706
v 1.0655748 -1.0230016 -0.52426094
v 1.1189803 -1.0449153 -0.6083443
vt 0.70282245 0.012199879
vt 0.7461302 0.32430843
vt 0.7461302 0.0122000575
vt 0.70282245 0.32430825
vt 0.7461302 0.6008213
vt 0.64995366 0.012200028
vt 0.70282245 0.60082155
vt 0.64995366 0.32430854
vt 0.6222966 0.012200117
vt 0.64995366 0.6008213
vt 0.6150131 0.32430848
vt 0.60846657 0.6008213
vt 0.3010562 0.012199819
vt 0.26285473 0.012199998
vt 0.26285473 0.32430837
vt 0.30105624 0.32430807
vt 0.26285478 0.60082155
vt 0.3500657 0.012200117
vt 0.3010561 0.60082155
vt 0.3500657 0.32430837
vt 0.4018737 0.012199998
vt 0.35006577 0.6008212
vt 0.4093325 0.32430837
vt 0.41431004 0.6008213
vt 0.7064441 0.0122000575
vt 0.746534 0.3243082
vt 0.74653405 0.0122000575
vt 0.7064441 0.32430837
vt 0.74653405 0.6008213
vt 0.6628041 0.012199849
vt 0.7064441 0.6008217
vt 0.6628041 0.3243082
vt 0.6231843 0.012199968
vt 0.6628041 0.60082144
vt 0.6231843 0.32430813
vt 0.5867932 0.012200236
vt 0.6231844 0.6008211
vt 0.5867932 0.32430825
vt 0.5492428 0.0121999085
vt 0.5867932 0.60082144
vt 0.54924273 0.3243083
vt 0.50876886 0.012199998
vt 0.54924273 0.6008213
vt 0.50876886 0.3243083
vt 0.49151465 0.012199998
vt 0.50876886 0.60082144
vt 0.47423676 0.3243083
vt 0.46427354 0.6008212
vt 0.29926628 0.012199938
vt 0.26222408 0.0122000575
vt 0.26222408 0.32430825
vt 0.29926628 0.32430843
vt 0.26222408 0.6008213
vt 0.34309116 0.012200177
vt 0.29926622 0.60082155
vt 0.34309116 0.3243082
vt 0.34309116 0.6008212
vt 0.38287866 0.6008213
vt 0.38287866 0.012200028
vt 0.38287863 0.32430825
vt 0.4194241 0.60082096
vt 0.41942406 0.32430837
vt 0.41942406 0.012199998
vt 0.4571336 0.60082144
vt 0.4571336 0.32430837
vt 0.45713356 0.012199998
vt 0.49777895 0.012199998
vt 0.49777892 0.6008213
vt 0.49777892 0.3243082
vt 0.50813466 0.012199968
vt 0.5230961 0.32430837
vt 0.5365836 0.6008213
vt 0.71210235 0.0121997595
vt 0.7461302 0.32430843
vt 0.7461302 0.0122000575
vt 0.71210235 0.32430807
vt 0.7461302 0.6008213
vt 0.6673883 0.0122002065
vt 0.71210223 0.6008213
vt 0.6673883 0.3243082
vt 0.5682318 0.012200117
vt 0.6673883 0.60082144
vt 0.560773 0.32430807
vt 0.55579543 0.6008211
vt 0.2969693 0.012199938
vt 0.26176864 0.0122000575
vt 0.26176864 0.32430825
vt 0.2969693 0.32430825
vt 0.26176864 0.6008213
vt 0.3432244 0.012199998
vt 0.2969693 0.6008212
vt 0.3432244 0.3243082
vt 0.36255667 0.012200117
vt 0.3432244 0.6008213
vt 0.3798346 0.32430825
vt 0.3897978 0.60082144
vt 0.6816052 0.012199879
vt 0.7456747 0.3243083
vt 0.7456747 0.0122000575
vt 0.6816052 0.32430837
vt 0.7456747 0.60082155
vt 0.5921358 0.0122002065
vt 0.6816051 0.6008213
vt 0.5921358 0.3243083
vt 0.5477648 0.012199998
vt 0.5921358 0.6008213
vt 0.5338538 0.32430813
vt 0.5203629 0.60082144
vt 0.3276098 0.012199879
vt 0.26222408 0.0122000575
vt 0.26222408 0.32430825
vt 0.32760978 0.3243082
vt 0.26222408 0.6008213
vt 0.418917 0.012199998
vt 0.32760978 0.6008213
vt 0.418917 0.32430813
vt 0.47833425 0.012199998
vt 0.418917 0.6008213
vt 0.48561773 0.3243083
vt 0.49216422 0.6008213
vt 0.3432244 0.6008213
vt 0.3104568 0.32430825
vt 0.2969693 0.6008212
vt 0.3432244 0.3243082
vt 0.32541823 0.012199938
vt 0.39565217 0.60082144
vt 0.3432244 0.012199998
vt 0.39565217 0.32430825
vt 0.39565217 0.012200117
vt 0.44632912 0.012200028
vt 0.44632912 0.60082144
vt 0.44632906 0.32430825
vt 0.5203629 0.012199998
vt 0.5203629 0.32430813
vt 0.5203629 0.60082144
vt 0.5921358 0.3243083
vt 0.5921358 0.6008213
vt 0.5921358 0.0122002065
vt 0.6816051 0.6008213
vt 0.6816052 0.32430837
vt 0.7456747 0.60082155
vt 0.6816052 0.012199879
vt 0.7456747 0.3243083
vt 0.7456747 0.0122000575
vt 0.6673883 0.60082144
vt 0.71210223 0.6008213
vt 0.69861144 0.32430807
vt 0.6673883 0.3243082
vt 0.6847005 0.0121997595
vt 0.6673883 0.0122002065
vt 0.6167074 0.012200117
vt 0.6167073 0.32430807
vt 0.61670727 0.6008211
vt 0.56771886 0.012200028
vt 0.56771886 0.32430837
vt 0.56771886 0.6008211
vt 0.49216422 0.6008213
vt 0.49216422 0.012199998
vt 0.49216422 0.3243083
vt 0.418917 0.6008213
vt 0.418917 0.32430813
vt 0.418917 0.012199998
vt 0.32760978 0.6008213
vt 0.32760978 0.3243082
vt 0.26222408 0.6008213
vt 0.3276098 0.012199879
vt 0.26222408 0.32430825
vt 0.26222408 0.0122000575
vn 0.79364944 0.3558906 0.49341902
vn 0.8342171 0.3831608 0.39657238
vn 0.7503901 0.51104736 0.41921988
vn 0.81657785 0.27852327 0.50559413
vn 0.89811057 0.24611874 0.36444888
vn 0.80487317 0.17828052 0.5660346
vn 0.83404803 0.19941007 0.51439244
vn 0.75294083 0.1433245 0.6422913
vn 0.79749954 0.16695388 0.5797594
vn 0.69342744 0.10682497 0.7125637
vn 0.7228845 0.11744554 0.6809146
vn 0.63507617 0.06579375 0.7696424
vn -0.7816047 0.37737378 0.49667197
vn -0.7310411 0.5340938 0.42464417
vn -0.82153815 0.41463593 0.39134637
vn -0.8091438 0.30358052 0.5031155
vn -0.89267284 0.28540567 0.3488251
vn -0.7895957 0.2172742 0.5738733
vn -0.8316249 0.22790831 0.5064165
vn -0.7498051 0.18426491 0.635483
vn -0.7716197 0.2259062 0.594617
vn -0.7050957 0.15001303 0.6930629
vn -0.7211313 0.18201555 0.66846085
vn -0.66348326 0.13631779 0.73566806
vn -0.80947185 0.28520268 0.5132394
vn -0.80441713 0.42201197 0.4181136
vn -0.8343217 0.28007424 0.47483233
vn -0.7888862 0.36393377 0.49518764
vn -0.75499934 0.5537127 0.35125235
vn -0.7919225 0.2655766 0.54984343
vn -0.76244545 0.4411061 0.47339436
vn -0.7680177 0.25176367 0.5888666
vn -0.7759769 0.28974622 0.56027406
vn -0.742257 0.23731954 0.62668484
vn -0.73986053 0.23634942 0.6298774
vn -0.75159436 0.3292517 0.571576
vn -0.6970999 0.18084353 0.69379187
vn -0.7082548 0.2685536 0.65288144
vn -0.75740755 0.30472878 0.57747227
vn -0.6562932 0.20458607 0.72623944
vn -0.7026368 0.2584422 0.6629548
vn -0.73934275 0.13105962 0.6604511
vn -0.63912207 0.2089409 0.74018013
vn -0.6943711 0.14779034 0.7042775
vn -0.6948977 -0.030226886 0.7184731
vn -0.64717144 0.16367139 0.7445675
vn -0.68132716 0.041665297 0.7307923
vn -0.66400635 0.11332814 0.73908883
vn 0.014349204 -0.8544021 0.5194141
vn -0.113757774 -0.87198716 0.47612765
vn 0.014100371 -0.9105869 0.4130771
vn 0.07565348 -0.86646193 0.4934778
vn 0.14165094 -0.929324 0.34101602
vn 0.22074959 -0.80127186 0.5560873
vn 0.13660763 -0.87455606 0.46528494
vn 0.19019873 -0.7848778 0.58973837
vn 0.1592447 -0.76667637 0.62197137
vn 0.2746226 -0.66605926 0.6935038
vn 0.40962008 -0.7142507 0.56750095
vn 0.3436151 -0.69329226 0.6334623
vn 0.39652044 -0.5698798 0.71972823
vn 0.47511023 -0.5943838 0.64882845
vn 0.54807854 -0.6118692 0.57028586
vn 0.48841736 -0.4753071 0.73180026
vn 0.5541204 -0.50582004 0.6611328
vn 0.6140516 -0.531114 0.58383095
vn 0.59321743 -0.46877742 0.65447754
vn 0.5547254 -0.32045287 0.7678474
vn 0.57660717 -0.39646196 0.7143824
vn 0.53755045 -0.45670155 0.70884645
vn 0.5560819 -0.34694389 0.7552502
vn 0.5665261 -0.23214045 0.79067004
vn -0.48956648 0.69562614 0.52576506
vn -0.47327486 0.7792773 0.41077688
vn -0.5714777 0.6647215 0.4812055
vn -0.42971072 0.75562954 0.4943407
vn -0.36194965 0.87222624 0.32895878
vn -0.35025147 0.7293848 0.58764076
vn -0.36597878 0.8097432 0.45866698
vn -0.3277868 0.71963763 0.612109
vn -0.29639244 0.7364951 0.6080515
vn -0.30488712 0.7090079 0.63588655
vn -0.27121168 0.71060073 0.6492232
vn -0.24521741 0.6825747 0.6884476
vn -0.3808915 -0.76185155 0.52393126
vn -0.51853836 -0.7171586 0.4656194
vn -0.41387877 -0.8131885 0.4091807
vn -0.3182711 -0.8062177 0.49871486
vn -0.29955062 -0.8902217 0.3431832
vn -0.21410722 -0.74222875 0.63502324
vn -0.25370878 -0.845248 0.47030586
vn -0.15958498 -0.7425241 0.65053105
vn -0.1927899 -0.69142455 0.69625014
vn -0.10425631 -0.74041593 0.6640143
vn -0.098843314 -0.69133574 0.7157408
vn -0.0039868075 -0.6848827 0.72864246
vn 0.35374328 -0.78611434 0.50684315
vn 0.4013578 -0.8184309 0.4111967
vn 0.51813275 -0.73231286 0.44187817
vn 0.28918284 -0.8104875 0.5093949
vn 0.27575538 -0.8865484 0.37147132
vn 0.20194703 -0.7958797 0.5707828
vn 0.2235558 -0.8309088 0.5095228
vn 0.18529113 -0.7636075 0.61852306
vn 0.2263805 -0.77775 0.58639306
vn 0.1679653 -0.7285813 0.6640459
vn 0.19863202 -0.741475 0.64090574
vn 0.16987894 -0.7014499 0.69217724
vn 0.34595022 0.7953717 0.49769694
vn 0.5286388 0.7334968 0.4272277
vn 0.43031034 0.81161535 0.39511195
vn 0.2919261 0.8167328 0.4977215
vn 0.32475153 0.87609696 0.3563573
vn 0.06486335 0.83314055 0.5492445
vn 0.23729193 0.835221 0.4960831
vn 0.06254439 0.78681946 0.6140059
vn -0.019408088 0.8366453 0.54740125
vn 0.05982292 0.7354011 0.6749862
vn -0.021843513 0.7694725 0.63830644
vn -0.023999738 0.69246435 0.7210528
vn -0.61883605 -0.45125875 0.6429677
vn -0.6247887 -0.4393038 0.64548534
vn -0.6849205 -0.41117632 0.60151315
vn -0.5961573 -0.4774837 0.64545006
vn -0.5606953 -0.4646458 0.68536484
vn -0.5032145 -0.5208163 0.68958354
vn -0.5728131 -0.5030733 0.6471495
vn -0.5387303 -0.5433934 0.6438116
vn -0.5721249 -0.56384647 0.5956092
vn -0.48298293 -0.65276563 0.5836305
vn -0.38889337 -0.60560745 0.69426334
vn -0.4371808 -0.6310116 0.6408567
vn -0.3480085 -0.74493074 0.5691821
vn -0.30904993 -0.71857363 0.62300885
vn -0.2685157 -0.6885475 0.673648
vn -0.11032903 -0.8113486 0.5740565
vn -0.10200217 -0.7968627 0.5954875
vn -0.11861614 -0.82530445 0.5520895
vn 0.03998737 -0.9182711 0.39392775
vn 0.12486317 -0.8818969 0.45460635
vn 0.06281479 -0.9630555 0.261875
vn 0.20830622 -0.8346973 0.5097929
vn 0.21107554 -0.9009829 0.37904727
vn 0.35098538 -0.8032643 0.4812232
vn 0.6855476 0.4073025 0.60343117
vn 0.7217094 0.44810787 0.5275745
vn 0.70113766 0.42947263 0.56917423
vn 0.6834001 0.4238389 0.59441125
vn 0.67881227 0.40976322 0.60935044
vn 0.6810162 0.44016406 0.5852115
vn 0.6768766 0.46392292 0.5715012
vn 0.6562436 0.41600797 0.6295091
vn 0.6316157 0.36555985 0.6836868
vn 0.6679674 0.46369803 0.58206856
vn 0.6434162 0.42016545 0.6399035
vn 0.61510575 0.3741776 0.6939999
vn 0.6207958 0.38889977 0.6807126
vn 0.6736547 0.4692251 0.57097924
vn 0.6489556 0.43021056 0.6275153
vn 0.67123276 0.437246 0.59855026
vn 0.69798255 0.43153363 0.5714884
vn 0.723649 0.42519572 0.5436366
vn 0.69098765 0.5997082 0.4035915
vn 0.73998785 0.49152127 0.4591566
vn 0.6541186 0.70709366 0.26860264
vn 0.7758077 0.3767306 0.50615865
vn 0.7383255 0.552622 0.38663214
vn 0.78939384 0.37334698 0.48730832
g mesh_fire_blast_core_0
f 3/3/3 2/2/2 1/1/1
f 4/4/4 1/1/1 2/2/2
f 2/2/2 5/5/5 4/4/4
f 6/6/6 1/1/1 4/4/4
f 7/7/7 4/4/4 5/5/5
f 8/8/8 6/6/6 4/4/4
f 8/8/8 4/4/4 7/7/7
f 9/9/9 6/6/6 8/8/8
f 10/10/10 8/8/8 7/7/7
f 9/9/9 8/8/8 11/11/11
f 11/11/11 8/8/8 10/10/10
f 12/12/12 11/11/11 10/10/10
f 15/15/15 14/14/14 13/13/13
f 13/13/13 16/16/16 15/15/15
f 17/17/17 15/15/15 16/16/16
f 16/16/16 13/13/13 18/18/18
f 16/16/16 19/19/19 17/17/17
f 18/18/18 20/20/20 16/16/16
f 20/20/20 19/19/19 16/16/16
f 20/20/20 18/18/18 21/21/21
f 19/19/19 20/20/20 22/22/22
f 21/21/21 23/23/23 20/20/20
f 22/22/22 20/20/20 23/23/23
f 22/22/22 23/23/23 24/24/24
f 27/27/27 26/26/26 25/25/25
f 26/26/26 28/28/28 25/25/25
f 28/28/28 26/26/26 29/29/29
f 30/30/30 25/25/25 28/28/28
f 29/29/29 31/31/31 28/28/28
f 28/28/28 32/32/32 30/30/30
f 32/32/32 28/28/28 31/31/31
f 33/33/33 30/30/30 32/32/32
f 31/31/31 34/34/34 32/32/32
f 32/32/32 35/35/35 33/33/33
f 35/35/35 32/32/32 34/34/34
f 36/36/36 33/33/33 35/35/35
f 34/34/34 37/37/37 35/35/35
f 35/35/35 38/38/38 36/36/36
f 38/38/38 35/35/35 37/37/37
f 39/39/39 36/36/36 38/38/38
f 37/37/37 40/40/40 38/38/38
f 38/38/38 41/41/41 39/39/39
f 41/41/41 38/38/38 40/40/40
f 42/42/42 39/39/39 41/41/41
f 40/40/40 43/43/43 41/41/41
f 44/44/44 42/42/42 41/41/41
f 44/44/44 41/41/41 43/43/43
f 44/44/44 45/45/45 42/42/42
f 46/46/46 44/44/44 43/43/43
f 45/45/45 44/44/44 47/47/47
f 47/47/47 44/44/44 46/46/46
f 46/46/46 48/48/48 47/47/47
f 51/51/51 50/50/50 49/49/49
f 49/49/49 52/52/52 51/51/51
f 53/53/53 51/51/51 52/52/52
f 52/52/52 49/49/49 54/54/54
f 52/52/52 55/55/55 53/53/53
f 54/54/54 56/56/56 52/52/52
f 55/55/55 52/52/52 56/56/56
f 56/56/56 57/57/57 55/55/55
f 58/58/58 57/57/57 56/56/56
f 56/56/56 54/54/54 59/59/59
f 56/56/56 60/60/60 58/58/58
f 59/59/59 60/60/60 56/56/56
f 61/61/61 58/58/58 60/60/60
f 59/59/59 62/62/62 60/60/60
f 60/60/60 62/62/62 61/61/61
f 63/63/63 62/62/62 59/59/59
f 64/64/64 61/61/61 62/62/62
f 63/63/63 65/65/65 62/62/62
f 65/65/65 64/64/64 62/62/62
f 66/66/66 65/65/65 63/63/63
f 65/65/65 66/66/66 67/67/67
f 68/68/68 64/64/64 65/65/65
f 67/67/67 69/69/69 65/65/65
f 65/65/65 69/69/69 68/68/68
f 69/69/69 67/67/67 70/70/70
f 70/70/70 71/71/71 69/69/69
f 68/68/68 69/69/69 71/71/71
f 71/71/71 72/72/72 68/68/68
f 75/75/75 74/74/74 73/73/73
f 76/76/76 73/73/73 74/74/74
f 74/74/74 77/77/77 76/76/76
f 73/73/73 76/76/76 78/78/78
f 79/79/79 76/76/76 77/77/77
f 80/80/80 78/78/78 76/76/76
f 80/80/80 76/76/76 79/79/79
f 81/81/81 78/78/78 80/80/80
f 82/82/82 80/80/80 79/79/79
f 83/83/83 81/81/81 80/80/80
f 83/83/83 80/80/80 82/82/82
f 84/84/84 83/83/83 82/82/82
f 87/87/87 86/86/86 85/85/85
f 85/85/85 88/88/88 87/87/87
f 89/89/89 87/87/87 88/88/88
f 88/88/88 85/85/85 90/90/90
f 88/88/88 91/91/91 89/89/89
f 90/90/90 92/92/92 88/88/88
f 92/92/92 91/91/91 88/88/88
f 92/92/92 90/90/90 93/93/93
f 91/91/91 92/92/92 94/94/94
f 93/93/93 95/95/95 92/92/92
f 95/95/95 94/94/94 92/92/92
f 94/94/94 95/95/95 96/96/96
f 99/99/99 98/98/98 97/97/97
f 100/100/100 97/97/97 98/98/98
f 100/100/100 98/98/98 101/101/101
f 102/102/102 97/97/97 100/100/100
f 101/101/101 103/103/103 100/100/100
f 104/104/104 102/102/102 100/100/100
f 104/104/104 100/100/100 103/103/103
f 105/105/105 102/102/102 104/104/104
f 103/103/103 106/106/106 104/104/104
f 105/105/105 104/104/104 107/107/107
f 107/107/107 104/104/104 106/106/106
f 106/106/106 108/108/108 107/107/107
f 111/111/111 110/110/110 109/109/109
f 109/109/109 112/112/112 111/111/111
f 113/113/113 111/111/111 112/112/112
f 112/112/112 109/109/109 114/114/114
f 112/112/112 115/115/115 113/113/113
f 114/114/114 116/116/116 112/112/112
f 115/115/115 112/112/112 116/116/116
f 116/116/116 114/114/114 117/117/117
f 116/116/116 118/118/118 115/115/115
f 117/117/117 119/119/119 116/116/116
f 118/118/118 116/116/116 119/119/119
f 119/119/119 120/120/120 118/118/118
f 123/123/123 122/122/122 121/121/121
f 124/124/124 121/121/121 122/122/122
f 125/125/125 124/124/124 122/122/122
f 126/126/126 121/121/121 124/124/124
f 125/125/125 127/127/127 124/124/124
f 124/124/124 128/128/128 126/126/126
f 128/128/128 124/124/124 127/127/127
f 128/128/128 127/127/127 129/129/129
f 128/128/128 129/129/129 130/130/130
f 131/131/131 126/126/126 128/128/128
f 130/130/130 132/132/132 128/128/128
f 128/128/128 132/132/132 131/131/131
f 132/132/132 130/130/130 133/133/133
f 131/131/131 132/132/132 134/134/134
f 133/133/133 134/134/134 132/132/132
f 134/134/134 135/135/135 131/131/131
f 136/136/136 134/134/134 133/133/133
f 134/134/134 136/136/136 135/135/135
f 135/135/135 136/136/136 137/137/137
f 133/133/133 138/138/138 136/136/136
f 139/139/139 137/137/137 136/136/136
f 140/140/140 136/136/136 138/138/138
f 136/136/136 140/140/140 139/139/139
f 141/141/141 139/139/139 140/140/140
f 138/138/138 142/142/142 140/140/140
f 140/140/140 143/143/143 141/141/141
f 140/140/140 142/142/142 143/143/143
f 144/144/144 143/143/143 142/142/142
f 147/147/147 146/146/146 145/145/145
f 145/145/145 148/148/148 147/147/147
f 149/149/149 147/147/147 148/148/148
f 148/148/148 150/150/150 149/149/149
f 150/150/150 148/148/148 151/151/151
f 152/152/152 148/148/148 145/145/145
f 151/151/151 148/148/148 152/152/152
f 153/153/153 152/152/152 145/145/145
f 151/151/151 152/152/152 154/154/154
f 152/152/152 153/153/153 155/155/155
f 154/154/154 152/152/152 155/155/155
f 156/156/156 155/155/155 153/153/153
f 155/155/155 156/156/156 157/157/157
f 154/154/154 155/155/155 158/158/158
f 157/157/157 159/159/159 155/155/155
f 158/158/158 155/155/155 159/159/159
f 159/159/159 157/157/157 160/160/160
f 158/158/158 159/159/159 161/161/161
f 160/160/160 161/161/161 159/159/159
f 161/161/161 162/162/162 158/158/158
f 161/161/161 160/160/160 163/163/163
f 162/162/162 161/161/161 164/164/164
f 163/163/163 164/164/164 161/161/161
f 164/164/164 163/163/163 165/165/165
f 164/164/164 166/166/166 162/162/162
f 165/165/165 167/167/167 164/164/164
f 166/166/166 164/164/164 167/167/167
f 167/167/167 168/168/168 166/166/166
