g mesh_rock
v -0.08612157 -0.10162073 0.07721636
v -0.11678397 -0.02220932 -0.053941045
v -0.077112585 0.02673662 0.1140964
v -0.09304116 0.08440168 0.03444456
v -0.11678397 -0.02220932 -0.053941045
v -0.09829529 -0.026456451 -0.10824415
v 0.0024523258 0.038340587 -0.11489604
v -0.09304116 0.08440168 0.03444456
v -0.00012169361 0.10135393 -0.031227877
v -0.036496915 0.112328775 0.02247262
v -0.035914052 -0.112328775 -0.1014822
v -0.09829529 -0.026456451 -0.10824415
v -0.11678397 -0.02220932 -0.053941045
v -0.08612157 -0.10162073 0.07721636
v 0.0024523258 0.038340587 -0.11489604
v -0.035914052 -0.112328775 -0.1014822
v 0.06483356 -0.047531795 -0.1081341
v -0.09829529 -0.026456451 -0.10824415
v -0.09304116 0.08440168 0.03444456
v -0.036496915 0.112328775 0.02247262
v -0.007066833 0.07740194 0.074224204
v -0.077112585 0.02673662 0.1140964
v 0.05487606 0.0673208 0.04403507
v -0.036496915 0.112328775 0.02247262
v -0.00012169361 0.10135393 -0.031227877
v -0.007066833 0.07740194 0.074224204
v 0.0024523258 0.038340587 -0.11489604
v 0.05487606 0.0673208 0.04403507
v -0.00012169361 0.10135393 -0.031227877
v 0.06483356 -0.047531795 -0.1081341
v 0.084516 -0.05861883 -0.07566122
v 0.11678397 -0.011173896 0.045956086
v -0.035914052 -0.112328775 -0.1014822
v 0.062040795 -0.1103354 0.0008574104
v 0.084516 -0.05861883 -0.07566122
v 0.06483356 -0.047531795 -0.1081341
v 0.11678397 -0.011173896 0.045956086
v 0.084516 -0.05861883 -0.07566122
v 0.062040795 -0.1103354 0.0008574104
v 0.095404565 -0.052969303 0.07731209
v 0.05487606 0.0673208 0.04403507
v 0.11678397 -0.011173896 0.045956086
v 0.095404565 -0.052969303 0.07731209
v -0.007066833 0.07740194 0.074224204
v 0.030475415 -0.055830784 0.11489603
v -0.077112585 0.02673662 0.1140964
v 0.030475415 -0.055830784 0.11489603
v 0.095404565 -0.052969303 0.07731209
v 0.062040795 -0.1103354 0.0008574104
v -0.044414937 -0.1044993 0.09180513
v -0.035914052 -0.112328775 -0.1014822
v -0.08612157 -0.10162073 0.07721636
v 0.062040795 -0.1103354 0.0008574104
v -0.044414937 -0.1044993 0.09180513
v -0.077112585 0.02673662 0.1140964
v 0.030475415 -0.055830784 0.11489603
v -0.044414937 -0.1044993 0.09180513
v -0.08612157 -0.10162073 0.07721636
vt 0.8123212 0.7457037
vt 0.8955605 0.75330806
vt 0.82253027 0.6657562
vt 0.889359 0.69194484
vt 0.87930465 0.9257037
vt 0.8769325 0.957796
vt 0.9397453 0.9814436
vt 0.9425453 0.8790209
vt 0.9749861 0.9346052
vt 0.973124 0.89785075
vt 0.2029683 0.8558756
vt 0.24155496 0.90510464
vt 0.29921573 0.84224063
vt 0.24674362 0.7584352
vt 0.70003676 0.92249167
vt 0.77992475 0.8533961
vt 0.7235978 0.8304086
vt 0.790338 0.90523684
vt 0.90994376 0.46896988
vt 0.910665 0.41025108
vt 0.85885304 0.4207325
vt 0.83759105 0.4998411
vt 0.60775834 0.25889924
vt 0.68195266 0.29737082
vt 0.67831516 0.24118617
vt 0.6242391 0.3123584
vt 0.89153624 0.78701365
vt 0.7876748 0.86024475
vt 0.8703443 0.86291325
vt 0.84117246 0.74294174
vt 0.81965166 0.73665726
vt 0.74298126 0.80609286
vt 0.12117833 0.7446932
vt 0.1428175 0.8199261
vt 0.19544503 0.7801885
vt 0.18160489 0.7517499
vt 0.5979806 0.6047495
vt 0.68848026 0.53825015
vt 0.61656463 0.504641
vt 0.5745324 0.5770328
vt 0.3757094 0.6199852
vt 0.37559623 0.7121363
vt 0.43141192 0.73084366
vt 0.43141192 0.5779978
vt 0.5004961 0.696669
vt 0.531269 0.5751709
vt 0.6682422 0.82865787
vt 0.7008499 0.8309847
vt 0.72774506 0.7846633
vt 0.6415528 0.76392543
vt 0.7397605 0.8914127
vt 0.67426187 0.8292483
vt 0.6622255 0.90220886
vt 0.63865113 0.832751
vt 0.7499065 0.71706617
vt 0.74892694 0.6250123
vt 0.67760736 0.6719014
vt 0.669959 0.706857
vn -0.974133 0.015598761 0.22543617
vn -0.974133 0.015598761 0.22543617
vn -0.974133 0.015598761 0.22543617
vn -0.974133 0.015598761 0.22543617
vn -0.5803215 0.6533196 -0.4862103
vn -0.5803215 0.6533196 -0.4862103
vn -0.537354 0.6775529 -0.5021681
vn -0.537354 0.6775529 -0.5021681
vn -0.49294212 0.6999647 -0.516776
vn -0.49294212 0.6999647 -0.516776
vn -0.77853334 -0.59777987 -0.19116765
vn -0.77853334 -0.59777987 -0.19116765
vn -0.77853334 -0.59777987 -0.19116765
vn -0.77853334 -0.59777987 -0.19116765
vn -0.0104430225 -0.086034134 -0.9962374
vn -0.0104430225 -0.086034134 -0.9962374
vn -0.0104430225 -0.086034134 -0.9962374
vn -0.0104430225 -0.086034134 -0.9962374
vn -0.22113584 0.7596341 0.61160034
vn -0.22113584 0.7596341 0.61160034
vn -0.22113584 0.7596341 0.61160034
vn -0.22113584 0.7596341 0.61160034
vn 0.38628495 0.8936486 0.22842099
vn 0.38628495 0.8936486 0.22842099
vn 0.38628495 0.8936486 0.22842099
vn 0.38628495 0.8936486 0.22842099
vn 0.7778307 0.52094585 -0.3515606
vn 0.764964 0.52988744 -0.36612752
vn 0.7778307 0.52094585 -0.3515606
vn 0.764964 0.52988744 -0.36612752
vn 0.7517472 0.5385865 -0.3805268
vn 0.7517472 0.5385865 -0.3805268
vn 0.442792 -0.7817393 -0.43911153
vn 0.442792 -0.7817393 -0.43911153
vn 0.442792 -0.7817393 -0.43911153
vn 0.442792 -0.7817393 -0.43911153
vn 0.8831762 -0.46681723 -0.045623817
vn 0.8831762 -0.46681723 -0.045623817
vn 0.8831762 -0.46681723 -0.045623817
vn 0.8831762 -0.46681723 -0.045623817
vn 0.45352343 0.3763016 0.807907
vn 0.45352343 0.3763016 0.807907
vn 0.40321827 0.37005293 0.83694434
vn 0.40321827 0.37005293 0.83694434
vn 0.35153702 0.36254135 0.8631254
vn 0.35153702 0.36254135 0.8631254
vn 0.34665504 -0.80535334 0.4808703
vn 0.34665504 -0.80535334 0.4808703
vn 0.34665504 -0.80535334 0.4808703
vn 0.34665504 -0.80535334 0.4808703
vn -0.03876384 -0.9984971 0.03874114
vn -0.03876384 -0.9984971 0.03874114
vn -0.03876384 -0.9984971 0.03874114
vn -0.03876384 -0.9984971 0.03874114
vn -0.22206469 -0.21679741 0.95062405
vn -0.22206469 -0.21679741 0.95062405
vn -0.22206469 -0.21679741 0.95062405
vn -0.22206469 -0.21679741 0.95062405
g mesh_rock_0
f 3/3/3 2/2/2 1/1/1
f 3/3/3 4/4/4 2/2/2
f 7/7/7 6/6/6 5/5/5
f 7/7/7 5/5/5 8/8/8
f 9/9/9 7/7/7 8/8/8
f 8/8/8 10/10/10 9/9/9
f 13/13/13 12/12/12 11/11/11
f 11/11/11 14/14/14 13/13/13
f 17/17/17 16/16/16 15/15/15
f 16/16/16 18/18/18 15/15/15
f 21/21/21 20/20/20 19/19/19
f 19/19/19 22/22/22 21/21/21
f 25/25/25 24/24/24 23/23/23
f 24/24/24 26/26/26 23/23/23
f 29/29/29 28/28/28 27/27/27
f 28/28/28 30/30/30 27/27/27
f 31/31/31 30/30/30 28/28/28
f 28/28/28 32/32/32 31/31/31
f 35/35/35 34/34/34 33/33/33
f 33/33/33 36/36/36 35/35/35
f 39/39/39 38/38/38 37/37/37
f 37/37/37 40/40/40 39/39/39
f 43/43/43 42/42/42 41/41/41
f 41/41/41 44/44/44 43/43/43
f 45/45/45 43/43/43 44/44/44
f 44/44/44 46/46/46 45/45/45
f 49/49/49 48/48/48 47/47/47
f 49/49/49 47/47/47 50/50/50
f 53/53/53 52/52/52 51/51/51
f 53/53/53 54/54/54 52/52/52
f 57/57/57 56/56/56 55/55/55
f 55/55/55 58/58/58 57/57/57
