g mesh_ring_water
v 0.02652069 -0.13332878 0.0035521889
v 0.052022263 -0.12559304 0.0035521889
v 0.048722543 -0.24494536 0.019355774
v 0.09652646 -0.23303573 0.019355774
v 0.07552462 -0.11303078 0.0035521889
v 0.14013477 -0.20972668 0.019355774
v 0.16745207 -0.16745223 0.019355735
v 0.096124694 -0.0961248 0.003552227
v 0.18237215 -0.121857315 0.019355739
v 0.11303061 -0.07552477 0.0035521793
v 0.12559287 -0.052022442 0.0035521793
v 0.20264111 -0.08393684 0.019355739
v 0.13332866 -0.026520828 0.0035521793
v 0.23219924 -0.046187416 0.019355735
v 0.13594088 -1.0019244E-07 0.0035521889
v 0.24374609 -1.0019244E-07 0.019355735
v 0.13332868 0.026520647 0.0035521793
v 0.24494542 0.048722547 0.019355735
v 0.1255929 0.05202226 0.0035521889
v 0.23303585 0.09652648 0.019355735
v 0.11303072 0.07552463 0.0035521889
v 0.20972677 0.1401348 0.019355735
v 0.16745226 0.1674521 0.019355735
v 0.0961248 0.096124634 0.003552227
v 0.12185734 0.18237223 0.01935577
v 0.07552481 0.11303064 0.0035521889
v 0.05202236 0.12559295 0.003552208
v 0.083936825 0.20264119 0.01935577
v 0.026520729 0.13332868 0.0035521889
v 0.046187405 0.23219933 0.019355774
v 1.9073486E-08 0.13594094 0.0035521889
v 7.6293944E-08 0.24374616 0.019355774
v -0.026520671 0.13332868 0.0035521889
v -0.048722614 0.24494548 0.019355774
v -0.052022398 0.125593 0.0035521698
v -0.09652654 0.23303592 0.019355774
v -0.14013489 0.20972683 0.019355774
v -0.07552478 0.11303074 0.0035521889
v -0.1674522 0.16745228 0.019355735
v -0.09612494 0.09612476 0.0035521889
v -0.18237232 0.12185734 0.019355739
v -0.11303092 0.07552484 0.0035521889
v -0.2026413 0.0839368 0.019355739
v -0.12559284 0.052022375 0.0035521889
v -0.13332878 0.026520763 0.0035521889
v -0.2321994 0.046187356 0.019355735
v -0.13594109 -4.8250053E-09 0.0035521889
v -0.24374624 3.3321967E-08 0.019355735
v -0.13332883 -0.02652079 0.0035521889
v -0.2449456 -0.048722662 0.019355735
v -0.12559287 -0.052022405 0.0035521889
v -0.23303598 -0.09652662 0.019355735
v -0.11303091 -0.07552477 0.0035521889
v -0.20972684 -0.14013496 0.019355735
v -0.16745234 -0.16745226 0.019355735
v -0.09612499 -0.09612479 0.0035521889
v -0.12185737 -0.18237236 0.01935577
v -0.07552482 -0.113030806 0.0035521889
v -0.05202244 -0.12559311 0.0035521698
v -0.0839368 -0.20264132 0.01935577
v -0.026520709 -0.13332884 0.0035521889
v -0.046187352 -0.23219948 0.019355774
v -1.9073486E-08 -0.13594109 0.0035521889
v -0 -0.24374631 0.019355774
v 0.02652069 -0.13332878 0.0035521889
v 0.048722543 -0.24494536 0.019355774
vt 5.450982 0.009701967
vt 5.141546 0.009701729
vt 5.450982 0.9911815
vt 5.141546 0.99118173
vt 4.8321095 0.009701967
vt 4.8321095 0.9911815
vt 4.5226727 0.9911815
vt 4.5226727 0.009701967
vt 4.213237 0.99118173
vt 4.213237 0.009701729
vt 3.9037993 0.009701967
vt 3.9037993 0.9911815
vt 3.5943637 0.009701848
vt 3.5943637 0.9911816
vt 3.284927 0.009702206
vt 3.284927 0.9911814
vt 2.9754906 0.009701908
vt 2.9754906 0.99118155
vt 2.6660547 0.009701848
vt 2.6660547 0.9911816
vt 2.3566184 0.009701908
vt 2.3566184 0.99118155
vt 2.0471823 0.99118155
vt 2.0471823 0.009701908
vt 1.7377456 0.9911816
vt 1.7377456 0.009701878
vt 1.4283092 0.009701848
vt 1.4283092 0.9911815
vt 1.118873 0.009701818
vt 1.118873 0.9911815
vt 0.8094363 0.009701878
vt 0.8094365 0.9911815
vt 0.5 0.009701908
vt 0.5000001 0.9911815
vt 0.19056365 0.009701878
vt 0.19056374 0.99118143
vt -0.11887288 0.9911816
vt -0.11887288 0.009701848
vt -0.4283092 0.9911815
vt -0.4283092 0.009701848
vt -0.73774564 0.9911815
vt -0.73774564 0.009701878
vt -1.0471816 0.99118155
vt -1.0471816 0.009701908
vt -1.3566184 0.009701729
vt -1.3566184 0.99118155
vt -1.6660538 0.009701848
vt -1.6660538 0.9911816
vt -1.9754918 0.009701967
vt -1.9754918 0.9911815
vt -2.284927 0.009701848
vt -2.284927 0.9911816
vt -2.594364 0.009701967
vt -2.594364 0.9911815
vt -2.9038 0.9911815
vt -2.9038 0.009701967
vt -3.2132354 0.9911816
vt -3.2132354 0.009701848
vt -3.5226722 0.009701848
vt -3.5226722 0.9911816
vt -3.832109 0.009701729
vt -3.832109 0.99118173
vt -4.1415443 0.009701729
vt -4.1415443 0.99118173
vt -4.450982 0.009701967
vt -4.450982 0.9911815
vn -0.019046301 0.13724805 0.9903536
vn -0.04960157 0.12574725 0.9908215
vn -0.019046301 0.13724805 0.9903536
vn -0.04960157 0.12574725 0.9908215
vn -0.08939154 0.10623261 0.990315
vn -0.08939154 0.10623261 0.990315
vn -0.13638902 0.08448022 0.9870467
vn -0.13638902 0.08448022 0.9870467
vn -0.16137448 0.082019046 0.98347914
vn -0.16137448 0.082019046 0.98347914
vn -0.15789783 0.088553935 0.9834767
vn -0.15789783 0.088553935 0.9834767
vn -0.14968865 0.05894138 0.9869747
vn -0.14968865 0.05894138 0.9869747
vn -0.14538494 0.013117341 0.9892882
vn -0.14538494 0.013117341 0.9892882
vn -0.13724762 -0.019045835 0.9903536
vn -0.13724762 -0.019045835 0.9903536
vn -0.1257468 -0.049601357 0.9908216
vn -0.1257468 -0.049601357 0.9908216
vn -0.10623209 -0.0893915 0.990315
vn -0.10623209 -0.0893915 0.990315
vn -0.0844798 -0.1363892 0.9870467
vn -0.0844798 -0.1363892 0.9870467
vn -0.08201884 -0.16137469 0.98347914
vn -0.08201884 -0.16137469 0.98347914
vn -0.08855385 -0.15789802 0.9834767
vn -0.08855385 -0.15789802 0.9834767
vn -0.05894151 -0.14968875 0.9869747
vn -0.05894151 -0.14968875 0.9869747
vn -0.013117345 -0.14538515 0.9892882
vn -0.013117345 -0.14538515 0.9892882
vn 0.019045701 -0.13724802 0.9903536
vn 0.019045701 -0.13724802 0.9903536
vn 0.049601357 -0.12574711 0.9908215
vn 0.049601357 -0.12574711 0.9908215
vn 0.089391455 -0.10623271 0.990315
vn 0.089391455 -0.10623271 0.990315
vn 0.13638912 -0.0844804 0.9870466
vn 0.13638912 -0.0844804 0.9870466
vn 0.16137497 -0.08201848 0.98347914
vn 0.16137497 -0.08201848 0.98347914
vn 0.15789784 -0.08855344 0.9834767
vn 0.15789784 -0.08855344 0.9834767
vn 0.14968845 -0.058941547 0.98697484
vn 0.14968845 -0.058941547 0.98697484
vn 0.1453849 -0.013117388 0.9892882
vn 0.1453849 -0.013117388 0.9892882
vn 0.13724752 0.01904602 0.9903536
vn 0.13724752 0.01904602 0.9903536
vn 0.12574674 0.0496013 0.9908216
vn 0.12574674 0.0496013 0.9908216
vn 0.10623239 0.089391254 0.990315
vn 0.10623239 0.089391254 0.990315
vn 0.08447983 0.13638951 0.9870466
vn 0.08447983 0.13638951 0.9870466
vn 0.08201891 0.16137514 0.983479
vn 0.08201891 0.16137514 0.983479
vn 0.08855392 0.15789826 0.98347664
vn 0.08855392 0.15789826 0.98347664
vn 0.058941267 0.14968902 0.9869747
vn 0.058941267 0.14968902 0.9869747
vn 0.013117036 0.1453852 0.9892882
vn 0.013117036 0.1453852 0.9892882
vn -0.019046301 0.13724805 0.9903536
vn -0.019046301 0.13724805 0.9903536
g mesh_ring_water_0
f 3/3/3 2/2/2 1/1/1
f 2/2/2 3/3/3 4/4/4
f 4/4/4 5/5/5 2/2/2
f 5/5/5 4/4/4 6/6/6
f 5/5/5 6/6/6 7/7/7
f 7/7/7 8/8/8 5/5/5
f 8/8/8 7/7/7 9/9/9
f 9/9/9 10/10/10 8/8/8
f 11/11/11 10/10/10 9/9/9
f 9/9/9 12/12/12 11/11/11
f 13/13/13 11/11/11 12/12/12
f 13/13/13 12/12/12 14/14/14
f 15/15/15 13/13/13 14/14/14
f 14/14/14 16/16/16 15/15/15
f 17/17/17 15/15/15 16/16/16
f 16/16/16 18/18/18 17/17/17
f 19/19/19 17/17/17 18/18/18
f 18/18/18 20/20/20 19/19/19
f 20/20/20 21/21/21 19/19/19
f 22/22/22 21/21/21 20/20/20
f 21/21/21 22/22/22 23/23/23
f 23/23/23 24/24/24 21/21/21
f 24/24/24 23/23/23 25/25/25
f 25/25/25 26/26/26 24/24/24
f 25/25/25 27/27/27 26/26/26
f 27/27/27 25/25/25 28/28/28
f 29/29/29 27/27/27 28/28/28
f 29/29/29 28/28/28 30/30/30
f 31/31/31 29/29/29 30/30/30
f 31/31/31 30/30/30 32/32/32
f 33/33/33 31/31/31 32/32/32
f 33/33/33 32/32/32 34/34/34
f 35/35/35 33/33/33 34/34/34
f 34/34/34 36/36/36 35/35/35
f 35/35/35 36/36/36 37/37/37
f 37/37/37 38/38/38 35/35/35
f 38/38/38 37/37/37 39/39/39
f 39/39/39 40/40/40 38/38/38
f 40/40/40 39/39/39 41/41/41
f 41/41/41 42/42/42 40/40/40
f 42/42/42 41/41/41 43/43/43
f 43/43/43 44/44/44 42/42/42
f 43/43/43 45/45/45 44/44/44
f 46/46/46 45/45/45 43/43/43
f 46/46/46 47/47/47 45/45/45
f 47/47/47 46/46/46 48/48/48
f 48/48/48 49/49/49 47/47/47
f 49/49/49 48/48/48 50/50/50
f 51/51/51 49/49/49 50/50/50
f 51/51/51 50/50/50 52/52/52
f 53/53/53 51/51/51 52/52/52
f 53/53/53 52/52/52 54/54/54
f 53/53/53 54/54/54 55/55/55
f 55/55/55 56/56/56 53/53/53
f 56/56/56 55/55/55 57/57/57
f 57/57/57 58/58/58 56/56/56
f 59/59/59 58/58/58 57/57/57
f 57/57/57 60/60/60 59/59/59
f 61/61/61 59/59/59 60/60/60
f 60/60/60 62/62/62 61/61/61
f 62/62/62 63/63/63 61/61/61
f 62/62/62 64/64/64 63/63/63
f 64/64/64 65/65/65 63/63/63
f 66/66/66 65/65/65 64/64/64
