g mesh_horn_solid
v 0.022458114 0.022458073 -0.10093728
v 0.02296383 0.009511916 -0.10781939
v 0.029342918 0.01215422 -0.10093728
v 0.02485588 -2.648087E-09 -0.10781939
v 0.03176056 -1.8295946E-09 -0.10093728
v 0.029342918 0.01215422 -0.10093728
v 0.022458114 0.022458073 -0.10093728
v 0.01757576 0.017575732 -0.10781939
v 0.02296383 0.009511916 -0.10781939
v 0.009511957 0.022963826 -0.10781939
v 0.01757576 0.017575732 -0.10781939
v 0.022458114 0.022458073 -0.10093728
v 0.022458114 0.022458073 -0.10093728
v 0.012154274 0.02934292 -0.1009373
v 3.8146972E-08 0.031760562 -0.1009373
v 3.8146972E-08 0.031760562 -0.1009373
v 2.8610229E-08 0.024855878 -0.10781939
v 2.8610229E-08 0.024855878 -0.10781939
v -0.012154207 0.029342923 -0.10093731
v -0.0095119 0.022963826 -0.10781939
v 3.8146972E-08 0.031760562 -0.1009373
v -0.012154207 0.029342923 -0.10093731
v -0.022458056 0.022458104 -0.100937314
v -0.0095119 0.022963826 -0.10781939
v -0.022458056 0.022458104 -0.100937314
v -0.017575722 0.017575752 -0.10781939
v -0.022458056 0.022458104 -0.100937314
v -0.029342908 0.012154248 -0.100937314
v -0.022963809 0.0095119355 -0.10781939
v -0.03176056 9.528872E-09 -0.10093733
v -0.024855861 6.241073E-09 -0.10781939
v -0.029342908 0.012154248 -0.100937314
v -0.022963809 0.0095119355 -0.10781939
v -0.017575722 0.017575752 -0.10781939
v -0.022458056 0.022458104 -0.100937314
v -0.029342908 -0.012154227 -0.100937314
v -0.022963809 -0.009511923 -0.10781939
v -0.024855861 6.241073E-09 -0.10781939
v -0.03176056 9.528872E-09 -0.10093733
v -0.029342908 -0.012154227 -0.100937314
v -0.022458056 -0.022458086 -0.100937314
v -0.022963809 -0.009511923 -0.10781939
v -0.022458056 -0.022458086 -0.100937314
v -0.017575722 -0.01757574 -0.10781939
v -0.022458056 -0.022458086 -0.100937314
v -0.012154226 -0.029342929 -0.10093731
v -0.009511919 -0.022963833 -0.10781939
v 9.536743E-09 -0.03176057 -0.1009373
v 1.9073486E-08 -0.024855886 -0.10781939
v -0.012154226 -0.029342929 -0.10093731
v -0.009511919 -0.022963833 -0.10781939
v -0.017575722 -0.01757574 -0.10781939
v -0.022458056 -0.022458086 -0.100937314
v 0.0121542355 -0.029342925 -0.1009373
v 1.9073486E-08 -0.024855886 -0.10781939
v 9.536743E-09 -0.03176057 -0.1009373
v 0.0121542355 -0.029342925 -0.1009373
v 0.009511948 -0.022963833 -0.10781939
v 0.022458076 -0.02245808 -0.10093728
v 0.022458076 -0.02245808 -0.10093728
v 0.01757576 -0.01757574 -0.10781939
v 0.009511948 -0.022963833 -0.10781939
v 0.02296383 -0.0095119355 -0.10781939
v 0.01757576 -0.01757574 -0.10781939
v 0.022458076 -0.02245808 -0.10093728
v 0.022458076 -0.02245808 -0.10093728
v 0.029342918 -0.012154241 -0.10093728
v 0.02296383 -0.0095119355 -0.10781939
v 0.02485588 -2.648087E-09 -0.10781939
v 0.029342918 -0.012154241 -0.10093728
v 0.03176056 -1.8295946E-09 -0.10093728
v 0.029342918 0.01215422 -0.10093728
v 1.9073486E-08 2.4595726E-17 0.12209552
v 0.022458114 0.022458073 -0.10093728
v 0.03176056 -1.8295946E-09 -0.10093728
v -0.022458056 0.022458104 -0.100937314
v -0.029342908 0.012154248 -0.100937314
v -0.03176056 9.528872E-09 -0.10093733
v -0.022458056 -0.022458086 -0.100937314
v -0.012154226 -0.029342929 -0.10093731
v 9.536743E-09 -0.03176057 -0.1009373
v 9.536743E-09 -0.03176057 -0.1009373
v 0.0121542355 -0.029342925 -0.1009373
v 0.022458076 -0.02245808 -0.10093728
v 0.022458114 0.022458073 -0.10093728
v 1.9073486E-08 2.4595726E-17 0.12209552
v 0.012154274 0.02934292 -0.1009373
v 3.8146972E-08 0.031760562 -0.1009373
v 3.8146972E-08 0.031760562 -0.1009373
v -0.012154207 0.029342923 -0.10093731
v -0.022458056 0.022458104 -0.100937314
v -0.03176056 9.528872E-09 -0.10093733
v -0.029342908 -0.012154227 -0.100937314
v -0.022458056 -0.022458086 -0.100937314
v 0.022458076 -0.02245808 -0.10093728
v 0.029342918 -0.012154241 -0.10093728
v 0.03176056 -1.8295946E-09 -0.10093728
v -0.022963809 -0.009511923 -0.10781939
v -0.017575722 -0.01757574 -0.10781939
v 1.9073486E-08 4.310078E-09 -0.10781942
v -0.024855861 6.241073E-09 -0.10781939
v 1.9073486E-08 4.310078E-09 -0.10781942
v 0.01757576 0.017575732 -0.10781939
v 1.9073486E-08 4.310078E-09 -0.10781942
v 0.02296383 0.009511916 -0.10781939
v 1.9073486E-08 4.310078E-09 -0.10781942
v 0.02485588 -2.648087E-09 -0.10781939
v 1.9073486E-08 4.310078E-09 -0.10781942
v 0.02296383 -0.0095119355 -0.10781939
v 0.02485588 -2.648087E-09 -0.10781939
v 1.9073486E-08 4.310078E-09 -0.10781942
v 0.01757576 -0.01757574 -0.10781939
v 1.9073486E-08 4.310078E-09 -0.10781942
v 0.009511948 -0.022963833 -0.10781939
v 0.01757576 -0.01757574 -0.10781939
v 1.9073486E-08 4.310078E-09 -0.10781942
v 1.9073486E-08 -0.024855886 -0.10781939
v 1.9073486E-08 4.310078E-09 -0.10781942
v -0.009511919 -0.022963833 -0.10781939
v 1.9073486E-08 -0.024855886 -0.10781939
v 1.9073486E-08 4.310078E-09 -0.10781942
v -0.017575722 -0.01757574 -0.10781939
v -0.022963809 0.0095119355 -0.10781939
v -0.024855861 6.241073E-09 -0.10781939
v 1.9073486E-08 4.310078E-09 -0.10781942
v -0.017575722 0.017575752 -0.10781939
v 1.9073486E-08 4.310078E-09 -0.10781942
v -0.0095119 0.022963826 -0.10781939
v -0.017575722 0.017575752 -0.10781939
v 1.9073486E-08 4.310078E-09 -0.10781942
v 2.8610229E-08 0.024855878 -0.10781939
v 1.9073486E-08 4.310078E-09 -0.10781942
v 0.009511957 0.022963826 -0.10781939
v 2.8610229E-08 0.024855878 -0.10781939
v 1.9073486E-08 4.310078E-09 -0.10781942
v 0.01757576 0.017575732 -0.10781939
v 1.9073486E-08 4.310078E-09 -0.10781942
vt 0.0121718645 0.9012222
vt 0.5766748 0.89715713
vt 0.0121718645 0.5004194
vt 0.98117304 0.8971572
vt 0.0121718645 0.09592113
vt 0.0121718645 0.5004194
vt 0.0121718645 0.9012222
vt 0.17587203 0.89715743
vt 0.5766748 0.89715713
vt 0.57667494 0.897157
vt 0.17587191 0.89715755
vt 0.0121718645 0.90122217
vt 0.0121718645 0.90122217
vt 0.0121718645 0.5004194
vt 0.0121718645 0.0959211
vt 0.0121718645 0.0959211
vt 0.98117304 0.8971569
vt 0.98117304 0.8971569
vt 0.0121718645 0.5004194
vt 0.5766748 0.89715713
vt 0.0121718645 0.0959211
vt 0.0121718645 0.5004194
vt 0.012171686 0.9012223
vt 0.5766748 0.89715713
vt 0.012171686 0.9012223
vt 0.17587203 0.89715743
vt 0.012171686 0.9012223
vt 0.0121718645 0.5004194
vt 0.5766748 0.89715713
vt 0.0121718645 0.09592113
vt 0.98117304 0.8971572
vt 0.0121718645 0.5004194
vt 0.5766748 0.89715713
vt 0.17587203 0.89715743
vt 0.012171686 0.9012223
vt 0.012171477 0.5004194
vt 0.57667494 0.897157
vt 0.98117304 0.89715683
vt 0.0121718645 0.09592113
vt 0.012171477 0.5004194
vt 0.0121718645 0.9012222
vt 0.57667494 0.897157
vt 0.0121718645 0.9012222
vt 0.17587215 0.8971572
vt 0.0121718645 0.9012223
vt 0.0121718645 0.5004194
vt 0.5766748 0.8971573
vt 0.012171686 0.0959211
vt 0.98117304 0.89715725
vt 0.0121718645 0.5004194
vt 0.5766748 0.8971573
vt 0.17587203 0.89715743
vt 0.0121718645 0.9012223
vt 0.012172073 0.5004194
vt 0.98117304 0.89715725
vt 0.012171686 0.0959211
vt 0.012172073 0.5004194
vt 0.5766748 0.8971573
vt 0.012171686 0.9012222
vt 0.012171686 0.9012222
vt 0.17587215 0.89715683
vt 0.5766748 0.8971573
vt 0.5766748 0.8971573
vt 0.17587215 0.89715683
vt 0.012171686 0.90122217
vt 0.012171686 0.90122217
vt 0.0121718645 0.5004194
vt 0.5766748 0.8971573
vt 0.98117304 0.8971572
vt 0.0121718645 0.5004194
vt 0.012172073 0.09592113
vt 0.012171984 0.50041944
vt 0.6947329 0.5004194
vt 0.012171984 0.9012222
vt 0.012171984 0.09592113
vt 0.012171775 0.9012222
vt 0.0121718645 0.5004194
vt 0.012171686 0.09592113
vt 0.012171775 0.90122217
vt 0.012171775 0.5004194
vt 0.012171775 0.0959211
vt 0.012171775 0.0959211
vt 0.012171775 0.5004194
vt 0.012171984 0.9012222
vt 0.012171984 0.90122217
vt 0.6947329 0.5004194
vt 0.012171775 0.5004194
vt 0.0121718645 0.0959211
vt 0.0121718645 0.0959211
vt 0.012171775 0.5004194
vt 0.012171775 0.9012223
vt 0.012171686 0.09592113
vt 0.0121718645 0.5004194
vt 0.012171775 0.9012222
vt 0.012171984 0.90122217
vt 0.0121718645 0.5004194
vt 0.0121718645 0.09592113
vt 0.591812 0.8984117
vt 0.97253287 0.8984114
vt 0.20939624 0.1087867
vt 0.20939624 0.8984117
vt 0.20939624 0.1087867
vt 0.97253287 0.8984117
vt 0.20939624 0.108786345
vt 0.591812 0.89841175
vt 0.20939624 0.108786345
vt 0.20939624 0.89841145
vt 0.20939624 0.10878682
vt 0.591812 0.89841175
vt 0.20939624 0.8984117
vt 0.20939624 0.10878682
vt 0.97253287 0.89841163
vt 0.20939624 0.10878676
vt 0.591812 0.89841163
vt 0.97253287 0.8984115
vt 0.20939624 0.10878676
vt 0.20939624 0.89841175
vt 0.20939624 0.10878658
vt 0.591812 0.8984117
vt 0.20939624 0.89841175
vt 0.20939624 0.10878658
vt 0.97253287 0.89841133
vt 0.591812 0.8984115
vt 0.20939624 0.89841175
vt 0.20939624 0.10878658
vt 0.97253287 0.8984115
vt 0.20939624 0.10878658
vt 0.591812 0.89841175
vt 0.97253287 0.89841163
vt 0.20939624 0.10878658
vt 0.20939624 0.89841175
vt 0.20939624 0.10878658
vt 0.591812 0.8984117
vt 0.20939624 0.89841187
vt 0.20939624 0.10878658
vt 0.97253287 0.89841175
vt 0.20939624 0.10878658
vn 0.6700666 0.67006415 -0.3194131
vn 0.35113177 0.14544392 -0.92496085
vn 0.8754825 0.36263707 -0.31941307
vn 0.38006255 0 -0.9249608
vn 0.9476156 1.6906344E-07 -0.3194129
vn 0.8754825 0.36263707 -0.31941307
vn 0.6700666 0.67006415 -0.3194131
vn 0.26874527 0.26874417 -0.92496085
vn 0.35113177 0.14544392 -0.92496085
vn 0.14544441 0.35113093 -0.9249611
vn 0.26874527 0.26874417 -0.92496085
vn 0.6700666 0.67006415 -0.3194131
vn 0.6700666 0.67006415 -0.3194131
vn 0.36263868 0.8754816 -0.31941378
vn 1.8174332E-07 0.94761527 -0.31941393
vn 1.8174332E-07 0.94761527 -0.31941393
vn 2.6328416E-07 0.3800617 -0.9249611
vn 2.6328416E-07 0.3800617 -0.9249611
vn -0.36263716 0.87548226 -0.3194138
vn -0.14544322 0.3511313 -0.9249611
vn 1.8174332E-07 0.94761527 -0.31941393
vn -0.36263716 0.87548226 -0.3194138
vn -0.67006475 0.6700655 -0.31941417
vn -0.14544322 0.3511313 -0.9249611
vn -0.67006475 0.6700655 -0.31941417
vn -0.2687438 0.26874414 -0.92496127
vn -0.67006475 0.6700655 -0.31941417
vn -0.87548137 0.3626382 -0.3194149
vn -0.35113 0.14544374 -0.92496157
vn -0.9476149 0 -0.31941515
vn -0.3800603 0 -0.92496175
vn -0.87548137 0.3626382 -0.3194149
vn -0.35113 0.14544374 -0.92496157
vn -0.2687438 0.26874414 -0.92496127
vn -0.67006475 0.6700655 -0.31941417
vn -0.8754815 -0.3626382 -0.3194146
vn -0.35113025 -0.14544375 -0.92496145
vn -0.3800603 0 -0.92496175
vn -0.9476149 0 -0.31941515
vn -0.8754815 -0.3626382 -0.3194146
vn -0.6700656 -0.67006475 -0.31941405
vn -0.35113025 -0.14544375 -0.92496145
vn -0.6700656 -0.67006475 -0.31941405
vn -0.26874462 -0.2687438 -0.9249611
vn -0.6700656 -0.67006475 -0.31941405
vn -0.36263824 -0.8754818 -0.31941384
vn -0.14544396 -0.3511309 -0.92496115
vn 3.80393E-07 -0.9476153 -0.3194137
vn 4.1315369E-07 -0.3800618 -0.9249611
vn -0.36263824 -0.8754818 -0.31941384
vn -0.14544396 -0.3511309 -0.92496115
vn -0.26874462 -0.2687438 -0.9249611
vn -0.6700656 -0.67006475 -0.31941405
vn 0.3626383 -0.87548196 -0.3194132
vn 4.1315369E-07 -0.3800618 -0.9249611
vn 3.80393E-07 -0.9476153 -0.3194137
vn 0.3626383 -0.87548196 -0.3194132
vn 0.14544465 -0.3511315 -0.92496085
vn 0.67006564 -0.67006534 -0.31941256
vn 0.67006564 -0.67006534 -0.31941256
vn 0.26874572 -0.26874498 -0.92496043
vn 0.14544465 -0.3511315 -0.92496085
vn 0.35113215 -0.14544424 -0.9249607
vn 0.26874572 -0.26874498 -0.92496043
vn 0.67006564 -0.67006534 -0.31941256
vn 0.67006564 -0.67006534 -0.31941256
vn 0.8754825 -0.3626375 -0.3194127
vn 0.35113215 -0.14544424 -0.9249607
vn 0.38006255 0 -0.9249608
vn 0.8754825 -0.3626375 -0.3194127
vn 0.9476156 1.6906344E-07 -0.3194129
vn 0.8754825 0.36263707 -0.31941307
vn 1.3735109E-06 -1.9525402E-07 1
vn 0.6700666 0.67006415 -0.3194131
vn 0.9476156 1.6906344E-07 -0.3194129
vn -0.67006475 0.6700655 -0.31941417
vn -0.87548137 0.3626382 -0.3194149
vn -0.9476149 0 -0.31941515
vn -0.6700656 -0.67006475 -0.31941405
vn -0.36263824 -0.8754818 -0.31941384
vn 3.80393E-07 -0.9476153 -0.3194137
vn 3.80393E-07 -0.9476153 -0.3194137
vn 0.3626383 -0.87548196 -0.3194132
vn 0.67006564 -0.67006534 -0.31941256
vn 0.6700666 0.67006415 -0.3194131
vn 1.3735109E-06 -1.9525402E-07 1
vn 0.36263868 0.8754816 -0.31941378
vn 1.8174332E-07 0.94761527 -0.31941393
vn 1.8174332E-07 0.94761527 -0.31941393
vn -0.36263716 0.87548226 -0.3194138
vn -0.67006475 0.6700655 -0.31941417
vn -0.9476149 0 -0.31941515
vn -0.8754815 -0.3626382 -0.3194146
vn -0.6700656 -0.67006475 -0.31941405
vn 0.67006564 -0.67006534 -0.31941256
vn 0.8754825 -0.3626375 -0.3194127
vn 0.9476156 1.6906344E-07 -0.3194129
vn -0.35113025 -0.14544375 -0.92496145
vn -0.26874462 -0.2687438 -0.9249611
vn 1.1933126E-07 0 -1
vn -0.3800603 0 -0.92496175
vn 1.1933126E-07 0 -1
vn 0.26874527 0.26874417 -0.92496085
vn 1.1933126E-07 0 -1
vn 0.35113177 0.14544392 -0.92496085
vn 1.1933126E-07 0 -1
vn 0.38006255 0 -0.9249608
vn 1.1933126E-07 0 -1
vn 0.35113215 -0.14544424 -0.9249607
vn 0.38006255 0 -0.9249608
vn 1.1933126E-07 0 -1
vn 0.26874572 -0.26874498 -0.92496043
vn 1.1933126E-07 0 -1
vn 0.14544465 -0.3511315 -0.92496085
vn 0.26874572 -0.26874498 -0.92496043
vn 1.1933126E-07 0 -1
vn 4.1315369E-07 -0.3800618 -0.9249611
vn 1.1933126E-07 0 -1
vn -0.14544396 -0.3511309 -0.92496115
vn 4.1315369E-07 -0.3800618 -0.9249611
vn 1.1933126E-07 0 -1
vn -0.26874462 -0.2687438 -0.9249611
vn -0.35113 0.14544374 -0.92496157
vn -0.3800603 0 -0.92496175
vn 1.1933126E-07 0 -1
vn -0.2687438 0.26874414 -0.92496127
vn 1.1933126E-07 0 -1
vn -0.14544322 0.3511313 -0.9249611
vn -0.2687438 0.26874414 -0.92496127
vn 1.1933126E-07 0 -1
vn 2.6328416E-07 0.3800617 -0.9249611
vn 1.1933126E-07 0 -1
vn 0.14544441 0.35113093 -0.9249611
vn 2.6328416E-07 0.3800617 -0.9249611
vn 1.1933126E-07 0 -1
vn 0.26874527 0.26874417 -0.92496085
vn 1.1933126E-07 0 -1
g mesh_horn_solid_0
f 3/3/3 2/2/2 1/1/1
f 5/5/5 4/4/4 3/3/3
f 4/4/4 2/2/2 6/6/6
f 9/9/9 8/8/8 7/7/7
f 12/12/12 11/11/11 10/10/10
f 10/10/10 14/14/14 13/13/13
f 15/15/15 14/14/14 10/10/10
f 10/10/10 17/17/17 16/16/16
f 20/20/20 19/19/19 18/18/18
f 22/22/22 21/21/21 18/18/18
f 22/22/22 20/20/20 23/23/23
f 26/26/26 25/25/25 24/24/24
f 29/29/29 28/28/28 27/27/27
f 31/31/31 30/30/30 28/28/28
f 32/32/32 29/29/29 31/31/31
f 35/35/35 34/34/34 33/33/33
f 38/38/38 37/37/37 36/36/36
f 40/40/40 39/39/39 38/38/38
f 41/41/41 40/40/40 37/37/37
f 44/44/44 43/43/43 42/42/42
f 47/47/47 46/46/46 45/45/45
f 49/49/49 48/48/48 46/46/46
f 50/50/50 47/47/47 49/49/49
f 53/53/53 52/52/52 51/51/51
f 56/56/56 55/55/55 54/54/54
f 55/55/55 58/58/58 57/57/57
f 59/59/59 54/54/54 58/58/58
f 62/62/62 61/61/61 60/60/60
f 65/65/65 64/64/64 63/63/63
f 68/68/68 67/67/67 66/66/66
f 70/70/70 68/68/68 69/69/69
f 69/69/69 71/71/71 67/67/67
f 74/74/74 73/73/73 72/72/72
f 72/72/72 73/73/73 75/75/75
f 77/77/77 73/73/73 76/76/76
f 78/78/78 73/73/73 77/77/77
f 80/80/80 73/73/73 79/79/79
f 81/81/81 73/73/73 80/80/80
f 83/83/83 73/73/73 82/82/82
f 84/84/84 73/73/73 83/83/83
f 87/87/87 86/86/86 85/85/85
f 88/88/88 86/86/86 87/87/87
f 90/90/90 86/86/86 89/89/89
f 91/91/91 86/86/86 90/90/90
f 93/93/93 86/86/86 92/92/92
f 94/94/94 86/86/86 93/93/93
f 96/96/96 86/86/86 95/95/95
f 97/97/97 86/86/86 96/96/96
f 100/100/100 99/99/99 98/98/98
f 102/102/102 98/98/98 101/101/101
f 105/105/105 104/104/104 103/103/103
f 105/105/105 107/107/107 106/106/106
f 110/110/110 109/109/109 108/108/108
f 109/109/109 112/112/112 111/111/111
f 115/115/115 114/114/114 113/113/113
f 114/114/114 117/117/117 116/116/116
f 120/120/120 119/119/119 118/118/118
f 119/119/119 122/122/122 121/121/121
f 125/125/125 124/124/124 123/123/123
f 127/127/127 123/123/123 126/126/126
f 130/130/130 129/129/129 128/128/128
f 132/132/132 128/128/128 131/131/131
f 135/135/135 134/134/134 133/133/133
f 137/137/137 133/133/133 136/136/136
