g mesh_slash
v -0.22401723 0.17950375 0
v -0.19226582 0.15809841 0.010664425
v -0.219293 0.10801 0.010664425
v -0.27671704 0.09680309 0
v -0.15743835 0.19350123 0.010664405
v -0.17705156 0.22514877 0
v -0.11637334 0.22142929 0.010664358
v -0.13041808 0.25351626 0
v -0.07064887 0.24080932 0.010664358
v -0.07914656 0.27224103 0
v -0.02520701 0.28060347 0
v -0.022022119 0.25089657 0.010664362
v 0.029327411 0.27828205 0
v 0.027638199 0.2513034 0.010664374
v 0.082361065 0.26536614 -4.7683715E-09
v 0.07642369 0.24201417 0.010664362
v 0.13185598 0.24235205 0
v 0.12245952 0.22338584 0.010664358
v 0.17591 0.21012409 0
v 0.16397661 0.1961343 0.010664377
v 0.19937941 0.16130681 0.010664425
v 0.21283025 0.16992098 0
v 0.22730748 0.12024176 0.010664425
v 0.24119781 0.12328759 0
v 0.24668752 0.07451727 0.010664425
v 0.25992274 0.07201593 0
v 0.25677478 0.025890507 0.010664425
v 0.2682848 0.018076507 0
v 0.25718158 -0.023769826 0.010664425
v 0.26596367 -0.036457967 0
v 0.24789234 -0.07255533 0.010664425
v 0.2530475 -0.089491636 0
v 0.13890971 0.16602008 9.536743E-09
v 0.1051145 0.1840839 0
v 0.06844449 0.19520757 -2.3841857E-09
v 0.030308997 0.19896372 0
v -0.007826498 0.19520757 0
v -0.044496424 0.18408383 0
v -0.07829173 0.16601998 0
v -0.10791343 0.14171006 0
v -0.12643422 0.12210662 0
v -0.1405716 0.09816408 0
v 0.16853155 0.14171024 -9.536743E-09
v 0.19284146 0.11208849 9.536743E-09
v 0.21090528 0.07829317 9.536743E-09
v 0.222029 0.041623216 0
v 0.22578514 0.0034877227 0
v 0.22202905 -0.034647767 0
v -0.22401723 0.17950375 0
v -0.27671704 0.09680309 0
v -0.21906228 0.108065695 -0.010664425
v -0.19226582 0.15809841 -0.010664425
v -0.15743837 0.19350123 -0.010664405
v -0.17705156 0.22514877 0
v -0.11637334 0.22142929 -0.010664358
v -0.13041808 0.25351626 0
v -0.070648864 0.24080932 -0.010664358
v -0.07914656 0.27224103 0
v -0.02520701 0.28060347 0
v -0.022022119 0.25089657 -0.010664358
v 0.029327411 0.27828205 0
v 0.027638197 0.2513034 -0.010664377
v 0.082361065 0.26536614 -4.7683715E-09
v 0.07642369 0.24201417 -0.010664362
v 0.13185598 0.24235205 0
v 0.12245952 0.22338584 -0.010664358
v 0.17591 0.21012409 0
v 0.16397661 0.1961343 -0.0106643485
v 0.19937941 0.16130681 -0.010664425
v 0.21283025 0.16992098 0
v 0.22730748 0.12024176 -0.010664425
v 0.24119781 0.12328759 0
v 0.24668752 0.07451727 -0.010664425
v 0.25992274 0.07201593 0
v 0.25677478 0.025890507 -0.010664425
v 0.2682848 0.018076507 0
v 0.25718158 -0.023769826 -0.010664425
v 0.26596367 -0.036457967 0
v 0.24789234 -0.07255533 -0.010664425
v 0.2530475 -0.089491636 0
v 0.13890971 0.16602008 9.536743E-09
v 0.1051145 0.1840839 0
v 0.06844449 0.19520757 -2.3841857E-09
v 0.030308997 0.19896372 0
v -0.007826498 0.19520757 0
v -0.044496424 0.18408383 0
v -0.07829173 0.16601998 0
v -0.10791343 0.14171006 0
v -0.12643422 0.12210662 0
v -0.1405716 0.09816408 0
v 0.16853155 0.14171024 -9.536743E-09
v 0.19284146 0.11208849 9.536743E-09
v 0.21090528 0.07829317 9.536743E-09
v 0.222029 0.041623216 0
v 0.22578514 0.0034877227 0
v 0.22202905 -0.034647767 0
vt 0.14465815 0.9447453
vt 0.14999664 0.7348839
vt 0.06848639 0.7348839
vt 0.026302576 0.9447453
vt 0.20833093 0.7348839
vt 0.20388216 0.9447453
vt 0.26666528 0.7348839
vt 0.2631063 0.9447453
vt 0.32499963 0.7348839
vt 0.3223304 0.9447453
vt 0.38155445 0.9447453
vt 0.38333392 0.7348839
vt 0.44077855 0.9447453
vt 0.4416683 0.7348839
vt 0.5000027 0.9447453
vt 0.5000027 0.7348839
vt 0.55922675 0.9447453
vt 0.558337 0.7348839
vt 0.6184509 0.9447453
vt 0.6166714 0.7348839
vt 0.6750057 0.7348839
vt 0.67767495 0.9447453
vt 0.73334 0.7348839
vt 0.736899 0.9447453
vt 0.79167426 0.7348839
vt 0.796123 0.9447453
vt 0.8500087 0.7348839
vt 0.8553472 0.9447453
vt 0.9083428 0.7348839
vt 0.91457105 0.9447453
vt 0.96667755 0.7348839
vt 0.97379553 0.9447453
vt 0.6148919 0.011863798
vt 0.55744725 0.011863798
vt 0.5000027 0.011863798
vt 0.44255805 0.011863798
vt 0.38511345 0.011863798
vt 0.3276689 0.011863798
vt 0.2702243 0.011863798
vt 0.21277967 0.011863798
vt 0.15533516 0.011863798
vt 0.075068176 0.011863798
vt 0.6723364 0.011863798
vt 0.729781 0.011863798
vt 0.78722554 0.011863798
vt 0.8446702 0.011863798
vt 0.9021145 0.011863798
vt 0.9595595 0.011863798
vt 0.14465815 0.9447453
vt 0.026302576 0.9447453
vt 0.06848639 0.7348839
vt 0.14999664 0.7348839
vt 0.20833093 0.7348839
vt 0.20388216 0.9447453
vt 0.26666528 0.7348839
vt 0.2631063 0.9447453
vt 0.32499963 0.7348839
vt 0.3223304 0.9447453
vt 0.38155445 0.9447453
vt 0.38333392 0.7348839
vt 0.44077855 0.9447453
vt 0.4416683 0.7348839
vt 0.5000027 0.9447453
vt 0.5000027 0.7348839
vt 0.55922675 0.9447453
vt 0.558337 0.7348839
vt 0.6184509 0.9447453
vt 0.6166714 0.7348839
vt 0.6750057 0.7348839
vt 0.67767495 0.9447453
vt 0.73334 0.7348839
vt 0.736899 0.9447453
vt 0.79167426 0.7348839
vt 0.796123 0.9447453
vt 0.8500087 0.7348839
vt 0.8553472 0.9447453
vt 0.9083428 0.7348839
vt 0.91457105 0.9447453
vt 0.96667755 0.7348839
vt 0.97379553 0.9447453
vt 0.6148919 0.011863798
vt 0.55744725 0.011863798
vt 0.5000027 0.011863798
vt 0.44255805 0.011863798
vt 0.38511345 0.011863798
vt 0.3276689 0.011863798
vt 0.2702243 0.011863798
vt 0.21277967 0.011863798
vt 0.15533516 0.011863798
vt 0.075068176 0.011863798
vt 0.6723364 0.011863798
vt 0.729781 0.011863798
vt 0.78722554 0.011863798
vt 0.8446702 0.011863798
vt 0.9021145 0.011863798
vt 0.9595595 0.011863798
vn -0.20607011 0.16367486 0.9647516
vn -0.046615984 0.0398612 0.9981172
vn -0.047125325 0.031103421 0.9984046
vn -0.21655342 0.13001938 0.9675741
vn -0.03924857 0.05429432 0.99775326
vn -0.17463839 0.21845117 0.960094
vn -0.02668594 0.064202935 0.99758
vn -0.13214268 0.26038632 0.956419
vn -0.0143115865 0.072349556 0.9972766
vn -0.08392707 0.3001646 0.9501881
vn -0.025475813 0.33589983 0.9415531
vn 0.00021633806 0.07969311 0.99681944
vn 0.044516955 0.3655707 0.92971843
vn 0.017426897 0.08602679 0.9961404
vn 0.12707447 0.3861191 0.91365427
vn 0.03800125 0.09090418 0.99513435
vn 0.22229594 0.39321482 0.8921696
vn 0.062693074 0.09347278 0.993646
vn 0.32831076 0.38128245 0.86419654
vn 0.09206817 0.09227018 0.9914684
vn 0.12595628 0.08511125 0.98837805
vn 0.4399631 0.34419718 0.829434
vn 0.16263196 0.069336385 0.98424757
vn 0.54785913 0.2770439 0.789365
vn 0.19810785 0.04272111 0.9792488
vn 0.6389241 0.17876062 0.74821156
vn 0.22628884 0.0049803113 0.9740475
vn 0.6991842 0.054402724 0.71286875
vn 0.24055153 -0.040927544 0.9697731
vn 0.7178205 -0.08465847 0.691062
vn 0.24333066 -0.06526019 0.9677455
vn 0.7138896 -0.15568966 0.6827315
vn -0.15815485 -0.21068443 0.9646756
vn -0.10461136 -0.21768948 0.9703957
vn -0.05486452 -0.21331981 0.9754407
vn -0.011097325 -0.20051055 0.97962874
vn 0.025881546 -0.18191776 0.98297304
vn 0.05612096 -0.15964292 0.9855783
vn 0.08010565 -0.13521025 0.98757344
vn 0.097923964 -0.112337016 0.98883325
vn 0.114717744 -0.08556528 0.9897063
vn 0.12416142 -0.06903927 0.9898573
vn -0.21152827 -0.1897618 0.9587733
vn -0.25906405 -0.15383503 0.95353055
vn -0.29434413 -0.104367256 0.94998366
vn -0.31197023 -0.045797694 0.9489874
vn -0.30941588 0.015250558 0.9508045
vn -0.30286416 0.045454495 0.9519492
vn -0.2058826 0.16340183 -0.9648379
vn -0.21617547 0.12947115 -0.9677321
vn -0.046810303 0.030926896 -0.99842495
vn -0.04645828 0.03977261 -0.9981281
vn -0.03924859 0.054294325 -0.99775326
vn -0.17463839 0.21845116 -0.960094
vn -0.02668592 0.06420291 -0.99758
vn -0.13214262 0.26038632 -0.95641905
vn -0.014311555 0.072349556 -0.9972766
vn -0.08392702 0.30016458 -0.95018816
vn -0.025475841 0.33589968 -0.9415532
vn 0.00021631441 0.079693004 -0.99681944
vn 0.04451689 0.36557055 -0.92971843
vn 0.017426843 0.086026706 -0.9961404
vn 0.1270745 0.38611916 -0.91365427
vn 0.03800129 0.09090427 -0.99513435
vn 0.22229591 0.39321458 -0.8921697
vn 0.06269322 0.09347259 -0.993646
vn 0.32831055 0.38128203 -0.86419684
vn 0.09206808 0.09227012 -0.9914685
vn 0.12595612 0.08511128 -0.98837805
vn 0.4399629 0.34419692 -0.8294342
vn 0.16263184 0.06933621 -0.98424757
vn 0.54785913 0.27704385 -0.789365
vn 0.19810766 0.042721085 -0.9792488
vn 0.6389241 0.17876062 -0.74821156
vn 0.2262888 0.004980352 -0.97404754
vn 0.6991842 0.054402724 -0.71286875
vn 0.24055153 -0.040927544 -0.9697731
vn 0.7178205 -0.08465847 -0.691062
vn 0.24333066 -0.06526019 -0.9677455
vn 0.7138896 -0.15568966 -0.6827315
vn -0.15815471 -0.21068412 -0.9646757
vn -0.10461108 -0.21768957 -0.9703957
vn -0.054864474 -0.21331972 -0.97544074
vn -0.011097367 -0.20051056 -0.9796287
vn 0.025881525 -0.18191776 -0.98297304
vn 0.056120973 -0.15964289 -0.9855783
vn 0.08010565 -0.13521025 -0.98757344
vn 0.097923964 -0.112337016 -0.98883325
vn 0.11483551 -0.08546283 -0.9897014
vn 0.124396294 -0.06883397 -0.9898421
vn -0.21152832 -0.18976147 -0.9587733
vn -0.25906426 -0.15383533 -0.95353055
vn -0.29434448 -0.10436731 -0.9499836
vn -0.31197032 -0.045797635 -0.9489874
vn -0.3094159 0.015250561 -0.9508045
vn -0.30286416 0.045454495 -0.9519492
g mesh_slash_0
f 3/3/3 2/2/2 1/1/1
f 1/1/1 4/4/4 3/3/3
f 1/1/1 2/2/2 5/5/5
f 5/5/5 6/6/6 1/1/1
f 6/6/6 5/5/5 7/7/7
f 7/7/7 8/8/8 6/6/6
f 9/9/9 8/8/8 7/7/7
f 9/9/9 10/10/10 8/8/8
f 11/11/11 10/10/10 9/9/9
f 9/9/9 12/12/12 11/11/11
f 13/13/13 11/11/11 12/12/12
f 12/12/12 14/14/14 13/13/13
f 15/15/15 13/13/13 14/14/14
f 14/14/14 16/16/16 15/15/15
f 17/17/17 15/15/15 16/16/16
f 16/16/16 18/18/18 17/17/17
f 19/19/19 17/17/17 18/18/18
f 18/18/18 20/20/20 19/19/19
f 19/19/19 20/20/20 21/21/21
f 21/21/21 22/22/22 19/19/19
f 22/22/22 21/21/21 23/23/23
f 23/23/23 24/24/24 22/22/22
f 24/24/24 23/23/23 25/25/25
f 25/25/25 26/26/26 24/24/24
f 27/27/27 26/26/26 25/25/25
f 26/26/26 27/27/27 28/28/28
f 29/29/29 28/28/28 27/27/27
f 29/29/29 30/30/30 28/28/28
f 31/31/31 30/30/30 29/29/29
f 30/30/30 31/31/31 32/32/32
f 20/20/20 18/18/18 33/33/33
f 18/18/18 34/34/34 33/33/33
f 35/35/35 34/34/34 18/18/18
f 18/18/18 16/16/16 35/35/35
f 36/36/36 35/35/35 16/16/16
f 16/16/16 14/14/14 36/36/36
f 37/37/37 36/36/36 14/14/14
f 14/14/14 12/12/12 37/37/37
f 38/38/38 37/37/37 12/12/12
f 12/12/12 9/9/9 38/38/38
f 39/39/39 38/38/38 9/9/9
f 9/9/9 7/7/7 39/39/39
f 40/40/40 39/39/39 7/7/7
f 7/7/7 5/5/5 40/40/40
f 41/41/41 40/40/40 5/5/5
f 5/5/5 2/2/2 41/41/41
f 42/42/42 41/41/41 2/2/2
f 2/2/2 3/3/3 42/42/42
f 43/43/43 21/21/21 20/20/20
f 20/20/20 33/33/33 43/43/43
f 21/21/21 43/43/43 44/44/44
f 44/44/44 23/23/23 21/21/21
f 23/23/23 44/44/44 45/45/45
f 45/45/45 25/25/25 23/23/23
f 46/46/46 25/25/25 45/45/45
f 25/25/25 46/46/46 27/27/27
f 47/47/47 27/27/27 46/46/46
f 27/27/27 47/47/47 29/29/29
f 47/47/47 48/48/48 29/29/29
f 29/29/29 48/48/48 31/31/31
f 51/51/51 50/50/50 49/49/49
f 49/49/49 52/52/52 51/51/51
f 53/53/53 52/52/52 49/49/49
f 49/49/49 54/54/54 53/53/53
f 55/55/55 53/53/53 54/54/54
f 54/54/54 56/56/56 55/55/55
f 57/57/57 55/55/55 56/56/56
f 56/56/56 58/58/58 57/57/57
f 57/57/57 58/58/58 59/59/59
f 59/59/59 60/60/60 57/57/57
f 60/60/60 59/59/59 61/61/61
f 61/61/61 62/62/62 60/60/60
f 62/62/62 61/61/61 63/63/63
f 63/63/63 64/64/64 62/62/62
f 64/64/64 63/63/63 65/65/65
f 65/65/65 66/66/66 64/64/64
f 66/66/66 65/65/65 67/67/67
f 67/67/67 68/68/68 66/66/66
f 69/69/69 68/68/68 67/67/67
f 70/70/70 69/69/69 67/67/67
f 71/71/71 69/69/69 70/70/70
f 72/72/72 71/71/71 70/70/70
f 73/73/73 71/71/71 72/72/72
f 72/72/72 74/74/74 73/73/73
f 75/75/75 73/73/73 74/74/74
f 74/74/74 76/76/76 75/75/75
f 77/77/77 75/75/75 76/76/76
f 78/78/78 77/77/77 76/76/76
f 79/79/79 77/77/77 78/78/78
f 80/80/80 79/79/79 78/78/78
f 68/68/68 81/81/81 66/66/66
f 66/66/66 81/81/81 82/82/82
f 66/66/66 82/82/82 83/83/83
f 83/83/83 64/64/64 66/66/66
f 64/64/64 83/83/83 84/84/84
f 84/84/84 62/62/62 64/64/64
f 62/62/62 84/84/84 85/85/85
f 85/85/85 60/60/60 62/62/62
f 60/60/60 85/85/85 86/86/86
f 86/86/86 57/57/57 60/60/60
f 57/57/57 86/86/86 87/87/87
f 87/87/87 55/55/55 57/57/57
f 55/55/55 87/87/87 88/88/88
f 88/88/88 53/53/53 55/55/55
f 53/53/53 88/88/88 89/89/89
f 89/89/89 52/52/52 53/53/53
f 52/52/52 89/89/89 90/90/90
f 90/90/90 51/51/51 52/52/52
f 69/69/69 91/91/91 68/68/68
f 91/91/91 81/81/81 68/68/68
f 92/92/92 91/91/91 69/69/69
f 92/92/92 69/69/69 71/71/71
f 93/93/93 92/92/92 71/71/71
f 71/71/71 73/73/73 93/93/93
f 94/94/94 93/93/93 73/73/73
f 73/73/73 75/75/75 94/94/94
f 94/94/94 75/75/75 95/95/95
f 77/77/77 95/95/95 75/75/75
f 95/95/95 77/77/77 96/96/96
f 79/79/79 96/96/96 77/77/77
