g mesh_moon
v 0.8974041 0.37171644 -4.1268812E-17
v 0.952679 0.18949917 -2.1038634E-17
v 0.7543651 0.22883372 0.26464033
v 0.6093716 0.5000978 0.26464033
v 0.8076425 0.53964895 -5.991307E-17
v 0.68684363 0.6868429 -7.625488E-17
v 0.5396497 0.80764204 -8.9666286E-17
v 0.37160677 0.69522667 0.26464033
v 0.37171736 0.89740384 -9.9631834E-17
v 0.18950008 0.95267904 -1.0576862E-16
v 0.07726818 0.7845135 0.26464033
v 4.3422466E-07 0.9713432 -1.0784076E-16
v -0.22883382 0.7543652 0.26464033
v -0.18949924 0.9526792 -1.0576863E-16
v -0.37171656 0.8974043 -9.963189E-17
v -0.50009805 0.60937166 0.26464033
v -0.53964907 0.80764264 -8.9666345E-17
v -0.68684316 0.6868437 -7.625497E-17
v -0.8076423 0.5396498 -5.991316E-17
v -0.6952269 0.37160683 0.26464033
v -0.89740413 0.37171736 -4.1268918E-17
v -0.9526793 0.18950002 -2.1038732E-17
v -0.7845137 0.07726811 0.26464033
v -0.9713435 3.184314E-07 -3.5352988E-23
v -0.7543655 -0.22883399 0.26464033
v -0.9526795 -0.18949944 2.1038664E-17
v -0.8974046 -0.37171683 4.1268858E-17
v -0.60937184 -0.5000982 0.26464033
v -0.8076429 -0.53964937 5.9913115E-17
v -0.6868439 -0.68684345 7.6254955E-17
v -0.53964984 -0.80764264 8.9666345E-17
v -0.37160683 -0.6952271 0.26464033
v -0.37171733 -0.89740455 9.963192E-17
v -0.18949993 -0.95267963 1.057687E-16
v -0.07726802 -0.7845139 0.26464033
v -1.592157E-07 -0.9713438 1.0784083E-16
v 0.2288342 -0.7543657 0.26464033
v 0.18949966 -0.9526798 1.057687E-16
v 0.3717171 -0.89740485 9.963196E-17
v 0.50009847 -0.60937196 0.26464033
v 0.53964967 -0.80764306 8.96664E-17
v 0.6868439 -0.686844 7.625502E-17
v 0.80764294 -0.5396499 5.9913175E-17
v 0.69522744 -0.37160686 0.26464033
v 0.89740485 -0.3717173 4.126891E-17
v 0.95267993 -0.18949983 2.1038707E-17
v 0.78451425 -0.07726791 0.26464033
v 0.9713441 0 0
v 0.1710318 -0.3199781 0.44870245
v -0.10532093 -0.34719634 0.44870245
v -0.31997797 -0.17103168 0.44870245
v -0.3471962 0.105320945 0.44870245
v -0.17103156 0.31997788 0.44870245
v 0.10532091 0.34719184 0.44870245
v 0.31997782 0.17103153 0.44870245
v 0.3471965 -0.1053209 0.44870245
v -0 2.1568172E-16 0.48567206
vt 0.057928383 0.31688714
vt 0.030699193 0.4066496
vt 0.20559898 0.4106975
vt 0.2621844 0.30483538
vt 0.10214612 0.23416159
vt 0.16165325 0.16165212
vt 0.23416287 0.10214514
vt 0.35497466 0.22867817
vt 0.31688842 0.05792743
vt 0.40665093 0.030698359
vt 0.4698434 0.19383526
vt 0.5000008 0.021504313
vt 0.5893029 0.2056081
vt 0.59335065 0.030698538
vt 0.683113 0.057927877
vt 0.6951663 0.26218915
vt 0.7658386 0.10214564
vt 0.83834803 0.16165283
vt 0.89785504 0.23416254
vt 0.7713172 0.35497636
vt 0.94207275 0.31688803
vt 0.96930176 0.40665063
vt 0.80616236 0.4698479
vt 0.97849584 0.50000054
vt 0.7943963 0.5893075
vt 0.96930164 0.5933504
vt 0.9420724 0.68311286
vt 0.73781073 0.6951708
vt 0.89785445 0.76583844
vt 0.8383473 0.8383479
vt 0.76583755 0.89785504
vt 0.6450206 0.77132154
vt 0.68311197 0.94207263
vt 0.5933494 0.96930164
vt 0.53015184 0.8061665
vt 0.4999996 0.9784957
vt 0.41069221 0.7944007
vt 0.4066497 0.9693015
vt 0.31688726 0.9420723
vt 0.30482864 0.73781526
vt 0.23416165 0.89785445
vt 0.16165212 0.8383472
vt 0.10214511 0.7658373
vt 0.2286778 0.6450249
vt 0.05792743 0.6831117
vt 0.03069833 0.5933491
vt 0.19383301 0.53015566
vt 0.021504313 0.49999917
vt 0.43021792 0.63054794
vt 0.54296434 0.64165264
vt 0.6305404 0.56978095
vt 0.6416451 0.45703506
vt 0.5697735 0.3694591
vt 0.45702702 0.35835376
vt 0.36945114 0.43022466
vt 0.35834628 0.542972
vt 0.4999955 0.5000035
vn 0.7552985 0.31168213 0.5765227
vn 0.80116886 0.16046806 0.5765227
vn 0.6374472 0.19429639 0.7455937
vn 0.51569766 0.42207292 0.745594
vn 0.67877614 0.45484564 0.57652277
vn 0.5785291 0.57699704 0.5765227
vn 0.45304543 0.67997897 0.5765227
vn 0.31335506 0.5881306 0.7455944
vn 0.31368402 0.7544694 0.57652265
vn 0.15834278 0.8015916 0.5765228
vn 0.06620346 0.6631033 0.74559444
vn 0.0010833186 0.8170803 0.57652277
vn -0.19429485 0.6374471 0.74559414
vn -0.16046609 0.8011691 0.57652295
vn -0.3116821 0.7552982 0.576523
vn -0.4220727 0.515698 0.74559385
vn -0.4548455 0.6787759 0.576523
vn -0.57699686 0.57852906 0.57652295
vn -0.6799789 0.45304546 0.5765228
vn -0.5881309 0.31335568 0.7455939
vn -0.7544693 0.3136839 0.5765229
vn -0.80159146 0.15834281 0.57652295
vn -0.663104 0.06620302 0.74559385
vn -0.81708026 0.0010833411 0.57652295
vn -0.63744736 -0.19429538 0.7455939
vn -0.80116916 -0.16046588 0.5765229
vn -0.75529844 -0.3116819 0.576523
vn -0.51569784 -0.42207274 0.74559397
vn -0.67877585 -0.45484558 0.576523
vn -0.5785289 -0.576997 0.57652307
vn -0.4530452 -0.67997885 0.57652307
vn -0.3133555 -0.5881309 0.745594
vn -0.31368375 -0.7544691 0.57652307
vn -0.1583426 -0.80159134 0.57652324
vn -0.06620292 -0.6631038 0.7455941
vn -0.0010833335 -0.8170801 0.5765231
vn 0.19429551 -0.6374472 0.745594
vn 0.16046616 -0.8011691 0.57652295
vn 0.31168234 -0.75529826 0.57652295
vn 0.42207268 -0.51569766 0.745594
vn 0.45484558 -0.6787758 0.57652324
vn 0.57699686 -0.5785289 0.5765231
vn 0.6799789 -0.4530452 0.57652307
vn 0.5881309 -0.3133554 0.745594
vn 0.7544691 -0.3136836 0.5765232
vn 0.80159134 -0.15834254 0.5765231
vn 0.66310394 -0.06620197 0.745594
vn 0.8170801 -0.0010815881 0.5765231
vn 0.127047 -0.23768847 0.962997
vn -0.07823531 -0.257907 0.962997
vn -0.23768854 -0.12704703 0.962997
vn -0.257907 0.078235395 0.96299696
vn -0.12704612 0.23768856 0.96299714
vn 0.0782355 0.25790656 0.96299714
vn 0.23768803 0.12704763 0.9629971
vn 0.25790697 -0.0782351 0.962997
vn 1.489782E-07 3.1318217E-07 1
g mesh_moon_0
f 3/3/3 2/2/2 1/1/1
f 4/4/4 3/3/3 1/1/1
f 1/1/1 5/5/5 4/4/4
f 4/4/4 5/5/5 6/6/6
f 4/4/4 6/6/6 7/7/7
f 4/4/4 7/7/7 8/8/8
f 8/8/8 7/7/7 9/9/9
f 8/8/8 9/9/9 10/10/10
f 10/10/10 11/11/11 8/8/8
f 11/11/11 10/10/10 12/12/12
f 13/13/13 11/11/11 12/12/12
f 12/12/12 14/14/14 13/13/13
f 13/13/13 14/14/14 15/15/15
f 16/16/16 13/13/13 15/15/15
f 15/15/15 17/17/17 16/16/16
f 16/16/16 17/17/17 18/18/18
f 16/16/16 18/18/18 19/19/19
f 16/16/16 19/19/19 20/20/20
f 20/20/20 19/19/19 21/21/21
f 20/20/20 21/21/21 22/22/22
f 22/22/22 23/23/23 20/20/20
f 23/23/23 22/22/22 24/24/24
f 25/25/25 23/23/23 24/24/24
f 24/24/24 26/26/26 25/25/25
f 25/25/25 26/26/26 27/27/27
f 28/28/28 25/25/25 27/27/27
f 27/27/27 29/29/29 28/28/28
f 28/28/28 29/29/29 30/30/30
f 28/28/28 30/30/30 31/31/31
f 28/28/28 31/31/31 32/32/32
f 32/32/32 31/31/31 33/33/33
f 32/32/32 33/33/33 34/34/34
f 34/34/34 35/35/35 32/32/32
f 35/35/35 34/34/34 36/36/36
f 37/37/37 35/35/35 36/36/36
f 36/36/36 38/38/38 37/37/37
f 37/37/37 38/38/38 39/39/39
f 40/40/40 37/37/37 39/39/39
f 39/39/39 41/41/41 40/40/40
f 40/40/40 41/41/41 42/42/42
f 40/40/40 42/42/42 43/43/43
f 40/40/40 43/43/43 44/44/44
f 44/44/44 43/43/43 45/45/45
f 44/44/44 45/45/45 46/46/46
f 46/46/46 47/47/47 44/44/44
f 47/47/47 46/46/46 48/48/48
f 3/3/3 47/47/47 48/48/48
f 48/48/48 2/2/2 3/3/3
f 35/35/35 37/37/37 49/49/49
f 49/49/49 37/37/37 40/40/40
f 49/49/49 50/50/50 35/35/35
f 50/50/50 32/32/32 35/35/35
f 28/28/28 32/32/32 50/50/50
f 50/50/50 51/51/51 28/28/28
f 51/51/51 25/25/25 28/28/28
f 23/23/23 25/25/25 51/51/51
f 51/51/51 52/52/52 23/23/23
f 52/52/52 20/20/20 23/23/23
f 16/16/16 20/20/20 52/52/52
f 52/52/52 53/53/53 16/16/16
f 53/53/53 13/13/13 16/16/16
f 11/11/11 13/13/13 53/53/53
f 53/53/53 54/54/54 11/11/11
f 54/54/54 8/8/8 11/11/11
f 8/8/8 54/54/54 55/55/55
f 55/55/55 4/4/4 8/8/8
f 55/55/55 3/3/3 4/4/4
f 3/3/3 55/55/55 56/56/56
f 56/56/56 47/47/47 3/3/3
f 56/56/56 44/44/44 47/47/47
f 40/40/40 44/44/44 56/56/56
f 56/56/56 49/49/49 40/40/40
f 57/57/57 55/55/55 54/54/54
f 57/57/57 54/54/54 53/53/53
f 57/57/57 49/49/49 56/56/56
f 57/57/57 56/56/56 55/55/55
f 57/57/57 53/53/53 52/52/52
f 57/57/57 52/52/52 51/51/51
f 57/57/57 51/51/51 50/50/50
f 57/57/57 50/50/50 49/49/49
