g mesh_vignette
v 2.390874E-08 0.7120754 -6.255412E-17
v 0.713981 0.7120766 -6.135215E-17
v 0.7139804 0.44913593 0.00030003925
v 2.390874E-08 0.44913542 0.00030003925
v 0.7139801 0.18619521 0.0006000785
v 2.390874E-08 0.18619548 0.0006000785
v -0.7139786 0.4491359 0.00030003925
v -0.7139786 0.71207654 -6.135216E-17
v -0.7139792 0.18619521 0.0006000785
v 0.7139804 -0.44913566 0.00030003925
v 0.713981 -0.71207577 6.1352204E-17
v 2.390874E-08 -0.7120766 6.2554144E-17
v 2.390874E-08 -0.4491361 0.00030003925
v 0.7139801 -0.18619548 0.0006000785
v -0.7139786 -0.71207577 6.1352185E-17
v 2.390874E-08 -0.1861956 0.0006000785
v -0.7139786 -0.44913566 0.00030003925
v -0.7139792 -0.18619548 0.0006000785
v 0.7139801 0.18619521 0.0006000785
v 2.390874E-08 0.17214082 0.0006000785
v 2.390874E-08 0.18619548 0.0006000785
v 0.7139801 0.17214057 0.0006000785
v -0.7139792 0.18619521 0.0006000785
v 2.390874E-08 0.18619548 0.0006000785
v 2.390874E-08 0.17214082 0.0006000785
v -0.7139792 0.17214057 0.0006000785
v 2.390874E-08 -0.17214094 0.0006000785
v -0.7139792 -0.18619548 0.0006000785
v -0.7139792 -0.17214082 0.0006000785
v 2.390874E-08 -0.1861956 0.0006000785
v 2.390874E-08 -0.17214094 0.0006000785
v 0.7139801 -0.17214082 0.0006000785
v 0.7139801 -0.18619548 0.0006000785
v 2.390874E-08 -0.1861956 0.0006000785
vt 0.49998602 0.9265174
vt 0.9999961 0.9265174
vt 0.9999961 0.25144178
vt 0.49998602 0.25144172
vt 0.9999961 0.073481716
vt 0.49998602 0.07348171
vt 8.949921E-05 0.25144172
vt 8.9496374E-05 0.9265174
vt 8.9496374E-05 0.07348171
vt 8.9499306E-05 0.25144172
vt 8.9496374E-05 0.9265174
vt 0.49998525 0.9265174
vt 0.49998525 0.25144172
vt 8.9496374E-05 0.07348171
vt 0.9999961 0.9265174
vt 0.49998525 0.07348171
vt 0.9999961 0.25144172
vt 0.9999961 0.07348171
vt 8.9496374E-05 0.07348118
vt 0.9999961 0.9265167
vt 0.9999961 0.07348118
vt 8.9496374E-05 0.9265167
vt 0.9999961 0.07348118
vt 8.9496374E-05 0.07348118
vt 8.9496374E-05 0.9265167
vt 0.9999961 0.9265167
vt 0.9999961 0.9265167
vt 8.9496374E-05 0.07348118
vt 8.9496374E-05 0.9265167
vt 0.9999961 0.07348118
vt 8.9496374E-05 0.9265167
vt 0.9999961 0.9265167
vt 0.9999961 0.07348118
vt 8.9496374E-05 0.07348118
vn -0 0.0011410917 0.9999994
vn -0 0.0011410916 0.9999994
vn -0 0.0011410918 0.9999994
vn -0 0.0011410917 0.9999994
vn -0 0.0011410923 0.9999994
vn -0 0.0011410919 0.9999994
vn -0 0.0011410917 0.9999994
vn -0 0.0011410919 0.9999994
vn -0 0.0011410915 0.9999994
vn -0 -0.0011410919 0.9999994
vn -0 -0.0011410916 0.9999994
vn -0 -0.0011410916 0.9999994
vn -0 -0.0011410917 0.9999994
vn -0 -0.0011410922 0.9999994
vn -0 -0.0011410917 0.9999994
vn -0 -0.0011410917 0.9999994
vn -0 -0.0011410913 0.9999994
vn -0 -0.0011410912 0.9999994
vn -0 0 1
vn -0 0 1
vn -0 0 1
vn -0 0 1
vn -0 0 1
vn -0 0 1
vn -0 0 1
vn -0 0 1
vn -0 0 1
vn -0 0 1
vn -0 0 1
vn -0 0 1
vn -0 0 1
vn -0 0 1
vn -0 0 1
vn -0 0 1
g mesh_vignette_0
f 3/3/3 2/2/2 1/1/1
f 1/1/1 4/4/4 3/3/3
f 5/5/5 3/3/3 4/4/4
f 4/4/4 6/6/6 5/5/5
f 7/7/7 4/4/4 1/1/1
f 6/6/6 4/4/4 7/7/7
f 8/8/8 7/7/7 1/1/1
f 7/7/7 9/9/9 6/6/6
f 12/12/12 11/11/11 10/10/10
f 13/13/13 12/12/12 10/10/10
f 13/13/13 10/10/10 14/14/14
f 15/15/15 12/12/12 13/13/13
f 16/16/16 13/13/13 14/14/14
f 17/17/17 15/15/15 13/13/13
f 17/17/17 13/13/13 16/16/16
f 18/18/18 17/17/17 16/16/16
f 21/21/21 20/20/20 19/19/19
f 20/20/20 22/22/22 19/19/19
f 25/25/25 24/24/24 23/23/23
f 23/23/23 26/26/26 25/25/25
f 29/29/29 28/28/28 27/27/27
f 28/28/28 30/30/30 27/27/27
f 33/33/33 32/32/32 31/31/31
f 31/31/31 34/34/34 33/33/33
