g mesh_ring_smooth
v 0.21167381 -0.004978794 0.042104404
v 0.19939233 -0.00497877 0.08259094
v 0.22519201 0.016101666 0.09327746
v 0.23906253 0.016101679 0.047552373
v 0.17944844 -0.00497877 0.11990348
v 0.20266747 0.016101656 0.13541795
v 0.15260842 -0.004978794 0.15260828
v 0.17235456 0.016101712 0.17235442
v 0.13541816 0.016101742 0.20266737
v 0.11990364 -0.004978794 0.17944832
v 0.08259113 -0.004978794 0.19939224
v 0.09327769 0.016101742 0.22519197
v 0.042104635 -0.004978794 0.21167368
v 0.047552608 0.016101722 0.23906253
v 1.0102037E-07 -0.004978794 0.21582071
v 1.089631E-07 0.016101742 0.24374609
v -0.047552396 0.016101742 0.23906259
v -0.042104416 -0.004978794 0.2116737
v -0.09327749 0.016101722 0.22519207
v -0.08259096 -0.004978794 0.19939227
v -0.135418 0.016101722 0.20266753
v -0.11990348 -0.004978794 0.17944843
v -0.15260828 -0.004978794 0.15260841
v -0.17235446 0.016101712 0.1723546
v -0.17944832 -0.004978782 0.11990375
v -0.20266744 0.016101656 0.13541818
v -0.19939227 -0.004978782 0.082591094
v -0.22519203 0.016101666 0.09327769
v -0.21167374 -0.004978794 0.042104624
v -0.2390626 0.016101679 0.047552593
v -0.21582076 -0.0049787876 5.8866323E-08
v -0.24374616 0.016101686 7.9906265E-08
v -0.23906267 0.016101688 -0.047552448
v -0.21167374 -0.004978782 -0.04210451
v -0.22519214 0.016101656 -0.09327756
v -0.19939233 -0.004978758 -0.08259107
v -0.2026676 0.016101656 -0.13541807
v -0.17944843 -0.00497877 -0.11990363
v -0.17235464 0.016101722 -0.17235455
v -0.15260848 -0.004978794 -0.15260842
v -0.119903766 -0.004978794 -0.17944849
v -0.13541818 0.016101722 -0.20266753
v -0.09327768 0.016101742 -0.22519213
v -0.08259107 -0.004978794 -0.1993924
v -0.042104606 -0.004978794 -0.21167384
v -0.04755257 0.016101742 -0.23906271
v -3.1497976E-08 -0.004978794 -0.21582088
v -3.9953132E-08 0.016101742 -0.24374624
v 0.0475525 0.016101742 -0.23906274
v 0.042104535 -0.004978794 -0.21167389
v 0.093277626 0.016101742 -0.2251922
v 0.082591094 -0.004978794 -0.19939242
v 0.13541815 0.016101742 -0.20266764
v 0.11990364 -0.004978794 -0.17944849
v 0.15260842 -0.004978794 -0.15260848
v 0.17235462 0.016101742 -0.17235467
v 0.20266761 0.016101656 -0.1354182
v 0.17944849 -0.00497877 -0.119903676
v 0.19939242 -0.004978758 -0.082591124
v 0.22519222 0.016101656 -0.09327767
v 0.21167389 -0.004978794 -0.042104565
v 0.23906279 0.016101688 -0.047552545
v 0.21582092 -0.004978792 -1.4240789E-09
v 0.24374631 0.016101686 0
vt 0.4999996 0.84187424
vt 0.43330318 0.8353052
vt 0.40245426 0.9903927
vt 0.4999994 1.0000001
vt 0.36917 0.81585073
vt 0.30865782 0.9619397
vt 0.31006444 0.78425825
vt 0.22221458 0.91573477
vt 0.14644635 0.8535534
vt 0.2582581 0.74174166
vt 0.21574196 0.6899351
vt 0.084264874 0.77778506
vt 0.18414944 0.6308295
vt 0.03806007 0.69134164
vt 0.16469473 0.56669647
vt 0.009607196 0.597545
vt -8.940697E-08 0.49999994
vt 0.1581259 0.49999997
vt 0.009607315 0.40245473
vt 0.164695 0.43330365
vt 0.038060248 0.30865818
vt 0.18414944 0.36917043
vt 0.21574196 0.3100648
vt 0.08426529 0.22221476
vt 0.2582584 0.25825858
vt 0.1464467 0.14644647
vt 0.31006497 0.21574211
vt 0.222215 0.08426511
vt 0.3691705 0.18414974
vt 0.30865842 0.03806019
vt 0.43330377 0.1646949
vt 0.40245497 0.009607375
vt 0.50000024 5.9604645E-08
vt 0.50000024 0.1581262
vt 0.5975454 0.009607434
vt 0.5666967 0.16469517
vt 0.6913419 0.038060427
vt 0.6308299 0.18414974
vt 0.7777853 0.08426547
vt 0.6899353 0.21574211
vt 0.7417415 0.2582587
vt 0.85355353 0.146447
vt 0.9157349 0.22221541
vt 0.7842579 0.3100654
vt 0.8158503 0.3691709
vt 0.9619398 0.3086589
vt 0.8353053 0.43330413
vt 0.9903927 0.40245545
vt 0.9999999 0.50000083
vt 0.841874 0.50000066
vt 0.99039245 0.597546
vt 0.83530486 0.5666971
vt 0.9619396 0.6913426
vt 0.81585014 0.6308303
vt 0.78425777 0.68993586
vt 0.9157345 0.777786
vt 0.85355294 0.85355437
vt 0.7417412 0.7417422
vt 0.6899346 0.7842586
vt 0.7777846 0.9157357
vt 0.6308291 0.815851
vt 0.69134104 0.96194065
vt 0.56669575 0.83530587
vt 0.59754443 0.9903934
vn 0.5909164 -0.79812384 0.11754211
vn 0.5566311 -0.7981242 0.2305637
vn 0.5566311 -0.7981242 0.2305637
vn 0.5909164 -0.79812384 0.11754211
vn 0.5009553 -0.7981239 0.33472702
vn 0.5009553 -0.7981239 0.33472702
vn 0.4260278 -0.7981231 0.42602795
vn 0.4260278 -0.7981231 0.42602795
vn 0.33472782 -0.7981231 0.5009558
vn 0.33472782 -0.7981231 0.5009558
vn 0.23056458 -0.7981238 0.5566313
vn 0.23056458 -0.7981238 0.5566313
vn 0.117541134 -0.798124 0.59091645
vn 0.117541134 -0.798124 0.59091645
vn 1.2501677E-07 -0.7981239 0.60249335
vn 1.2501677E-07 -0.7981239 0.60249335
vn -0.11754041 -0.7981242 0.59091634
vn -0.11754041 -0.7981242 0.59091634
vn -0.23056334 -0.79812425 0.5566311
vn -0.23056334 -0.79812425 0.5566311
vn -0.33472666 -0.79812396 0.50095534
vn -0.33472666 -0.79812396 0.50095534
vn -0.4260268 -0.7981237 0.42602777
vn -0.4260268 -0.7981237 0.42602777
vn -0.50095403 -0.79812455 0.33472708
vn -0.50095403 -0.79812455 0.33472708
vn -0.5566296 -0.79812527 0.23056357
vn -0.5566296 -0.79812527 0.23056357
vn -0.59091526 -0.79812485 0.117540844
vn -0.59091526 -0.79812485 0.117540844
vn -0.60249203 -0.7981249 1.4367598E-07
vn -0.60249203 -0.7981249 1.4367598E-07
vn -0.59091437 -0.7981256 -0.11754006
vn -0.59091437 -0.7981256 -0.11754006
vn -0.55662936 -0.79812574 -0.2305627
vn -0.55662936 -0.79812574 -0.2305627
vn -0.50095457 -0.7981245 -0.33472642
vn -0.50095457 -0.7981245 -0.33472642
vn -0.42602798 -0.7981232 -0.42602766
vn -0.42602798 -0.7981232 -0.42602766
vn -0.3347275 -0.7981231 -0.50095606
vn -0.3347275 -0.7981231 -0.50095606
vn -0.2305641 -0.7981238 -0.55663157
vn -0.2305641 -0.7981238 -0.55663157
vn -0.117541105 -0.79812384 -0.5909167
vn -0.117541105 -0.79812384 -0.5909167
vn -2.4443577E-07 -0.79812366 -0.60249364
vn -2.4443577E-07 -0.79812366 -0.60249364
vn 0.117540486 -0.7981239 -0.5909167
vn 0.117540486 -0.7981239 -0.5909167
vn 0.23056395 -0.79812413 -0.55663115
vn 0.23056395 -0.79812413 -0.55663115
vn 0.33472723 -0.79812366 -0.50095534
vn 0.33472723 -0.79812366 -0.50095534
vn 0.4260269 -0.79812384 -0.42602763
vn 0.4260269 -0.79812384 -0.42602763
vn 0.5009538 -0.79812485 -0.33472672
vn 0.5009538 -0.79812485 -0.33472672
vn 0.5566293 -0.79812557 -0.23056324
vn 0.5566293 -0.79812557 -0.23056324
vn 0.59091485 -0.7981252 -0.1175406
vn 0.59091485 -0.7981252 -0.1175406
vn 0.6024928 -0.7981244 1.2072516E-06
vn 0.6024928 -0.7981244 1.2072516E-06
g mesh_ring_smooth_0
f 3/3/3 2/2/2 1/1/1
f 1/1/1 4/4/4 3/3/3
f 2/2/2 3/3/3 5/5/5
f 3/3/3 6/6/6 5/5/5
f 5/5/5 6/6/6 7/7/7
f 8/8/8 7/7/7 6/6/6
f 7/7/7 8/8/8 9/9/9
f 9/9/9 10/10/10 7/7/7
f 9/9/9 11/11/11 10/10/10
f 12/12/12 11/11/11 9/9/9
f 13/13/13 11/11/11 12/12/12
f 14/14/14 13/13/13 12/12/12
f 15/15/15 13/13/13 14/14/14
f 16/16/16 15/15/15 14/14/14
f 15/15/15 16/16/16 17/17/17
f 17/17/17 18/18/18 15/15/15
f 18/18/18 17/17/17 19/19/19
f 19/19/19 20/20/20 18/18/18
f 20/20/20 19/19/19 21/21/21
f 21/21/21 22/22/22 20/20/20
f 23/23/23 22/22/22 21/21/21
f 21/21/21 24/24/24 23/23/23
f 25/25/25 23/23/23 24/24/24
f 24/24/24 26/26/26 25/25/25
f 25/25/25 26/26/26 27/27/27
f 26/26/26 28/28/28 27/27/27
f 27/27/27 28/28/28 29/29/29
f 30/30/30 29/29/29 28/28/28
f 29/29/29 30/30/30 31/31/31
f 32/32/32 31/31/31 30/30/30
f 31/31/31 32/32/32 33/33/33
f 33/33/33 34/34/34 31/31/31
f 34/34/34 33/33/33 35/35/35
f 35/35/35 36/36/36 34/34/34
f 36/36/36 35/35/35 37/37/37
f 37/37/37 38/38/38 36/36/36
f 38/38/38 37/37/37 39/39/39
f 39/39/39 40/40/40 38/38/38
f 41/41/41 40/40/40 39/39/39
f 39/39/39 42/42/42 41/41/41
f 41/41/41 42/42/42 43/43/43
f 43/43/43 44/44/44 41/41/41
f 45/45/45 44/44/44 43/43/43
f 43/43/43 46/46/46 45/45/45
f 47/47/47 45/45/45 46/46/46
f 46/46/46 48/48/48 47/47/47
f 47/47/47 48/48/48 49/49/49
f 49/49/49 50/50/50 47/47/47
f 50/50/50 49/49/49 51/51/51
f 51/51/51 52/52/52 50/50/50
f 52/52/52 51/51/51 53/53/53
f 53/53/53 54/54/54 52/52/52
f 55/55/55 54/54/54 53/53/53
f 56/56/56 55/55/55 53/53/53
f 55/55/55 56/56/56 57/57/57
f 57/57/57 58/58/58 55/55/55
f 59/59/59 58/58/58 57/57/57
f 57/57/57 60/60/60 59/59/59
f 61/61/61 59/59/59 60/60/60
f 60/60/60 62/62/62 61/61/61
f 63/63/63 61/61/61 62/62/62
f 62/62/62 64/64/64 63/63/63
f 63/63/63 64/64/64 4/4/4
f 4/4/4 1/1/1 63/63/63
