g mesh_backdrop
v -5.6383826E-08 -2.1457671E-09 8.526513E-17
v -0.67962825 -0.96 4.5776368E-08
v -0.6796282 2.1457671E-09 -8.526513E-17
v 0.00084199867 -0.96 4.5776368E-08
v 0.6796282 2.1457671E-09 -8.526513E-17
v 0.67962825 -0.96 4.5776368E-08
v -5.6383826E-08 0.050072595 0.024433931
v 0.67962825 0.050072603 0.024433931
v 0.6796282 2.1457671E-09 -8.526513E-17
v -5.6383826E-08 -2.1457671E-09 8.526513E-17
v -0.6796282 2.1457671E-09 -8.526513E-17
v -0.67962825 0.050072603 0.024433931
v -5.6383826E-08 0.074708015 0.0746125
v 0.67962825 0.07470802 0.07461251
v 0.6796282 0.07474136 1.0398108
v -5.6383826E-08 0.07474136 1.0398108
v -0.6796282 0.07474136 1.0398108
v -0.67962825 0.07470802 0.07461251
vt 0.50000006 0.5351807
vt 0.9999999 0.99999976
vt 0.99999994 0.53518075
vt 0.49938047 0.9999999
vt 5.9604645E-08 0.5351807
vt 0 0.9999999
vt 0.5 0.49571252
vt 5.9604645E-08 0.4957125
vt 5.9604645E-08 0.5351807
vt 0.50000006 0.5351807
vt 0.99999994 0.53518075
vt 0.99999994 0.49571252
vt 0.5 0.45596218
vt 5.9604645E-08 0.45596212
vt 2.9802322E-08 0
vt 0.5 2.9802322E-08
vt 0.9999999 0
vt 0.99999994 0.45596212
vn -0 0 1
vn -0 0 1
vn -0 0 1
vn -0 0 1
vn -0 0 1
vn -0 0 1
vn -0 -0.706255 0.7079575
vn -0 -0.706255 0.7079575
vn -0 -0.4385436 0.8987099
vn -0 -0.4385436 0.8987099
vn -0 -0.4385436 0.8987099
vn -0 -0.70625496 0.70795757
vn -0 -0.97407293 0.22623423
vn -0 -0.97407293 0.22623423
vn -0 -1 3.455218E-05
vn -0 -1 3.454955E-05
vn -0 -1 3.454692E-05
vn -0 -0.97407293 0.22623423
g mesh_backdrop_0
f 3/3/3 2/2/2 1/1/1
f 2/2/2 4/4/4 1/1/1
f 5/5/5 1/1/1 4/4/4
f 4/4/4 6/6/6 5/5/5
f 9/9/9 8/8/8 7/7/7
f 7/7/7 10/10/10 9/9/9
f 11/11/11 10/10/10 7/7/7
f 12/12/12 11/11/11 7/7/7
f 13/13/13 7/7/7 8/8/8
f 12/12/12 7/7/7 13/13/13
f 8/8/8 14/14/14 13/13/13
f 13/13/13 14/14/14 15/15/15
f 16/16/16 13/13/13 15/15/15
f 13/13/13 16/16/16 17/17/17
f 17/17/17 18/18/18 13/13/13
f 18/18/18 12/12/12 13/13/13
