g mesh_water_wave_panning
v -5.429025E-09 0.024870396 -0.111091726
v 0.03639564 0 -0.096138544
v -0.00016019106 0 -0.089665964
v 0.0448466 0.024870396 -0.12366892
v -6.5161445E-09 0.03517204 -0.13596214
v 0.060430977 -4.7683715E-09 -0.07670083
v 0.052531976 0.03517204 -0.14732207
v -7.603264E-09 0.024870396 -0.16083251
v 0.07380464 0.02487039 -0.0943609
v 0.07665431 -4.7683715E-09 -0.05651602
v 0.06021735 0.024870396 -0.17097522
v -8.053563E-09 0 -0.17113416
v 0.06340074 0 -0.18077266
v 0.08842309 0.035172045 -0.11448147
v 0.09259402 0.02487039 -0.06696369
v 0.09634846 -2.3841857E-09 -0.031228125
v 0.103041545 0.024870396 -0.13460205
v 0.1090967 0 -0.14293626
v 0.110155694 0.035172045 -0.07853209
v 0.118122764 0.02487039 -0.03838041
v 0.10781398 -3.5762786E-09 0.0001294355
v 0.13027626 0.02487039 -0.093150534
v 0.13861047 0 -0.0992057
v 0.1417759 0.035172045 -0.04606579
v 0.13149634 0.02487039 0
v 0.09634846 -2.3841857E-09 0.031486996
v 0.16542907 0.02487039 -0.053751163
v 0.17522651 0 -0.056934547
v 0.15636674 0.035172045 0
v 0.118122764 0.02487039 0.03838041
v 0.081934966 -4.7683715E-09 0.059775054
v 0.18123715 0.02487039 0
v 0.19153877 0 0
v 0.1417759 0.03517204 0.04606579
v 0.10048122 0.02487039 0.07300388
v 0.059485428 0 0.082224585
v 0.16542907 0.02487039 0.053751163
v 0.17522651 0 0.056934547
v 0.120601796 0.03517204 0.08762232
v 0.07300388 0.024870386 0.10048122
v 0.030782348 0 0.09354247
v 0.14072236 0.024870386 0.10224078
v 0.14905657 0 0.10829593
v 0.08762232 0.03517204 0.120601796
v 0.037965387 0.024870386 0.11502716
v -0.00016019106 0 0.09165267
v 0.10224078 0.024870396 0.14072236
v 0.10829593 0 0.14905657
v 0.04565076 0.03517204 0.13868031
v -5.4296105E-09 0.024870386 0.10874324
v -0.040759858 0 0.09988529
v 0.053336136 0.024870396 0.16233346
v 0.056519523 0 0.17213091
v -6.5169297E-09 0.035172053 0.13361363
v -0.048754137 0.024870386 0.12176757
v -0.069047906 0 0.0854718
v -7.604249E-09 0.024870396 0.15848404
v -8.053612E-09 0 0.16878566
v -0.05643951 0.035172053 0.14542072
v -0.083377585 0.024870386 0.10412603
v -0.095158935 -4.7683715E-09 0.066240534
v -0.06412489 0.024870396 0.16907386
v -0.06730827 0 0.17887132
v -0.09799604 0.03517204 0.124246605
v -0.11338481 0.024870386 0.07946935
v -0.09666883 -2.3841857E-09 0.031486973
v -0.1126145 0.024870396 0.14436717
v -0.118669644 0 0.15270138
v -0.13350539 0.03517204 0.09408781
v -0.118122764 0.024870388 0.038380384
v -0.105283335 -3.5762786E-09 0.00012940243
v -0.15362597 0.024870386 0.108706266
v -0.16196018 0 0.114761405
v -0.14177592 0.035172045 0.046065755
v -0.12878633 0.02487039 -4.053116E-08
v -0.0914857 -2.3841857E-09 -0.028539466
v -0.16542907 0.02487039 0.053751126
v -0.17522652 0 0.05693451
v -0.15365672 0.035172045 -4.7683713E-08
v -0.108772464 0.02487039 -0.03482115
v -0.08225531 -4.7683715E-09 -0.059516232
v -0.1785271 0.02487039 -5.7220458E-08
v -0.18882877 0 -6.003538E-08
v -0.13241537 0.035172045 -0.042934857
v -0.100481175 0.02487039 -0.07300394
v -0.059805755 0 -0.08196577
v -0.15356395 0.02487039 -0.048936326
v -0.1633614 0 -0.052119717
v -0.120601736 0.035172045 -0.087622404
v -0.07300381 0.02487039 -0.10048126
v -0.031517662 0 -0.09380996
v -0.1407223 0.02487039 -0.10224087
v -0.14905651 0 -0.10829603
v -0.08762225 0.03517204 -0.12060186
v -0.038380314 0.024870396 -0.11812279
v -0.00016019106 0 -0.089665964
v -5.429025E-09 0.024870396 -0.111091726
v -0.10224068 0.024870396 -0.14072244
v -0.108295836 0 -0.14905664
v -0.04606567 0.03517204 -0.14177595
v -6.5161445E-09 0.03517204 -0.13596214
v -0.053751025 0.024870396 -0.16542912
v -0.056934398 0 -0.17522655
v -7.603264E-09 0.024870396 -0.16083251
v -8.053563E-09 0 -0.17113416
vt 1 0.75000006
vt 0.95 1
vt 1 1
vt 0.95 0.75000006
vt 1 0.50000006
vt 0.9 1
vt 0.95000005 0.50000006
vt 1 0.2500001
vt 0.9 0.75
vt 0.84999996 1
vt 0.95000005 0.2500001
vt 1 8.940697E-08
vt 0.95000005 8.940697E-08
vt 0.90000004 0.50000006
vt 0.85 0.75
vt 0.79999995 1
vt 0.90000004 0.2500001
vt 0.90000004 5.9604645E-08
vt 0.85 0.5
vt 0.8 0.75
vt 0.75 1
vt 0.85 0.25000006
vt 0.85 5.9604645E-08
vt 0.8 0.5
vt 0.75 0.75
vt 0.6999999 1
vt 0.8000001 0.25000006
vt 0.8000001 5.9604645E-08
vt 0.75 0.5
vt 0.7 0.75
vt 0.65 1
vt 0.75 0.25000006
vt 0.75000006 5.9604645E-08
vt 0.70000005 0.5
vt 0.65 0.75
vt 0.59999996 1
vt 0.70000005 0.25000003
vt 0.70000005 2.9802322E-08
vt 0.65000004 0.5
vt 0.6 0.75
vt 0.54999995 1
vt 0.65000004 0.25000003
vt 0.6500001 2.9802322E-08
vt 0.6 0.5
vt 0.55 0.75
vt 0.5 1
vt 0.6 0.25000003
vt 0.6 2.9802322E-08
vt 0.5500001 0.5
vt 0.5 0.75
vt 0.45 1
vt 0.5500001 0.25000003
vt 0.5500001 1.4901161E-08
vt 0.5 0.5
vt 0.45 0.75
vt 0.39999998 1
vt 0.50000006 0.25
vt 0.50000006 1.4901161E-08
vt 0.45 0.49999997
vt 0.39999998 0.75
vt 0.35000002 0.99999994
vt 0.45000005 0.25
vt 0.45000005 0
vt 0.39999998 0.49999994
vt 0.35000002 0.74999994
vt 0.3 0.99999994
vt 0.40000004 0.25
vt 0.40000004 -1.4901161E-08
vt 0.35000002 0.49999994
vt 0.3 0.74999994
vt 0.25 0.99999994
vt 0.35000008 0.24999997
vt 0.35000008 -1.4901161E-08
vt 0.3 0.49999994
vt 0.25 0.74999994
vt 0.19999999 0.99999994
vt 0.30000007 0.24999997
vt 0.30000007 -2.9802322E-08
vt 0.25 0.49999994
vt 0.19999999 0.74999994
vt 0.14999998 0.9999999
vt 0.25000006 0.24999997
vt 0.25000006 -2.9802322E-08
vt 0.19999999 0.49999994
vt 0.14999998 0.7499999
vt 0.100000024 0.9999999
vt 0.20000005 0.24999997
vt 0.20000005 -4.4703484E-08
vt 0.14999998 0.49999994
vt 0.100000024 0.7499999
vt 0.050000012 0.9999999
vt 0.15000004 0.24999994
vt 0.15000004 -4.4703484E-08
vt 0.100000024 0.4999999
vt 0.050000012 0.7499999
vt -5.9604645E-08 0.9999999
vt -5.9604645E-08 0.7499999
vt 0.10000008 0.24999994
vt 0.10000008 -5.9604645E-08
vt 0.050000012 0.4999999
vt 5.9604645E-08 0.49999988
vt 0.05000007 0.24999994
vt 0.05000007 -5.9604645E-08
vt 5.9604645E-08 0.24999991
vt 5.9604645E-08 -7.4505806E-08
vn 0.023399053 0.79986244 0.59972703
vn -0.16367985 0.72907794 0.66457075
vn 0.023082063 0.67695165 0.7356655
vn -0.120849974 0.8741603 0.47036064
vn 0.004839185 0.9989907 0.044655073
vn -0.5623761 0.6624561 0.49485853
vn 0.02398362 0.99378717 -0.108682156
vn -0.02934486 0.7108924 -0.70268846
vn -0.44144 0.8127875 0.3801412
vn -0.61155397 0.6291088 0.47981656
vn 0.19613823 0.6702743 -0.7157249
vn -0.0385341 0.36825278 -0.9289268
vn 0.24808769 0.39727354 -0.8835305
vn 0.02394896 0.9995981 -0.015168621
vn -0.49011073 0.78279376 0.38343906
vn -0.6485073 0.655324 0.38728374
vn 0.5469165 0.6831925 -0.48387015
vn 0.6860817 0.37453622 -0.6237103
vn -0.034780588 0.9989483 0.029880343
vn -0.49472755 0.81868845 0.29153675
vn -0.7198914 0.6940864 -0.0007390222
vn 0.56102127 0.7066242 -0.43120462
vn 0.7365389 0.37111375 -0.56549543
vn 0.039885323 0.9986559 -0.033099543
vn -0.5273467 0.84965014 0.0001994876
vn -0.679088 0.6722686 -0.2947784
vn 0.6415635 0.67909306 -0.35669166
vn 0.8152152 0.38030106 -0.43680122
vn 0.07348101 0.99729663 0
vn -0.5258426 0.82065314 -0.22364701
vn -0.59630316 0.67543375 -0.4338339
vn 0.73371273 0.6794598 0
vn 0.92110884 0.38930523 0
vn 0.018604495 0.9998056 0.0065363157
vn -0.45218274 0.8293066 -0.3283008
vn -0.40401345 0.67639107 -0.6158476
vn 0.6700331 0.6928321 0.26653212
vn 0.86104494 0.37880257 0.33927912
vn 0.030918263 0.9992694 0.022463452
vn -0.30772611 0.8327364 -0.46027684
vn -0.08256731 0.6449809 -0.7597251
vn 0.5867181 0.6885135 0.42627573
vn 0.7474343 0.38268313 0.5430429
vn 0.025514867 0.9989421 0.03825804
vn -0.07258215 0.8290098 -0.5545039
vn -0.043851588 0.60054153 -0.79839015
vn 0.41107923 0.6863936 0.59989816
vn 0.52345777 0.38395667 0.7606374
vn 0.004500372 0.99800974 0.06289998
vn -0.036197767 0.7674529 -0.6400826
vn 0.0541268 0.65513104 -0.75357395
vn 0.1253061 0.6797293 0.7226801
vn 0.16898291 0.38408774 0.90770113
vn -0.0046178563 0.99911755 -0.04174647
vn 0.06126913 0.8405854 -0.53820276
vn 0.392593 0.6785174 -0.6208743
vn 0.032893233 0.71015453 0.7032771
vn 0.043377068 0.36857876 0.9285839
vn -0.00044356068 0.9965618 0.082851075
vn 0.30629352 0.82628 -0.4727003
vn 0.6496684 0.6865884 -0.32638532
vn -0.11206602 0.67429256 0.72991145
vn -0.15503837 0.38721502 0.9088606
vn -0.0158801 0.99960035 0.023388164
vn 0.46163604 0.85083175 -0.25095347
vn 0.7408432 0.6579125 -0.13528714
vn -0.40429857 0.6909641 0.59925896
vn -0.5186899 0.3807499 0.7655002
vn -0.07544858 0.9964947 0.036136787
vn 0.5872047 0.80223566 -0.10774343
vn 0.7342787 0.671569 0.09914544
vn -0.63486516 0.67604387 0.37404642
vn -0.78857267 0.38988563 0.47554433
vn 0.012724444 0.9999169 0.0020877551
vn 0.526496 0.8478797 0.062466513
vn 0.73116285 0.62125903 0.28184754
vn -0.69554585 0.7006818 0.15893732
vn -0.9039679 0.37288123 0.20928805
vn -0.09082616 0.9956209 -0.022128
vn 0.58168566 0.7820458 0.22370999
vn 0.6614886 0.65773666 0.36029893
vn -0.7373599 0.66995895 -0.08634411
vn -0.9153784 0.39106905 -0.09564158
vn 0.012317908 0.9998919 0.008028755
vn 0.48063806 0.83420426 0.27035215
vn 0.4185541 0.68503976 0.59626573
vn -0.6678874 0.70177245 -0.24787487
vn -0.8718672 0.3687219 -0.32232246
vn -0.0653441 0.99748516 -0.0274475
vn 0.32128924 0.83270204 0.45097736
vn 0.084520295 0.6919964 0.716936
vn -0.6430139 0.67519504 -0.3614484
vn -0.79964346 0.38665226 -0.45942384
vn -0.022463502 0.9992694 -0.030918412
vn 0.07590379 0.84708583 0.5260079
vn 0.023082063 0.67695165 0.7356655
vn 0.023399053 0.79986244 0.59972703
vn -0.42627525 0.6885135 -0.5867184
vn -0.5430423 0.38268322 -0.7474347
vn -0.006909748 0.9973742 -0.07209116
vn 0.004839185 0.9989907 0.044655073
vn -0.14049543 0.67813754 -0.72138095
vn -0.1868458 0.3867181 -0.90307134
vn -0.02934486 0.7108924 -0.70268846
vn -0.0385341 0.36825278 -0.9289268
g mesh_water_wave_panning_0
f 3/3/3 2/2/2 1/1/1
f 2/2/2 4/4/4 1/1/1
f 1/1/1 4/4/4 5/5/5
f 2/2/2 6/6/6 4/4/4
f 4/4/4 7/7/7 5/5/5
f 5/5/5 7/7/7 8/8/8
f 6/6/6 9/9/9 4/4/4
f 4/4/4 9/9/9 7/7/7
f 6/6/6 10/10/10 9/9/9
f 7/7/7 11/11/11 8/8/8
f 8/8/8 11/11/11 12/12/12
f 11/11/11 13/13/13 12/12/12
f 9/9/9 14/14/14 7/7/7
f 7/7/7 14/14/14 11/11/11
f 10/10/10 15/15/15 9/9/9
f 9/9/9 15/15/15 14/14/14
f 10/10/10 16/16/16 15/15/15
f 11/11/11 17/17/17 13/13/13
f 14/14/14 17/17/17 11/11/11
f 17/17/17 18/18/18 13/13/13
f 15/15/15 19/19/19 14/14/14
f 14/14/14 19/19/19 17/17/17
f 16/16/16 20/20/20 15/15/15
f 15/15/15 20/20/20 19/19/19
f 16/16/16 21/21/21 20/20/20
f 17/17/17 22/22/22 18/18/18
f 19/19/19 22/22/22 17/17/17
f 22/22/22 23/23/23 18/18/18
f 20/20/20 24/24/24 19/19/19
f 19/19/19 24/24/24 22/22/22
f 21/21/21 25/25/25 20/20/20
f 20/20/20 25/25/25 24/24/24
f 21/21/21 26/26/26 25/25/25
f 22/22/22 27/27/27 23/23/23
f 24/24/24 27/27/27 22/22/22
f 27/27/27 28/28/28 23/23/23
f 25/25/25 29/29/29 24/24/24
f 24/24/24 29/29/29 27/27/27
f 26/26/26 30/30/30 25/25/25
f 25/25/25 30/30/30 29/29/29
f 26/26/26 31/31/31 30/30/30
f 27/27/27 32/32/32 28/28/28
f 29/29/29 32/32/32 27/27/27
f 32/32/32 33/33/33 28/28/28
f 30/30/30 34/34/34 29/29/29
f 29/29/29 34/34/34 32/32/32
f 31/31/31 35/35/35 30/30/30
f 30/30/30 35/35/35 34/34/34
f 31/31/31 36/36/36 35/35/35
f 32/32/32 37/37/37 33/33/33
f 34/34/34 37/37/37 32/32/32
f 37/37/37 38/38/38 33/33/33
f 35/35/35 39/39/39 34/34/34
f 34/34/34 39/39/39 37/37/37
f 36/36/36 40/40/40 35/35/35
f 35/35/35 40/40/40 39/39/39
f 36/36/36 41/41/41 40/40/40
f 37/37/37 42/42/42 38/38/38
f 39/39/39 42/42/42 37/37/37
f 42/42/42 43/43/43 38/38/38
f 40/40/40 44/44/44 39/39/39
f 39/39/39 44/44/44 42/42/42
f 41/41/41 45/45/45 40/40/40
f 40/40/40 45/45/45 44/44/44
f 41/41/41 46/46/46 45/45/45
f 42/42/42 47/47/47 43/43/43
f 44/44/44 47/47/47 42/42/42
f 47/47/47 48/48/48 43/43/43
f 45/45/45 49/49/49 44/44/44
f 44/44/44 49/49/49 47/47/47
f 46/46/46 50/50/50 45/45/45
f 45/45/45 50/50/50 49/49/49
f 46/46/46 51/51/51 50/50/50
f 47/47/47 52/52/52 48/48/48
f 49/49/49 52/52/52 47/47/47
f 52/52/52 53/53/53 48/48/48
f 50/50/50 54/54/54 49/49/49
f 49/49/49 54/54/54 52/52/52
f 51/51/51 55/55/55 50/50/50
f 50/50/50 55/55/55 54/54/54
f 51/51/51 56/56/56 55/55/55
f 52/52/52 57/57/57 53/53/53
f 54/54/54 57/57/57 52/52/52
f 57/57/57 58/58/58 53/53/53
f 55/55/55 59/59/59 54/54/54
f 54/54/54 59/59/59 57/57/57
f 56/56/56 60/60/60 55/55/55
f 55/55/55 60/60/60 59/59/59
f 56/56/56 61/61/61 60/60/60
f 57/57/57 62/62/62 58/58/58
f 59/59/59 62/62/62 57/57/57
f 62/62/62 63/63/63 58/58/58
f 60/60/60 64/64/64 59/59/59
f 59/59/59 64/64/64 62/62/62
f 61/61/61 65/65/65 60/60/60
f 60/60/60 65/65/65 64/64/64
f 61/61/61 66/66/66 65/65/65
f 62/62/62 67/67/67 63/63/63
f 64/64/64 67/67/67 62/62/62
f 67/67/67 68/68/68 63/63/63
f 65/65/65 69/69/69 64/64/64
f 64/64/64 69/69/69 67/67/67
f 66/66/66 70/70/70 65/65/65
f 65/65/65 70/70/70 69/69/69
f 66/66/66 71/71/71 70/70/70
f 67/67/67 72/72/72 68/68/68
f 69/69/69 72/72/72 67/67/67
f 72/72/72 73/73/73 68/68/68
f 70/70/70 74/74/74 69/69/69
f 69/69/69 74/74/74 72/72/72
f 71/71/71 75/75/75 70/70/70
f 70/70/70 75/75/75 74/74/74
f 71/71/71 76/76/76 75/75/75
f 72/72/72 77/77/77 73/73/73
f 74/74/74 77/77/77 72/72/72
f 77/77/77 78/78/78 73/73/73
f 75/75/75 79/79/79 74/74/74
f 74/74/74 79/79/79 77/77/77
f 76/76/76 80/80/80 75/75/75
f 75/75/75 80/80/80 79/79/79
f 76/76/76 81/81/81 80/80/80
f 77/77/77 82/82/82 78/78/78
f 79/79/79 82/82/82 77/77/77
f 82/82/82 83/83/83 78/78/78
f 80/80/80 84/84/84 79/79/79
f 79/79/79 84/84/84 82/82/82
f 81/81/81 85/85/85 80/80/80
f 80/80/80 85/85/85 84/84/84
f 81/81/81 86/86/86 85/85/85
f 82/82/82 87/87/87 83/83/83
f 84/84/84 87/87/87 82/82/82
f 87/87/87 88/88/88 83/83/83
f 85/85/85 89/89/89 84/84/84
f 84/84/84 89/89/89 87/87/87
f 86/86/86 90/90/90 85/85/85
f 85/85/85 90/90/90 89/89/89
f 86/86/86 91/91/91 90/90/90
f 87/87/87 92/92/92 88/88/88
f 89/89/89 92/92/92 87/87/87
f 92/92/92 93/93/93 88/88/88
f 90/90/90 94/94/94 89/89/89
f 89/89/89 94/94/94 92/92/92
f 91/91/91 95/95/95 90/90/90
f 90/90/90 95/95/95 94/94/94
f 91/91/91 96/96/96 95/95/95
f 96/96/96 97/97/97 95/95/95
f 92/92/92 98/98/98 93/93/93
f 94/94/94 98/98/98 92/92/92
f 98/98/98 99/99/99 93/93/93
f 95/95/95 100/100/100 94/94/94
f 95/95/95 97/97/97 100/100/100
f 94/94/94 100/100/100 98/98/98
f 97/97/97 101/101/101 100/100/100
f 98/98/98 102/102/102 99/99/99
f 100/100/100 102/102/102 98/98/98
f 100/100/100 101/101/101 102/102/102
f 102/102/102 103/103/103 99/99/99
f 101/101/101 104/104/104 102/102/102
f 102/102/102 104/104/104 103/103/103
f 104/104/104 105/105/105 103/103/103
