g mesh_wrap
v 0.16546877 -0.18940248 -0.3791012
v 0.21797685 -0.1156427 -0.39971727
v 0.21127611 -0.11527857 -0.397859
v 0.1586223 -0.18195336 -0.37588787
v 0.22709826 -0.09294285 -0.40408325
v 0.08362398 -0.22528392 -0.35345775
v 0.08548128 -0.23554079 -0.35613722
v -0.00426939 -0.2360976 -0.3329672
v -0.0078796195 -0.24693334 -0.33505383
v -0.0901016 -0.21087204 -0.31819764
v -0.099158764 -0.22064817 -0.32012743
v -0.15990567 -0.15355991 -0.3047195
v -0.17353094 -0.16101387 -0.306456
v -0.20339261 -0.071600914 -0.28880256
v -0.220165 -0.07491593 -0.29022044
v -0.21356337 0.023858756 -0.2732302
v -0.23131223 0.026588641 -0.27470034
v 0.22292909 -0.11837847 -0.3984447
v 0.08743883 -0.2439484 -0.35278824
v -0.0092346 -0.25619408 -0.33082265
v 0.17039217 -0.19576871 -0.37673354
v -0.10430006 -0.22913186 -0.3146714
v -0.18252279 -0.16672546 -0.2997615
v -0.23151991 -0.07628739 -0.28257117
v -0.24295911 0.029975025 -0.26608524
v -0.18516347 0.118182644 -0.2574706
v -0.20108892 0.1271449 -0.2592242
v -0.12558591 0.19178878 -0.24004473
v -0.13603315 0.20585316 -0.24201815
v -0.04641874 0.24451183 -0.2274465
v -0.042531107 0.22631846 -0.22569788
v 0.06567873 0.22758657 -0.2068239
v 0.07036882 0.24659711 -0.20825805
v 0.16645494 0.18533061 -0.18461998
v 0.17883623 0.20169109 -0.18561575
v 0.25710452 0.11186076 -0.16415086
v 0.2390242 0.10110977 -0.16455999
v 0.29160157 -0.0049772123 -0.14166194
v 0.26979372 -0.007979022 -0.14408918
v 0.27502733 -0.124423064 -0.125354
v 0.2533942 -0.11896411 -0.13069701
v -0.21103697 0.13501707 -0.24968374
v -0.14211316 0.21714683 -0.23159233
v -0.047826517 0.2575819 -0.21600954
v 0.074339315 0.25953844 -0.19569676
v 0.26858675 0.11986397 -0.14908315
v 0.18729158 0.2126987 -0.17176412
v 0.30496493 -0.00076231896 -0.12516896
v 0.28877702 -0.12478157 -0.10734394
v -0.046356335 0.25254297 -0.19464453
v 0.07251589 0.25348923 -0.17366977
v -0.20718595 0.13380407 -0.23016068
v -0.13894163 0.21390194 -0.210985
v -0.23960729 0.03049274 -0.247633
v -0.22894895 -0.07510033 -0.26514176
v -0.18014623 -0.16638327 -0.2835615
v -0.101255774 -0.23004322 -0.2997517
v -0.0056939507 -0.2574742 -0.31716388
v 0.09131624 -0.24502853 -0.34067202
v 0.17475846 -0.1963527 -0.36616516
v 0.22616762 -0.11902916 -0.3938606
v 0.22709826 -0.09294285 -0.40408325
v 0.21127611 -0.11527857 -0.397859
v 0.1586223 -0.18195336 -0.37588787
v 0.22709826 -0.09294285 -0.40408325
v 0.08362398 -0.22528392 -0.35345775
v -0.00426939 -0.2360976 -0.3329672
v -0.0901016 -0.21087204 -0.31819764
v -0.15990567 -0.15355991 -0.3047195
v -0.20339261 -0.071600914 -0.28880256
v -0.21356337 0.023858756 -0.2732302
v -0.18516347 0.118182644 -0.2574706
v -0.12558591 0.19178878 -0.24004473
v -0.042531107 0.22631846 -0.22569788
v 0.06567873 0.22758657 -0.2068239
v 0.16645494 0.18533061 -0.18461998
v 0.18139909 0.20752886 -0.14945821
v 0.25895768 0.11922933 -0.12709515
v 0.29348633 0.0053806626 -0.10420057
v 0.27916214 -0.1119028 -0.08775177
v 0.2390242 0.10110977 -0.16455999
v 0.26979372 -0.007979022 -0.14408918
v 0.2533942 -0.11896411 -0.13069701
v 0.22809145 -0.2030077 -0.0709865
v 0.23408312 -0.2198351 -0.08929923
v 0.22160845 -0.21534029 -0.108804
v 0.14813066 -0.28791925 -0.06962883
v 0.13862322 -0.28000012 -0.090706974
v 0.20289628 -0.20362929 -0.11687481
v 0.12580507 -0.26333106 -0.10168448
v 0.037920702 -0.3109405 -0.07057431
v 0.032845173 -0.29168338 -0.08430414
v -0.067021005 -0.30265427 -0.05135993
v -0.06381376 -0.28416023 -0.067667104
v -0.16218458 -0.25733712 -0.03059196
v -0.1511479 -0.24249671 -0.049216986
v -0.21725287 -0.17229775 -0.027027141
v -0.2339723 -0.18067786 -0.0068316925
v -0.25689 -0.079271294 -0.005044775
v -0.27639684 -0.07952092 0.016172923
v -0.26653546 0.022661988 0.0134468265
v -0.28584173 0.031637777 0.035351973
v 0.04332979 -0.32067257 -0.047892332
v -0.06582808 -0.31224754 -0.027279567
v -0.16474462 -0.26466778 -0.0052380734
v -0.23908025 -0.18449923 0.019491088
v -0.28232884 -0.0794805 0.043233156
v -0.29096058 0.035777986 0.06322472
v -0.24007283 0.12011199 0.035643253
v -0.25535315 0.1375948 0.057675317
v -0.18141393 0.2062564 0.056617334
v -0.1906043 0.22915296 0.078412585
v -0.09003538 0.26250905 0.07852186
v -0.091689125 0.28786942 0.10023827
v 0.024069995 0.2801405 0.10080012
v 0.030604115 0.30542874 0.12205488
v 0.13594072 0.25584173 0.12662183
v 0.15023439 0.27846548 0.14750627
v 0.2303792 0.1927592 0.15109746
v 0.2517644 0.21050572 0.1718592
v 0.29012147 0.10753781 0.18046644
v 0.3099167 0.11469815 0.19640438
v 0.3216217 0.0073482106 0.23422584
v -0.25841543 0.14513758 0.08630253
v -0.19101721 0.23827644 0.10780659
v -0.089356974 0.29694486 0.13035819
v 0.03497179 0.3133826 0.15287492
v 0.15568224 0.28485176 0.17898194
v 0.2577071 0.21574944 0.20377971
v 0.31579486 0.11795618 0.22099717
v -0.07960783 0.270909 0.14556462
v 0.03331621 0.28431112 0.16889782
v -0.17258215 0.21801871 0.1220572
v -0.23477224 0.13228011 0.099963196
v -0.2649365 0.03148925 0.07633363
v -0.25662786 -0.07505117 0.05632232
v -0.21685643 -0.17264354 0.03267101
v -0.14773175 -0.24819082 0.008296491
v -0.054832287 -0.29283163 -0.012747532
v 0.047986317 -0.30026925 -0.03221755
v 0.14705263 -0.26857394 -0.052607507
v -0.25689 -0.079271294 -0.005044775
v -0.21725287 -0.17229775 -0.027027141
v -0.26653546 0.022661988 0.0134468265
v 0.20289628 -0.20362929 -0.11687481
v 0.12580507 -0.26333106 -0.10168448
v 0.032845173 -0.29168338 -0.08430414
v -0.06381376 -0.28416023 -0.067667104
v -0.24007283 0.12011199 0.035643253
v -0.18141393 0.2062564 0.056617334
v -0.09003538 0.26250905 0.07852186
v 0.024069995 0.2801405 0.10080012
v 0.13594072 0.25584173 0.12662183
v 0.14190629 0.2577958 0.19511572
v 0.23231065 0.19555505 0.21974689
v 0.29060563 0.11149359 0.23262025
v 0.2303792 0.1927592 0.15109746
v 0.29012147 0.10753781 0.18046644
v 0.3216217 0.0073482106 0.23422584
v -0.1511479 -0.24249671 -0.049216986
vt 0.9485103 0.16286168
vt 0.9816314 0.16286168
vt 0.9816314 0.005140543
vt 0.9485103 0.0051404834
vt 1.0147525 0.084000975
vt 0.9153891 0.0051403046
vt 0.9153892 0.16286162
vt 0.88226813 0.0051404834
vt 0.8822681 0.16286168
vt 0.84914696 0.005140364
vt 0.84914696 0.16286162
vt 0.8160259 0.0051404834
vt 0.8160258 0.16286165
vt 0.7829046 0.0051404834
vt 0.78290474 0.1628617
vt 0.74978375 0.0051404834
vt 0.74978375 0.16286168
vt 0.9816314 0.3521272
vt 0.9153891 0.35212708
vt 0.8822681 0.35212713
vt 0.9485103 0.35212713
vt 0.84914696 0.3521272
vt 0.81602585 0.3521272
vt 0.78290474 0.35212716
vt 0.74978364 0.35212713
vt 0.7166625 0.0051404834
vt 0.7166626 0.1628617
vt 0.6835415 0.0051404834
vt 0.6835414 0.16286162
vt 0.6504203 0.16286168
vt 0.65042037 0.005140364
vt 0.6172992 0.0051404834
vt 0.61729926 0.16286165
vt 0.58417815 0.0051404834
vt 0.58417815 0.16286168
vt 0.55105704 0.16286165
vt 0.55105704 0.0051404834
vt 0.5179359 0.1628617
vt 0.5179359 0.0051404834
vt 0.48481488 0.16286165
vt 0.48481488 0.0051404834
vt 0.7166625 0.35212722
vt 0.6835414 0.3521272
vt 0.65042037 0.3521272
vt 0.6172993 0.3521272
vt 0.55105704 0.35212713
vt 0.5841781 0.35212716
vt 0.51793593 0.35212716
vt 0.48481482 0.3521272
vt 0.65042037 0.6336714
vt 0.61729926 0.6336714
vt 0.7166625 0.63367134
vt 0.6835415 0.6336714
vt 0.74978364 0.6336714
vt 0.78290474 0.6336714
vt 0.81602585 0.6336714
vt 0.84914696 0.6336714
vt 0.882268 0.63367134
vt 0.9153892 0.63367146
vt 0.9485103 0.63367134
vt 0.9816314 0.63367134
vt 1.0147525 0.6636462
vt 0.9816314 1.0051403
vt 0.9485103 1.0051404
vt 1.0147525 0.6636462
vt 0.9153891 1.0051403
vt 0.8822681 1.0051403
vt 0.84914696 1.0051403
vt 0.81602585 1.0051403
vt 0.7829046 1.0051403
vt 0.7497837 1.0051403
vt 0.7166626 1.0051403
vt 0.6835415 1.0051403
vt 0.65042037 1.0051403
vt 0.6172992 1.0051403
vt 0.584178 1.0051403
vt 0.5841782 0.63367134
vt 0.55105704 0.63367146
vt 0.5179359 0.63367146
vt 0.48481482 0.6336714
vt 0.5510571 1.0051403
vt 0.5179359 1.0051403
vt 0.48481488 1.0051403
vt 0.45543596 0.63367146
vt 0.455436 0.3521272
vt 0.45543596 0.16286168
vt 0.4260571 0.3521272
vt 0.42605707 0.16286168
vt 0.455436 0.0051404834
vt 0.4260571 0.0051404834
vt 0.39667824 0.16286168
vt 0.3966782 0.0051404834
vt 0.36729923 0.16286168
vt 0.36729923 0.0051406026
vt 0.33792034 0.16286168
vt 0.33792037 0.0051404834
vt 0.30854148 0.0051404834
vt 0.30854145 0.16286168
vt 0.27916253 0.0051404834
vt 0.27916268 0.16286168
vt 0.24978378 0.0051406026
vt 0.24978378 0.16286168
vt 0.3966782 0.35212713
vt 0.36729923 0.35212716
vt 0.33792037 0.35212713
vt 0.3085415 0.3521271
vt 0.27916265 0.35212713
vt 0.24978364 0.35212725
vt 0.22040483 0.0051404834
vt 0.22040486 0.16286165
vt 0.19102594 0.0051404834
vt 0.19102585 0.1628617
vt 0.16164705 0.0051404834
vt 0.16164711 0.16286173
vt 0.13226822 0.0051404834
vt 0.1322681 0.1628615
vt 0.10288924 0.0051404834
vt 0.10288933 0.16286173
vt 0.07351035 0.0051404834
vt 0.07351032 0.16286168
vt 0.044131547 0.005140543
vt 0.044131517 0.16286176
vt 0.014752507 0.28845024
vt 0.22040477 0.35212725
vt 0.19102591 0.3521272
vt 0.16164696 0.35212725
vt 0.13226807 0.3521272
vt 0.1028893 0.35212713
vt 0.07351035 0.35212713
vt 0.044131488 0.3521271
vt 0.16164708 0.6336713
vt 0.13226819 0.63367134
vt 0.19102597 0.63367134
vt 0.22040477 0.63367134
vt 0.2497836 0.63367134
vt 0.27916262 0.6336714
vt 0.30854154 0.63367134
vt 0.33792043 0.6336714
vt 0.36729926 0.63367134
vt 0.39667824 0.6336714
vt 0.42605707 0.63367146
vt 0.2791625 1.0051404
vt 0.3085416 1.0051403
vt 0.2497837 1.0051403
vt 0.45543602 1.0051403
vt 0.42605713 1.0051403
vt 0.39667824 1.0051403
vt 0.3672993 1.0051403
vt 0.2204048 1.0051404
vt 0.19102594 1.0051403
vt 0.16164714 1.0051402
vt 0.13226819 1.0051403
vt 0.10288921 1.0051404
vt 0.10288924 0.63367134
vt 0.07351023 0.63367134
vt 0.04413134 0.63367134
vt 0.07351014 1.0051404
vt 0.0441314 1.0051403
vt 0.014752388 1.0051403
vt 0.3379203 1.0051403
vn -0.17997426 -0.1479489 -0.97248155
vn -0.11465909 -0.16329648 -0.9798916
vn -0.314679 -0.045531042 -0.9481055
vn -0.35513973 0.060861547 -0.9328299
vn 0.27968198 -0.119756564 -0.9525946
vn -0.2980554 0.18513902 -0.9364222
vn -0.20956768 -0.10615682 -0.9720145
vn -0.16818936 0.23923491 -0.9562839
vn -0.19821644 -0.08061633 -0.9768374
vn -0.049213942 0.23095663 -0.97171855
vn -0.20467512 -0.06494443 -0.9766731
vn 0.011095773 0.21032695 -0.97756815
vn -0.24784645 -0.008520133 -0.96876186
vn 0.054571554 0.18356413 -0.9814918
vn -0.2667006 0.07873358 -0.96055806
vn 0.10724421 0.14057055 -0.9842452
vn -0.23603415 0.16761789 -0.95717925
vn 0.45740527 -0.38609198 -0.80107015
vn 0.09777991 -0.76744056 -0.6336199
vn -0.1749763 -0.80559605 -0.56603736
vn 0.33053306 -0.6169131 -0.71425915
vn -0.46664295 -0.73310286 -0.49477723
vn -0.7324934 -0.5226096 -0.43627128
vn -0.8910809 -0.20886947 -0.40292472
vn -0.91249573 0.145104 -0.3824872
vn 0.16458559 0.090537794 -0.9821988
vn -0.15656158 0.25717703 -0.9535976
vn 0.18677151 0.014971547 -0.98228925
vn -0.043434773 0.3133424 -0.94864637
vn 0.08399901 0.3220119 -0.94300187
vn 0.17329873 -0.060778454 -0.9829921
vn 0.15942176 -0.11397391 -0.98060936
vn 0.22461373 0.2800619 -0.9333349
vn 0.12931375 -0.14106287 -0.9815188
vn 0.3488151 0.18655902 -0.91843545
vn 0.4407236 0.051953238 -0.89613813
vn 0.114598125 -0.14656559 -0.9825405
vn 0.49542776 -0.10458082 -0.8623307
vn 0.14394775 -0.15037791 -0.9780928
vn 0.48977268 -0.2986461 -0.81910515
vn 0.18063065 -0.21410975 -0.9599633
vn -0.791131 0.49442756 -0.36007378
vn -0.5164424 0.7874998 -0.33635002
vn -0.15019923 0.9400688 -0.3061222
vn 0.22865866 0.9340537 -0.27433333
vn 0.87543356 0.44636622 -0.1854003
vn 0.6021758 0.7625096 -0.23656589
vn 0.9915594 0.06253809 -0.11357346
vn 0.94652 -0.32146493 -0.027573338
vn -0.20632817 0.18996438 0.95986575
vn -0.14061792 0.2328925 0.96228254
vn -0.32324848 -0.0033302493 0.94630826
vn -0.2782208 0.10537336 0.95471966
vn -0.31803018 -0.1202314 0.9404261
vn -0.2625572 -0.24607138 0.9330126
vn -0.1714175 -0.3444337 0.9230284
vn -0.04896901 -0.42468172 0.9040174
vn 0.14312664 -0.48269755 0.8640126
vn 0.37292376 -0.46149448 0.8049538
vn 0.6036692 -0.3357994 0.7230645
vn 0.81211376 -0.047280375 0.5815805
vn 0.27968198 -0.119756564 -0.9525946
vn -0.15299404 0.39193782 0.90718114
vn -0.1002644 0.4735412 0.8750462
vn 0.27968198 -0.119756564 -0.9525946
vn 0.0354273 0.5546992 0.8312964
vn 0.2102311 0.57176685 0.79302305
vn 0.40372106 0.5002614 0.76599467
vn 0.58064294 0.31965816 0.7487806
vn 0.67346334 0.07648949 0.7352526
vn 0.66695607 -0.18253236 0.72239286
vn 0.56248677 -0.4415317 0.699041
vn 0.341579 -0.65768856 0.6713937
vn 0.045878924 -0.7618766 0.64609534
vn -0.26436254 -0.73220456 0.62768537
vn -0.5581498 -0.57118535 0.60184395
vn -0.06056922 0.2420617 0.9683685
vn 0.007898275 0.22200783 0.9750129
vn 0.020936843 0.17434016 0.98446286
vn 0.0039651073 0.16547161 0.9862066
vn -0.7704846 -0.30093125 0.5619554
vn -0.8615041 0.018209573 0.5074241
vn -0.82709545 0.34965128 0.44006497
vn 0.0027277225 0.22594291 0.9741367
vn 0.7642699 -0.64225066 0.058357727
vn 0.39795104 -0.51650304 -0.7581949
vn 0.48837325 -0.8612168 0.1407025
vn 0.21689197 -0.6900179 -0.6905311
vn 0.17273231 -0.35563555 -0.91852427
vn 0.081320986 -0.49923903 -0.86263967
vn -0.032116402 -0.7825344 -0.6217784
vn -0.086650826 -0.5933999 -0.80023015
vn -0.31612858 -0.7674822 -0.55770403
vn -0.3052937 -0.5954179 -0.7431509
vn -0.59229803 -0.6275218 -0.50537056
vn -0.53096765 -0.47651875 -0.70071626
vn -0.6841818 -0.26819986 -0.67820644
vn -0.7911367 -0.38873193 -0.4722184
vn -0.7362727 -0.050057918 -0.6748309
vn -0.8801612 -0.12496867 -0.45792902
vn -0.6933875 0.19399895 -0.69395834
vn -0.86730146 0.17261855 -0.46689504
vn 0.15483032 -0.9628521 0.22123148
vn -0.18870103 -0.9364891 0.29560116
vn -0.48763043 -0.7966376 0.35719064
vn -0.7185495 -0.5683987 0.40076122
vn -0.8572329 -0.29184932 0.4242353
vn -0.90241575 0.00913165 0.43076962
vn -0.5582474 0.4179196 -0.7167309
vn -0.741897 0.46110737 -0.4867944
vn -0.34482357 0.5705217 -0.74538696
vn -0.5062761 0.6898745 -0.5174531
vn -0.08120711 0.64149487 -0.76281697
vn -0.18481722 0.8227807 -0.53747046
vn 0.17243609 0.604819 -0.7774701
vn 0.14010672 0.82418203 -0.5487204
vn 0.38279453 0.4819578 -0.78815293
vn 0.4313115 0.7122887 -0.55372846
vn 0.5387868 0.28318045 -0.79342145
vn 0.67476135 0.48410445 -0.5570817
vn 0.638927 -0.013930129 -0.76914126
vn 0.83293676 0.12281759 -0.53956664
vn 0.957336 -0.28818962 -0.021319164
vn -0.8485068 0.31817204 0.4228508
vn -0.6717049 0.61653435 0.41072854
vn -0.3707345 0.8402711 0.39560118
vn -0.03654054 0.92101645 0.3878061
vn 0.2878921 0.87342006 0.39275378
vn 0.6079568 0.6783438 0.41259933
vn 0.8398054 0.31811664 0.43991888
vn 0.0036838881 -0.5029725 0.8642946
vn -0.19340213 -0.4611282 0.8660003
vn 0.21385822 -0.47006944 0.856329
vn 0.39242908 -0.36920017 0.8424314
vn 0.5025829 -0.20697933 0.8393867
vn 0.5489044 -0.030610105 0.8353244
vn 0.5271465 0.11738004 0.8416285
vn 0.4263909 0.26082698 0.86611784
vn 0.27578598 0.34307685 0.89790887
vn 0.14497523 0.34612894 0.92691797
vn 0.051583078 0.2966197 0.9536016
vn 0.97004175 0.24201493 -0.021160798
vn 0.84081906 0.5413066 -0.0032400438
vn 0.9955365 -0.09300906 -0.016011085
vn -0.66767794 0.6537194 0.35617006
vn -0.40725112 0.87333006 0.26728463
vn -0.07776116 0.9803966 0.18104032
vn 0.27520174 0.9558746 0.10279943
vn 0.90193516 -0.43183756 0.0054064575
vn 0.672527 -0.7390191 0.03947272
vn 0.31530613 -0.9465278 0.06831732
vn -0.060694538 -0.99544317 0.07354638
vn -0.41235885 -0.90856963 0.06679372
vn -0.35759085 -0.36425382 0.85991156
vn -0.44992614 -0.25214735 0.8567311
vn -0.49440584 -0.17067976 0.8523094
vn -0.7096667 -0.70234704 0.05551475
vn -0.9023367 -0.42919847 0.039713968
vn 0.957336 -0.28818962 -0.021319164
vn 0.5988781 0.7998939 0.0389195
g mesh_wrap_0
f 3/3/3 2/2/2 1/1/1
f 1/1/1 4/4/4 3/3/3
f 2/2/2 3/3/3 5/5/5
f 6/6/6 4/4/4 1/1/1
f 1/1/1 7/7/7 6/6/6
f 8/8/8 6/6/6 7/7/7
f 9/9/9 8/8/8 7/7/7
f 10/10/10 8/8/8 9/9/9
f 9/9/9 11/11/11 10/10/10
f 12/12/12 10/10/10 11/11/11
f 11/11/11 13/13/13 12/12/12
f 14/14/14 12/12/12 13/13/13
f 13/13/13 15/15/15 14/14/14
f 16/16/16 14/14/14 15/15/15
f 15/15/15 17/17/17 16/16/16
f 18/18/18 2/2/2 5/5/5
f 9/9/9 7/7/7 19/19/19
f 19/19/19 20/20/20 9/9/9
f 11/11/11 9/9/9 20/20/20
f 21/21/21 19/19/19 7/7/7
f 18/18/18 21/21/21 1/1/1
f 7/7/7 1/1/1 21/21/21
f 1/1/1 2/2/2 18/18/18
f 13/13/13 11/11/11 22/22/22
f 20/20/20 22/22/22 11/11/11
f 22/22/22 23/23/23 13/13/13
f 15/15/15 13/13/13 23/23/23
f 17/17/17 15/15/15 24/24/24
f 23/23/23 24/24/24 15/15/15
f 24/24/24 25/25/25 17/17/17
f 26/26/26 16/16/16 17/17/17
f 17/17/17 27/27/27 26/26/26
f 27/27/27 17/17/17 25/25/25
f 28/28/28 26/26/26 27/27/27
f 27/27/27 29/29/29 28/28/28
f 29/29/29 30/30/30 28/28/28
f 28/28/28 30/30/30 31/31/31
f 31/31/31 30/30/30 32/32/32
f 33/33/33 32/32/32 30/30/30
f 34/34/34 32/32/32 33/33/33
f 33/33/33 35/35/35 34/34/34
f 34/34/34 35/35/35 36/36/36
f 36/36/36 37/37/37 34/34/34
f 37/37/37 36/36/36 38/38/38
f 37/37/37 38/38/38 39/39/39
f 39/39/39 38/38/38 40/40/40
f 40/40/40 41/41/41 39/39/39
f 29/29/29 27/27/27 42/42/42
f 42/42/42 43/43/43 29/29/29
f 30/30/30 29/29/29 43/43/43
f 33/33/33 30/30/30 44/44/44
f 43/43/43 44/44/44 30/30/30
f 44/44/44 45/45/45 33/33/33
f 35/35/35 33/33/33 45/45/45
f 46/46/46 36/36/36 35/35/35
f 35/35/35 47/47/47 46/46/46
f 45/45/45 47/47/47 35/35/35
f 40/40/40 38/38/38 48/48/48
f 48/48/48 36/36/36 46/46/46
f 48/48/48 38/38/38 36/36/36
f 48/48/48 49/49/49 40/40/40
f 45/45/45 44/44/44 50/50/50
f 51/51/51 45/45/45 50/50/50
f 47/47/47 45/45/45 51/51/51
f 43/43/43 42/42/42 52/52/52
f 53/53/53 43/43/43 52/52/52
f 44/44/44 43/43/43 53/53/53
f 53/53/53 50/50/50 44/44/44
f 54/54/54 52/52/52 42/42/42
f 42/42/42 25/25/25 54/54/54
f 25/25/25 42/42/42 27/27/27
f 54/54/54 25/25/25 55/55/55
f 25/25/25 24/24/24 55/55/55
f 56/56/56 55/55/55 24/24/24
f 24/24/24 23/23/23 56/56/56
f 56/56/56 23/23/23 57/57/57
f 23/23/23 22/22/22 57/57/57
f 57/57/57 22/22/22 20/20/20
f 20/20/20 58/58/58 57/57/57
f 58/58/58 20/20/20 19/19/19
f 19/19/19 59/59/59 58/58/58
f 59/59/59 19/19/19 21/21/21
f 21/21/21 60/60/60 59/59/59
f 60/60/60 21/21/21 61/61/61
f 18/18/18 61/61/61 21/21/21
f 61/61/61 18/18/18 62/62/62
f 60/60/60 61/61/61 63/63/63
f 63/63/63 64/64/64 60/60/60
f 59/59/59 60/60/60 64/64/64
f 63/63/63 61/61/61 65/65/65
f 58/58/58 59/59/59 66/66/66
f 64/64/64 66/66/66 59/59/59
f 66/66/66 67/67/67 58/58/58
f 58/58/58 67/67/67 68/68/68
f 68/68/68 57/57/57 58/58/58
f 57/57/57 68/68/68 69/69/69
f 57/57/57 69/69/69 56/56/56
f 70/70/70 56/56/56 69/69/69
f 56/56/56 70/70/70 55/55/55
f 70/70/70 71/71/71 55/55/55
f 55/55/55 71/71/71 54/54/54
f 54/54/54 71/71/71 72/72/72
f 72/72/72 52/52/52 54/54/54
f 52/52/52 72/72/72 73/73/73
f 73/73/73 53/53/53 52/52/52
f 50/50/50 53/53/53 73/73/73
f 73/73/73 74/74/74 50/50/50
f 75/75/75 50/50/50 74/74/74
f 50/50/50 75/75/75 51/51/51
f 76/76/76 51/51/51 75/75/75
f 51/51/51 76/76/76 77/77/77
f 51/51/51 77/77/77 47/47/47
f 47/47/47 77/77/77 46/46/46
f 78/78/78 46/46/46 77/77/77
f 78/78/78 77/77/77 76/76/76
f 48/48/48 46/46/46 78/78/78
f 78/78/78 79/79/79 48/48/48
f 48/48/48 79/79/79 80/80/80
f 80/80/80 49/49/49 48/48/48
f 76/76/76 81/81/81 78/78/78
f 79/79/79 78/78/78 81/81/81
f 80/80/80 79/79/79 82/82/82
f 81/81/81 82/82/82 79/79/79
f 82/82/82 83/83/83 80/80/80
f 84/84/84 49/49/49 80/80/80
f 84/84/84 85/85/85 49/49/49
f 49/49/49 85/85/85 86/86/86
f 87/87/87 86/86/86 85/85/85
f 87/87/87 88/88/88 86/86/86
f 89/89/89 86/86/86 88/88/88
f 88/88/88 90/90/90 89/89/89
f 41/41/41 86/86/86 89/89/89
f 86/86/86 41/41/41 40/40/40
f 86/86/86 40/40/40 49/49/49
f 91/91/91 90/90/90 88/88/88
f 91/91/91 92/92/92 90/90/90
f 92/92/92 91/91/91 93/93/93
f 93/93/93 94/94/94 92/92/92
f 94/94/94 93/93/93 95/95/95
f 94/94/94 95/95/95 96/96/96
f 97/97/97 96/96/96 95/95/95
f 95/95/95 98/98/98 97/97/97
f 99/99/99 97/97/97 98/98/98
f 98/98/98 100/100/100 99/99/99
f 101/101/101 99/99/99 100/100/100
f 102/102/102 101/101/101 100/100/100
f 93/93/93 91/91/91 103/103/103
f 103/103/103 104/104/104 93/93/93
f 95/95/95 93/93/93 104/104/104
f 103/103/103 91/91/91 88/88/88
f 88/88/88 87/87/87 103/103/103
f 98/98/98 95/95/95 105/105/105
f 104/104/104 105/105/105 95/95/95
f 105/105/105 106/106/106 98/98/98
f 100/100/100 98/98/98 106/106/106
f 102/102/102 100/100/100 107/107/107
f 106/106/106 107/107/107 100/100/100
f 107/107/107 108/108/108 102/102/102
f 109/109/109 101/101/101 102/102/102
f 102/102/102 110/110/110 109/109/109
f 110/110/110 102/102/102 108/108/108
f 111/111/111 109/109/109 110/110/110
f 110/110/110 112/112/112 111/111/111
f 113/113/113 111/111/111 112/112/112
f 112/112/112 114/114/114 113/113/113
f 113/113/113 114/114/114 115/115/115
f 116/116/116 115/115/115 114/114/114
f 117/117/117 115/115/115 116/116/116
f 116/116/116 118/118/118 117/117/117
f 117/117/117 118/118/118 119/119/119
f 120/120/120 119/119/119 118/118/118
f 121/121/121 119/119/119 120/120/120
f 120/120/120 122/122/122 121/121/121
f 121/121/121 122/122/122 123/123/123
f 112/112/112 110/110/110 124/124/124
f 124/124/124 125/125/125 112/112/112
f 114/114/114 112/112/112 125/125/125
f 108/108/108 124/124/124 110/110/110
f 116/116/116 114/114/114 126/126/126
f 125/125/125 126/126/126 114/114/114
f 126/126/126 127/127/127 116/116/116
f 118/118/118 116/116/116 127/127/127
f 120/120/120 118/118/118 128/128/128
f 127/127/127 128/128/128 118/118/118
f 128/128/128 129/129/129 120/120/120
f 122/122/122 120/120/120 129/129/129
f 130/130/130 123/123/123 122/122/122
f 129/129/129 130/130/130 122/122/122
f 126/126/126 131/131/131 127/127/127
f 131/131/131 132/132/132 127/127/127
f 133/133/133 125/125/125 124/124/124
f 126/126/126 125/125/125 133/133/133
f 133/133/133 131/131/131 126/126/126
f 124/124/124 134/134/134 133/133/133
f 108/108/108 134/134/134 124/124/124
f 108/108/108 135/135/135 134/134/134
f 135/135/135 108/108/108 107/107/107
f 107/107/107 136/136/136 135/135/135
f 106/106/106 136/136/136 107/107/107
f 136/136/136 106/106/106 137/137/137
f 137/137/137 106/106/106 105/105/105
f 105/105/105 138/138/138 137/137/137
f 138/138/138 105/105/105 104/104/104
f 138/138/138 104/104/104 139/139/139
f 139/139/139 104/104/104 103/103/103
f 103/103/103 140/140/140 139/139/139
f 87/87/87 140/140/140 103/103/103
f 87/87/87 141/141/141 140/140/140
f 141/141/141 87/87/87 85/85/85
f 85/85/85 84/84/84 141/141/141
f 137/137/137 142/142/142 136/136/136
f 142/142/142 137/137/137 143/143/143
f 138/138/138 143/143/143 137/137/137
f 136/136/136 142/142/142 144/144/144
f 144/144/144 135/135/135 136/136/136
f 141/141/141 84/84/84 145/145/145
f 145/145/145 146/146/146 141/141/141
f 140/140/140 141/141/141 146/146/146
f 80/80/80 145/145/145 84/84/84
f 145/145/145 80/80/80 83/83/83
f 139/139/139 140/140/140 147/147/147
f 146/146/146 147/147/147 140/140/140
f 147/147/147 148/148/148 139/139/139
f 135/135/135 144/144/144 149/149/149
f 149/149/149 134/134/134 135/135/135
f 149/149/149 150/150/150 134/134/134
f 134/134/134 150/150/150 133/133/133
f 151/151/151 133/133/133 150/150/150
f 133/133/133 151/151/151 131/131/131
f 152/152/152 131/131/131 151/151/151
f 131/131/131 152/152/152 132/132/132
f 153/153/153 132/132/132 152/152/152
f 132/132/132 153/153/153 154/154/154
f 154/154/154 127/127/127 132/132/132
f 127/127/127 154/154/154 128/128/128
f 128/128/128 154/154/154 155/155/155
f 155/155/155 129/129/129 128/128/128
f 129/129/129 155/155/155 156/156/156
f 156/156/156 130/130/130 129/129/129
f 123/123/123 130/130/130 156/156/156
f 157/157/157 154/154/154 153/153/153
f 154/154/154 157/157/157 155/155/155
f 158/158/158 155/155/155 157/157/157
f 155/155/155 158/158/158 156/156/156
f 158/158/158 159/159/159 156/156/156
f 143/143/143 138/138/138 160/160/160
f 139/139/139 160/160/160 138/138/138
f 160/160/160 139/139/139 148/148/148
