g pokestop_ia_arc_top
v -56.448708 119.00067 -8.149031
v -44.483276 117.67148 8.148893
v -56.448715 119.00069 8.1488695
v -44.48327 117.67154 -8.149006
v -27.143112 113.71382 8.148934
v -27.143105 113.713806 -8.148966
v -10.586802 107.215866 8.148898
v -10.586796 107.21592 -8.148919
v 4.816088 98.322914 8.148889
v 4.816094 98.32298 -8.148889
v 18.721727 87.23365 8.148922
v 18.721731 87.23364 -8.148897
v 30.819172 74.1957 8.148815
v 30.81918 74.1957 -8.148922
v 40.838417 59.50029 8.148872
v 40.83843 59.500317 -8.149027
v 48.55536 43.475807 8.148927
v 48.555367 43.4758 -8.148972
v 53.79782 26.480137 8.148983
v 53.79783 26.48013 -8.148917
v 56.448673 8.892915 8.1490345
v 56.448685 8.892906 -8.148867
v 56.44864 -8.892976 8.148757
v 56.448647 -8.892947 -8.148819
v 53.79786 -26.48018 8.1488
v 53.797867 -26.480171 -8.148778
v 48.55536 -43.475857 8.148835
v 48.555367 -43.47586 -8.148743
v 40.838276 -59.50037 8.148864
v 40.83828 -59.50038 -8.149036
v 30.819172 -74.195755 8.148884
v 30.81918 -74.19574 -8.148853
v 18.721727 -87.233696 8.148898
v 18.721731 -87.2337 -8.148922
v 4.816088 -98.32299 8.148903
v 4.816094 -98.323 -8.148896
v -10.586802 -107.21594 8.1489
v -10.586796 -107.21593 -8.14892
v -27.143112 -113.71383 8.148888
v -27.143105 -113.71384 -8.14885
v -44.483276 -117.671555 8.148868
v -44.48327 -117.67155 -8.149032
v -56.448715 -119.000694 8.14885
v -56.448708 -119.00069 -8.14905
v -56.448715 60.409794 8.149022
v -53.21563 59.73506 -8.1488695
v -56.448708 60.409782 -8.148877
v -53.215633 59.73507 8.14903
v -44.4131 57.725967 -8.148849
v -44.413105 57.72594 8.149051
v -36.00842 54.427357 -8.148825
v -36.008427 54.42737 8.148912
v -28.18922 49.91295 -8.14896
v -28.189228 49.91288 8.148939
v -21.130123 44.283524 -8.148933
v -21.13013 44.283493 8.148965
v -14.988937 37.66489 -8.148907
v -14.988943 37.664864 8.148912
v -9.902822 30.20491 -8.148876
v -9.902827 30.204922 8.148902
v -5.9853277 22.070164 -8.14889
v -5.985334 22.070175 8.1488905
v -3.3240592 13.442441 -8.148901
v -3.3240652 13.442413 8.148896
v -1.9783312 4.51441 -8.148897
v -1.978337 4.5143824 8.148892
v -1.9783677 -4.514452 -8.148893
v -1.9783735 -4.5144424 8.148897
v -3.3240228 -13.442484 -8.148892
v -3.3240285 -13.442474 8.148887
v -5.9853277 -22.070208 -8.148894
v -5.985334 -22.070217 8.148886
v -9.902858 -30.204933 -8.148879
v -9.902864 -30.204924 8.1489
v -14.988937 -37.664932 -8.1488695
v -14.988943 -37.664944 8.1488695
v -21.130123 -44.283546 -8.148862
v -21.13013 -44.28354 8.148877
v -28.18922 -49.912952 -8.148859
v -28.189228 -49.912964 8.148879
v -36.008495 -54.427383 -8.148862
v -36.0085 -54.427376 8.148877
v -44.413246 -57.72599 -8.148868
v -44.413105 -57.725983 8.149034
v -53.21563 -59.735104 -8.148877
v -53.215633 -59.73511 8.149022
v -56.448708 -60.40983 -8.148881
v -56.448715 -60.409836 8.149019
v -56.448708 60.409782 -8.148877
v -56.448708 119.00067 -8.149031
v -56.448715 119.00069 8.1488695
v -56.448715 60.409794 8.149022
v -56.448715 -60.409836 8.149019
v -56.448715 -119.000694 8.14885
v -56.448708 -119.00069 -8.14905
v -56.448708 -60.40983 -8.148881
v -56.448715 60.409794 8.149022
v -56.448715 119.00069 8.1488695
v -44.483276 117.67148 8.148893
v -53.215633 59.73507 8.14903
v -27.143112 113.71382 8.148934
v -44.413105 57.72594 8.149051
v -10.586802 107.215866 8.148898
v -36.008427 54.42737 8.148912
v 4.816088 98.322914 8.148889
v -28.189228 49.91288 8.148939
v 18.721727 87.23365 8.148922
v -21.13013 44.283493 8.148965
v 30.819172 74.1957 8.148815
v -14.988943 37.664864 8.148912
v 40.838417 59.50029 8.148872
v -9.902827 30.204922 8.148902
v 48.55536 43.475807 8.148927
v -5.985334 22.070175 8.1488905
v 53.79782 26.480137 8.148983
v -3.3240652 13.442413 8.148896
v 56.448673 8.892915 8.1490345
v -1.978337 4.5143824 8.148892
v 56.44864 -8.892976 8.148757
v -1.9783735 -4.5144424 8.148897
v 53.79786 -26.48018 8.1488
v -3.3240285 -13.442474 8.148887
v 48.55536 -43.475857 8.148835
v -5.985334 -22.070217 8.148886
v 40.838276 -59.50037 8.148864
v -9.902864 -30.204924 8.1489
v 30.819172 -74.195755 8.148884
v -14.988943 -37.664944 8.1488695
v 18.721727 -87.233696 8.148898
v -21.13013 -44.28354 8.148877
v 4.816088 -98.32299 8.148903
v -28.189228 -49.912964 8.148879
v -10.586802 -107.21594 8.1489
v -36.0085 -54.427376 8.148877
v -27.143112 -113.71383 8.148888
v -44.413105 -57.725983 8.149034
v -44.483276 -117.671555 8.148868
v -53.215633 -59.73511 8.149022
v -56.448715 -60.409836 8.149019
v -56.448715 -119.000694 8.14885
v -53.21563 59.73506 -8.1488695
v -56.448708 119.00067 -8.149031
v -56.448708 60.409782 -8.148877
v -44.48327 117.67154 -8.149006
v -44.4131 57.725967 -8.148849
v -27.143105 113.713806 -8.148966
v -36.00842 54.427357 -8.148825
v -10.586796 107.21592 -8.148919
v -28.18922 49.91295 -8.14896
v 4.816094 98.32298 -8.148889
v -21.130123 44.283524 -8.148933
v 18.721731 87.23364 -8.148897
v -14.988937 37.66489 -8.148907
v 30.81918 74.1957 -8.148922
v -9.902822 30.20491 -8.148876
v 40.83843 59.500317 -8.149027
v -5.9853277 22.070164 -8.14889
v 48.555367 43.4758 -8.148972
v -3.3240592 13.442441 -8.148901
v 53.79783 26.48013 -8.148917
v -1.9783312 4.51441 -8.148897
v 56.448685 8.892906 -8.148867
v -1.9783677 -4.514452 -8.148893
v 56.448647 -8.892947 -8.148819
v -3.3240228 -13.442484 -8.148892
v 53.797867 -26.480171 -8.148778
v -5.9853277 -22.070208 -8.148894
v 48.555367 -43.47586 -8.148743
v -9.902858 -30.204933 -8.148879
v 40.83828 -59.50038 -8.149036
v -14.988937 -37.664932 -8.1488695
v 30.81918 -74.19574 -8.148853
v -21.130123 -44.283546 -8.148862
v 18.721731 -87.2337 -8.148922
v -28.18922 -49.912952 -8.148859
v 4.816094 -98.323 -8.148896
v -36.008495 -54.427383 -8.148862
v -10.586796 -107.21593 -8.14892
v -44.413246 -57.72599 -8.148868
v -27.143105 -113.71384 -8.14885
v -53.21563 -59.735104 -8.148877
v -44.48327 -117.67155 -8.149032
v -56.448708 -60.40983 -8.148881
v -56.448708 -119.00069 -8.14905
vt 0.17510417 0.5162486
vt 0.1787309 0.5488982
vt 0.17510417 0.5162486
vt 0.1787309 0.5488982
vt 0.18953007 0.59621257
vt 0.18953007 0.59621257
vt 0.20726046 0.64138895
vt 0.20726046 0.6413889
vt 0.23152602 0.68341815
vt 0.23152602 0.68341815
vt 0.26178467 0.7213613
vt 0.26178467 0.7213613
vt 0.29736048 0.7543709
vt 0.29736048 0.75437087
vt 0.33745876 0.78170943
vt 0.33745876 0.78170943
vt 0.3811838 0.8027663
vt 0.3811838 0.8027663
vt 0.4275588 0.8170711
vt 0.4275588 0.8170711
vt 0.47554788 0.82430434
vt 0.47554788 0.8243043
vt 0.524079 0.82430434
vt 0.52407897 0.8243043
vt 0.57206804 0.81707114
vt 0.57206804 0.8170711
vt 0.6184431 0.8027663
vt 0.6184431 0.8027663
vt 0.6621681 0.7817095
vt 0.6621681 0.78170943
vt 0.70226645 0.7543709
vt 0.70226645 0.7543709
vt 0.7378422 0.7213614
vt 0.7378422 0.7213614
vt 0.7681009 0.6834183
vt 0.7681009 0.6834182
vt 0.79236645 0.6413891
vt 0.79236645 0.6413891
vt 0.81009686 0.59621274
vt 0.81009686 0.59621274
vt 0.820896 0.5488984
vt 0.820896 0.54889834
vt 0.82452285 0.51624876
vt 0.82452285 0.5162487
vt 0.3349772 0.51624864
vt 0.33681828 0.5250704
vt 0.3349772 0.51624864
vt 0.33681828 0.5250705
vt 0.34230042 0.5490892
vt 0.34230042 0.54908925
vt 0.3513011 0.5720227
vt 0.3513011 0.5720227
vt 0.36361933 0.59335846
vt 0.36361933 0.5933585
vt 0.37897992 0.61262006
vt 0.37897992 0.61262006
vt 0.3970397 0.6293771
vt 0.3970397 0.6293771
vt 0.41739532 0.64325535
vt 0.41739532 0.64325535
vt 0.439592 0.65394473
vt 0.439592 0.65394473
vt 0.46313393 0.6612064
vt 0.46313393 0.6612064
vt 0.48749524 0.6648783
vt 0.48749524 0.6648783
vt 0.5121317 0.6648783
vt 0.5121317 0.6648783
vt 0.536493 0.6612064
vt 0.536493 0.6612065
vt 0.56003493 0.65394473
vt 0.56003493 0.65394473
vt 0.58223164 0.64325535
vt 0.58223164 0.64325535
vt 0.6025872 0.6293771
vt 0.6025872 0.6293771
vt 0.620647 0.6126201
vt 0.6206471 0.6126201
vt 0.63600767 0.5933585
vt 0.63600767 0.5933585
vt 0.64832586 0.57202274
vt 0.64832586 0.57202274
vt 0.6573266 0.5490893
vt 0.6573266 0.5490893
vt 0.6628087 0.5250705
vt 0.6628087 0.52507055
vt 0.6646498 0.5162487
vt 0.6646498 0.51624876
vt 0.3349772 0.51624864
vt 0.17510417 0.5162486
vt 0.17510417 0.5162486
vt 0.3349772 0.51624864
vt 0.6646498 0.51624876
vt 0.82452285 0.51624876
vt 0.82452285 0.5162487
vt 0.6646498 0.5162487
vt 0.3349772 0.51624864
vt 0.17510417 0.5162486
vt 0.1787309 0.5488982
vt 0.33681828 0.5250705
vt 0.18953007 0.59621257
vt 0.34230042 0.54908925
vt 0.20726046 0.64138895
vt 0.3513011 0.5720227
vt 0.23152602 0.68341815
vt 0.36361933 0.5933585
vt 0.26178467 0.7213613
vt 0.37897992 0.61262006
vt 0.29736048 0.7543709
vt 0.3970397 0.6293771
vt 0.33745876 0.78170943
vt 0.41739532 0.64325535
vt 0.3811838 0.8027663
vt 0.439592 0.65394473
vt 0.4275588 0.8170711
vt 0.46313393 0.6612064
vt 0.47554788 0.82430434
vt 0.48749524 0.6648783
vt 0.524079 0.82430434
vt 0.5121317 0.6648783
vt 0.57206804 0.81707114
vt 0.536493 0.6612065
vt 0.6184431 0.8027663
vt 0.56003493 0.65394473
vt 0.6621681 0.7817095
vt 0.58223164 0.64325535
vt 0.70226645 0.7543709
vt 0.6025872 0.6293771
vt 0.7378422 0.7213614
vt 0.6206471 0.6126201
vt 0.7681009 0.6834183
vt 0.63600767 0.5933585
vt 0.79236645 0.6413891
vt 0.64832586 0.57202274
vt 0.81009686 0.59621274
vt 0.6573266 0.5490893
vt 0.820896 0.5488984
vt 0.6628087 0.52507055
vt 0.6646498 0.51624876
vt 0.82452285 0.51624876
vt 0.33681828 0.5250704
vt 0.17510417 0.5162486
vt 0.3349772 0.51624864
vt 0.1787309 0.5488982
vt 0.34230042 0.5490892
vt 0.18953007 0.59621257
vt 0.3513011 0.5720227
vt 0.20726046 0.6413889
vt 0.36361933 0.59335846
vt 0.23152602 0.68341815
vt 0.37897992 0.61262006
vt 0.26178467 0.7213613
vt 0.3970397 0.6293771
vt 0.29736048 0.75437087
vt 0.41739532 0.64325535
vt 0.33745876 0.78170943
vt 0.439592 0.65394473
vt 0.3811838 0.8027663
vt 0.46313393 0.6612064
vt 0.4275588 0.8170711
vt 0.48749524 0.6648783
vt 0.47554788 0.8243043
vt 0.5121317 0.6648783
vt 0.52407897 0.8243043
vt 0.536493 0.6612064
vt 0.57206804 0.8170711
vt 0.56003493 0.65394473
vt 0.6184431 0.8027663
vt 0.58223164 0.64325535
vt 0.6621681 0.78170943
vt 0.6025872 0.6293771
vt 0.70226645 0.7543709
vt 0.620647 0.6126201
vt 0.7378422 0.7213614
vt 0.63600767 0.5933585
vt 0.7681009 0.6834182
vt 0.64832586 0.57202274
vt 0.79236645 0.6413891
vt 0.6573266 0.5490893
vt 0.81009686 0.59621274
vt 0.6628087 0.5250705
vt 0.820896 0.54889834
vt 0.6646498 0.5162487
vt 0.82452285 0.5162487
vn 0.11040492 0.99388665 0
vn 0.16673034 0.98600256 0
vn 0.11040492 0.99388665 0
vn 0.16673034 0.98600256 0
vn 0.29475424 0.9555731 0
vn 0.29475424 0.9555731 0
vn 0.43388665 0.9009675 0
vn 0.43388665 0.9009675 0
vn 0.5633203 0.8262386 0
vn 0.5633203 0.8262386 0
vn 0.6801715 0.733053 0
vn 0.6801715 0.733053 0
vn 0.78183013 0.6234915 0
vn 0.78183013 0.6234915 0
vn 0.866025 0.50000066 0
vn 0.866025 0.50000066 0
vn 0.9308743 0.3653396 0
vn 0.9308743 0.3653396 0
vn 0.9749279 0.22252092 0
vn 0.9749279 0.22252092 0
vn 0.9972038 0.0747293 0
vn 0.9972038 0.0747293 0
vn 0.9972038 -0.074729286 0
vn 0.9972038 -0.074729286 0
vn 0.9749281 -0.22251981 0
vn 0.9749281 -0.22251981 0
vn 0.93087274 -0.3653437 0
vn 0.93087274 -0.3653437 0
vn 0.86602473 -0.5000012 0
vn 0.86602473 -0.5000012 0
vn 0.78183204 -0.62348914 0
vn 0.78183204 -0.62348914 0
vn 0.68017155 -0.733053 0
vn 0.68017155 -0.733053 0
vn 0.5633201 -0.82623875 0
vn 0.5633201 -0.82623875 0
vn 0.433886 -0.90096784 0
vn 0.433886 -0.90096784 0
vn 0.29475424 -0.9555731 0
vn 0.29475424 -0.9555731 0
vn 0.16672967 -0.9860027 0
vn 0.16672967 -0.9860027 0
vn 0.110402204 -0.993887 0
vn 0.110402204 -0.993887 0
vn -0.20429255 -0.9789099 0
vn -0.21341555 -0.97696155 0
vn -0.20429255 -0.9789099 0
vn -0.21341555 -0.97696155 0
vn -0.29475468 -0.95557296 0
vn -0.29475468 -0.95557296 0
vn -0.433885 -0.90096825 0
vn -0.433885 -0.90096825 0
vn -0.5633199 -0.82623893 0
vn -0.5633199 -0.82623893 0
vn -0.6801718 -0.7330528 0
vn -0.6801718 -0.7330528 0
vn -0.78183156 -0.6234896 0
vn -0.78183156 -0.6234896 0
vn -0.86602527 -0.5000003 0
vn -0.86602527 -0.5000003 0
vn -0.9308744 -0.3653395 0
vn -0.9308744 -0.3653395 0
vn -0.9749278 -0.22252133 0
vn -0.9749278 -0.22252133 0
vn -0.9972038 -0.074730486 0
vn -0.9972038 -0.074730486 0
vn -0.9972037 0.0747305 0
vn -0.9972037 0.0747305 0
vn -0.9749282 0.22251947 0
vn -0.9749282 0.22251947 0
vn -0.9308726 0.3653438 0
vn -0.9308726 0.3653438 0
vn -0.8660255 0.49999973 0
vn -0.8660255 0.49999973 0
vn -0.781833 0.6234879 0
vn -0.781833 0.6234879 0
vn -0.6801713 0.73305315 0
vn -0.6801713 0.73305315 0
vn -0.56331766 0.8262404 0
vn -0.56331766 0.8262404 0
vn -0.43388274 0.9009693 0
vn -0.43388274 0.9009693 0
vn -0.2947567 0.9555723 0
vn -0.2947567 0.9555723 0
vn -0.21341695 0.9769612 0
vn -0.21341695 0.9769612 0
vn -0.20429255 0.9789099 0
vn -0.20429255 0.9789099 0
vn -1 0 0
vn -1 0 0
vn -1 0 0
vn -1 0 0
vn -1 0 0
vn -1 0 0
vn -1 0 0
vn -1 0 0
vn -0 0 1
vn -0 0 1
vn -0 0 1
vn -0 0 1
vn -0 0 1
vn -0 0 1
vn -0 0 1
vn -0 0 1
vn -0 0 1
vn -0 0 1
vn -0 0 1
vn -0 0 1
vn -0 0 1
vn -0 0 1
vn -0 0 1
vn -0 0 1
vn -0 0 1
vn -0 0 1
vn -0 0 1
vn -0 0 1
vn -0 0 1
vn -0 0 1
vn -0 0 1
vn -0 0 1
vn -0 0 1
vn -0 0 1
vn -0 0 1
vn -0 0 1
vn -0 0 1
vn -0 0 1
vn -0 0 1
vn -0 0 1
vn -0 0 1
vn -0 0 1
vn -0 0 1
vn -0 0 1
vn -0 0 1
vn -0 0 1
vn -0 0 1
vn -0 0 1
vn -0 0 1
vn -0 0 1
vn -0 0 1
vn -0 0 1
vn -0 0 -1
vn -0 0 -1
vn -0 0 -1
vn -0 0 -1
vn -0 0 -1
vn -0 0 -1
vn -0 0 -1
vn -0 0 -1
vn -0 0 -1
vn -0 0 -1
vn -0 0 -1
vn -0 0 -1
vn -0 0 -1
vn -0 0 -1
vn -0 0 -1
vn -0 0 -1
vn -0 0 -1
vn -0 0 -1
vn -0 0 -1
vn -0 0 -1
vn -0 0 -1
vn -0 0 -1
vn -0 0 -1
vn -0 0 -1
vn -0 0 -1
vn -0 0 -1
vn -0 0 -1
vn -0 0 -1
vn -0 0 -1
vn -0 0 -1
vn -0 0 -1
vn -0 0 -1
vn -0 0 -1
vn -0 0 -1
vn -0 0 -1
vn -0 0 -1
vn -0 0 -1
vn -0 0 -1
vn -0 0 -1
vn -0 0 -1
vn -0 0 -1
vn -0 0 -1
vn -0 0 -1
vn -0 0 -1
g pokestop_ia_arc_top_0
f 3/3/3 2/2/2 1/1/1
f 2/2/2 4/4/4 1/1/1
f 2/2/2 5/5/5 4/4/4
f 5/5/5 6/6/6 4/4/4
f 5/5/5 7/7/7 6/6/6
f 7/7/7 8/8/8 6/6/6
f 7/7/7 9/9/9 8/8/8
f 9/9/9 10/10/10 8/8/8
f 9/9/9 11/11/11 10/10/10
f 11/11/11 12/12/12 10/10/10
f 11/11/11 13/13/13 12/12/12
f 13/13/13 14/14/14 12/12/12
f 13/13/13 15/15/15 14/14/14
f 15/15/15 16/16/16 14/14/14
f 15/15/15 17/17/17 16/16/16
f 17/17/17 18/18/18 16/16/16
f 17/17/17 19/19/19 18/18/18
f 19/19/19 20/20/20 18/18/18
f 19/19/19 21/21/21 20/20/20
f 21/21/21 22/22/22 20/20/20
f 21/21/21 23/23/23 22/22/22
f 23/23/23 24/24/24 22/22/22
f 23/23/23 25/25/25 24/24/24
f 25/25/25 26/26/26 24/24/24
f 25/25/25 27/27/27 26/26/26
f 27/27/27 28/28/28 26/26/26
f 27/27/27 29/29/29 28/28/28
f 29/29/29 30/30/30 28/28/28
f 29/29/29 31/31/31 30/30/30
f 31/31/31 32/32/32 30/30/30
f 31/31/31 33/33/33 32/32/32
f 33/33/33 34/34/34 32/32/32
f 33/33/33 35/35/35 34/34/34
f 35/35/35 36/36/36 34/34/34
f 35/35/35 37/37/37 36/36/36
f 37/37/37 38/38/38 36/36/36
f 37/37/37 39/39/39 38/38/38
f 39/39/39 40/40/40 38/38/38
f 39/39/39 41/41/41 40/40/40
f 41/41/41 42/42/42 40/40/40
f 41/41/41 43/43/43 42/42/42
f 43/43/43 44/44/44 42/42/42
f 47/47/47 46/46/46 45/45/45
f 46/46/46 48/48/48 45/45/45
f 46/46/46 49/49/49 48/48/48
f 49/49/49 50/50/50 48/48/48
f 49/49/49 51/51/51 50/50/50
f 51/51/51 52/52/52 50/50/50
f 51/51/51 53/53/53 52/52/52
f 53/53/53 54/54/54 52/52/52
f 53/53/53 55/55/55 54/54/54
f 55/55/55 56/56/56 54/54/54
f 55/55/55 57/57/57 56/56/56
f 57/57/57 58/58/58 56/56/56
f 57/57/57 59/59/59 58/58/58
f 59/59/59 60/60/60 58/58/58
f 59/59/59 61/61/61 60/60/60
f 61/61/61 62/62/62 60/60/60
f 61/61/61 63/63/63 62/62/62
f 63/63/63 64/64/64 62/62/62
f 63/63/63 65/65/65 64/64/64
f 65/65/65 66/66/66 64/64/64
f 65/65/65 67/67/67 66/66/66
f 67/67/67 68/68/68 66/66/66
f 67/67/67 69/69/69 68/68/68
f 69/69/69 70/70/70 68/68/68
f 69/69/69 71/71/71 70/70/70
f 71/71/71 72/72/72 70/70/70
f 71/71/71 73/73/73 72/72/72
f 73/73/73 74/74/74 72/72/72
f 73/73/73 75/75/75 74/74/74
f 75/75/75 76/76/76 74/74/74
f 75/75/75 77/77/77 76/76/76
f 77/77/77 78/78/78 76/76/76
f 77/77/77 79/79/79 78/78/78
f 79/79/79 80/80/80 78/78/78
f 79/79/79 81/81/81 80/80/80
f 81/81/81 82/82/82 80/80/80
f 81/81/81 83/83/83 82/82/82
f 83/83/83 84/84/84 82/82/82
f 83/83/83 85/85/85 84/84/84
f 85/85/85 86/86/86 84/84/84
f 85/85/85 87/87/87 86/86/86
f 87/87/87 88/88/88 86/86/86
f 91/91/91 90/90/90 89/89/89
f 92/92/92 91/91/91 89/89/89
f 95/95/95 94/94/94 93/93/93
f 96/96/96 95/95/95 93/93/93
g pokestop_ia_arc_top_1
f 99/99/99 98/98/98 97/97/97
f 100/100/100 99/99/99 97/97/97
f 101/101/101 99/99/99 100/100/100
f 102/102/102 101/101/101 100/100/100
f 103/103/103 101/101/101 102/102/102
f 104/104/104 103/103/103 102/102/102
f 105/105/105 103/103/103 104/104/104
f 106/106/106 105/105/105 104/104/104
f 107/107/107 105/105/105 106/106/106
f 108/108/108 107/107/107 106/106/106
f 109/109/109 107/107/107 108/108/108
f 110/110/110 109/109/109 108/108/108
f 111/111/111 109/109/109 110/110/110
f 112/112/112 111/111/111 110/110/110
f 113/113/113 111/111/111 112/112/112
f 114/114/114 113/113/113 112/112/112
f 115/115/115 113/113/113 114/114/114
f 116/116/116 115/115/115 114/114/114
f 117/117/117 115/115/115 116/116/116
f 118/118/118 117/117/117 116/116/116
f 119/119/119 117/117/117 118/118/118
f 120/120/120 119/119/119 118/118/118
f 121/121/121 119/119/119 120/120/120
f 122/122/122 121/121/121 120/120/120
f 123/123/123 121/121/121 122/122/122
f 124/124/124 123/123/123 122/122/122
f 125/125/125 123/123/123 124/124/124
f 126/126/126 125/125/125 124/124/124
f 127/127/127 125/125/125 126/126/126
f 128/128/128 127/127/127 126/126/126
f 129/129/129 127/127/127 128/128/128
f 130/130/130 129/129/129 128/128/128
f 131/131/131 129/129/129 130/130/130
f 132/132/132 131/131/131 130/130/130
f 133/133/133 131/131/131 132/132/132
f 134/134/134 133/133/133 132/132/132
f 135/135/135 133/133/133 134/134/134
f 136/136/136 135/135/135 134/134/134
f 137/137/137 135/135/135 136/136/136
f 138/138/138 137/137/137 136/136/136
f 138/138/138 139/139/139 137/137/137
f 139/139/139 140/140/140 137/137/137
f 143/143/143 142/142/142 141/141/141
f 142/142/142 144/144/144 141/141/141
f 141/141/141 144/144/144 145/145/145
f 144/144/144 146/146/146 145/145/145
f 145/145/145 146/146/146 147/147/147
f 146/146/146 148/148/148 147/147/147
f 147/147/147 148/148/148 149/149/149
f 148/148/148 150/150/150 149/149/149
f 149/149/149 150/150/150 151/151/151
f 150/150/150 152/152/152 151/151/151
f 151/151/151 152/152/152 153/153/153
f 152/152/152 154/154/154 153/153/153
f 153/153/153 154/154/154 155/155/155
f 154/154/154 156/156/156 155/155/155
f 155/155/155 156/156/156 157/157/157
f 156/156/156 158/158/158 157/157/157
f 157/157/157 158/158/158 159/159/159
f 158/158/158 160/160/160 159/159/159
f 159/159/159 160/160/160 161/161/161
f 160/160/160 162/162/162 161/161/161
f 161/161/161 162/162/162 163/163/163
f 162/162/162 164/164/164 163/163/163
f 163/163/163 164/164/164 165/165/165
f 164/164/164 166/166/166 165/165/165
f 165/165/165 166/166/166 167/167/167
f 166/166/166 168/168/168 167/167/167
f 167/167/167 168/168/168 169/169/169
f 168/168/168 170/170/170 169/169/169
f 169/169/169 170/170/170 171/171/171
f 170/170/170 172/172/172 171/171/171
f 171/171/171 172/172/172 173/173/173
f 172/172/172 174/174/174 173/173/173
f 173/173/173 174/174/174 175/175/175
f 174/174/174 176/176/176 175/175/175
f 175/175/175 176/176/176 177/177/177
f 176/176/176 178/178/178 177/177/177
f 177/177/177 178/178/178 179/179/179
f 178/178/178 180/180/180 179/179/179
f 179/179/179 180/180/180 181/181/181
f 180/180/180 182/182/182 181/181/181
f 181/181/181 182/182/182 183/183/183
f 182/182/182 184/184/184 183/183/183
