g pokestop_ia_arc_top_blade
v -28.399769 60.409832 8.148857
v -25.166685 59.735104 8.148865
v -25.166681 59.73506 -8.148874
v -28.399761 60.409782 -8.148882
v -16.364298 57.725967 -8.148933
v -16.364304 57.72598 8.148886
v -7.9594727 54.427357 -8.1489105
v -7.959478 54.42733 8.14891
v -0.1402734 49.91295 -8.148894
v -0.14027923 49.912918 8.148895
v 6.918751 44.283524 -8.148898
v 6.918745 44.28353 8.148881
v 13.059938 37.66489 -8.1489105
v 13.059932 37.6649 8.14891
v 18.146091 30.20491 -8.148881
v 18.146084 30.204884 8.148857
v 22.063583 22.070164 -8.148853
v 22.063578 22.070175 8.148885
v 24.724888 13.44244 -8.148826
v 24.724884 13.44245 8.148912
v 26.07058 4.51441 -8.148962
v 26.070574 4.5144186 8.148938
v 26.07058 -4.514452 -8.148938
v 26.070574 -4.5144424 8.148962
v 24.724854 -13.442484 -8.148917
v 24.724846 -13.442474 8.148822
v 22.063545 -22.070208 -8.148899
v 22.063541 -22.070198 8.14884
v 18.146091 -30.204933 -8.148884
v 18.146084 -30.204943 8.148935
v 13.060011 -37.664932 -8.148873
v 13.060005 -37.664925 8.148866
v 6.918824 -44.283546 -8.148907
v 6.9188185 -44.283558 8.148912
v -0.1402734 -49.912952 -8.148895
v -0.14027923 -49.912945 8.148895
v -7.959545 -54.427383 -8.148907
v -7.9595513 -54.427395 8.148913
v -16.364298 -57.72599 -8.148871
v -16.364304 -57.726 8.148867
v -25.166681 -59.735104 -8.148882
v -25.166685 -59.735092 8.148856
v -28.399761 -60.40983 -8.148886
v -28.399769 -60.409817 8.148852
v -22.837482 59.735104 8.1488695
v -25.166685 59.735104 8.148865
v -28.399769 60.409832 8.148857
v -26.070564 60.409832 8.148862
v -14.034953 57.72598 8.1488905
v -16.364304 57.72598 8.148886
v -5.6302743 54.42733 8.148912
v -7.959478 54.42733 8.14891
v 2.1889248 49.912918 8.148898
v -0.14027923 49.912918 8.148895
v 9.248022 44.28353 8.148886
v 6.918745 44.28353 8.148881
v 15.389209 37.6649 8.148912
v 13.059932 37.6649 8.14891
v 20.475327 30.204884 8.148861
v 18.146084 30.204884 8.148857
v 24.392817 22.070175 8.14889
v 22.063578 22.070175 8.148885
v 27.054085 13.44245 8.148917
v 24.724884 13.44245 8.148912
v 28.399815 4.514418 8.148942
v 26.070574 4.5144186 8.148938
v 28.399776 -4.5144424 8.148966
v 26.070574 -4.5144424 8.148962
v 27.054123 -13.442474 8.148827
v 24.724846 -13.442474 8.148822
v 24.392817 -22.070198 8.148844
v 22.063541 -22.070198 8.14884
v 20.475288 -30.204943 8.148859
v 18.146084 -30.204943 8.148935
v 15.389209 -37.664925 8.1488695
v 13.060005 -37.664925 8.148866
v 9.248022 -44.283558 8.148876
v 6.9188185 -44.283558 8.148912
v 2.1889248 -49.912945 8.148899
v -0.14027923 -49.912945 8.148895
v -5.6303473 -54.427395 8.148876
v -7.9595513 -54.427395 8.148913
v -14.034953 -57.726 8.14887
v -16.364304 -57.726 8.148867
v -22.837482 -59.735092 8.148861
v -25.166685 -59.735092 8.148856
v -26.070564 -60.409817 8.148857
v -28.399769 -60.409817 8.148852
v -26.070564 60.409832 8.148862
v -28.399769 60.409832 8.148857
v -28.399761 60.409782 -8.148882
v -26.070557 60.409782 -8.148878
v -26.070557 60.409782 -8.148878
v -28.399761 60.409782 -8.148882
v -25.166681 59.73506 -8.148874
v -22.837477 59.73506 -8.14887
v -16.364298 57.725967 -8.148933
v -14.034948 57.725967 -8.14893
v -7.9594727 54.427357 -8.1489105
v -5.6302686 54.427357 -8.148907
v -0.1402734 49.91295 -8.148894
v 2.1889305 49.91295 -8.1488905
v 6.918751 44.283524 -8.148898
v 9.248028 44.283524 -8.148893
v 13.059938 37.66489 -8.1489105
v 15.3892145 37.66489 -8.148907
v 18.146091 30.20491 -8.148881
v 20.47533 30.20491 -8.148878
v 22.063583 22.070164 -8.148853
v 24.392824 22.070164 -8.1488495
v 24.724888 13.44244 -8.148826
v 27.054092 13.442441 -8.148822
v 26.07058 4.51441 -8.148962
v 28.39982 4.51441 -8.148958
v 26.07058 -4.514452 -8.148938
v 28.399784 -4.514452 -8.148933
v 24.724854 -13.442484 -8.148917
v 27.054129 -13.442484 -8.148913
v 22.063545 -22.070208 -8.148899
v 24.392824 -22.070208 -8.148895
v 18.146091 -30.204933 -8.148884
v 20.475294 -30.204933 -8.14888
v 13.060011 -37.664932 -8.148873
v 15.3892145 -37.664932 -8.1488695
v 6.918824 -44.283546 -8.148907
v 9.248028 -44.283546 -8.148903
v -0.1402734 -49.912952 -8.148895
v 2.1889305 -49.912952 -8.1489
v -7.959545 -54.427383 -8.148907
v -5.630341 -54.427383 -8.148902
v -16.364298 -57.72599 -8.148871
v -14.035093 -57.72599 -8.148869
v -25.166681 -59.735104 -8.148882
v -22.837477 -59.735104 -8.148878
v -28.399761 -60.40983 -8.148886
v -26.070557 -60.40983 -8.148882
v -26.070557 -60.40983 -8.148882
v -28.399761 -60.40983 -8.148886
v -28.399769 -60.409817 8.148852
v -26.070564 -60.409817 8.148857
vt 0.98739284 0.60693824
vt 0.98450917 0.6258285
vt 0.9652875 0.61044216
vt 0.96853197 0.5916912
vt 0.95570236 0.66075915
vt 0.9759534 0.6764557
vt 0.94452935 0.70839524
vt 0.96626115 0.72467107
vt 0.93091285 0.75284946
vt 0.9546478 0.7701362
vt 0.9135063 0.79366326
vt 0.93977934 0.8126205
vt 0.8901366 0.8301543
vt 0.91917133 0.85175955
vt 0.85744596 0.86096126
vt 0.8878698 0.8865382
vt 0.8115028 0.8833934
vt 0.83647335 0.9140421
vt 0.7524012 0.89335454
vt 0.7566415 0.92747694
vt 0.69092923 0.88794035
vt 0.6704835 0.92008334
vt 0.6404787 0.86879015
vt 0.6104935 0.89591384
vt 0.60405684 0.8400452
vt 0.5742013 0.8627814
vt 0.57820886 0.8048881
vt 0.55096924 0.8246114
vt 0.5592255 0.7650112
vt 0.5346523 0.78281343
vt 0.5445936 0.72124314
vt 0.5221886 0.7378729
vt 0.5327519 0.6740798
vt 0.5119747 0.69003093
vt 0.5227194 0.6240046
vt 0.5030937 0.63958937
vt 0.5138483 0.5716653
vt 0.49496657 0.5870641
vt 0.5056793 0.5179323
vt 0.48718277 0.53323597
vt 0.497853 0.4638463
vt 0.47940943 0.47909987
vt 0.49499455 0.4443862
vt 0.47657356 0.45956263
vt 0.98450917 0.6258285
vt 0.98450917 0.6258285
vt 0.98739284 0.60693824
vt 0.98739284 0.60693824
vt 0.9759534 0.6764557
vt 0.9759534 0.6764557
vt 0.96626115 0.72467107
vt 0.96626115 0.72467107
vt 0.9546478 0.7701362
vt 0.9546478 0.7701362
vt 0.93977934 0.8126205
vt 0.93977934 0.8126205
vt 0.91917133 0.85175955
vt 0.91917133 0.85175955
vt 0.8878698 0.8865382
vt 0.8878698 0.8865382
vt 0.83647335 0.9140421
vt 0.83647335 0.9140421
vt 0.7566415 0.92747694
vt 0.7566415 0.92747694
vt 0.6704835 0.92008334
vt 0.6704835 0.92008334
vt 0.6104935 0.89591384
vt 0.6104935 0.89591384
vt 0.5742013 0.8627814
vt 0.5742013 0.8627814
vt 0.55096924 0.8246114
vt 0.55096924 0.8246114
vt 0.5346523 0.78281343
vt 0.5346523 0.78281343
vt 0.5221886 0.7378729
vt 0.5221886 0.7378729
vt 0.5119747 0.69003093
vt 0.5119747 0.69003093
vt 0.5030937 0.63958937
vt 0.5030937 0.63958937
vt 0.49496657 0.5870641
vt 0.49496657 0.5870641
vt 0.48718277 0.53323597
vt 0.48718277 0.53323597
vt 0.47940943 0.47909987
vt 0.47940943 0.47909987
vt 0.47657356 0.45956263
vt 0.47657356 0.45956263
vt 0.98739284 0.60693824
vt 0.98739284 0.60693824
vt 0.96853197 0.5916912
vt 0.96853197 0.5916912
vt 0.96853197 0.5916912
vt 0.96853197 0.5916912
vt 0.9652875 0.61044216
vt 0.9652875 0.61044216
vt 0.95570236 0.66075915
vt 0.95570236 0.66075915
vt 0.94452935 0.70839524
vt 0.94452935 0.70839524
vt 0.93091285 0.75284946
vt 0.93091285 0.75284946
vt 0.9135063 0.79366326
vt 0.9135063 0.79366326
vt 0.8901366 0.8301543
vt 0.8901366 0.8301543
vt 0.85744596 0.86096126
vt 0.85744596 0.86096126
vt 0.8115028 0.8833934
vt 0.8115028 0.8833934
vt 0.7524012 0.89335454
vt 0.7524012 0.89335454
vt 0.69092923 0.88794035
vt 0.69092923 0.88794035
vt 0.6404787 0.86879015
vt 0.6404787 0.86879015
vt 0.60405684 0.8400452
vt 0.60405684 0.8400452
vt 0.57820886 0.8048881
vt 0.57820886 0.8048881
vt 0.5592255 0.7650112
vt 0.5592255 0.7650112
vt 0.5445936 0.72124314
vt 0.5445936 0.72124314
vt 0.5327519 0.6740798
vt 0.5327519 0.6740798
vt 0.5227194 0.6240046
vt 0.5227194 0.6240046
vt 0.5138483 0.5716653
vt 0.5138483 0.5716653
vt 0.5056793 0.5179323
vt 0.5056793 0.5179323
vt 0.497853 0.4638463
vt 0.497853 0.4638463
vt 0.49499455 0.4443862
vt 0.49499455 0.4443862
vt 0.49499455 0.4443862
vt 0.49499455 0.4443862
vt 0.47657356 0.45956263
vt 0.47657356 0.45956263
vn -0.20429328 -0.97890973 0
vn -0.21341753 -0.9769611 0
vn -0.21341753 -0.9769611 0
vn -0.20429328 -0.97890973 0
vn -0.29475528 -0.9555728 0
vn -0.29475528 -0.9555728 0
vn -0.43388245 -0.9009695 0
vn -0.43388245 -0.9009695 0
vn -0.56332046 -0.82623845 0
vn -0.56332046 -0.82623845 0
vn -0.68017364 -0.733051 0
vn -0.68017364 -0.733051 0
vn -0.7818313 -0.62349 0
vn -0.7818313 -0.62349 0
vn -0.8660248 -0.5000011 0
vn -0.8660248 -0.5000011 0
vn -0.9308734 -0.365342 0
vn -0.9308734 -0.365342 0
vn -0.9749278 -0.22252156 0
vn -0.9749278 -0.22252156 0
vn -0.9972038 -0.07473044 0
vn -0.9972038 -0.07473044 0
vn -0.99720365 0.07473245 0
vn -0.99720365 0.07473245 0
vn -0.9749273 0.22252353 0
vn -0.9749273 0.22252353 0
vn -0.9308741 0.36534014 0
vn -0.9308741 0.36534014 0
vn -0.8660273 0.4999967 0
vn -0.8660273 0.4999967 0
vn -0.78183305 0.62348783 0
vn -0.78183305 0.62348783 0
vn -0.6801712 0.73305327 0
vn -0.6801712 0.73305327 0
vn -0.56331766 0.82624036 0
vn -0.56331766 0.82624036 0
vn -0.43388227 0.90096956 0
vn -0.43388227 0.90096956 0
vn -0.29475513 0.95557284 0
vn -0.29475513 0.95557284 0
vn -0.21341683 0.97696126 0
vn -0.21341683 0.97696126 0
vn -0.2042926 0.9789099 0
vn -0.2042926 0.9789099 0
vn -0 0 1
vn -0 0 1
vn -0 0 1
vn -0 0 1
vn -0 0 1
vn -0 0 1
vn -0 0 1
vn -0 0 1
vn -0 0 1
vn -0 0 1
vn -0 0 1
vn -0 0 1
vn -0 0 1
vn -0 0 1
vn -0 0 1
vn -0 0 1
vn -0 0 1
vn -0 0 1
vn -0 0 1
vn -0 0 1
vn -0 0 1
vn -0 0 1
vn -0 0 1
vn -0 0 1
vn -0 0 1
vn -0 0 1
vn -0 0 1
vn -0 0 1
vn -0 0 1
vn -0 0 1
vn -0 0 1
vn -0 0 1
vn -0 0 1
vn -0 0 1
vn -0 0 1
vn -0 0 1
vn -0 0 1
vn -0 0 1
vn -0 0 1
vn -0 0 1
vn -0 0 1
vn -0 0 1
vn -0 0 1
vn -0 0 1
vn -0 1 0
vn -0 1 0
vn -0 1 0
vn -0 1 0
vn -0 0 -1
vn -0 0 -1
vn -0 0 -1
vn -0 0 -1
vn -0 0 -1
vn -0 0 -1
vn -0 0 -1
vn -0 0 -1
vn -0 0 -1
vn -0 0 -1
vn -0 0 -1
vn -0 0 -1
vn -0 0 -1
vn -0 0 -1
vn -0 0 -1
vn -0 0 -1
vn -0 0 -1
vn -0 0 -1
vn -0 0 -1
vn -0 0 -1
vn -0 0 -1
vn -0 0 -1
vn -0 0 -1
vn -0 0 -1
vn -0 0 -1
vn -0 0 -1
vn -0 0 -1
vn -0 0 -1
vn -0 0 -1
vn -0 0 -1
vn -0 0 -1
vn -0 0 -1
vn -0 0 -1
vn -0 0 -1
vn -0 0 -1
vn -0 0 -1
vn -0 0 -1
vn -0 0 -1
vn -0 0 -1
vn -0 0 -1
vn -0 0 -1
vn -0 0 -1
vn -0 0 -1
vn -0 0 -1
vn -0 -1 0
vn -0 -1 0
vn -0 -1 0
vn -0 -1 0
g pokestop_ia_arc_top_blade_0
f 3/3/3 2/2/2 1/1/1
f 4/4/4 3/3/3 1/1/1
f 3/3/3 5/5/5 2/2/2
f 5/5/5 6/6/6 2/2/2
f 5/5/5 7/7/7 6/6/6
f 7/7/7 8/8/8 6/6/6
f 7/7/7 9/9/9 8/8/8
f 9/9/9 10/10/10 8/8/8
f 9/9/9 11/11/11 10/10/10
f 11/11/11 12/12/12 10/10/10
f 11/11/11 13/13/13 12/12/12
f 13/13/13 14/14/14 12/12/12
f 13/13/13 15/15/15 14/14/14
f 15/15/15 16/16/16 14/14/14
f 15/15/15 17/17/17 16/16/16
f 17/17/17 18/18/18 16/16/16
f 17/17/17 19/19/19 18/18/18
f 19/19/19 20/20/20 18/18/18
f 19/19/19 21/21/21 20/20/20
f 21/21/21 22/22/22 20/20/20
f 21/21/21 23/23/23 22/22/22
f 23/23/23 24/24/24 22/22/22
f 23/23/23 25/25/25 24/24/24
f 25/25/25 26/26/26 24/24/24
f 25/25/25 27/27/27 26/26/26
f 27/27/27 28/28/28 26/26/26
f 27/27/27 29/29/29 28/28/28
f 29/29/29 30/30/30 28/28/28
f 29/29/29 31/31/31 30/30/30
f 31/31/31 32/32/32 30/30/30
f 31/31/31 33/33/33 32/32/32
f 33/33/33 34/34/34 32/32/32
f 33/33/33 35/35/35 34/34/34
f 35/35/35 36/36/36 34/34/34
f 35/35/35 37/37/37 36/36/36
f 37/37/37 38/38/38 36/36/36
f 37/37/37 39/39/39 38/38/38
f 39/39/39 40/40/40 38/38/38
f 39/39/39 41/41/41 40/40/40
f 41/41/41 42/42/42 40/40/40
f 41/41/41 43/43/43 42/42/42
f 43/43/43 44/44/44 42/42/42
f 47/47/47 46/46/46 45/45/45
f 48/48/48 47/47/47 45/45/45
f 45/45/45 46/46/46 49/49/49
f 46/46/46 50/50/50 49/49/49
f 49/49/49 50/50/50 51/51/51
f 50/50/50 52/52/52 51/51/51
f 51/51/51 52/52/52 53/53/53
f 52/52/52 54/54/54 53/53/53
f 53/53/53 54/54/54 55/55/55
f 54/54/54 56/56/56 55/55/55
f 55/55/55 56/56/56 57/57/57
f 56/56/56 58/58/58 57/57/57
f 57/57/57 58/58/58 59/59/59
f 58/58/58 60/60/60 59/59/59
f 59/59/59 60/60/60 61/61/61
f 60/60/60 62/62/62 61/61/61
f 61/61/61 62/62/62 63/63/63
f 62/62/62 64/64/64 63/63/63
f 63/63/63 64/64/64 65/65/65
f 64/64/64 66/66/66 65/65/65
f 65/65/65 66/66/66 67/67/67
f 66/66/66 68/68/68 67/67/67
f 67/67/67 68/68/68 69/69/69
f 68/68/68 70/70/70 69/69/69
f 69/69/69 70/70/70 71/71/71
f 70/70/70 72/72/72 71/71/71
f 71/71/71 72/72/72 73/73/73
f 72/72/72 74/74/74 73/73/73
f 73/73/73 74/74/74 75/75/75
f 74/74/74 76/76/76 75/75/75
f 75/75/75 76/76/76 77/77/77
f 76/76/76 78/78/78 77/77/77
f 77/77/77 78/78/78 79/79/79
f 78/78/78 80/80/80 79/79/79
f 79/79/79 80/80/80 81/81/81
f 80/80/80 82/82/82 81/81/81
f 81/81/81 82/82/82 83/83/83
f 82/82/82 84/84/84 83/83/83
f 83/83/83 84/84/84 85/85/85
f 84/84/84 86/86/86 85/85/85
f 85/85/85 86/86/86 87/87/87
f 86/86/86 88/88/88 87/87/87
f 91/91/91 90/90/90 89/89/89
f 92/92/92 91/91/91 89/89/89
f 95/95/95 94/94/94 93/93/93
f 96/96/96 95/95/95 93/93/93
f 97/97/97 95/95/95 96/96/96
f 98/98/98 97/97/97 96/96/96
f 99/99/99 97/97/97 98/98/98
f 100/100/100 99/99/99 98/98/98
f 101/101/101 99/99/99 100/100/100
f 102/102/102 101/101/101 100/100/100
f 103/103/103 101/101/101 102/102/102
f 104/104/104 103/103/103 102/102/102
f 105/105/105 103/103/103 104/104/104
f 106/106/106 105/105/105 104/104/104
f 107/107/107 105/105/105 106/106/106
f 108/108/108 107/107/107 106/106/106
f 109/109/109 107/107/107 108/108/108
f 110/110/110 109/109/109 108/108/108
f 111/111/111 109/109/109 110/110/110
f 112/112/112 111/111/111 110/110/110
f 113/113/113 111/111/111 112/112/112
f 114/114/114 113/113/113 112/112/112
f 115/115/115 113/113/113 114/114/114
f 116/116/116 115/115/115 114/114/114
f 117/117/117 115/115/115 116/116/116
f 118/118/118 117/117/117 116/116/116
f 119/119/119 117/117/117 118/118/118
f 120/120/120 119/119/119 118/118/118
f 121/121/121 119/119/119 120/120/120
f 122/122/122 121/121/121 120/120/120
f 123/123/123 121/121/121 122/122/122
f 124/124/124 123/123/123 122/122/122
f 125/125/125 123/123/123 124/124/124
f 126/126/126 125/125/125 124/124/124
f 127/127/127 125/125/125 126/126/126
f 128/128/128 127/127/127 126/126/126
f 129/129/129 127/127/127 128/128/128
f 130/130/130 129/129/129 128/128/128
f 131/131/131 129/129/129 130/130/130
f 132/132/132 131/131/131 130/130/130
f 133/133/133 131/131/131 132/132/132
f 134/134/134 133/133/133 132/132/132
f 135/135/135 133/133/133 134/134/134
f 136/136/136 135/135/135 134/134/134
f 139/139/139 138/138/138 137/137/137
f 140/140/140 139/139/139 137/137/137
