g pokestop_far_unvisited_ring
v 0.09305783 0.31692588 0.011447404
v -1.4438116E-08 0.33030558 0.011447404
v -1.4438116E-08 0.33030558 0
v 0.09305783 0.31692588 0
v 0.17857668 0.2778707 0.011447404
v 0.17857668 0.2778707 0
v 0.24962832 0.21630417 0.011447404
v 0.24962832 0.21630417 0
v 0.30045652 0.13721389 0.011447404
v 0.30045652 0.13721389 0
v 0.32694355 0.04700737 0.011447404
v 0.32694355 0.04700737 0
v 0.32694355 -0.04700741 0.011447404
v 0.32694355 -0.04700741 0
v 0.30045652 -0.13721392 0.011447404
v 0.30045652 -0.13721392 0
v 0.24962829 -0.21630418 0.011447404
v 0.24962829 -0.21630418 0
v 0.17857665 -0.27787074 0.011447404
v 0.17857665 -0.27787074 0
v 0.09305779 -0.3169259 0.011447404
v 0.09305779 -0.3169259 0
v -5.381361E-08 -0.33030558 0.011447404
v -5.381361E-08 -0.33030558 0
v -0.09305789 -0.31692588 0.011447404
v -0.09305789 -0.31692588 0
v -0.17857674 -0.2778707 0.011447404
v -0.17857674 -0.2778707 0
v -0.2496284 -0.2163041 0.011447404
v -0.2496284 -0.2163041 0
v -0.30045655 -0.13721384 0.011447404
v -0.30045655 -0.13721384 0
v -0.32694355 -0.04700734 0.011447404
v -0.32694355 -0.04700734 0
v -0.32694355 0.0470074 0.011447404
v -0.32694355 0.0470074 0
v -0.30045652 0.13721389 0.011447404
v -0.30045652 0.13721389 0
v -0.24962834 0.21630411 0.011447404
v -0.24962834 0.21630411 0
v -0.17857677 0.2778707 0.011447404
v -0.17857677 0.2778707 0
v -0.09305796 0.31692585 0.011447404
v -0.09305796 0.31692585 0
v -1.4438116E-08 0.33030558 0.011447404
v -1.4438116E-08 0.33030558 0
v -1.3957357E-08 0.31930712 0.011447404
v -1.4438116E-08 0.33030558 0.011447404
v 0.0899592 0.30637294 0.011447404
v 0.09305783 0.31692588 0.011447404
v 0.17857668 0.2778707 0.011447404
v 0.17263046 0.26861823 0.011447404
v 0.2413162 0.20910169 0.011447404
v 0.24962832 0.21630417 0.011447404
v 0.29045197 0.13264495 0.011447404
v 0.30045652 0.13721389 0.011447404
v 0.31605703 0.045442123 0.011447404
v 0.32694355 0.04700737 0.011447404
v 0.31605703 -0.045442164 0.011447404
v 0.32694355 -0.04700741 0.011447404
v 0.30045652 -0.13721392 0.011447404
v 0.29045194 -0.132645 0.011447404
v 0.2413162 -0.20910169 0.011447404
v 0.24962829 -0.21630418 0.011447404
v 0.17263043 -0.26861826 0.011447404
v 0.17857665 -0.27787074 0.011447404
v 0.08995916 -0.30637294 0.011447404
v 0.09305779 -0.3169259 0.011447404
v -5.381361E-08 -0.33030558 0.011447404
v -5.2021733E-08 -0.31930712 0.011447404
v -0.09305789 -0.31692588 0.011447404
v -0.089959264 -0.3063729 0.011447404
v -0.17857674 -0.2778707 0.011447404
v -0.1726305 -0.2686182 0.011447404
v -0.2496284 -0.2163041 0.011447404
v -0.2413163 -0.2091016 0.011447404
v -0.30045655 -0.13721384 0.011447404
v -0.29045197 -0.1326449 0.011447404
v -0.31605703 -0.045442097 0.011447404
v -0.32694355 -0.04700734 0.011447404
v -0.31605703 0.045442153 0.011447404
v -0.32694355 0.0470074 0.011447404
v -0.29045197 0.13264494 0.011447404
v -0.30045652 0.13721389 0.011447404
v -0.24131624 0.20910165 0.011447404
v -0.24962834 0.21630411 0.011447404
v -0.17263053 0.2686182 0.011447404
v -0.17857677 0.2778707 0.011447404
v -0.09305796 0.31692585 0.011447404
v -0.08995932 0.30637288 0.011447404
v -1.4438116E-08 0.33030558 0.011447404
v -1.3957357E-08 0.31930712 0.011447404
v -1.3957357E-08 0.31930712 0
v -1.3957357E-08 0.31930712 0.011447404
v 0.0899592 0.30637294 0
v 0.0899592 0.30637294 0.011447404
v 0.17263046 0.26861823 0
v 0.17263046 0.26861823 0.011447404
v 0.2413162 0.20910169 0
v 0.2413162 0.20910169 0.011447404
v 0.29045197 0.13264495 0
v 0.29045197 0.13264495 0.011447404
v 0.31605703 0.045442123 0
v 0.31605703 0.045442123 0.011447404
v 0.31605703 -0.045442164 0
v 0.31605703 -0.045442164 0.011447404
v 0.29045194 -0.132645 0
v 0.29045194 -0.132645 0.011447404
v 0.2413162 -0.20910169 0
v 0.2413162 -0.20910169 0.011447404
v 0.17263043 -0.26861826 0
v 0.17263043 -0.26861826 0.011447404
v 0.08995916 -0.30637294 0
v 0.08995916 -0.30637294 0.011447404
v -5.2021733E-08 -0.31930712 0
v -5.2021733E-08 -0.31930712 0.011447404
v -0.089959264 -0.3063729 0
v -0.089959264 -0.3063729 0.011447404
v -0.1726305 -0.2686182 0
v -0.1726305 -0.2686182 0.011447404
v -0.2413163 -0.2091016 0
v -0.2413163 -0.2091016 0.011447404
v -0.29045197 -0.1326449 0
v -0.29045197 -0.1326449 0.011447404
v -0.31605703 -0.045442097 0
v -0.31605703 -0.045442097 0.011447404
v -0.31605703 0.045442153 0
v -0.31605703 0.045442153 0.011447404
v -0.29045197 0.13264494 0
v -0.29045197 0.13264494 0.011447404
v -0.24131624 0.20910165 0
v -0.24131624 0.20910165 0.011447404
v -0.17263053 0.2686182 0
v -0.17263053 0.2686182 0.011447404
v -0.08995932 0.30637288 0
v -0.08995932 0.30637288 0.011447404
v -1.3957357E-08 0.31930712 0
v -1.3957357E-08 0.31930712 0.011447404
v -1.4438116E-08 0.33030558 0
v -1.3957357E-08 0.31930712 0
v 0.0899592 0.30637294 0
v 0.09305783 0.31692588 0
v 0.17857668 0.2778707 0
v 0.17263046 0.26861823 0
v 0.2413162 0.20910169 0
v 0.24962832 0.21630417 0
v 0.29045197 0.13264495 0
v 0.30045652 0.13721389 0
v 0.31605703 0.045442123 0
v 0.32694355 0.04700737 0
v 0.32694355 -0.04700741 0
v 0.31605703 -0.045442164 0
v 0.30045652 -0.13721392 0
v 0.29045194 -0.132645 0
v 0.2413162 -0.20910169 0
v 0.24962829 -0.21630418 0
v 0.17263043 -0.26861826 0
v 0.17857665 -0.27787074 0
v 0.08995916 -0.30637294 0
v 0.09305779 -0.3169259 0
v -5.381361E-08 -0.33030558 0
v -5.2021733E-08 -0.31930712 0
v -0.09305789 -0.31692588 0
v -0.089959264 -0.3063729 0
v -0.17857674 -0.2778707 0
v -0.1726305 -0.2686182 0
v -0.2496284 -0.2163041 0
v -0.2413163 -0.2091016 0
v -0.30045655 -0.13721384 0
v -0.29045197 -0.1326449 0
v -0.31605703 -0.045442097 0
v -0.32694355 -0.04700734 0
v -0.31605703 0.045442153 0
v -0.32694355 0.0470074 0
v -0.29045197 0.13264494 0
v -0.30045652 0.13721389 0
v -0.24131624 0.20910165 0
v -0.24962834 0.21630411 0
v -0.17263053 0.2686182 0
v -0.17857677 0.2778707 0
v -0.09305796 0.31692585 0
v -0.08995932 0.30637288 0
v -1.4438116E-08 0.33030558 0
v -1.3957357E-08 0.31930712 0
vt 0.25 0.045454547
vt 0.25 0
vt 0 0
vt 0 0.045454547
vt 0.25 0.09090909
vt 0 0.09090909
vt 0.25 0.13636364
vt 0 0.13636364
vt 0.25 0.18181819
vt 0 0.18181819
vt 0.25 0.22727273
vt 0 0.22727273
vt 0.25 0.27272728
vt 0 0.27272728
vt 0.25 0.3181818
vt 0 0.3181818
vt 0.25 0.36363637
vt 0 0.36363637
vt 0.25 0.4090909
vt 0 0.4090909
vt 0.25 0.45454547
vt 0 0.45454547
vt 0.25 0.5
vt 0 0.5
vt 0.25 0.54545456
vt 0 0.54545456
vt 0.25 0.59090906
vt 0 0.59090906
vt 0.25 0.6363636
vt 0 0.6363636
vt 0.25 0.6818182
vt 0 0.6818182
vt 0.25 0.72727275
vt 0 0.72727275
vt 0.25 0.77272725
vt 0 0.77272725
vt 0.25 0.8181818
vt 0 0.8181818
vt 0.25 0.8636364
vt 0 0.8636364
vt 0.25 0.90909094
vt 0 0.90909094
vt 0.25 0.95454544
vt 0 0.95454544
vt 0.25 1
vt 0 1
vt 0.5 0
vt 0.25 0
vt 0.5 0.045454547
vt 0.25 0.045454547
vt 0.25 0.09090909
vt 0.5 0.09090909
vt 0.5 0.13636364
vt 0.25 0.13636364
vt 0.5 0.18181819
vt 0.25 0.18181819
vt 0.5 0.22727273
vt 0.25 0.22727273
vt 0.5 0.27272728
vt 0.25 0.27272728
vt 0.25 0.3181818
vt 0.5 0.3181818
vt 0.5 0.36363637
vt 0.25 0.36363637
vt 0.5 0.4090909
vt 0.25 0.4090909
vt 0.5 0.45454547
vt 0.25 0.45454547
vt 0.25 0.5
vt 0.5 0.5
vt 0.25 0.54545456
vt 0.5 0.54545456
vt 0.25 0.59090906
vt 0.5 0.59090906
vt 0.25 0.6363636
vt 0.5 0.6363636
vt 0.25 0.6818182
vt 0.5 0.6818182
vt 0.5 0.72727275
vt 0.25 0.72727275
vt 0.5 0.77272725
vt 0.25 0.77272725
vt 0.5 0.8181818
vt 0.25 0.8181818
vt 0.5 0.8636364
vt 0.25 0.8636364
vt 0.5 0.90909094
vt 0.25 0.90909094
vt 0.25 0.95454544
vt 0.5 0.95454544
vt 0.25 1
vt 0.5 1
vt 0.75 0
vt 0.5 0
vt 0.75 0.045454547
vt 0.5 0.045454547
vt 0.75 0.09090909
vt 0.5 0.09090909
vt 0.75 0.13636364
vt 0.5 0.13636364
vt 0.75 0.18181819
vt 0.5 0.18181819
vt 0.75 0.22727273
vt 0.5 0.22727273
vt 0.75 0.27272728
vt 0.5 0.27272728
vt 0.75 0.3181818
vt 0.5 0.3181818
vt 0.75 0.36363637
vt 0.5 0.36363637
vt 0.75 0.4090909
vt 0.5 0.4090909
vt 0.75 0.45454547
vt 0.5 0.45454547
vt 0.75 0.5
vt 0.5 0.5
vt 0.75 0.54545456
vt 0.5 0.54545456
vt 0.75 0.59090906
vt 0.5 0.59090906
vt 0.75 0.6363636
vt 0.5 0.6363636
vt 0.75 0.6818182
vt 0.5 0.6818182
vt 0.75 0.72727275
vt 0.5 0.72727275
vt 0.75 0.77272725
vt 0.5 0.77272725
vt 0.75 0.8181818
vt 0.5 0.8181818
vt 0.75 0.8636364
vt 0.5 0.8636364
vt 0.75 0.90909094
vt 0.5 0.90909094
vt 0.75 0.95454544
vt 0.5 0.95454544
vt 0.75 1
vt 0.5 1
vt 1 0
vt 0.75 0
vt 0.75 0.045454547
vt 1 0.045454547
vt 1 0.09090909
vt 0.75 0.09090909
vt 0.75 0.13636364
vt 1 0.13636364
vt 0.75 0.18181819
vt 1 0.18181819
vt 0.75 0.22727273
vt 1 0.22727273
vt 1 0.27272728
vt 0.75 0.27272728
vt 1 0.3181818
vt 0.75 0.3181818
vt 0.75 0.36363637
vt 1 0.36363637
vt 0.75 0.4090909
vt 1 0.4090909
vt 0.75 0.45454547
vt 1 0.45454547
vt 1 0.5
vt 0.75 0.5
vt 1 0.54545456
vt 0.75 0.54545456
vt 1 0.59090906
vt 0.75 0.59090906
vt 1 0.6363636
vt 0.75 0.6363636
vt 1 0.6818182
vt 0.75 0.6818182
vt 0.75 0.72727275
vt 1 0.72727275
vt 0.75 0.77272725
vt 1 0.77272725
vt 0.75 0.8181818
vt 1 0.8181818
vt 0.75 0.8636364
vt 1 0.8636364
vt 0.75 0.90909094
vt 1 0.90909094
vt 1 0.95454544
vt 0.75 0.95454544
vt 1 1
vt 0.75 1
vn 0.28173256 0.9594929 0
vn -0 1 0
vn -0 1 0
vn 0.28173256 0.9594929 0
vn 0.5406408 0.8412536 0
vn 0.5406408 0.8412536 0
vn 0.7557496 0.6548608 0
vn 0.7557496 0.6548608 0
vn 0.909632 0.415415 0
vn 0.909632 0.415415 0
vn 0.98982143 0.14231484 0
vn 0.98982143 0.14231484 0
vn 0.98982143 -0.14231496 0
vn 0.98982143 -0.14231496 0
vn 0.90963197 -0.41541508 0
vn 0.90963197 -0.41541508 0
vn 0.7557495 -0.65486085 0
vn 0.7557495 -0.65486085 0
vn 0.5406407 -0.84125364 0
vn 0.5406407 -0.84125364 0
vn 0.28173244 -0.959493 0
vn 0.28173244 -0.959493 0
vn -0 -1 0
vn -0 -1 0
vn -0.2817327 -0.9594929 0
vn -0.2817327 -0.9594929 0
vn -0.5406409 -0.84125346 0
vn -0.5406409 -0.84125346 0
vn -0.75574976 -0.6548605 0
vn -0.75574976 -0.6548605 0
vn -0.90963215 -0.41541475 0
vn -0.90963215 -0.41541475 0
vn -0.98982143 -0.14231475 0
vn -0.98982143 -0.14231475 0
vn -0.98982143 0.1423149 0
vn -0.98982143 0.1423149 0
vn -0.90963197 0.41541502 0
vn -0.90963197 0.41541502 0
vn -0.75574976 0.65486056 0
vn -0.75574976 0.65486056 0
vn -0.54064107 0.84125334 0
vn -0.54064107 0.84125334 0
vn -0.28173274 0.9594929 0
vn -0.28173274 0.9594929 0
vn -0 1 0
vn -0 1 0
vn -0 0 1
vn -0 0 1
vn -0 0 1
vn -0 0 1
vn -0 0 1
vn -0 0 1
vn -0 0 1
vn -0 0 1
vn -0 0 1
vn -0 0 1
vn -0 0 1
vn -0 0 1
vn -0 0 1
vn -0 0 1
vn -0 0 1
vn -0 0 1
vn -0 0 1
vn -0 0 1
vn -0 0 1
vn -0 0 1
vn -0 0 1
vn -0 0 1
vn -0 0 1
vn -0 0 1
vn -0 0 1
vn -0 0 1
vn -0 0 1
vn -0 0 1
vn -0 0 1
vn -0 0 1
vn -0 0 1
vn -0 0 1
vn -0 0 1
vn -0 0 1
vn -0 0 1
vn -0 0 1
vn -0 0 1
vn -0 0 1
vn -0 0 1
vn -0 0 1
vn -0 0 1
vn -0 0 1
vn -0 0 1
vn -0 0 1
vn -0 0 1
vn -0 0 1
vn -0 -1 0
vn -0 -1 0
vn -0.28173256 -0.9594929 0
vn -0.28173256 -0.9594929 0
vn -0.5406409 -0.8412535 0
vn -0.5406409 -0.8412535 0
vn -0.7557496 -0.6548608 0
vn -0.7557496 -0.6548608 0
vn -0.909632 -0.415415 0
vn -0.909632 -0.415415 0
vn -0.98982143 -0.14231478 0
vn -0.98982143 -0.14231478 0
vn -0.98982143 0.14231491 0
vn -0.98982143 0.14231491 0
vn -0.90963197 0.41541508 0
vn -0.90963197 0.41541508 0
vn -0.75574964 0.6548607 0
vn -0.75574964 0.6548607 0
vn -0.5406408 0.8412536 0
vn -0.5406408 0.8412536 0
vn -0.28173244 0.959493 0
vn -0.28173244 0.959493 0
vn -0 1 0
vn -0 1 0
vn 0.28173274 0.9594929 0
vn 0.28173274 0.9594929 0
vn 0.540641 0.8412534 0
vn 0.540641 0.8412534 0
vn 0.75574976 0.6548605 0
vn 0.75574976 0.6548605 0
vn 0.90963215 0.4154146 0
vn 0.90963215 0.4154146 0
vn 0.98982143 0.1423147 0
vn 0.98982143 0.1423147 0
vn 0.98982143 -0.14231488 0
vn 0.98982143 -0.14231488 0
vn 0.9096321 -0.4154149 0
vn 0.9096321 -0.4154149 0
vn 0.75574976 -0.65486056 0
vn 0.75574976 -0.65486056 0
vn 0.540641 -0.8412534 0
vn 0.540641 -0.8412534 0
vn 0.28173274 -0.9594929 0
vn 0.28173274 -0.9594929 0
vn -0 -1 0
vn -0 -1 0
vn -0 0 -1
vn -0 0 -1
vn -0 0 -1
vn -0 0 -1
vn -0 0 -1
vn -0 0 -1
vn -0 0 -1
vn -0 0 -1
vn -0 0 -1
vn -0 0 -1
vn -0 0 -1
vn -0 0 -1
vn -0 0 -1
vn -0 0 -1
vn -0 0 -1
vn -0 0 -1
vn -0 0 -1
vn -0 0 -1
vn -0 0 -1
vn -0 0 -1
vn -0 0 -1
vn -0 0 -1
vn -0 0 -1
vn -0 0 -1
vn -0 0 -1
vn -0 0 -1
vn -0 0 -1
vn -0 0 -1
vn -0 0 -1
vn -0 0 -1
vn -0 0 -1
vn -0 0 -1
vn -0 0 -1
vn -0 0 -1
vn -0 0 -1
vn -0 0 -1
vn -0 0 -1
vn -0 0 -1
vn -0 0 -1
vn -0 0 -1
vn -0 0 -1
vn -0 0 -1
vn -0 0 -1
vn -0 0 -1
vn -0 0 -1
vn -0 0 -1
g pokestop_far_unvisited_ring_0
f 3/3/3 2/2/2 1/1/1
f 1/1/1 4/4/4 3/3/3
f 4/4/4 1/1/1 5/5/5
f 5/5/5 6/6/6 4/4/4
f 6/6/6 5/5/5 7/7/7
f 7/7/7 8/8/8 6/6/6
f 8/8/8 7/7/7 9/9/9
f 9/9/9 10/10/10 8/8/8
f 10/10/10 9/9/9 11/11/11
f 11/11/11 12/12/12 10/10/10
f 12/12/12 11/11/11 13/13/13
f 13/13/13 14/14/14 12/12/12
f 14/14/14 13/13/13 15/15/15
f 15/15/15 16/16/16 14/14/14
f 16/16/16 15/15/15 17/17/17
f 17/17/17 18/18/18 16/16/16
f 18/18/18 17/17/17 19/19/19
f 19/19/19 20/20/20 18/18/18
f 20/20/20 19/19/19 21/21/21
f 21/21/21 22/22/22 20/20/20
f 22/22/22 21/21/21 23/23/23
f 23/23/23 24/24/24 22/22/22
f 24/24/24 23/23/23 25/25/25
f 25/25/25 26/26/26 24/24/24
f 26/26/26 25/25/25 27/27/27
f 27/27/27 28/28/28 26/26/26
f 28/28/28 27/27/27 29/29/29
f 29/29/29 30/30/30 28/28/28
f 30/30/30 29/29/29 31/31/31
f 31/31/31 32/32/32 30/30/30
f 32/32/32 31/31/31 33/33/33
f 33/33/33 34/34/34 32/32/32
f 34/34/34 33/33/33 35/35/35
f 35/35/35 36/36/36 34/34/34
f 36/36/36 35/35/35 37/37/37
f 37/37/37 38/38/38 36/36/36
f 38/38/38 37/37/37 39/39/39
f 39/39/39 40/40/40 38/38/38
f 40/40/40 39/39/39 41/41/41
f 41/41/41 42/42/42 40/40/40
f 42/42/42 41/41/41 43/43/43
f 43/43/43 44/44/44 42/42/42
f 44/44/44 43/43/43 45/45/45
f 45/45/45 46/46/46 44/44/44
f 49/49/49 48/48/48 47/47/47
f 48/48/48 49/49/49 50/50/50
f 51/51/51 50/50/50 49/49/49
f 49/49/49 52/52/52 51/51/51
f 51/51/51 52/52/52 53/53/53
f 51/51/51 53/53/53 54/54/54
f 54/54/54 53/53/53 55/55/55
f 55/55/55 56/56/56 54/54/54
f 56/56/56 55/55/55 57/57/57
f 57/57/57 58/58/58 56/56/56
f 58/58/58 57/57/57 59/59/59
f 59/59/59 60/60/60 58/58/58
f 61/61/61 60/60/60 59/59/59
f 59/59/59 62/62/62 61/61/61
f 63/63/63 61/61/61 62/62/62
f 61/61/61 63/63/63 64/64/64
f 65/65/65 64/64/64 63/63/63
f 64/64/64 65/65/65 66/66/66
f 66/66/66 65/65/65 67/67/67
f 66/66/66 67/67/67 68/68/68
f 69/69/69 68/68/68 67/67/67
f 67/67/67 70/70/70 69/69/69
f 71/71/71 69/69/69 70/70/70
f 70/70/70 72/72/72 71/71/71
f 73/73/73 71/71/71 72/72/72
f 72/72/72 74/74/74 73/73/73
f 75/75/75 73/73/73 74/74/74
f 74/74/74 76/76/76 75/75/75
f 77/77/77 75/75/75 76/76/76
f 76/76/76 78/78/78 77/77/77
f 79/79/79 77/77/77 78/78/78
f 77/77/77 79/79/79 80/80/80
f 80/80/80 79/79/79 81/81/81
f 80/80/80 81/81/81 82/82/82
f 82/82/82 81/81/81 83/83/83
f 82/82/82 83/83/83 84/84/84
f 84/84/84 83/83/83 85/85/85
f 85/85/85 86/86/86 84/84/84
f 86/86/86 85/85/85 87/87/87
f 87/87/87 88/88/88 86/86/86
f 89/89/89 88/88/88 87/87/87
f 87/87/87 90/90/90 89/89/89
f 91/91/91 89/89/89 90/90/90
f 90/90/90 92/92/92 91/91/91
f 95/95/95 94/94/94 93/93/93
f 94/94/94 95/95/95 96/96/96
f 97/97/97 96/96/96 95/95/95
f 96/96/96 97/97/97 98/98/98
f 99/99/99 98/98/98 97/97/97
f 98/98/98 99/99/99 100/100/100
f 101/101/101 100/100/100 99/99/99
f 100/100/100 101/101/101 102/102/102
f 103/103/103 102/102/102 101/101/101
f 102/102/102 103/103/103 104/104/104
f 105/105/105 104/104/104 103/103/103
f 104/104/104 105/105/105 106/106/106
f 107/107/107 106/106/106 105/105/105
f 106/106/106 107/107/107 108/108/108
f 109/109/109 108/108/108 107/107/107
f 108/108/108 109/109/109 110/110/110
f 111/111/111 110/110/110 109/109/109
f 110/110/110 111/111/111 112/112/112
f 113/113/113 112/112/112 111/111/111
f 112/112/112 113/113/113 114/114/114
f 115/115/115 114/114/114 113/113/113
f 114/114/114 115/115/115 116/116/116
f 117/117/117 116/116/116 115/115/115
f 116/116/116 117/117/117 118/118/118
f 119/119/119 118/118/118 117/117/117
f 118/118/118 119/119/119 120/120/120
f 121/121/121 120/120/120 119/119/119
f 120/120/120 121/121/121 122/122/122
f 123/123/123 122/122/122 121/121/121
f 122/122/122 123/123/123 124/124/124
f 125/125/125 124/124/124 123/123/123
f 124/124/124 125/125/125 126/126/126
f 127/127/127 126/126/126 125/125/125
f 126/126/126 127/127/127 128/128/128
f 129/129/129 128/128/128 127/127/127
f 128/128/128 129/129/129 130/130/130
f 131/131/131 130/130/130 129/129/129
f 130/130/130 131/131/131 132/132/132
f 133/133/133 132/132/132 131/131/131
f 132/132/132 133/133/133 134/134/134
f 135/135/135 134/134/134 133/133/133
f 134/134/134 135/135/135 136/136/136
f 137/137/137 136/136/136 135/135/135
f 136/136/136 137/137/137 138/138/138
f 141/141/141 140/140/140 139/139/139
f 139/139/139 142/142/142 141/141/141
f 143/143/143 141/141/141 142/142/142
f 143/143/143 144/144/144 141/141/141
f 145/145/145 144/144/144 143/143/143
f 143/143/143 146/146/146 145/145/145
f 147/147/147 145/145/145 146/146/146
f 146/146/146 148/148/148 147/147/147
f 149/149/149 147/147/147 148/148/148
f 148/148/148 150/150/150 149/149/149
f 149/149/149 150/150/150 151/151/151
f 149/149/149 151/151/151 152/152/152
f 153/153/153 152/152/152 151/151/151
f 152/152/152 153/153/153 154/154/154
f 155/155/155 154/154/154 153/153/153
f 153/153/153 156/156/156 155/155/155
f 157/157/157 155/155/155 156/156/156
f 156/156/156 158/158/158 157/157/157
f 159/159/159 157/157/157 158/158/158
f 158/158/158 160/160/160 159/159/159
f 159/159/159 160/160/160 161/161/161
f 161/161/161 162/162/162 159/159/159
f 162/162/162 161/161/161 163/163/163
f 162/162/162 163/163/163 164/164/164
f 164/164/164 163/163/163 165/165/165
f 164/164/164 165/165/165 166/166/166
f 167/167/167 166/166/166 165/165/165
f 166/166/166 167/167/167 168/168/168
f 169/169/169 168/168/168 167/167/167
f 168/168/168 169/169/169 170/170/170
f 171/171/171 170/170/170 169/169/169
f 169/169/169 172/172/172 171/171/171
f 173/173/173 171/171/171 172/172/172
f 172/172/172 174/174/174 173/173/173
f 175/175/175 173/173/173 174/174/174
f 174/174/174 176/176/176 175/175/175
f 177/177/177 175/175/175 176/176/176
f 176/176/176 178/178/178 177/177/177
f 179/179/179 177/177/177 178/178/178
f 178/178/178 180/180/180 179/179/179
f 180/180/180 181/181/181 179/179/179
f 179/179/179 181/181/181 182/182/182
f 183/183/183 182/182/182 181/181/181
f 182/182/182 183/183/183 184/184/184
