g potion_max_liquid1
v -0.024350673 0.010523228 0.022576828
v 0.024350688 0.010523228 0.022576828
v 0.024350688 -0.010523231 0.022576828
v -0.024350673 -0.010523231 0.022576828
v -0.025586406 -0.010523231 0.021341123
v -0.025586406 0.010523228 0.021341123
v 0.02558642 0.010523228 0.021341123
v 0.02558642 -0.010523231 0.021341123
v 0.02558642 0.010523228 0.021341123
v 0.02558642 0.010523228 -0.022576826
v 0.02558642 -0.010523231 -0.022576826
v 0.02558642 -0.010523231 0.021341123
v -0.025586406 -0.010523231 -0.022576826
v -0.025586406 0.010523228 -0.022576826
v -0.025586406 0.010523228 0.021341123
v -0.025586406 -0.010523231 0.021341123
v 0.02558642 0.010523228 0.021341123
v -0.025586406 0.010523228 0.021341123
v -0.025586406 0.010523228 -0.022576826
v 0.02558642 0.010523228 -0.022576826
v 0.024350688 0.010523228 0.022576828
v -0.024350673 0.010523228 0.022576828
v 0.02558642 -0.010523231 -0.022576826
v -0.025586406 -0.010523231 -0.022576826
v -0.025586406 -0.010523231 0.021341123
v 0.02558642 -0.010523231 0.021341123
v -0.024350673 -0.010523231 0.022576828
v 0.024350688 -0.010523231 0.022576828
vt 0.045839787 0.5521015
vt 0.35908127 0.5521016
vt 0.35908133 0.4167332
vt 0.045839787 0.41673318
vt 0.03789176 0.4167332
vt 0.03789176 0.5521016
vt 0.3670292 0.5521016
vt 0.3670292 0.4167332
vt 0.06647301 0.5539173
vt 0.34894812 0.5539173
vt 0.34894818 0.41854882
vt 0.06647295 0.41854885
vt 0.057997003 0.41684425
vt 0.05799696 0.5522126
vt 0.34047204 0.5522126
vt 0.3404721 0.41684425
vt 0.18943024 0.57317066
vt 0.032259375 0.57317066
vt 0.032259524 0.7080591
vt 0.1894302 0.70805913
vt 0.18563497 0.5693754
vt 0.03605485 0.56937546
vt 0.031505525 0.7079462
vt 0.18867636 0.707946
vt 0.18867642 0.57305765
vt 0.031505585 0.5730577
vt 0.18488097 0.5692624
vt 0.03530091 0.5692623
vn -0.024737619 0 0.99969393
vn 0.024737619 0 0.99969393
vn 0.024737619 0 0.99969393
vn -0.024737619 0 0.99969393
vn -0.99962574 0 0.027357047
vn -0.99962574 0 0.027357047
vn 0.99962574 0 0.027357047
vn 0.99962574 0 0.027357047
vn 0.99962574 0 0.027357047
vn 1 0 0
vn 1 0 0
vn 0.99962574 0 0.027357047
vn -1 0 0
vn -1 0 0
vn -0.99962574 0 0.027357047
vn -0.99962574 0 0.027357047
vn -0 1 0
vn -0 1 0
vn -0 1 0
vn -0 1 0
vn -0 1 0
vn -0 1 0
vn -0 -1 0
vn -0 -1 0
vn -0 -1 0
vn -0 -1 0
vn -0 -1 0
vn -0 -1 0
g potion_max_liquid1_0
f 3/3/3 2/2/2 1/1/1
f 4/4/4 3/3/3 1/1/1
f 4/4/4 1/1/1 5/5/5
f 1/1/1 6/6/6 5/5/5
f 7/7/7 2/2/2 3/3/3
f 8/8/8 7/7/7 3/3/3
f 11/11/11 10/10/10 9/9/9
f 12/12/12 11/11/11 9/9/9
f 15/15/15 14/14/14 13/13/13
f 16/16/16 15/15/15 13/13/13
f 19/19/19 18/18/18 17/17/17
f 20/20/20 19/19/19 17/17/17
f 17/17/17 18/18/18 21/21/21
f 18/18/18 22/22/22 21/21/21
f 25/25/25 24/24/24 23/23/23
f 26/26/26 25/25/25 23/23/23
f 27/27/27 25/25/25 26/26/26
f 28/28/28 27/27/27 26/26/26
