g Purify_Background_Geo
v 8.627853 0.466878 -6.2685027
v 10.664607 0.466878 0
v 10.664607 -10.664607 0
v 8.627853 -10.664607 -6.2685027
v 3.2955465 -10.664607 -10.142649
v 3.2955465 0.466878 -10.142649
v -3.2955465 -10.664607 -10.142648
v -3.2955465 0.466878 -10.142648
v -8.6278515 -10.664607 -6.268501
v -8.6278515 0.466878 -6.268501
v -10.664609 -10.664607 0
v -10.664609 0.466878 0
v 7.509004 5.516195 -5.4556108
v 2.868184 5.516195 -8.827363
v -2.868184 5.516195 -8.827362
v -7.5090013 5.516195 -5.455609
v -9.281636 5.516195 -2.4729482E-07
v 4.9231253 8.713386 -3.5768607
v 1.8804656 8.713386 -5.78748
v -1.880467 8.713386 -5.787478
v -4.9231253 8.713386 -3.5768595
v -6.0853167 8.713386 -8.1884144E-07
v 6.085314 8.713386 -8.1884144E-07
v 9.281633 5.516195 -2.4729482E-07
v 1.6944053 9.844018 -1.2310612
v 2.0944002 9.844018 -1.5140625E-06
v 0.64720505 9.844018 -1.9918959
v -0.6472073 9.844018 -1.991895
v -1.6944075 9.844018 -1.2310607
v -2.094404 9.844018 -1.5140625E-06
v -1.5565157E-06 9.996879 -1.8630136E-06
vt 0.0387727 0.08896388
vt 0.040863205 0.08896388
vt 0.04157787 0.01624082
vt 0.03940913 0.01624158
vt 0.036848404 0.01624082
vt 0.03658894 0.08896388
vt 0.034138553 0.01624158
vt 0.0343715 0.08896388
vt 0.031567343 0.01624082
vt 0.03219935 0.08896388
vt 0.029377399 0.01624082
vt 0.03013138 0.08896388
vt 0.038637735 0.19391082
vt 0.036556654 0.19391082
vt 0.034462202 0.19391082
vt 0.032390304 0.19391082
vt 0.03036536 0.19391082
vt 0.03856292 0.2562352
vt 0.036539253 0.2562352
vt 0.034511745 0.2562352
vt 0.032493547 0.2562352
vt 0.03049166 0.2562352
vt 0.040574633 0.2562352
vt 0.04068011 0.19391082
vt 0.038551573 0.29989523
vt 0.040565707 0.29989523
vt 0.036541995 0.29989523
vt 0.03453479 0.29989523
vt 0.032529302 0.29989487
vt 0.030522864 0.29989523
vt 0.033527814 0.31125838
vn -0.8086486 -0.030174311 0.5875176
vn -0.9995446 -0.030174285 -7.5902204E-07
vn -1 0 -7.720383E-07
vn -0.80901694 0 0.58778536
vn -0.3090168 0 0.95105654
vn -0.30887604 -0.030174322 0.9506235
vn 0.30901718 0 0.9510565
vn 0.30887648 -0.03017429 0.9506234
vn 0.80901706 0 0.5877851
vn 0.80864877 -0.030174289 0.58751744
vn 1 0 0
vn 0.9995446 -0.030174201 0
vn -0.7204393 -0.45495978 0.5234299
vn -0.27518323 -0.45495966 0.84692734
vn 0.27518344 -0.4549598 0.84692717
vn 0.72043955 -0.4549596 0.5234297
vn 0.89051205 -0.4549596 0
vn -0.41446483 -0.85880256 0.3011262
vn -0.15831132 -0.85880256 0.48723274
vn 0.1583116 -0.8588025 0.4872327
vn 0.4144651 -0.8588025 0.30112618
vn 0.51230687 -0.85880244 0
vn -0.5123068 -0.8588025 -3.9029732E-07
vn -0.890512 -0.45495978 -6.292979E-07
vn -0.12414942 -0.9881553 0.09019985
vn -0.1534571 -0.9881553 0
vn -0.04742091 -0.9881553 0.14594644
vn 0.04742102 -0.9881553 0.1459463
vn 0.12414953 -0.98815525 0.090200014
vn 0.15345722 -0.98815525 0
vn -0.06305341 -0.99695814 0.045811977
g Purify_Background_Geo_0
f 3/3/3 2/2/2 1/1/1
f 4/4/4 3/3/3 1/1/1
f 4/4/4 1/1/1 5/5/5
f 1/1/1 6/6/6 5/5/5
f 5/5/5 6/6/6 7/7/7
f 6/6/6 8/8/8 7/7/7
f 7/7/7 8/8/8 9/9/9
f 8/8/8 10/10/10 9/9/9
f 9/9/9 10/10/10 11/11/11
f 10/10/10 12/12/12 11/11/11
f 1/1/1 13/13/13 6/6/6
f 13/13/13 14/14/14 6/6/6
f 6/6/6 14/14/14 8/8/8
f 14/14/14 15/15/15 8/8/8
f 8/8/8 15/15/15 10/10/10
f 15/15/15 16/16/16 10/10/10
f 10/10/10 16/16/16 12/12/12
f 16/16/16 17/17/17 12/12/12
f 13/13/13 18/18/18 14/14/14
f 18/18/18 19/19/19 14/14/14
f 14/14/14 19/19/19 15/15/15
f 19/19/19 20/20/20 15/15/15
f 15/15/15 20/20/20 16/16/16
f 20/20/20 21/21/21 16/16/16
f 16/16/16 21/21/21 17/17/17
f 21/21/21 22/22/22 17/17/17
f 23/23/23 18/18/18 13/13/13
f 24/24/24 23/23/23 13/13/13
f 24/24/24 13/13/13 1/1/1
f 2/2/2 24/24/24 1/1/1
f 18/18/18 23/23/23 25/25/25
f 18/18/18 25/25/25 19/19/19
f 23/23/23 26/26/26 25/25/25
f 25/25/25 27/27/27 19/19/19
f 19/19/19 27/27/27 20/20/20
f 27/27/27 28/28/28 20/20/20
f 20/20/20 28/28/28 21/21/21
f 28/28/28 29/29/29 21/21/21
f 21/21/21 29/29/29 22/22/22
f 29/29/29 30/30/30 22/22/22
f 25/25/25 26/26/26 31/31/31
f 25/25/25 31/31/31 27/27/27
f 27/27/27 31/31/31 28/28/28
f 28/28/28 31/31/31 29/29/29
f 29/29/29 31/31/31 30/30/30
