g ribbon
v 3.3855524 0.48677582 3.316079
v 1.5790057 0.4833819 3.9908717
v 2.6077192 0.15874662 2.6266959
v 1.0917141 0.19532661 3.4166296
v 2.015919 0.049119238 2.0191045
v 0.7205769 0.07380066 2.9597251
v 0.9424484 -0.104321204 0.7367211
v 0.02547968 -0.06901256 1.9074682
v 0.124021694 -0.15476139 -0.42376277
v -0.84318537 -0.1364112 0.6607858
v -0.77176625 -0.07763787 -1.9689846
v -1.6215328 -0.04863352 -1.623856
v -1.2466358 0.19857393 -3.3877897
v -1.6218199 0.12864363 -2.1520054
v -1.0523918 0.4756747 -3.8882556
v -0.81342816 0.558153 -2.8516765
v -0.011856788 0.73732144 -4.187106
v -0.011856079 0.6361813 -3.0250876
v -0.4223648 -0.13014384 -1.3042139
v -1.362136 -0.123621844 -0.6665304
v -0.6510146 0.6677973 -4.116334
v -0.309843 0.6322829 -3.0032098
v -1.3837507 0.39428264 -2.6109588
v -1.1965595 0.3665734 -3.7694423
v -3.3804836 0.4838128 3.316079
v -1.5749551 0.47790962 3.9908717
v -2.6030889 0.15203571 2.6266959
v -1.0879381 0.18995298 3.4166296
v -2.0116222 0.054678664 2.0191045
v -0.7170101 0.07936008 2.9597251
v -0.93875647 -0.042263996 0.7367211
v -0.022304546 -0.011427448 1.9074682
v -0.12083688 -0.086063884 -0.42718658
v 0.8459167 -0.06808054 0.6607858
v 0.77455986 -0.06989773 -2.0088544
v 1.6238095 -0.040804785 -1.6637259
v 1.2491703 0.20000063 -3.394024
v 1.6241338 0.17444037 -2.2175765
v 1.0549659 0.4762336 -3.88995
v 0.81613046 0.55830425 -2.8565214
v 0.42533362 -0.11761897 -1.3180743
v 1.3645079 -0.11817395 -0.675121
v 0.65380853 0.66699314 -4.116334
v 0.3129021 0.62876135 -3.004344
v 1.386118 0.35948065 -2.5819228
v 1.199097 0.36741102 -3.772613
v 1.6336142 0.063347325 -1.9669421
v 1.0187067 0.037464675 -2.7288792
v -1.0160426 0.034601834 -2.71441
v -1.6313187 0.03849549 -1.9193786
v -1.2466358 0.19857393 -3.3877897
v -1.6218199 0.12864363 -2.1520054
v -0.011856788 0.73732144 -4.187106
v -0.011856079 0.6361813 -3.0250876
v 1.6241338 0.17444037 -2.2175765
v 1.2491703 0.20000063 -3.394024
vt 0 0
vt 1 0
vt 0 0.125
vt 1 0.125
vt 0 0.25
vt 1 0.25
vt 0 0.375
vt 1 0.375
vt 0 0.5
vt 1 0.5
vt 0 0.625
vt 1 0.625
vt 0 0.75
vt 1 0.75
vt 0 0.875
vt 1 0.875
vt -0.0021280637 1.0024365
vt 1.0092375 0.98957545
vt 0 0.5625
vt 1 0.5625
vt 0 0.9375
vt 1 0.9375
vt 1 0.8125
vt 0 0.8125
vt 0 0
vt 1 0
vt 0 0.125
vt 1 0.125
vt 0 0.25
vt 1 0.25
vt 0 0.375
vt 1 0.375
vt 0 0.5
vt 1 0.5
vt 0 0.625
vt 1 0.625
vt 0 0.75
vt 1 0.75
vt 0 0.875
vt 1 0.875
vt 0 0.5625
vt 1 0.5625
vt 0 0.9375
vt 1 0.9375
vt 1 0.8125
vt 0 0.8125
vt 1 0.6875
vt 0 0.6875
vt 0 0.6875
vt 1 0.6875
vt 0 0.75
vt 1 0.75
vt 0.0011746375 1.0036206
vt 1.0124111 0.99090725
vt 1 0.75
vt 0 0.75
vn 0.13320866 -0.93684167 0.32339334
vn 0.13320866 -0.93684167 0.32339334
vn 0.113121495 -0.9569377 0.2673458
vn 0.103446834 -0.9651414 0.24041796
vn 0.060535263 -0.99213475 0.10956295
vn 0.060027834 -0.99238247 0.1075809
vn 0.033015262 -0.9977472 0.058399905
vn 0.03968211 -0.99697787 0.06678692
vn -0.0017089474 -0.9998861 0.014993283
vn 0.0053024665 -0.99970496 0.023704654
vn -0.08253498 -0.99242 -0.09105235
vn -0.07709888 -0.9933682 -0.085295744
vn -0.3154556 -0.93090624 -0.18412313
vn -0.3154556 -0.93090624 -0.1841231
vn 0.30083793 -0.95346224 -0.020156832
vn 0.31463 -0.94916886 -0.009300378
vn -0.0022781498 -0.997456 -0.07124812
vn -0.001978968 -0.99745685 -0.07124548
vn -0.032359317 -0.9990991 -0.027456524
vn -0.029018091 -0.99933344 -0.022150228
vn 0.16808152 -0.983924 -0.0603509
vn 0.16275856 -0.98478335 -0.060921952
vn 0.81427795 -0.556117 0.16638905
vn 0.454181 -0.88891065 0.059644476
vn -0.13424915 -0.9361999 0.3248183
vn -0.13424915 -0.9361999 0.32481834
vn -0.1111029 -0.95803106 0.26425847
vn -0.099942066 -0.96681917 0.23510051
vn -0.04210951 -0.9952801 0.087431654
vn -0.041121773 -0.99553114 0.085010424
vn -0.020451238 -0.998845 0.043480024
vn -0.023421997 -0.9985775 0.047900476
vn -0.014968109 -0.9994216 0.030534046
vn -0.014226888 -0.99940866 0.031303827
vn 0.084663875 -0.9921452 -0.09208691
vn 0.07784876 -0.9932767 -0.085679114
vn 0.36304653 -0.9131713 -0.18524429
vn 0.3630465 -0.9131713 -0.18524429
vn -0.31030375 -0.9502992 -0.025357228
vn -0.32931295 -0.944081 -0.016248388
vn 0.008847165 -0.99994504 -0.0056216777
vn 0.0016916246 -0.9999909 0.0039145225
vn -0.16338478 -0.9846521 -0.061365172
vn -0.15757842 -0.9855558 -0.06203791
vn -0.76637816 -0.62623835 0.14314334
vn -0.4598629 -0.88718003 0.03791681
vn 0.20176917 -0.9650363 -0.16731471
vn 0.28779873 -0.9411159 -0.17740573
vn -0.2516754 -0.9521832 -0.17322434
vn -0.17409676 -0.97177815 -0.15917784
vn 0.95333636 -0.20645912 0.22028272
vn 0.95333636 -0.20645908 0.22028273
vn -0.0022781498 -0.997456 -0.07124812
vn -0.001978968 -0.99745685 -0.07124548
vn -0.9281101 -0.30320352 0.21605378
vn -0.9281101 -0.3032035 0.21605377
g ribbon_0
f 4/4/4 3/3/3 1/1/1
f 2/2/2 4/4/4 1/1/1
f 4/4/4 6/6/6 3/3/3
f 6/6/6 5/5/5 3/3/3
f 6/6/6 8/8/8 5/5/5
f 8/8/8 7/7/7 5/5/5
f 8/8/8 10/10/10 7/7/7
f 10/10/10 9/9/9 7/7/7
f 10/10/10 20/20/20 9/9/9
f 20/20/20 19/19/19 9/9/9
f 20/20/20 12/12/12 19/19/19
f 12/12/12 11/11/11 19/19/19
f 12/12/12 50/50/50 11/11/11
f 50/50/50 49/49/49 11/11/11
f 50/50/50 14/14/14 49/49/49
f 14/14/14 13/13/13 49/49/49
f 51/51/51 24/24/24 23/23/23
f 52/52/52 51/51/51 23/23/23
f 23/23/23 24/24/24 16/16/16
f 24/24/24 15/15/15 16/16/16
f 22/22/22 16/16/16 15/15/15
f 21/21/21 22/22/22 15/15/15
f 18/18/18 22/22/22 21/21/21
f 17/17/17 18/18/18 21/21/21
f 28/28/28 26/26/26 25/25/25
f 27/27/27 28/28/28 25/25/25
f 30/30/30 28/28/28 27/27/27
f 29/29/29 30/30/30 27/27/27
f 32/32/32 30/30/30 29/29/29
f 31/31/31 32/32/32 29/29/29
f 34/34/34 32/32/32 31/31/31
f 33/33/33 34/34/34 31/31/31
f 42/42/42 34/34/34 33/33/33
f 41/41/41 42/42/42 33/33/33
f 36/36/36 42/42/42 41/41/41
f 35/35/35 36/36/36 41/41/41
f 47/47/47 36/36/36 35/35/35
f 48/48/48 47/47/47 35/35/35
f 48/48/48 37/37/37 47/47/47
f 37/37/37 38/38/38 47/47/47
f 54/54/54 53/53/53 43/43/43
f 44/44/44 54/54/54 43/43/43
f 44/44/44 43/43/43 39/39/39
f 40/40/40 44/44/44 39/39/39
f 39/39/39 46/46/46 40/40/40
f 46/46/46 45/45/45 40/40/40
f 46/46/46 56/56/56 45/45/45
f 56/56/56 55/55/55 45/45/45
