g shard104
v -0.036994845 -0.074413 0.0031046644
v -0.01839745 -0.0042261034 0.008292321
v -0.026869446 -0.060219064 0.078882694
v -0.006234944 0.016937315 0.053916026
v 0.018729985 0.07950388 -0.019555097
v -0.029075056 -0.063218266 -0.078882694
v -0.013528526 -0.005156502 -0.073850594
v -0.017707825 -0.07950389 0.002860358
v -0.0077269375 -0.06562185 0.076868355
v 0.0005015433 -0.010759518 0.007914671
v 0.01232934 0.009843916 0.05226025
v 0.036994874 0.07143298 -0.019438885
v -0.009803116 -0.068430826 -0.07769091
v 0.0052995086 -0.01165846 -0.072656855
v -0.017707825 -0.07950389 0.002860358
v -0.036994845 -0.074413 0.0031046644
v -0.026869446 -0.060219064 0.078882694
v -0.0077269375 -0.06562185 0.076868355
v -0.009803116 -0.068430826 -0.07769091
v -0.029075056 -0.063218266 -0.078882694
v -0.0077269375 -0.06562185 0.076868355
v -0.026869446 -0.060219064 0.078882694
v -0.006234944 0.016937315 0.053916026
v 0.01232934 0.009843916 0.05226025
v 0.018729985 0.07950388 -0.019555097
v 0.036994874 0.07143298 -0.019438885
v 0.0052995086 -0.01165846 -0.072656855
v -0.013528526 -0.005156502 -0.073850594
v -0.029075056 -0.063218266 -0.078882694
v -0.009803116 -0.068430826 -0.07769091
v 0.036994874 0.07143298 -0.019438885
v 0.018729985 0.07950388 -0.019555097
vt 0.25 0.15625
vt 0.25 0.1875
vt 0.28125 0.15625
vt 0.28125 0.1875
vt 0.25 0.21875
vt 0.21875 0.15625
vt 0.21875 0.1875
vt 0.25 0.15625
vt 0.28125 0.15625
vt 0.25 0.1875
vt 0.28125 0.1875
vt 0.25 0.21875
vt 0.21875 0.15625
vt 0.21875 0.1875
vt 0.25 0.15625
vt 0.25 0.15625
vt 0.28125 0.15625
vt 0.28125 0.15625
vt 0.21875 0.15625
vt 0.21875 0.15625
vt 0.28125 0.15625
vt 0.28125 0.15625
vt 0.28125 0.1875
vt 0.28125 0.1875
vt 0.25 0.21875
vt 0.25 0.21875
vt 0.21875 0.1875
vt 0.21875 0.1875
vt 0.21875 0.15625
vt 0.21875 0.15625
vt 0.25 0.21875
vt 0.25 0.21875
vn -0.9667029 0.2558751 0.003677448
vn -0.94384634 0.33028677 0.008040803
vn -0.9597764 0.26437768 0.09451811
vn -0.9307529 0.3561205 0.08292966
vn -0.91719013 0.3974856 -0.027702989
vn -0.963455 0.261329 -0.05883531
vn -0.9438283 0.32501218 -0.059625585
vn 0.9667173 -0.25582546 -0.0033143729
vn 0.9598612 -0.26377794 -0.09532884
vn 0.9438843 -0.33018777 -0.007648378
vn 0.930813 -0.355976 -0.082875006
vn 0.91705763 -0.39774776 0.028318353
vn 0.9636045 -0.2606089 0.05957601
vn 0.9439491 -0.3246229 0.059833203
vn -0.2530903 -0.9672076 0.021326464
vn -0.25308633 -0.967202 0.02162383
vn -0.24599825 -0.9461654 0.21037102
vn -0.24599828 -0.9461654 0.21037103
vn -0.25145563 -0.95531845 -0.15535992
vn -0.2514557 -0.95531845 -0.15535994
vn 0.17869264 0.26054215 0.9487817
vn 0.17869267 0.26054218 0.9487817
vn 0.25526524 0.4995751 0.827807
vn 0.25515127 0.49919972 0.82806855
vn 0.30420896 0.6700836 0.6770855
vn 0.304209 0.6700837 0.6770855
vn 0.17001778 0.32874972 -0.9289874
vn 0.17033637 0.32973644 -0.9285793
vn 0.08231411 0.06520392 -0.99447113
vn 0.08231411 0.06520392 -0.99447113
vn 0.2141126 0.46791458 -0.8574449
vn 0.21411261 0.46791464 -0.8574449
g shard104_0
f 3/3/3 2/2/2 1/1/1
f 3/3/3 4/4/4 2/2/2
f 4/4/4 5/5/5 2/2/2
f 2/2/2 6/6/6 1/1/1
f 2/2/2 7/7/7 6/6/6
f 5/5/5 7/7/7 2/2/2
f 10/10/10 9/9/9 8/8/8
f 11/11/11 9/9/9 10/10/10
f 12/12/12 11/11/11 10/10/10
f 13/13/13 10/10/10 8/8/8
f 14/14/14 10/10/10 13/13/13
f 14/14/14 12/12/12 10/10/10
f 17/17/17 16/16/16 15/15/15
f 18/18/18 17/17/17 15/15/15
f 15/15/15 16/16/16 19/19/19
f 16/16/16 20/20/20 19/19/19
f 23/23/23 22/22/22 21/21/21
f 24/24/24 23/23/23 21/21/21
f 25/25/25 23/23/23 24/24/24
f 26/26/26 25/25/25 24/24/24
f 29/29/29 28/28/28 27/27/27
f 30/30/30 29/29/29 27/27/27
f 27/27/27 28/28/28 31/31/31
f 28/28/28 32/32/32 31/31/31
