g shard23
v 0.08424694 -0.08351358 -0.41028568
v 0.093645826 -0.16965668 -0.38325396
v 0.013857998 -0.07313148 -0.4172259
v 0.09499799 -0.22852567 -0.35387844
v -0.007884398 -0.24444775 -0.35801983
v -0.23825316 -0.08739428 -0.35134718
v -0.17248598 -0.09260023 -0.38177636
v -0.23232931 -0.15448493 -0.33275476
v -0.17253499 -0.17372869 -0.354531
v -0.2992286 -0.0627687 -0.30822033
v -0.28600195 -0.1509738 -0.29153055
v -0.08504402 -0.019265395 -0.41542974
v -0.09144704 -0.24710023 -0.34310272
v 0.16856249 -0.305382 -0.6898571
v 0.1516445 -0.15032443 -0.7385142
v 0.024944397 -0.13163666 -0.7510066
v 0.17099637 -0.4113462 -0.6369812
v -0.014191916 -0.44000596 -0.6444357
v -0.31047475 -0.16668041 -0.68719745
v -0.4288557 -0.15730971 -0.63242495
v -0.31056297 -0.31271166 -0.6381558
v -0.41819274 -0.27807286 -0.5989586
v -0.53861153 -0.11298366 -0.5547966
v -0.5148035 -0.27175283 -0.524755
v -0.15307924 -0.03467771 -0.7477735
v -0.16460466 -0.4447804 -0.61758494
v 0.08424694 -0.08351358 -0.41028568
v 0.1516445 -0.15032443 -0.7385142
v 0.16856249 -0.305382 -0.6898571
v 0.093645826 -0.16965668 -0.38325396
v 0.17099637 -0.4113462 -0.6369812
v 0.09499799 -0.22852567 -0.35387844
v -0.23825316 -0.08739428 -0.35134718
v -0.4288557 -0.15730971 -0.63242495
v -0.2992286 -0.0627687 -0.30822033
v -0.53861153 -0.11298366 -0.5547966
v -0.28600195 -0.1509738 -0.29153055
v -0.5148035 -0.27175283 -0.524755
v -0.41819274 -0.27807286 -0.5989586
v -0.23232931 -0.15448493 -0.33275476
v -0.31047475 -0.16668041 -0.68719745
v -0.17248598 -0.09260023 -0.38177636
v 0.013857998 -0.07313148 -0.4172259
v 0.024944397 -0.13163666 -0.7510066
v -0.15307924 -0.03467771 -0.7477735
v -0.08504402 -0.019265395 -0.41542974
v -0.17253499 -0.17372869 -0.354531
v -0.31056297 -0.31271166 -0.6381558
v -0.09144704 -0.24710023 -0.34310272
v -0.16460466 -0.4447804 -0.61758494
vt 0.07997386 0
vt 0 0
vt 0.14295737 0
vt 0.9420235 0
vt 0.850229 0
vt 0.41102776 0
vt 0.34701857 0
vt 0.61996335 0
vt 0.6785364 0
vt 0.48031282 0
vt 0.5602573 0
vt 0.24219166 0
vt 0.7754071 0
vt 0 1
vt 0.07997386 1
vt 0.14295737 1
vt 0.9420235 1
vt 0.850229 1
vt 0.34701857 1
vt 0.41102776 1
vt 0.6785364 1
vt 0.61996335 1
vt 0.48031282 1
vt 0.5602573 1
vt 0.24219166 1
vt 0.7754071 1
vt 0.07997386 0
vt 0.07997386 1
vt 1 1
vt 1 0
vt 0.9420235 1
vt 0.9420235 0
vt 0.41102776 0
vt 0.41102776 1
vt 0.48031282 0
vt 0.48031282 1
vt 0.5602573 0
vt 0.5602573 1
vt 0.61996335 1
vt 0.61996335 0
vt 0.34701857 1
vt 0.34701857 0
vt 0.14295737 0
vt 0.14295737 1
vt 0.24219166 1
vt 0.24219166 0
vt 0.6785364 0
vt 0.6785364 1
vt 0.7754071 0
vt 0.7754071 1
vn -0.97301346 -0.15872122 -0.16748829
vn -0.97301346 -0.15872122 -0.1674883
vn -0.15984027 -0.9732087 0.16527529
vn -0.97549367 -0.11577216 -0.18710677
vn -0.10476288 0.822387 -0.5591998
vn 0.02664267 -0.9741678 0.22424807
vn 0.02664267 -0.9741678 0.22424807
vn 0.106141575 0.87152624 -0.4787234
vn 0.10614159 0.87152624 -0.4787234
vn -0.14374456 -0.93312085 0.32958013
vn 0.7196746 -0.02338232 -0.6939177
vn 0.61925054 -0.7799491 -0.09059898
vn 0.59472734 0.5687807 -0.5681443
vn -0.97301346 -0.15872124 -0.16748829
vn -0.97301346 -0.15872122 -0.1674883
vn -0.15984026 -0.9732087 0.16527529
vn -0.97549367 -0.11577215 -0.18710673
vn -0.10476288 0.822387 -0.55919975
vn 0.026642669 -0.9741678 0.22424807
vn 0.02664267 -0.9741678 0.2242481
vn 0.10614158 0.8715262 -0.47872344
vn 0.10614158 0.87152624 -0.47872335
vn -0.14374456 -0.93312085 0.32958013
vn 0.7196746 -0.02338232 -0.6939177
vn 0.6192505 -0.7799491 -0.09059898
vn 0.59472734 0.5687807 -0.5681443
vn -0.15984029 -0.9732087 0.1652753
vn -0.15984026 -0.9732087 0.16527529
vn -0.97549367 -0.11577216 -0.18710677
vn -0.97549367 -0.11577216 -0.18710677
vn -0.1047629 0.822387 -0.5591998
vn -0.1047629 0.822387 -0.5591998
vn -0.14374457 -0.9331208 0.32958013
vn -0.14374456 -0.9331208 0.32958016
vn 0.7196746 -0.02338232 -0.6939177
vn 0.7196746 -0.02338232 -0.6939177
vn -0.17703678 0.93409014 -0.31005412
vn -0.17703678 0.93409014 -0.31005412
vn -0.17703679 0.93409014 -0.31005412
vn -0.1770368 0.93409014 -0.31005415
vn 0.6192505 -0.7799491 -0.09059898
vn 0.61925054 -0.7799491 -0.09059898
vn -0.47187227 -0.8709596 0.13698898
vn -0.4718723 -0.8709595 0.13698898
vn -0.4718723 -0.8709595 0.13698898
vn -0.4718723 -0.8709595 0.136989
vn 0.59472734 0.5687807 -0.5681443
vn 0.59472734 0.56878066 -0.5681443
vn -0.12557402 0.82060695 -0.5575262
vn -0.12557402 0.82060695 -0.5575262
g shard23_0
f 15/15/15 14/14/14 2/2/2
f 1/1/1 15/15/15 2/2/2
f 16/16/16 28/28/28 27/27/27
f 3/3/3 16/16/16 27/27/27
f 29/29/29 17/17/17 4/4/4
f 30/30/30 29/29/29 4/4/4
f 31/31/31 18/18/18 5/5/5
f 32/32/32 31/31/31 5/5/5
f 5/5/5 18/18/18 49/49/49
f 18/18/18 50/50/50 49/49/49
f 20/20/20 19/19/19 7/7/7
f 6/6/6 20/20/20 7/7/7
f 21/21/21 22/22/22 8/8/8
f 9/9/9 21/21/21 8/8/8
f 23/23/23 34/34/34 33/33/33
f 10/10/10 23/23/23 33/33/33
f 24/24/24 36/36/36 35/35/35
f 11/11/11 24/24/24 35/35/35
f 39/39/39 38/38/38 37/37/37
f 40/40/40 39/39/39 37/37/37
f 41/41/41 25/25/25 12/12/12
f 42/42/42 41/41/41 12/12/12
f 45/45/45 44/44/44 43/43/43
f 46/46/46 45/45/45 43/43/43
f 26/26/26 48/48/48 47/47/47
f 13/13/13 26/26/26 47/47/47
