g shard55
v -0.08504402 -0.019265395 -0.41542974
v -0.0042066914 0.09640618 -0.4138781
v 0.06762015 0.077960625 -0.41207302
v 0.06797223 0.01434424 -0.41726527
v 0.08424694 -0.08351358 -0.41028568
v 0.013857998 -0.07313148 -0.4172259
v -0.0075720446 0.17353112 -0.7449806
v -0.15307924 -0.03467771 -0.7477735
v 0.121716276 0.14032912 -0.7417314
v 0.12235001 0.025819631 -0.7510775
v 0.1516445 -0.15032443 -0.7385142
v 0.024944397 -0.13163666 -0.7510066
v -0.0075720446 0.17353112 -0.7449806
v -0.0042066914 0.09640618 -0.4138781
v 0.121716276 0.14032912 -0.7417314
v 0.06762015 0.077960625 -0.41207302
v 0.12235001 0.025819631 -0.7510775
v 0.06797223 0.01434424 -0.41726527
v 0.1516445 -0.15032443 -0.7385142
v 0.08424694 -0.08351358 -0.41028568
v -0.08504402 -0.019265395 -0.41542974
v -0.15307924 -0.03467771 -0.7477735
v 0.024944397 -0.13163666 -0.7510066
v 0.013857998 -0.07313148 -0.4172259
vt 0.250802 0
vt 0 0
vt 0.250802 0
vt 0.38262853 0
vt 0.49606076 0
vt 0.67279124 0
vt 0 1
vt 0.250802 1
vt 0.250802 1
vt 0.38262853 1
vt 0.49606076 1
vt 0.67279124 1
vt 0.38262853 1
vt 0.38262853 0
vt 0.49606076 1
vt 0.49606076 0
vt 0.67279124 1
vt 0.67279124 0
vt 0.79983497 1
vt 0.79983497 0
vt 0.79983497 0
vt 0.79983497 1
vt 1 1
vt 1 0
vn 0.8124731 -0.56591964 -0.14007983
vn 0.8124731 -0.56591964 -0.14007983
vn -0.23760346 -0.946567 -0.21807238
vn -0.9870031 0.0076389518 -0.16051951
vn -0.97110915 -0.17321274 -0.16414757
vn 0.15984027 0.9732087 -0.16527529
vn 0.8124731 -0.56591964 -0.14007983
vn 0.8124731 -0.56591964 -0.14007983
vn -0.23760343 -0.946567 -0.21807237
vn -0.9870031 0.0076389518 -0.16051951
vn -0.97110915 -0.17321275 -0.16414757
vn 0.15984027 0.97320867 -0.1652753
vn -0.23760346 -0.946567 -0.21807237
vn -0.23760343 -0.946567 -0.21807237
vn -0.9870031 0.007638952 -0.16051951
vn -0.9870031 0.0076389518 -0.1605195
vn -0.97110915 -0.17321274 -0.16414759
vn -0.97110915 -0.17321272 -0.16414757
vn 0.15984029 0.9732087 -0.1652753
vn 0.15984029 0.97320867 -0.16527529
vn 0.4718723 0.8709595 -0.13698898
vn 0.47187227 0.8709596 -0.13698898
vn 0.4718723 0.8709595 -0.13698898
vn 0.47187227 0.8709596 -0.13698898
g shard55_0
f 8/8/8 7/7/7 2/2/2
f 1/1/1 8/8/8 2/2/2
f 13/13/13 9/9/9 3/3/3
f 14/14/14 13/13/13 3/3/3
f 15/15/15 10/10/10 4/4/4
f 16/16/16 15/15/15 4/4/4
f 17/17/17 11/11/11 5/5/5
f 18/18/18 17/17/17 5/5/5
f 19/19/19 12/12/12 6/6/6
f 20/20/20 19/19/19 6/6/6
f 23/23/23 22/22/22 21/21/21
f 24/24/24 23/23/23 21/21/21
