g shard93
v -0.008405343 0.017543823 -0.11587497
v -0.07564059 0.04302612 -0.105288096
v -0.019412443 -0.008216262 -0.05742102
v -0.11753714 0.031138748 -0.030450232
v 0.038504943 -0.028647512 -0.04657992
v 0.034931786 -0.044944823 0.015856698
v -0.0476505 -0.0239546 0.027806267
v 0.12005191 -0.05271709 0.008814864
v 0.05702038 -0.059417278 0.11370314
v -0.022732586 -0.041240633 0.1122428
v -0.121774554 0.010443121 0.04625584
v -0.12213686 0.0028505921 0.11114555
v -0.00231117 0.034463048 -0.10726955
v -0.012820497 0.009269178 -0.05029317
v -0.06752139 0.059417307 -0.09723932
v -0.10862258 0.04785624 -0.024164282
v 0.041889623 -0.010301173 -0.039746888
v 0.03870544 -0.02566579 0.019608766
v -0.040343896 -0.005723834 0.03158155
v 0.12213685 -0.033234 0.012590244
v 0.06020084 -0.03983 0.11587496
v -0.016496792 -0.02241072 0.11385872
v -0.112782955 0.027869493 0.04986245
v -0.11368154 0.020884693 0.11287067
v -0.06752139 0.059417307 -0.09723932
v -0.07564059 0.04302612 -0.105288096
v -0.008405343 0.017543823 -0.11587497
v -0.00231117 0.034463048 -0.10726955
v -0.10862258 0.04785624 -0.024164282
v -0.11753714 0.031138748 -0.030450232
v -0.07564059 0.04302612 -0.105288096
v -0.06752139 0.059417307 -0.09723932
v -0.112782955 0.027869493 0.04986245
v -0.121774554 0.010443121 0.04625584
v -0.11368154 0.020884693 0.11287067
v -0.12213686 0.0028505921 0.11114555
v -0.00231117 0.034463048 -0.10726955
v -0.008405343 0.017543823 -0.11587497
v 0.038504943 -0.028647512 -0.04657992
v 0.041889623 -0.010301173 -0.039746888
v 0.12005191 -0.05271709 0.008814864
v 0.12213685 -0.033234 0.012590244
v 0.12213685 -0.033234 0.012590244
v 0.12005191 -0.05271709 0.008814864
v 0.05702038 -0.059417278 0.11370314
v 0.06020084 -0.03983 0.11587496
v 0.06020084 -0.03983 0.11587496
v 0.05702038 -0.059417278 0.11370314
v -0.022732586 -0.041240633 0.1122428
v -0.016496792 -0.02241072 0.11385872
v -0.12213686 0.0028505921 0.11114555
v -0.11368154 0.020884693 0.11287067
vt 0.4375 0.78125
vt 0.40625 0.78125
vt 0.4375 0.8125
vt 0.40625 0.8125
vt 0.46875 0.8125
vt 0.46875 0.84375
vt 0.4375 0.84375
vt 0.5 0.84375
vt 0.46875 0.875
vt 0.4375 0.875
vt 0.40625 0.84375
vt 0.40625 0.875
vt 0.4375 0.78125
vt 0.4375 0.8125
vt 0.40625 0.78125
vt 0.40625 0.8125
vt 0.46875 0.8125
vt 0.46875 0.84375
vt 0.4375 0.84375
vt 0.5 0.84375
vt 0.46875 0.875
vt 0.4375 0.875
vt 0.40625 0.84375
vt 0.40625 0.875
vt 0.40625 0.78125
vt 0.40625 0.78125
vt 0.4375 0.78125
vt 0.4375 0.78125
vt 0.40625 0.8125
vt 0.40625 0.8125
vt 0.40625 0.78125
vt 0.40625 0.78125
vt 0.40625 0.84375
vt 0.40625 0.84375
vt 0.40625 0.875
vt 0.40625 0.875
vt 0.4375 0.78125
vt 0.4375 0.78125
vt 0.46875 0.8125
vt 0.46875 0.8125
vt 0.5 0.84375
vt 0.5 0.84375
vt 0.5 0.84375
vt 0.5 0.84375
vt 0.46875 0.875
vt 0.46875 0.875
vt 0.46875 0.875
vt 0.46875 0.875
vt 0.4375 0.875
vt 0.4375 0.875
vt 0.40625 0.875
vt 0.40625 0.875
vn -0.33437806 -0.83756036 -0.43206933
vn -0.41772112 -0.8213087 -0.38853717
vn -0.34835365 -0.872179 -0.3434437
vn -0.43736705 -0.8435628 -0.31162784
vn -0.20965464 -0.9332799 -0.29160532
vn -0.18589409 -0.96666664 -0.17606546
vn -0.36560726 -0.9115194 -0.18831827
vn -0.10326037 -0.980755 -0.16570167
vn -0.17390685 -0.9790883 -0.105557784
vn -0.3101178 -0.9464969 -0.089278445
vn -0.45071366 -0.8741002 -0.18112434
vn -0.41728303 -0.90508354 -0.08184569
vn 0.33749822 0.8363156 0.43205464
vn 0.35039365 0.8710559 0.34421793
vn 0.41854268 0.8206818 0.38897753
vn 0.43814108 0.8428157 0.3125605
vn 0.20993276 0.9337467 0.28990585
vn 0.1843278 0.96725976 0.17444739
vn 0.36667705 0.9112003 0.18778184
vn 0.10272405 0.9812643 0.16299735
vn 0.172249 0.97937256 0.1056391
vn 0.31058547 0.94637805 0.08891175
vn 0.45086554 0.87424326 0.18005303
vn 0.418127 0.9047639 0.081068836
vn 0.026846586 0.43784276 -0.89865065
vn 0.026846586 0.43784273 -0.89865065
vn 0.026846586 0.4378427 -0.89865065
vn 0.026846586 0.43784273 -0.89865065
vn -0.84709674 0.5099287 -0.14966568
vn -0.84698814 0.51000714 -0.15001284
vn -0.7661195 0.54300797 -0.343807
vn -0.7661195 0.54300797 -0.34380704
vn -0.8950846 0.44218984 0.05737344
vn -0.89508677 0.44218653 0.05736444
vn -0.8989467 0.43614936 0.040848322
vn -0.8989467 0.4361494 0.040848326
vn 0.8367359 0.014740716 -0.5474083
vn 0.8367359 0.014740718 -0.5474083
vn 0.7158898 0.0821743 -0.69336075
vn 0.7165673 0.08184485 -0.6926997
vn 0.57688606 0.14215456 -0.8043597
vn 0.57688606 0.14215457 -0.80435973
vn 0.8471052 -0.18972364 0.4964048
vn 0.8471052 -0.18972364 0.49640474
vn 0.8471052 -0.18972366 0.4964048
vn 0.8471052 -0.18972366 0.49640474
vn -0.0420944 -0.08780883 0.99524754
vn -0.0420944 -0.08780883 0.99524754
vn -0.04266019 -0.07940043 0.99592954
vn -0.042660147 -0.07940116 0.9959295
vn -0.043079473 -0.07313638 0.99639106
vn -0.043079466 -0.073136374 0.99639106
g shard93_0
f 3/3/3 2/2/2 1/1/1
f 3/3/3 4/4/4 2/2/2
f 5/5/5 3/3/3 1/1/1
f 6/6/6 3/3/3 5/5/5
f 6/6/6 7/7/7 3/3/3
f 7/7/7 4/4/4 3/3/3
f 8/8/8 6/6/6 5/5/5
f 8/8/8 9/9/9 6/6/6
f 6/6/6 10/10/10 7/7/7
f 6/6/6 9/9/9 10/10/10
f 7/7/7 11/11/11 4/4/4
f 7/7/7 12/12/12 11/11/11
f 7/7/7 10/10/10 12/12/12
f 15/15/15 14/14/14 13/13/13
f 16/16/16 14/14/14 15/15/15
f 14/14/14 17/17/17 13/13/13
f 14/14/14 18/18/18 17/17/17
f 19/19/19 18/18/18 14/14/14
f 16/16/16 19/19/19 14/14/14
f 18/18/18 20/20/20 17/17/17
f 21/21/21 20/20/20 18/18/18
f 22/22/22 18/18/18 19/19/19
f 21/21/21 18/18/18 22/22/22
f 23/23/23 19/19/19 16/16/16
f 24/24/24 19/19/19 23/23/23
f 22/22/22 19/19/19 24/24/24
f 27/27/27 26/26/26 25/25/25
f 28/28/28 27/27/27 25/25/25
f 31/31/31 30/30/30 29/29/29
f 32/32/32 31/31/31 29/29/29
f 29/29/29 30/30/30 33/33/33
f 30/30/30 34/34/34 33/33/33
f 33/33/33 34/34/34 35/35/35
f 34/34/34 36/36/36 35/35/35
f 39/39/39 38/38/38 37/37/37
f 40/40/40 39/39/39 37/37/37
f 41/41/41 39/39/39 40/40/40
f 42/42/42 41/41/41 40/40/40
f 45/45/45 44/44/44 43/43/43
f 46/46/46 45/45/45 43/43/43
f 49/49/49 48/48/48 47/47/47
f 50/50/50 49/49/49 47/47/47
f 51/51/51 49/49/49 50/50/50
f 52/52/52 51/51/51 50/50/50
