g shard87
v -0.018277496 -0.042688083 -0.13794905
v -0.025837094 -0.05004487 -0.03937973
v -0.008696407 -0.123150826 -0.049260087
v -0.022823721 0.037737172 -0.14230627
v -0.03078267 0.046956096 -0.030556682
v -0.018046916 -0.063979834 0.026432112
v 0.0003543496 -0.13125642 0.034607545
v -0.025824577 0.016795859 0.030965768
v 0.011581391 -0.05143899 0.14230627
v -0.004048258 0.042182777 0.12256456
v -0.014629871 0.13125642 0.042303868
v -0.024794817 0.117404625 -0.034673855
v -0.016930252 0.1284514 -0.1171705
v 0.0013945699 -0.03993013 -0.13623351
v 0.010655314 -0.11842124 -0.04916176
v -0.0060420036 -0.047190767 -0.039286137
v -0.0029436052 0.037468314 -0.14071766
v -0.0107934475 0.046363156 -0.03083815
v 0.0011817515 -0.060347382 0.023030616
v 0.019611478 -0.12610419 0.03298998
v -0.0061001778 0.017271962 0.027691498
v 0.03078264 -0.0493046 0.13713369
v 0.015300423 0.042509217 0.11788211
v 0.0050087273 0.12960519 0.039036088
v -0.00497216 0.11572316 -0.034971908
v 0.0029325485 0.12679622 -0.115523174
v 0.0013945699 -0.03993013 -0.13623351
v -0.018277496 -0.042688083 -0.13794905
v -0.008696407 -0.123150826 -0.049260087
v 0.010655314 -0.11842124 -0.04916176
v -0.0029436052 0.037468314 -0.14071766
v -0.022823721 0.037737172 -0.14230627
v -0.018277496 -0.042688083 -0.13794905
v 0.0013945699 -0.03993013 -0.13623351
v 0.0029325485 0.12679622 -0.115523174
v -0.016930252 0.1284514 -0.1171705
v 0.019611478 -0.12610419 0.03298998
v 0.0003543496 -0.13125642 0.034607545
v -0.018046916 -0.063979834 0.026432112
v 0.0011817515 -0.060347382 0.023030616
v 0.010655314 -0.11842124 -0.04916176
v -0.008696407 -0.123150826 -0.049260087
v 0.0003543496 -0.13125642 0.034607545
v 0.019611478 -0.12610419 0.03298998
v 0.0011817515 -0.060347382 0.023030616
v -0.018046916 -0.063979834 0.026432112
v 0.011581391 -0.05143899 0.14230627
v 0.03078264 -0.0493046 0.13713369
v 0.03078264 -0.0493046 0.13713369
v 0.011581391 -0.05143899 0.14230627
v -0.004048258 0.042182777 0.12256456
v 0.015300423 0.042509217 0.11788211
v -0.014629871 0.13125642 0.042303868
v 0.0050087273 0.12960519 0.039036088
v 0.0050087273 0.12960519 0.039036088
v -0.014629871 0.13125642 0.042303868
v -0.024794817 0.117404625 -0.034673855
v -0.00497216 0.11572316 -0.034971908
v -0.016930252 0.1284514 -0.1171705
v 0.0029325485 0.12679622 -0.115523174
vt 0.21875 0.09375
vt 0.25 0.09375
vt 0.25 0.0625
vt 0.21875 0.125
vt 0.25 0.125
vt 0.28125 0.09375
vt 0.28125 0.0625
vt 0.28125 0.125
vt 0.3125 0.09375
vt 0.3125 0.125
vt 0.28125 0.15625
vt 0.25 0.15625
vt 0.21875 0.15625
vt 0.21875 0.09375
vt 0.25 0.0625
vt 0.25 0.09375
vt 0.21875 0.125
vt 0.25 0.125
vt 0.28125 0.09375
vt 0.28125 0.0625
vt 0.28125 0.125
vt 0.3125 0.09375
vt 0.3125 0.125
vt 0.28125 0.15625
vt 0.25 0.15625
vt 0.21875 0.15625
vt 0.21875 0.09375
vt 0.21875 0.09375
vt 0.25 0.0625
vt 0.25 0.0625
vt 0.21875 0.125
vt 0.21875 0.125
vt 0.21875 0.09375
vt 0.21875 0.09375
vt 0.21875 0.15625
vt 0.21875 0.15625
vt 0.28125 0.0625
vt 0.28125 0.0625
vt 0.28125 0.09375
vt 0.28125 0.09375
vt 0.25 0.0625
vt 0.25 0.0625
vt 0.28125 0.0625
vt 0.28125 0.0625
vt 0.28125 0.09375
vt 0.28125 0.09375
vt 0.3125 0.09375
vt 0.3125 0.09375
vt 0.3125 0.09375
vt 0.3125 0.09375
vt 0.3125 0.125
vt 0.3125 0.125
vt 0.28125 0.15625
vt 0.28125 0.15625
vt 0.28125 0.15625
vt 0.28125 0.15625
vt 0.25 0.15625
vt 0.25 0.15625
vt 0.21875 0.15625
vt 0.21875 0.15625
vn -0.99110395 -0.10345041 -0.08373203
vn -0.9910887 -0.13165273 -0.020267235
vn -0.97254795 -0.23268907 -0.0025068033
vn -0.997098 0.01029455 -0.07542888
vn -0.99970686 0.024198508 0.00079776085
vn -0.975454 -0.15192783 0.15939704
vn -0.9639348 -0.25399417 0.07947721
vn -0.98351324 -0.020507222 0.17966957
vn -0.96041495 -0.10640459 0.25745133
vn -0.97085416 -0.026628526 0.23818706
vn -0.9827364 0.080786414 0.16644137
vn -0.99629426 0.085317746 0.010892521
vn -0.9932595 0.08445463 -0.07939136
vn 0.9911069 0.103392154 0.08376847
vn 0.9723378 0.23355098 0.003630872
vn 0.99108833 0.13132663 0.022300476
vn 0.99706316 -0.011746401 0.075677395
vn 0.99968493 -0.025098931 0.00022493248
vn 0.97523403 0.15224332 -0.16043834
vn 0.9628577 0.2576115 -0.080878355
vn 0.98324853 0.019826518 -0.18118839
vn 0.96007043 0.106857866 -0.25854635
vn 0.9708834 0.02724808 -0.2379977
vn 0.9825255 -0.08109948 -0.16753076
vn 0.9963986 -0.08421506 -0.0098778
vn 0.9931443 -0.08506163 0.08018093
vn 0.169681 -0.72180516 -0.6709737
vn 0.16968097 -0.72180516 -0.67097366
vn 0.16968098 -0.72180516 -0.67097366
vn 0.16968098 -0.72180516 -0.67097366
vn 0.08993634 0.12064533 -0.98861325
vn 0.089940086 0.12092391 -0.98857886
vn 0.086320765 -0.050879322 -0.99496734
vn 0.086320765 -0.050879322 -0.99496734
vn 0.090927124 0.26259246 -0.9606131
vn 0.090927124 0.2625925 -0.9606131
vn 0.091801785 0.15940726 0.9829353
vn 0.09180179 0.15940726 0.9829353
vn 0.09180179 0.15940726 0.9829353
vn 0.091801785 0.15940726 0.9829353
vn 0.2418728 -0.96312726 -0.11782812
vn 0.24187277 -0.96312726 -0.11782811
vn 0.2418728 -0.96312726 -0.117828116
vn 0.2418728 -0.96312726 -0.11782812
vn 0.16111295 -0.98513895 0.059530105
vn 0.16111295 -0.98513895 0.059530105
vn 0.16111295 -0.98513895 0.0595301
vn 0.16111295 -0.98513895 0.059530105
vn 0.22643337 0.23666993 0.94483614
vn 0.22643335 0.23666993 0.94483614
vn 0.2011525 0.4930821 0.84640867
vn 0.20134255 0.49170846 0.8471623
vn 0.16989383 0.6715201 0.72124666
vn 0.16989383 0.6715201 0.7212467
vn 0.065695405 0.9798262 -0.1887451
vn 0.0656954 0.9798262 -0.18874507
vn 0.07314504 0.9971532 -0.018311609
vn 0.07313946 0.99715084 -0.018461078
vn 0.0781635 0.98685604 0.14144112
vn 0.07816351 0.98685604 0.14144115
g shard87_0
f 3/3/3 2/2/2 1/1/1
f 2/2/2 4/4/4 1/1/1
f 2/2/2 5/5/5 4/4/4
f 6/6/6 2/2/2 3/3/3
f 6/6/6 3/3/3 7/7/7
f 8/8/8 2/2/2 6/6/6
f 8/8/8 5/5/5 2/2/2
f 9/9/9 8/8/8 6/6/6
f 9/9/9 10/10/10 8/8/8
f 11/11/11 5/5/5 8/8/8
f 10/10/10 11/11/11 8/8/8
f 11/11/11 12/12/12 5/5/5
f 5/5/5 13/13/13 4/4/4
f 5/5/5 12/12/12 13/13/13
f 16/16/16 15/15/15 14/14/14
f 17/17/17 16/16/16 14/14/14
f 18/18/18 16/16/16 17/17/17
f 16/16/16 19/19/19 15/15/15
f 15/15/15 19/19/19 20/20/20
f 16/16/16 21/21/21 19/19/19
f 18/18/18 21/21/21 16/16/16
f 21/21/21 22/22/22 19/19/19
f 23/23/23 22/22/22 21/21/21
f 18/18/18 24/24/24 21/21/21
f 24/24/24 23/23/23 21/21/21
f 25/25/25 24/24/24 18/18/18
f 26/26/26 18/18/18 17/17/17
f 25/25/25 18/18/18 26/26/26
f 29/29/29 28/28/28 27/27/27
f 30/30/30 29/29/29 27/27/27
f 33/33/33 32/32/32 31/31/31
f 34/34/34 33/33/33 31/31/31
f 31/31/31 32/32/32 35/35/35
f 32/32/32 36/36/36 35/35/35
f 39/39/39 38/38/38 37/37/37
f 40/40/40 39/39/39 37/37/37
f 43/43/43 42/42/42 41/41/41
f 44/44/44 43/43/43 41/41/41
f 47/47/47 46/46/46 45/45/45
f 48/48/48 47/47/47 45/45/45
f 51/51/51 50/50/50 49/49/49
f 52/52/52 51/51/51 49/49/49
f 53/53/53 51/51/51 52/52/52
f 54/54/54 53/53/53 52/52/52
f 57/57/57 56/56/56 55/55/55
f 58/58/58 57/57/57 55/55/55
f 59/59/59 57/57/57 58/58/58
f 60/60/60 59/59/59 58/58/58
