g shard67
v -0.01532183 -0.0038161278 0.115275055
v -0.07697576 0.0027428567 0.09647292
v -0.028943805 0.045122147 0.013499841
v -0.103004046 0.03657201 0.016756639
v -0.10689798 0.05889207 -0.07767414
v -0.16737974 0.040084034 -0.06173902
v -0.016674658 0.06588897 -0.062186874
v -0.028078727 0.07078865 -0.16656019
v -0.109537765 0.06360528 -0.1404605
v 0.05092396 0.031657547 0.035243675
v 0.07032356 0.009119868 0.07648976
v 0.058839597 -0.054883957 0.16771176
v 0.12591788 -0.020146012 0.09787084
v 0.058720067 0.05685821 -0.051915623
v 0.09390433 0.06027633 -0.1514154
v 0.16737974 0.02899909 -0.059993543
v -0.01634058 -0.020811737 0.10509989
v -0.028534139 0.026276678 0.006815508
v -0.07571069 -0.015304685 0.08796023
v -0.09983482 0.018067569 0.010292813
v -0.10340868 0.03941235 -0.08056649
v -0.1622934 0.02106288 -0.064899914
v -0.016648447 0.04614407 -0.065370835
v -0.028272726 0.050877333 -0.16771176
v -0.10616931 0.04408002 -0.14209293
v 0.04939065 0.013214141 0.02787739
v 0.06765938 -0.0076728165 0.06616217
v 0.055434592 -0.07078865 0.15608564
v 0.12199485 -0.03594339 0.086249605
v 0.055314586 0.037724763 -0.05599641
v 0.09052449 0.04073158 -0.15301612
v 0.16223007 0.009831011 -0.062456496
v -0.07571069 -0.015304685 0.08796023
v -0.07697576 0.0027428567 0.09647292
v -0.01532183 -0.0038161278 0.115275055
v -0.01634058 -0.020811737 0.10509989
v 0.058839597 -0.054883957 0.16771176
v 0.055434592 -0.07078865 0.15608564
v -0.09983482 0.018067569 0.010292813
v -0.103004046 0.03657201 0.016756639
v -0.07697576 0.0027428567 0.09647292
v -0.07571069 -0.015304685 0.08796023
v -0.1622934 0.02106288 -0.064899914
v -0.16737974 0.040084034 -0.06173902
v -0.028272726 0.050877333 -0.16771176
v -0.028078727 0.07078865 -0.16656019
v -0.109537765 0.06360528 -0.1404605
v -0.10616931 0.04408002 -0.14209293
v 0.09052449 0.04073158 -0.15301612
v 0.09390433 0.06027633 -0.1514154
v -0.10616931 0.04408002 -0.14209293
v -0.109537765 0.06360528 -0.1404605
v -0.16737974 0.040084034 -0.06173902
v -0.1622934 0.02106288 -0.064899914
v 0.055434592 -0.07078865 0.15608564
v 0.058839597 -0.054883957 0.16771176
v 0.12591788 -0.020146012 0.09787084
v 0.12199485 -0.03594339 0.086249605
v 0.12199485 -0.03594339 0.086249605
v 0.12591788 -0.020146012 0.09787084
v 0.07032356 0.009119868 0.07648976
v 0.06765938 -0.0076728165 0.06616217
v 0.06765938 -0.0076728165 0.06616217
v 0.07032356 0.009119868 0.07648976
v 0.05092396 0.031657547 0.035243675
v 0.04939065 0.013214141 0.02787739
v 0.058720067 0.05685821 -0.051915623
v 0.055314586 0.037724763 -0.05599641
v 0.055314586 0.037724763 -0.05599641
v 0.058720067 0.05685821 -0.051915623
v 0.16737974 0.02899909 -0.059993543
v 0.16223007 0.009831011 -0.062456496
v 0.16223007 0.009831011 -0.062456496
v 0.16737974 0.02899909 -0.059993543
v 0.09390433 0.06027633 -0.1514154
v 0.09052449 0.04073158 -0.15301612
vt 0.5 0.28125
vt 0.46875 0.28125
vt 0.5 0.3125
vt 0.46875 0.3125
vt 0.46875 0.34375
vt 0.4375 0.34375
vt 0.5 0.34375
vt 0.5 0.375
vt 0.46875 0.375
vt 0.53125 0.3125
vt 0.53125 0.28125
vt 0.53125 0.25
vt 0.5625 0.28125
vt 0.53125 0.34375
vt 0.53125 0.375
vt 0.5625 0.34375
vt 0.5 0.28125
vt 0.5 0.3125
vt 0.46875 0.28125
vt 0.46875 0.3125
vt 0.46875 0.34375
vt 0.4375 0.34375
vt 0.5 0.34375
vt 0.5 0.375
vt 0.46875 0.375
vt 0.53125 0.3125
vt 0.53125 0.28125
vt 0.53125 0.25
vt 0.5625 0.28125
vt 0.53125 0.34375
vt 0.53125 0.375
vt 0.5625 0.34375
vt 0.46875 0.28125
vt 0.46875 0.28125
vt 0.5 0.28125
vt 0.5 0.28125
vt 0.53125 0.25
vt 0.53125 0.25
vt 0.46875 0.3125
vt 0.46875 0.3125
vt 0.46875 0.28125
vt 0.46875 0.28125
vt 0.4375 0.34375
vt 0.4375 0.34375
vt 0.5 0.375
vt 0.5 0.375
vt 0.46875 0.375
vt 0.46875 0.375
vt 0.53125 0.375
vt 0.53125 0.375
vt 0.46875 0.375
vt 0.46875 0.375
vt 0.4375 0.34375
vt 0.4375 0.34375
vt 0.53125 0.25
vt 0.53125 0.25
vt 0.5625 0.28125
vt 0.5625 0.28125
vt 0.5625 0.28125
vt 0.5625 0.28125
vt 0.53125 0.28125
vt 0.53125 0.28125
vt 0.53125 0.28125
vt 0.53125 0.28125
vt 0.53125 0.3125
vt 0.53125 0.3125
vt 0.53125 0.34375
vt 0.53125 0.34375
vt 0.53125 0.34375
vt 0.53125 0.34375
vt 0.5625 0.34375
vt 0.5625 0.34375
vt 0.5625 0.34375
vt 0.5625 0.34375
vt 0.53125 0.375
vt 0.53125 0.375
vn 0.060706727 0.8658493 0.49660823
vn -0.054869752 0.9017298 0.42880374
vn -0.01876089 0.94146013 0.33660182
vn -0.11858085 0.9460945 0.30140293
vn -0.15660629 0.9764196 0.14859048
vn -0.24460696 0.9501993 0.19310308
vn 0.0018125988 0.9906406 0.13648424
vn 0.019042647 0.9987029 0.047221232
vn -0.11077869 0.9906982 0.07902663
vn 0.06141374 0.9237767 0.37797484
vn 0.13582484 0.8291108 0.5423346
vn 0.15916419 0.79863775 0.58038306
vn 0.19369686 0.79147136 0.5797022
vn 0.15127364 0.9768054 0.15155019
vn 0.16261807 0.98332226 0.081441626
vn 0.2550454 0.95905685 0.12313351
vn -0.06100779 -0.8652637 -0.49759102
vn 0.018705508 -0.94116205 -0.33743745
vn 0.057117496 -0.9015922 -0.42879966
vn 0.11734457 -0.9459232 -0.30242282
vn 0.15683953 -0.9765824 -0.14726879
vn 0.24522026 -0.9503779 -0.19143927
vn -0.0013833661 -0.99089843 -0.13460457
vn -0.01946954 -0.9987256 -0.04656304
vn 0.1097666 -0.99072576 -0.08008594
vn -0.061096918 -0.92370695 -0.3781966
vn -0.13878961 -0.8273509 -0.5442682
vn -0.16148871 -0.79730636 -0.58157027
vn -0.19615135 -0.7898682 -0.58106184
vn -0.15253861 -0.9768028 -0.15029353
vn -0.16392404 -0.98316073 -0.08077052
vn -0.2574837 -0.9584033 -0.12314731
vn -0.29510632 -0.4512105 0.8422122
vn -0.29510632 -0.4512105 0.8422122
vn -0.5507327 -0.38888082 0.73855627
vn -0.55237013 -0.38833377 0.73762053
vn -0.68797493 -0.3343313 0.6441375
vn -0.68797493 -0.33433124 0.6441375
vn -0.8623637 -0.27006167 0.42824703
vn -0.86310863 -0.2696935 0.42697644
vn -0.954529 -0.2046278 0.21679911
vn -0.954529 -0.20462781 0.21679913
vn -0.7384336 -0.3153322 0.5960549
vn -0.7384336 -0.31533217 0.5960549
vn -0.05334643 0.052379694 -0.9972014
vn -0.0524428 0.05240971 -0.9972477
vn -0.311751 0.04191645 -0.9492388
vn -0.31175098 0.041916452 -0.94923884
vn 0.12764557 0.057507284 -0.9901512
vn 0.12764557 0.05750729 -0.9901512
vn -0.78932756 -0.09775655 -0.60613996
vn -0.7893276 -0.09775655 -0.6061399
vn -0.78932756 -0.09775655 -0.60613996
vn -0.7893276 -0.09775655 -0.6061399
vn 0.73586726 -0.50273204 0.4536076
vn 0.73586726 -0.50273204 0.45360762
vn 0.73586726 -0.50273204 0.45360762
vn 0.73586726 -0.50273204 0.4536076
vn 0.50212914 0.4109636 -0.7609043
vn 0.50212914 0.41096354 -0.7609043
vn 0.50212914 0.41096357 -0.76090425
vn 0.50212914 0.4109635 -0.76090425
vn 0.9176987 0.08549842 -0.387968
vn 0.9176986 0.08549842 -0.38796803
vn 0.99117327 -0.062403854 -0.116966955
vn 0.9912831 -0.06308496 -0.11566389
vn 0.98918146 -0.14164127 0.03818231
vn 0.98918146 -0.14164129 0.038182307
vn 0.021646013 -0.17306428 0.9846726
vn 0.021646013 -0.17306429 0.9846726
vn 0.021646013 -0.17306432 0.9846726
vn 0.021646012 -0.17306428 0.9846726
vn 0.76078105 -0.100312985 -0.6412095
vn 0.76078093 -0.100312985 -0.6412095
vn 0.76078105 -0.100312985 -0.6412095
vn 0.760781 -0.10031298 -0.6412094
g shard67_0
f 3/3/3 2/2/2 1/1/1
f 3/3/3 4/4/4 2/2/2
f 3/3/3 5/5/5 4/4/4
f 4/4/4 5/5/5 6/6/6
f 3/3/3 7/7/7 5/5/5
f 8/8/8 5/5/5 7/7/7
f 8/8/8 9/9/9 5/5/5
f 9/9/9 6/6/6 5/5/5
f 10/10/10 3/3/3 1/1/1
f 10/10/10 1/1/1 11/11/11
f 12/12/12 11/11/11 1/1/1
f 13/13/13 11/11/11 12/12/12
f 14/14/14 3/3/3 10/10/10
f 14/14/14 7/7/7 3/3/3
f 15/15/15 7/7/7 14/14/14
f 15/15/15 8/8/8 7/7/7
f 16/16/16 15/15/15 14/14/14
f 19/19/19 18/18/18 17/17/17
f 20/20/20 18/18/18 19/19/19
f 21/21/21 18/18/18 20/20/20
f 21/21/21 20/20/20 22/22/22
f 23/23/23 18/18/18 21/21/21
f 21/21/21 24/24/24 23/23/23
f 25/25/25 24/24/24 21/21/21
f 22/22/22 25/25/25 21/21/21
f 18/18/18 26/26/26 17/17/17
f 17/17/17 26/26/26 27/27/27
f 27/27/27 28/28/28 17/17/17
f 27/27/27 29/29/29 28/28/28
f 18/18/18 30/30/30 26/26/26
f 23/23/23 30/30/30 18/18/18
f 23/23/23 31/31/31 30/30/30
f 24/24/24 31/31/31 23/23/23
f 31/31/31 32/32/32 30/30/30
f 35/35/35 34/34/34 33/33/33
f 36/36/36 35/35/35 33/33/33
f 37/37/37 35/35/35 36/36/36
f 38/38/38 37/37/37 36/36/36
f 41/41/41 40/40/40 39/39/39
f 42/42/42 41/41/41 39/39/39
f 39/39/39 40/40/40 43/43/43
f 40/40/40 44/44/44 43/43/43
f 47/47/47 46/46/46 45/45/45
f 48/48/48 47/47/47 45/45/45
f 45/45/45 46/46/46 49/49/49
f 46/46/46 50/50/50 49/49/49
f 53/53/53 52/52/52 51/51/51
f 54/54/54 53/53/53 51/51/51
f 57/57/57 56/56/56 55/55/55
f 58/58/58 57/57/57 55/55/55
f 61/61/61 60/60/60 59/59/59
f 62/62/62 61/61/61 59/59/59
f 65/65/65 64/64/64 63/63/63
f 66/66/66 65/65/65 63/63/63
f 67/67/67 65/65/65 66/66/66
f 68/68/68 67/67/67 66/66/66
f 71/71/71 70/70/70 69/69/69
f 72/72/72 71/71/71 69/69/69
f 75/75/75 74/74/74 73/73/73
f 76/76/76 75/75/75 73/73/73
