g shard45
v -0.24651743 -0.35704315 -0.004708888
v -0.30720988 -0.309019 -0.010275125
v -0.30408588 -0.29282555 0.098737076
v -0.14933269 -0.40033856 -0.0037208372
v -0.15509348 -0.37269896 0.14950901
v -0.2285045 -0.3333838 0.15817523
v -0.072635055 -0.41775784 -0.0017045933
v -0.009811387 -0.4162674 0.085280396
v -0.06308693 -0.3845096 0.17841478
v -0.44373137 -0.64267766 -0.008475998
v -0.5529778 -0.5562342 -0.018495224
v -0.5473546 -0.527086 0.17772675
v -0.26879883 -0.7206094 -0.0066975066
v -0.27916825 -0.67085814 0.26911622
v -0.4113081 -0.60009086 0.2847154
v -0.1307431 -0.7519641 -0.0030682678
v -0.017660499 -0.7492813 0.15350471
v -0.11355647 -0.6921173 0.3211466
v -0.30720988 -0.309019 -0.010275125
v -0.5529778 -0.5562342 -0.018495224
v -0.44373137 -0.64267766 -0.008475998
v -0.24651743 -0.35704315 -0.004708888
v -0.30408588 -0.29282555 0.098737076
v -0.5473546 -0.527086 0.17772675
v -0.4113081 -0.60009086 0.2847154
v -0.2285045 -0.3333838 0.15817523
v -0.1307431 -0.7519641 -0.0030682678
v -0.072635055 -0.41775784 -0.0017045933
v -0.017660499 -0.7492813 0.15350471
v -0.009811387 -0.4162674 0.085280396
v -0.15509348 -0.37269896 0.14950901
v -0.27916825 -0.67085814 0.26911622
v -0.11355647 -0.6921173 0.3211466
v -0.06308693 -0.3845096 0.17841478
vt 0 0
vt 0.08843956 0
vt 0.2141021 0
vt 0.8787319 0
vt 0.42847285 0
vt 0.33304513 0
vt 0.7890586 0
vt 0.66675013 0
vt 0.53921384 0
vt 0 1
vt 0.08843956 1
vt 0.2141021 1
vt 0.8787319 1
vt 0.42847285 1
vt 0.33304513 1
vt 0.7890586 1
vt 0.66675013 1
vt 0.53921384 1
vt 0.08843956 0
vt 0.08843956 1
vt 1 1
vt 1 0
vt 0.2141021 0
vt 0.2141021 1
vt 0.33304513 1
vt 0.33304513 0
vt 0.7890586 1
vt 0.7890586 0
vt 0.66675013 1
vt 0.66675013 0
vt 0.42847285 0
vt 0.42847285 1
vt 0.53921384 1
vt 0.53921384 0
vn -0.065880306 0.032333493 0.99730355
vn -0.0658803 0.03233349 0.99730355
vn 0.7052481 -0.70392424 0.08435533
vn -0.012267462 -0.004717462 0.99991363
vn -0.2530801 -0.26763144 -0.9296902
vn -0.25308013 -0.26763144 -0.9296902
vn -0.026172107 0.00047157097 0.99965733
vn -0.80409646 0.13744724 0.5783919
vn -0.87650967 -0.07670166 -0.47523436
vn -0.06588031 0.032333497 0.99730355
vn -0.06588031 0.032333497 0.99730355
vn 0.70524806 -0.7039243 0.08435534
vn -0.012267462 -0.004717462 0.99991363
vn -0.2530801 -0.26763144 -0.9296902
vn -0.25308013 -0.26763144 -0.9296902
vn -0.026172103 0.00047157094 0.99965733
vn -0.8040964 0.13744724 0.57839197
vn -0.87650967 -0.076701656 -0.47523436
vn 0.70524806 -0.7039243 0.084355325
vn 0.7052481 -0.70392424 0.08435534
vn -0.012267462 -0.0047174627 0.99991363
vn -0.012267462 -0.004717462 0.99991363
vn 0.29818696 -0.568251 -0.7669259
vn 0.29818696 -0.5682511 -0.7669259
vn 0.29818696 -0.5682511 -0.7669259
vn 0.298187 -0.5682511 -0.7669259
vn -0.80409646 0.13744725 0.5783919
vn -0.8040964 0.13744724 0.5783919
vn -0.87650967 -0.076701656 -0.47523433
vn -0.87650967 -0.076701656 -0.47523436
vn 0.21727344 -0.43995503 -0.8713391
vn 0.21727346 -0.43995503 -0.8713391
vn 0.21727346 -0.43995503 -0.8713391
vn 0.21727346 -0.43995503 -0.8713391
g shard45_0
f 11/11/11 10/10/10 1/1/1
f 2/2/2 11/11/11 1/1/1
f 12/12/12 20/20/20 19/19/19
f 3/3/3 12/12/12 19/19/19
f 21/21/21 13/13/13 4/4/4
f 22/22/22 21/21/21 4/4/4
f 4/4/4 13/13/13 7/7/7
f 13/13/13 16/16/16 7/7/7
f 14/14/14 15/15/15 6/6/6
f 5/5/5 14/14/14 6/6/6
f 25/25/25 24/24/24 23/23/23
f 26/26/26 25/25/25 23/23/23
f 27/27/27 17/17/17 8/8/8
f 28/28/28 27/27/27 8/8/8
f 29/29/29 18/18/18 9/9/9
f 30/30/30 29/29/29 9/9/9
f 33/33/33 32/32/32 31/31/31
f 34/34/34 33/33/33 31/31/31
