g shard103
v 0.055363268 -0.10213645 0.020653695
v 0.039532483 -0.11269979 -0.04279623
v 0.0071599483 -0.050173223 0.0076227933
v -0.014582336 -0.050611764 -0.06452841
v -0.023442656 0.010661453 0.008123338
v -0.051002324 0.029707715 -0.06304286
v 0.032426506 -0.03130962 0.07782705
v -0.0034442842 0.04338351 0.078377664
v -0.03981015 0.10735851 0.042206496
v -0.06990513 0.097007215 -0.07269842
v 0.06990513 -0.09036474 0.01371558
v 0.023010105 -0.03990768 0.0010355711
v 0.054603577 -0.10064758 -0.048013493
v 0.001957208 -0.04064466 -0.06925145
v -0.005882859 0.017697096 0.0016307682
v -0.03287801 0.035900205 -0.06841832
v 0.047784925 -0.021723226 0.06956108
v 0.013534039 0.050167277 0.07037829
v -0.02170685 0.11269979 0.0357254
v -0.051307738 0.10165701 -0.07837768
v 0.054603577 -0.10064758 -0.048013493
v 0.039532483 -0.11269979 -0.04279623
v 0.055363268 -0.10213645 0.020653695
v 0.06990513 -0.09036474 0.01371558
v 0.001957208 -0.04064466 -0.06925145
v -0.014582336 -0.050611764 -0.06452841
v 0.039532483 -0.11269979 -0.04279623
v 0.054603577 -0.10064758 -0.048013493
v -0.03287801 0.035900205 -0.06841832
v -0.051002324 0.029707715 -0.06304286
v -0.051307738 0.10165701 -0.07837768
v -0.06990513 0.097007215 -0.07269842
v 0.06990513 -0.09036474 0.01371558
v 0.055363268 -0.10213645 0.020653695
v 0.032426506 -0.03130962 0.07782705
v 0.047784925 -0.021723226 0.06956108
v 0.047784925 -0.021723226 0.06956108
v 0.032426506 -0.03130962 0.07782705
v -0.0034442842 0.04338351 0.078377664
v 0.013534039 0.050167277 0.07037829
v -0.03981015 0.10735851 0.042206496
v -0.02170685 0.11269979 0.0357254
v -0.02170685 0.11269979 0.0357254
v -0.03981015 0.10735851 0.042206496
v -0.06990513 0.097007215 -0.07269842
v -0.051307738 0.10165701 -0.07837768
vt 0.3125 0
vt 0.28125 0
vt 0.3125 0.03125
vt 0.28125 0.03125
vt 0.3125 0.0625
vt 0.28125 0.0625
vt 0.34375 0.03125
vt 0.34375 0.0625
vt 0.3125 0.09375
vt 0.28125 0.09375
vt 0.3125 0
vt 0.3125 0.03125
vt 0.28125 0
vt 0.28125 0.03125
vt 0.3125 0.0625
vt 0.28125 0.0625
vt 0.34375 0.03125
vt 0.34375 0.0625
vt 0.3125 0.09375
vt 0.28125 0.09375
vt 0.28125 0
vt 0.28125 0
vt 0.3125 0
vt 0.3125 0
vt 0.28125 0.03125
vt 0.28125 0.03125
vt 0.28125 0
vt 0.28125 0
vt 0.28125 0.0625
vt 0.28125 0.0625
vt 0.28125 0.09375
vt 0.28125 0.09375
vt 0.3125 0
vt 0.3125 0
vt 0.34375 0.03125
vt 0.34375 0.03125
vt 0.34375 0.03125
vt 0.34375 0.03125
vt 0.34375 0.0625
vt 0.34375 0.0625
vt 0.3125 0.09375
vt 0.3125 0.09375
vt 0.3125 0.09375
vt 0.3125 0.09375
vt 0.28125 0.09375
vt 0.28125 0.09375
vn -0.7301866 -0.5916622 0.34170645
vn -0.7565339 -0.60049903 0.25895423
vn -0.79208845 -0.51395786 0.32930717
vn -0.8373585 -0.4896814 0.24298745
vn -0.88612884 -0.3381799 0.3168755
vn -0.9135644 -0.3013188 0.2731429
vn -0.78812885 -0.45644948 0.41292468
vn -0.85173464 -0.33838078 0.4000582
vn -0.917533 -0.26104295 0.299983
vn -0.93022746 -0.24383269 0.2742671
vn 0.7297718 0.592542 -0.34106755
vn 0.7912721 0.51526475 -0.32922727
vn 0.7554386 0.60193634 -0.25881487
vn 0.8366927 0.49047592 -0.24367748
vn 0.8871859 0.33566144 -0.3165953
vn 0.9140792 0.29827973 -0.2747515
vn 0.7880896 0.45644233 -0.41300744
vn 0.85243785 0.33684525 -0.39985627
vn 0.9179517 0.26032072 -0.29932904
vn 0.930678 0.24247852 -0.27393925
vn 0.6206932 -0.78369045 -0.023859147
vn 0.6206932 -0.7836904 -0.023859149
vn 0.6206932 -0.78369045 -0.023859149
vn 0.6206932 -0.78369045 -0.02385915
vn -0.14222181 -0.22989771 -0.9627669
vn -0.14186543 -0.23038265 -0.96270347
vn -0.04009587 -0.36273822 -0.93102807
vn -0.040095877 -0.36273825 -0.93102807
vn -0.23315775 -0.14340472 -0.96180695
vn -0.23313604 -0.143617 -0.96178055
vn -0.22649789 -0.20395403 -0.95241874
vn -0.22649787 -0.20395403 -0.95241874
vn 0.6161264 -0.36609286 0.69739825
vn 0.61612636 -0.36609286 0.69739825
vn 0.6161264 -0.3660929 0.6973982
vn 0.6161264 -0.36609286 0.69739825
vn 0.3728556 0.16985185 0.91221106
vn 0.37285563 0.16985184 0.91221106
vn 0.2688367 0.36729622 0.8904046
vn 0.26877257 0.36740503 0.8903791
vn 0.15105166 0.5466121 0.8236496
vn 0.15105166 0.5466121 0.8236496
vn -0.2687556 0.9630027 -0.019907482
vn -0.26875558 0.9630027 -0.019907478
vn -0.26875558 0.9630027 -0.01990748
vn -0.26875558 0.9630027 -0.01990748
g shard103_0
f 3/3/3 2/2/2 1/1/1
f 3/3/3 4/4/4 2/2/2
f 5/5/5 4/4/4 3/3/3
f 5/5/5 6/6/6 4/4/4
f 7/7/7 3/3/3 1/1/1
f 7/7/7 5/5/5 3/3/3
f 7/7/7 8/8/8 5/5/5
f 8/8/8 9/9/9 5/5/5
f 5/5/5 10/10/10 6/6/6
f 5/5/5 9/9/9 10/10/10
f 13/13/13 12/12/12 11/11/11
f 14/14/14 12/12/12 13/13/13
f 14/14/14 15/15/15 12/12/12
f 16/16/16 15/15/15 14/14/14
f 12/12/12 17/17/17 11/11/11
f 15/15/15 17/17/17 12/12/12
f 18/18/18 17/17/17 15/15/15
f 19/19/19 18/18/18 15/15/15
f 20/20/20 15/15/15 16/16/16
f 19/19/19 15/15/15 20/20/20
f 23/23/23 22/22/22 21/21/21
f 24/24/24 23/23/23 21/21/21
f 27/27/27 26/26/26 25/25/25
f 28/28/28 27/27/27 25/25/25
f 25/25/25 26/26/26 29/29/29
f 26/26/26 30/30/30 29/29/29
f 29/29/29 30/30/30 31/31/31
f 30/30/30 32/32/32 31/31/31
f 35/35/35 34/34/34 33/33/33
f 36/36/36 35/35/35 33/33/33
f 39/39/39 38/38/38 37/37/37
f 40/40/40 39/39/39 37/37/37
f 41/41/41 39/39/39 40/40/40
f 42/42/42 41/41/41 40/40/40
f 45/45/45 44/44/44 43/43/43
f 46/46/46 45/45/45 43/43/43
