g shard39
v 0.26593116 0.22371757 -0.26041347
v 0.2136914 0.19929314 -0.31970304
v 0.23817123 0.15834251 -0.32563418
v 0.22290969 0.08480853 -0.35967422
v 0.30553886 0.05780556 -0.30226186
v 0.35307395 0.08591856 -0.23564567
v 0.37424138 0.15851787 -0.14063099
v 0.32486284 0.23816776 -0.16000779
v 0.30790782 0.22632053 -0.2058841
v 0.47867608 0.40269163 -0.46874425
v 0.3846445 0.35872763 -0.57546544
v 0.42870823 0.28501654 -0.5861415
v 0.40123743 0.15265535 -0.6474136
v 0.54997 0.10405001 -0.5440713
v 0.6355331 0.1546534 -0.4241622
v 0.6736345 0.28533214 -0.2531358
v 0.5847531 0.42870197 -0.28801402
v 0.5542341 0.40737695 -0.37059137
v 0.2136914 0.19929314 -0.31970304
v 0.3846445 0.35872763 -0.57546544
v 0.23817123 0.15834251 -0.32563418
v 0.42870823 0.28501654 -0.5861415
v 0.22290969 0.08480853 -0.35967422
v 0.40123743 0.15265535 -0.6474136
v 0.30553886 0.05780556 -0.30226186
v 0.54997 0.10405001 -0.5440713
v 0.35307395 0.08591856 -0.23564567
v 0.6355331 0.1546534 -0.4241622
v 0.37424138 0.15851787 -0.14063099
v 0.6736345 0.28533214 -0.2531358
v 0.32486284 0.23816776 -0.16000779
v 0.5847531 0.42870197 -0.28801402
v 0.30790782 0.22632053 -0.2058841
v 0.5542341 0.40737695 -0.37059137
v 0.47867608 0.40269163 -0.46874425
v 0.26593116 0.22371757 -0.26041347
vt 0 0
vt 0.11172842 0
vt 0.17667367 0
vt 0.28805926 0
vt 0.42878824 0
vt 0.54567975 0
vt 0.7097216 0
vt 0.8389941 0
vt 0.90697426 0
vt 0 1
vt 0.11172842 1
vt 0.17667367 1
vt 0.28805926 1
vt 0.42878824 1
vt 0.54567975 1
vt 0.7097216 1
vt 0.8389941 1
vt 0.90697426 1
vt 0.11172842 0
vt 0.11172842 1
vt 0.17667367 0
vt 0.17667367 1
vt 0.28805926 0
vt 0.28805926 1
vt 0.42878824 0
vt 0.42878824 1
vt 0.54567975 0
vt 0.54567975 1
vt 0.7097216 0
vt 0.7097216 1
vt 0.8389941 0
vt 0.8389941 1
vt 0.90697426 0
vt 0.90697426 1
vt 1 1
vt 1 0
vn 0.5496569 -0.8226373 -0.14541331
vn 0.54965687 -0.8226374 -0.14541332
vn 0.68634087 0.31536934 0.655346
vn 0.8265938 -0.3684795 0.42540053
vn 0.10827365 0.95050746 0.29122564
vn -0.33094284 0.93057203 -0.15656506
vn -0.4871832 0.742889 -0.45909518
vn -0.19810487 -0.3459237 -0.91711026
vn 0.5884481 -0.80848825 -0.008692823
vn 0.5496569 -0.8226373 -0.14541331
vn 0.5496569 -0.8226373 -0.14541334
vn 0.68634087 0.31536934 0.655346
vn 0.8265938 -0.36847946 0.42540053
vn 0.10827365 0.95050746 0.29122564
vn -0.33094284 0.930572 -0.15656507
vn -0.4871832 0.742889 -0.45909518
vn -0.19810487 -0.3459237 -0.91711026
vn 0.58844805 -0.80848825 -0.008692823
vn 0.6863408 0.31536937 0.655346
vn 0.68634087 0.31536937 0.65534604
vn 0.8265938 -0.36847952 0.42540053
vn 0.8265938 -0.36847943 0.4254005
vn 0.108273655 0.95050746 0.29122567
vn 0.10827365 0.95050746 0.29122564
vn -0.33094284 0.93057203 -0.15656506
vn -0.33094284 0.93057203 -0.15656506
vn -0.4871832 0.742889 -0.45909518
vn -0.4871832 0.742889 -0.45909518
vn -0.19810486 -0.34592366 -0.91711026
vn -0.19810486 -0.3459237 -0.91711026
vn 0.5884481 -0.80848825 -0.008692823
vn 0.5884481 -0.80848825 -0.008692823
vn 0.4320539 -0.8533147 -0.29186204
vn 0.4320539 -0.8533147 -0.29186204
vn 0.4320539 -0.8533147 -0.29186204
vn 0.4320539 -0.8533147 -0.29186204
g shard39_0
f 11/11/11 10/10/10 1/1/1
f 2/2/2 11/11/11 1/1/1
f 12/12/12 20/20/20 19/19/19
f 3/3/3 12/12/12 19/19/19
f 13/13/13 22/22/22 21/21/21
f 4/4/4 13/13/13 21/21/21
f 14/14/14 24/24/24 23/23/23
f 5/5/5 14/14/14 23/23/23
f 15/15/15 26/26/26 25/25/25
f 6/6/6 15/15/15 25/25/25
f 16/16/16 28/28/28 27/27/27
f 7/7/7 16/16/16 27/27/27
f 17/17/17 30/30/30 29/29/29
f 8/8/8 17/17/17 29/29/29
f 18/18/18 32/32/32 31/31/31
f 9/9/9 18/18/18 31/31/31
f 35/35/35 34/34/34 33/33/33
f 36/36/36 35/35/35 33/33/33
