g shard27
v -0.018066775 -0.3189899 0.29317448
v 0.0043072 -0.23707642 0.3623915
v 0.13078703 -0.30467242 0.27870354
v 0.14843948 -0.21693054 0.34311566
v 0.06437768 -0.17146195 0.38757822
v 0.15343553 -0.1429129 0.37499738
v 0.094490774 -0.34699628 0.24086593
v 0.004500786 -0.35892367 0.24386226
v -0.032520197 -0.5741818 0.5277141
v 0.0077529605 -0.42673755 0.6523047
v 0.23541665 -0.54841036 0.50166637
v 0.26719105 -0.39047498 0.6176082
v 0.27618396 -0.25724322 0.6749953
v 0.115879826 -0.30863154 0.6976408
v 0.1700834 -0.62459326 0.43355867
v 0.008101415 -0.6460626 0.43895206
v 0.27618396 -0.25724322 0.6749953
v 0.15343553 -0.1429129 0.37499738
v 0.0043072 -0.23707642 0.3623915
v 0.0077529605 -0.42673755 0.6523047
v 0.115879826 -0.30863154 0.6976408
v 0.06437768 -0.17146195 0.38757822
v 0.13078703 -0.30467242 0.27870354
v 0.23541665 -0.54841036 0.50166637
v 0.094490774 -0.34699628 0.24086593
v 0.1700834 -0.62459326 0.43355867
v 0.004500786 -0.35892367 0.24386226
v 0.008101415 -0.6460626 0.43895206
v -0.032520197 -0.5741818 0.5277141
v -0.018066775 -0.3189899 0.29317448
vt 0 0
vt 0.1536602 0
vt 0.68362606 0
vt 0.5289593 0
vt 0.2833422 0
vt 0.4157011 0
vt 0.77813935 0
vt 0.9055358 0
vt 0 1
vt 0.1536602 1
vt 0.68362606 1
vt 0.5289593 1
vt 0.4157011 1
vt 0.2833422 1
vt 0.77813935 1
vt 0.9055358 1
vt 0.4157011 1
vt 0.4157011 0
vt 0.1536602 0
vt 0.1536602 1
vt 0.2833422 1
vt 0.2833422 0
vt 0.68362606 0
vt 0.68362606 1
vt 0.77813935 0
vt 0.77813935 1
vt 0.9055358 0
vt 0.9055358 1
vt 1 1
vt 1 0
vn 0.97880787 -0.16584407 -0.12012877
vn 0.97880787 -0.1658441 -0.12012877
vn -0.9314859 -0.07405777 0.35615927
vn -0.9314859 -0.07405777 0.35615927
vn 0.22131653 -0.8776974 -0.4250486
vn -0.9332043 -0.087169215 0.3486134
vn -0.8018629 0.17764652 0.57048905
vn -0.046831775 0.5609671 0.8265124
vn 0.97880787 -0.1658441 -0.12012877
vn 0.97880787 -0.16584408 -0.12012878
vn -0.9314859 -0.07405778 0.35615933
vn -0.9314859 -0.07405778 0.35615933
vn -0.9332043 -0.087169215 0.3486134
vn 0.22131653 -0.8776974 -0.4250486
vn -0.8018629 0.1776465 0.570489
vn -0.04683178 0.56096715 0.8265124
vn 0.22131653 -0.8776974 -0.4250486
vn 0.22131653 -0.8776974 -0.42504856
vn 0.7519683 -0.5475103 -0.36711866
vn 0.7519683 -0.5475103 -0.36711866
vn 0.7519683 -0.5475104 -0.36711866
vn 0.7519683 -0.5475103 -0.36711866
vn -0.8018629 0.17764652 0.57048905
vn -0.8018629 0.1776465 0.570489
vn -0.046831775 0.56096715 0.8265124
vn -0.046831775 0.56096715 0.8265124
vn 0.94202673 0.19656943 0.27193037
vn 0.94202673 0.1965694 0.27193037
vn 0.94202673 0.19656943 0.27193037
vn 0.94202673 0.19656941 0.2719304
g shard27_0
f 10/10/10 9/9/9 1/1/1
f 2/2/2 10/10/10 1/1/1
f 11/11/11 12/12/12 4/4/4
f 3/3/3 11/11/11 4/4/4
f 4/4/4 12/12/12 6/6/6
f 12/12/12 13/13/13 6/6/6
f 17/17/17 14/14/14 5/5/5
f 18/18/18 17/17/17 5/5/5
f 21/21/21 20/20/20 19/19/19
f 22/22/22 21/21/21 19/19/19
f 15/15/15 24/24/24 23/23/23
f 7/7/7 15/15/15 23/23/23
f 16/16/16 26/26/26 25/25/25
f 8/8/8 16/16/16 25/25/25
f 29/29/29 28/28/28 27/27/27
f 30/30/30 29/29/29 27/27/27
