g shard38
v -0.13514706 -0.3434648 -0.2248491
v -0.20035729 -0.31851053 -0.21481888
v -0.24145848 -0.3300716 -0.14174384
v -0.09094627 -0.388229 -0.15732644
v -0.010699039 -0.41116184 -0.104989305
v -0.072635055 -0.41775784 -0.0017045933
v -0.14933269 -0.40033856 -0.0037208372
v -0.24561885 -0.35005835 -0.067717105
v -0.24651743 -0.35704315 -0.004708888
v -0.24326472 -0.61823666 -0.40472838
v -0.36064312 -0.57331896 -0.386674
v -0.43462527 -0.59412885 -0.2551389
v -0.1637033 -0.69881225 -0.2831876
v -0.019258272 -0.7400913 -0.18898076
v -0.1307431 -0.7519641 -0.0030682678
v -0.26879883 -0.7206094 -0.0066975066
v -0.44211394 -0.630105 -0.12189079
v -0.44373137 -0.64267766 -0.008475998
v -0.20035729 -0.31851053 -0.21481888
v -0.36064312 -0.57331896 -0.386674
v -0.24326472 -0.61823666 -0.40472838
v -0.13514706 -0.3434648 -0.2248491
v -0.1637033 -0.69881225 -0.2831876
v -0.09094627 -0.388229 -0.15732644
v -0.019258272 -0.7400913 -0.18898076
v -0.010699039 -0.41116184 -0.104989305
v -0.1307431 -0.7519641 -0.0030682678
v -0.072635055 -0.41775784 -0.0017045933
v -0.24145848 -0.3300716 -0.14174384
v -0.43462527 -0.59412885 -0.2551389
v -0.24561885 -0.35005835 -0.067717105
v -0.44211394 -0.630105 -0.12189079
v -0.24651743 -0.35704315 -0.004708888
v -0.44373137 -0.64267766 -0.008475998
vt 0 0
vt 0.08908089 0
vt 0.19596252 0
vt 0.883454 0
vt 0.7590458 0
vt 0.60672855 0
vt 0.5073703 0
vt 0.29293838 0
vt 0.37300485 0
vt 0 1
vt 0.08908089 1
vt 0.19596252 1
vt 0.883454 1
vt 0.7590458 1
vt 0.60672855 1
vt 0.5073703 1
vt 0.29293838 1
vt 0.37300485 1
vt 0.08908089 0
vt 0.08908089 1
vt 1 1
vt 1 0
vt 0.883454 1
vt 0.883454 0
vt 0.7590458 1
vt 0.7590458 0
vt 0.60672855 1
vt 0.60672855 0
vt 0.19596252 0
vt 0.19596252 1
vt 0.29293838 0
vt 0.29293838 1
vt 0.37300485 0
vt 0.37300485 1
vn -0.07120118 -0.5265677 0.8471463
vn -0.07120118 -0.52656776 0.8471462
vn 0.7061903 -0.6434558 0.29539806
vn -0.84270436 -0.020601327 0.53798234
vn -0.5737242 -0.18859342 0.79704016
vn -0.8520928 0.15019818 -0.50137645
vn 0.026172101 -0.0004715705 -0.99965733
vn 0.8235057 -0.5576419 -0.10427802
vn 0.8221491 -0.5669717 -0.051126886
vn -0.07120118 -0.5265677 0.8471463
vn -0.07120119 -0.5265677 0.8471463
vn 0.7061903 -0.6434558 0.2953981
vn -0.84270436 -0.020601327 0.53798234
vn -0.5737242 -0.1885934 0.79704016
vn -0.8520928 0.15019818 -0.50137645
vn 0.0261721 -0.00047157053 -0.99965733
vn 0.8235057 -0.5576419 -0.10427802
vn 0.8221491 -0.5669718 -0.05112688
vn 0.7061903 -0.6434558 0.2953981
vn 0.7061903 -0.6434558 0.29539806
vn -0.84270436 -0.020601327 0.53798234
vn -0.8427043 -0.020601327 0.53798234
vn -0.5737242 -0.1885934 0.79704016
vn -0.5737242 -0.1885934 0.79704016
vn -0.8520928 0.15019818 -0.50137645
vn -0.8520928 0.1501982 -0.5013765
vn 0.026172101 -0.00047157053 -0.99965733
vn 0.026172101 -0.00047157053 -0.99965733
vn 0.8235057 -0.5576419 -0.10427802
vn 0.8235057 -0.5576419 -0.10427802
vn 0.8221491 -0.5669717 -0.051126882
vn 0.8221491 -0.5669717 -0.051126882
vn 0.012267459 0.0047174618 -0.99991363
vn 0.012267459 0.0047174618 -0.99991363
g shard38_0
f 11/11/11 10/10/10 1/1/1
f 2/2/2 11/11/11 1/1/1
f 12/12/12 20/20/20 19/19/19
f 3/3/3 12/12/12 19/19/19
f 21/21/21 13/13/13 4/4/4
f 22/22/22 21/21/21 4/4/4
f 23/23/23 14/14/14 5/5/5
f 24/24/24 23/23/23 5/5/5
f 25/25/25 15/15/15 6/6/6
f 26/26/26 25/25/25 6/6/6
f 27/27/27 16/16/16 7/7/7
f 28/28/28 27/27/27 7/7/7
f 7/7/7 16/16/16 33/33/33
f 16/16/16 34/34/34 33/33/33
f 17/17/17 30/30/30 29/29/29
f 8/8/8 17/17/17 29/29/29
f 18/18/18 32/32/32 31/31/31
f 9/9/9 18/18/18 31/31/31
