g shard78
v 0.19262525 0.048274122 -0.06524786
v 0.12113298 0.06083385 -0.07259655
v 0.20244947 -0.039357558 -0.037588894
v 0.096886896 -0.043030217 -0.04672724
v 0.20431936 -0.09957716 -0.007643223
v 0.09909983 -0.11578725 -0.011572629
v 0.029433034 0.052755043 -0.06658146
v 0.01896625 0.11654488 -0.07080558
v -0.07209468 0.041206658 -0.035835475
v 0.035702713 -0.0514396 -0.036409765
v -0.07188453 -0.043217435 -0.007718116
v -0.13503677 -0.022347137 0.015150607
v -0.14133169 0.045161232 -0.003320992
v -0.19085069 -0.018278673 0.057563394
v -0.20431937 0.07020615 0.040977716
v 0.011884868 -0.11840181 0.0036578476
v 0.19161028 0.054153614 -0.046158582
v 0.20100915 -0.031989485 -0.019126862
v 0.12122133 0.064535715 -0.053098798
v 0.096988305 -0.036102504 -0.027965665
v 0.20236132 -0.090858474 0.010248661
v 0.09947893 -0.10678056 0.0061072707
v 0.032644145 0.056334704 -0.047168195
v 0.02231931 0.118401796 -0.05130264
v -0.06512265 0.045066968 -0.017649263
v 0.039321296 -0.044000253 -0.018200934
v -0.06517166 -0.036061496 0.009596109
v -0.12496598 -0.016817734 0.03137234
v -0.13088983 0.05027291 0.012779921
v -0.17863862 -0.013306603 0.07259655
v -0.19186528 0.074898496 0.055906773
v 0.015916288 -0.10943304 0.021024376
v 0.19161028 0.054153614 -0.046158582
v 0.19262525 0.048274122 -0.06524786
v 0.20244947 -0.039357558 -0.037588894
v 0.20100915 -0.031989485 -0.019126862
v 0.20431936 -0.09957716 -0.007643223
v 0.20236132 -0.090858474 0.010248661
v 0.12122133 0.064535715 -0.053098798
v 0.12113298 0.06083385 -0.07259655
v 0.19262525 0.048274122 -0.06524786
v 0.19161028 0.054153614 -0.046158582
v 0.02231931 0.118401796 -0.05130264
v 0.01896625 0.11654488 -0.07080558
v 0.20236132 -0.090858474 0.010248661
v 0.20431936 -0.09957716 -0.007643223
v 0.09909983 -0.11578725 -0.011572629
v 0.09947893 -0.10678056 0.0061072707
v 0.011884868 -0.11840181 0.0036578476
v 0.015916288 -0.10943304 0.021024376
v -0.13088983 0.05027291 0.012779921
v -0.14133169 0.045161232 -0.003320992
v -0.07209468 0.041206658 -0.035835475
v -0.06512265 0.045066968 -0.017649263
v -0.19186528 0.074898496 0.055906773
v -0.20431937 0.07020615 0.040977716
v -0.06517166 -0.036061496 0.009596109
v -0.07188453 -0.043217435 -0.007718116
v -0.13503677 -0.022347137 0.015150607
v -0.12496598 -0.016817734 0.03137234
v -0.19085069 -0.018278673 0.057563394
v -0.17863862 -0.013306603 0.07259655
v -0.17863862 -0.013306603 0.07259655
v -0.19085069 -0.018278673 0.057563394
v -0.20431937 0.07020615 0.040977716
v -0.19186528 0.074898496 0.055906773
v -0.06512265 0.045066968 -0.017649263
v -0.07209468 0.041206658 -0.035835475
v 0.01896625 0.11654488 -0.07080558
v 0.02231931 0.118401796 -0.05130264
v 0.015916288 -0.10943304 0.021024376
v 0.011884868 -0.11840181 0.0036578476
v -0.07188453 -0.043217435 -0.007718116
v -0.06517166 -0.036061496 0.009596109
vt 0.53125 0.65625
vt 0.5 0.65625
vt 0.53125 0.6875
vt 0.5 0.6875
vt 0.53125 0.71875
vt 0.5 0.71875
vt 0.46875 0.65625
vt 0.46875 0.625
vt 0.4375 0.65625
vt 0.46875 0.6875
vt 0.4375 0.6875
vt 0.40625 0.6875
vt 0.40625 0.65625
vt 0.375 0.6875
vt 0.375 0.65625
vt 0.46875 0.71875
vt 0.53125 0.65625
vt 0.53125 0.6875
vt 0.5 0.65625
vt 0.5 0.6875
vt 0.53125 0.71875
vt 0.5 0.71875
vt 0.46875 0.65625
vt 0.46875 0.625
vt 0.4375 0.65625
vt 0.46875 0.6875
vt 0.4375 0.6875
vt 0.40625 0.6875
vt 0.40625 0.65625
vt 0.375 0.6875
vt 0.375 0.65625
vt 0.46875 0.71875
vt 0.53125 0.65625
vt 0.53125 0.65625
vt 0.53125 0.6875
vt 0.53125 0.6875
vt 0.53125 0.71875
vt 0.53125 0.71875
vt 0.5 0.65625
vt 0.5 0.65625
vt 0.53125 0.65625
vt 0.53125 0.65625
vt 0.46875 0.625
vt 0.46875 0.625
vt 0.53125 0.71875
vt 0.53125 0.71875
vt 0.5 0.71875
vt 0.5 0.71875
vt 0.46875 0.71875
vt 0.46875 0.71875
vt 0.40625 0.65625
vt 0.40625 0.65625
vt 0.4375 0.65625
vt 0.4375 0.65625
vt 0.375 0.65625
vt 0.375 0.65625
vt 0.4375 0.6875
vt 0.4375 0.6875
vt 0.40625 0.6875
vt 0.40625 0.6875
vt 0.375 0.6875
vt 0.375 0.6875
vt 0.375 0.6875
vt 0.375 0.6875
vt 0.375 0.65625
vt 0.375 0.65625
vt 0.4375 0.65625
vt 0.4375 0.65625
vt 0.46875 0.625
vt 0.46875 0.625
vt 0.46875 0.71875
vt 0.46875 0.71875
vt 0.4375 0.6875
vt 0.4375 0.6875
vn 0.04607444 -0.29597023 -0.9540853
vn 0.013649446 -0.2340934 -0.97211826
vn 0.086399615 -0.3483468 -0.93337536
vn 0.013762029 -0.32957673 -0.9440285
vn 0.09590221 -0.43620855 -0.89472055
vn 0.0039646565 -0.44546124 -0.89529246
vn -0.16899686 -0.19835925 -0.96545
vn -0.18427566 -0.09501686 -0.97827107
vn -0.30430517 -0.26931882 -0.9137099
vn -0.19751844 -0.36153406 -0.9111968
vn -0.30735645 -0.32678804 -0.8937234
vn -0.49379513 -0.27645484 -0.8244629
vn -0.5327279 -0.25961086 -0.8054832
vn -0.6107197 -0.2457257 -0.75275517
vn -0.61991096 -0.23470563 -0.74874806
vn -0.20953387 -0.44610828 -0.87010515
vn -0.05074836 0.2939743 0.95446515
vn -0.087042555 0.34936744 0.93293405
vn -0.015505936 0.23508416 0.97185135
vn -0.015363619 0.33007193 0.9438308
vn -0.09741897 0.43667904 0.8943271
vn -0.005674308 0.44470707 0.89565814
vn 0.16840014 0.19842756 0.96554023
vn 0.18371737 0.0957288 0.97830665
vn 0.3036827 0.27011135 0.91368306
vn 0.19815908 0.3624516 0.91069305
vn 0.3060727 0.32873106 0.89345145
vn 0.49730572 0.27653947 0.82232165
vn 0.5362632 0.25940624 0.8031999
vn 0.61335856 0.24558744 0.7506517
vn 0.6227058 0.23461723 0.74645317
vn 0.21064116 0.4461023 0.8698408
vn 0.9928242 0.11724014 0.023555173
vn 0.9928242 0.11724014 0.02355517
vn 0.9947721 0.093231656 0.041670315
vn 0.9947705 0.093256444 0.041651666
vn 0.9959748 0.060080837 0.06651744
vn 0.9959748 0.060080845 0.06651744
vn 0.36193463 0.9119156 -0.19342518
vn 0.35938156 0.91279256 -0.19404812
vn 0.17806062 0.9560104 -0.23310615
vn 0.17806062 0.9560104 -0.23310617
vn 0.46969113 0.86726385 -0.16505647
vn 0.46969113 0.86726385 -0.16505647
vn 0.11954158 -0.88648903 0.44704258
vn 0.11954158 -0.88648903 0.44704258
vn 0.11330256 -0.8881605 0.4453464
vn 0.11330233 -0.8881606 0.44534633
vn 0.10570171 -0.89014167 0.443255
vn 0.1057017 -0.89014167 0.44325495
vn 0.03562594 0.9513458 -0.3060588
vn 0.035731576 0.95131063 -0.3061558
vn -0.042538278 0.9716311 -0.23264448
vn -0.042538274 0.9716311 -0.23264451
vn 0.10789782 0.92233205 -0.3710279
vn 0.10789782 0.92233205 -0.3710279
vn -0.14381947 -0.8996365 0.41227436
vn -0.14381947 -0.8996365 0.41227433
vn -0.012746575 -0.9438986 0.3299892
vn -0.012709192 -0.94390774 0.32996455
vn 0.116933025 -0.9636049 0.24039997
vn 0.11693302 -0.9636049 0.24039997
vn -0.77249116 0.0028788515 0.635019
vn -0.77249116 0.0028788515 0.63501894
vn -0.77249116 0.0028788515 0.63501894
vn -0.77249116 0.0028788515 0.63501894
vn -0.62676704 0.7773481 0.05378574
vn -0.62676704 0.77734816 0.05378574
vn -0.626767 0.77734816 0.05378574
vn -0.626767 0.77734816 0.053785745
vn -0.6229377 -0.6175904 0.48013616
vn -0.62293774 -0.6175904 0.4801362
vn -0.62293774 -0.6175904 0.4801362
vn -0.6229377 -0.61759037 0.4801362
g shard78_0
f 3/3/3 2/2/2 1/1/1
f 3/3/3 4/4/4 2/2/2
f 5/5/5 4/4/4 3/3/3
f 5/5/5 6/6/6 4/4/4
f 4/4/4 7/7/7 2/2/2
f 2/2/2 7/7/7 8/8/8
f 8/8/8 7/7/7 9/9/9
f 4/4/4 10/10/10 7/7/7
f 10/10/10 9/9/9 7/7/7
f 6/6/6 10/10/10 4/4/4
f 10/10/10 11/11/11 9/9/9
f 9/9/9 11/11/11 12/12/12
f 9/9/9 12/12/12 13/13/13
f 13/13/13 12/12/12 14/14/14
f 13/13/13 14/14/14 15/15/15
f 16/16/16 11/11/11 10/10/10
f 6/6/6 16/16/16 10/10/10
f 19/19/19 18/18/18 17/17/17
f 20/20/20 18/18/18 19/19/19
f 20/20/20 21/21/21 18/18/18
f 22/22/22 21/21/21 20/20/20
f 23/23/23 20/20/20 19/19/19
f 23/23/23 19/19/19 24/24/24
f 23/23/23 24/24/24 25/25/25
f 26/26/26 20/20/20 23/23/23
f 25/25/25 26/26/26 23/23/23
f 26/26/26 22/22/22 20/20/20
f 27/27/27 26/26/26 25/25/25
f 27/27/27 25/25/25 28/28/28
f 28/28/28 25/25/25 29/29/29
f 28/28/28 29/29/29 30/30/30
f 30/30/30 29/29/29 31/31/31
f 27/27/27 32/32/32 26/26/26
f 32/32/32 22/22/22 26/26/26
f 35/35/35 34/34/34 33/33/33
f 36/36/36 35/35/35 33/33/33
f 37/37/37 35/35/35 36/36/36
f 38/38/38 37/37/37 36/36/36
f 41/41/41 40/40/40 39/39/39
f 42/42/42 41/41/41 39/39/39
f 39/39/39 40/40/40 43/43/43
f 40/40/40 44/44/44 43/43/43
f 47/47/47 46/46/46 45/45/45
f 48/48/48 47/47/47 45/45/45
f 49/49/49 47/47/47 48/48/48
f 50/50/50 49/49/49 48/48/48
f 53/53/53 52/52/52 51/51/51
f 54/54/54 53/53/53 51/51/51
f 51/51/51 52/52/52 55/55/55
f 52/52/52 56/56/56 55/55/55
f 59/59/59 58/58/58 57/57/57
f 60/60/60 59/59/59 57/57/57
f 61/61/61 59/59/59 60/60/60
f 62/62/62 61/61/61 60/60/60
f 65/65/65 64/64/64 63/63/63
f 66/66/66 65/65/65 63/63/63
f 69/69/69 68/68/68 67/67/67
f 70/70/70 69/69/69 67/67/67
f 73/73/73 72/72/72 71/71/71
f 74/74/74 73/73/73 71/71/71
