g shard81
v -0.009706497 -0.13630149 -0.0048883557
v -0.078707725 -0.10929085 0.03986928
v 0.017363787 -0.05286559 0.008121222
v -0.079147846 -0.047724772 0.05695924
v 0.047763944 -0.104557455 -0.033495188
v 0.08766237 -0.031433266 -0.047851652
v 0.020859033 0.02342746 0.016672254
v 0.08673516 0.039135348 -0.035766035
v -0.072459444 0.046352286 0.06278616
v 0.027155638 0.103251055 0.005822599
v 0.067034364 0.13630149 -0.03399965
v -0.019666046 -0.13051432 -0.02118206
v 0.0065581203 -0.04899096 -0.008256346
v -0.08741382 -0.10410744 0.022631526
v -0.087662384 -0.044455405 0.03922969
v 0.035748214 -0.09945214 -0.04858154
v 0.07482082 -0.028079148 -0.06278613
v 0.010111898 0.02406729 -0.00018271804
v 0.073851824 0.039175 -0.05085984
v -0.08127129 0.046382025 0.044916153
v 0.016054273 0.10119854 -0.010507584
v 0.05397761 0.13386224 -0.048951954
v -0.08741382 -0.10410744 0.022631526
v -0.078707725 -0.10929085 0.03986928
v -0.009706497 -0.13630149 -0.0048883557
v -0.019666046 -0.13051432 -0.02118206
v -0.087662384 -0.044455405 0.03922969
v -0.079147846 -0.047724772 0.05695924
v -0.078707725 -0.10929085 0.03986928
v -0.08741382 -0.10410744 0.022631526
v -0.08127129 0.046382025 0.044916153
v -0.072459444 0.046352286 0.06278616
v -0.019666046 -0.13051432 -0.02118206
v -0.009706497 -0.13630149 -0.0048883557
v 0.047763944 -0.104557455 -0.033495188
v 0.035748214 -0.09945214 -0.04858154
v 0.035748214 -0.09945214 -0.04858154
v 0.047763944 -0.104557455 -0.033495188
v 0.08766237 -0.031433266 -0.047851652
v 0.07482082 -0.028079148 -0.06278613
v 0.07482082 -0.028079148 -0.06278613
v 0.08766237 -0.031433266 -0.047851652
v 0.08673516 0.039135348 -0.035766035
v 0.073851824 0.039175 -0.05085984
v 0.067034364 0.13630149 -0.03399965
v 0.05397761 0.13386224 -0.048951954
v 0.016054273 0.10119854 -0.010507584
v 0.027155638 0.103251055 0.005822599
v -0.072459444 0.046352286 0.06278616
v -0.08127129 0.046382025 0.044916153
v 0.05397761 0.13386224 -0.048951954
v 0.067034364 0.13630149 -0.03399965
vt 0.59375 0.0625
vt 0.5625 0.0625
vt 0.59375 0.09375
vt 0.5625 0.09375
vt 0.625 0.0625
vt 0.625 0.09375
vt 0.59375 0.125
vt 0.625 0.125
vt 0.5625 0.125
vt 0.59375 0.15625
vt 0.625 0.15625
vt 0.59375 0.0625
vt 0.59375 0.09375
vt 0.5625 0.0625
vt 0.5625 0.09375
vt 0.625 0.0625
vt 0.625 0.09375
vt 0.59375 0.125
vt 0.625 0.125
vt 0.5625 0.125
vt 0.59375 0.15625
vt 0.625 0.15625
vt 0.5625 0.0625
vt 0.5625 0.0625
vt 0.59375 0.0625
vt 0.59375 0.0625
vt 0.5625 0.09375
vt 0.5625 0.09375
vt 0.5625 0.0625
vt 0.5625 0.0625
vt 0.5625 0.125
vt 0.5625 0.125
vt 0.59375 0.0625
vt 0.59375 0.0625
vt 0.625 0.0625
vt 0.625 0.0625
vt 0.625 0.0625
vt 0.625 0.0625
vt 0.625 0.09375
vt 0.625 0.09375
vt 0.625 0.09375
vt 0.625 0.09375
vt 0.625 0.125
vt 0.625 0.125
vt 0.625 0.15625
vt 0.625 0.15625
vt 0.59375 0.15625
vt 0.59375 0.15625
vt 0.5625 0.125
vt 0.5625 0.125
vt 0.625 0.15625
vt 0.625 0.15625
vn 0.47753176 -0.2845454 0.83126247
vn 0.43560293 -0.25614047 0.86292654
vn 0.53106487 -0.1861843 0.82662296
vn 0.43109885 -0.15396252 0.8890721
vn 0.6035858 -0.25358945 0.7558946
vn 0.6414134 -0.14679937 0.75301975
vn 0.523592 -0.030408839 0.85142624
vn 0.63559514 -0.015106254 0.7718748
vn 0.43571022 -0.03552403 0.8993857
vn 0.5713574 0.08891317 0.81587076
vn 0.650825 0.11832382 0.7499508
vn -0.47627112 0.285089 -0.83179927
vn -0.5307767 0.18709844 -0.8266016
vn -0.43470997 0.2575583 -0.86295474
vn -0.43036628 0.15498294 -0.8892498
vn -0.6041906 0.25404721 -0.75525737
vn -0.64219993 0.14878772 -0.7519585
vn -0.5230038 0.030717777 -0.85177666
vn -0.63597035 0.01590571 -0.7715495
vn -0.43511897 0.036308642 -0.8996405
vn -0.5714498 -0.089860335 -0.81570226
vn -0.65283847 -0.12196252 -0.74761426
vn -0.40383235 -0.91187227 -0.07354181
vn -0.40383238 -0.91187227 -0.07354181
vn -0.40383238 -0.91187227 -0.07354181
vn -0.4038324 -0.91187227 -0.07354182
vn -0.9018349 -0.027375637 0.43121257
vn -0.9018356 -0.027390867 0.43121025
vn -0.9018105 -0.12045849 0.41500306
vn -0.9018105 -0.12045849 0.41500303
vn -0.89725447 0.03606704 0.44003814
vn -0.89725447 0.03606704 0.44003814
vn 0.24267374 -0.8511822 -0.46540123
vn 0.24267374 -0.8511822 -0.4654012
vn 0.24267377 -0.8511822 -0.46540123
vn 0.24267374 -0.8511822 -0.4654012
vn 0.61463666 -0.46225134 -0.6391756
vn 0.61463666 -0.4622514 -0.63917565
vn 0.61463666 -0.4622514 -0.63917565
vn 0.61463666 -0.46225134 -0.6391756
vn 0.76054054 0.12158412 -0.6378051
vn 0.76054054 0.121584125 -0.6378051
vn 0.74876803 0.14704803 -0.6463152
vn 0.7487742 0.1470352 -0.64631104
vn 0.73998016 0.16512874 -0.65204436
vn 0.73998016 0.16512877 -0.6520444
vn -0.42756367 0.88091 0.20294565
vn -0.4276833 0.88082737 0.20305192
vn -0.40430987 0.89624935 0.18240243
vn -0.40430987 0.89624935 0.18240243
vn -0.47182986 0.84763837 0.24266389
vn -0.47182986 0.8476383 0.24266388
g shard81_0
f 3/3/3 2/2/2 1/1/1
f 3/3/3 4/4/4 2/2/2
f 5/5/5 3/3/3 1/1/1
f 5/5/5 6/6/6 3/3/3
f 6/6/6 7/7/7 3/3/3
f 7/7/7 4/4/4 3/3/3
f 6/6/6 8/8/8 7/7/7
f 7/7/7 9/9/9 4/4/4
f 10/10/10 9/9/9 7/7/7
f 8/8/8 10/10/10 7/7/7
f 8/8/8 11/11/11 10/10/10
f 14/14/14 13/13/13 12/12/12
f 15/15/15 13/13/13 14/14/14
f 13/13/13 16/16/16 12/12/12
f 17/17/17 16/16/16 13/13/13
f 18/18/18 17/17/17 13/13/13
f 15/15/15 18/18/18 13/13/13
f 19/19/19 17/17/17 18/18/18
f 20/20/20 18/18/18 15/15/15
f 20/20/20 21/21/21 18/18/18
f 21/21/21 19/19/19 18/18/18
f 22/22/22 19/19/19 21/21/21
f 25/25/25 24/24/24 23/23/23
f 26/26/26 25/25/25 23/23/23
f 29/29/29 28/28/28 27/27/27
f 30/30/30 29/29/29 27/27/27
f 27/27/27 28/28/28 31/31/31
f 28/28/28 32/32/32 31/31/31
f 35/35/35 34/34/34 33/33/33
f 36/36/36 35/35/35 33/33/33
f 39/39/39 38/38/38 37/37/37
f 40/40/40 39/39/39 37/37/37
f 43/43/43 42/42/42 41/41/41
f 44/44/44 43/43/43 41/41/41
f 45/45/45 43/43/43 44/44/44
f 46/46/46 45/45/45 44/44/44
f 49/49/49 48/48/48 47/47/47
f 50/50/50 49/49/49 47/47/47
f 47/47/47 48/48/48 51/51/51
f 48/48/48 52/52/52 51/51/51
