g shield_level1_19
v 0.14725518 0.47867042 -0.106637515
v 0.0014927436 0.24911745 -0.040225796
v -0.13214482 0.48058432 -0.12348437
v -0.27659854 0.24477738 -0.07655994
v -0.14025041 0.008615562 -0.012995791
v 0.13976379 0.0096250065 0.0032767272
v 0.28136635 0.24638319 -0.044116218
v 0.15196206 0.47677526 -0.13583477
v 0.14725518 0.47867042 -0.106637515
v -0.13214482 0.48058432 -0.12348437
v -0.13321969 0.47882026 -0.1530557
v -0.13321969 0.47882026 -0.1530557
v -0.13214482 0.48058432 -0.12348437
v -0.27659854 0.24477738 -0.07655994
v -0.28068686 0.23812063 -0.105161056
v -0.28068686 0.23812063 -0.105161056
v -0.27659854 0.24477738 -0.07655994
v -0.14025041 0.008615562 -0.012995791
v -0.1415445 -0.0028808867 -0.040294316
v -0.1415445 -0.0028808867 -0.040294316
v -0.14025041 0.008615562 -0.012995791
v 0.13976379 0.0096250065 0.0032767272
v 0.14428735 -0.0018358696 -0.023684684
v 0.14428735 -0.0018358696 -0.023684684
v 0.13976379 0.0096250065 0.0032767272
v 0.28136635 0.24638319 -0.044116218
v 0.28873944 0.23987004 -0.07207051
v 0.28873944 0.23987004 -0.07207051
v 0.28136635 0.24638319 -0.044116218
v 0.14725518 0.47867042 -0.106637515
v 0.15196206 0.47677526 -0.13583477
vt 0.73054934 0.95190513
vt 0.4999999 0.5
vt 0.26945072 0.95190537
vt 0.038901478 0.5
vt 0.26945078 0.04809472
vt 0.7305496 0.04809493
vt 0.96109855 0.50000024
vt 0.078590065 0.31095022
vt 0.055537045 0.3088193
vt 0.055537105 0.3088193
vt 0.078590065 0.31095022
vt 0.078590065 0.31095022
vt 0.055537105 0.3088193
vt 0.055537134 0.24943586
vt 0.078590035 0.24943586
vt 0.078590035 0.24943586
vt 0.055537134 0.24943586
vt 0.055537134 0.19005238
vt 0.078590065 0.18792143
vt 0.078590065 0.18792143
vt 0.055537134 0.19005238
vt 0.055537105 0.19005238
vt 0.078590065 0.18792143
vt 0.078590065 0.18792143
vt 0.055537105 0.19005238
vt 0.055537075 0.24943586
vt 0.078590035 0.24943586
vt 0.078590035 0.24943586
vt 0.055537075 0.24943586
vt 0.055537045 0.3088193
vt 0.078590065 0.31095022
vn -0.019610269 0.28932917 0.9570288
vn -0.057372473 0.22845754 0.9718619
vn -0.09216517 0.28948668 0.9527345
vn -0.12963885 0.22806212 0.96497744
vn -0.0941705 0.16662915 0.9815124
vn -0.021307478 0.16675752 0.98576766
vn 0.015760668 0.22806484 0.97351843
vn 0.010708314 0.99805087 -0.061480433
vn 0.010708314 0.99805087 -0.06148044
vn 0.010708316 0.99805087 -0.06148044
vn 0.010708313 0.99805087 -0.061480433
vn -0.8527007 0.5223998 6.1724146E-05
vn -0.8527007 0.5223998 6.1724146E-05
vn -0.8527007 0.5223998 6.172414E-05
vn -0.8527007 0.5223998 6.1724146E-05
vn -0.86865765 -0.44050455 0.22669291
vn -0.86865765 -0.44050455 0.22669289
vn -0.86865765 -0.44050455 0.22669289
vn -0.86865765 -0.44050455 0.22669289
vn -0.019238243 -0.9211999 0.3886137
vn -0.019238241 -0.9211999 0.38861373
vn -0.019238245 -0.9211999 0.38861367
vn -0.01923824 -0.9211999 0.38861364
vn 0.83901757 -0.43662325 0.32466844
vn 0.83901757 -0.43662325 0.32466844
vn 0.83901757 -0.43662325 0.32466847
vn 0.8390176 -0.43662322 0.3246685
vn 0.84910864 0.5180266 0.10326169
vn 0.84910864 0.51802665 0.103261694
vn 0.84910864 0.51802665 0.103261694
vn 0.84910864 0.51802665 0.10326171
g shield_level1_19_0
f 3/3/3 2/2/2 1/1/1
f 4/4/4 2/2/2 3/3/3
f 5/5/5 2/2/2 4/4/4
f 6/6/6 2/2/2 5/5/5
f 7/7/7 2/2/2 6/6/6
f 1/1/1 2/2/2 7/7/7
f 10/10/10 9/9/9 8/8/8
f 11/11/11 10/10/10 8/8/8
f 14/14/14 13/13/13 12/12/12
f 15/15/15 14/14/14 12/12/12
f 18/18/18 17/17/17 16/16/16
f 19/19/19 18/18/18 16/16/16
f 22/22/22 21/21/21 20/20/20
f 23/23/23 22/22/22 20/20/20
f 26/26/26 25/25/25 24/24/24
f 27/27/27 26/26/26 24/24/24
f 30/30/30 29/29/29 28/28/28
f 31/31/31 30/30/30 28/28/28
