g shield_level1_22
v 0.18424812 0.43664175 -0.36407015
v 0.09873817 0.22593103 -0.21549541
v -0.043601282 0.43664175 -0.31102487
v -0.14980993 0.22593106 -0.17646591
v -0.010316161 0.0016419792 -0.09905834
v 0.24800652 0.001641941 -0.15919802
v 0.33896747 0.22593103 -0.29025736
v 0.17985597 0.42839733 -0.3920741
v 0.18424812 0.43664175 -0.36407015
v -0.043601282 0.43664175 -0.31102487
v -0.052029494 0.42839733 -0.3380892
v -0.052029494 0.42839733 -0.3380892
v -0.043601282 0.43664175 -0.31102487
v -0.14980993 0.22593106 -0.17646591
v -0.16075638 0.21358356 -0.20070001
v -0.16075638 0.21358356 -0.20070001
v -0.14980993 0.22593106 -0.17646591
v -0.010316161 0.0016419792 -0.09905834
v -0.018623484 -0.015587749 -0.12165612
v -0.018623484 -0.015587749 -0.12165612
v -0.010316161 0.0016419792 -0.09905834
v 0.24800652 0.001641941 -0.15919802
v 0.2454787 -0.015587787 -0.18314132
v 0.2454787 -0.015587787 -0.18314132
v 0.24800652 0.001641941 -0.15919802
v 0.33896747 0.22593103 -0.29025736
v 0.33808464 0.21358353 -0.31683436
v 0.33808464 0.21358353 -0.31683436
v 0.33896747 0.22593103 -0.29025736
v 0.18424812 0.43664175 -0.36407015
v 0.17985597 0.42839733 -0.3920741
vt 0.73054934 0.95190513
vt 0.4999999 0.5
vt 0.26945072 0.95190537
vt 0.038901478 0.5
vt 0.26945078 0.04809472
vt 0.7305496 0.04809493
vt 0.96109855 0.50000024
vt 0.078590095 0.16888879
vt 0.05553712 0.16675788
vt 0.055537164 0.16675788
vt 0.078590095 0.16888879
vt 0.078590095 0.16888879
vt 0.055537164 0.16675788
vt 0.05553715 0.107374415
vt 0.078590035 0.10737443
vt 0.078590035 0.10737443
vt 0.05553715 0.107374415
vt 0.05553714 0.047990933
vt 0.07859005 0.045860007
vt 0.07859005 0.045860007
vt 0.05553714 0.047990933
vt 0.055537097 0.04799092
vt 0.078590065 0.045860007
vt 0.078590065 0.045860007
vt 0.055537097 0.04799092
vt 0.055537105 0.107374415
vt 0.078590035 0.10737443
vt 0.078590035 0.10737443
vt 0.055537105 0.107374415
vt 0.05553712 0.16675788
vt 0.078590095 0.16888879
vn 0.22596924 0.49844417 0.8369536
vn 0.20361857 0.43997905 0.8746187
vn 0.16693032 0.4984442 0.85069835
vn 0.1391351 0.44223505 0.8860415
vn 0.17929408 0.38321057 0.90609235
vn 0.23934305 0.38321054 0.89211243
vn 0.2665166 0.44223493 0.85638607
vn -0.06348077 0.96001 -0.27267382
vn -0.06348077 0.96001 -0.27267382
vn -0.06348077 0.96001 -0.27267382
vn -0.06348077 0.96001 -0.27267382
vn -0.8536387 0.5071277 0.1188381
vn -0.8536387 0.5071277 0.11883811
vn -0.8536387 0.5071277 0.1188381
vn -0.8536387 0.5071277 0.1188381
vn -0.7930673 -0.3120541 0.5231314
vn -0.7930673 -0.3120541 0.5231314
vn -0.7930673 -0.3120541 0.5231315
vn -0.7930672 -0.3120541 0.52313143
vn 0.13262409 -0.8111012 0.5696715
vn 0.13262409 -0.8111012 0.5696715
vn 0.13262409 -0.8111012 0.5696715
vn 0.1326241 -0.81110114 0.5696716
vn 0.9425747 -0.31205422 0.11905928
vn 0.9425747 -0.31205422 0.11905928
vn 0.9425747 -0.31205422 0.119059294
vn 0.9425747 -0.31205422 0.11905931
vn 0.8183507 0.507127 -0.27041522
vn 0.8183507 0.50712705 -0.27041522
vn 0.8183507 0.507127 -0.27041522
vn 0.8183507 0.507127 -0.2704152
g shield_level1_22_0
f 3/3/3 2/2/2 1/1/1
f 4/4/4 2/2/2 3/3/3
f 5/5/5 2/2/2 4/4/4
f 6/6/6 2/2/2 5/5/5
f 7/7/7 2/2/2 6/6/6
f 1/1/1 2/2/2 7/7/7
f 10/10/10 9/9/9 8/8/8
f 11/11/11 10/10/10 8/8/8
f 14/14/14 13/13/13 12/12/12
f 15/15/15 14/14/14 12/12/12
f 18/18/18 17/17/17 16/16/16
f 19/19/19 18/18/18 16/16/16
f 22/22/22 21/21/21 20/20/20
f 23/23/23 22/22/22 20/20/20
f 26/26/26 25/25/25 24/24/24
f 27/27/27 26/26/26 24/24/24
f 30/30/30 29/29/29 28/28/28
f 31/31/31 30/30/30 28/28/28
