g shield_level1_23
v 0.21988708 0.3940382 -0.3899443
v 0.104927674 0.19492272 -0.25684363
v -0.023668269 0.4413788 -0.26435143
v -0.147331 0.22718875 -0.14433418
v -0.018488178 -0.01883976 -0.15859616
v 0.22164944 -0.052379206 -0.2891024
v 0.33509138 0.14410797 -0.39920017
v 0.20856325 0.3923581 -0.4171064
v 0.21988708 0.3940382 -0.3899443
v -0.023668269 0.4413788 -0.26435143
v -0.040108792 0.44088998 -0.28900206
v -0.040108792 0.44088998 -0.28900206
v -0.023668269 0.4413788 -0.26435143
v -0.147331 0.22718875 -0.14433418
v -0.1664574 0.22204782 -0.16637811
v -0.1664574 0.22204782 -0.16637811
v -0.147331 0.22718875 -0.14433418
v -0.018488178 -0.01883976 -0.15859616
v -0.03472 -0.029020805 -0.18099491
v -0.03472 -0.029020805 -0.18099491
v -0.018488178 -0.01883976 -0.15859616
v 0.22164944 -0.052379206 -0.2891024
v 0.21033818 -0.062959574 -0.3142901
v 0.21033818 -0.062959574 -0.3142901
v 0.22164944 -0.052379206 -0.2891024
v 0.33509138 0.14410797 -0.39920017
v 0.3258812 0.13716687 -0.42642707
v 0.3258812 0.13716687 -0.42642707
v 0.33509138 0.14410797 -0.39920017
v 0.21988708 0.3940382 -0.3899443
v 0.20856325 0.3923581 -0.4171064
vt 0.73054934 0.95190513
vt 0.4999999 0.5
vt 0.26945072 0.95190537
vt 0.038901478 0.5
vt 0.26945078 0.04809472
vt 0.7305496 0.04809493
vt 0.96109855 0.50000024
vt 0.078590095 0.16888879
vt 0.05553712 0.16675788
vt 0.055537164 0.16675788
vt 0.078590095 0.16888879
vt 0.078590095 0.16888879
vt 0.055537164 0.16675788
vt 0.05553715 0.107374415
vt 0.078590035 0.10737443
vt 0.078590035 0.10737443
vt 0.05553715 0.107374415
vt 0.05553714 0.047990933
vt 0.07859005 0.045860007
vt 0.07859005 0.045860007
vt 0.05553714 0.047990933
vt 0.055537097 0.04799092
vt 0.078590065 0.045860007
vt 0.078590065 0.045860007
vt 0.055537097 0.04799092
vt 0.055537105 0.107374415
vt 0.078590035 0.10737443
vt 0.078590035 0.10737443
vt 0.055537105 0.107374415
vt 0.05553712 0.16675788
vt 0.078590095 0.16888879
vn 0.515347 0.2503358 0.8196032
vn 0.48344028 0.19859652 0.85255206
vn 0.45076254 0.2612015 0.85357296
vn 0.4205045 0.20879292 0.8829391
vn 0.45322558 0.14273827 0.87989336
vn 0.51629627 0.13333155 0.8459675
vn 0.5461614 0.18505971 0.81698257
vn 0.13362354 0.9845895 -0.11281944
vn 0.13362354 0.9845895 -0.112819426
vn 0.13362354 0.9845895 -0.11281944
vn 0.13362354 0.9845895 -0.11281944
vn -0.6586622 0.6195419 0.42700335
vn -0.6586622 0.6195419 0.42700335
vn -0.6586622 0.6195419 0.42700335
vn -0.6586622 0.61954194 0.42700335
vn -0.6549293 -0.38122222 0.65248543
vn -0.65492934 -0.38122222 0.6524854
vn -0.65492934 -0.38122222 0.6524853
vn -0.65492934 -0.38122222 0.6524853
vn 0.06930405 -0.928442 0.3649554
vn 0.06930405 -0.928442 0.36495537
vn 0.06930405 -0.928442 0.3649554
vn 0.06930405 -0.928442 0.36495537
vn 0.8224817 -0.55191654 -0.13752083
vn 0.82248175 -0.55191654 -0.13752083
vn 0.82248175 -0.55191654 -0.13752083
vn 0.8224817 -0.5519166 -0.13752083
vn 0.83540565 0.39848313 -0.37856123
vn 0.83540565 0.39848316 -0.3785613
vn 0.83540565 0.39848316 -0.3785613
vn 0.83540565 0.39848313 -0.37856123
g shield_level1_23_0
f 3/3/3 2/2/2 1/1/1
f 4/4/4 2/2/2 3/3/3
f 5/5/5 2/2/2 4/4/4
f 6/6/6 2/2/2 5/5/5
f 7/7/7 2/2/2 6/6/6
f 1/1/1 2/2/2 7/7/7
f 10/10/10 9/9/9 8/8/8
f 11/11/11 10/10/10 8/8/8
f 14/14/14 13/13/13 12/12/12
f 15/15/15 14/14/14 12/12/12
f 18/18/18 17/17/17 16/16/16
f 19/19/19 18/18/18 16/16/16
f 22/22/22 21/21/21 20/20/20
f 23/23/23 22/22/22 20/20/20
f 26/26/26 25/25/25 24/24/24
f 27/27/27 26/26/26 24/24/24
f 30/30/30 29/29/29 28/28/28
f 31/31/31 30/30/30 28/28/28
