g shield_level1_11
v 0.29476026 0.4257833 -0.24482307
v 0.15054283 0.22615334 -0.12166287
v 0.023721065 0.445815 -0.20059943
v -0.12616463 0.23626684 -0.09593269
v 0.007701845 0.0044032666 -0.03360221
v 0.28175622 -0.0011149215 -0.080453984
v 0.41755354 0.21309914 -0.1876485
v 0.29301703 0.4197763 -0.2737226
v 0.29476026 0.4257833 -0.24482307
v 0.023721065 0.445815 -0.20059943
v 0.016415816 0.44052103 -0.22866046
v 0.016415816 0.44052103 -0.22866046
v 0.023721065 0.445815 -0.20059943
v -0.12616463 0.23626684 -0.09593269
v -0.13680124 0.22668968 -0.12188112
v -0.13680124 0.22668968 -0.12188112
v -0.12616463 0.23626684 -0.09593269
v 0.007701845 0.0044032666 -0.03360221
v -2.7093887E-05 -0.010210114 -0.058196783
v -2.7093887E-05 -0.010210114 -0.058196783
v 0.007701845 0.0044032666 -0.03360221
v 0.28175622 -0.0011149215 -0.080453984
v 0.27976376 -0.015610943 -0.106041275
v 0.27976376 -0.015610943 -0.106041275
v 0.28175622 -0.0011149215 -0.080453984
v 0.41755354 0.21309914 -0.1876485
v 0.41808447 0.20315315 -0.21548912
v 0.41808447 0.20315315 -0.21548912
v 0.41755354 0.21309914 -0.1876485
v 0.29476026 0.4257833 -0.24482307
v 0.29301703 0.4197763 -0.2737226
vt 0.73054934 0.95190513
vt 0.4999999 0.5
vt 0.26945072 0.95190537
vt 0.038901478 0.5
vt 0.26945078 0.04809472
vt 0.7305496 0.04809493
vt 0.96109855 0.50000024
vt 0.078590095 0.16888879
vt 0.05553712 0.16675788
vt 0.055537164 0.16675788
vt 0.078590095 0.16888879
vt 0.078590095 0.16888879
vt 0.055537164 0.16675788
vt 0.05553715 0.107374415
vt 0.078590035 0.10737443
vt 0.078590035 0.10737443
vt 0.05553715 0.107374415
vt 0.05553714 0.047990933
vt 0.07859005 0.045860007
vt 0.07859005 0.045860007
vt 0.05553714 0.047990933
vt 0.055537097 0.04799092
vt 0.078590065 0.045860007
vt 0.078590065 0.045860007
vt 0.055537097 0.04799092
vt 0.055537105 0.107374415
vt 0.078590035 0.10737443
vt 0.078590035 0.10737443
vt 0.055537105 0.107374415
vt 0.05553712 0.16675788
vt 0.078590095 0.16888879
vn 0.20876545 0.3998088 0.8925077
vn 0.16937186 0.34587556 0.9228669
vn 0.13763008 0.40438116 0.9041758
vn 0.099402346 0.3478716 0.9322578
vn 0.13215427 0.2911436 0.94750756
vn 0.20487504 0.28790948 0.93548614
vn 0.24109201 0.34381762 0.90755945
vn 0.040180545 0.9788516 -0.20058697
vn 0.04018054 0.9788516 -0.20058697
vn 0.040180545 0.9788516 -0.20058694
vn 0.040180545 0.9788516 -0.20058697
vn -0.7868742 0.60999846 0.09343942
vn -0.7868742 0.60999846 0.09343942
vn -0.7868741 0.60999846 0.093439415
vn -0.7868741 0.6099985 0.09343943
vn -0.81599534 -0.34678876 0.4624816
vn -0.8159953 -0.34678876 0.46248162
vn -0.8159953 -0.34678876 0.46248162
vn -0.81599534 -0.34678876 0.4624816
vn 0.066814214 -0.86863226 0.49093166
vn 0.06681421 -0.86863226 0.4909316
vn 0.066814214 -0.8686322 0.4909317
vn 0.06681421 -0.86863226 0.49093166
vn 0.8695475 -0.45765436 0.18557921
vn 0.8695475 -0.45765442 0.18557921
vn 0.8695475 -0.45765436 0.18557921
vn 0.8695475 -0.45765436 0.18557921
vn 0.8731729 0.4640378 -0.1491242
vn 0.8731729 0.4640378 -0.14912422
vn 0.8731729 0.46403787 -0.14912422
vn 0.8731729 0.4640378 -0.1491242
g shield_level1_11_0
f 3/3/3 2/2/2 1/1/1
f 4/4/4 2/2/2 3/3/3
f 5/5/5 2/2/2 4/4/4
f 6/6/6 2/2/2 5/5/5
f 7/7/7 2/2/2 6/6/6
f 1/1/1 2/2/2 7/7/7
f 10/10/10 9/9/9 8/8/8
f 11/11/11 10/10/10 8/8/8
f 14/14/14 13/13/13 12/12/12
f 15/15/15 14/14/14 12/12/12
f 18/18/18 17/17/17 16/16/16
f 19/19/19 18/18/18 16/16/16
f 22/22/22 21/21/21 20/20/20
f 23/23/23 22/22/22 20/20/20
f 26/26/26 25/25/25 24/24/24
f 27/27/27 26/26/26 24/24/24
f 30/30/30 29/29/29 28/28/28
f 31/31/31 30/30/30 28/28/28
