g shield_level1_line
v -0.144375 -0.75012946 0.00054375
v -0.144375 -0.75012946 0.00054375
v -0.17324251 -0.8001295 0.00054375
v -0.17324251 -0.8001295 0.00054375
v 0.144375 0.75012946 0.00054375
v 0.17323877 0.8001295 0.00054375
v -0.62605983 0.083508216 0.00054375
v -0.683847 0.08341773 0.00054375
v -0.5778923 -0.49944958 0.00054375
v -0.6067953 -0.5493882 0.00054375
v -0.28875 -0.5000648 0.00054375
v -0.31765294 -0.5500034 0.00054375
v -0.1925 -0.6667746 0.00054375
v -0.240625 -0.5834197 0.00054375
v -0.22137931 -0.7167541 0.00054375
v -0.2695161 -0.63337874 0.00054375
v -0.38513076 -0.4998597 0.00054375
v -0.48151156 -0.49965465 0.00054375
v -0.41403374 -0.5497983 0.00054375
v -0.5104145 -0.54959327 0.00054375
v -0.72226727 -0.24938476 0.00054375
v -0.7800023 -0.24938478 0.00054375
v -0.62601733 -0.41609463 0.00054375
v -0.6741423 -0.3327397 0.00054375
v -0.66453093 -0.44938704 0.00054375
v -0.7222666 -0.3493859 0.00054375
v -0.6260174 -0.08267493 0.00054375
v -0.6837873 -0.08273525 0.00054375
v -0.67414236 -0.16602986 0.00054375
v -0.73189473 -0.16606 0.00054375
v -0.5778925 0.0006799888 0.00054375
v -0.6356797 0.00058950356 0.00054375
v -0.3855196 0.49922952 0.00054375
v -0.4143846 0.54922956 0.00054375
v -0.6742695 0.3325196 0.00054375
v -0.7224168 0.34912592 0.00054375
v -0.6742271 0.16633643 0.00054375
v -0.72239447 0.24916466 0.00054375
v -0.73201436 0.16624595 0.00054375
v -0.7801817 0.24907416 0.00054375
v -0.5780195 0.4992295 0.00054375
v -0.60688704 0.5492295 0.00054375
v -0.6261445 0.41587454 0.00054375
v -0.66465193 0.44917774 0.00054375
v -0.48176956 0.49922952 0.00054375
v -0.5106358 0.5492295 0.00054375
v -0.1926732 0.66649616 0.00054375
v -0.22153698 0.71649617 0.00054375
v -0.28926963 0.49922958 0.00054375
v -0.2409714 0.58286285 0.00054375
v -0.31813338 0.54922956 0.00054375
v -0.26983517 0.63286287 0.00054375
v -0.048125 0.75012946 0.00054375
v -0.05774626 0.8001295 0.00054375
v -0.144375 0.75012946 0.00054375
v -0.17323877 0.8001295 0.00054375
v 0.048125 0.75012946 0.00054375
v 0.05774625 0.8001295 0.00054375
v 0.6259487 -0.082794026 0.00054375
v 0.6836744 -0.082777746 0.00054375
v 0.5773589 0.5003734 0.00054375
v 0.60622644 0.55037344 0.00054375
v 0.2886091 0.50037354 0.00054375
v 0.31747285 0.5503735 0.00054375
v 0.19245301 0.6668775 0.00054375
v 0.24053106 0.5836255 0.00054375
v 0.22131678 0.7168775 0.00054375
v 0.26939484 0.6336255 0.00054375
v 0.38485903 0.5003735 0.00054375
v 0.48110896 0.5003735 0.00054375
v 0.41372406 0.5503735 0.00054375
v 0.50997525 0.55037344 0.00054375
v 0.7217339 0.25030863 0.00054375
v 0.7794549 0.25033307 0.00054375
v 0.62548393 0.4170185 0.00054375
v 0.6736089 0.33366358 0.00054375
v 0.6639693 0.45035997 0.00054375
v 0.721712 0.3503465 0.00054375
v 0.6257938 0.08381014 0.00054375
v 0.6835148 0.08383457 0.00054375
v 0.6737639 0.16705939 0.00054375
v 0.73148483 0.16708383 0.00054375
v 0.57782376 0.000560894 0.00054375
v 0.63554466 0.00058531837 0.00054375
v 0.38510787 -0.4998994 0.00054375
v 0.41400397 -0.54984987 0.00054375
v 0.67407364 -0.3328588 0.00054375
v 0.7221956 -0.34950897 0.00054375
v 0.6740737 -0.16614895 0.00054375
v 0.7221986 -0.24950388 0.00054375
v 0.73180395 -0.16614082 0.00054375
v 0.77993363 -0.24950388 0.00054375
v 0.57782364 -0.4995687 0.00054375
v 0.6067198 -0.5495192 0.00054375
v 0.62594867 -0.41621375 0.00054375
v 0.6644577 -0.44951406 0.00054375
v 0.4814658 -0.49973407 0.00054375
v 0.5103619 -0.5496845 0.00054375
v 0.1925 -0.6667746 0.00054375
v 0.22137703 -0.716758 0.00054375
v 0.28875 -0.5000648 0.00054375
v 0.240625 -0.5834197 0.00054375
v 0.3176461 -0.5500153 0.00054375
v 0.26951155 -0.6333866 0.00054375
v 0.048125 -0.75012946 0.00054375
v 0.057747502 -0.8001295 0.00054375
v 0.144375 -0.75012946 0.00054375
v 0.17324251 -0.8001295 0.00054375
v -0.048125 -0.75012946 0.00054375
v -0.057747502 -0.8001295 0.00054375
vt 0 0
vt 1 0
vt 1 1
vt 0 1
vt 0.5 0
vt 0.5 1
vt 0.24074075 0
vt 0.24074075 1
vt 0.11111111 0
vt 0.11111111 1
vt 0.055555556 0
vt 0.055555556 1
vt 0.018518519 0
vt 0.037037037 0
vt 0.018518519 1
vt 0.037037037 1
vt 0.074074075 0
vt 0.09259259 0
vt 0.074074075 1
vt 0.09259259 1
vt 0.16666667 0
vt 0.16666667 1
vt 0.12962963 0
vt 0.14814815 0
vt 0.12962963 1
vt 0.14814815 1
vt 0.2037037 0
vt 0.2037037 1
vt 0.18518518 0
vt 0.18518518 1
vt 0.22222222 0
vt 0.22222222 1
vt 0.37037036 0
vt 0.37037036 1
vt 0.2962963 0
vt 0.2962963 1
vt 0.25925925 0
vt 0.2777778 0
vt 0.25925925 1
vt 0.2777778 1
vt 0.33333334 0
vt 0.33333334 1
vt 0.3148148 0
vt 0.3148148 1
vt 0.35185185 0
vt 0.35185185 1
vt 0.42592594 0
vt 0.42592594 1
vt 0.3888889 0
vt 0.4074074 0
vt 0.3888889 1
vt 0.4074074 1
vt 0.46296296 0
vt 0.46296296 1
vt 0.44444445 0
vt 0.44444445 1
vt 0.4814815 0
vt 0.4814815 1
vt 0.7407407 0
vt 0.7407407 1
vt 0.6111111 0
vt 0.6111111 1
vt 0.5555556 0
vt 0.5555556 1
vt 0.5185185 0
vt 0.537037 0
vt 0.5185185 1
vt 0.537037 1
vt 0.5740741 0
vt 0.5925926 0
vt 0.5740741 1
vt 0.5925926 1
vt 0.6666667 0
vt 0.6666667 1
vt 0.6296296 0
vt 0.6481481 0
vt 0.6296296 1
vt 0.6481481 1
vt 0.7037037 0
vt 0.7037037 1
vt 0.6851852 0
vt 0.6851852 1
vt 0.7222222 0
vt 0.7222222 1
vt 0.8703704 0
vt 0.8703704 1
vt 0.7962963 0
vt 0.7962963 1
vt 0.7592593 0
vt 0.7777778 0
vt 0.7592593 1
vt 0.7777778 1
vt 0.8333333 0
vt 0.8333333 1
vt 0.8148148 0
vt 0.8148148 1
vt 0.8518519 0
vt 0.8518519 1
vt 0.9259259 0
vt 0.9259259 1
vt 0.8888889 0
vt 0.9074074 0
vt 0.8888889 1
vt 0.9074074 1
vt 0.962963 0
vt 0.962963 1
vt 0.9444444 0
vt 0.9444444 1
vt 0.9814815 0
vt 0.9814815 1
vn -0 0 1
vn -0 0 1
vn -0 0 1
vn -0 0 1
vn -0 0 1
vn -0 0 1
vn -0 0 1
vn -0 0 1
vn -0 0 1
vn -0 0 1
vn -0 0 1
vn -0 0 1
vn -0 0 1
vn -0 0 1
vn -0 0 1
vn -0 0 1
vn -0 0 1
vn -0 0 1
vn -0 0 1
vn -0 0 1
vn -0 0 1
vn -0 0 1
vn -0 0 1
vn -0 0 1
vn -0 0 1
vn -0 0 1
vn -0 0 1
vn -0 0 1
vn -0 0 1
vn -0 0 1
vn -0 0 1
vn -0 0 1
vn -0 0 1
vn -0 0 1
vn -0 0 1
vn -0 0 1
vn -0 0 1
vn -0 0 1
vn -0 0 1
vn -0 0 1
vn -0 0 1
vn -0 0 1
vn -0 0 1
vn -0 0 1
vn -0 0 1
vn -0 0 1
vn -0 0 1
vn -0 0 1
vn -0 0 1
vn -0 0 1
vn -0 0 1
vn -0 0 1
vn -0 0 1
vn -0 0 1
vn -0 0 1
vn -0 0 1
vn -0 0 1
vn -0 0 1
vn -0 0 1
vn -0 0 1
vn -0 0 1
vn -0 0 1
vn -0 0 1
vn -0 0 1
vn -0 0 1
vn -0 0 1
vn -0 0 1
vn -0 0 1
vn -0 0 1
vn -0 0 1
vn -0 0 1
vn -0 0 1
vn -0 0 1
vn -0 0 1
vn -0 0 1
vn -0 0 1
vn -0 0 1
vn -0 0 1
vn -0 0 1
vn -0 0 1
vn -0 0 1
vn -0 0 1
vn -0 0 1
vn -0 0 1
vn -0 0 1
vn -0 0 1
vn -0 0 1
vn -0 0 1
vn -0 0 1
vn -0 0 1
vn -0 0 1
vn -0 0 1
vn -0 0 1
vn -0 0 1
vn -0 0 1
vn -0 0 1
vn -0 0 1
vn -0 0 1
vn -0 0 1
vn -0 0 1
vn -0 0 1
vn -0 0 1
vn -0 0 1
vn -0 0 1
vn -0 0 1
vn -0 0 1
vn -0 0 1
vn -0 0 1
vn -0 0 1
vn -0 0 1
g shield_level1_line_0
f 4/4/4 1/1/1 15/15/15
f 1/1/1 13/13/13 15/15/15
f 13/13/13 14/14/14 15/15/15
f 14/14/14 16/16/16 15/15/15
f 12/12/12 16/16/16 14/14/14
f 11/11/11 12/12/12 14/14/14
f 12/12/12 11/11/11 19/19/19
f 11/11/11 17/17/17 19/19/19
f 17/17/17 18/18/18 19/19/19
f 18/18/18 20/20/20 19/19/19
f 10/10/10 20/20/20 18/18/18
f 9/9/9 10/10/10 18/18/18
f 10/10/10 9/9/9 25/25/25
f 9/9/9 23/23/23 25/25/25
f 23/23/23 24/24/24 25/25/25
f 24/24/24 26/26/26 25/25/25
f 22/22/22 26/26/26 24/24/24
f 21/21/21 22/22/22 24/24/24
f 21/21/21 29/29/29 22/22/22
f 29/29/29 30/30/30 22/22/22
f 28/28/28 30/30/30 29/29/29
f 27/27/27 28/28/28 29/29/29
f 27/27/27 31/31/31 28/28/28
f 31/31/31 32/32/32 28/28/28
f 8/8/8 32/32/32 31/31/31
f 7/7/7 8/8/8 31/31/31
f 8/8/8 7/7/7 39/39/39
f 7/7/7 37/37/37 39/39/39
f 37/37/37 38/38/38 39/39/39
f 38/38/38 40/40/40 39/39/39
f 36/36/36 40/40/40 38/38/38
f 35/35/35 36/36/36 38/38/38
f 35/35/35 43/43/43 36/36/36
f 43/43/43 44/44/44 36/36/36
f 42/42/42 44/44/44 43/43/43
f 41/41/41 42/42/42 43/43/43
f 41/41/41 45/45/45 42/42/42
f 45/45/45 46/46/46 42/42/42
f 34/34/34 46/46/46 45/45/45
f 33/33/33 34/34/34 45/45/45
f 34/34/34 33/33/33 51/51/51
f 33/33/33 49/49/49 51/51/51
f 49/49/49 50/50/50 51/51/51
f 50/50/50 52/52/52 51/51/51
f 48/48/48 52/52/52 50/50/50
f 47/47/47 48/48/48 50/50/50
f 47/47/47 55/55/55 48/48/48
f 55/55/55 56/56/56 48/48/48
f 54/54/54 56/56/56 55/55/55
f 53/53/53 54/54/54 55/55/55
f 53/53/53 57/57/57 54/54/54
f 57/57/57 58/58/58 54/54/54
f 6/6/6 58/58/58 57/57/57
f 5/5/5 6/6/6 57/57/57
f 6/6/6 5/5/5 67/67/67
f 5/5/5 65/65/65 67/67/67
f 65/65/65 66/66/66 67/67/67
f 66/66/66 68/68/68 67/67/67
f 64/64/64 68/68/68 66/66/66
f 63/63/63 64/64/64 66/66/66
f 64/64/64 63/63/63 71/71/71
f 63/63/63 69/69/69 71/71/71
f 69/69/69 70/70/70 71/71/71
f 70/70/70 72/72/72 71/71/71
f 62/62/62 72/72/72 70/70/70
f 61/61/61 62/62/62 70/70/70
f 62/62/62 61/61/61 77/77/77
f 61/61/61 75/75/75 77/77/77
f 75/75/75 76/76/76 77/77/77
f 76/76/76 78/78/78 77/77/77
f 74/74/74 78/78/78 76/76/76
f 73/73/73 74/74/74 76/76/76
f 73/73/73 81/81/81 74/74/74
f 81/81/81 82/82/82 74/74/74
f 80/80/80 82/82/82 81/81/81
f 79/79/79 80/80/80 81/81/81
f 79/79/79 83/83/83 80/80/80
f 83/83/83 84/84/84 80/80/80
f 60/60/60 84/84/84 83/83/83
f 59/59/59 60/60/60 83/83/83
f 60/60/60 59/59/59 91/91/91
f 59/59/59 89/89/89 91/91/91
f 89/89/89 90/90/90 91/91/91
f 90/90/90 92/92/92 91/91/91
f 88/88/88 92/92/92 90/90/90
f 87/87/87 88/88/88 90/90/90
f 87/87/87 95/95/95 88/88/88
f 95/95/95 96/96/96 88/88/88
f 94/94/94 96/96/96 95/95/95
f 93/93/93 94/94/94 95/95/95
f 93/93/93 97/97/97 94/94/94
f 97/97/97 98/98/98 94/94/94
f 86/86/86 98/98/98 97/97/97
f 85/85/85 86/86/86 97/97/97
f 86/86/86 85/85/85 103/103/103
f 85/85/85 101/101/101 103/103/103
f 101/101/101 102/102/102 103/103/103
f 102/102/102 104/104/104 103/103/103
f 100/100/100 104/104/104 102/102/102
f 99/99/99 100/100/100 102/102/102
f 99/99/99 107/107/107 100/100/100
f 107/107/107 108/108/108 100/100/100
f 106/106/106 108/108/108 107/107/107
f 105/105/105 106/106/106 107/107/107
f 105/105/105 109/109/109 106/106/106
f 109/109/109 110/110/110 106/106/106
f 3/3/3 110/110/110 109/109/109
f 2/2/2 3/3/3 109/109/109
