g shield_level1_9
v 0.2531988 0.4369117 -0.31336936
v 0.13234451 0.22758596 -0.1721487
v -0.016267031 0.45619127 -0.23793581
v -0.14197914 0.23845163 -0.11468367
v 0.0025059986 0.0026991272 -0.067582175
v 0.27128673 -0.013769836 -0.14398053
v 0.39493117 0.2003886 -0.2652055
v 0.24781786 0.43122664 -0.34196055
v 0.2531988 0.4369117 -0.31336936
v -0.016267031 0.45619127 -0.23793581
v -0.027247619 0.45091963 -0.26496708
v -0.027247619 0.45091963 -0.26496708
v -0.016267031 0.45619127 -0.23793581
v -0.14197914 0.23845163 -0.11468367
v -0.15553606 0.22871761 -0.13918902
v -0.15553606 0.22871761 -0.13918902
v -0.14197914 0.23845163 -0.11468367
v 0.0025059986 0.0026991272 -0.067582175
v -0.008036537 -0.011926098 -0.09111273
v -0.008036537 -0.011926098 -0.09111273
v 0.0025059986 0.0026991272 -0.067582175
v 0.27128673 -0.013769836 -0.14398053
v 0.26630527 -0.02864584 -0.16912244
v 0.26630527 -0.02864584 -0.16912244
v 0.27128673 -0.013769836 -0.14398053
v 0.39493117 0.2003886 -0.2652055
v 0.39240775 0.18977006 -0.29275736
v 0.39240775 0.18977006 -0.29275736
v 0.39493117 0.2003886 -0.2652055
v 0.2531988 0.4369117 -0.31336936
v 0.24781786 0.43122664 -0.34196055
vt 0.73054934 0.95190513
vt 0.4999999 0.5
vt 0.26945072 0.95190537
vt 0.038901478 0.5
vt 0.26945078 0.04809472
vt 0.7305496 0.04809493
vt 0.96109855 0.50000024
vt 0.078590095 0.16888879
vt 0.05553712 0.16675788
vt 0.055537164 0.16675788
vt 0.078590095 0.16888879
vt 0.078590095 0.16888879
vt 0.055537164 0.16675788
vt 0.05553715 0.107374415
vt 0.078590035 0.10737443
vt 0.078590035 0.10737443
vt 0.05553715 0.107374415
vt 0.05553714 0.047990933
vt 0.07859005 0.045860007
vt 0.07859005 0.045860007
vt 0.05553714 0.047990933
vt 0.055537097 0.04799092
vt 0.078590065 0.045860007
vt 0.078590065 0.045860007
vt 0.055537097 0.04799092
vt 0.055537105 0.107374415
vt 0.078590035 0.10737443
vt 0.078590035 0.10737443
vt 0.055537105 0.107374415
vt 0.05553712 0.16675788
vt 0.078590095 0.16888879
vn 0.30806893 0.4034104 0.8615994
vn 0.27566183 0.34804785 0.896032
vn 0.23795685 0.40830362 0.88128585
vn 0.205256 0.351664 0.91334677
vn 0.24273995 0.29025728 0.92565
vn 0.3125451 0.2856539 0.9059346
vn 0.3451558 0.3421375 0.8739619
vn 0.014880299 0.9801981 -0.19745968
vn 0.014880298 0.9801981 -0.19745967
vn 0.014880297 0.9801981 -0.19745968
vn 0.014880296 0.9801981 -0.19745968
vn -0.7909402 0.5750392 0.20914939
vn -0.79094017 0.5750392 0.2091494
vn -0.7909402 0.57503915 0.20914939
vn -0.79094017 0.5750392 0.2091494
vn -0.7535675 -0.35079193 0.55595064
vn -0.7535675 -0.35079193 0.55595064
vn -0.75356746 -0.35079193 0.55595064
vn -0.7535674 -0.3507919 0.5559507
vn 0.08810318 -0.86405885 0.49562085
vn 0.088103205 -0.86405885 0.49562085
vn 0.088103175 -0.86405885 0.49562085
vn 0.088103175 -0.86405885 0.49562085
vn 0.88445866 -0.4568332 0.0950592
vn 0.88445866 -0.4568332 0.09505921
vn 0.88445866 -0.4568332 0.0950592
vn 0.8844586 -0.45683324 0.0950592
vn 0.8517877 0.45868057 -0.2531203
vn 0.8517877 0.45868057 -0.2531203
vn 0.8517877 0.45868057 -0.2531203
vn 0.8517876 0.4586806 -0.2531203
g shield_level1_9_0
f 3/3/3 2/2/2 1/1/1
f 4/4/4 2/2/2 3/3/3
f 5/5/5 2/2/2 4/4/4
f 6/6/6 2/2/2 5/5/5
f 7/7/7 2/2/2 6/6/6
f 1/1/1 2/2/2 7/7/7
f 10/10/10 9/9/9 8/8/8
f 11/11/11 10/10/10 8/8/8
f 14/14/14 13/13/13 12/12/12
f 15/15/15 14/14/14 12/12/12
f 18/18/18 17/17/17 16/16/16
f 19/19/19 18/18/18 16/16/16
f 22/22/22 21/21/21 20/20/20
f 23/23/23 22/22/22 20/20/20
f 26/26/26 25/25/25 24/24/24
f 27/27/27 26/26/26 24/24/24
f 30/30/30 29/29/29 28/28/28
f 31/31/31 30/30/30 28/28/28
