g shield_level1_3
v 0.13238512 0.48101243 -0.12058499
v -0.001422779 0.24925038 -0.03846533
v -0.14705244 0.47899607 -0.10447836
v -0.28127953 0.246508 -0.043103736
v -0.13977952 0.009609529 0.0038608168
v 0.14027663 0.008673325 -0.011676216
v 0.2767635 0.24507546 -0.07408407
v 0.13353725 0.47934863 -0.15015905
v 0.13238512 0.48101243 -0.12058499
v -0.14705244 0.47899607 -0.10447836
v -0.15168278 0.4771986 -0.13369389
v -0.15168278 0.4771986 -0.13369389
v -0.14705244 0.47899607 -0.10447836
v -0.28127953 0.246508 -0.043103736
v -0.28857803 0.24008931 -0.07109931
v -0.28857803 0.24008931 -0.07109931
v -0.28127953 0.246508 -0.043103736
v -0.13977952 0.009609529 0.0038608168
v -0.1442311 -0.0017600046 -0.02315105
v -0.1442311 -0.0017600046 -0.02315105
v -0.13977952 0.009609529 0.0038608168
v 0.14027663 0.008673325 -0.011676216
v 0.14164366 -0.0027307877 -0.039009925
v 0.14164366 -0.0027307877 -0.039009925
v 0.14027663 0.008673325 -0.011676216
v 0.2767635 0.24507546 -0.07408407
v 0.28092796 0.2385166 -0.102696866
v 0.28092796 0.2385166 -0.102696866
v 0.2767635 0.24507546 -0.07408407
v 0.13238512 0.48101243 -0.12058499
v 0.13353725 0.47934863 -0.15015905
vt 0.73054934 0.95190513
vt 0.4999999 0.5
vt 0.26945072 0.95190537
vt 0.038901478 0.5
vt 0.26945078 0.04809472
vt 0.7305496 0.04809493
vt 0.96109855 0.50000024
vt 0.078590065 0.31095022
vt 0.055537045 0.3088193
vt 0.055537105 0.3088193
vt 0.078590065 0.31095022
vt 0.078590065 0.31095022
vt 0.055537105 0.3088193
vt 0.055537134 0.24943586
vt 0.078590035 0.24943586
vt 0.078590035 0.24943586
vt 0.055537134 0.24943586
vt 0.055537134 0.19005238
vt 0.078590065 0.18792143
vt 0.078590065 0.18792143
vt 0.055537134 0.19005238
vt 0.055537105 0.19005238
vt 0.078590065 0.18792143
vt 0.078590065 0.18792143
vt 0.055537105 0.19005238
vt 0.055537075 0.24943586
vt 0.078590035 0.24943586
vt 0.078590035 0.24943586
vt 0.055537075 0.24943586
vt 0.055537045 0.3088193
vt 0.078590065 0.31095022
vn 0.08961771 0.2862695 0.95394886
vn 0.054789227 0.22517128 0.9727775
vn 0.0170531 0.2860873 0.9580518
vn -0.018349808 0.2247676 0.97423965
vn 0.01869337 0.1634248 0.9863787
vn 0.09156889 0.16331811 0.98231477
vn 0.12707023 0.2248083 0.966082
vn -0.010719445 0.9982509 -0.058139924
vn -0.010719444 0.9982509 -0.05813993
vn -0.010719445 0.9982509 -0.058139924
vn -0.010719445 0.9982509 -0.058139935
vn -0.8494482 0.5175641 0.10278752
vn -0.8494482 0.5175641 0.10278751
vn -0.8494482 0.5175641 0.10278751
vn -0.8494482 0.5175641 0.10278751
vn -0.8398256 -0.4378034 0.3209692
vn -0.83982563 -0.43780333 0.32096916
vn -0.8398256 -0.4378033 0.3209692
vn -0.8398256 -0.4378033 0.3209692
vn 0.018280031 -0.92250913 0.38554218
vn 0.018280031 -0.92250913 0.38554212
vn 0.018280031 -0.92250913 0.38554212
vn 0.018280031 -0.92250913 0.38554212
vn 0.86812073 -0.44115794 0.22747764
vn 0.86812073 -0.44115788 0.22747764
vn 0.86812073 -0.44115794 0.22747764
vn 0.86812073 -0.44115788 0.22747764
vn 0.85259193 0.5225615 0.004055291
vn 0.85259193 0.5225615 0.004055291
vn 0.8525919 0.52256155 0.004055291
vn 0.85259193 0.52256155 0.0040552914
g shield_level1_3_0
f 3/3/3 2/2/2 1/1/1
f 4/4/4 2/2/2 3/3/3
f 5/5/5 2/2/2 4/4/4
f 6/6/6 2/2/2 5/5/5
f 7/7/7 2/2/2 6/6/6
f 1/1/1 2/2/2 7/7/7
f 10/10/10 9/9/9 8/8/8
f 11/11/11 10/10/10 8/8/8
f 14/14/14 13/13/13 12/12/12
f 15/15/15 14/14/14 12/12/12
f 18/18/18 17/17/17 16/16/16
f 19/19/19 18/18/18 16/16/16
f 22/22/22 21/21/21 20/20/20
f 23/23/23 22/22/22 20/20/20
f 26/26/26 25/25/25 24/24/24
f 27/27/27 26/26/26 24/24/24
f 30/30/30 29/29/29 28/28/28
f 31/31/31 30/30/30 28/28/28
