g SlashMesh
v -8.742278E-08 1 -4.3711402E-08
v -0.091368414 0.6940115 -4.6311566E-08
v -7.5511146E-08 0.70000005 -3.0597988E-08
v -0.13052629 0.9914448 -6.615937E-08
v -0.18117341 0.6761481 -6.123275E-08
v -0.25881916 0.9659258 -8.747534E-08
v -0.2678784 0.6467157 -7.510619E-08
v -0.38268355 0.92387944 -1.0729458E-07
v -0.35 0.6062178 -8.7694566E-08
v -0.5 0.8660252 -1.2527792E-07
v -0.42613322 0.5553472 -9.878251E-08
v -0.6087614 0.7933533 -1.411178E-07
v -0.49497485 0.49497497 -1.081802E-07
v -0.7071068 0.70710653 -1.545431E-07
v -0.5553471 0.4261328 -1.15726834E-07
v -0.7933533 0.6087614 -1.6532411E-07
v -0.60621774 0.34999987 -1.2129345E-07
v -0.86602545 0.4999999 -1.7327638E-07
v -0.6467155 0.26787838 -1.2478469E-07
v -0.92387944 0.38268337 -1.7826383E-07
v -0.67614806 0.18117326 -1.261408E-07
v -0.9659258 0.258819 -1.8020117E-07
v -0.69401145 0.09136828 -1.2533864E-07
v -0.9914448 0.13052616 -1.790552E-07
v -0.6999999 -1.18926444E-07 -1.2239187E-07
v -1 -1.3113416E-07 -1.7484555E-07
v -0.69401145 -0.091368444 -1.1735097E-07
v -0.9914448 -0.1305263 -1.6764423E-07
v -0.67614806 -0.18117346 -1.1030213E-07
v -0.9659258 -0.25881916 -1.575745E-07
v -0.6467155 -0.26787844 -1.0136601E-07
v -0.92387944 -0.38268352 -1.4480858E-07
v -0.60621774 -0.35000017 -9.069547E-08
v -0.8660252 -0.5000002 -1.2956497E-07
v -0.5553471 -0.42613304 -7.84731E-08
v -0.7933533 -0.6087614 -1.1210449E-07
v -0.49497485 -0.49497467 -6.490812E-08
v -0.70710653 -0.7071068 -9.272583E-08
v -0.42613307 -0.55534744 -5.0232472E-08
v -0.6087614 -0.7933533 -7.176065E-08
v -0.35000002 -0.6062178 -3.4697333E-08
v -0.4999999 -0.8660255 -4.9567593E-08
v -0.2678783 -0.6467155 -1.8568496E-08
v -0.3826834 -0.92387944 -2.652644E-08
v -0.18117332 -0.6761478 -2.1219861E-09
v -0.25881907 -0.9659258 -3.0314098E-09
v -0.091368176 -0.6940113 1.4360874E-08
v -0.13052599 -0.9914448 2.0515548E-08
v 1.08076726E-07 -0.7000003 3.0598E-08
v 1.7484554E-07 -1 4.371141E-08
v 0.09136844 -0.6940113 4.6311573E-08
v 0.13052635 -0.9914448 6.615938E-08
v 0.1811734 -0.6761478 6.1232726E-08
v 0.25881913 -0.9659258 8.747534E-08
v 0.2678785 -0.6467155 7.51062E-08
v 0.3826835 -0.92387944 1.0729456E-07
v 0.35000002 -0.60621756 8.769456E-08
v 0.5 -0.8660252 1.2527792E-07
v 0.42613307 -0.55534744 9.878249E-08
v 0.6087615 -0.79335326 1.411178E-07
v 0.49497473 -0.49497467 1.08180174E-07
v 0.7071067 -0.7071068 1.5454306E-07
v 0.5553471 -0.42613292 1.1572681E-07
v 0.7933533 -0.60876137 1.6532411E-07
v 0.60621774 -0.34999987 1.2129345E-07
v 0.86602545 -0.49999985 1.7327638E-07
v 0.6467155 -0.2678785 1.2478469E-07
v 0.92387944 -0.3826834 1.7826385E-07
v 0.67614806 -0.18117322 1.261408E-07
v 0.9659259 -0.25881884 1.8020117E-07
v 0.69401145 -0.091368414 1.2533866E-07
v 0.9914448 -0.1305263 1.7905522E-07
v 0.6999999 4.2410825E-08 1.2239187E-07
v 1 9.934766E-08 1.7484555E-07
v 0.69401145 0.09136851 1.17350965E-07
v 0.9914448 0.1305265 1.6764423E-07
v 0.67614806 0.18117338 1.1030213E-07
v 0.9659258 0.25881907 1.575745E-07
v 0.6467155 0.2678785 1.0136599E-07
v 0.9238793 0.38268366 1.4480855E-07
v 0.60621774 0.35000002 9.069547E-08
v 0.86602545 0.4999999 1.29565E-07
v 0.5553471 0.42613333 7.847309E-08
v 0.7933531 0.60876155 1.1210446E-07
v 0.49497473 0.49497455 6.4908114E-08
v 0.70710677 0.7071067 9.2725855E-08
v 0.426133 0.5553472 5.0232465E-08
v 0.60876125 0.7933535 7.176061E-08
v 0.34999996 0.6062178 3.4697315E-08
v 0.50000006 0.8660252 4.9567614E-08
v 0.26787838 0.6467157 1.8568501E-08
v 0.38268337 0.9238797 2.6526424E-08
v 0.18117307 0.6761481 2.1219309E-09
v 0.25881878 0.9659259 3.0313543E-09
v 0.091368265 0.6940115 -1.4360874E-08
v 0.13052614 0.9914448 -2.0515522E-08
v -7.5511146E-08 0.70000005 -3.0597988E-08
v -8.742278E-08 1 -4.3711402E-08
vt 1.3113022E-06 1
vt 0.020834386 5.9604645E-08
vt 1.0728836E-06 1.1920929E-07
vt 0.020834625 1
vt 0.0416677 5.9604645E-08
vt 0.04166794 1
vt 0.06250101 5.9604645E-08
vt 0.06250125 1
vt 0.08333433 5.9604645E-08
vt 0.083334565 1
vt 0.10416764 5.9604645E-08
vt 0.10416788 1
vt 0.12500095 5.9604645E-08
vt 0.12500119 1
vt 0.14583427 5.9604645E-08
vt 0.1458345 1
vt 0.16666758 5.9604645E-08
vt 0.16666782 1
vt 0.1875009 5.9604645E-08
vt 0.18750113 1
vt 0.20833421 0
vt 0.20833445 1
vt 0.22916752 0
vt 0.22916776 1
vt 0.2500009 0
vt 0.250001 1
vt 0.2708342 0
vt 0.27083433 1
vt 0.29166752 0
vt 0.29166764 1
vt 0.31250083 0
vt 0.31250095 1
vt 0.33333415 0
vt 0.33333427 1
vt 0.35416746 0
vt 0.35416758 1
vt 0.37500077 0
vt 0.3750009 1
vt 0.3958341 0
vt 0.3958342 1
vt 0.4166674 0
vt 0.41666752 1
vt 0.43750072 0
vt 0.43750083 1
vt 0.45833403 0
vt 0.45833415 1
vt 0.4791673 0
vt 0.4791675 1
vt 0.50000066 0
vt 0.5000008 1
vt 0.52083397 0
vt 0.52083415 1
vt 0.54166734 0
vt 0.54166746 1
vt 0.56250066 0
vt 0.56250083 1
vt 0.583334 0
vt 0.58333415 1
vt 0.60416734 0
vt 0.6041675 1
vt 0.6250007 0
vt 0.62500083 1
vt 0.645834 0
vt 0.6458342 1
vt 0.6666674 0
vt 0.6666675 1
vt 0.6875007 0
vt 0.6875009 1
vt 0.7083341 0
vt 0.7083342 1
vt 0.7291674 0
vt 0.7291676 1
vt 0.7500007 0
vt 0.75000095 1
vt 0.7708341 0
vt 0.7708342 1
vt 0.79166746 0
vt 0.7916676 1
vt 0.8125007 0
vt 0.81250095 0.99999994
vt 0.8333341 0
vt 0.8333342 0.99999994
vt 0.85416734 0
vt 0.8541676 0.99999994
vt 0.8750007 0
vt 0.87500083 0.99999994
vt 0.8958341 0
vt 0.8958342 0.99999994
vt 0.91666734 0
vt 0.9166676 0.99999994
vt 0.9375007 0
vt 0.9375009 0.99999994
vt 0.9583341 0
vt 0.9583342 0.99999994
vt 0.9791674 0
vt 0.9791676 0.99999994
vt 1.0000007 0
vt 1.000001 0.9999999
vn -0 0 -1
vn -0 0 -1
vn -0 0 -1
vn -0 0 -1
vn -0 0 -1
vn -0 0 -1
vn -0 0 -1
vn -0 0 -1
vn -0 0 -1
vn -0 0 -1
vn -0 0 -1
vn -0 0 -1
vn -0 0 -1
vn -0 0 -1
vn -0 0 -1
vn -0 0 -1
vn -0 0 -1
vn -0 0 -1
vn -0 0 -1
vn -0 0 -1
vn -0 0 -1
vn -0 0 -1
vn -0 0 -1
vn -0 0 -1
vn -0 0 -1
vn -0 0 -1
vn -0 0 -1
vn -0 0 -1
vn -0 0 -1
vn -0 0 -1
vn -0 0 -1
vn -0 0 -1
vn -0 0 -1
vn -0 0 -1
vn -0 0 -1
vn -0 0 -1
vn -0 0 -1
vn -0 0 -1
vn -0 0 -1
vn -0 0 -1
vn -0 0 -1
vn -0 0 -1
vn -0 0 -1
vn -0 0 -1
vn -0 0 -1
vn -0 0 -1
vn -0 0 -1
vn -0 0 -1
vn -0 0 -1
vn -0 0 -1
vn -0 0 -1
vn -0 0 -1
vn -0 0 -1
vn -0 0 -1
vn -0 0 -1
vn -0 0 -1
vn -0 0 -1
vn -0 0 -1
vn -0 0 -1
vn -0 0 -1
vn -0 0 -1
vn -0 0 -1
vn -0 0 -1
vn -0 0 -1
vn -0 0 -1
vn -0 0 -1
vn -0 0 -1
vn -0 0 -1
vn -0 0 -1
vn -0 0 -1
vn -0 0 -1
vn -0 0 -1
vn -0 0 -1
vn -0 0 -1
vn -0 0 -1
vn -0 0 -1
vn -0 0 -1
vn -0 0 -1
vn -0 0 -1
vn -0 0 -1
vn -0 0 -1
vn -0 0 -1
vn -0 0 -1
vn -0 0 -1
vn -0 0 -1
vn -0 0 -1
vn -0 0 -1
vn -0 0 -1
vn -0 0 -1
vn -0 0 -1
vn -0 0 -1
vn -0 0 -1
vn -0 0 -1
vn -0 0 -1
vn -0 0 -1
vn -0 0 -1
vn -0 0 -1
vn -0 0 -1
g SlashMesh_0
f 3/3/3 2/2/2 1/1/1
f 2/2/2 4/4/4 1/1/1
f 2/2/2 5/5/5 4/4/4
f 5/5/5 6/6/6 4/4/4
f 5/5/5 7/7/7 6/6/6
f 7/7/7 8/8/8 6/6/6
f 7/7/7 9/9/9 8/8/8
f 9/9/9 10/10/10 8/8/8
f 9/9/9 11/11/11 10/10/10
f 11/11/11 12/12/12 10/10/10
f 11/11/11 13/13/13 12/12/12
f 13/13/13 14/14/14 12/12/12
f 13/13/13 15/15/15 14/14/14
f 15/15/15 16/16/16 14/14/14
f 15/15/15 17/17/17 16/16/16
f 17/17/17 18/18/18 16/16/16
f 17/17/17 19/19/19 18/18/18
f 19/19/19 20/20/20 18/18/18
f 19/19/19 21/21/21 20/20/20
f 21/21/21 22/22/22 20/20/20
f 21/21/21 23/23/23 22/22/22
f 23/23/23 24/24/24 22/22/22
f 23/23/23 25/25/25 24/24/24
f 25/25/25 26/26/26 24/24/24
f 25/25/25 27/27/27 26/26/26
f 27/27/27 28/28/28 26/26/26
f 27/27/27 29/29/29 28/28/28
f 29/29/29 30/30/30 28/28/28
f 29/29/29 31/31/31 30/30/30
f 31/31/31 32/32/32 30/30/30
f 31/31/31 33/33/33 32/32/32
f 33/33/33 34/34/34 32/32/32
f 33/33/33 35/35/35 34/34/34
f 35/35/35 36/36/36 34/34/34
f 35/35/35 37/37/37 36/36/36
f 37/37/37 38/38/38 36/36/36
f 37/37/37 39/39/39 38/38/38
f 39/39/39 40/40/40 38/38/38
f 39/39/39 41/41/41 40/40/40
f 41/41/41 42/42/42 40/40/40
f 41/41/41 43/43/43 42/42/42
f 43/43/43 44/44/44 42/42/42
f 43/43/43 45/45/45 44/44/44
f 45/45/45 46/46/46 44/44/44
f 45/45/45 47/47/47 46/46/46
f 47/47/47 48/48/48 46/46/46
f 47/47/47 49/49/49 48/48/48
f 49/49/49 50/50/50 48/48/48
f 49/49/49 51/51/51 50/50/50
f 51/51/51 52/52/52 50/50/50
f 51/51/51 53/53/53 52/52/52
f 53/53/53 54/54/54 52/52/52
f 53/53/53 55/55/55 54/54/54
f 55/55/55 56/56/56 54/54/54
f 55/55/55 57/57/57 56/56/56
f 57/57/57 58/58/58 56/56/56
f 57/57/57 59/59/59 58/58/58
f 59/59/59 60/60/60 58/58/58
f 59/59/59 61/61/61 60/60/60
f 61/61/61 62/62/62 60/60/60
f 61/61/61 63/63/63 62/62/62
f 63/63/63 64/64/64 62/62/62
f 63/63/63 65/65/65 64/64/64
f 65/65/65 66/66/66 64/64/64
f 65/65/65 67/67/67 66/66/66
f 67/67/67 68/68/68 66/66/66
f 67/67/67 69/69/69 68/68/68
f 69/69/69 70/70/70 68/68/68
f 69/69/69 71/71/71 70/70/70
f 71/71/71 72/72/72 70/70/70
f 71/71/71 73/73/73 72/72/72
f 73/73/73 74/74/74 72/72/72
f 73/73/73 75/75/75 74/74/74
f 75/75/75 76/76/76 74/74/74
f 75/75/75 77/77/77 76/76/76
f 77/77/77 78/78/78 76/76/76
f 77/77/77 79/79/79 78/78/78
f 79/79/79 80/80/80 78/78/78
f 79/79/79 81/81/81 80/80/80
f 81/81/81 82/82/82 80/80/80
f 81/81/81 83/83/83 82/82/82
f 83/83/83 84/84/84 82/82/82
f 83/83/83 85/85/85 84/84/84
f 85/85/85 86/86/86 84/84/84
f 85/85/85 87/87/87 86/86/86
f 87/87/87 88/88/88 86/86/86
f 87/87/87 89/89/89 88/88/88
f 89/89/89 90/90/90 88/88/88
f 89/89/89 91/91/91 90/90/90
f 91/91/91 92/92/92 90/90/90
f 91/91/91 93/93/93 92/92/92
f 93/93/93 94/94/94 92/92/92
f 93/93/93 95/95/95 94/94/94
f 95/95/95 96/96/96 94/94/94
f 95/95/95 97/97/97 96/96/96
f 97/97/97 98/98/98 96/96/96
