g sponsored_poi_decorator_outline
v -0.3914482 0.88970023 -0.074692555
v -0.3914482 0.60030067 -0.074692555
v -0.3914482 0.60030067 0.07272577
v -0.3914482 0.88970023 0.07272577
v -0.10205078 0.60030067 0.07272577
v -0.10205078 0.60030067 -0.07469254
v -0.3914482 1.0444373 0.072725244
v -0.3914482 1.0444373 -0.074692555
v -0.30171204 1.1041152 0.072725244
v -0.30171204 1.1041152 -0.074692555
v 0.300158 0.7070289 0.07272527
v 0.3898941 0.60030067 0.07272527
v 0.3898941 0.60030067 -0.07469253
v 0.30015796 0.7070289 -0.07469253
v 0.052685544 0.60030067 0.07272526
v 0.09536358 0.7070289 0.07272526
v 0.09508821 0.7070289 -0.07469254
v 0.052685544 0.60030067 -0.07469254
v -0.15017013 2.0329382 0.07272676
v -0.2602432 1.9228649 0.07272676
v -0.30116576 1.7724812 0.07272676
v -0.2602432 1.9228649 -0.07469254
v -0.15017013 2.0329382 -0.07469254
v -0.30116424 1.7724808 -0.074692555
v 0.00019375235 2.0746453 0.07272674
v 0.3012596 1.7724808 0.07272675
v 0.26063073 1.9228649 0.07272675
v 0.00019380629 2.0741696 -0.07469254
v 0.15055767 2.0329382 0.07272674
v 0.2606308 1.9228649 -0.07469253
v 0.30125967 1.7724808 -0.07469253
v 0.15055773 2.0329382 -0.07469253
v -0.39041138 1.7724813 0.07272673
v -0.39041138 1.7724813 -0.074692555
v -0.3381813 1.967863 0.07272673
v -0.3381813 1.967863 -0.074692555
v 0.39079738 1.7724813 0.07272675
v 0.3907974 1.7724813 -0.07469253
v -0.19516754 2.1108773 0.07272676
v -0.19516751 2.1108773 -0.07469254
v 0.00019378662 2.1632242 0.07272674
v 0.00019378662 2.1632242 -0.07469254
v 0.33856884 1.967863 0.07272675
v 0.1955551 2.1108773 0.07272675
v 0.33856887 1.967863 -0.07469253
v 0.1955551 2.1108773 -0.07469253
v -0.3914482 0.60030067 -0.074692555
v -0.3914482 0.60030067 0.07272577
v -0.3914482 0.88970023 0.07272577
v -0.3914482 0.88970023 -0.074692555
v -0.10205078 0.60030067 -0.07469254
v -0.10205078 0.60030067 0.07272577
v 0.052685544 0.60030067 -0.07469254
v 0.052685544 0.60030067 0.07272526
v 0.3898941 0.60030067 0.07272527
v 0.3898941 0.60030067 -0.07469253
v 0.052685544 0.60030067 0.07272526
v 0.052685544 0.60030067 -0.07469254
v 0.09536358 0.7070289 0.07272526
v 0.052685544 0.60030067 0.07272526
v -0.3914482 1.0444373 0.072725244
v -0.3914482 1.0444373 -0.074692555
v 0.052685544 0.60030067 -0.07469254
v 0.09508821 0.7070289 -0.07469254
v 0.3898941 0.60030067 0.07272527
v 0.3898941 0.60030067 -0.07469253
v 0.39079738 1.7724813 0.07272675
v 0.3898941 0.60030067 0.07272527
v 0.300158 0.7070289 0.07272527
v 0.3898941 0.60030067 -0.07469253
v 0.3907974 1.7724813 -0.07469253
v 0.30015796 0.7070289 -0.07469253
v -0.3914482 1.0444373 0.072725244
v -0.30171204 1.1041152 0.072725244
v -0.3914482 1.0444373 -0.074692555
v -0.30171204 1.1041152 -0.074692555
v -0.3914482 1.0444373 -0.074692555
v -0.39041138 1.7724813 -0.074692555
v -0.39041138 1.7724813 0.07272673
v -0.3914482 1.0444373 0.072725244
v -0.39041138 1.7724813 0.07272673
v -0.30116576 1.7724812 0.07272676
v -0.39041138 1.7724813 0.07272673
v -0.39041138 1.7724813 -0.074692555
v -0.3381813 1.967863 0.07272673
v -0.3381813 1.967863 -0.074692555
v -0.39041138 1.7724813 -0.074692555
v -0.30116424 1.7724808 -0.074692555
v -0.19516754 2.1108773 0.07272676
v -0.19516751 2.1108773 -0.07469254
v 0.00019378662 2.1632242 0.07272674
v 0.00019378662 2.1632242 -0.07469254
v 0.39079738 1.7724813 0.07272675
v 0.3012596 1.7724808 0.07272675
v 0.3907974 1.7724813 -0.07469253
v 0.30125967 1.7724808 -0.07469253
v 0.00019378662 2.1632242 -0.07469254
v 0.1955551 2.1108773 -0.07469253
v 0.1955551 2.1108773 0.07272675
v 0.00019378662 2.1632242 0.07272674
v 0.33856884 1.967863 0.07272675
v 0.33856887 1.967863 -0.07469253
v 0.3907974 1.7724813 -0.07469253
v 0.39079738 1.7724813 0.07272675
v 0.1955551 2.1108773 0.07272675
v 0.1955551 2.1108773 -0.07469253
v -0.3914482 0.88970023 -0.074692555
v -0.3914482 0.60030067 -0.074692555
v -0.10205078 0.60030067 -0.07469254
v -0.3914482 0.88970023 0.07272577
v -0.10205078 0.60030067 0.07272577
v -0.3914482 0.60030067 0.07272577
vt 0.065897614 0.0793744
vt 0.07462224 0.081555575
vt 0.07462224 0.081555575
vt 0.065897614 0.0793744
vt 0.02751112 0.056429923
vt 0.02751112 0.05371043
vt 0.037502795 0.038910657
vt 0.037502795 0.04033333
vt 0.07462224 0.081555575
vt 0.02751112 0.081555575
vt 0.02751112 0.081555575
vt 0.02751112 0.03444445
vt 0.02751112 0.03444445
vt 0.02751112 0.081555575
vt 0.04784307 0.03444445
vt 0.055235952 0.081555575
vt 0.055235952 0.081555575
vt 0.04784307 0.03444445
vt 0.05459997 0.04916665
vt 0.054011077 0.04916665
vt 0.07462224 0.081555575
vt 0.054011077 0.06687763
vt 0.05459997 0.06687763
vt 0.07462224 0.081555575
vt 0.056366652 0.04916665
vt 0.02751112 0.081555575
vt 0.04694444 0.04916665
vt 0.056366652 0.06687763
vt 0.046355546 0.04916665
vt 0.04694444 0.06687763
vt 0.02751112 0.081555575
vt 0.046355546 0.06687763
vt 0.07462224 0.03444445
vt 0.07462224 0.03444445
vt 0.054011077 0.04916665
vt 0.054011077 0.06687763
vt 0.07462224 0.081555575
vt 0.07462224 0.081555575
vt 0.05459997 0.04916665
vt 0.05459997 0.06687763
vt 0.056366652 0.04916665
vt 0.056366652 0.06687763
vt 0.04694444 0.04916665
vt 0.046355546 0.04916665
vt 0.04694444 0.06687763
vt 0.046355546 0.06687763
vt 0.02751112 0.044658452
vt 0.02751112 0.048277825
vt 0.0373697 0.03832093
vt 0.0373697 0.04033333
vt 0.042776257 0.04033333
vt 0.042776257 0.03832093
vt 0.02751112 0.05876431
vt 0.02751112 0.06265524
vt 0.02751112 0.06977776
vt 0.02751112 0.06977776
vt 0.042776108 0.038910657
vt 0.042776108 0.04033333
vt 0.07462224 0.081555575
vt 0.043338925 0.03444445
vt 0.07462224 0.081555575
vt 0.02751112 0.081555575
vt 0.043338925 0.03444445
vt 0.043541282 0.081555575
vt 0.07462224 0.03444445
vt 0.07462224 0.03444445
vt 0.02751112 0.03444445
vt 0.07462224 0.03444445
vt 0.07462224 0.081555575
vt 0.07462224 0.03444445
vt 0.02751112 0.03444445
vt 0.07462224 0.081555575
vt 0.040900618 0.03444445
vt 0.03615901 0.081555575
vt 0.040900618 0.03444445
vt 0.03615901 0.081555575
vt 0.061232716 0.07820818
vt 0.07462224 0.03444445
vt 0.07462224 0.03444445
vt 0.061232716 0.07820818
vt 0.053422242 0.04916665
vt 0.053422242 0.04916665
vt 0.053422242 0.04916665
vt 0.053422242 0.06687763
vt 0.054011077 0.04916665
vt 0.054011077 0.06687763
vt 0.053422242 0.06687763
vt 0.053422242 0.06687763
vt 0.05459997 0.04916665
vt 0.05459997 0.06687763
vt 0.056366652 0.04916665
vt 0.056366652 0.06687763
vt 0.047533333 0.04916665
vt 0.047533333 0.04916665
vt 0.047533333 0.06687763
vt 0.047533333 0.06687763
vt 0.056366652 0.06687763
vt 0.046355546 0.06687763
vt 0.046355546 0.04916665
vt 0.056366652 0.04916665
vt 0.04694444 0.04916665
vt 0.04694444 0.06687763
vt 0.047533333 0.06687763
vt 0.047533333 0.04916665
vt 0.046355546 0.04916665
vt 0.046355546 0.06687763
vt 0.02751112 0.03444445
vt 0.08252905 0.22026308
vt 0.07462224 0.03444445
vt 0.02751112 0.03444445
vt 0.07462224 0.03444445
vt 0.060155947 0.22029653
vn -1 0 0
vn -1 0 0
vn -1 0 0
vn -1 0 0
vn -0 -1 0
vn -0 -1 0
vn -0.70710903 -0.7071045 0
vn -0.70710903 -0.7071045 0
vn 3.1034313E-07 -1.1650042E-06 1
vn -0 0 -1
vn -6.6094685E-07 -1.043049E-06 1
vn -6.2022247E-07 -9.737263E-07 1
vn -0 0 -1
vn -0 0 -1
vn -0 0 1
vn -0 0 1
vn -0 0 -1
vn -0 0 -1
vn -0 0 1
vn -1.9653045E-07 0 1
vn 4.1011725E-07 -1.6378614E-06 1
vn -0 0 -1
vn -0 0 -1
vn -0 0 -1
vn -0 0 1
vn -7.129656E-07 -1.1185522E-06 1
vn -0 0 1
vn -0 0 -1
vn -0 0 1
vn -0 0 -1
vn -0 0 -1
vn -0 0 -1
vn 4.5215936E-07 -1.7572562E-06 1
vn -0 0 -1
vn -1.9653076E-07 0 1
vn -0.86616856 0.49975196 0
vn 0.99999976 -0.00077061506 1.2969437E-07
vn 0.99999976 -0.00077061506 1.2969439E-07
vn -0 0 1
vn -0.5000004 0.86602515 0
vn -0 0 1
vn -0 1 0
vn -0 0 1
vn -0 0 1
vn -0 0 -1
vn -0 0 -1
vn -0 -1 0
vn -0 -1 0
vn 0.70710933 0.70710415 0
vn 0.70710933 0.70710415 0
vn 0.70710933 0.70710415 0
vn 0.70710933 0.70710415 0
vn -0 -1 0
vn -0 -1 0
vn -0 -1 0
vn -0 -1 0
vn -0.70710903 -0.7071045 0
vn -0.70710903 -0.7071045 0
vn -0 0 1
vn -0 0 1
vn 2.2957482E-07 -8.80169E-07 1
vn -0 0 -1
vn -0 0 -1
vn -0 0 -1
vn 0.99999976 -0.0007706151 1.2969439E-07
vn 0.99999976 -0.00077061506 1.2969439E-07
vn -7.410159E-07 -1.169598E-06 1
vn -6.2022247E-07 -9.737263E-07 1
vn -6.6094685E-07 -1.043049E-06 1
vn -0 0 -1
vn -0 0 -1
vn -0 0 -1
vn 2.2957482E-07 -8.80169E-07 1
vn 3.1034313E-07 -1.1650042E-06 1
vn -0 0 -1
vn -0 0 -1
vn -0.99999905 0.0014242082 0
vn -0.99999905 0.0014242082 0
vn -0.99999905 0.001424208 0
vn -0.99999905 0.001424208 0
vn 4.5215936E-07 -1.7572562E-06 1
vn 4.1011725E-07 -1.6378614E-06 1
vn -0.9660768 0.25825486 0
vn -0.9660768 0.25825486 0
vn -0.86616856 0.49975187 0
vn -0 0 -1
vn -0 0 -1
vn -0 0 -1
vn -0.5000005 0.86602515 0
vn -0 0 -1
vn -0 1 0
vn -0 0 -1
vn -7.410159E-07 -1.169598E-06 1
vn -7.129656E-07 -1.1185522E-06 1
vn -0 0 -1
vn -0 0 -1
vn -0 1 0
vn 0.5000005 0.86602515 0
vn 0.5000005 0.86602515 0
vn -0 1 0
vn 0.8661703 0.4997491 1.3767689E-07
vn 0.86617017 0.49974906 1.3767689E-07
vn 0.9660787 0.2582479 2.6595723E-07
vn 0.9660787 0.25824788 2.659572E-07
vn 0.5000005 0.86602515 0
vn 0.5000005 0.86602515 0
vn 7.962869E-06 1.5536223E-05 -1
vn 6.978656E-06 1.4913893E-05 -1
vn 1.3122376E-05 5.3910944E-06 -1
vn -7.698541E-06 -1.1152961E-05 1
vn -9.343635E-06 -5.792459E-06 1
vn -9.946938E-06 -6.5693503E-06 1
g sponsored_poi_decorator_outline_0
f 109/109/109 108/108/108 107/107/107
f 112/112/112 111/111/111 110/110/110
f 3/3/3 4/4/4 1/1/1
f 2/2/2 3/3/3 1/1/1
f 47/47/47 6/6/6 5/5/5
f 48/48/48 47/47/47 5/5/5
f 51/51/51 50/50/50 49/49/49
f 52/52/52 51/51/51 49/49/49
f 11/11/11 16/16/16 15/15/15
f 12/12/12 11/11/11 15/15/15
f 13/13/13 18/18/18 17/17/17
f 14/14/14 13/13/13 17/17/17
f 55/55/55 54/54/54 53/53/53
f 56/56/56 55/55/55 53/53/53
f 8/8/8 58/58/58 57/57/57
f 7/7/7 8/8/8 57/57/57
f 61/61/61 60/60/60 59/59/59
f 9/9/9 61/61/61 59/59/59
f 64/64/64 63/63/63 62/62/62
f 10/10/10 64/64/64 62/62/62
f 38/38/38 37/37/37 65/65/65
f 66/66/66 38/38/38 65/65/65
f 68/68/68 67/67/67 26/26/26
f 69/69/69 68/68/68 26/26/26
f 31/31/31 71/71/71 70/70/70
f 72/72/72 31/31/31 70/70/70
f 21/21/21 33/33/33 73/73/73
f 74/74/74 21/21/21 73/73/73
f 75/75/75 34/34/34 24/24/24
f 76/76/76 75/75/75 24/24/24
f 79/79/79 78/78/78 77/77/77
f 80/80/80 79/79/79 77/77/77
f 82/82/82 20/20/20 81/81/81
f 20/20/20 35/35/35 81/81/81
f 20/20/20 19/19/19 35/35/35
f 19/19/19 39/39/39 35/35/35
f 19/19/19 25/25/25 39/39/39
f 25/25/25 41/41/41 39/39/39
f 25/25/25 29/29/29 41/41/41
f 29/29/29 44/44/44 41/41/41
f 29/29/29 27/27/27 44/44/44
f 27/27/27 43/43/43 44/44/44
f 27/27/27 94/94/94 43/43/43
f 94/94/94 93/93/93 43/43/43
f 36/36/36 84/84/84 83/83/83
f 85/85/85 36/36/36 83/83/83
f 40/40/40 36/36/36 85/85/85
f 89/89/89 40/40/40 85/85/85
f 89/89/89 91/91/91 40/40/40
f 91/91/91 42/42/42 40/40/40
f 88/88/88 87/87/87 86/86/86
f 22/22/22 88/88/88 86/86/86
f 22/22/22 86/86/86 90/90/90
f 23/23/23 22/22/22 90/90/90
f 90/90/90 92/92/92 23/23/23
f 92/92/92 28/28/28 23/23/23
f 92/92/92 46/46/46 28/28/28
f 46/46/46 32/32/32 28/28/28
f 32/32/32 46/46/46 45/45/45
f 30/30/30 32/32/32 45/45/45
f 30/30/30 45/45/45 95/95/95
f 96/96/96 30/30/30 95/95/95
f 99/99/99 98/98/98 97/97/97
f 100/100/100 99/99/99 97/97/97
f 104/104/104 103/103/103 101/101/101
f 103/103/103 102/102/102 101/101/101
f 101/101/101 102/102/102 105/105/105
f 102/102/102 106/106/106 105/105/105
