g throw_arrow
v -0.35715565 2.0572176 0.008093528
v -0.3557469 2.0568573 0.007933814
v -0.37714073 1.9010061 0.007606773
v -0.37843943 1.9012958 0.007759904
v -0.3168748 2.2969487 0.0087397555
v -0.31567207 2.2954655 0.0085672885
v -0.2811628 2.4384072 0.009334484
v -0.27985013 2.4367049 0.009150282
v -0.23978655 2.5157866 0.010087816
v -0.23857152 2.513936 0.009888746
v -0.21472463 2.5390718 0.010675853
v -0.21377806 2.5374658 0.01046518
v -0.1624372 2.5493417 0.011042327
v -0.16172914 2.5476542 0.010824421
v -0.103323996 2.5576475 0.01119519
v -0.10340327 2.5559263 0.0109742675
v -0.37777352 1.8993934 0.00763504
v -0.5312734 1.9383762 0.008561272
v -0.52616173 1.9349734 0.008519334
v -0.35620025 1.6861749 -6.761793E-05
v -0.35717708 1.6833724 -6.2155754E-17
v -0.10657966 1.8419939 -0.008561272
v -0.109871075 1.8412484 -0.008828391
v -0.24141607 1.8684064 -0.0077683264
v -0.23926854 1.869467 -0.007759904
v -0.24169038 1.8700465 -0.007494907
v -0.21043102 2.0199058 -0.008093528
v -0.21268925 2.0204558 -0.007817138
v -0.17761385 2.1775196 -0.008441296
v -0.17565669 2.1759877 -0.0087397555
v -0.14588559 2.2962422 -0.009015716
v -0.14393504 2.2944891 -0.009334484
v -0.13218169 2.3369725 -0.009743322
v -0.13022506 2.3346949 -0.010087816
v -0.11970198 2.3657866 -0.010311278
v -0.117828704 2.3635244 -0.010675853
v -0.10700013 2.3871136 -0.010665236
v -0.10613135 2.3846023 -0.011042327
v -0.103218906 2.384676 -0.010812879
v -0.10334849 2.381715 -0.01119519
v -0.099263415 2.382126 -0.010967326
v -0.10043737 2.3786945 -0.011355098
v -0.093137756 2.3738973 -0.011080987
v -0.095082834 2.3704152 -0.011472777
v -0.039828993 2.555832 0.011131021
v 0.006333447 2.5495148 0.011246378
v 0.0077356417 2.551091 0.011472777
v -0.038926095 2.557588 0.011355098
v -0.08815769 2.3672075 -0.01117339
v -0.09072968 2.3636844 -0.011568447
v -0.07597016 2.3360546 -0.011243533
v -0.07876393 2.3325295 -0.01164107
v -0.06326231 2.2868488 -0.01116568
v -0.0663555 2.2836845 -0.011560466
v -0.045464836 2.1835675 -0.01103903
v -0.048713684 2.1814597 -0.011429337
v -0.037453372 2.0469117 -0.010990593
v -0.040934354 2.0461392 -0.011379187
v -0.035069972 1.8765616 -0.011584687
v -0.03888669 1.8761624 -0.011994286
v -0.040255003 1.6764367 -0.012269879
v -0.04435932 1.6762944 -0.012703705
v -0.05178588 1.4584037 -0.012982255
v -0.056143396 1.4584383 -0.013441268
v -0.06863872 1.2335083 -0.0147229
v -0.073582605 1.2336966 -0.015243459
v -0.08523415 1.0052141 -0.01549116
v -0.08975759 1.0054843 -0.015973
v -0.113908395 0.7773431 -0.017190572
v -0.11915096 0.77775204 -0.017752444
v -0.14960802 0.5505562 -0.018283756
v -0.15573086 0.5511213 -0.018930215
v -0.1867662 0.32273486 -0.019951932
v -0.19344014 0.32343683 -0.020657372
v -0.22787893 0.09229135 -0.022246951
v -0.23531862 0.093138434 -0.023033537
v -0.27185076 -0.14771873 -0.023614738
v -0.27966508 -0.14677371 -0.024449686
v -0.3219953 -0.38490438 -0.025924724
v -0.33048326 -0.38370672 -0.026841346
v -0.37192798 -0.61885464 -0.028216986
v -0.38114724 -0.61720085 -0.029214654
v -0.43103433 -0.8600214 -0.031203443
v -0.4412518 -0.8578768 -0.0323067
v -0.49899387 -1.1129032 -0.034610644
v -0.51038265 -1.1104228 -0.035834372
v -0.5779575 -1.3696697 -0.038155366
v -0.59042394 -1.3668615 -0.039504424
v -0.6777084 -1.6532984 -0.041545294
v -0.6911174 -1.6501232 -0.043014213
v -0.81365037 -1.9822334 -0.04349778
v -0.8280353 -1.9785774 -0.045035727
v -1.0199554 -2.3477986 -0.056200452
v -1.0018176 -2.3525696 -0.054281235
v 0.2186683 -0.7132213 0.028638143
v 0.22763652 -0.45319998 0.026311668
v 0.22489817 -0.71419644 0.029214654
v 0.23362456 -0.453892 0.026841346
v 0.20607415 -0.9827022 0.0323067
v 0.19916397 -0.9813781 0.031669173
v 0.19746804 -1.2556901 0.035834372
v 0.18996502 -1.2543745 0.03512723
v 0.178661 -1.5313284 0.039504424
v 0.17018232 -1.5297056 0.038724855
v 0.15562887 -1.8371637 0.043014213
v 0.14625996 -1.8353075 0.042165384
v 0.1218818 -2.193051 0.045035727
v 0.111546725 -2.1907606 0.044147007
v 0.068157494 -2.6415925 0.05509141
v 0.07936825 -2.6446946 0.056200452
v 0.22745386 -0.20157309 0.023967203
v 0.23279855 -0.2021192 0.024449686
v 0.23418827 0.041611828 0.022579001
v 0.23913717 0.041021954 0.023033537
v 0.23483016 0.28515157 0.020249726
v 0.2392354 0.28484672 0.020657372
v 0.23383129 0.51816833 0.018556654
v 0.23766351 0.5178341 0.018930215
v 0.23624519 0.75215167 0.017429013
v 0.23960303 0.7519162 0.017752444
v 0.23095244 0.9877255 0.015696358
v 0.23386371 0.98757035 0.015973
v 0.23304725 1.2227855 0.01494265
v 0.23598027 1.2226768 0.015243459
v 0.22518891 1.4564387 0.013176024
v 0.22777557 1.4564188 0.013441268
v 0.21782848 1.684544 0.012453014
v 0.22056812 1.6846261 0.012703705
v 0.20070013 1.899307 0.011757595
v 0.20309252 1.8995376 0.011994286
v 0.17722486 2.0912724 0.011154634
v 0.17930076 2.091733 0.011379187
v 0.14336824 2.3066921 0.011203795
v 0.14518118 2.3078027 0.011429337
v 0.108990595 2.4497077 0.011332337
v 0.110719405 2.4508688 0.011560466
v 0.06827857 2.519102 0.011411349
v 0.06949738 2.520896 0.01164107
v 0.045987435 2.5385814 0.01134016
v 0.04766077 2.5402515 0.011568447
v -1.0098063 -2.3662667 -0.054721057
v -1.028082 -2.361388 -0.056655824
v 0.06952995 -2.6618562 0.055537798
v 0.08085053 -2.6650293 0.056655824
v -0.33169955 1.7946107 -1.8638421E-16
v -0.21046889 1.8201277 -0.004610287
v -0.3457009 1.7352009 1.4499441E-05
v -0.43898273 1.8718982 0.0046023848
vt 0.86793363 0.0008160258
vt 0.86784637 0.24748637
vt 0.8752476 0.24748637
vt 0.881295 0.0008160258
vt 0.84014034 0.0008160258
vt 0.8399401 0.24748637
vt 0.8131621 0.0008160258
vt 0.81285834 0.2474864
vt 0.7873521 0.0008160258
vt 0.7869606 0.2474864
vt 0.7583345 0.0008160258
vt 0.7578753 0.2474864
vt 0.73134786 0.0008160258
vt 0.73085046 0.2474864
vt 0.713825 0.0008160258
vt 0.7133131 0.24748641
vt 0.9143077 0.22712798
vt 0.9988081 0.0008160258
vt 0.9944453 0.01592508
vt 0.9949454 0.26571754
vt 0.99893826 0.250816
vt 1.0011919 1.000816
vt 0.99804884 0.9902864
vt 0.9137964 0.7571385
vt 0.8812951 1.000816
vt 0.87495327 0.74210715
vt 0.8679337 1.000816
vt 0.8678421 0.74210715
vt 0.8399302 0.74210715
vt 0.8401404 1.000816
vt 0.81284356 0.74210715
vt 0.81316215 1.000816
vt 0.7869415 0.74210715
vt 0.78735214 1.000816
vt 0.7578528 0.74210715
vt 0.7583346 1.000816
vt 0.7308262 0.74210715
vt 0.7313479 1.000816
vt 0.71328807 0.74210715
vt 0.7138251 1.000816
vt 0.69432104 0.74210715
vt 0.6948724 1.000816
vt 0.6729736 0.74210715
vt 0.6735081 1.000816
vt 0.69434667 0.2474864
vt 0.67299837 0.2474864
vt 0.67350805 0.0008160258
vt 0.6948723 0.0008160258
vt 0.6564464 0.74210715
vt 0.65697986 1.000816
vt 0.6303063 0.74210715
vt 0.6308115 1.000816
vt 0.60987264 0.74210715
vt 0.6105698 1.000816
vt 0.5824999 0.74210715
vt 0.58343464 1.000816
vt 0.5540576 0.74210715
vt 0.5546146 1.000816
vt 0.526257 0.74210715
vt 0.5267171 1.000816
vt 0.4989748 0.74210715
vt 0.499246 1.000816
vt 0.4649652 0.74210715
vt 0.46505255 1.000816
vt 0.43424547 0.74210715
vt 0.4342694 1.000816
vt 0.40351528 0.74210715
vt 0.40353227 1.000816
vt 0.373248 0.74210715
vt 0.37327576 1.000816
vt 0.34386188 0.74210715
vt 0.34391835 1.000816
vt 0.31501296 0.74210715
vt 0.31511632 1.000816
vt 0.28737685 0.74210715
vt 0.28749156 1.000816
vt 0.25880903 0.74210715
vt 0.25891423 1.000816
vt 0.2322431 0.74210715
vt 0.2323407 1.000816
vt 0.20838532 0.74210715
vt 0.20847881 1.000816
vt 0.18343559 0.74210715
vt 0.18351892 1.000816
vt 0.15190291 0.74210715
vt 0.15196836 1.000816
vt 0.12384137 0.74210715
vt 0.12389596 1.000816
vt 0.09608972 0.74210715
vt 0.0961292 1.000816
vt 0.0718421 0.74210715
vt 0.071869664 1.000816
vt 0.045911133 1.000816
vt 0.04590692 0.7421072
vt 0.20838961 0.2474864
vt 0.23224698 0.2474864
vt 0.20847875 0.0008160258
vt 0.23234063 0.0008160258
vt 0.18351886 0.0008160258
vt 0.1834394 0.2474864
vt 0.1519683 0.0008160258
vt 0.15190576 0.2474864
vt 0.1238959 0.0008160258
vt 0.12384392 0.2474864
vt 0.09612914 0.0008160258
vt 0.09609153 0.2474864
vt 0.071869604 0.0008160258
vt 0.07184335 0.2474864
vt 0.045907114 0.24748643
vt 0.045911074 0.00081605103
vt 0.25881365 0.2474864
vt 0.25891417 0.0008160258
vt 0.28738227 0.2474864
vt 0.2874915 0.0008160258
vt 0.3150179 0.2474864
vt 0.31511626 0.0008160258
vt 0.3438645 0.2474864
vt 0.3439183 0.0008160258
vt 0.3732495 0.2474864
vt 0.3732757 0.0008160258
vt 0.40351585 0.2474864
vt 0.4035322 0.0008160258
vt 0.43424618 0.2474864
vt 0.43426934 0.0008160258
vt 0.46496916 0.2474864
vt 0.4650525 0.0008160258
vt 0.4989869 0.2474864
vt 0.49924594 0.0008160258
vt 0.5262782 0.2474864
vt 0.526717 0.0008160258
vt 0.55408317 0.2474864
vt 0.5546145 0.0008160258
vt 0.58254373 0.2474864
vt 0.5834346 0.0008160258
vt 0.60990524 0.2474864
vt 0.6105697 0.0008160258
vt 0.63032985 0.2474864
vt 0.63081145 0.0008160258
vt 0.6564711 0.2474864
vt 0.6569798 0.0008160258
vt 9.313226E-10 0.7421072
vt 3.0733645E-08 1.000816
vt 9.313226E-10 0.24748643
vt -2.8871E-08 0.0008160556
vt 0.9231972 0.500816
vt 0.932315 0.77006847
vt 0.9321804 0.49996132
vt 0.9320458 0.23202504
vn 0.11108547 -0.019902974 0.9936116
vn 0.10536581 -0.018982187 0.9942524
vn 0.105817795 -0.018146744 0.9942199
vn 0.038792416 -0.02815976 0.9988504
vn 0.105896086 -0.026947256 0.99401206
vn 0.10392353 -0.023960115 0.99429667
vn 0.08783899 -0.043332484 0.99519175
vn 0.09989519 -0.03585433 0.99435174
vn 0.06931559 -0.06411738 0.99553216
vn 0.09288 -0.054023214 0.99421066
vn 0.03374423 -0.104298525 0.9939734
vn 0.0685354 -0.084955364 0.99402493
vn 0.01601424 -0.12261321 0.99232537
vn 0.034942575 -0.113282666 0.9929481
vn 0.0052076667 -0.12565161 0.9920607
vn 0.0027131147 -0.12626317 0.99199307
vn 0.03766705 -0.042952284 0.9983668
vn 0.010686432 -0.026316471 0.99959654
vn 0.017818548 -0.028330114 0.9994398
vn 0.03281207 -0.0032781498 0.9994561
vn -0.0011766233 0.019756632 0.99980414
vn -0.031041564 0.03925093 0.9987471
vn 0.016836181 0.024619492 0.9995551
vn 0.054975603 0.017988509 0.99832565
vn 0.0528087 -0.059592653 0.996825
vn 0.105817474 -0.018341027 0.9942164
vn 0.1168511 -0.021251287 0.99292207
vn 0.10550855 -0.018899282 0.9942388
vn 0.104658954 -0.021951435 0.9942659
vn 0.12598413 -0.025622318 0.9917013
vn 0.1020332 -0.030687926 0.9943076
vn 0.13243054 -0.029936824 0.9907401
vn 0.09578144 -0.048362013 0.9942268
vn 0.13791892 -0.031834092 0.9899318
vn 0.07670557 -0.07734645 0.9940492
vn 0.140067 -0.04771786 0.9889915
vn 0.03271233 -0.114722654 0.9928588
vn 0.11737367 -0.07955175 0.9898964
vn -9.3528455E-05 -0.12597176 0.99203384
vn -0.04961895 -0.1171418 0.9918749
vn -0.020563312 -0.117488004 0.9928614
vn -0.078942634 -0.07942847 0.9937098
vn -0.037009638 -0.10528376 0.99375325
vn -0.0774558 -0.06780473 0.99468744
vn -0.019267779 -0.11816631 0.9928069
vn -0.036236975 -0.10601293 0.99370426
vn -0.027770583 -0.11283288 0.9932258
vn -0.0120321 -0.12319823 0.99230915
vn -0.07196435 -0.072127074 0.99479586
vn -0.09261896 -0.042386014 0.994799
vn -0.0935786 -0.045594264 0.99456733
vn -0.102722205 -0.028657831 0.9942972
vn -0.10332432 -0.026622571 0.99429137
vn -0.10786424 -0.01895198 0.993985
vn -0.10465756 -0.015162502 0.9943927
vn -0.11118348 -0.009644164 0.9937531
vn -0.10157987 -0.009275555 0.9947841
vn -0.109599896 -0.0053969305 0.9939611
vn -0.09795852 -0.004518369 0.9951802
vn -0.10669262 -0.0023896026 0.99428916
vn -0.09571332 -0.00068264984 0.9954087
vn -0.10534449 0.0010118309 0.99443525
vn -0.095531374 0.0014656993 0.99542534
vn -0.10483452 0.0011205937 0.9944891
vn -0.09708893 0.002977672 0.99527127
vn -0.10491571 0.0022997381 0.99447846
vn -0.09800963 0.0045088707 0.9951753
vn -0.10548847 0.0051243566 0.9944073
vn -0.097187 0.006696556 0.9952436
vn -0.10522345 0.009147047 0.9944065
vn -0.09552852 0.0077785407 0.9953963
vn -0.104379505 0.010597294 0.9944811
vn -0.09494095 0.008028497 0.99545056
vn -0.104147874 0.009140154 0.9945198
vn -0.09490005 0.009305063 0.99544334
vn -0.104160085 0.01128309 0.9944965
vn -0.09421702 0.00983487 0.9955031
vn -0.10470701 0.01293389 0.99441904
vn -0.09380621 0.010551718 0.9955346
vn -0.10532606 0.0126626305 0.9943571
vn -0.09455275 0.013162829 0.9954328
vn -0.105124116 0.013115477 0.9943726
vn -0.09632475 0.014526458 0.99524397
vn -0.10437732 0.014045468 0.9944386
vn -0.097560115 0.016488254 0.99509305
vn -0.103586785 0.016470755 0.994484
vn -0.097486064 0.019569498 0.99504447
vn -0.10293665 0.021603758 0.99445325
vn -0.094341695 0.02218326 0.99529266
vn -0.10045875 0.03073273 0.9944664
vn -0.092104696 0.02505386 0.9954341
vn -0.099662244 0.026758898 0.99466145
vn -0.09998012 0.022105513 0.9947438
vn -0.09221191 0.025612997 0.9954099
vn -0.09434891 0.013226149 0.99545133
vn -0.09357316 0.010531949 0.9955567
vn -0.088748135 0.015208784 0.99593794
vn -0.08828316 0.010770955 0.9960372
vn -0.08954998 0.016554074 0.9958448
vn -0.09617774 0.014548659 0.99525785
vn -0.08948798 0.017782984 0.9958291
vn -0.0973873 0.016591735 0.99510825
vn -0.08806266 0.018580545 0.99594164
vn -0.097292736 0.019554494 0.99506366
vn -0.08592202 0.015489914 0.9961814
vn -0.09417387 0.021985218 0.995313
vn -0.08450888 0.025339322 0.9961005
vn -0.09193032 0.024925288 0.9954534
vn -0.09195684 0.025765833 0.9954296
vn -0.08480521 0.031429466 0.99590176
vn -0.09400091 0.0097745955 0.9955241
vn -0.08875021 0.008738012 0.9960156
vn -0.09470424 0.009285894 0.9954621
vn -0.09024227 0.008861842 0.99588037
vn -0.09477288 0.008016887 0.9954666
vn -0.09217031 0.008466011 0.9957072
vn -0.09538309 0.007718233 0.9954107
vn -0.094831064 0.006351603 0.99547315
vn -0.097048335 0.0066628777 0.9952574
vn -0.09555766 0.0055307643 0.99540854
vn -0.097891286 0.004507982 0.9951869
vn -0.09643714 0.0046506776 0.99532825
vn -0.09700404 0.0030064564 0.99527943
vn -0.09991253 0.004053394 0.99498796
vn -0.0954189 0.0014708074 0.9954361
vn -0.099322684 0.002211533 0.9950528
vn -0.09559385 -0.0007719307 0.9954201
vn -0.09541621 -0.0019737103 0.99543554
vn -0.097904004 -0.0046946052 0.9951848
vn -0.09734379 -0.00651951 0.9952294
vn -0.101848625 -0.009751121 0.9947521
vn -0.10487127 -0.013520125 0.9943939
vn -0.104959965 -0.017771408 0.99431765
vn -0.10893305 -0.022395648 0.99379677
vn -0.100576594 -0.032240693 0.99440676
vn -0.10406071 -0.04035359 0.993752
vn -0.09170123 -0.049242016 0.9945683
vn -0.08589529 -0.064034805 0.9942442
vn -0.06908733 -0.07486028 0.99479795
vn -0.052492116 -0.08952448 0.9946004
vn -0.09656735 0.019132422 0.9951426
vn -0.098519005 0.02554839 0.9948071
vn -0.09648288 0.018935438 0.99515456
vn -0.09407854 0.015495571 0.99544424
vn 0.036848657 -0.010817971 0.99926233
vn 0.037428237 0.012800574 0.99921733
vn 0.03596828 -0.01023156 0.99930054
vn 0.022829002 -0.029077752 0.99931645
g throw_arrow_0
f 3/3/3 2/2/2 1/1/1
f 4/4/4 3/3/3 1/1/1
f 1/1/1 2/2/2 5/5/5
f 2/2/2 6/6/6 5/5/5
f 5/5/5 6/6/6 7/7/7
f 6/6/6 8/8/8 7/7/7
f 7/7/7 8/8/8 9/9/9
f 8/8/8 10/10/10 9/9/9
f 9/9/9 10/10/10 11/11/11
f 10/10/10 12/12/12 11/11/11
f 11/11/11 12/12/12 13/13/13
f 12/12/12 14/14/14 13/13/13
f 13/13/13 14/14/14 15/15/15
f 14/14/14 16/16/16 15/15/15
f 17/17/17 3/3/3 4/4/4
f 17/17/17 4/4/4 18/18/18
f 19/19/19 17/17/17 18/18/18
f 20/20/20 19/19/19 18/18/18
f 21/21/21 20/20/20 18/18/18
f 20/20/20 21/21/21 22/22/22
f 23/23/23 20/20/20 22/22/22
f 24/24/24 23/23/23 22/22/22
f 25/25/25 24/24/24 22/22/22
f 24/24/24 25/25/25 26/26/26
f 17/17/17 24/24/24 26/26/26
f 25/25/25 27/27/27 26/26/26
f 27/27/27 28/28/28 26/26/26
f 28/28/28 27/27/27 29/29/29
f 27/27/27 30/30/30 29/29/29
f 29/29/29 30/30/30 31/31/31
f 30/30/30 32/32/32 31/31/31
f 31/31/31 32/32/32 33/33/33
f 32/32/32 34/34/34 33/33/33
f 33/33/33 34/34/34 35/35/35
f 34/34/34 36/36/36 35/35/35
f 35/35/35 36/36/36 37/37/37
f 36/36/36 38/38/38 37/37/37
f 37/37/37 38/38/38 39/39/39
f 38/38/38 40/40/40 39/39/39
f 3/3/3 26/26/26 28/28/28
f 2/2/2 3/3/3 28/28/28
f 2/2/2 28/28/28 29/29/29
f 6/6/6 2/2/2 29/29/29
f 29/29/29 31/31/31 8/8/8
f 6/6/6 29/29/29 8/8/8
f 8/8/8 31/31/31 33/33/33
f 10/10/10 8/8/8 33/33/33
f 33/33/33 35/35/35 12/12/12
f 10/10/10 33/33/33 12/12/12
f 12/12/12 35/35/35 37/37/37
f 14/14/14 12/12/12 37/37/37
f 37/37/37 39/39/39 16/16/16
f 14/14/14 37/37/37 16/16/16
f 39/39/39 40/40/40 41/41/41
f 40/40/40 42/42/42 41/41/41
f 41/41/41 42/42/42 43/43/43
f 42/42/42 44/44/44 43/43/43
f 45/45/45 41/41/41 43/43/43
f 39/39/39 41/41/41 45/45/45
f 16/16/16 39/39/39 45/45/45
f 46/46/46 45/45/45 43/43/43
f 45/45/45 46/46/46 47/47/47
f 48/48/48 45/45/45 47/47/47
f 16/16/16 45/45/45 48/48/48
f 15/15/15 16/16/16 48/48/48
f 43/43/43 44/44/44 49/49/49
f 46/46/46 43/43/43 49/49/49
f 44/44/44 50/50/50 49/49/49
f 49/49/49 50/50/50 51/51/51
f 50/50/50 52/52/52 51/51/51
f 51/51/51 52/52/52 53/53/53
f 52/52/52 54/54/54 53/53/53
f 53/53/53 54/54/54 55/55/55
f 54/54/54 56/56/56 55/55/55
f 55/55/55 56/56/56 57/57/57
f 56/56/56 58/58/58 57/57/57
f 57/57/57 58/58/58 59/59/59
f 58/58/58 60/60/60 59/59/59
f 59/59/59 60/60/60 61/61/61
f 60/60/60 62/62/62 61/61/61
f 61/61/61 62/62/62 63/63/63
f 62/62/62 64/64/64 63/63/63
f 63/63/63 64/64/64 65/65/65
f 64/64/64 66/66/66 65/65/65
f 65/65/65 66/66/66 67/67/67
f 66/66/66 68/68/68 67/67/67
f 67/67/67 68/68/68 69/69/69
f 68/68/68 70/70/70 69/69/69
f 69/69/69 70/70/70 71/71/71
f 70/70/70 72/72/72 71/71/71
f 71/71/71 72/72/72 73/73/73
f 72/72/72 74/74/74 73/73/73
f 73/73/73 74/74/74 75/75/75
f 74/74/74 76/76/76 75/75/75
f 75/75/75 76/76/76 77/77/77
f 76/76/76 78/78/78 77/77/77
f 77/77/77 78/78/78 79/79/79
f 78/78/78 80/80/80 79/79/79
f 79/79/79 80/80/80 81/81/81
f 80/80/80 82/82/82 81/81/81
f 81/81/81 82/82/82 83/83/83
f 82/82/82 84/84/84 83/83/83
f 83/83/83 84/84/84 85/85/85
f 84/84/84 86/86/86 85/85/85
f 85/85/85 86/86/86 87/87/87
f 86/86/86 88/88/88 87/87/87
f 87/87/87 88/88/88 89/89/89
f 88/88/88 90/90/90 89/89/89
f 89/89/89 90/90/90 91/91/91
f 90/90/90 92/92/92 91/91/91
f 91/91/91 92/92/92 93/93/93
f 94/94/94 91/91/91 93/93/93
f 79/79/79 81/81/81 95/95/95
f 95/95/95 81/81/81 83/83/83
f 96/96/96 79/79/79 95/95/95
f 96/96/96 95/95/95 97/97/97
f 98/98/98 96/96/96 97/97/97
f 97/97/97 95/95/95 99/99/99
f 95/95/95 100/100/100 99/99/99
f 99/99/99 100/100/100 101/101/101
f 100/100/100 102/102/102 101/101/101
f 101/101/101 102/102/102 103/103/103
f 102/102/102 104/104/104 103/103/103
f 103/103/103 104/104/104 105/105/105
f 104/104/104 106/106/106 105/105/105
f 105/105/105 106/106/106 107/107/107
f 106/106/106 108/108/108 107/107/107
f 107/107/107 108/108/108 109/109/109
f 110/110/110 107/107/107 109/109/109
f 111/111/111 96/96/96 98/98/98
f 112/112/112 111/111/111 98/98/98
f 113/113/113 111/111/111 112/112/112
f 114/114/114 113/113/113 112/112/112
f 115/115/115 113/113/113 114/114/114
f 116/116/116 115/115/115 114/114/114
f 117/117/117 115/115/115 116/116/116
f 118/118/118 117/117/117 116/116/116
f 119/119/119 117/117/117 118/118/118
f 120/120/120 119/119/119 118/118/118
f 121/121/121 119/119/119 120/120/120
f 122/122/122 121/121/121 120/120/120
f 123/123/123 121/121/121 122/122/122
f 124/124/124 123/123/123 122/122/122
f 125/125/125 123/123/123 124/124/124
f 126/126/126 125/125/125 124/124/124
f 127/127/127 125/125/125 126/126/126
f 128/128/128 127/127/127 126/126/126
f 129/129/129 127/127/127 128/128/128
f 130/130/130 129/129/129 128/128/128
f 131/131/131 129/129/129 130/130/130
f 132/132/132 131/131/131 130/130/130
f 133/133/133 131/131/131 132/132/132
f 134/134/134 133/133/133 132/132/132
f 135/135/135 133/133/133 134/134/134
f 136/136/136 135/135/135 134/134/134
f 137/137/137 135/135/135 136/136/136
f 138/138/138 137/137/137 136/136/136
f 139/139/139 137/137/137 138/138/138
f 140/140/140 139/139/139 138/138/138
f 139/139/139 49/49/49 137/137/137
f 49/49/49 51/51/51 137/137/137
f 137/137/137 51/51/51 53/53/53
f 135/135/135 137/137/137 53/53/53
f 135/135/135 53/53/53 133/133/133
f 53/53/53 55/55/55 133/133/133
f 133/133/133 55/55/55 57/57/57
f 131/131/131 133/133/133 57/57/57
f 131/131/131 57/57/57 129/129/129
f 57/57/57 59/59/59 129/129/129
f 129/129/129 59/59/59 61/61/61
f 127/127/127 129/129/129 61/61/61
f 127/127/127 61/61/61 63/63/63
f 125/125/125 127/127/127 63/63/63
f 125/125/125 63/63/63 123/123/123
f 63/63/63 65/65/65 123/123/123
f 123/123/123 65/65/65 67/67/67
f 121/121/121 123/123/123 67/67/67
f 121/121/121 67/67/67 119/119/119
f 67/67/67 69/69/69 119/119/119
f 119/119/119 69/69/69 71/71/71
f 117/117/117 119/119/119 71/71/71
f 117/117/117 71/71/71 115/115/115
f 71/71/71 73/73/73 115/115/115
f 115/115/115 73/73/73 75/75/75
f 113/113/113 115/115/115 75/75/75
f 113/113/113 75/75/75 111/111/111
f 75/75/75 77/77/77 111/111/111
f 111/111/111 77/77/77 79/79/79
f 96/96/96 111/111/111 79/79/79
f 100/100/100 95/95/95 83/83/83
f 100/100/100 83/83/83 102/102/102
f 83/83/83 85/85/85 102/102/102
f 102/102/102 85/85/85 87/87/87
f 104/104/104 102/102/102 87/87/87
f 104/104/104 87/87/87 106/106/106
f 87/87/87 89/89/89 106/106/106
f 106/106/106 89/89/89 91/91/91
f 108/108/108 106/106/106 91/91/91
f 108/108/108 91/91/91 94/94/94
f 109/109/109 108/108/108 94/94/94
f 109/109/109 94/94/94 141/141/141
f 141/141/141 94/94/94 142/142/142
f 94/94/94 93/93/93 142/142/142
f 143/143/143 109/109/109 141/141/141
f 110/110/110 109/109/109 143/143/143
f 144/144/144 110/110/110 143/143/143
f 146/146/146 24/24/24 145/145/145
f 147/147/147 146/146/146 145/145/145
f 147/147/147 145/145/145 148/148/148
f 145/145/145 17/17/17 148/148/148
f 17/17/17 145/145/145 24/24/24
f 24/24/24 146/146/146 23/23/23
f 146/146/146 147/147/147 20/20/20
f 23/23/23 146/146/146 20/20/20
f 147/147/147 148/148/148 19/19/19
f 20/20/20 147/147/147 19/19/19
f 19/19/19 148/148/148 17/17/17
f 3/3/3 17/17/17 26/26/26
f 139/139/139 46/46/46 49/49/49
f 46/46/46 139/139/139 140/140/140
f 47/47/47 46/46/46 140/140/140
