g verticalSliceBushes05Geo
v 2.6860137 1.0778506 -2.9996489E-16
v 2.7261574 -0.13573435 -3.049491E-17
v 1.4390521 -0.35512093 1.8218696E-17
v 0.7387567 2.9199724 -7.0899813E-16
v -2.1155877 -0.3474365 8.3120435E-18
v -1.9818567 2.9274294 -7.106539E-16
vt 0.304818 0.55290097
vt 0.30639002 0.505378
vt 0.255988 0.49678698
vt 0.22856502 0.625037
vt 0.116791196 0.4970879
vt 0.12202799 0.62532896
vn -0 0 1
vn -0 0 1
vn -0 0 1
vn -0 0 1
vn -0 0 1
vn -0 0 1
g verticalSliceBushes05Geo_0
f 3/3/3 2/2/2 1/1/1
f 1/1/1 4/4/4 3/3/3
f 4/4/4 5/5/5 3/3/3
f 4/4/4 6/6/6 5/5/5
