g WonderBox_SmokeTop3
v 0.018727545 0.00033563736 0.04861885
v 0.018281927 0.00035551324 0.08532218
v -0.009972014 0.00048752053 0.08203823
v -0.001597479 0.00044240526 0.040525284
v 0.03674325 -0.0005129119 0.049902324
v 0.040874045 -0.0004965357 0.08275849
v 0.050376866 0.0009798313 0.046242356
v 0.06488471 0.0011103398 0.07348767
v 0.060051296 0.0031042136 0.040141225
v 0.080866486 0.0034404409 0.057585947
v 0.06737953 0.0048060184 0.032093808
v 0.088054754 0.005321983 0.038717024
v 0.07070098 0.0063489256 0.020654606
v 0.08960162 0.0069414303 0.019873193
v 0.07151411 0.0060698646 0.006568379
v 0.08774921 0.006601851 0.0039959583
v 0.0698411 0.005467866 -0.0026346925
v 0.084217496 0.00585098 -0.008126628
v 0.066487156 0.0045972676 -0.01248485
v 0.07738328 0.0047884253 -0.019812817
v 0.06092837 0.003357174 -0.01897704
v 0.064270586 0.003478748 -0.028486585
v 0.05620524 0.004328977 -0.021733277
v 0.054532647 0.0047307597 -0.030237857
v 0.04827939 0.0076682484 -0.028735504
v 0.05003729 0.0068842005 -0.021851301
v 0.043314274 0.01226341 -0.026484687
v 0.045594446 0.011063429 -0.020029468
v 0.043866437 0.0138931535 -0.018811338
v 0.041462164 0.015259267 -0.025078556
v 0.042650346 0.017187152 -0.017547337
v 0.04019116 0.018672194 -0.023651125
v 0.04212343 0.020880962 -0.016433012
v 0.039653543 0.022427542 -0.022397649
v 0.042366706 0.024887301 -0.015608966
v 0.039908413 0.026432782 -0.021457238
v 0.043076158 0.029027658 -0.014996012
v 0.04064219 0.030523889 -0.020744408
v 0.04385153 0.033100694 -0.014460016
v 0.041448105 0.034518953 -0.020117525
v 0.04436749 0.036924623 -0.0138979405
v 0.041996177 0.03825195 -0.019467605
v 0.0445984 0.040395744 -0.013331137
v 0.042263426 0.041620396 -0.01881621
v 0.044593554 0.04342991 -0.012812049
v 0.04230365 0.04453768 -0.018217545
v 0.04434194 0.046013158 -0.01235604
v 0.042112418 0.046987556 -0.017689183
v 0.043591365 0.048412275 -0.011830121
v 0.04145238 0.049235232 -0.017102148
v 0.042029347 0.050964244 -0.011064216
v 0.04002801 0.051616292 -0.016290825
v 0.0391362 0.053765297 -0.009901898
v 0.037336223 0.054232463 -0.0151015995
v 0.033563484 0.055948608 -0.008241334
v 0.032043945 0.05625018 -0.01342885
v 0.022610595 0.056602035 -0.011178951
v 0.023755545 0.0564066 -0.005994338
v 0.021470197 0.056796692 -0.016342957
v 0.030530449 0.056550547 -0.018595746
v 0.020366205 0.056985132 -0.021342099
v 0.029065272 0.056841332 -0.023597687
v 0.03380781 0.05514823 -0.025294323
v 0.035543397 0.054697774 -0.020280633
v 0.038034625 0.052265745 -0.021496657
v 0.036104884 0.052894462 -0.026536295
v 0.039321907 0.050054926 -0.022353219
v 0.03725945 0.05084845 -0.027436648
v 0.037741985 0.048897617 -0.028143488
v 0.039891753 0.047958076 -0.023001129
v 0.04002285 0.04564104 -0.023601556
v 0.037814867 0.046709172 -0.028813679
v 0.039937735 0.042840175 -0.024279483
v 0.037686292 0.044021014 -0.029568335
v 0.03734781 0.040853847 -0.03038555
v 0.03963429 0.039574 -0.025015133
v 0.03905424 0.03593157 -0.025752552
v 0.036736798 0.037299085 -0.031207673
v 0.03821789 0.032014173 -0.026469953
v 0.035870995 0.03345688 -0.03201271
v 0.03508954 0.02946232 -0.03292132
v 0.03745989 0.027972123 -0.027282264
v 0.03719347 0.023967978 -0.028338578
v 0.034811936 0.025459234 -0.034089837
v 0.037741747 0.020151334 -0.029730652
v 0.035370536 0.02158325 -0.035616085
v 0.036749177 0.01793719 -0.03736388
v 0.039067443 0.016619949 -0.031320862
v 0.041043166 0.013458623 -0.032914247
v 0.038844563 0.014615677 -0.039138537
v 0.044833463 0.009205179 -0.04223027
v 0.04652848 0.008449179 -0.03559234
v 0.052851107 0.0055183545 -0.044513196
v 0.053678233 0.0051309452 -0.03749131
v 0.069680974 0.0037170642 -0.044764288
v 0.0678113 0.003599839 -0.03654055
v 0.09144178 0.005163142 -0.036842816
v 0.08681444 0.0049788225 -0.030063078
v 0.1083591 0.00660198 -0.0213296
v 0.098336354 0.0062325713 -0.015307398
v 0.11982902 0.007644679 -0.0053519956
v 0.10473055 0.007131723 -0.0005750805
v 0.12691766 0.008102888 0.016890336
v 0.10910213 0.0075315796 0.01859471
v 0.12785591 0.0063334033 0.04874546
v 0.10910348 0.005835897 0.04347503
v 0.11505986 0.0040995306 0.082709976
v 0.09814512 0.0037753317 0.0699625
v 0.09332195 0.0013661693 0.11050215
v 0.0774598 0.0012403296 0.08994713
v 0.05047135 -0.00046443436 0.13149726
v 0.045410316 -0.00048022467 0.10591222
v 0.023165846 0.00039447498 0.1359336
v 0.018864417 0.0003753101 0.10948125
v -0.013040902 0.0005324565 0.10699429
v -0.015558722 0.0005759578 0.13557225
vt 1 0.9791667
vt 0.6666667 0.9791667
vt 0.6666667 1
vt 1 1
vt 1 0.9583333
vt 0.6666667 0.9583333
vt 1 0.8958333
vt 0.6666667 0.8958333
vt 1 0.8333333
vt 0.6666667 0.8333333
vt 1 0.7708333
vt 0.6666667 0.7708333
vt 1 0.7083333
vt 0.6666667 0.7083333
vt 1 0.6458333
vt 0.6666667 0.6458333
vt 1 0.5833333
vt 0.6666667 0.5833333
vt 1 0.5208333
vt 0.6666667 0.5208333
vt 1 0.45833334
vt 0.6666667 0.45833334
vt 1 0.39583334
vt 0.6666667 0.39583334
vt 0.6666667 0.35416666
vt 1 0.35416666
vt 0.6666667 0.3125
vt 1 0.3125
vt 1 0.29166666
vt 0.6666667 0.29166666
vt 1 0.27083334
vt 0.6666667 0.27083334
vt 1 0.25
vt 0.6666667 0.25
vt 1 0.22916667
vt 0.6666667 0.22916667
vt 1 0.20833333
vt 0.6666667 0.20833333
vt 1 0.1875
vt 0.6666667 0.1875
vt 1 0.16666667
vt 0.6666667 0.16666667
vt 1 0.14583333
vt 0.6666667 0.14583333
vt 1 0.125
vt 0.6666667 0.125
vt 1 0.10416666
vt 0.6666667 0.10416666
vt 1 0.083333336
vt 0.6666667 0.083333336
vt 1 0.0625
vt 0.6666667 0.0625
vt 1 0.041666668
vt 0.6666667 0.041666668
vt 1 0.020833334
vt 0.6666667 0.020833334
vt 0.6666667 0
vt 1 0
vt 0.33333334 0
vt 0.33333334 0.020833334
vt 0 0
vt 0 0.020833334
vt 0 0.041666668
vt 0.33333334 0.041666668
vt 0.33333334 0.0625
vt 0 0.0625
vt 0.33333334 0.083333336
vt 0 0.083333336
vt 0 0.10416666
vt 0.33333334 0.10416666
vt 0.33333334 0.125
vt 0 0.125
vt 0.33333334 0.14583333
vt 0 0.14583333
vt 0 0.16666667
vt 0.33333334 0.16666667
vt 0.33333334 0.1875
vt 0 0.1875
vt 0.33333334 0.20833333
vt 0 0.20833333
vt 0 0.22916667
vt 0.33333334 0.22916667
vt 0.33333334 0.25
vt 0 0.25
vt 0.33333334 0.27083334
vt 0 0.27083334
vt 0 0.29166666
vt 0.33333334 0.29166666
vt 0.33333334 0.3125
vt 0 0.3125
vt 0 0.35416666
vt 0.33333334 0.35416666
vt 0 0.39583334
vt 0.33333334 0.39583334
vt 0 0.45833334
vt 0.33333334 0.45833334
vt 0 0.5208333
vt 0.33333334 0.5208333
vt 0 0.5833333
vt 0.33333334 0.5833333
vt 0 0.6458333
vt 0.33333334 0.6458333
vt 0 0.7083333
vt 0.33333334 0.7083333
vt 0 0.7708333
vt 0.33333334 0.7708333
vt 0 0.8333333
vt 0.33333334 0.8333333
vt 0 0.8958333
vt 0.33333334 0.8958333
vt 0 0.9583333
vt 0.33333334 0.9583333
vt 0 0.9791667
vt 0.33333334 0.9791667
vt 0.33333334 1
vt 0 1
vn 0.018282274 0.9998322 -0.0011606175
vn 0.019041546 0.9998169 -0.0018937885
vn 0.0049473215 0.99998754 -0.00062686065
vn 0.004978261 0.99998754 -0.0002695259
vn -0.012116527 0.9998934 0.008143006
vn -0.0103992745 0.9999164 0.0076899733
vn -0.08861741 0.99512756 0.043220747
vn -0.07213487 0.9966386 0.038834803
vn -0.094918065 0.9921368 0.08157899
vn -0.074902445 0.99471503 0.07022586
vn -0.061241105 0.9936655 0.09422494
vn -0.04961227 0.9956398 0.07899392
vn -0.038909625 0.9979613 0.0505902
vn -0.03532516 0.9985941 0.03952191
vn -0.037493642 0.9987922 -0.031756133
vn -0.03802025 0.9988541 -0.029067207
vn -0.04882562 0.9971434 -0.057629257
vn -0.050921056 0.99744236 -0.050157126
vn -0.06938239 0.99573404 -0.06082649
vn -0.06473261 0.99677944 -0.047333486
vn -0.032080807 0.9989578 -0.03246685
vn -0.009443514 0.99990344 -0.010195223
vn 0.2250647 0.97408557 0.02243368
vn 0.24042201 0.97032964 0.025642978
vn 0.53559583 0.84313273 -0.047584713
vn 0.5198491 0.85280925 -0.049732506
vn 0.7086319 0.6955488 -0.11854395
vn 0.7114285 0.69245154 -0.11991784
vn 0.84029037 0.49819517 -0.2138075
vn 0.8379894 0.5028628 -0.21190268
vn 0.9010733 0.32839817 -0.28323424
vn 0.8998339 0.3331899 -0.28157327
vn 0.9276339 0.12987964 -0.35018083
vn 0.9274871 0.13337833 -0.34925336
vn 0.9185427 -0.03293903 -0.39394715
vn 0.9187339 -0.031289324 -0.39363554
vn 0.90588236 -0.105026804 -0.4103005
vn 0.90599376 -0.10443303 -0.41020617
vn 0.907901 -0.09248149 -0.4088556
vn 0.90802217 -0.09180617 -0.40873885
vn 0.9166882 -0.0333437 -0.39820975
vn 0.9167736 -0.032617956 -0.3980731
vn 0.9221818 0.030867968 -0.38552293
vn 0.9222037 0.03125371 -0.38543937
vn 0.9233518 0.103303716 -0.3697969
vn 0.92336076 0.103252634 -0.3697889
vn 0.9101154 0.24205042 -0.33630577
vn 0.9098381 0.24372043 -0.33584976
vn 0.8464035 0.4577092 -0.27221933
vn 0.8449093 0.4611472 -0.2710562
vn 0.7218925 0.6641826 -0.19424881
vn 0.7189584 0.6678047 -0.1927062
vn 0.4851586 0.8694999 -0.092687964
vn 0.4774228 0.8740755 -0.089774646
vn 0.17065145 0.98532164 0.0043964107
vn 0.16222647 0.9867307 0.0067149177
vn 0.045897063 0.9982956 0.036045235
vn 0.050175432 0.9981291 0.034937643
vn 0.03691038 0.99858177 0.038367733
vn 0.1520504 0.9883256 0.009651528
vn 0.03199088 0.9987019 0.039636854
vn 0.14670312 0.9891171 0.011201941
vn 0.4689037 0.8789927 -0.08660934
vn 0.47044453 0.87811303 -0.08717481
vn 0.71828526 0.668618 -0.19239606
vn 0.720134 0.66633385 -0.19340687
vn 0.84611875 0.4583675 -0.27199703
vn 0.8486774 0.45240247 -0.2740049
vn 0.9118506 0.23159549 -0.33895743
vn 0.910656 0.23893963 -0.33706605
vn 0.92343193 0.100413166 -0.37039256
vn 0.9234949 0.09694967 -0.37115777
vn 0.9221655 0.03046982 -0.3855934
vn 0.9220762 0.028792594 -0.3859357
vn 0.9166235 -0.033894386 -0.39831215
vn 0.9167653 -0.032690793 -0.39808637
vn 0.90803486 -0.09173592 -0.4087263
vn 0.90790236 -0.092476085 -0.4088539
vn 0.90633786 -0.10267736 -0.40988907
vn 0.90659636 -0.10137763 -0.40964082
vn 0.9200172 -0.020732345 -0.3913292
vn 0.9194421 -0.025483236 -0.39239874
vn 0.92707145 0.14267562 -0.34667304
vn 0.92665464 0.15109538 -0.34421122
vn 0.89735 0.34250787 -0.27830076
vn 0.89496756 0.35122934 -0.2750837
vn 0.83011657 0.5183918 -0.20536904
vn 0.8338327 0.51112556 -0.20850351
vn 0.7020327 0.7027858 -0.115074635
vn 0.69719493 0.7080156 -0.11239697
vn 0.5312038 0.8462962 -0.040066082
vn 0.53749055 0.8422093 -0.04227755
vn 0.21264723 0.9767654 0.02665581
vn 0.21890919 0.9753087 0.029183086
vn -0.00013308338 0.9999486 0.010133932
vn -0.008004577 0.9999667 0.0016037398
vn -0.06455518 0.99771297 -0.020037787
vn -0.06376556 0.9975454 -0.02893151
vn -0.055082526 0.9979609 -0.032247737
vn -0.054063775 0.99780047 -0.038357824
vn -0.040201157 0.9990095 -0.019077891
vn -0.039781988 0.99893486 -0.023378437
vn -0.035148676 0.998816 0.033631425
vn -0.034383096 0.99882215 0.034235593
vn -0.04339099 0.99750847 0.05562524
vn -0.042872183 0.99718314 0.061543986
vn -0.0588441 0.9969395 0.05146928
vn -0.059696257 0.9966637 0.055658426
vn -0.050474636 0.9982811 0.029785445
vn -0.054228418 0.99800265 0.03240335
vn -0.0085264025 0.9999479 0.005612364
vn -0.011303079 0.99991196 0.006946045
vn 0.01667743 0.9998547 -0.00353688
vn 0.01610821 0.9998659 -0.0029477263
vn 0.0048731137 0.9999874 -0.0011996711
vn 0.0048466143 0.9999874 -0.0012958294
g WonderBox_SmokeTop3_0
f 3/3/3 2/2/2 1/1/1
f 4/4/4 3/3/3 1/1/1
f 1/1/1 2/2/2 5/5/5
f 2/2/2 6/6/6 5/5/5
f 5/5/5 6/6/6 7/7/7
f 6/6/6 8/8/8 7/7/7
f 7/7/7 8/8/8 9/9/9
f 8/8/8 10/10/10 9/9/9
f 9/9/9 10/10/10 11/11/11
f 10/10/10 12/12/12 11/11/11
f 11/11/11 12/12/12 13/13/13
f 12/12/12 14/14/14 13/13/13
f 13/13/13 14/14/14 15/15/15
f 14/14/14 16/16/16 15/15/15
f 15/15/15 16/16/16 17/17/17
f 16/16/16 18/18/18 17/17/17
f 17/17/17 18/18/18 19/19/19
f 18/18/18 20/20/20 19/19/19
f 19/19/19 20/20/20 21/21/21
f 20/20/20 22/22/22 21/21/21
f 21/21/21 22/22/22 23/23/23
f 22/22/22 24/24/24 23/23/23
f 23/23/23 24/24/24 25/25/25
f 26/26/26 23/23/23 25/25/25
f 26/26/26 25/25/25 27/27/27
f 28/28/28 26/26/26 27/27/27
f 28/28/28 27/27/27 29/29/29
f 27/27/27 30/30/30 29/29/29
f 29/29/29 30/30/30 31/31/31
f 30/30/30 32/32/32 31/31/31
f 31/31/31 32/32/32 33/33/33
f 32/32/32 34/34/34 33/33/33
f 33/33/33 34/34/34 35/35/35
f 34/34/34 36/36/36 35/35/35
f 35/35/35 36/36/36 37/37/37
f 36/36/36 38/38/38 37/37/37
f 37/37/37 38/38/38 39/39/39
f 38/38/38 40/40/40 39/39/39
f 39/39/39 40/40/40 41/41/41
f 40/40/40 42/42/42 41/41/41
f 41/41/41 42/42/42 43/43/43
f 42/42/42 44/44/44 43/43/43
f 43/43/43 44/44/44 45/45/45
f 44/44/44 46/46/46 45/45/45
f 45/45/45 46/46/46 47/47/47
f 46/46/46 48/48/48 47/47/47
f 47/47/47 48/48/48 49/49/49
f 48/48/48 50/50/50 49/49/49
f 49/49/49 50/50/50 51/51/51
f 50/50/50 52/52/52 51/51/51
f 51/51/51 52/52/52 53/53/53
f 52/52/52 54/54/54 53/53/53
f 53/53/53 54/54/54 55/55/55
f 54/54/54 56/56/56 55/55/55
f 55/55/55 56/56/56 57/57/57
f 58/58/58 55/55/55 57/57/57
f 57/57/57 56/56/56 59/59/59
f 56/56/56 60/60/60 59/59/59
f 60/60/60 56/56/56 54/54/54
f 59/59/59 60/60/60 61/61/61
f 60/60/60 62/62/62 61/61/61
f 62/62/62 60/60/60 63/63/63
f 60/60/60 64/64/64 63/63/63
f 64/64/64 60/60/60 54/54/54
f 64/64/64 54/54/54 52/52/52
f 63/63/63 64/64/64 65/65/65
f 65/65/65 64/64/64 52/52/52
f 65/65/65 52/52/52 50/50/50
f 66/66/66 63/63/63 65/65/65
f 66/66/66 65/65/65 67/67/67
f 68/68/68 66/66/66 67/67/67
f 67/67/67 65/65/65 50/50/50
f 68/68/68 67/67/67 69/69/69
f 67/67/67 70/70/70 69/69/69
f 69/69/69 70/70/70 71/71/71
f 72/72/72 69/69/69 71/71/71
f 67/67/67 50/50/50 48/48/48
f 70/70/70 67/67/67 48/48/48
f 70/70/70 48/48/48 46/46/46
f 71/71/71 70/70/70 46/46/46
f 72/72/72 71/71/71 73/73/73
f 74/74/74 72/72/72 73/73/73
f 71/71/71 46/46/46 44/44/44
f 73/73/73 71/71/71 44/44/44
f 74/74/74 73/73/73 75/75/75
f 73/73/73 76/76/76 75/75/75
f 75/75/75 76/76/76 77/77/77
f 78/78/78 75/75/75 77/77/77
f 73/73/73 44/44/44 42/42/42
f 76/76/76 73/73/73 42/42/42
f 76/76/76 42/42/42 40/40/40
f 77/77/77 76/76/76 40/40/40
f 78/78/78 77/77/77 79/79/79
f 80/80/80 78/78/78 79/79/79
f 77/77/77 40/40/40 38/38/38
f 79/79/79 77/77/77 38/38/38
f 80/80/80 79/79/79 81/81/81
f 79/79/79 82/82/82 81/81/81
f 81/81/81 82/82/82 83/83/83
f 84/84/84 81/81/81 83/83/83
f 79/79/79 38/38/38 36/36/36
f 82/82/82 79/79/79 36/36/36
f 82/82/82 36/36/36 34/34/34
f 83/83/83 82/82/82 34/34/34
f 84/84/84 83/83/83 85/85/85
f 86/86/86 84/84/84 85/85/85
f 83/83/83 34/34/34 32/32/32
f 85/85/85 83/83/83 32/32/32
f 86/86/86 85/85/85 87/87/87
f 85/85/85 88/88/88 87/87/87
f 87/87/87 88/88/88 89/89/89
f 90/90/90 87/87/87 89/89/89
f 85/85/85 32/32/32 30/30/30
f 88/88/88 85/85/85 30/30/30
f 88/88/88 30/30/30 27/27/27
f 89/89/89 88/88/88 27/27/27
f 90/90/90 89/89/89 91/91/91
f 89/89/89 92/92/92 91/91/91
f 25/25/25 92/92/92 89/89/89
f 27/27/27 25/25/25 89/89/89
f 91/91/91 92/92/92 93/93/93
f 92/92/92 94/94/94 93/93/93
f 24/24/24 94/94/94 92/92/92
f 25/25/25 24/24/24 92/92/92
f 95/95/95 93/93/93 94/94/94
f 96/96/96 95/95/95 94/94/94
f 22/22/22 96/96/96 94/94/94
f 24/24/24 22/22/22 94/94/94
f 97/97/97 95/95/95 96/96/96
f 98/98/98 97/97/97 96/96/96
f 20/20/20 98/98/98 96/96/96
f 22/22/22 20/20/20 96/96/96
f 99/99/99 97/97/97 98/98/98
f 100/100/100 99/99/99 98/98/98
f 18/18/18 100/100/100 98/98/98
f 20/20/20 18/18/18 98/98/98
f 101/101/101 99/99/99 100/100/100
f 102/102/102 101/101/101 100/100/100
f 16/16/16 102/102/102 100/100/100
f 18/18/18 16/16/16 100/100/100
f 103/103/103 101/101/101 102/102/102
f 104/104/104 103/103/103 102/102/102
f 14/14/14 104/104/104 102/102/102
f 16/16/16 14/14/14 102/102/102
f 105/105/105 103/103/103 104/104/104
f 106/106/106 105/105/105 104/104/104
f 12/12/12 106/106/106 104/104/104
f 14/14/14 12/12/12 104/104/104
f 107/107/107 105/105/105 106/106/106
f 108/108/108 107/107/107 106/106/106
f 10/10/10 108/108/108 106/106/106
f 12/12/12 10/10/10 106/106/106
f 109/109/109 107/107/107 108/108/108
f 110/110/110 109/109/109 108/108/108
f 8/8/8 110/110/110 108/108/108
f 10/10/10 8/8/8 108/108/108
f 111/111/111 109/109/109 110/110/110
f 112/112/112 111/111/111 110/110/110
f 6/6/6 112/112/112 110/110/110
f 8/8/8 6/6/6 110/110/110
f 111/111/111 112/112/112 113/113/113
f 112/112/112 114/114/114 113/113/113
f 113/113/113 114/114/114 115/115/115
f 116/116/116 113/113/113 115/115/115
f 112/112/112 6/6/6 2/2/2
f 114/114/114 112/112/112 2/2/2
f 114/114/114 2/2/2 3/3/3
f 115/115/115 114/114/114 3/3/3
